<?xml version="1.0" encoding="UTF-8"?>
<svg xmlns="http://www.w3.org/2000/svg" xmlns:xlink="http://www.w3.org/1999/xlink" width="20px" height="20px" viewBox="0 0 20 20" version="1.1">
<defs>
<filter id="alpha" filterUnits="objectBoundingBox" x="0%" y="0%" width="100%" height="100%">
  <feColorMatrix type="matrix" in="SourceGraphic" values="0 0 0 0 1 0 0 0 0 1 0 0 0 0 1 0 0 0 1 0"/>
</filter>
<mask id="mask0">
  <g filter="url(#alpha)">
<rect x="0" y="0" width="20" height="20" style="fill:rgb(0%,0%,0%);fill-opacity:0.858824;stroke:none;"/>
  </g>
</mask>
<clipPath id="clip1">
  <rect x="0" y="0" width="20" height="20"/>
</clipPath>
<g id="surface5" clip-path="url(#clip1)">
<path style="fill-rule:nonzero;fill:rgb(49.803922%,49.803922%,49.803922%);fill-opacity:1;stroke-width:1;stroke-linecap:butt;stroke-linejoin:miter;stroke:rgb(49.803922%,49.803922%,49.803922%);stroke-opacity:1;stroke-miterlimit:4;" d="M 82.5 30 L 99.492188 46.992188 L 171.015625 47.5 L 99.492188 48.007812 Z M 82.5 30 " transform="matrix(0.1,0,0,0.1,0,0)"/>
</g>
<mask id="mask1">
  <g filter="url(#alpha)">
<rect x="0" y="0" width="20" height="20" style="fill:rgb(0%,0%,0%);fill-opacity:0.858824;stroke:none;"/>
  </g>
</mask>
<clipPath id="clip2">
  <rect x="0" y="0" width="20" height="20"/>
</clipPath>
<g id="surface8" clip-path="url(#clip2)">
<path style="fill-rule:nonzero;fill:rgb(49.803922%,49.803922%,49.803922%);fill-opacity:1;stroke-width:1;stroke-linecap:butt;stroke-linejoin:miter;stroke:rgb(49.803922%,49.803922%,49.803922%);stroke-opacity:1;stroke-miterlimit:4;" d="M 19.492188 33.007812 L 16.484375 36.992188 Z M 19.492188 33.007812 " transform="matrix(0.1,0,0,0.1,0,0)"/>
</g>
<mask id="mask2">
  <g filter="url(#alpha)">
<rect x="0" y="0" width="20" height="20" style="fill:rgb(0%,0%,0%);fill-opacity:0.858824;stroke:none;"/>
  </g>
</mask>
<clipPath id="clip3">
  <rect x="0" y="0" width="20" height="20"/>
</clipPath>
<g id="surface11" clip-path="url(#clip3)">
<path style="fill-rule:nonzero;fill:rgb(49.803922%,49.803922%,49.803922%);fill-opacity:1;stroke-width:1;stroke-linecap:butt;stroke-linejoin:miter;stroke:rgb(49.803922%,49.803922%,49.803922%);stroke-opacity:1;stroke-miterlimit:4;" d="M 179.492188 50 L 184.492188 56.015625 Z M 179.492188 50 " transform="matrix(0.1,0,0,0.1,0,0)"/>
</g>
<mask id="mask3">
  <g filter="url(#alpha)">
<rect x="0" y="0" width="20" height="20" style="fill:rgb(0%,0%,0%);fill-opacity:0.858824;stroke:none;"/>
  </g>
</mask>
<clipPath id="clip4">
  <rect x="0" y="0" width="20" height="20"/>
</clipPath>
<g id="surface14" clip-path="url(#clip4)">
<path style="fill-rule:nonzero;fill:rgb(49.803922%,49.803922%,49.803922%);fill-opacity:1;stroke-width:1;stroke-linecap:butt;stroke-linejoin:miter;stroke:rgb(49.803922%,49.803922%,49.803922%);stroke-opacity:1;stroke-miterlimit:4;" d="M 90.507812 68.007812 L 110 68.515625 L 90.507812 68.984375 Z M 90.507812 68.007812 " transform="matrix(0.1,0,0,0.1,0,0)"/>
</g>
<mask id="mask4">
  <g filter="url(#alpha)">
<rect x="0" y="0" width="20" height="20" style="fill:rgb(0%,0%,0%);fill-opacity:0.858824;stroke:none;"/>
  </g>
</mask>
<clipPath id="clip5">
  <rect x="0" y="0" width="20" height="20"/>
</clipPath>
<g id="surface17" clip-path="url(#clip5)">
<path style="fill-rule:nonzero;fill:rgb(49.803922%,49.803922%,49.803922%);fill-opacity:1;stroke-width:1;stroke-linecap:butt;stroke-linejoin:miter;stroke:rgb(49.803922%,49.803922%,49.803922%);stroke-opacity:1;stroke-miterlimit:4;" d="M 61.484375 96.992188 L 88.007812 97.5 L 61.484375 98.007812 Z M 61.484375 96.992188 " transform="matrix(0.1,0,0,0.1,0,0)"/>
</g>
<mask id="mask5">
  <g filter="url(#alpha)">
<rect x="0" y="0" width="20" height="20" style="fill:rgb(0%,0%,0%);fill-opacity:0.858824;stroke:none;"/>
  </g>
</mask>
<clipPath id="clip6">
  <rect x="0" y="0" width="20" height="20"/>
</clipPath>
<g id="surface20" clip-path="url(#clip6)">
<path style="fill-rule:nonzero;fill:rgb(49.803922%,49.803922%,49.803922%);fill-opacity:1;stroke-width:1;stroke-linecap:butt;stroke-linejoin:miter;stroke:rgb(49.803922%,49.803922%,49.803922%);stroke-opacity:1;stroke-miterlimit:4;" d="M 112.5 96.992188 L 138.984375 97.5 L 112.5 98.007812 Z M 112.5 96.992188 " transform="matrix(0.1,0,0,0.1,0,0)"/>
</g>
<mask id="mask6">
  <g filter="url(#alpha)">
<rect x="0" y="0" width="20" height="20" style="fill:rgb(0%,0%,0%);fill-opacity:0.858824;stroke:none;"/>
  </g>
</mask>
<clipPath id="clip7">
  <rect x="0" y="0" width="20" height="20"/>
</clipPath>
<g id="surface23" clip-path="url(#clip7)">
<path style="fill-rule:nonzero;fill:rgb(49.803922%,49.803922%,49.803922%);fill-opacity:1;stroke-width:1;stroke-linecap:butt;stroke-linejoin:miter;stroke:rgb(49.803922%,49.803922%,49.803922%);stroke-opacity:1;stroke-miterlimit:4;" d="M 61.484375 121.015625 L 88.007812 121.484375 L 61.484375 121.992188 Z M 61.484375 121.015625 " transform="matrix(0.1,0,0,0.1,0,0)"/>
</g>
<mask id="mask7">
  <g filter="url(#alpha)">
<rect x="0" y="0" width="20" height="20" style="fill:rgb(0%,0%,0%);fill-opacity:0.858824;stroke:none;"/>
  </g>
</mask>
<clipPath id="clip8">
  <rect x="0" y="0" width="20" height="20"/>
</clipPath>
<g id="surface26" clip-path="url(#clip8)">
<path style="fill-rule:nonzero;fill:rgb(49.803922%,49.803922%,49.803922%);fill-opacity:1;stroke-width:1;stroke-linecap:butt;stroke-linejoin:miter;stroke:rgb(49.803922%,49.803922%,49.803922%);stroke-opacity:1;stroke-miterlimit:4;" d="M 112.5 121.015625 L 138.007812 121.484375 L 112.5 121.992188 Z M 112.5 121.015625 " transform="matrix(0.1,0,0,0.1,0,0)"/>
</g>
<mask id="mask8">
  <g filter="url(#alpha)">
<rect x="0" y="0" width="20" height="20" style="fill:rgb(0%,0%,0%);fill-opacity:0.858824;stroke:none;"/>
  </g>
</mask>
<clipPath id="clip9">
  <rect x="0" y="0" width="20" height="20"/>
</clipPath>
<g id="surface29" clip-path="url(#clip9)">
<path style="fill-rule:nonzero;fill:rgb(49.803922%,49.803922%,49.803922%);fill-opacity:1;stroke-width:1;stroke-linecap:butt;stroke-linejoin:miter;stroke:rgb(49.803922%,49.803922%,49.803922%);stroke-opacity:1;stroke-miterlimit:4;" d="M 90.507812 150 L 110 150.507812 L 90.507812 151.015625 Z M 90.507812 150 " transform="matrix(0.1,0,0,0.1,0,0)"/>
</g>
<mask id="mask9">
  <g filter="url(#alpha)">
<rect x="0" y="0" width="20" height="20" style="fill:rgb(0%,0%,0%);fill-opacity:0.858824;stroke:none;"/>
  </g>
</mask>
<clipPath id="clip10">
  <rect x="0" y="0" width="20" height="20"/>
</clipPath>
<g id="surface32" clip-path="url(#clip10)">
<path style="fill-rule:nonzero;fill:rgb(49.803922%,49.803922%,49.803922%);fill-opacity:1;stroke-width:1;stroke-linecap:butt;stroke-linejoin:miter;stroke:rgb(49.803922%,49.803922%,49.803922%);stroke-opacity:1;stroke-miterlimit:4;" d="M 16.484375 163.007812 L 18.515625 166.015625 Z M 16.484375 163.007812 " transform="matrix(0.1,0,0,0.1,0,0)"/>
</g>
<mask id="mask10">
  <g filter="url(#alpha)">
<rect x="0" y="0" width="20" height="20" style="fill:rgb(0%,0%,0%);fill-opacity:0.858824;stroke:none;"/>
  </g>
</mask>
<clipPath id="clip11">
  <rect x="0" y="0" width="20" height="20"/>
</clipPath>
<g id="surface35" clip-path="url(#clip11)">
<path style="fill-rule:nonzero;fill:rgb(49.803922%,49.803922%,49.803922%);fill-opacity:1;stroke-width:1;stroke-linecap:butt;stroke-linejoin:miter;stroke:rgb(49.803922%,49.803922%,49.803922%);stroke-opacity:1;stroke-miterlimit:4;" d="M 183.515625 163.007812 L 180.507812 166.992188 Z M 183.515625 163.007812 " transform="matrix(0.1,0,0,0.1,0,0)"/>
</g>
<mask id="mask11">
  <g filter="url(#alpha)">
<rect x="0" y="0" width="20" height="20" style="fill:rgb(0%,0%,0%);fill-opacity:0.372549;stroke:none;"/>
  </g>
</mask>
<clipPath id="clip12">
  <rect x="0" y="0" width="20" height="20"/>
</clipPath>
<g id="surface40" clip-path="url(#clip12)">
<path style="fill-rule:nonzero;fill:rgb(50.196081%,50.196081%,50.196081%);fill-opacity:1;stroke-width:1;stroke-linecap:butt;stroke-linejoin:miter;stroke:rgb(50.196081%,50.196081%,50.196081%);stroke-opacity:1;stroke-miterlimit:4;" d="M 27.5 28.984375 L 82.5 28.984375 L 100 46.484375 L 82.5 30 L 27.5 30 Z M 27.5 28.984375 " transform="matrix(0.1,0,0,0.1,0,0)"/>
</g>
<mask id="mask12">
  <g filter="url(#alpha)">
<rect x="0" y="0" width="20" height="20" style="fill:rgb(0%,0%,0%);fill-opacity:0.372549;stroke:none;"/>
  </g>
</mask>
<clipPath id="clip13">
  <rect x="0" y="0" width="20" height="20"/>
</clipPath>
<g id="surface43" clip-path="url(#clip13)">
<path style="fill-rule:nonzero;fill:rgb(50.196081%,50.196081%,50.196081%);fill-opacity:1;stroke-width:1;stroke-linecap:butt;stroke-linejoin:miter;stroke:rgb(50.196081%,50.196081%,50.196081%);stroke-opacity:1;stroke-miterlimit:4;" d="M 23.515625 30 L 25 30.507812 L 20.507812 33.007812 L 21.484375 31.015625 Z M 23.515625 30 " transform="matrix(0.1,0,0,0.1,0,0)"/>
</g>
<mask id="mask13">
  <g filter="url(#alpha)">
<rect x="0" y="0" width="20" height="20" style="fill:rgb(0%,0%,0%);fill-opacity:0.372549;stroke:none;"/>
  </g>
</mask>
<clipPath id="clip14">
  <rect x="0" y="0" width="20" height="20"/>
</clipPath>
<g id="surface46" clip-path="url(#clip14)">
<path style="fill-rule:nonzero;fill:rgb(50.196081%,50.196081%,50.196081%);fill-opacity:1;stroke-width:1;stroke-linecap:butt;stroke-linejoin:miter;stroke:rgb(50.196081%,50.196081%,50.196081%);stroke-opacity:1;stroke-miterlimit:4;" d="M 15.507812 36.992188 L 14.492188 38.984375 Z M 15.507812 36.992188 " transform="matrix(0.1,0,0,0.1,0,0)"/>
</g>
<mask id="mask14">
  <g filter="url(#alpha)">
<rect x="0" y="0" width="20" height="20" style="fill:rgb(0%,0%,0%);fill-opacity:0.372549;stroke:none;"/>
  </g>
</mask>
<clipPath id="clip15">
  <rect x="0" y="0" width="20" height="20"/>
</clipPath>
<g id="surface49" clip-path="url(#clip15)">
<path style="fill-rule:nonzero;fill:rgb(50.196081%,50.196081%,50.196081%);fill-opacity:1;stroke-width:1;stroke-linecap:butt;stroke-linejoin:miter;stroke:rgb(50.196081%,50.196081%,50.196081%);stroke-opacity:1;stroke-miterlimit:4;" d="M 12.5 43.984375 L 13.007812 156.484375 L 11.992188 156.484375 Z M 12.5 43.984375 " transform="matrix(0.1,0,0,0.1,0,0)"/>
</g>
<mask id="mask15">
  <g filter="url(#alpha)">
<rect x="0" y="0" width="20" height="20" style="fill:rgb(0%,0%,0%);fill-opacity:0.372549;stroke:none;"/>
  </g>
</mask>
<clipPath id="clip16">
  <rect x="0" y="0" width="20" height="20"/>
</clipPath>
<g id="surface52" clip-path="url(#clip16)">
<path style="fill-rule:nonzero;fill:rgb(50.196081%,50.196081%,50.196081%);fill-opacity:1;stroke-width:1;stroke-linecap:butt;stroke-linejoin:miter;stroke:rgb(50.196081%,50.196081%,50.196081%);stroke-opacity:1;stroke-miterlimit:4;" d="M 171.484375 46.992188 L 173.984375 47.5 L 171.484375 48.007812 Z M 171.484375 46.992188 " transform="matrix(0.1,0,0,0.1,0,0)"/>
</g>
<mask id="mask16">
  <g filter="url(#alpha)">
<rect x="0" y="0" width="20" height="20" style="fill:rgb(0%,0%,0%);fill-opacity:0.372549;stroke:none;"/>
  </g>
</mask>
<clipPath id="clip17">
  <rect x="0" y="0" width="20" height="20"/>
</clipPath>
<g id="surface55" clip-path="url(#clip17)">
<path style="fill-rule:nonzero;fill:rgb(50.196081%,50.196081%,50.196081%);fill-opacity:1;stroke-width:1;stroke-linecap:butt;stroke-linejoin:miter;stroke:rgb(50.196081%,50.196081%,50.196081%);stroke-opacity:1;stroke-miterlimit:4;" d="M 180.507812 50 L 184.492188 55 Z M 180.507812 50 " transform="matrix(0.1,0,0,0.1,0,0)"/>
</g>
<mask id="mask17">
  <g filter="url(#alpha)">
<rect x="0" y="0" width="20" height="20" style="fill:rgb(0%,0%,0%);fill-opacity:0.372549;stroke:none;"/>
  </g>
</mask>
<clipPath id="clip18">
  <rect x="0" y="0" width="20" height="20"/>
</clipPath>
<g id="surface58" clip-path="url(#clip18)">
<path style="fill-rule:nonzero;fill:rgb(50.196081%,50.196081%,50.196081%);fill-opacity:1;stroke-width:1;stroke-linecap:butt;stroke-linejoin:miter;stroke:rgb(50.196081%,50.196081%,50.196081%);stroke-opacity:1;stroke-miterlimit:4;" d="M 187.5 61.015625 L 188.007812 156.484375 L 186.992188 156.484375 Z M 187.5 61.015625 " transform="matrix(0.1,0,0,0.1,0,0)"/>
</g>
<mask id="mask18">
  <g filter="url(#alpha)">
<rect x="0" y="0" width="20" height="20" style="fill:rgb(0%,0%,0%);fill-opacity:0.372549;stroke:none;"/>
  </g>
</mask>
<clipPath id="clip19">
  <rect x="0" y="0" width="20" height="20"/>
</clipPath>
<g id="surface61" clip-path="url(#clip19)">
<path style="fill-rule:nonzero;fill:rgb(50.196081%,50.196081%,50.196081%);fill-opacity:1;stroke-width:1;stroke-linecap:butt;stroke-linejoin:miter;stroke:rgb(50.196081%,50.196081%,50.196081%);stroke-opacity:1;stroke-miterlimit:4;" d="M 89.492188 68.984375 L 88.984375 70.507812 L 88.515625 98.007812 L 88.007812 70.507812 Z M 89.492188 68.984375 " transform="matrix(0.1,0,0,0.1,0,0)"/>
</g>
<mask id="mask19">
  <g filter="url(#alpha)">
<rect x="0" y="0" width="20" height="20" style="fill:rgb(0%,0%,0%);fill-opacity:0.372549;stroke:none;"/>
  </g>
</mask>
<clipPath id="clip20">
  <rect x="0" y="0" width="20" height="20"/>
</clipPath>
<g id="surface64" clip-path="url(#clip20)">
<path style="fill-rule:nonzero;fill:rgb(50.196081%,50.196081%,50.196081%);fill-opacity:1;stroke-width:1;stroke-linecap:butt;stroke-linejoin:miter;stroke:rgb(50.196081%,50.196081%,50.196081%);stroke-opacity:1;stroke-miterlimit:4;" d="M 110.507812 68.984375 L 111.992188 70.507812 L 111.992188 97.5 L 111.015625 97.5 L 111.015625 70.507812 Z M 110.507812 68.984375 " transform="matrix(0.1,0,0,0.1,0,0)"/>
</g>
<mask id="mask20">
  <g filter="url(#alpha)">
<rect x="0" y="0" width="20" height="20" style="fill:rgb(0%,0%,0%);fill-opacity:0.372549;stroke:none;"/>
  </g>
</mask>
<clipPath id="clip21">
  <rect x="0" y="0" width="20" height="20"/>
</clipPath>
<g id="surface67" clip-path="url(#clip21)">
<path style="fill-rule:nonzero;fill:rgb(50.196081%,50.196081%,50.196081%);fill-opacity:1;stroke-width:1;stroke-linecap:butt;stroke-linejoin:miter;stroke:rgb(50.196081%,50.196081%,50.196081%);stroke-opacity:1;stroke-miterlimit:4;" d="M 60.507812 98.007812 L 60 99.492188 L 60 119.492188 L 61.015625 120.507812 L 58.984375 119.492188 L 58.984375 99.492188 Z M 60.507812 98.007812 " transform="matrix(0.1,0,0,0.1,0,0)"/>
</g>
<mask id="mask21">
  <g filter="url(#alpha)">
<rect x="0" y="0" width="20" height="20" style="fill:rgb(0%,0%,0%);fill-opacity:0.372549;stroke:none;"/>
  </g>
</mask>
<clipPath id="clip22">
  <rect x="0" y="0" width="20" height="20"/>
</clipPath>
<g id="surface70" clip-path="url(#clip22)">
<path style="fill-rule:nonzero;fill:rgb(50.196081%,50.196081%,50.196081%);fill-opacity:1;stroke-width:1;stroke-linecap:butt;stroke-linejoin:miter;stroke:rgb(50.196081%,50.196081%,50.196081%);stroke-opacity:1;stroke-miterlimit:4;" d="M 139.492188 98.007812 L 141.015625 99.492188 L 141.015625 119.492188 L 138.984375 120.507812 L 140 119.492188 L 140 99.492188 Z M 139.492188 98.007812 " transform="matrix(0.1,0,0,0.1,0,0)"/>
</g>
<mask id="mask22">
  <g filter="url(#alpha)">
<rect x="0" y="0" width="20" height="20" style="fill:rgb(0%,0%,0%);fill-opacity:0.372549;stroke:none;"/>
  </g>
</mask>
<clipPath id="clip23">
  <rect x="0" y="0" width="20" height="20"/>
</clipPath>
<g id="surface73" clip-path="url(#clip23)">
<path style="fill-rule:nonzero;fill:rgb(50.196081%,50.196081%,50.196081%);fill-opacity:1;stroke-width:1;stroke-linecap:butt;stroke-linejoin:miter;stroke:rgb(50.196081%,50.196081%,50.196081%);stroke-opacity:1;stroke-miterlimit:4;" d="M 88.515625 121.015625 L 88.984375 148.515625 L 90 149.492188 L 88.007812 148.515625 Z M 88.515625 121.015625 " transform="matrix(0.1,0,0,0.1,0,0)"/>
</g>
<mask id="mask23">
  <g filter="url(#alpha)">
<rect x="0" y="0" width="20" height="20" style="fill:rgb(0%,0%,0%);fill-opacity:0.372549;stroke:none;"/>
  </g>
</mask>
<clipPath id="clip24">
  <rect x="0" y="0" width="20" height="20"/>
</clipPath>
<g id="surface76" clip-path="url(#clip24)">
<path style="fill-rule:nonzero;fill:rgb(50.196081%,50.196081%,50.196081%);fill-opacity:1;stroke-width:1;stroke-linecap:butt;stroke-linejoin:miter;stroke:rgb(50.196081%,50.196081%,50.196081%);stroke-opacity:1;stroke-miterlimit:4;" d="M 111.484375 121.015625 L 111.992188 147.5 L 111.015625 147.5 Z M 111.484375 121.015625 " transform="matrix(0.1,0,0,0.1,0,0)"/>
</g>
<mask id="mask24">
  <g filter="url(#alpha)">
<rect x="0" y="0" width="20" height="20" style="fill:rgb(0%,0%,0%);fill-opacity:0.372549;stroke:none;"/>
  </g>
</mask>
<clipPath id="clip25">
  <rect x="0" y="0" width="20" height="20"/>
</clipPath>
<g id="surface79" clip-path="url(#clip25)">
<path style="fill-rule:nonzero;fill:rgb(50.196081%,50.196081%,50.196081%);fill-opacity:1;stroke-width:1;stroke-linecap:butt;stroke-linejoin:miter;stroke:rgb(50.196081%,50.196081%,50.196081%);stroke-opacity:1;stroke-miterlimit:4;" d="M 14.492188 161.015625 L 18.515625 166.015625 L 25 169.492188 L 23.515625 170 L 15 163.515625 Z M 14.492188 161.015625 " transform="matrix(0.1,0,0,0.1,0,0)"/>
</g>
<mask id="mask25">
  <g filter="url(#alpha)">
<rect x="0" y="0" width="20" height="20" style="fill:rgb(0%,0%,0%);fill-opacity:0.372549;stroke:none;"/>
  </g>
</mask>
<clipPath id="clip26">
  <rect x="0" y="0" width="20" height="20"/>
</clipPath>
<g id="surface82" clip-path="url(#clip26)">
<path style="fill-rule:nonzero;fill:rgb(50.196081%,50.196081%,50.196081%);fill-opacity:1;stroke-width:1;stroke-linecap:butt;stroke-linejoin:miter;stroke:rgb(50.196081%,50.196081%,50.196081%);stroke-opacity:1;stroke-miterlimit:4;" d="M 185.507812 161.015625 L 184.492188 163.007812 Z M 185.507812 161.015625 " transform="matrix(0.1,0,0,0.1,0,0)"/>
</g>
<mask id="mask26">
  <g filter="url(#alpha)">
<rect x="0" y="0" width="20" height="20" style="fill:rgb(0%,0%,0%);fill-opacity:0.372549;stroke:none;"/>
  </g>
</mask>
<clipPath id="clip27">
  <rect x="0" y="0" width="20" height="20"/>
</clipPath>
<g id="surface85" clip-path="url(#clip27)">
<path style="fill-rule:nonzero;fill:rgb(50.196081%,50.196081%,50.196081%);fill-opacity:1;stroke-width:1;stroke-linecap:butt;stroke-linejoin:miter;stroke:rgb(50.196081%,50.196081%,50.196081%);stroke-opacity:1;stroke-miterlimit:4;" d="M 27.5 170 L 171.992188 170.507812 L 27.5 171.015625 Z M 27.5 170 " transform="matrix(0.1,0,0,0.1,0,0)"/>
</g>
</defs>
<g id="surface1">
<use xlink:href="#surface5" mask="url(#mask0)"/>
<use xlink:href="#surface8" mask="url(#mask1)"/>
<use xlink:href="#surface11" mask="url(#mask2)"/>
<use xlink:href="#surface14" mask="url(#mask3)"/>
<use xlink:href="#surface17" mask="url(#mask4)"/>
<use xlink:href="#surface20" mask="url(#mask5)"/>
<use xlink:href="#surface23" mask="url(#mask6)"/>
<use xlink:href="#surface26" mask="url(#mask7)"/>
<use xlink:href="#surface29" mask="url(#mask8)"/>
<use xlink:href="#surface32" mask="url(#mask9)"/>
<use xlink:href="#surface35" mask="url(#mask10)"/>
<path style="fill-rule:nonzero;fill:rgb(49.803922%,49.803922%,49.803922%);fill-opacity:1;stroke-width:1;stroke-linecap:butt;stroke-linejoin:miter;stroke:rgb(49.803922%,49.803922%,49.803922%);stroke-opacity:1;stroke-miterlimit:4;" d="M 26.484375 30 L 81.484375 30 L 99.492188 48.007812 L 173.515625 48.007812 C 178.75 49.414062 182.617188 52.226562 185 56.484375 L 186.992188 61.484375 L 186.992188 156.484375 C 185.78125 161.289062 183.28125 164.804688 179.492188 166.992188 L 172.5 170 L 26.484375 170 C 21.25 168.59375 17.382812 165.78125 15 161.484375 L 13.007812 156.484375 L 13.007812 43.515625 C 14.414062 38.242188 17.226562 34.414062 21.484375 31.992188 Z M 91.015625 68.007812 L 88.007812 71.015625 L 88.007812 96.992188 L 61.992188 96.992188 L 61.015625 98.007812 L 58.984375 98.984375 L 58.984375 121.015625 L 61.992188 121.992188 L 88.007812 121.992188 L 88.007812 150 L 91.015625 151.015625 L 110 151.015625 L 111.992188 148.984375 L 111.992188 121.992188 L 138.007812 121.992188 L 138.984375 121.015625 L 141.015625 121.015625 L 141.015625 98.007812 L 138.984375 96.992188 L 111.992188 96.992188 L 111.992188 71.015625 L 110 68.007812 Z M 91.015625 68.007812 " transform="matrix(0.1,0,0,0.1,0,0)"/>
<use xlink:href="#surface40" mask="url(#mask11)"/>
<use xlink:href="#surface43" mask="url(#mask12)"/>
<use xlink:href="#surface46" mask="url(#mask13)"/>
<use xlink:href="#surface49" mask="url(#mask14)"/>
<use xlink:href="#surface52" mask="url(#mask15)"/>
<use xlink:href="#surface55" mask="url(#mask16)"/>
<use xlink:href="#surface58" mask="url(#mask17)"/>
<use xlink:href="#surface61" mask="url(#mask18)"/>
<use xlink:href="#surface64" mask="url(#mask19)"/>
<use xlink:href="#surface67" mask="url(#mask20)"/>
<use xlink:href="#surface70" mask="url(#mask21)"/>
<use xlink:href="#surface73" mask="url(#mask22)"/>
<use xlink:href="#surface76" mask="url(#mask23)"/>
<use xlink:href="#surface79" mask="url(#mask24)"/>
<use xlink:href="#surface82" mask="url(#mask25)"/>
<use xlink:href="#surface85" mask="url(#mask26)"/>
</g>
</svg>
