<svg width="200" height="200" version="1.1" xmlns="http://www.w3.org/2000/svg" desc="Created with imagetracer.js version 1.2.6" ><path fill="rgb(127,127,127)" stroke="rgb(127,127,127)" stroke-width="1" opacity="0.8588235294117647" d="M 82.5 30 L 99.5 47 L 171 47.5 L 99.5 48 L 82.5 30 Z " /><path fill="rgb(127,127,127)" stroke="rgb(127,127,127)" stroke-width="1" opacity="0.8588235294117647" d="M 19.5 33 L 16.5 37 L 19.5 33 Z " /><path fill="rgb(127,127,127)" stroke="rgb(127,127,127)" stroke-width="1" opacity="0.8588235294117647" d="M 179.5 50 L 184.5 56 L 179.5 50 Z " /><path fill="rgb(127,127,127)" stroke="rgb(127,127,127)" stroke-width="1" opacity="0.8588235294117647" d="M 90.5 68 L 110 68.5 L 90.5 69 L 90.5 68 Z " /><path fill="rgb(127,127,127)" stroke="rgb(127,127,127)" stroke-width="1" opacity="0.8588235294117647" d="M 61.5 97 L 88 97.5 L 61.5 98 L 61.5 97 Z " /><path fill="rgb(127,127,127)" stroke="rgb(127,127,127)" stroke-width="1" opacity="0.8588235294117647" d="M 112.5 97 L 139 97.5 L 112.5 98 L 112.5 97 Z " /><path fill="rgb(127,127,127)" stroke="rgb(127,127,127)" stroke-width="1" opacity="0.8588235294117647" d="M 61.5 121 L 88 121.5 L 61.5 122 L 61.5 121 Z " /><path fill="rgb(127,127,127)" stroke="rgb(127,127,127)" stroke-width="1" opacity="0.8588235294117647" d="M 112.5 121 L 138 121.5 L 112.5 122 L 112.5 121 Z " /><path fill="rgb(127,127,127)" stroke="rgb(127,127,127)" stroke-width="1" opacity="0.8588235294117647" d="M 90.5 150 L 110 150.5 L 90.5 151 L 90.5 150 Z " /><path fill="rgb(127,127,127)" stroke="rgb(127,127,127)" stroke-width="1" opacity="0.8588235294117647" d="M 16.5 163 L 18.5 166 L 16.5 163 Z " /><path fill="rgb(127,127,127)" stroke="rgb(127,127,127)" stroke-width="1" opacity="0.8588235294117647" d="M 183.5 163 L 180.5 167 L 183.5 163 Z " /><path fill="rgb(127,127,127)" stroke="rgb(127,127,127)" stroke-width="1" opacity="1" d="M 26.5 30 L 81.5 30 L 99.5 48 L 173.5 48 Q 181.4 50.1 185 56.5 L 187 61.5 L 187 156.5 Q 185.2 163.7 179.5 167 L 172.5 170 L 26.5 170 Q 18.6 167.9 15 161.5 L 13 156.5 L 13 43.5 Q 15.1 35.6 21.5 32 L 26.5 30 Z M 91 68 L 88 71 L 88 97 L 62 97 L 61 98 L 59 99 L 59 121 L 62 122 L 88 122 L 88 150 L 91 151 L 110 151 L 112 149 L 112 122 L 138 122 L 139 121 L 141 121 L 141 98 L 139 97 L 112 97 L 112 71 L 110 68 L 91 68 Z " /><path fill="rgb(0,0,0)" stroke="rgb(0,0,0)" stroke-width="1" opacity="0" d="M 0 0 L 200 0 L 200 200 L 0 200 L 0 0 Z M 28 29 L 17 34 L 12 45 L 12 157 L 15 164 Q 19 170 28 171 L 172 171 L 183 166 L 188 157 L 188 62 L 185 55 Q 181 49 174 47 L 101 47 L 83 29 L 28 29 Z " /><path fill="rgb(0,0,0)" stroke="rgb(0,0,0)" stroke-width="1" opacity="0" d="M 90.5 69 L 109.5 69 L 111 70.5 L 111 98 L 138.5 98 L 140 99.5 L 140 119.5 L 138.5 121 L 111 121 L 111 148.5 L 109.5 150 L 90.5 150 L 89 148.5 L 89 121 L 61.5 121 L 60 119.5 L 60 99.5 L 61.5 98 L 89 98 L 89 70.5 L 90.5 69 Z " /><path fill="rgb(128,128,128)" stroke="rgb(128,128,128)" stroke-width="1" opacity="0.37254901960784315" d="M 27.5 29 L 82.5 29 L 100 46.5 L 82.5 30 L 27.5 30 L 27.5 29 Z " /><path fill="rgb(128,128,128)" stroke="rgb(128,128,128)" stroke-width="1" opacity="0.37254901960784315" d="M 23.5 30 L 25 30.5 L 20.5 33 L 21.5 31 L 23.5 30 Z " /><path fill="rgb(128,128,128)" stroke="rgb(128,128,128)" stroke-width="1" opacity="0.37254901960784315" d="M 15.5 37 L 14.5 39 L 15.5 37 Z " /><path fill="rgb(128,128,128)" stroke="rgb(128,128,128)" stroke-width="1" opacity="0.37254901960784315" d="M 12.5 44 L 13 156.5 L 12 156.5 L 12.5 44 Z " /><path fill="rgb(128,128,128)" stroke="rgb(128,128,128)" stroke-width="1" opacity="0.37254901960784315" d="M 171.5 47 L 174 47.5 L 171.5 48 L 171.5 47 Z " /><path fill="rgb(128,128,128)" stroke="rgb(128,128,128)" stroke-width="1" opacity="0.37254901960784315" d="M 180.5 50 L 184.5 55 L 180.5 50 Z " /><path fill="rgb(128,128,128)" stroke="rgb(128,128,128)" stroke-width="1" opacity="0.37254901960784315" d="M 187.5 61 L 188 156.5 L 187 156.5 L 187.5 61 Z " /><path fill="rgb(128,128,128)" stroke="rgb(128,128,128)" stroke-width="1" opacity="0.37254901960784315" d="M 89.5 69 L 89 70.5 L 88.5 98 L 88 70.5 L 89.5 69 Z " /><path fill="rgb(128,128,128)" stroke="rgb(128,128,128)" stroke-width="1" opacity="0.37254901960784315" d="M 110.5 69 L 112 70.5 L 112 97.5 L 111 97.5 L 111 70.5 L 110.5 69 Z " /><path fill="rgb(128,128,128)" stroke="rgb(128,128,128)" stroke-width="1" opacity="0.37254901960784315" d="M 60.5 98 L 60 99.5 L 60 119.5 L 61 120.5 L 59 119.5 L 59 99.5 L 60.5 98 Z " /><path fill="rgb(128,128,128)" stroke="rgb(128,128,128)" stroke-width="1" opacity="0.37254901960784315" d="M 139.5 98 L 141 99.5 L 141 119.5 L 139 120.5 L 140 119.5 L 140 99.5 L 139.5 98 Z " /><path fill="rgb(128,128,128)" stroke="rgb(128,128,128)" stroke-width="1" opacity="0.37254901960784315" d="M 88.5 121 L 89 148.5 L 90 149.5 L 88 148.5 L 88.5 121 Z " /><path fill="rgb(128,128,128)" stroke="rgb(128,128,128)" stroke-width="1" opacity="0.37254901960784315" d="M 111.5 121 L 112 147.5 L 111 147.5 L 111.5 121 Z " /><path fill="rgb(128,128,128)" stroke="rgb(128,128,128)" stroke-width="1" opacity="0.37254901960784315" d="M 14.5 161 L 18.5 166 L 25 169.5 L 23.5 170 L 15 163.5 L 14.5 161 Z " /><path fill="rgb(128,128,128)" stroke="rgb(128,128,128)" stroke-width="1" opacity="0.37254901960784315" d="M 185.5 161 L 184.5 163 L 185.5 161 Z " /><path fill="rgb(128,128,128)" stroke="rgb(128,128,128)" stroke-width="1" opacity="0.37254901960784315" d="M 27.5 170 L 172 170.5 L 27.5 171 L 27.5 170 Z " /></svg>