<svg width="256" height="256" version="1.1" xmlns="http://www.w3.org/2000/svg" desc="Created with imagetracer.js version 1.2.6" ><path fill="rgb(0,0,0)" stroke="rgb(0,0,0)" stroke-width="1" opacity="0" d="M 0 0 L 256 0 L 256 256 L 0 256 L 0 0 Z M 63 25 L 50 28 L 43 32 L 30 47 L 26 58 Q 28 63 25 65 Q 26 85 36 96 Q 44 105 60 108 L 214 108 L 216 107 L 221 100 L 219 93 L 213 85 L 210 75 L 210 60 L 211 55 L 221 35 L 219 30 L 214 25 L 63 25 Z M 32 130 L 30 131 L 25 139 L 26 145 L 33 155 L 36 166 Q 37 184 30 194 Q 31 196 28 195 L 25 202 L 26 208 L 33 213 L 132 213 L 138 211 L 142 204 L 141 199 L 134 193 L 51 193 L 54 185 L 54 176 L 55 175 L 54 159 L 51 149 L 170 149 L 174 147 L 177 141 L 175 134 L 171 130 L 32 130 Z M 192 152 L 189 153 L 184 159 L 184 182 L 162 182 L 157 184 L 155 188 Q 154 194 156 198 L 161 201 L 184 201 L 184 225 L 185 227 L 192 231 L 199 229 L 203 222 L 203 201 L 225 201 L 227 200 L 231 193 L 229 186 L 224 182 L 203 182 L 203 163 L 201 157 Q 199 152 192 152 Z " /><path fill="rgb(0,0,0)" stroke="rgb(0,0,0)" stroke-width="1" opacity="0" d="M 60.5 45 L 195 45.5 L 191 58.5 L 191 75.5 L 195 88.5 L 64.5 89 L 56.5 87 L 47 78.5 L 44 70.5 L 44 62.5 Q 46.4 52.9 53.5 48 L 60.5 45 Z " /><path fill="rgb(125,197,234)" stroke="rgb(125,197,234)" stroke-width="1" opacity="0.9568627450980393" d="M 62.5 25 L 213.5 25 L 219 29.5 L 221 34.5 L 211 54.5 L 210 59.5 L 210 74.5 L 213 84.5 L 219 92.5 L 221 99.5 L 215.5 107 L 213.5 108 L 59.5 108 Q 44.3 105.2 36 95.5 Q 25.5 85 25 64.5 Q 27.5 63 26 57.5 L 30 46.5 L 42.5 32 L 49.5 28 L 62.5 25 Z M 61 45 L 54 48 Q 46 53 44 63 L 44 71 L 47 79 L 57 87 L 65 89 L 195 89 L 191 76 L 191 59 L 195 46 L 61 45 Z " /><path fill="rgb(125,197,234)" stroke="rgb(125,197,234)" stroke-width="1" opacity="0.9568627450980393" d="M 31.5 130 L 170.5 130 L 175 133.5 L 177 140.5 L 173.5 147 L 169.5 149 L 51 149 L 54 158.5 L 55 174.5 L 54 175.5 L 54 184.5 L 51 192.5 L 133.5 193 L 141 198.5 L 142 203.5 L 137.5 211 L 131.5 213 L 32.5 213 L 26 207.5 L 25 201.5 L 28 195 Q 30.7 196.1 30 193.5 Q 37.4 183.9 36 165.5 L 33 154.5 L 26 144.5 L 25 138.5 L 29.5 131 L 31.5 130 Z " /><path fill="rgb(125,197,234)" stroke="rgb(125,197,234)" stroke-width="1" opacity="0.9568627450980393" d="M 191.5 152 Q 198.8 151.8 201 156.5 L 203 162.5 L 203 182 L 223.5 182 L 229 185.5 L 231 192.5 L 226.5 200 L 224.5 201 L 203 201 L 203 221.5 L 198.5 229 L 191.5 231 L 185 226.5 L 184 224.5 L 184 201 L 160.5 201 L 156 197.5 Q 153.7 194.3 155 187.5 L 157 184 L 161.5 182 L 184 182 L 184 158.5 L 188.5 153 L 191.5 152 Z " /></svg>