<svg width="256" height="256" version="1.1" xmlns="http://www.w3.org/2000/svg" desc="Created with imagetracer.js version 1.2.6" ><path fill="rgb(0,0,0)" stroke="rgb(0,0,0)" stroke-width="1" opacity="0" d="M 0 0 L 256 0 L 256 256 L 0 256 L 0 0 Z M 112 23 L 109 25 L 103 25 L 94 29 L 91 29 L 82 33 L 63 45 L 41 68 L 29 91 Q 30 95 27 96 L 27 100 L 25 103 L 25 109 L 23 112 L 23 145 Q 26 147 25 154 L 33 175 L 45 194 Q 57 209 75 219 L 91 227 L 100 229 L 103 231 L 109 231 L 112 233 L 145 233 Q 147 230 154 231 L 175 223 L 194 211 L 215 189 L 227 166 Q 226 161 229 161 L 229 157 L 231 154 L 231 148 L 233 145 L 233 112 Q 230 109 231 103 L 223 82 L 211 63 L 190 42 L 166 29 L 157 27 L 154 25 L 148 25 L 145 23 L 112 23 Z " /><path fill="rgb(0,0,0)" stroke="rgb(0,0,0)" stroke-width="1" opacity="0" d="M 112.5 41 L 143.5 41 L 163.5 47 Q 182.2 55.8 195 70.5 L 198 76 Q 200.7 74.9 200 77.5 L 206 86.5 L 213 103.5 Q 212.3 110.2 215 113.5 L 215 120.5 L 216 121.5 L 216 134.5 L 215 135.5 L 215 142.5 Q 212.3 145.8 213 152.5 L 209 160.5 L 209 163.5 L 200 180 Q 197.3 178.9 198 181.5 L 185.5 195 L 169.5 206 L 151.5 213 Q 145.8 212.3 143.5 215 L 112.5 215 L 86.5 206 Q 71.6 197.9 61 185.5 L 50 169.5 L 43 152.5 Q 43.7 145.8 41 142.5 L 41 113.5 Q 43.7 110.2 43 103.5 L 50 86.5 L 61 70.5 L 70.5 61 L 92.5 47 L 112.5 41 Z M 119 67 L 114 74 L 107 97 L 105 100 L 105 104 L 101 113 L 101 116 L 99 118 L 87 157 L 85 160 L 85 163 L 82 168 L 77 183 L 77 187 L 80 189 L 96 189 L 99 185 L 108 155 L 109 153 L 146 153 L 147 155 L 147 159 L 151 169 L 151 173 L 153 175 L 153 179 L 156 187 L 159 189 L 176 189 L 178 187 L 173 169 L 171 166 L 171 162 L 167 154 L 167 150 L 165 148 L 165 145 L 155 119 L 155 115 L 149 101 L 149 98 L 139 70 L 137 67 L 119 67 Z " /><path fill="rgb(0,0,0)" stroke="rgb(0,0,0)" stroke-width="1" opacity="0" d="M 127.5 93 L 140 135 L 115.5 135 L 115 131.5 L 117 128.5 L 119 118.5 L 121 115.5 L 127.5 93 Z " /><path fill="rgb(147,124,235)" stroke="rgb(147,124,235)" stroke-width="1" opacity="0.40784313725490196" d="M 111.5 23 L 145 23.5 L 111.5 24 L 111.5 23 Z " /><path fill="rgb(147,124,235)" stroke="rgb(147,124,235)" stroke-width="1" opacity="0.40784313725490196" d="M 102.5 25 L 108 25.5 L 102.5 26 L 102.5 25 Z " /><path fill="rgb(147,124,235)" stroke="rgb(147,124,235)" stroke-width="1" opacity="0.40784313725490196" d="M 148.5 25 L 154 25.5 L 148.5 26 L 148.5 25 Z " /><path fill="rgb(147,124,235)" stroke="rgb(147,124,235)" stroke-width="1" opacity="0.40784313725490196" d="M 96.5 27 L 99 27.5 L 96.5 28 L 96.5 27 Z " /><path fill="rgb(147,124,235)" stroke="rgb(147,124,235)" stroke-width="1" opacity="0.40784313725490196" d="M 157.5 27 L 160 27.5 L 157.5 28 L 157.5 27 Z " /><path fill="rgb(147,124,235)" stroke="rgb(147,124,235)" stroke-width="1" opacity="0.40784313725490196" d="M 90.5 29 L 93 29.5 L 84.5 33 L 84.5 32 L 90.5 29 Z " /><path fill="rgb(147,124,235)" stroke="rgb(147,124,235)" stroke-width="1" opacity="0.40784313725490196" d="M 163.5 29 L 172 32.5 L 170.5 33 L 163.5 30 L 163.5 29 Z " /><path fill="rgb(147,124,235)" stroke="rgb(147,124,235)" stroke-width="1" opacity="0.40784313725490196" d="M 81.5 33 L 83 33.5 L 77.5 37 L 78.5 35 L 81.5 33 Z " /><path fill="rgb(147,124,235)" stroke="rgb(147,124,235)" stroke-width="1" opacity="0.40784313725490196" d="M 173.5 33 L 179 36.5 L 177.5 36 Q 172.8 35.2 173.5 33 Z " /><path fill="rgb(147,124,235)" stroke="rgb(147,124,235)" stroke-width="1" opacity="0.40784313725490196" d="M 74.5 37 L 76 37.5 L 70.5 41 L 71.5 39 L 74.5 37 Z " /><path fill="rgb(147,124,235)" stroke="rgb(147,124,235)" stroke-width="1" opacity="0.40784313725490196" d="M 180.5 37 L 186 40.5 L 184.5 40 Q 179.8 39.2 180.5 37 Z " /><path fill="rgb(147,124,235)" stroke="rgb(147,124,235)" stroke-width="1" opacity="0.40784313725490196" d="M 113.5 40 L 143 40.5 L 113.5 41 L 113.5 40 Z " /><path fill="rgb(147,124,235)" stroke="rgb(147,124,235)" stroke-width="1" opacity="0.40784313725490196" d="M 109.5 41 L 112 41.5 L 105.5 43 L 105.5 42 L 109.5 41 Z " /><path fill="rgb(147,124,235)" stroke="rgb(147,124,235)" stroke-width="1" opacity="0.40784313725490196" d="M 144.5 41 L 151 42.5 L 147.5 43 L 144.5 42 L 144.5 41 Z " /><path fill="rgb(147,124,235)" stroke="rgb(147,124,235)" stroke-width="1" opacity="0.40784313725490196" d="M 66.5 42 L 64.5 45 L 66.5 42 Z " /><path fill="rgb(147,124,235)" stroke="rgb(147,124,235)" stroke-width="1" opacity="0.40784313725490196" d="M 189.5 42 L 191.5 45 L 189.5 42 Z " /><path fill="rgb(147,124,235)" stroke="rgb(147,124,235)" stroke-width="1" opacity="0.40784313725490196" d="M 98.5 44 L 102 44.5 L 97.5 46 L 98.5 44 Z " /><path fill="rgb(147,124,235)" stroke="rgb(147,124,235)" stroke-width="1" opacity="0.40784313725490196" d="M 154.5 44 Q 158.3 43.3 159 45.5 L 157.5 45 Q 153.5 45.8 154.5 44 Z " /><path fill="rgb(147,124,235)" stroke="rgb(147,124,235)" stroke-width="1" opacity="0.40784313725490196" d="M 62.5 45 L 45.5 63 L 62.5 45 Z " /><path fill="rgb(147,124,235)" stroke="rgb(147,124,235)" stroke-width="1" opacity="0.40784313725490196" d="M 193.5 45 L 210.5 63 L 193.5 45 Z " /><path fill="rgb(147,124,235)" stroke="rgb(147,124,235)" stroke-width="1" opacity="0.40784313725490196" d="M 93.5 46 L 96 46.5 L 93.5 47 L 93.5 46 Z " /><path fill="rgb(147,124,235)" stroke="rgb(147,124,235)" stroke-width="1" opacity="0.40784313725490196" d="M 160.5 46 L 163 46.5 L 160.5 47 L 160.5 46 Z " /><path fill="rgb(147,124,235)" stroke="rgb(147,124,235)" stroke-width="1" opacity="0.40784313725490196" d="M 91.5 47 L 90.5 49 L 82.5 53 L 83.5 51 L 91.5 47 Z " /><path fill="rgb(147,124,235)" stroke="rgb(147,124,235)" stroke-width="1" opacity="0.40784313725490196" d="M 164.5 47 L 174 52.5 L 172.5 52 L 165.5 49 L 164.5 47 Z " /><path fill="rgb(147,124,235)" stroke="rgb(147,124,235)" stroke-width="1" opacity="0.40784313725490196" d="M 80.5 53 L 79.5 55 L 80.5 53 Z " /><path fill="rgb(147,124,235)" stroke="rgb(147,124,235)" stroke-width="1" opacity="0.40784313725490196" d="M 175.5 53 L 176.5 55 L 175.5 53 Z " /><path fill="rgb(147,124,235)" stroke="rgb(147,124,235)" stroke-width="1" opacity="0.40784313725490196" d="M 77.5 55 L 74.5 59 Q 65.7 62.7 61 70.5 L 58.5 74 L 60 71.5 L 70.5 60 L 77.5 55 Z " /><path fill="rgb(147,124,235)" stroke="rgb(147,124,235)" stroke-width="1" opacity="0.40784313725490196" d="M 178.5 55 L 196 70.5 L 198 73.5 L 195 71.5 L 185.5 61 Q 180 59.2 178.5 55 Z " /><path fill="rgb(147,124,235)" stroke="rgb(147,124,235)" stroke-width="1" opacity="0.40784313725490196" d="M 44.5 64 L 42 67.5 L 41.5 69 L 41 67.5 L 44.5 64 Z " /><path fill="rgb(147,124,235)" stroke="rgb(147,124,235)" stroke-width="1" opacity="0.40784313725490196" d="M 211.5 64 L 215 68.5 L 214 68.5 L 211.5 64 Z " /><path fill="rgb(147,124,235)" stroke="rgb(147,124,235)" stroke-width="1" opacity="0.40784313725490196" d="M 118.5 67 L 136.5 67 L 139 69.5 L 138.5 71 L 136.5 68 L 118.5 68 L 116.5 70 L 118.5 67 Z " /><path fill="rgb(147,124,235)" stroke="rgb(147,124,235)" stroke-width="1" opacity="0.40784313725490196" d="M 40.5 70 L 40 71.5 L 38.5 74 L 39 72.5 L 40.5 70 Z " /><path fill="rgb(147,124,235)" stroke="rgb(147,124,235)" stroke-width="1" opacity="0.40784313725490196" d="M 215.5 70 L 218 73.5 L 216 72.5 L 215.5 70 Z " /><path fill="rgb(147,124,235)" stroke="rgb(147,124,235)" stroke-width="1" opacity="0.40784313725490196" d="M 115.5 71 L 116 72.5 L 114.5 75 L 114 73.5 L 115.5 71 Z " /><path fill="rgb(147,124,235)" stroke="rgb(147,124,235)" stroke-width="1" opacity="0.40784313725490196" d="M 139.5 72 L 142 78.5 L 141 78.5 L 139.5 72 Z " /><path fill="rgb(147,124,235)" stroke="rgb(147,124,235)" stroke-width="1" opacity="0.40784313725490196" d="M 57.5 75 L 55.5 78 L 57.5 75 Z " /><path fill="rgb(147,124,235)" stroke="rgb(147,124,235)" stroke-width="1" opacity="0.40784313725490196" d="M 113.5 76 L 114 78.5 L 110.5 87 L 110 85.5 L 113.5 76 Z " /><path fill="rgb(147,124,235)" stroke="rgb(147,124,235)" stroke-width="1" opacity="0.40784313725490196" d="M 36.5 77 L 36 78.5 L 32.5 85 L 32 83.5 L 36.5 77 Z " /><path fill="rgb(147,124,235)" stroke="rgb(147,124,235)" stroke-width="1" opacity="0.40784313725490196" d="M 219.5 77 L 224 84.5 L 223 84.5 L 219.5 77 Z " /><path fill="rgb(147,124,235)" stroke="rgb(147,124,235)" stroke-width="1" opacity="0.40784313725490196" d="M 54.5 79 L 53.5 81 L 54.5 79 Z " /><path fill="rgb(147,124,235)" stroke="rgb(147,124,235)" stroke-width="1" opacity="0.40784313725490196" d="M 201.5 79 L 202.5 81 L 201.5 79 Z " /><path fill="rgb(147,124,235)" stroke="rgb(147,124,235)" stroke-width="1" opacity="0.40784313725490196" d="M 142.5 80 L 144 84.5 L 143 84.5 L 142.5 80 Z " /><path fill="rgb(147,124,235)" stroke="rgb(147,124,235)" stroke-width="1" opacity="0.40784313725490196" d="M 52.5 82 L 53 83.5 L 47.5 92 L 48 90.5 Q 48.7 84.7 52.5 82 Z " /><path fill="rgb(147,124,235)" stroke="rgb(147,124,235)" stroke-width="1" opacity="0.40784313725490196" d="M 203.5 82 L 209 91.5 L 207 90.5 Q 206.7 85.4 203 83.5 L 203.5 82 Z " /><path fill="rgb(147,124,235)" stroke="rgb(147,124,235)" stroke-width="1" opacity="0.40784313725490196" d="M 144.5 86 L 147 93.5 L 146 93.5 L 144.5 86 Z " /><path fill="rgb(147,124,235)" stroke="rgb(147,124,235)" stroke-width="1" opacity="0.40784313725490196" d="M 224.5 86 L 226 88.5 L 224 87.5 L 224.5 86 Z " /><path fill="rgb(147,124,235)" stroke="rgb(147,124,235)" stroke-width="1" opacity="0.40784313725490196" d="M 109.5 88 L 110 90.5 L 108.5 93 L 108 91.5 L 109.5 88 Z " /><path fill="rgb(147,124,235)" stroke="rgb(147,124,235)" stroke-width="1" opacity="0.40784313725490196" d="M 29.5 90 L 30 92.5 L 29 92.5 L 29.5 90 Z " /><path fill="rgb(147,124,235)" stroke="rgb(147,124,235)" stroke-width="1" opacity="0.40784313725490196" d="M 226.5 90 L 227 92.5 L 226 92.5 L 226.5 90 Z " /><path fill="rgb(147,124,235)" stroke="rgb(147,124,235)" stroke-width="1" opacity="0.40784313725490196" d="M 126 91 Q 128.7 89.9 128 92.5 L 126.5 95 L 126 91 Z " /><path fill="rgb(147,124,235)" stroke="rgb(147,124,235)" stroke-width="1" opacity="0.40784313725490196" d="M 209.5 93 L 210 95.5 L 209 95.5 L 209.5 93 Z " /><path fill="rgb(147,124,235)" stroke="rgb(147,124,235)" stroke-width="1" opacity="0.40784313725490196" d="M 28.5 94 L 28 95.5 L 27.5 99 L 27 95.5 L 28.5 94 Z " /><path fill="rgb(147,124,235)" stroke="rgb(147,124,235)" stroke-width="1" opacity="0.40784313725490196" d="M 128.5 94 L 130 99.5 L 129 99.5 L 128.5 94 Z " /><path fill="rgb(147,124,235)" stroke="rgb(147,124,235)" stroke-width="1" opacity="0.40784313725490196" d="M 227.5 94 Q 229.8 94.8 229 98.5 L 228 98.5 L 227.5 94 Z " /><path fill="rgb(147,124,235)" stroke="rgb(147,124,235)" stroke-width="1" opacity="0.40784313725490196" d="M 147.5 95 L 149 99.5 L 148 99.5 L 147.5 95 Z " /><path fill="rgb(147,124,235)" stroke="rgb(147,124,235)" stroke-width="1" opacity="0.40784313725490196" d="M 45.5 96 L 45 97.5 L 44.5 101 L 44 97.5 L 45.5 96 Z " /><path fill="rgb(147,124,235)" stroke="rgb(147,124,235)" stroke-width="1" opacity="0.40784313725490196" d="M 125.5 96 L 126 97.5 L 122.5 110 L 122 105.5 L 125.5 96 Z " /><path fill="rgb(147,124,235)" stroke="rgb(147,124,235)" stroke-width="1" opacity="0.40784313725490196" d="M 106.5 97 L 107 98.5 L 105.5 103 L 105 99.5 L 106.5 97 Z " /><path fill="rgb(147,124,235)" stroke="rgb(147,124,235)" stroke-width="1" opacity="0.40784313725490196" d="M 210.5 97 L 212 100.5 L 211 100.5 L 210.5 97 Z " /><path fill="rgb(147,124,235)" stroke="rgb(147,124,235)" stroke-width="1" opacity="0.40784313725490196" d="M 130.5 101 L 133 108.5 L 132 108.5 L 130.5 101 Z " /><path fill="rgb(147,124,235)" stroke="rgb(147,124,235)" stroke-width="1" opacity="0.40784313725490196" d="M 25.5 102 L 26 108.5 L 24 109.5 L 25.5 102 Z " /><path fill="rgb(147,124,235)" stroke="rgb(147,124,235)" stroke-width="1" opacity="0.40784313725490196" d="M 230.5 102 L 232 109.5 L 230 108.5 L 230.5 102 Z " /><path fill="rgb(147,124,235)" stroke="rgb(147,124,235)" stroke-width="1" opacity="0.40784313725490196" d="M 42.5 104 L 43 108.5 L 42 108.5 L 42.5 104 Z " /><path fill="rgb(147,124,235)" stroke="rgb(147,124,235)" stroke-width="1" opacity="0.40784313725490196" d="M 213.5 104 L 214 108.5 L 213 108.5 L 213.5 104 Z " /><path fill="rgb(147,124,235)" stroke="rgb(147,124,235)" stroke-width="1" opacity="0.40784313725490196" d="M 103.5 106 L 104 108.5 L 103 108.5 L 103.5 106 Z " /><path fill="rgb(147,124,235)" stroke="rgb(147,124,235)" stroke-width="1" opacity="0.40784313725490196" d="M 152.5 109 L 154 112.5 L 152 111.5 L 152.5 109 Z " /><path fill="rgb(147,124,235)" stroke="rgb(147,124,235)" stroke-width="1" opacity="0.40784313725490196" d="M 41.5 110 L 42 112.5 L 41 112.5 L 41.5 110 Z " /><path fill="rgb(147,124,235)" stroke="rgb(147,124,235)" stroke-width="1" opacity="0.40784313725490196" d="M 133.5 110 L 134 113.5 L 133 113.5 L 133.5 110 Z " /><path fill="rgb(147,124,235)" stroke="rgb(147,124,235)" stroke-width="1" opacity="0.40784313725490196" d="M 214.5 110 L 215 112.5 L 214 112.5 L 214.5 110 Z " /><path fill="rgb(147,124,235)" stroke="rgb(147,124,235)" stroke-width="1" opacity="0.40784313725490196" d="M 23.5 111 L 24 144.5 L 23 144.5 L 23.5 111 Z " /><path fill="rgb(147,124,235)" stroke="rgb(147,124,235)" stroke-width="1" opacity="0.40784313725490196" d="M 232.5 111 L 233 144.5 L 232 144.5 L 232.5 111 Z " /><path fill="rgb(147,124,235)" stroke="rgb(147,124,235)" stroke-width="1" opacity="0.40784313725490196" d="M 101.5 112 L 102 114.5 L 101 114.5 L 101.5 112 Z " /><path fill="rgb(147,124,235)" stroke="rgb(147,124,235)" stroke-width="1" opacity="0.40784313725490196" d="M 120.5 113 L 121 115.5 L 120 115.5 L 120.5 113 Z " /><path fill="rgb(147,124,235)" stroke="rgb(147,124,235)" stroke-width="1" opacity="0.40784313725490196" d="M 40.5 114 L 41 141.5 L 40 141.5 L 40.5 114 Z " /><path fill="rgb(147,124,235)" stroke="rgb(147,124,235)" stroke-width="1" opacity="0.40784313725490196" d="M 154.5 114 L 155 117.5 L 154 117.5 L 154.5 114 Z " /><path fill="rgb(147,124,235)" stroke="rgb(147,124,235)" stroke-width="1" opacity="0.40784313725490196" d="M 215.5 114 L 217 121.5 L 217 134.5 L 215.5 142 L 215 135.5 L 216 134.5 L 216 121.5 Q 213.2 119.7 215.5 114 Z " /><path fill="rgb(147,124,235)" stroke="rgb(147,124,235)" stroke-width="1" opacity="0.40784313725490196" d="M 100.5 116 L 100 117.5 L 99.5 120 L 99 117.5 L 100.5 116 Z " /><path fill="rgb(147,124,235)" stroke="rgb(147,124,235)" stroke-width="1" opacity="0.40784313725490196" d="M 135.5 118 L 137 122.5 L 136 122.5 L 135.5 118 Z " /><path fill="rgb(147,124,235)" stroke="rgb(147,124,235)" stroke-width="1" opacity="0.40784313725490196" d="M 118.5 119 L 119 121.5 L 115.5 131 L 115 129.5 L 118.5 119 Z " /><path fill="rgb(147,124,235)" stroke="rgb(147,124,235)" stroke-width="1" opacity="0.40784313725490196" d="M 155.5 119 L 161 134.5 L 160 134.5 L 155.5 119 Z " /><path fill="rgb(147,124,235)" stroke="rgb(147,124,235)" stroke-width="1" opacity="0.40784313725490196" d="M 98.5 121 L 99 122.5 L 97.5 126 L 97 123.5 L 98.5 121 Z " /><path fill="rgb(147,124,235)" stroke="rgb(147,124,235)" stroke-width="1" opacity="0.40784313725490196" d="M 137.5 124 L 139 129.5 L 138 129.5 L 137.5 124 Z " /><path fill="rgb(147,124,235)" stroke="rgb(147,124,235)" stroke-width="1" opacity="0.40784313725490196" d="M 96.5 127 L 97 128.5 L 93.5 137 L 93 135.5 L 96.5 127 Z " /><path fill="rgb(147,124,235)" stroke="rgb(147,124,235)" stroke-width="1" opacity="0.40784313725490196" d="M 114.5 132 L 115 135 L 139.5 135 L 140.5 134 L 141 136 L 113 135.5 L 114.5 132 Z " /><path fill="rgb(147,124,235)" stroke="rgb(147,124,235)" stroke-width="1" opacity="0.40784313725490196" d="M 163.5 142 L 165 146.5 L 164 146.5 L 163.5 142 Z " /><path fill="rgb(147,124,235)" stroke="rgb(147,124,235)" stroke-width="1" opacity="0.40784313725490196" d="M 41.5 143 L 42 145.5 L 41 145.5 L 41.5 143 Z " /><path fill="rgb(147,124,235)" stroke="rgb(147,124,235)" stroke-width="1" opacity="0.40784313725490196" d="M 214.5 143 L 215 145.5 L 214 145.5 L 214.5 143 Z " /><path fill="rgb(147,124,235)" stroke="rgb(147,124,235)" stroke-width="1" opacity="0.40784313725490196" d="M 24.5 146 Q 27.5 147.5 26 153.5 L 25 153.5 Q 25.5 147.5 24.5 146 Z " /><path fill="rgb(147,124,235)" stroke="rgb(147,124,235)" stroke-width="1" opacity="0.40784313725490196" d="M 231.5 146 L 231 147.5 L 230.5 154 L 230 147.5 L 231.5 146 Z " /><path fill="rgb(147,124,235)" stroke="rgb(147,124,235)" stroke-width="1" opacity="0.40784313725490196" d="M 42.5 147 L 43 151.5 L 42 151.5 L 42.5 147 Z " /><path fill="rgb(147,124,235)" stroke="rgb(147,124,235)" stroke-width="1" opacity="0.40784313725490196" d="M 89.5 147 L 90 150.5 L 88 151.5 L 89.5 147 Z " /><path fill="rgb(147,124,235)" stroke="rgb(147,124,235)" stroke-width="1" opacity="0.40784313725490196" d="M 213.5 147 L 214 151.5 L 213 151.5 L 213.5 147 Z " /><path fill="rgb(147,124,235)" stroke="rgb(147,124,235)" stroke-width="1" opacity="0.40784313725490196" d="M 165.5 148 Q 167.8 148.8 167 152.5 L 166 152.5 L 165.5 148 Z " /><path fill="rgb(147,124,235)" stroke="rgb(147,124,235)" stroke-width="1" opacity="0.40784313725490196" d="M 108.5 152 L 145.5 152 L 147 153.5 L 145.5 153 L 108.5 153 L 108.5 152 Z " /><path fill="rgb(147,124,235)" stroke="rgb(147,124,235)" stroke-width="1" opacity="0.40784313725490196" d="M 87.5 153 L 88 155.5 L 87 155.5 L 87.5 153 Z " /><path fill="rgb(147,124,235)" stroke="rgb(147,124,235)" stroke-width="1" opacity="0.40784313725490196" d="M 44.5 155 L 46 158.5 L 44 157.5 L 44.5 155 Z " /><path fill="rgb(147,124,235)" stroke="rgb(147,124,235)" stroke-width="1" opacity="0.40784313725490196" d="M 147.5 155 L 148 158.5 L 147 158.5 L 147.5 155 Z " /><path fill="rgb(147,124,235)" stroke="rgb(147,124,235)" stroke-width="1" opacity="0.40784313725490196" d="M 211.5 155 L 212 157.5 L 210 158.5 L 211.5 155 Z " /><path fill="rgb(147,124,235)" stroke="rgb(147,124,235)" stroke-width="1" opacity="0.40784313725490196" d="M 106.5 156 L 107 159.5 L 106 159.5 L 106.5 156 Z " /><path fill="rgb(147,124,235)" stroke="rgb(147,124,235)" stroke-width="1" opacity="0.40784313725490196" d="M 168.5 156 L 170 159.5 L 168 158.5 L 168.5 156 Z " /><path fill="rgb(147,124,235)" stroke="rgb(147,124,235)" stroke-width="1" opacity="0.40784313725490196" d="M 27.5 157 L 29 161.5 L 27 160.5 L 27.5 157 Z " /><path fill="rgb(147,124,235)" stroke="rgb(147,124,235)" stroke-width="1" opacity="0.40784313725490196" d="M 228.5 157 L 229 160.5 L 227 161.5 L 228.5 157 Z " /><path fill="rgb(147,124,235)" stroke="rgb(147,124,235)" stroke-width="1" opacity="0.40784313725490196" d="M 85.5 159 L 86 161.5 L 85 161.5 L 85.5 159 Z " /><path fill="rgb(147,124,235)" stroke="rgb(147,124,235)" stroke-width="1" opacity="0.40784313725490196" d="M 46.5 160 L 47 162.5 L 46 162.5 L 46.5 160 Z " /><path fill="rgb(147,124,235)" stroke="rgb(147,124,235)" stroke-width="1" opacity="0.40784313725490196" d="M 148.5 160 Q 150.8 160.8 150 164.5 L 149 164.5 L 148.5 160 Z " /><path fill="rgb(147,124,235)" stroke="rgb(147,124,235)" stroke-width="1" opacity="0.40784313725490196" d="M 209.5 160 L 210 162.5 L 209 162.5 L 209.5 160 Z " /><path fill="rgb(147,124,235)" stroke="rgb(147,124,235)" stroke-width="1" opacity="0.40784313725490196" d="M 170.5 161 L 171 164.5 L 170 164.5 L 170.5 161 Z " /><path fill="rgb(147,124,235)" stroke="rgb(147,124,235)" stroke-width="1" opacity="0.40784313725490196" d="M 29.5 163 L 30 165.5 L 29 165.5 L 29.5 163 Z " /><path fill="rgb(147,124,235)" stroke="rgb(147,124,235)" stroke-width="1" opacity="0.40784313725490196" d="M 226.5 163 L 227 165.5 L 226 165.5 L 226.5 163 Z " /><path fill="rgb(147,124,235)" stroke="rgb(147,124,235)" stroke-width="1" opacity="0.40784313725490196" d="M 47.5 164 L 52 171.5 L 49 169.5 L 47.5 164 Z " /><path fill="rgb(147,124,235)" stroke="rgb(147,124,235)" stroke-width="1" opacity="0.40784313725490196" d="M 104.5 164 L 105 166.5 L 103.5 169 L 103 167.5 L 104.5 164 Z " /><path fill="rgb(147,124,235)" stroke="rgb(147,124,235)" stroke-width="1" opacity="0.40784313725490196" d="M 208.5 164 L 208 165.5 Q 207.3 171.3 203.5 174 L 203 172.5 L 208.5 164 Z " /><path fill="rgb(147,124,235)" stroke="rgb(147,124,235)" stroke-width="1" opacity="0.40784313725490196" d="M 83.5 165 L 84 166.5 L 78.5 181 L 78 179.5 L 83.5 165 Z " /><path fill="rgb(147,124,235)" stroke="rgb(147,124,235)" stroke-width="1" opacity="0.40784313725490196" d="M 171.5 166 L 174 172.5 L 173 172.5 L 171.5 166 Z " /><path fill="rgb(147,124,235)" stroke="rgb(147,124,235)" stroke-width="1" opacity="0.40784313725490196" d="M 30.5 167 L 37 178.5 L 35 177.5 L 30.5 167 Z " /><path fill="rgb(147,124,235)" stroke="rgb(147,124,235)" stroke-width="1" opacity="0.40784313725490196" d="M 225.5 167 L 225 168.5 L 223.5 172 L 223 170.5 L 225.5 167 Z " /><path fill="rgb(147,124,235)" stroke="rgb(147,124,235)" stroke-width="1" opacity="0.40784313725490196" d="M 151.5 169 L 153 173.5 L 151 172.5 L 151.5 169 Z " /><path fill="rgb(147,124,235)" stroke="rgb(147,124,235)" stroke-width="1" opacity="0.40784313725490196" d="M 102.5 170 L 103 172.5 L 101.5 175 L 101 173.5 L 102.5 170 Z " /><path fill="rgb(147,124,235)" stroke="rgb(147,124,235)" stroke-width="1" opacity="0.40784313725490196" d="M 222.5 173 L 223 174.5 L 219.5 179 L 220 177.5 L 222.5 173 Z " /><path fill="rgb(147,124,235)" stroke="rgb(147,124,235)" stroke-width="1" opacity="0.40784313725490196" d="M 174.5 174 L 176 178.5 L 175 178.5 L 174.5 174 Z " /><path fill="rgb(147,124,235)" stroke="rgb(147,124,235)" stroke-width="1" opacity="0.40784313725490196" d="M 53.5 175 L 54.5 177 L 53.5 175 Z " /><path fill="rgb(147,124,235)" stroke="rgb(147,124,235)" stroke-width="1" opacity="0.40784313725490196" d="M 153.5 175 L 156 183.5 L 155 183.5 L 153 178.5 L 153.5 175 Z " /><path fill="rgb(147,124,235)" stroke="rgb(147,124,235)" stroke-width="1" opacity="0.40784313725490196" d="M 202.5 175 L 201.5 177 L 202.5 175 Z " /><path fill="rgb(147,124,235)" stroke="rgb(147,124,235)" stroke-width="1" opacity="0.40784313725490196" d="M 55.5 178 L 57.5 181 L 55.5 178 Z " /><path fill="rgb(147,124,235)" stroke="rgb(147,124,235)" stroke-width="1" opacity="0.40784313725490196" d="M 99.5 179 L 100 180.5 L 98 186.5 L 95.5 189 L 79.5 189 L 77 186.5 L 77.5 182 Q 76.9 186.6 79.5 188 L 95.5 188 L 97 186.5 L 99.5 179 Z " /><path fill="rgb(147,124,235)" stroke="rgb(147,124,235)" stroke-width="1" opacity="0.40784313725490196" d="M 176.5 180 L 178 186.5 L 175.5 189 L 158.5 189 L 156 185.5 L 157 185.5 L 158.5 188 L 175.5 188 L 177 186.5 L 176.5 180 Z " /><path fill="rgb(147,124,235)" stroke="rgb(147,124,235)" stroke-width="1" opacity="0.40784313725490196" d="M 38.5 182 L 41 185.5 L 39 184.5 L 38.5 182 Z " /><path fill="rgb(147,124,235)" stroke="rgb(147,124,235)" stroke-width="1" opacity="0.40784313725490196" d="M 58.5 182 L 70.5 195 L 78 200.5 L 74.5 198 Q 65 194 60 185.5 L 58.5 182 Z " /><path fill="rgb(147,124,235)" stroke="rgb(147,124,235)" stroke-width="1" opacity="0.40784313725490196" d="M 197.5 182 L 196 184.5 L 185.5 196 L 178.5 201 L 181.5 197 Q 190.3 193.3 195 185.5 L 197.5 182 Z " /><path fill="rgb(147,124,235)" stroke="rgb(147,124,235)" stroke-width="1" opacity="0.40784313725490196" d="M 217.5 182 L 217 183.5 L 215.5 186 L 216 184.5 L 217.5 182 Z " /><path fill="rgb(147,124,235)" stroke="rgb(147,124,235)" stroke-width="1" opacity="0.40784313725490196" d="M 41.5 187 L 45 191.5 L 41 188.5 L 41.5 187 Z " /><path fill="rgb(147,124,235)" stroke="rgb(147,124,235)" stroke-width="1" opacity="0.40784313725490196" d="M 214.5 187 L 215 188.5 L 211 191.5 L 214.5 187 Z " /><path fill="rgb(147,124,235)" stroke="rgb(147,124,235)" stroke-width="1" opacity="0.40784313725490196" d="M 45.5 193 L 62.5 211 L 45.5 193 Z " /><path fill="rgb(147,124,235)" stroke="rgb(147,124,235)" stroke-width="1" opacity="0.40784313725490196" d="M 210.5 193 L 193.5 211 L 210.5 193 Z " /><path fill="rgb(147,124,235)" stroke="rgb(147,124,235)" stroke-width="1" opacity="0.40784313725490196" d="M 79.5 201 L 80.5 203 L 79.5 201 Z " /><path fill="rgb(147,124,235)" stroke="rgb(147,124,235)" stroke-width="1" opacity="0.40784313725490196" d="M 176.5 201 L 175.5 203 L 176.5 201 Z " /><path fill="rgb(147,124,235)" stroke="rgb(147,124,235)" stroke-width="1" opacity="0.40784313725490196" d="M 82.5 203 L 92 208.5 L 90.5 208 Q 83.4 206.9 82.5 203 Z " /><path fill="rgb(147,124,235)" stroke="rgb(147,124,235)" stroke-width="1" opacity="0.40784313725490196" d="M 173.5 203 L 172.5 205 L 164.5 209 L 165.5 207 L 173.5 203 Z " /><path fill="rgb(147,124,235)" stroke="rgb(147,124,235)" stroke-width="1" opacity="0.40784313725490196" d="M 93.5 209 L 96 209.5 L 93.5 210 L 93.5 209 Z " /><path fill="rgb(147,124,235)" stroke="rgb(147,124,235)" stroke-width="1" opacity="0.40784313725490196" d="M 160.5 209 L 163 209.5 L 160.5 210 L 160.5 209 Z " /><path fill="rgb(147,124,235)" stroke="rgb(147,124,235)" stroke-width="1" opacity="0.40784313725490196" d="M 97.5 210 L 102 211.5 L 98.5 212 L 97.5 210 Z " /><path fill="rgb(147,124,235)" stroke="rgb(147,124,235)" stroke-width="1" opacity="0.40784313725490196" d="M 158.5 210 L 157.5 212 L 154 211.5 L 158.5 210 Z " /><path fill="rgb(147,124,235)" stroke="rgb(147,124,235)" stroke-width="1" opacity="0.40784313725490196" d="M 64.5 211 L 66.5 214 L 64.5 211 Z " /><path fill="rgb(147,124,235)" stroke="rgb(147,124,235)" stroke-width="1" opacity="0.40784313725490196" d="M 191.5 211 L 189.5 214 L 191.5 211 Z " /><path fill="rgb(147,124,235)" stroke="rgb(147,124,235)" stroke-width="1" opacity="0.40784313725490196" d="M 105.5 213 L 109 213.5 L 105.5 214 L 105.5 213 Z " /><path fill="rgb(147,124,235)" stroke="rgb(147,124,235)" stroke-width="1" opacity="0.40784313725490196" d="M 147.5 213 L 151 213.5 L 147.5 214 L 147.5 213 Z " /><path fill="rgb(147,124,235)" stroke="rgb(147,124,235)" stroke-width="1" opacity="0.40784313725490196" d="M 70.5 215 L 76 218.5 L 74.5 219 L 70.5 215 Z " /><path fill="rgb(147,124,235)" stroke="rgb(147,124,235)" stroke-width="1" opacity="0.40784313725490196" d="M 113.5 215 L 143 215.5 L 113.5 216 L 113.5 215 Z " /><path fill="rgb(147,124,235)" stroke="rgb(147,124,235)" stroke-width="1" opacity="0.40784313725490196" d="M 185.5 215 L 184.5 217 L 180.5 219 L 180.5 218 L 185.5 215 Z " /><path fill="rgb(147,124,235)" stroke="rgb(147,124,235)" stroke-width="1" opacity="0.40784313725490196" d="M 77.5 219 L 83 222.5 L 81.5 223 L 77.5 219 Z " /><path fill="rgb(147,124,235)" stroke="rgb(147,124,235)" stroke-width="1" opacity="0.40784313725490196" d="M 178.5 219 L 177.5 221 L 173.5 223 L 173.5 222 L 178.5 219 Z " /><path fill="rgb(147,124,235)" stroke="rgb(147,124,235)" stroke-width="1" opacity="0.40784313725490196" d="M 84.5 223 L 93 226.5 L 90.5 227 L 84.5 224 L 84.5 223 Z " /><path fill="rgb(147,124,235)" stroke="rgb(147,124,235)" stroke-width="1" opacity="0.40784313725490196" d="M 170.5 223 L 172 223.5 L 166.5 226 L 166.5 225 L 170.5 223 Z " /><path fill="rgb(147,124,235)" stroke="rgb(147,124,235)" stroke-width="1" opacity="0.40784313725490196" d="M 96.5 228 L 99 228.5 L 96.5 229 L 96.5 228 Z " /><path fill="rgb(147,124,235)" stroke="rgb(147,124,235)" stroke-width="1" opacity="0.40784313725490196" d="M 157.5 228 L 160 228.5 L 157.5 229 L 157.5 228 Z " /><path fill="rgb(147,124,235)" stroke="rgb(147,124,235)" stroke-width="1" opacity="0.40784313725490196" d="M 102.5 230 L 108 230.5 L 102.5 231 L 102.5 230 Z " /><path fill="rgb(147,124,235)" stroke="rgb(147,124,235)" stroke-width="1" opacity="0.40784313725490196" d="M 148.5 230 L 154 230.5 L 148.5 231 L 148.5 230 Z " /><path fill="rgb(147,124,235)" stroke="rgb(147,124,235)" stroke-width="1" opacity="0.40784313725490196" d="M 111.5 232 L 145 232.5 L 111.5 233 L 111.5 232 Z " /><path fill="rgb(148,125,235)" stroke="rgb(148,125,235)" stroke-width="1" opacity="0.996078431372549" d="M 181.5 38 L 182.5 40 L 181.5 38 Z " /><path fill="rgb(148,125,235)" stroke="rgb(148,125,235)" stroke-width="1" opacity="0.996078431372549" d="M 67.5 42 L 65.5 45 L 67.5 42 Z " /><path fill="rgb(148,125,235)" stroke="rgb(148,125,235)" stroke-width="1" opacity="0.996078431372549" d="M 188.5 42 L 190.5 45 L 188.5 42 Z " /><path fill="rgb(148,125,235)" stroke="rgb(148,125,235)" stroke-width="1" opacity="0.996078431372549" d="M 97.5 44 L 96.5 46 L 97.5 44 Z " /><path fill="rgb(148,125,235)" stroke="rgb(148,125,235)" stroke-width="1" opacity="0.996078431372549" d="M 158.5 44 L 159.5 46 L 158.5 44 Z " /><path fill="rgb(148,125,235)" stroke="rgb(148,125,235)" stroke-width="1" opacity="0.996078431372549" d="M 63.5 45 L 45.5 64 L 63.5 45 Z " /><path fill="rgb(148,125,235)" stroke="rgb(148,125,235)" stroke-width="1" opacity="0.996078431372549" d="M 192.5 45 L 210.5 64 L 192.5 45 Z " /><path fill="rgb(148,125,235)" stroke="rgb(148,125,235)" stroke-width="1" opacity="0.996078431372549" d="M 85.5 49 L 84.5 51 L 85.5 49 Z " /><path fill="rgb(148,125,235)" stroke="rgb(148,125,235)" stroke-width="1" opacity="0.996078431372549" d="M 82.5 51 L 81.5 53 L 82.5 51 Z " /><path fill="rgb(148,125,235)" stroke="rgb(148,125,235)" stroke-width="1" opacity="0.996078431372549" d="M 79.5 53 L 78.5 55 L 79.5 53 Z " /><path fill="rgb(148,125,235)" stroke="rgb(148,125,235)" stroke-width="1" opacity="0.996078431372549" d="M 76.5 55 L 74.5 58 L 76.5 55 Z " /><path fill="rgb(148,125,235)" stroke="rgb(148,125,235)" stroke-width="1" opacity="0.996078431372549" d="M 180.5 56 L 181.5 58 L 180.5 56 Z " /><path fill="rgb(148,125,235)" stroke="rgb(148,125,235)" stroke-width="1" opacity="0.996078431372549" d="M 44.5 65 L 42.5 68 L 44.5 65 Z " /><path fill="rgb(148,125,235)" stroke="rgb(148,125,235)" stroke-width="1" opacity="0.996078431372549" d="M 212.5 66 L 213.5 68 L 212.5 66 Z " /><path fill="rgb(148,125,235)" stroke="rgb(148,125,235)" stroke-width="1" opacity="0.996078431372549" d="M 117.5 69 L 116.5 71 L 117.5 69 Z " /><path fill="rgb(148,125,235)" stroke="rgb(148,125,235)" stroke-width="1" opacity="0.996078431372549" d="M 39.5 73 L 38.5 75 L 39.5 73 Z " /><path fill="rgb(148,125,235)" stroke="rgb(148,125,235)" stroke-width="1" opacity="0.996078431372549" d="M 57.5 74 L 56.5 76 L 57.5 74 Z " /><path fill="rgb(148,125,235)" stroke="rgb(148,125,235)" stroke-width="1" opacity="0.996078431372549" d="M 198.5 74 L 199.5 76 L 198.5 74 Z " /><path fill="rgb(148,125,235)" stroke="rgb(148,125,235)" stroke-width="1" opacity="0.996078431372549" d="M 201.5 78 L 202.5 80 L 201.5 78 Z " /><path fill="rgb(148,125,235)" stroke="rgb(148,125,235)" stroke-width="1" opacity="0.996078431372549" d="M 204.5 83 L 205.5 85 L 204.5 83 Z " /><path fill="rgb(148,125,235)" stroke="rgb(148,125,235)" stroke-width="1" opacity="0.996078431372549" d="M 224.5 88 L 225.5 90 L 224.5 88 Z " /><path fill="rgb(148,125,235)" stroke="rgb(148,125,235)" stroke-width="1" opacity="0.996078431372549" d="M 45.5 95 L 44.5 97 L 45.5 95 Z " /><path fill="rgb(148,125,235)" stroke="rgb(148,125,235)" stroke-width="1" opacity="0.996078431372549" d="M 210.5 96 L 211.5 98 L 210.5 96 Z " /><path fill="rgb(148,125,235)" stroke="rgb(148,125,235)" stroke-width="1" opacity="0.996078431372549" d="M 25.5 109 L 24.5 111 L 25.5 109 Z " /><path fill="rgb(148,125,235)" stroke="rgb(148,125,235)" stroke-width="1" opacity="0.996078431372549" d="M 152.5 112 L 153.5 114 L 152.5 112 Z " /><path fill="rgb(148,125,235)" stroke="rgb(148,125,235)" stroke-width="1" opacity="0.996078431372549" d="M 24.5 145 L 25.5 147 L 24.5 145 Z " /><path fill="rgb(148,125,235)" stroke="rgb(148,125,235)" stroke-width="1" opacity="0.996078431372549" d="M 89.5 151 L 88.5 153 L 89.5 151 Z " /><path fill="rgb(148,125,235)" stroke="rgb(148,125,235)" stroke-width="1" opacity="0.996078431372549" d="M 44.5 158 L 45.5 160 L 44.5 158 Z " /><path fill="rgb(148,125,235)" stroke="rgb(148,125,235)" stroke-width="1" opacity="0.996078431372549" d="M 211.5 158 L 210.5 160 L 211.5 158 Z " /><path fill="rgb(148,125,235)" stroke="rgb(148,125,235)" stroke-width="1" opacity="0.996078431372549" d="M 148.5 159 L 149.5 161 L 148.5 159 Z " /><path fill="rgb(148,125,235)" stroke="rgb(148,125,235)" stroke-width="1" opacity="0.996078431372549" d="M 168.5 159 L 169.5 161 L 168.5 159 Z " /><path fill="rgb(148,125,235)" stroke="rgb(148,125,235)" stroke-width="1" opacity="0.996078431372549" d="M 30.5 166 L 31.5 168 L 30.5 166 Z " /><path fill="rgb(148,125,235)" stroke="rgb(148,125,235)" stroke-width="1" opacity="0.996078431372549" d="M 225.5 166 L 224.5 168 L 225.5 166 Z " /><path fill="rgb(148,125,235)" stroke="rgb(148,125,235)" stroke-width="1" opacity="0.996078431372549" d="M 50.5 171 L 51.5 173 L 50.5 171 Z " /><path fill="rgb(148,125,235)" stroke="rgb(148,125,235)" stroke-width="1" opacity="0.996078431372549" d="M 205.5 171 L 204.5 173 L 205.5 171 Z " /><path fill="rgb(148,125,235)" stroke="rgb(148,125,235)" stroke-width="1" opacity="0.996078431372549" d="M 202.5 176 L 201.5 178 L 202.5 176 Z " /><path fill="rgb(148,125,235)" stroke="rgb(148,125,235)" stroke-width="1" opacity="0.996078431372549" d="M 56.5 180 L 57.5 182 L 56.5 180 Z " /><path fill="rgb(148,125,235)" stroke="rgb(148,125,235)" stroke-width="1" opacity="0.996078431372549" d="M 199.5 180 L 198.5 182 L 199.5 180 Z " /><path fill="rgb(148,125,235)" stroke="rgb(148,125,235)" stroke-width="1" opacity="0.996078431372549" d="M 38.5 181 L 39.5 183 L 38.5 181 Z " /><path fill="rgb(148,125,235)" stroke="rgb(148,125,235)" stroke-width="1" opacity="0.996078431372549" d="M 157.5 186 L 158.5 188 L 157.5 186 Z " /><path fill="rgb(148,125,235)" stroke="rgb(148,125,235)" stroke-width="1" opacity="0.996078431372549" d="M 176.5 186 L 175.5 188 L 176.5 186 Z " /><path fill="rgb(148,125,235)" stroke="rgb(148,125,235)" stroke-width="1" opacity="0.996078431372549" d="M 42.5 188 L 44.5 191 L 42.5 188 Z " /><path fill="rgb(148,125,235)" stroke="rgb(148,125,235)" stroke-width="1" opacity="0.996078431372549" d="M 213.5 188 L 212.5 190 L 213.5 188 Z " /><path fill="rgb(148,125,235)" stroke="rgb(148,125,235)" stroke-width="1" opacity="0.996078431372549" d="M 45.5 192 L 63.5 211 L 45.5 192 Z " /><path fill="rgb(148,125,235)" stroke="rgb(148,125,235)" stroke-width="1" opacity="0.996078431372549" d="M 210.5 192 L 192.5 211 L 210.5 192 Z " /><path fill="rgb(148,125,235)" stroke="rgb(148,125,235)" stroke-width="1" opacity="0.996078431372549" d="M 74.5 198 L 76.5 201 L 74.5 198 Z " /><path fill="rgb(148,125,235)" stroke="rgb(148,125,235)" stroke-width="1" opacity="0.996078431372549" d="M 181.5 198 L 180.5 200 L 181.5 198 Z " /><path fill="rgb(148,125,235)" stroke="rgb(148,125,235)" stroke-width="1" opacity="0.996078431372549" d="M 78.5 201 L 79.5 203 L 78.5 201 Z " /><path fill="rgb(148,125,235)" stroke="rgb(148,125,235)" stroke-width="1" opacity="0.996078431372549" d="M 81.5 203 L 82.5 205 L 81.5 203 Z " /><path fill="rgb(148,125,235)" stroke="rgb(148,125,235)" stroke-width="1" opacity="0.996078431372549" d="M 84.5 205 L 85.5 207 L 84.5 205 Z " /><path fill="rgb(148,125,235)" stroke="rgb(148,125,235)" stroke-width="1" opacity="0.996078431372549" d="M 96.5 210 L 97.5 212 L 96.5 210 Z " /><path fill="rgb(148,125,235)" stroke="rgb(148,125,235)" stroke-width="1" opacity="0.996078431372549" d="M 159.5 210 L 158.5 212 L 159.5 210 Z " /><path fill="rgb(148,125,235)" stroke="rgb(148,125,235)" stroke-width="1" opacity="0.996078431372549" d="M 65.5 211 L 67.5 214 L 65.5 211 Z " /><path fill="rgb(148,125,235)" stroke="rgb(148,125,235)" stroke-width="1" opacity="0.996078431372549" d="M 190.5 211 L 188.5 214 L 190.5 211 Z " /><path fill="rgb(148,125,235)" stroke="rgb(148,125,235)" stroke-width="1" opacity="0.996078431372549" d="M 182.5 216 L 181.5 218 L 182.5 216 Z " /><path fill="rgb(148,125,235)" stroke="rgb(148,125,235)" stroke-width="1" opacity="0.996078431372549" d="M 175.5 220 L 174.5 222 L 175.5 220 Z " /><path fill="rgb(148,125,235)" stroke="rgb(148,125,235)" stroke-width="1" opacity="1" d="M 111.5 24 L 144.5 24 L 147.5 26 L 153.5 26 L 174.5 34 L 191.5 45 L 212 65.5 L 223 83.5 L 230 102.5 Q 228.8 109.2 232 111.5 L 232 144.5 L 230 147.5 L 230 153.5 L 228 156.5 L 226 165.5 L 216 184.5 L 212 190.5 L 191.5 211 L 177.5 220 L 153.5 230 Q 146.8 228.8 144.5 232 L 111.5 232 L 108.5 230 L 102.5 230 Q 101.1 227.4 96.5 228 L 71.5 216 Q 56.1 205.9 45 191.5 L 34 174.5 L 26 153.5 Q 27.7 146.3 24 144.5 L 24 111.5 L 26 109.5 L 26 102.5 L 28 99.5 L 30 90.5 L 40 71.5 Q 50.1 56.1 64.5 45 L 81.5 34 L 96.5 28 Q 101.1 28.6 102.5 26 L 108.5 26 L 111.5 24 Z M 113 40 L 102 44 L 98 44 L 96 46 L 86 49 L 65 64 L 49 87 L 44 97 L 44 101 L 42 104 Q 43 110 40 114 L 40 143 Q 43 146 42 153 L 50 172 L 65 192 L 86 207 L 89 207 L 98 212 L 102 212 L 113 216 L 144 216 L 155 212 L 159 212 L 161 210 L 164 210 L 172 206 L 192 191 L 203 177 L 210 164 L 210 161 L 214 153 Q 213 146 216 143 L 216 136 L 217 135 L 216 114 L 212 98 L 203 80 L 192 65 L 172 50 L 164 46 L 161 46 L 159 44 L 155 44 L 144 40 L 113 40 Z " /><path fill="rgb(148,125,235)" stroke="rgb(148,125,235)" stroke-width="1" opacity="1" d="M 118 68 L 136.5 68 L 138 69.5 L 152 109.5 L 152 112.5 L 154 114.5 L 154 118.5 L 166 150.5 L 168 159.5 L 170 161.5 L 170 165.5 L 177 185.5 L 174.5 188 L 159.5 188 L 156 183.5 L 147 152 L 108.5 152 L 107 153.5 L 102 172.5 Q 98.3 176.8 98 184.5 L 95.5 188 L 79.5 188 L 78 186.5 L 78 182.5 L 86 162.5 L 88 153.5 L 90 151.5 L 90 147.5 L 98 126.5 L 98 123.5 L 102 115.5 L 102 112.5 L 106 103.5 L 106 99.5 L 118 68 Z M 128 90 L 126 92 L 124 102 L 122 105 L 122 110 L 120 113 L 113 136 L 141 136 L 128 90 Z " /></svg>