<svg width="256" height="256" version="1.1" xmlns="http://www.w3.org/2000/svg" desc="Created with imagetracer.js version 1.2.6" ><path fill="rgb(0,0,0)" stroke="rgb(0,0,0)" stroke-width="1" opacity="0" d="M 0 0 L 256 0 L 256 256 L 0 256 L 0 0 Z M 105 48 L 93 52 L 28 117 L 25 125 Q 25 135 29 141 L 92 203 L 100 207 Q 111 209 117 204 L 181 140 L 184 133 Q 185 119 179 114 L 119 53 Q 114 48 105 48 Z M 153 53 L 143 58 L 141 62 Q 140 68 142 72 Q 145 76 151 77 L 156 76 L 157 75 L 208 127 L 150 185 L 149 184 L 140 185 Q 135 188 134 194 L 136 201 Q 139 205 146 207 Q 155 208 160 205 L 228 137 L 231 129 L 231 124 L 229 118 L 212 100 L 170 57 Q 165 51 153 53 Z " /><path fill="rgb(0,0,0)" stroke="rgb(0,0,0)" stroke-width="1" opacity="0" d="M 104.5 70 L 162 128.5 L 104.5 185 L 47 127.5 L 104.5 70 Z " /><path fill="rgb(125,197,234)" stroke="rgb(125,197,234)" stroke-width="1" opacity="0.9568627450980393" d="M 104.5 48 Q 113.8 48.2 118.5 53 L 179 113.5 Q 185.4 119.1 184 132.5 L 181 139.5 L 116.5 204 Q 111 208.5 99.5 207 L 91.5 203 L 29 140.5 Q 24.6 134.9 25 124.5 L 28 116.5 L 92.5 52 L 104.5 48 Z M 105 70 L 47 128 L 105 185 L 162 129 L 105 70 Z " /><path fill="rgb(125,197,234)" stroke="rgb(125,197,234)" stroke-width="1" opacity="0.9568627450980393" d="M 152.5 53 Q 164.8 51.2 169.5 57 L 212 99.5 L 229 117.5 L 231 123.5 L 231 128.5 L 228 136.5 L 159.5 205 Q 154.8 208.3 145.5 207 Q 139 205.5 136 200.5 L 134 193.5 Q 135.3 187.8 139.5 185 L 148.5 184 L 149.5 185 L 208 126.5 L 156.5 75 L 155.5 76 L 150.5 77 Q 144.8 75.8 142 71.5 Q 139.7 68.3 141 61.5 L 143 58 L 152.5 53 Z " /></svg>