<?xml version="1.0" encoding="UTF-8"?>
<svg version="1.1" xmlns="http://www.w3.org/2000/svg" width="256" height="256">
<path d="M0 0 C6.93 0 13.86 0 21 0 C22.64064119 6.05953799 24.27786977 12.11981591 25.90722656 18.18237305 C26.46005185 20.23560972 27.01467803 22.28836254 27.57128906 24.34057617 C31.13582269 37.48881529 34.36449518 50.63296308 37 64 C37.17095184 63.30144394 37.34190369 62.60288788 37.51803589 61.88316345 C39.1348475 55.27746449 40.75295582 48.67208436 42.37249565 42.06705379 C43.20493015 38.67190989 44.03687514 35.27664764 44.86767578 31.88110352 C45.8243617 27.9711521 46.78322265 24.06173686 47.7421875 20.15234375 C48.03809784 18.94166733 48.33400818 17.73099091 48.6388855 16.48362732 C48.91902496 15.34297318 49.19916443 14.20231903 49.48779297 13.02709961 C49.73206024 12.03004501 49.97632751 11.03299042 50.22799683 10.00572205 C51.08895691 6.65365461 52.0492264 3.32770761 53 0 C60.26 0 67.52 0 75 0 C75 36.63 75 73.26 75 111 C69.06 111 63.12 111 57 111 C57 89.88 57 68.76 57 47 C52.38 65.15 47.76 83.3 43 102 C39.04 102 35.08 102 31 102 C29.32519731 95.75675446 27.65291963 89.51283994 25.98291016 83.26831055 C25.41523324 81.14703405 24.84688413 79.02593731 24.27783203 76.9050293 C23.45686021 73.84471663 22.63836148 70.78375133 21.8203125 67.72265625 C21.56814972 66.78478775 21.31598694 65.84691925 21.05618286 64.88063049 C20.8160849 63.98037643 20.57598694 63.08012238 20.32861328 62.15258789 C20.11987579 61.37315323 19.91113831 60.59371857 19.69607544 59.79066467 C18.72035285 55.87885513 17.87459001 51.93565506 17 48 C17 68.79 17 89.58 17 111 C11.39 111 5.78 111 0 111 C0 74.37 0 37.74 0 0 Z M15 40 C16 42 16 42 16 42 Z " fill="#DF6E41" transform="translate(148,72)"/>
<path d="M0 0 C7.59 0 15.18 0 23 0 C24.35823782 3.39559454 25.35463037 6.10418221 26.11367798 9.58074951 C26.30995285 10.46966385 26.50622772 11.35857819 26.70845032 12.27442932 C26.91632675 13.23670944 27.12420319 14.19898956 27.33837891 15.19042969 C27.56300308 16.21367844 27.78762726 17.23692719 28.01905823 18.29118347 C28.75904933 21.66718638 29.49287262 25.04449757 30.2265625 28.421875 C30.73902297 30.76653496 31.25183495 33.11111812 31.76498413 35.45562744 C32.83844058 40.36422247 33.90910891 45.27341398 34.97753906 50.18310547 C36.35037813 56.49155743 37.72786846 62.79898146 39.10714149 69.10602951 C40.4192833 75.10681703 41.72932863 81.10806154 43.0390625 87.109375 C43.29070789 88.26178429 43.54235329 89.41419357 43.8016243 90.60152435 C44.50903832 93.8431494 45.21498354 97.08509041 45.92041016 100.32714844 C46.2382975 101.782714 46.2382975 101.782714 46.56260681 103.26768494 C46.75324203 104.14531998 46.94387726 105.02295502 47.14028931 105.92718506 C47.39080771 107.07752039 47.39080771 107.07752039 47.6463871 108.25109482 C48 110 48 110 48 111 C41.07 111 34.14 111 27 111 C24.89375416 102.57501665 23.52206515 94.66628144 23 86 C15.41 86 7.82 86 0 86 C-0.33 89.3 -0.66 92.6 -1 96 C-1.89016674 101.02736659 -2.95479413 106.00118929 -4 111 C-10.6 111 -17.2 111 -24 111 C-22.87496754 101.99974028 -22.87496754 101.99974028 -22.05126953 98.21707153 C-21.86622864 97.35913498 -21.68118774 96.50119843 -21.49053955 95.61726379 C-21.28998962 94.7047435 -21.0894397 93.79222321 -20.8828125 92.85205078 C-20.66969421 91.86898453 -20.45657593 90.88591827 -20.23699951 89.87306213 C-19.53650286 86.64637226 -18.83089911 83.42082443 -18.125 80.1953125 C-17.63534741 77.94714321 -17.1459303 75.69892263 -16.65673828 73.45065308 C-15.63343685 68.75143828 -14.60766979 64.05277063 -13.58007812 59.35449219 C-12.26095902 53.32261491 -10.947431 47.28953663 -9.63565063 41.25605965 C-8.62711715 36.61980453 -7.61595046 31.98412691 -6.60394287 27.348629 C-6.1183611 25.12316025 -5.63353727 22.89752599 -5.1494751 20.67172623 C-4.47468161 17.57109512 -3.79642524 14.47124214 -3.1171875 11.37158203 C-2.91663757 10.44691635 -2.71608765 9.52225067 -2.50946045 8.56956482 C-2.32441956 7.72854721 -2.13937866 6.8875296 -1.94873047 6.02102661 C-1.78871552 5.28845201 -1.62870056 4.55587742 -1.46383667 3.80110359 C-1 2 -1 2 0 0 Z M11 24 C8.96409471 31.49669799 7.68211583 39.09729278 6.375 46.75 C6.14342437 48.076857 5.91165496 49.4036802 5.6796875 50.73046875 C5.463125 51.98988281 5.2465625 53.24929687 5.0234375 54.546875 C4.72832275 56.26148926 4.72832275 56.26148926 4.42724609 58.01074219 C3.90567382 61.15668719 3.90567382 61.15668719 4 65 C8.95 65 13.9 65 19 65 C16.69 51.47 14.38 37.94 12 24 C11.67 24 11.34 24 11 24 Z " fill="#DF6E41" transform="translate(56,72)"/>
<path d="M0 0 C6.27 0 12.54 0 19 0 C19 36.63 19 73.26 19 111 C12.73 111 6.46 111 0 111 C0 74.37 0 37.74 0 0 Z " fill="#DF6E41" transform="translate(111,72)"/>
<path d="M0 0 C4.16625 0.061875 8.3325 0.12375 12.625 0.1875 C12.625 12.0675 12.625 23.9475 12.625 36.1875 C0.745 36.1875 -11.135 36.1875 -23.375 36.1875 C-23.4575 32.041875 -23.54 27.89625 -23.625 23.625 C-23.66141602 22.33134521 -23.69783203 21.03769043 -23.73535156 19.70483398 C-23.79973302 13.01383554 -23.72586757 8.43879546 -19.375 3.1875 C-13.85505731 -1.21594943 -6.70169942 -0.14049945 0 0 Z " fill="#DF6E41" transform="translate(48.375,24.8125)"/>
<path d="M0 0 C11.88 0 23.76 0 36 0 C36 11.88 36 23.76 36 36 C31.854375 36.0825 27.70875 36.165 23.4375 36.25 C22.14384521 36.28641602 20.85019043 36.32283203 19.51733398 36.36035156 C12.82633554 36.42473302 8.25129546 36.35086757 3 32 C-1.40344943 26.48005731 -0.32799945 19.32669942 -0.1875 12.625 C-0.125625 8.45875 -0.06375 4.2925 0 0 Z " fill="#DF6E41" transform="translate(25,195)"/>
<path d="M0 0 C4.145625 -0.0825 8.29125 -0.165 12.5625 -0.25 C14.50298218 -0.30462402 14.50298218 -0.30462402 16.48266602 -0.36035156 C23.15375824 -0.42454148 27.80913459 -0.41472778 33 4 C37.03148475 10.15762275 36.34471966 16.791194 36.1875 23.9375 C36.125625 27.918125 36.06375 31.89875 36 36 C24.12 36 12.24 36 0 36 C0 24.12 0 12.24 0 0 Z " fill="#DF6E41" transform="translate(195,25)"/>
<path d="M0 0 C11.88 0 23.76 0 36 0 C36.061875 4.00125 36.12375 8.0025 36.1875 12.125 C36.22846802 14.00082764 36.22846802 14.00082764 36.27026367 15.91455078 C36.34759497 26.23703233 36.34759497 26.23703233 33 31 C28.48719595 35.17434375 25.28889909 36.12837005 19.23828125 36.09765625 C17.72681519 36.09390991 17.72681519 36.09390991 16.18481445 36.09008789 C14.2680188 36.07643188 14.2680188 36.07643188 12.3125 36.0625 C6.2178125 36.0315625 6.2178125 36.0315625 0 36 C0 24.12 0 12.24 0 0 Z " fill="#DF6E41" transform="translate(195,195)"/>
<path d="M0 0 C7.92 0 15.84 0 24 0 C24 11.88 24 23.76 24 36 C16.08 36 8.16 36 0 36 C0 24.12 0 12.24 0 0 Z " fill="#DF6E41" transform="translate(71,195)"/>
<path d="M0 0 C0.9583374 0.00523682 1.9166748 0.01047363 2.90405273 0.01586914 C3.83548096 0.0183667 4.76690918 0.02086426 5.7265625 0.0234375 C7.51404907 0.03709351 7.51404907 0.03709351 9.33764648 0.05102539 C13.11202148 0.07165039 16.88639648 0.09227539 20.77514648 0.11352539 C20.77514648 11.99352539 20.77514648 23.87352539 20.77514648 36.11352539 C12.85514648 36.11352539 4.93514648 36.11352539 -3.22485352 36.11352539 C-3.24776308 31.14724105 -3.26768994 26.18113876 -3.27978516 21.21484375 C-3.28482541 19.52408224 -3.29165756 17.8333251 -3.30029297 16.14257812 C-3.31237208 13.71751832 -3.31808475 11.29251595 -3.32250977 8.86743164 C-3.32767105 8.10701065 -3.33283234 7.34658966 -3.33815002 6.56312561 C-3.33834589 4.74619969 -3.28682628 2.92939412 -3.22485352 1.11352539 C-2.22485352 0.11352539 -2.22485352 0.11352539 0 0 Z " fill="#DF6E41" transform="translate(74.224853515625,24.886474609375)"/>
<path d="M0 0 C7.59 0 15.18 0 23 0 C23 11.88 23 23.76 23 36 C15.41 36 7.82 36 0 36 C0 24.12 0 12.24 0 0 Z " fill="#DF6E41" transform="translate(161,195)"/>
<path d="M0 0 C7.59 0 15.18 0 23 0 C23 11.88 23 23.76 23 36 C15.41 36 7.82 36 0 36 C0 24.12 0 12.24 0 0 Z " fill="#DF6E41" transform="translate(161,25)"/>
<path d="M0 0 C5.61 0 11.22 0 17 0 C17 11.88 17 23.76 17 36 C11.39 36 5.78 36 0 36 C0 24.12 0 12.24 0 0 Z " fill="#DF6E41" transform="translate(133,195)"/>
<path d="M0 0 C5.61 0 11.22 0 17 0 C17 11.88 17 23.76 17 36 C11.39 36 5.78 36 0 36 C0 24.12 0 12.24 0 0 Z " fill="#DF6E41" transform="translate(133,25)"/>
<path d="M0 0 C5.61 0 11.22 0 17 0 C17 11.88 17 23.76 17 36 C11.39 36 5.78 36 0 36 C0 24.12 0 12.24 0 0 Z " fill="#DF6E41" transform="translate(105,25)"/>
<path d="M0 0 C5.28 0 10.56 0 16 0 C16 11.88 16 23.76 16 36 C10.39 36 4.78 36 -1 36 C-1.02290956 31.03371566 -1.04283643 26.06761337 -1.05493164 21.10131836 C-1.0599719 19.41055684 -1.06680405 17.71979971 -1.07543945 16.02905273 C-1.08751857 13.60399293 -1.09323123 11.17899056 -1.09765625 8.75390625 C-1.10281754 7.99348526 -1.10797882 7.23306427 -1.11329651 6.44960022 C-1.11349238 4.6326743 -1.06197277 2.81586873 -1 1 C-0.67 0.67 -0.34 0.34 0 0 Z " fill="#DF6E41" transform="translate(106,195)"/>
</svg>
