<svg width="256" height="256" version="1.1" xmlns="http://www.w3.org/2000/svg" desc="Created with imagetracer.js version 1.2.6" ><path fill="rgb(135,167,214)" stroke="rgb(135,167,214)" stroke-width="1" opacity="0.4235294117647059" d="M 126.5 25 L 132 26 Q 130.7 29.3 135.5 28 L 138.5 31 L 160 42 Q 158.7 45.3 163.5 44 L 166.5 47 L 188 58 Q 189.1 60.7 186.5 60 L 181.5 56 L 127.5 26 L 124.5 28 L 124 26 L 126.5 25 Z " /><path fill="rgb(135,167,214)" stroke="rgb(135,167,214)" stroke-width="1" opacity="0.4235294117647059" d="M 120.5 28 L 123 28.5 L 96.5 44 L 96 42 L 117.5 31 L 120.5 28 Z " /><path fill="rgb(135,167,214)" stroke="rgb(135,167,214)" stroke-width="1" opacity="0.4235294117647059" d="M 92.5 44 L 95 44.5 L 68.5 60 L 68 58 L 89.5 47 L 92.5 44 Z " /><path fill="rgb(135,167,214)" stroke="rgb(135,167,214)" stroke-width="1" opacity="0.4235294117647059" d="M 127.5 51 L 142 59.5 L 140.5 60 L 127.5 52 L 114.5 60 L 116.5 57 L 127.5 51 Z " /><path fill="rgb(135,167,214)" stroke="rgb(135,167,214)" stroke-width="1" opacity="0.4235294117647059" d="M 64.5 60 L 67 60.5 L 40.5 76 L 40 74 L 61.5 63 L 64.5 60 Z " /><path fill="rgb(135,167,214)" stroke="rgb(135,167,214)" stroke-width="1" opacity="0.4235294117647059" d="M 111.5 60 L 113 60.5 L 94.5 72 L 96.5 69 L 111.5 60 Z " /><path fill="rgb(135,167,214)" stroke="rgb(135,167,214)" stroke-width="1" opacity="0.4235294117647059" d="M 143.5 60 L 162 71.5 L 160.5 72 L 145.5 63 L 143.5 60 Z " /><path fill="rgb(135,167,214)" stroke="rgb(135,167,214)" stroke-width="1" opacity="0.4235294117647059" d="M 189.5 60 L 205.5 68 L 218 76.5 L 217.5 180 L 217 76 L 214.5 76 L 209.5 72 L 193.5 64 L 189.5 60 Z " /><path fill="rgb(135,167,214)" stroke="rgb(135,167,214)" stroke-width="1" opacity="0.4235294117647059" d="M 91.5 72 L 93 72.5 L 74.5 84 L 76.5 81 L 91.5 72 Z " /><path fill="rgb(135,167,214)" stroke="rgb(135,167,214)" stroke-width="1" opacity="0.4235294117647059" d="M 163.5 72 L 182 83.5 L 180.5 84 L 165.5 75 L 163.5 72 Z " /><path fill="rgb(135,167,214)" stroke="rgb(135,167,214)" stroke-width="1" opacity="0.4235294117647059" d="M 37 76 L 39 76.5 L 38 77.5 L 38 178.5 L 128.5 230 L 131.5 228 L 130.5 230 L 126.5 231 L 37 180 L 37 76 Z " /><path fill="rgb(135,167,214)" stroke="rgb(135,167,214)" stroke-width="1" opacity="0.4235294117647059" d="M 71.5 84 L 73 84.5 L 64.5 90 L 64 88 L 66.5 88 L 71.5 84 Z " /><path fill="rgb(135,167,214)" stroke="rgb(135,167,214)" stroke-width="1" opacity="0.4235294117647059" d="M 183.5 84 L 192 89.5 L 192 166.5 L 190.5 168 L 183.5 172 L 185.5 169 L 191 167 L 191 89.5 L 189.5 89 Q 184.5 87.5 183.5 84 Z " /><path fill="rgb(135,167,214)" stroke="rgb(135,167,214)" stroke-width="1" opacity="0.4235294117647059" d="M 89.5 88 L 116 88 L 116 116 L 88 116 L 88 89.5 L 89.5 88 Z M 90 90 L 90 115 L 115 115 L 115 90 L 90 90 Z " /><path fill="rgb(135,167,214)" stroke="rgb(135,167,214)" stroke-width="1" opacity="0.4235294117647059" d="M 128.5 88 L 167 88 L 167 116 L 127 116 L 127 89.5 L 128.5 88 Z M 128 90 L 128 115 L 166 115 L 166 90 L 128 90 Z " /><path fill="rgb(135,167,214)" stroke="rgb(135,167,214)" stroke-width="1" opacity="0.4235294117647059" d="M 88 140 L 116 140 L 116 168 L 89.5 168 L 88 166.5 L 88 140 Z M 90 141 L 90 166 L 115 166 L 115 141 L 90 141 Z " /><path fill="rgb(135,167,214)" stroke="rgb(135,167,214)" stroke-width="1" opacity="0.4235294117647059" d="M 127 140 L 167 140 L 167 168 L 128.5 168 L 127 166.5 L 127 140 Z M 128 141 L 128 166 L 166 166 L 166 141 L 128 141 Z " /><path fill="rgb(135,167,214)" stroke="rgb(135,167,214)" stroke-width="1" opacity="0.4235294117647059" d="M 64.5 166 L 128.5 204 L 141.5 196 L 140.5 198 L 127.5 205 L 66.5 168 L 64 168 L 64.5 166 Z " /><path fill="rgb(135,167,214)" stroke="rgb(135,167,214)" stroke-width="1" opacity="0.4235294117647059" d="M 180.5 172 L 182 172.5 L 163.5 184 L 165.5 181 L 180.5 172 Z " /><path fill="rgb(135,167,214)" stroke="rgb(135,167,214)" stroke-width="1" opacity="0.4235294117647059" d="M 215.5 180 L 213.5 183 L 210.5 184 L 211.5 182 L 215.5 180 Z " /><path fill="rgb(135,167,214)" stroke="rgb(135,167,214)" stroke-width="1" opacity="0.4235294117647059" d="M 160.5 184 L 162 184.5 L 143.5 196 L 145.5 193 L 160.5 184 Z " /><path fill="rgb(135,167,214)" stroke="rgb(135,167,214)" stroke-width="1" opacity="0.4235294117647059" d="M 208.5 184 L 206.5 187 L 192 194 Q 193.3 197 189.5 196 L 190.5 194 L 208.5 184 Z " /><path fill="rgb(135,167,214)" stroke="rgb(135,167,214)" stroke-width="1" opacity="0.4235294117647059" d="M 187.5 196 L 185.5 199 L 182.5 200 L 183.5 198 L 187.5 196 Z " /><path fill="rgb(135,167,214)" stroke="rgb(135,167,214)" stroke-width="1" opacity="0.4235294117647059" d="M 180.5 200 L 178.5 203 L 164 210 Q 165.3 213 161.5 212 L 162.5 210 L 180.5 200 Z " /><path fill="rgb(135,167,214)" stroke="rgb(135,167,214)" stroke-width="1" opacity="0.4235294117647059" d="M 158.5 212 L 160 212.5 L 154.5 216 L 155.5 214 L 158.5 212 Z " /><path fill="rgb(135,167,214)" stroke="rgb(135,167,214)" stroke-width="1" opacity="0.4235294117647059" d="M 152.5 216 L 150.5 219 L 133.5 228 L 134.5 226 L 152.5 216 Z " /><path fill="rgb(0,0,0)" stroke="rgb(0,0,0)" stroke-width="1" opacity="0" d="M 0 0 L 256 0 L 256 256 L 0 256 L 0 0 Z M 127 25 L 126 26 Q 123 25 124 28 L 121 28 L 118 31 L 114 32 L 98 42 Q 95 41 96 44 L 93 44 L 90 47 L 86 48 L 70 58 Q 67 57 68 60 L 65 60 L 62 63 L 58 64 L 42 74 Q 39 73 40 76 L 37 77 L 37 180 L 127 231 Q 145 223 161 212 Q 165 213 164 210 L 186 199 L 189 196 Q 193 197 192 194 L 214 183 L 217 180 L 218 180 L 218 77 L 192 60 Q 187 61 188 58 L 167 47 L 164 44 Q 159 45 160 42 L 139 31 L 136 28 Q 131 29 132 26 L 127 25 Z " /><path fill="rgb(0,0,0)" stroke="rgb(0,0,0)" stroke-width="1" opacity="0" d="M 127.5 52 L 142.5 60 L 153.5 68 L 162.5 72 L 173.5 80 L 182.5 84 L 185.5 87 L 191 89 L 191 166.5 L 189.5 167 L 127.5 204 L 64 165.5 L 64 90.5 L 65.5 89 L 82.5 80 L 93.5 72 L 102.5 68 L 127.5 52 Z M 90 88 L 88 90 L 88 116 L 116 116 L 116 88 L 90 88 Z M 129 88 L 127 90 L 127 116 L 167 116 L 167 88 L 129 88 Z M 88 140 L 88 167 L 90 168 L 116 168 L 116 140 L 88 140 Z M 127 140 L 127 167 L 129 168 L 167 168 L 167 140 L 127 140 Z " /><path fill="rgb(135,167,214)" stroke="rgb(135,167,214)" stroke-width="1" opacity="0.996078431372549" d="M 127.5 26 L 130 27.5 L 128.5 27 L 125.5 28 L 125.5 27 L 127.5 26 Z " /><path fill="rgb(135,167,214)" stroke="rgb(135,167,214)" stroke-width="1" opacity="0.996078431372549" d="M 123.5 28 L 122.5 30 L 123.5 28 Z " /><path fill="rgb(135,167,214)" stroke="rgb(135,167,214)" stroke-width="1" opacity="0.996078431372549" d="M 120.5 30 L 119.5 32 L 118 31.5 L 120.5 30 Z " /><path fill="rgb(135,167,214)" stroke="rgb(135,167,214)" stroke-width="1" opacity="0.996078431372549" d="M 135.5 30 L 136.5 32 L 135.5 30 Z " /><path fill="rgb(135,167,214)" stroke="rgb(135,167,214)" stroke-width="1" opacity="0.996078431372549" d="M 116.5 32 L 115.5 34 L 111.5 36 L 112.5 34 L 116.5 32 Z " /><path fill="rgb(135,167,214)" stroke="rgb(135,167,214)" stroke-width="1" opacity="0.996078431372549" d="M 139.5 32 L 144 35.5 L 142.5 35 L 139.5 32 Z " /><path fill="rgb(135,167,214)" stroke="rgb(135,167,214)" stroke-width="1" opacity="0.996078431372549" d="M 146.5 36 L 155 41.5 L 153.5 41 Q 147.5 39.9 146.5 36 Z " /><path fill="rgb(135,167,214)" stroke="rgb(135,167,214)" stroke-width="1" opacity="0.996078431372549" d="M 106.5 38 L 105.5 40 L 104 39.5 L 106.5 38 Z " /><path fill="rgb(135,167,214)" stroke="rgb(135,167,214)" stroke-width="1" opacity="0.996078431372549" d="M 100.5 41 L 98.5 44 L 97 43.5 L 100.5 41 Z " /><path fill="rgb(135,167,214)" stroke="rgb(135,167,214)" stroke-width="1" opacity="0.996078431372549" d="M 156.5 42 L 157.5 44 L 156.5 42 Z " /><path fill="rgb(135,167,214)" stroke="rgb(135,167,214)" stroke-width="1" opacity="0.996078431372549" d="M 95.5 44 L 94.5 46 L 95.5 44 Z " /><path fill="rgb(135,167,214)" stroke="rgb(135,167,214)" stroke-width="1" opacity="0.996078431372549" d="M 92.5 46 L 91.5 48 L 90 47.5 L 92.5 46 Z " /><path fill="rgb(135,167,214)" stroke="rgb(135,167,214)" stroke-width="1" opacity="0.996078431372549" d="M 163.5 46 L 164.5 48 L 163.5 46 Z " /><path fill="rgb(135,167,214)" stroke="rgb(135,167,214)" stroke-width="1" opacity="0.996078431372549" d="M 88.5 48 L 87.5 50 L 83.5 52 L 84.5 50 L 88.5 48 Z " /><path fill="rgb(135,167,214)" stroke="rgb(135,167,214)" stroke-width="1" opacity="0.996078431372549" d="M 167.5 48 L 172 51.5 L 170.5 51 L 167.5 48 Z " /><path fill="rgb(135,167,214)" stroke="rgb(135,167,214)" stroke-width="1" opacity="0.996078431372549" d="M 128.5 50 L 129.5 52 L 128.5 50 Z " /><path fill="rgb(135,167,214)" stroke="rgb(135,167,214)" stroke-width="1" opacity="0.996078431372549" d="M 123.5 52 L 121.5 55 L 119.5 56 L 120.5 54 L 123.5 52 Z " /><path fill="rgb(135,167,214)" stroke="rgb(135,167,214)" stroke-width="1" opacity="0.996078431372549" d="M 131.5 52 L 137 55.5 L 135.5 55 Q 130.8 54.2 131.5 52 Z " /><path fill="rgb(135,167,214)" stroke="rgb(135,167,214)" stroke-width="1" opacity="0.996078431372549" d="M 174.5 52 L 183 57.5 L 181.5 57 Q 175.5 55.9 174.5 52 Z " /><path fill="rgb(135,167,214)" stroke="rgb(135,167,214)" stroke-width="1" opacity="0.996078431372549" d="M 78.5 54 L 77.5 56 L 76 55.5 L 78.5 54 Z " /><path fill="rgb(135,167,214)" stroke="rgb(135,167,214)" stroke-width="1" opacity="0.996078431372549" d="M 116.5 56 L 118 56.5 L 112.5 60 L 112.5 59 L 116.5 56 Z " /><path fill="rgb(135,167,214)" stroke="rgb(135,167,214)" stroke-width="1" opacity="0.996078431372549" d="M 138.5 56 L 150 63.5 L 147.5 62 L 139.5 58 L 138.5 56 Z " /><path fill="rgb(135,167,214)" stroke="rgb(135,167,214)" stroke-width="1" opacity="0.996078431372549" d="M 72.5 57 L 70.5 60 L 69 59.5 L 72.5 57 Z " /><path fill="rgb(135,167,214)" stroke="rgb(135,167,214)" stroke-width="1" opacity="0.996078431372549" d="M 184.5 58 L 185.5 60 L 184.5 58 Z " /><path fill="rgb(135,167,214)" stroke="rgb(135,167,214)" stroke-width="1" opacity="0.996078431372549" d="M 67.5 60 L 66.5 62 L 67.5 60 Z " /><path fill="rgb(135,167,214)" stroke="rgb(135,167,214)" stroke-width="1" opacity="0.996078431372549" d="M 110.5 60 L 109.5 62 L 106.5 64 L 108.5 61 L 110.5 60 Z " /><path fill="rgb(135,167,214)" stroke="rgb(135,167,214)" stroke-width="1" opacity="0.996078431372549" d="M 188.5 60 L 189.5 62 L 188.5 60 Z " /><path fill="rgb(135,167,214)" stroke="rgb(135,167,214)" stroke-width="1" opacity="0.996078431372549" d="M 64.5 62 L 63.5 64 L 62 63.5 L 64.5 62 Z " /><path fill="rgb(135,167,214)" stroke="rgb(135,167,214)" stroke-width="1" opacity="0.996078431372549" d="M 191.5 62 L 192.5 64 L 191.5 62 Z " /><path fill="rgb(135,167,214)" stroke="rgb(135,167,214)" stroke-width="1" opacity="0.996078431372549" d="M 60.5 64 L 59.5 66 L 55.5 68 L 56.5 66 L 60.5 64 Z " /><path fill="rgb(135,167,214)" stroke="rgb(135,167,214)" stroke-width="1" opacity="0.996078431372549" d="M 103.5 64 L 101.5 67 L 99.5 68 L 100.5 66 L 103.5 64 Z " /><path fill="rgb(135,167,214)" stroke="rgb(135,167,214)" stroke-width="1" opacity="0.996078431372549" d="M 151.5 64 L 157 67.5 L 155.5 67 Q 151.5 66.5 151.5 64 Z " /><path fill="rgb(135,167,214)" stroke="rgb(135,167,214)" stroke-width="1" opacity="0.996078431372549" d="M 195.5 64 L 200 67.5 L 198.5 67 L 195.5 64 Z " /><path fill="rgb(135,167,214)" stroke="rgb(135,167,214)" stroke-width="1" opacity="0.996078431372549" d="M 96.5 68 L 98 68.5 L 92.5 72 L 92.5 71 L 96.5 68 Z " /><path fill="rgb(135,167,214)" stroke="rgb(135,167,214)" stroke-width="1" opacity="0.996078431372549" d="M 158.5 68 L 170 75.5 L 167.5 74 L 159.5 70 L 158.5 68 Z " /><path fill="rgb(135,167,214)" stroke="rgb(135,167,214)" stroke-width="1" opacity="0.996078431372549" d="M 202.5 68 L 211 73.5 L 209.5 73 Q 203.5 71.9 202.5 68 Z " /><path fill="rgb(135,167,214)" stroke="rgb(135,167,214)" stroke-width="1" opacity="0.996078431372549" d="M 50.5 70 L 49.5 72 L 48 71.5 L 50.5 70 Z " /><path fill="rgb(135,167,214)" stroke="rgb(135,167,214)" stroke-width="1" opacity="0.996078431372549" d="M 90.5 72 L 89.5 74 L 86.5 76 L 88.5 73 L 90.5 72 Z " /><path fill="rgb(135,167,214)" stroke="rgb(135,167,214)" stroke-width="1" opacity="0.996078431372549" d="M 44.5 73 L 42.5 76 L 41 75.5 L 44.5 73 Z " /><path fill="rgb(135,167,214)" stroke="rgb(135,167,214)" stroke-width="1" opacity="0.996078431372549" d="M 212.5 74 L 213.5 76 L 212.5 74 Z " /><path fill="rgb(135,167,214)" stroke="rgb(135,167,214)" stroke-width="1" opacity="0.996078431372549" d="M 39.5 76 L 39 77.5 L 39 178.5 L 40 179.5 L 38 178.5 L 38 77.5 L 39.5 76 Z " /><path fill="rgb(135,167,214)" stroke="rgb(135,167,214)" stroke-width="1" opacity="0.996078431372549" d="M 83.5 76 L 81.5 79 L 79.5 80 L 80.5 78 L 83.5 76 Z " /><path fill="rgb(135,167,214)" stroke="rgb(135,167,214)" stroke-width="1" opacity="0.996078431372549" d="M 171.5 76 L 177 79.5 L 175.5 79 Q 171.5 78.5 171.5 76 Z " /><path fill="rgb(135,167,214)" stroke="rgb(135,167,214)" stroke-width="1" opacity="0.996078431372549" d="M 76.5 80 L 78 80.5 L 72.5 84 L 72.5 83 L 76.5 80 Z " /><path fill="rgb(135,167,214)" stroke="rgb(135,167,214)" stroke-width="1" opacity="0.996078431372549" d="M 178.5 80 L 190 87.5 L 187.5 86 L 179.5 82 L 178.5 80 Z " /><path fill="rgb(135,167,214)" stroke="rgb(135,167,214)" stroke-width="1" opacity="0.996078431372549" d="M 70.5 84 L 69.5 86 L 66.5 88 L 68.5 85 L 70.5 84 Z " /><path fill="rgb(135,167,214)" stroke="rgb(135,167,214)" stroke-width="1" opacity="0.996078431372549" d="M 63.5 88 L 64 167.5 L 63 167.5 L 63.5 88 Z " /><path fill="rgb(135,167,214)" stroke="rgb(135,167,214)" stroke-width="1" opacity="0.996078431372549" d="M 114.5 90 L 115 114.5 L 114 114.5 L 114.5 90 Z " /><path fill="rgb(135,167,214)" stroke="rgb(135,167,214)" stroke-width="1" opacity="0.996078431372549" d="M 114.5 141 L 115 165.5 L 114 165.5 L 114.5 141 Z " /><path fill="rgb(135,167,214)" stroke="rgb(135,167,214)" stroke-width="1" opacity="0.996078431372549" d="M 66.5 168 L 71 171.5 L 69.5 171 L 66.5 168 Z " /><path fill="rgb(135,167,214)" stroke="rgb(135,167,214)" stroke-width="1" opacity="0.996078431372549" d="M 186.5 170 L 188 170.5 L 181.5 174 L 182.5 172 L 186.5 170 Z " /><path fill="rgb(135,167,214)" stroke="rgb(135,167,214)" stroke-width="1" opacity="0.996078431372549" d="M 74.5 173 L 78 175.5 L 76.5 176 L 74.5 173 Z " /><path fill="rgb(135,167,214)" stroke="rgb(135,167,214)" stroke-width="1" opacity="0.996078431372549" d="M 179.5 174 L 180 176 L 178 175.5 L 179.5 174 Z " /><path fill="rgb(135,167,214)" stroke="rgb(135,167,214)" stroke-width="1" opacity="0.996078431372549" d="M 79.5 176 L 80.5 178 L 79.5 176 Z " /><path fill="rgb(135,167,214)" stroke="rgb(135,167,214)" stroke-width="1" opacity="0.996078431372549" d="M 174.5 177 L 176 177.5 L 171.5 180 L 172.5 178 L 174.5 177 Z " /><path fill="rgb(135,167,214)" stroke="rgb(135,167,214)" stroke-width="1" opacity="0.996078431372549" d="M 82.5 178 L 83.5 180 L 82.5 178 Z " /><path fill="rgb(135,167,214)" stroke="rgb(135,167,214)" stroke-width="1" opacity="0.996078431372549" d="M 41.5 180 L 47 183.5 L 45.5 183 Q 40.8 182.2 41.5 180 Z " /><path fill="rgb(135,167,214)" stroke="rgb(135,167,214)" stroke-width="1" opacity="0.996078431372549" d="M 86.5 180 L 91 183.5 L 89.5 183 L 86.5 180 Z " /><path fill="rgb(135,167,214)" stroke="rgb(135,167,214)" stroke-width="1" opacity="0.996078431372549" d="M 213.5 180 L 215 180.5 L 212.5 182 L 213.5 180 Z " /><path fill="rgb(135,167,214)" stroke="rgb(135,167,214)" stroke-width="1" opacity="0.996078431372549" d="M 166.5 182 L 168 182.5 L 161.5 186 L 162.5 184 L 166.5 182 Z " /><path fill="rgb(135,167,214)" stroke="rgb(135,167,214)" stroke-width="1" opacity="0.996078431372549" d="M 210.5 182 L 209.5 184 L 210.5 182 Z " /><path fill="rgb(135,167,214)" stroke="rgb(135,167,214)" stroke-width="1" opacity="0.996078431372549" d="M 48.5 184 L 52 185.5 L 50.5 186 L 48.5 184 Z " /><path fill="rgb(135,167,214)" stroke="rgb(135,167,214)" stroke-width="1" opacity="0.996078431372549" d="M 206.5 184 L 208 184.5 L 204.5 186 L 204.5 185 L 206.5 184 Z " /><path fill="rgb(135,167,214)" stroke="rgb(135,167,214)" stroke-width="1" opacity="0.996078431372549" d="M 94.5 185 L 98 187.5 L 96.5 188 L 94.5 185 Z " /><path fill="rgb(135,167,214)" stroke="rgb(135,167,214)" stroke-width="1" opacity="0.996078431372549" d="M 159.5 186 L 160 188 L 158 187.5 L 159.5 186 Z " /><path fill="rgb(135,167,214)" stroke="rgb(135,167,214)" stroke-width="1" opacity="0.996078431372549" d="M 55.5 188 L 61 191.5 L 59.5 191 Q 54.8 190.2 55.5 188 Z " /><path fill="rgb(135,167,214)" stroke="rgb(135,167,214)" stroke-width="1" opacity="0.996078431372549" d="M 99.5 188 L 100.5 190 L 99.5 188 Z " /><path fill="rgb(135,167,214)" stroke="rgb(135,167,214)" stroke-width="1" opacity="0.996078431372549" d="M 199.5 188 L 198.5 190 L 199.5 188 Z " /><path fill="rgb(135,167,214)" stroke="rgb(135,167,214)" stroke-width="1" opacity="0.996078431372549" d="M 154.5 189 L 156 189.5 L 151.5 192 L 152.5 190 L 154.5 189 Z " /><path fill="rgb(135,167,214)" stroke="rgb(135,167,214)" stroke-width="1" opacity="0.996078431372549" d="M 102.5 190 L 103.5 192 L 102.5 190 Z " /><path fill="rgb(135,167,214)" stroke="rgb(135,167,214)" stroke-width="1" opacity="0.996078431372549" d="M 196.5 190 L 195.5 192 L 196.5 190 Z " /><path fill="rgb(135,167,214)" stroke="rgb(135,167,214)" stroke-width="1" opacity="0.996078431372549" d="M 62.5 192 L 65 193.5 L 63.5 193 L 62.5 192 Z " /><path fill="rgb(135,167,214)" stroke="rgb(135,167,214)" stroke-width="1" opacity="0.996078431372549" d="M 106.5 192 L 111 195.5 L 109.5 195 L 106.5 192 Z " /><path fill="rgb(135,167,214)" stroke="rgb(135,167,214)" stroke-width="1" opacity="0.996078431372549" d="M 192.5 192 L 191.5 194 L 192.5 192 Z " /><path fill="rgb(135,167,214)" stroke="rgb(135,167,214)" stroke-width="1" opacity="0.996078431372549" d="M 66.5 194 L 67.5 196 L 66.5 194 Z " /><path fill="rgb(135,167,214)" stroke="rgb(135,167,214)" stroke-width="1" opacity="0.996078431372549" d="M 146.5 194 L 148 194.5 L 141.5 198 L 142.5 196 L 146.5 194 Z " /><path fill="rgb(135,167,214)" stroke="rgb(135,167,214)" stroke-width="1" opacity="0.996078431372549" d="M 189.5 194 L 188.5 196 L 189.5 194 Z " /><path fill="rgb(135,167,214)" stroke="rgb(135,167,214)" stroke-width="1" opacity="0.996078431372549" d="M 69.5 196 L 75 199.5 L 73.5 199 Q 68.8 198.2 69.5 196 Z " /><path fill="rgb(135,167,214)" stroke="rgb(135,167,214)" stroke-width="1" opacity="0.996078431372549" d="M 185.5 196 L 187 196.5 L 184.5 198 L 185.5 196 Z " /><path fill="rgb(135,167,214)" stroke="rgb(135,167,214)" stroke-width="1" opacity="0.996078431372549" d="M 114.5 197 L 118 199.5 L 116.5 200 L 114.5 197 Z " /><path fill="rgb(135,167,214)" stroke="rgb(135,167,214)" stroke-width="1" opacity="0.996078431372549" d="M 139.5 198 L 140 200 L 138 199.5 L 139.5 198 Z " /><path fill="rgb(135,167,214)" stroke="rgb(135,167,214)" stroke-width="1" opacity="0.996078431372549" d="M 182.5 198 L 181.5 200 L 182.5 198 Z " /><path fill="rgb(135,167,214)" stroke="rgb(135,167,214)" stroke-width="1" opacity="0.996078431372549" d="M 76.5 200 L 82 203.5 L 79.5 202 Q 75.7 201.7 76.5 200 Z " /><path fill="rgb(135,167,214)" stroke="rgb(135,167,214)" stroke-width="1" opacity="0.996078431372549" d="M 119.5 200 L 120.5 202 L 119.5 200 Z " /><path fill="rgb(135,167,214)" stroke="rgb(135,167,214)" stroke-width="1" opacity="0.996078431372549" d="M 178.5 200 L 180 200.5 L 174.5 204 L 176.5 201 L 178.5 200 Z " /><path fill="rgb(135,167,214)" stroke="rgb(135,167,214)" stroke-width="1" opacity="0.996078431372549" d="M 134.5 201 L 136 201.5 L 131.5 204 L 132.5 202 L 134.5 201 Z " /><path fill="rgb(135,167,214)" stroke="rgb(135,167,214)" stroke-width="1" opacity="0.996078431372549" d="M 122.5 202 L 123.5 204 L 122.5 202 Z " /><path fill="rgb(135,167,214)" stroke="rgb(135,167,214)" stroke-width="1" opacity="0.996078431372549" d="M 83.5 204 L 89 207.5 L 86.5 206 Q 82.8 205.8 83.5 204 Z " /><path fill="rgb(135,167,214)" stroke="rgb(135,167,214)" stroke-width="1" opacity="0.996078431372549" d="M 126.5 204 L 127.5 206 L 126.5 204 Z " /><path fill="rgb(135,167,214)" stroke="rgb(135,167,214)" stroke-width="1" opacity="0.996078431372549" d="M 171.5 204 L 170.5 206 L 167.5 208 L 169.5 205 L 171.5 204 Z " /><path fill="rgb(135,167,214)" stroke="rgb(135,167,214)" stroke-width="1" opacity="0.996078431372549" d="M 90.5 208 L 93 209.5 L 91.5 209 L 90.5 208 Z " /><path fill="rgb(135,167,214)" stroke="rgb(135,167,214)" stroke-width="1" opacity="0.996078431372549" d="M 164.5 208 L 163.5 210 L 164.5 208 Z " /><path fill="rgb(135,167,214)" stroke="rgb(135,167,214)" stroke-width="1" opacity="0.996078431372549" d="M 94.5 210 L 95.5 212 L 94.5 210 Z " /><path fill="rgb(135,167,214)" stroke="rgb(135,167,214)" stroke-width="1" opacity="0.996078431372549" d="M 161.5 210 L 160.5 212 L 161.5 210 Z " /><path fill="rgb(135,167,214)" stroke="rgb(135,167,214)" stroke-width="1" opacity="0.996078431372549" d="M 97.5 212 L 110 219.5 L 107.5 218 Q 100.2 216.1 97.5 212 Z " /><path fill="rgb(135,167,214)" stroke="rgb(135,167,214)" stroke-width="1" opacity="0.996078431372549" d="M 157.5 212 L 156.5 214 L 157.5 212 Z " /><path fill="rgb(135,167,214)" stroke="rgb(135,167,214)" stroke-width="1" opacity="0.996078431372549" d="M 154.5 214 L 153.5 216 L 146.5 220 L 148.5 217 L 154.5 214 Z " /><path fill="rgb(135,167,214)" stroke="rgb(135,167,214)" stroke-width="1" opacity="0.996078431372549" d="M 111.5 220 L 117 223.5 L 114.5 222 Q 110.8 221.8 111.5 220 Z " /><path fill="rgb(135,167,214)" stroke="rgb(135,167,214)" stroke-width="1" opacity="0.996078431372549" d="M 143.5 220 L 142.5 222 L 139.5 224 L 141.5 221 L 143.5 220 Z " /><path fill="rgb(135,167,214)" stroke="rgb(135,167,214)" stroke-width="1" opacity="0.996078431372549" d="M 118.5 224 L 121 225.5 L 119.5 225 L 118.5 224 Z " /><path fill="rgb(135,167,214)" stroke="rgb(135,167,214)" stroke-width="1" opacity="0.996078431372549" d="M 136.5 224 L 135.5 226 L 136.5 224 Z " /><path fill="rgb(135,167,214)" stroke="rgb(135,167,214)" stroke-width="1" opacity="0.996078431372549" d="M 122.5 226 L 123.5 228 L 122.5 226 Z " /><path fill="rgb(135,167,214)" stroke="rgb(135,167,214)" stroke-width="1" opacity="0.996078431372549" d="M 133.5 226 L 132.5 228 L 133.5 226 Z " /><path fill="rgb(135,167,214)" stroke="rgb(135,167,214)" stroke-width="1" opacity="0.996078431372549" d="M 125.5 228 L 128.5 229 L 130 228.5 L 127.5 230 L 125.5 228 Z " /><path fill="rgb(135,167,214)" stroke="rgb(135,167,214)" stroke-width="1" opacity="1" d="M 127.5 27 L 131.5 28 L 141.5 35 L 145.5 36 L 148.5 39 L 159.5 44 L 169.5 51 L 173.5 52 L 176.5 55 L 187.5 60 L 217 77.5 L 217 178.5 L 215.5 180 L 204 185 Q 205.1 187.7 202.5 187 L 180.5 200 L 176.5 201 L 173.5 204 L 169.5 205 L 159.5 212 L 148.5 217 L 145.5 220 L 141.5 221 L 131.5 228 L 127.5 229 L 56.5 188 L 52 187 Q 53.1 184.3 50.5 185 L 39 178.5 L 39 77.5 L 40.5 76 L 42.5 76 L 45.5 73 L 49.5 72 L 52.5 69 L 63.5 64 L 73.5 57 L 77.5 56 L 80.5 53 L 127.5 27 Z M 129 50 L 117 56 L 99 68 L 97 68 L 86 76 L 77 80 L 66 88 L 63 89 L 63 168 L 66 168 L 77 176 L 86 180 L 97 188 L 106 192 L 128 206 L 135 202 Q 137 203 136 200 L 140 200 L 140 198 L 147 195 Q 149 196 148 193 L 155 190 Q 157 191 156 188 L 160 188 L 160 186 L 167 183 Q 169 184 168 181 L 175 178 Q 177 179 176 176 L 180 176 L 180 174 L 187 171 Q 189 172 188 169 L 191 168 L 192 168 L 192 88 L 129 50 Z " /><path fill="rgb(135,167,214)" stroke="rgb(135,167,214)" stroke-width="1" opacity="1" d="M 90 90 L 114 90 L 114 115 L 90 115 L 90 90 Z " /><path fill="rgb(135,167,214)" stroke="rgb(135,167,214)" stroke-width="1" opacity="1" d="M 128 90 L 166 90 L 166 115 L 128 115 L 128 90 Z " /><path fill="rgb(135,167,214)" stroke="rgb(135,167,214)" stroke-width="1" opacity="1" d="M 90 141 L 114 141 L 114 166 L 90 166 L 90 141 Z " /><path fill="rgb(135,167,214)" stroke="rgb(135,167,214)" stroke-width="1" opacity="1" d="M 128 141 L 166 141 L 166 166 L 128 166 L 128 141 Z " /></svg>