<svg width="256" height="256" version="1.1" xmlns="http://www.w3.org/2000/svg" desc="Created with imagetracer.js version 1.2.6" ><path fill="rgb(0,0,0)" stroke="rgb(0,0,0)" stroke-width="1" opacity="0" d="M 0 0 L 256 0 L 256 256 L 0 256 L 0 0 Z M 168 25 L 156 30 Q 147 37 145 50 L 147 62 L 155 72 L 146 95 L 141 94 Q 123 93 116 102 Q 109 108 106 117 L 105 129 L 104 130 L 86 132 L 85 129 L 74 118 L 66 115 Q 59 117 58 114 L 48 116 L 39 121 Q 28 128 26 143 L 26 152 L 31 165 Q 38 175 52 178 L 64 178 L 78 172 Q 88 165 90 149 L 111 145 Q 117 155 131 158 L 142 158 L 151 155 L 168 177 L 163 187 L 162 192 L 162 203 L 167 216 L 180 227 L 193 231 Q 207 231 216 225 Q 227 218 230 203 L 229 187 L 223 176 L 214 167 L 198 162 L 188 163 L 182 166 L 164 146 L 164 143 L 167 138 L 169 130 Q 169 112 160 105 L 170 77 Q 172 75 178 76 L 186 72 Q 193 67 196 57 Q 198 41 191 35 L 179 26 L 168 25 Z " /><path fill="rgb(0,0,0)" stroke="rgb(0,0,0)" stroke-width="1" opacity="0" d="M 134.5 110 Q 145.8 110.2 150 117.5 Q 153.7 121.8 152 131.5 L 146.5 139 Q 142.3 143.3 132.5 142 L 125 137.5 L 121 130.5 L 121 122.5 Q 122.5 116 127.5 113 L 134.5 110 Z " /><path fill="rgb(125,197,234)" stroke="rgb(125,197,234)" stroke-width="1" opacity="0.9647058823529412" d="M 167.5 25 L 178.5 26 L 191 34.5 Q 198 41 196 56.5 Q 193.3 66.8 185.5 72 L 177.5 76 Q 172.1 75.4 170 77 L 160 104.5 Q 169.2 112.3 169 129.5 L 167 137.5 L 164 142.5 L 164 145.5 L 181.5 166 L 187.5 163 L 197.5 162 L 213.5 167 L 223 175.5 L 229 186.5 L 230 202.5 Q 226.6 217.6 215.5 225 Q 207.4 231.4 192.5 231 L 179.5 227 L 167 215.5 L 162 202.5 L 162 191.5 L 163 186.5 L 168 176.5 L 151 155 L 141.5 158 L 130.5 158 Q 117.4 154.6 110.5 145 L 90 149 Q 88.3 164.5 77.5 172 L 63.5 178 L 51.5 178 Q 37.8 174.8 31 164.5 L 26 151.5 L 26 142.5 Q 28.5 128 38.5 121 L 47.5 116 L 57.5 114 Q 59.3 116.8 65.5 115 L 73.5 118 L 85 128.5 L 86 132 L 103.5 130 L 105 128.5 L 106 116.5 Q 109.3 107.8 115.5 102 Q 123.5 93.5 140.5 94 L 145.5 95 L 155 71.5 L 147 61.5 L 145 49.5 Q 147 36.5 155.5 30 L 167.5 25 Z M 135 110 L 128 113 Q 123 116 121 123 L 121 131 L 125 138 L 133 142 Q 142 143 147 139 L 152 132 Q 154 122 150 118 Q 146 110 135 110 Z " /></svg>