<svg width="256" height="256" version="1.1" xmlns="http://www.w3.org/2000/svg" desc="Created with imagetracer.js version 1.2.6" ><path fill="rgb(0,0,0)" stroke="rgb(0,0,0)" stroke-width="1" opacity="0" d="M 0 0 L 256 0 L 256 256 L 0 256 L 0 0 Z M 26 66 L 26 189 L 83 189 L 95 186 L 105 181 Q 115 174 118 160 L 117 142 L 113 135 Q 107 126 95 124 L 102 120 Q 109 113 112 101 L 112 92 L 109 82 L 100 72 L 86 67 Q 81 68 80 66 L 26 66 Z M 139 66 L 139 189 L 196 189 L 208 186 L 218 181 Q 228 174 231 160 L 230 142 L 226 135 Q 220 126 208 124 L 215 120 Q 222 113 225 101 L 225 92 L 222 82 L 213 72 L 199 67 Q 194 68 193 66 L 139 66 Z " /><path fill="rgb(0,0,0)" stroke="rgb(0,0,0)" stroke-width="1" opacity="0" d="M 51 85 L 70.5 85 Q 71.8 87.2 76.5 86 L 84 90 L 87 96.5 L 87 102.5 L 86 106.5 L 82 112 L 74.5 115 L 51 116 L 51 85 Z " /><path fill="rgb(0,0,0)" stroke="rgb(0,0,0)" stroke-width="1" opacity="0" d="M 164 85 L 183.5 85 Q 184.8 87.2 189.5 86 L 197 90 L 200 96.5 L 200 102.5 L 199 106.5 L 195 112 L 187.5 115 L 164 116 L 164 85 Z " /><path fill="rgb(0,0,0)" stroke="rgb(0,0,0)" stroke-width="1" opacity="0" d="M 51 135 L 77.5 135 Q 86.5 136.5 91 142.5 Q 94.7 146.8 93 156.5 L 90 163 L 77.5 169 L 51 170 L 51 135 Z " /><path fill="rgb(0,0,0)" stroke="rgb(0,0,0)" stroke-width="1" opacity="0" d="M 164 135 L 190.5 135 Q 199.5 136.5 204 142.5 Q 207.7 146.8 206 156.5 L 203 163 L 190.5 169 L 164 170 L 164 135 Z " /><path fill="rgb(157,137,118)" stroke="rgb(157,137,118)" stroke-width="1" opacity="0.6078431372549019" d="M 72.5 66 L 80 66.5 L 72.5 67 L 72.5 66 Z " /><path fill="rgb(157,137,118)" stroke="rgb(157,137,118)" stroke-width="1" opacity="0.6078431372549019" d="M 185.5 66 L 193 66.5 L 185.5 67 L 185.5 66 Z " /><path fill="rgb(157,137,118)" stroke="rgb(157,137,118)" stroke-width="1" opacity="0.6078431372549019" d="M 82.5 67 L 86 67.5 L 82.5 68 L 82.5 67 Z " /><path fill="rgb(157,137,118)" stroke="rgb(157,137,118)" stroke-width="1" opacity="0.6078431372549019" d="M 195.5 67 L 199 67.5 L 195.5 68 L 195.5 67 Z " /><path fill="rgb(157,137,118)" stroke="rgb(157,137,118)" stroke-width="1" opacity="0.6078431372549019" d="M 87.5 68 L 90 68.5 L 87.5 69 L 87.5 68 Z " /><path fill="rgb(157,137,118)" stroke="rgb(157,137,118)" stroke-width="1" opacity="0.6078431372549019" d="M 200.5 68 L 203 68.5 L 200.5 69 L 200.5 68 Z " /><path fill="rgb(157,137,118)" stroke="rgb(157,137,118)" stroke-width="1" opacity="0.6078431372549019" d="M 91.5 69 L 95 70.5 L 93.5 71 L 91.5 69 Z " /><path fill="rgb(157,137,118)" stroke="rgb(157,137,118)" stroke-width="1" opacity="0.6078431372549019" d="M 204.5 69 L 208 70.5 L 206.5 71 L 204.5 69 Z " /><path fill="rgb(157,137,118)" stroke="rgb(157,137,118)" stroke-width="1" opacity="0.6078431372549019" d="M 96.5 71 L 99.5 72 L 109 81.5 L 108.5 83 L 99.5 73 Q 95.8 72.8 96.5 71 Z " /><path fill="rgb(157,137,118)" stroke="rgb(157,137,118)" stroke-width="1" opacity="0.6078431372549019" d="M 209.5 71 L 212.5 72 L 222 81.5 L 221.5 83 L 212.5 73 Q 208.8 72.8 209.5 71 Z " /><path fill="rgb(157,137,118)" stroke="rgb(157,137,118)" stroke-width="1" opacity="0.6078431372549019" d="M 51.5 84 L 66 84.5 L 51 85 L 50.5 116 L 50 85.5 L 51.5 84 Z " /><path fill="rgb(157,137,118)" stroke="rgb(157,137,118)" stroke-width="1" opacity="0.6078431372549019" d="M 164.5 84 L 179 84.5 L 164 85 L 163.5 116 L 163 85.5 L 164.5 84 Z " /><path fill="rgb(157,137,118)" stroke="rgb(157,137,118)" stroke-width="1" opacity="0.6078431372549019" d="M 71.5 85 L 76 85.5 L 71.5 86 L 71.5 85 Z " /><path fill="rgb(157,137,118)" stroke="rgb(157,137,118)" stroke-width="1" opacity="0.6078431372549019" d="M 184.5 85 L 189 85.5 L 184.5 86 L 184.5 85 Z " /><path fill="rgb(157,137,118)" stroke="rgb(157,137,118)" stroke-width="1" opacity="0.6078431372549019" d="M 77.5 86 L 85 90.5 L 87 95.5 L 86 95.5 L 84 90 L 77.5 87 L 77.5 86 Z " /><path fill="rgb(157,137,118)" stroke="rgb(157,137,118)" stroke-width="1" opacity="0.6078431372549019" d="M 190.5 86 L 198 90.5 L 200 95.5 L 199 95.5 L 197 90 L 190.5 87 L 190.5 86 Z " /><path fill="rgb(157,137,118)" stroke="rgb(157,137,118)" stroke-width="1" opacity="0.6078431372549019" d="M 110.5 87 L 111 89.5 L 110 89.5 L 110.5 87 Z " /><path fill="rgb(157,137,118)" stroke="rgb(157,137,118)" stroke-width="1" opacity="0.6078431372549019" d="M 223.5 87 L 224 89.5 L 223 89.5 L 223.5 87 Z " /><path fill="rgb(157,137,118)" stroke="rgb(157,137,118)" stroke-width="1" opacity="0.6078431372549019" d="M 111.5 91 L 112 100.5 L 111 100.5 L 111.5 91 Z " /><path fill="rgb(157,137,118)" stroke="rgb(157,137,118)" stroke-width="1" opacity="0.6078431372549019" d="M 224.5 91 L 225 100.5 L 224 100.5 L 224.5 91 Z " /><path fill="rgb(157,137,118)" stroke="rgb(157,137,118)" stroke-width="1" opacity="0.6078431372549019" d="M 87.5 98 L 88 101.5 L 87 101.5 L 87.5 98 Z " /><path fill="rgb(157,137,118)" stroke="rgb(157,137,118)" stroke-width="1" opacity="0.6078431372549019" d="M 200.5 98 L 201 101.5 L 200 101.5 L 200.5 98 Z " /><path fill="rgb(157,137,118)" stroke="rgb(157,137,118)" stroke-width="1" opacity="0.6078431372549019" d="M 110.5 102 L 111 105.5 L 109.5 108 L 109 106.5 L 110.5 102 Z " /><path fill="rgb(157,137,118)" stroke="rgb(157,137,118)" stroke-width="1" opacity="0.6078431372549019" d="M 223.5 102 L 224 105.5 L 222.5 108 L 222 106.5 L 223.5 102 Z " /><path fill="rgb(157,137,118)" stroke="rgb(157,137,118)" stroke-width="1" opacity="0.6078431372549019" d="M 86.5 103 L 87 105.5 L 86 105.5 L 86.5 103 Z " /><path fill="rgb(157,137,118)" stroke="rgb(157,137,118)" stroke-width="1" opacity="0.6078431372549019" d="M 199.5 103 L 200 105.5 L 199 105.5 L 199.5 103 Z " /><path fill="rgb(157,137,118)" stroke="rgb(157,137,118)" stroke-width="1" opacity="0.6078431372549019" d="M 85.5 107 L 85 108.5 L 82.5 112 L 82 110.5 L 85.5 107 Z " /><path fill="rgb(157,137,118)" stroke="rgb(157,137,118)" stroke-width="1" opacity="0.6078431372549019" d="M 198.5 107 L 198 108.5 L 195.5 112 L 195 110.5 L 198.5 107 Z " /><path fill="rgb(157,137,118)" stroke="rgb(157,137,118)" stroke-width="1" opacity="0.6078431372549019" d="M 80.5 112 L 79.5 114 L 75.5 115 L 75.5 114 L 80.5 112 Z " /><path fill="rgb(157,137,118)" stroke="rgb(157,137,118)" stroke-width="1" opacity="0.6078431372549019" d="M 193.5 112 L 192.5 114 L 188.5 115 L 188.5 114 L 193.5 112 Z " /><path fill="rgb(157,137,118)" stroke="rgb(157,137,118)" stroke-width="1" opacity="0.6078431372549019" d="M 106.5 113 L 105 115.5 L 101.5 120 L 97.5 122 L 97.5 121 L 104 116.5 L 106.5 113 Z " /><path fill="rgb(157,137,118)" stroke="rgb(157,137,118)" stroke-width="1" opacity="0.6078431372549019" d="M 219.5 113 L 218 115.5 L 214.5 120 L 210.5 122 L 210.5 121 L 217 116.5 L 219.5 113 Z " /><path fill="rgb(157,137,118)" stroke="rgb(157,137,118)" stroke-width="1" opacity="0.6078431372549019" d="M 66.5 115 L 74 115.5 L 66.5 116 L 66.5 115 Z " /><path fill="rgb(157,137,118)" stroke="rgb(157,137,118)" stroke-width="1" opacity="0.6078431372549019" d="M 179.5 115 L 187 115.5 L 179.5 116 L 179.5 115 Z " /><path fill="rgb(157,137,118)" stroke="rgb(157,137,118)" stroke-width="1" opacity="0.6078431372549019" d="M 95.5 122 L 94.5 124 L 95.5 122 Z " /><path fill="rgb(157,137,118)" stroke="rgb(157,137,118)" stroke-width="1" opacity="0.6078431372549019" d="M 208.5 122 L 207.5 124 L 208.5 122 Z " /><path fill="rgb(157,137,118)" stroke="rgb(157,137,118)" stroke-width="1" opacity="0.6078431372549019" d="M 96.5 124 Q 107.6 126.4 113 134.5 L 117 141.5 L 117 144.5 L 116 144.5 Q 114.5 134.5 107.5 130 L 96.5 125 L 96.5 124 Z " /><path fill="rgb(157,137,118)" stroke="rgb(157,137,118)" stroke-width="1" opacity="0.6078431372549019" d="M 209.5 124 Q 220.6 126.4 226 134.5 L 230 141.5 L 230 144.5 L 229 144.5 Q 227.5 134.5 220.5 130 L 209.5 125 L 209.5 124 Z " /><path fill="rgb(157,137,118)" stroke="rgb(157,137,118)" stroke-width="1" opacity="0.6078431372549019" d="M 50 134 L 76 134.5 L 51 135 L 50.5 170 L 50 134 Z " /><path fill="rgb(157,137,118)" stroke="rgb(157,137,118)" stroke-width="1" opacity="0.6078431372549019" d="M 163 134 L 189 134.5 L 164 135 L 163.5 170 L 163 134 Z " /><path fill="rgb(157,137,118)" stroke="rgb(157,137,118)" stroke-width="1" opacity="0.6078431372549019" d="M 78.5 135 L 81 135.5 L 78.5 136 L 78.5 135 Z " /><path fill="rgb(157,137,118)" stroke="rgb(157,137,118)" stroke-width="1" opacity="0.6078431372549019" d="M 191.5 135 L 194 135.5 L 191.5 136 L 191.5 135 Z " /><path fill="rgb(157,137,118)" stroke="rgb(157,137,118)" stroke-width="1" opacity="0.6078431372549019" d="M 82.5 136 Q 89 137.5 92 142.5 L 93 145.5 L 92 145.5 L 87.5 139 L 82.5 137 L 82.5 136 Z " /><path fill="rgb(157,137,118)" stroke="rgb(157,137,118)" stroke-width="1" opacity="0.6078431372549019" d="M 195.5 136 Q 202 137.5 205 142.5 L 206 145.5 L 205 145.5 L 200.5 139 L 195.5 137 L 195.5 136 Z " /><path fill="rgb(157,137,118)" stroke="rgb(157,137,118)" stroke-width="1" opacity="0.6078431372549019" d="M 117.5 146 L 118 159.5 L 117 159.5 L 117.5 146 Z " /><path fill="rgb(157,137,118)" stroke="rgb(157,137,118)" stroke-width="1" opacity="0.6078431372549019" d="M 230.5 146 L 231 159.5 L 230 159.5 L 230.5 146 Z " /><path fill="rgb(157,137,118)" stroke="rgb(157,137,118)" stroke-width="1" opacity="0.6078431372549019" d="M 93.5 147 L 94 155.5 L 93 155.5 L 93.5 147 Z " /><path fill="rgb(157,137,118)" stroke="rgb(157,137,118)" stroke-width="1" opacity="0.6078431372549019" d="M 206.5 147 L 207 155.5 L 206 155.5 L 206.5 147 Z " /><path fill="rgb(157,137,118)" stroke="rgb(157,137,118)" stroke-width="1" opacity="0.6078431372549019" d="M 91.5 160 L 91 161.5 L 88.5 165 L 82.5 168 L 82.5 167 L 90 163 L 91.5 160 Z " /><path fill="rgb(157,137,118)" stroke="rgb(157,137,118)" stroke-width="1" opacity="0.6078431372549019" d="M 204.5 160 L 204 161.5 L 201.5 165 L 195.5 168 L 195.5 167 L 203 163 L 204.5 160 Z " /><path fill="rgb(157,137,118)" stroke="rgb(157,137,118)" stroke-width="1" opacity="0.6078431372549019" d="M 116.5 161 L 117 163.5 L 116 163.5 L 116.5 161 Z " /><path fill="rgb(157,137,118)" stroke="rgb(157,137,118)" stroke-width="1" opacity="0.6078431372549019" d="M 229.5 161 L 230 163.5 L 229 163.5 L 229.5 161 Z " /><path fill="rgb(157,137,118)" stroke="rgb(157,137,118)" stroke-width="1" opacity="0.6078431372549019" d="M 115.5 165 L 116 166.5 Q 112.4 175.9 104.5 181 L 98.5 184 L 98.5 183 Q 106.9 179.4 112 172.5 L 115.5 165 Z " /><path fill="rgb(157,137,118)" stroke="rgb(157,137,118)" stroke-width="1" opacity="0.6078431372549019" d="M 228.5 165 L 229 166.5 Q 225.4 175.9 217.5 181 L 211.5 184 L 211.5 183 Q 219.9 179.4 225 172.5 L 228.5 165 Z " /><path fill="rgb(157,137,118)" stroke="rgb(157,137,118)" stroke-width="1" opacity="0.6078431372549019" d="M 78.5 168 L 81 168.5 L 78.5 169 L 78.5 168 Z " /><path fill="rgb(157,137,118)" stroke="rgb(157,137,118)" stroke-width="1" opacity="0.6078431372549019" d="M 191.5 168 L 194 168.5 L 191.5 169 L 191.5 168 Z " /><path fill="rgb(157,137,118)" stroke="rgb(157,137,118)" stroke-width="1" opacity="0.6078431372549019" d="M 68.5 169 L 77 169.5 L 68.5 170 L 68.5 169 Z " /><path fill="rgb(157,137,118)" stroke="rgb(157,137,118)" stroke-width="1" opacity="0.6078431372549019" d="M 181.5 169 L 190 169.5 L 181.5 170 L 181.5 169 Z " /><path fill="rgb(157,137,118)" stroke="rgb(157,137,118)" stroke-width="1" opacity="0.6078431372549019" d="M 95.5 184 L 97 184.5 L 93.5 186 L 93.5 185 L 95.5 184 Z " /><path fill="rgb(157,137,118)" stroke="rgb(157,137,118)" stroke-width="1" opacity="0.6078431372549019" d="M 208.5 184 L 210 184.5 L 206.5 186 L 206.5 185 L 208.5 184 Z " /><path fill="rgb(157,137,118)" stroke="rgb(157,137,118)" stroke-width="1" opacity="0.6078431372549019" d="M 89.5 186 L 92 186.5 L 84.5 188 L 84.5 187 L 89.5 186 Z " /><path fill="rgb(157,137,118)" stroke="rgb(157,137,118)" stroke-width="1" opacity="0.6078431372549019" d="M 202.5 186 L 205 186.5 L 197.5 188 L 197.5 187 L 202.5 186 Z " /><path fill="rgb(157,137,118)" stroke="rgb(157,137,118)" stroke-width="1" opacity="0.6078431372549019" d="M 75.5 188 L 83 188.5 L 75.5 189 L 75.5 188 Z " /><path fill="rgb(157,137,118)" stroke="rgb(157,137,118)" stroke-width="1" opacity="0.6078431372549019" d="M 188.5 188 L 196 188.5 L 188.5 189 L 188.5 188 Z " /><path fill="rgb(158,138,118)" stroke="rgb(158,138,118)" stroke-width="1" opacity="0.996078431372549" d="M 26 66 L 71.5 66 L 72.5 67 L 81.5 67 L 90.5 69 L 99.5 73 L 107 80.5 Q 112.6 87.4 111 101.5 Q 108.8 112.8 101.5 119 L 94 123.5 Q 105.4 126.6 112 134.5 Q 119.3 142.7 117 160.5 Q 114.3 172.8 105.5 179 L 97.5 184 L 83.5 188 L 75.5 188 L 74.5 189 L 26 189 L 26 66 Z M 52 84 L 50 86 L 50 116 L 74 116 L 83 112 L 85 110 L 88 102 L 87 94 L 85 91 L 76 85 L 52 84 Z M 50 134 L 50 170 L 77 170 L 89 165 L 94 156 Q 95 147 92 143 Q 88 137 81 135 L 76 134 L 50 134 Z " /><path fill="rgb(158,138,118)" stroke="rgb(158,138,118)" stroke-width="1" opacity="0.996078431372549" d="M 139 66 L 184.5 66 L 185.5 67 L 194.5 67 L 203.5 69 L 212.5 73 L 220 80.5 Q 225.6 87.4 224 101.5 Q 221.8 112.8 214.5 119 L 207 123.5 Q 218.4 126.6 225 134.5 Q 232.3 142.7 230 160.5 Q 227.3 172.8 218.5 179 L 210.5 184 L 196.5 188 L 188.5 188 L 187.5 189 L 139 189 L 139 66 Z M 165 84 L 163 86 L 163 116 L 187 116 L 196 112 L 198 110 L 201 102 L 200 94 L 198 91 L 189 85 L 165 84 Z M 163 134 L 163 170 L 190 170 L 202 165 L 207 156 Q 208 147 205 143 Q 201 137 194 135 L 189 134 L 163 134 Z " /></svg>