<svg width="256" height="256" version="1.1" xmlns="http://www.w3.org/2000/svg" desc="Created with imagetracer.js version 1.2.6" ><path fill="rgb(235,125,125)" stroke="rgb(235,125,125)" stroke-width="1" opacity="0.8784313725490196" d="M 212.5 25 L 219.5 25 L 228 29.5 L 231 36.5 L 231 43.5 L 228 55.5 L 224 60.5 L 224 63.5 L 221 66.5 L 214 80 Q 211.3 78.9 212 81.5 L 208 84 L 208 86.5 L 197.5 100 Q 195.3 99.3 196 101.5 L 195 104 L 192 105.5 L 188 112 Q 185.3 110.9 186 113.5 L 143.5 157 L 132 166 Q 133.1 168.7 130.5 168 L 128 169 L 125.5 173 Q 123.3 172.3 124 174.5 L 116 180 L 116 190.5 Q 113.3 201.1 108 208 L 104 210.5 L 98.5 217 L 87.5 224 L 84.5 224 L 76.5 228 L 59.5 231 L 39.5 231 Q 38 228.5 32.5 230 L 27 226.5 Q 23.6 223.9 25 216.5 L 28 211.5 L 28 205.5 L 30 198.5 L 30 176.5 Q 32.6 173.6 32 167.5 L 38.5 156 Q 41.1 156.8 40 153.5 L 50.5 145 L 58.5 141 L 70.5 140 L 76 137.5 L 90 120 Q 92.7 121.1 92 118.5 L 96 116 L 98.5 112 Q 100.8 112.8 100 110.5 L 109.5 100 L 112 98.5 L 113.5 96 L 116 94.5 L 117.5 92 L 120 90.5 L 121.5 88 L 128 84 L 130.5 80 Q 132.8 80.8 132 78.5 Q 138.8 70.2 148 66 Q 146.9 63.3 149.5 64 L 156 58.5 L 157.5 56 Q 160.8 57.1 160 54.5 L 192.5 32 L 195.5 32 L 200.5 28 L 212.5 25 Z M 207 48 L 184 61 L 183 64 Q 179 63 180 66 L 168 75 Q 169 77 166 76 L 163 80 Q 159 79 160 82 L 135 105 L 136 107 Q 135 109 138 108 L 140 112 L 144 115 Q 143 117 146 116 L 148 120 L 151 121 L 163 108 Q 165 109 164 107 L 168 104 L 172 98 L 176 95 Q 175 91 178 92 L 195 71 L 208 50 Q 209 47 207 48 Z M 120 120 L 98 144 Q 95 143 96 146 L 104 151 L 110 159 L 112 158 Q 111 155 115 156 L 116 154 L 119 152 L 120 149 L 124 148 L 127 144 Q 129 145 128 143 L 135 137 L 130 130 L 120 120 Z M 66 160 L 61 163 Q 53 168 50 179 L 50 203 L 48 212 L 68 210 L 70 208 L 73 208 L 81 204 L 86 200 Q 89 201 88 199 L 92 196 L 96 187 L 96 177 L 92 169 L 81 160 L 66 160 Z " /><path fill="rgb(0,0,0)" stroke="rgb(0,0,0)" stroke-width="1" opacity="0" d="M 0 0 L 256 0 L 256 256 L 0 256 L 0 0 Z M 213 25 L 201 28 L 196 32 L 193 32 L 160 55 Q 161 57 158 56 L 156 59 L 150 64 Q 147 63 148 66 Q 139 70 132 79 Q 133 81 131 80 L 128 84 L 122 88 L 120 91 L 118 92 L 116 95 L 114 96 L 112 99 L 110 100 L 100 111 Q 101 113 99 112 L 96 116 L 92 119 Q 93 121 90 120 L 76 138 L 71 140 L 59 141 L 51 145 L 40 154 Q 41 157 39 156 L 32 168 Q 33 174 30 177 L 30 199 L 28 206 L 28 212 L 25 217 Q 24 224 27 227 L 33 230 Q 38 229 40 231 L 60 231 L 77 228 L 85 224 L 88 224 L 99 217 L 104 211 L 108 208 Q 113 201 116 191 L 116 180 L 124 175 Q 123 172 126 173 L 128 169 L 131 168 Q 133 169 132 166 L 144 157 L 186 114 Q 185 111 188 112 L 192 106 L 195 104 L 196 102 Q 195 99 198 100 L 208 87 L 208 84 L 212 82 Q 211 79 214 80 L 221 67 L 224 64 L 224 61 L 228 56 L 231 44 L 231 37 L 228 30 L 220 25 L 213 25 Z " /><path fill="rgb(0,0,0)" stroke="rgb(0,0,0)" stroke-width="1" opacity="0" d="M 206.5 48 Q 208.8 47.3 208 49.5 L 195 70.5 L 177.5 92 Q 174.9 91.2 176 94.5 L 172 97.5 L 168 104 L 164 106.5 Q 164.8 108.8 162.5 108 L 150.5 121 L 148 120 L 145.5 116 Q 143.3 116.8 144 114.5 L 140 112 L 137.5 108 Q 135.3 108.8 136 106.5 L 135 104.5 L 160 81.5 Q 159.2 78.9 162.5 80 L 165.5 76 Q 168.8 77.1 168 74.5 L 180 66 Q 178.8 63 182.5 64 L 184 61 L 206.5 48 Z " /><path fill="rgb(0,0,0)" stroke="rgb(0,0,0)" stroke-width="1" opacity="0" d="M 119.5 120 L 130 129.5 L 135 136.5 L 128 142.5 Q 128.8 144.8 126.5 144 L 124 148 L 120 149 L 118.5 152 L 116 153.5 L 114.5 156 Q 111.2 154.9 112 157.5 L 109.5 159 L 104 151 L 96 146 Q 94.9 143.3 97.5 144 L 119.5 120 Z " /><path fill="rgb(0,0,0)" stroke="rgb(0,0,0)" stroke-width="1" opacity="0" d="M 65.5 160 L 80.5 160 L 92 168.5 L 96 176.5 L 96 186.5 L 92 196 L 88 198.5 Q 88.8 201.1 85.5 200 L 80.5 204 L 72.5 208 L 69.5 208 L 67.5 210 L 48 212 L 50 202.5 L 50 178.5 Q 52.8 168.3 60.5 163 L 65.5 160 Z " /></svg>