<svg width="200" height="123" version="1.1" xmlns="http://www.w3.org/2000/svg" desc="Created with imagetracer.js version 1.2.6" ><path fill="rgb(0,0,0)" stroke="rgb(0,0,0)" stroke-width="1" opacity="0" d="M 0 0 L 87 0.5 L 74.5 6 L 52.5 12 L 25.5 12 L 14 9 L 13 16.5 L 8 22.5 Q 8.8 28.8 6 31.5 L 6 38.5 L 0.5 51 L 0 0 Z " /><path fill="rgb(0,0,0)" stroke="rgb(0,0,0)" stroke-width="1" opacity="0" d="M 90 0 L 200 0 L 200 98.5 L 199 98.5 Q 199.5 93.5 195.5 93 L 188.5 87 L 183 86 Q 184.1 83.3 181.5 84 L 177.5 83 L 167.5 75 L 164.5 75 L 154 70 Q 155.1 67.3 152.5 68 L 142.5 62 L 140 62 L 140 60 L 138 60 Q 139.1 57.3 136.5 58 L 130 53.5 L 128 49 L 123 45.5 L 121 42.5 L 119 39 L 113 36 L 107.5 25 Q 104.2 26.1 105 23.5 L 99.5 14 L 96 11.5 L 90 0 Z " /><path fill="rgb(0,0,0)" stroke="rgb(0,0,0)" stroke-width="1" opacity="0" d="M 0.5 62 L 1 67.5 L 9.5 81 L 14 84.5 L 16.5 88 L 18.5 89 L 54.5 89 L 58.5 90 L 66.5 93 L 78.5 103 L 86.5 105 L 95.5 111 L 114.5 116 L 120.5 119 L 133.5 120 L 140 122.5 L 0 123 L 0.5 62 Z " /><path fill="rgb(0,0,0)" stroke="rgb(0,0,0)" stroke-width="1" opacity="0" d="M 199.5 106 L 200 123 L 152 122.5 L 162.5 122 L 163.5 121 L 178.5 121 L 190.5 117 L 195 113.5 L 199.5 106 Z " /><path fill="rgb(45,201,45)" stroke="rgb(45,201,45)" stroke-width="1" opacity="0.9450980392156862" d="M 87.5 0 Q 90.8 -1.1 90 1.5 L 98.5 14 L 102 16.5 L 105 25 L 109 26.5 L 113 36 L 119 39 L 121 44 Q 123.7 42.9 123 45.5 L 128 49 L 132.5 56 L 138 58 L 140 62 L 142.5 62 L 154 68 Q 152.9 70.7 155.5 70 L 164.5 75 L 167.5 75 L 177.5 83 L 183 84 Q 181.9 86.7 184.5 86 L 188.5 87 L 199 96.5 L 200 105.5 L 192.5 116 L 178.5 121 L 163.5 121 L 162.5 122 L 152.5 122 L 151.5 123 L 140.5 123 L 133.5 120 L 120.5 119 L 114.5 116 L 95.5 111 L 86.5 105 L 78.5 103 L 66.5 93 L 58.5 90 L 54.5 89 L 18.5 89 L 14 85.5 L 10.5 81 L 7 78.5 L 7 75.5 L 1 67.5 L 0 51.5 L 6 38.5 L 6 31.5 Q 8.8 28.8 8 22.5 L 13 16.5 L 14 9 L 25.5 12 L 52.5 12 L 74.5 6 L 87.5 0 Z " /></svg>