<svg width="660" height="166" version="1.1" xmlns="http://www.w3.org/2000/svg" desc="Created with imagetracer.js version 1.2.6" ><path fill="rgb(0,0,0)" stroke="rgb(0,0,0)" stroke-width="1" opacity="0" d="M 0 0 L 9.5 0 L 10 1.5 L 3 13.5 L 0.5 41 L 0 0 Z " /><path fill="rgb(0,0,0)" stroke="rgb(0,0,0)" stroke-width="1" opacity="0" d="M 28.5 0 L 659.5 0 L 660 0.5 L 660 94 L 650.5 92 L 643.5 87 L 626.5 86 L 618.5 82 L 609.5 81 L 605.5 79 L 594.5 79 L 581.5 75 L 579.5 75 L 565.5 74 L 552.5 68 L 539.5 68 L 526.5 65 L 524.5 63 L 503.5 62 L 487.5 56 L 461.5 55 Q 460 52.5 454.5 54 L 452 51.5 L 451.5 50 L 443.5 50 L 442.5 49 L 414.5 49 L 406.5 45 L 386.5 45 L 384.5 45 L 379.5 45 L 374.5 41 L 325.5 40 L 322.5 41 L 321.5 40 L 282.5 39 L 272.5 41 L 262.5 39 L 259.5 40 L 256.5 39 Q 251.1 42.6 240.5 41 Q 239 38.5 233.5 40 L 232.5 41 L 221.5 42 L 220.5 41 L 211.5 41 L 206.5 44 L 201.5 44 L 200.5 43 L 192.5 43 L 191.5 44 L 164.5 44 L 163.5 45 Q 162.2 42.7 157.5 44 L 155.5 45 L 146.5 41 L 122.5 40 L 121 38.5 Q 121.8 36.3 119.5 37 L 102 26.5 Q 103.3 22.8 99.5 24 L 87.5 21 L 84 17.5 Q 84.6 14.8 78.5 16 Q 77 13.5 71.5 15 L 67 12.5 L 64.5 9 L 43.5 6 L 37.5 2 L 28.5 1 L 28.5 0 Z " /><path fill="rgb(0,0,0)" stroke="rgb(0,0,0)" stroke-width="1" opacity="0" d="M 0.5 55 L 14 95.5 L 27 112 Q 29.7 110.9 29 113.5 L 42 130 Q 44.7 128.9 44 131.5 L 58.5 148 L 85 165.5 L 0 166 L 0.5 55 Z " /><path fill="rgb(0,0,0)" stroke="rgb(0,0,0)" stroke-width="1" opacity="0" d="M 659.5 97 L 660 166 L 88 165.5 L 94 164 Q 92.9 161.3 95.5 162 L 102.5 158 L 109.5 158 L 124.5 155 L 127.5 153 L 142.5 153 L 153.5 151 L 185.5 150 Q 186.8 152.3 191.5 151 L 192.5 150 L 208.5 149 L 209.5 150 L 223.5 150 L 224.5 149 L 247.5 149 L 250.5 147 L 267.5 147 L 274.5 144 L 301.5 143 L 303.5 141 L 318.5 140 L 322.5 137 L 348.5 137 L 369.5 144 L 393.5 144 Q 399 149 411.5 147 L 412.5 146 L 439.5 146 L 440.5 145 L 451.5 145 L 452.5 144 L 462.5 144 L 463.5 143 L 479.5 143 L 481.5 141 L 482.5 142 L 497.5 142 Q 500.8 135.8 512.5 138 L 517.5 139 L 521.5 137 L 551.5 136 Q 554.8 133.3 561.5 134 L 562.5 135 L 571.5 135 L 580.5 137 L 600.5 138 L 609.5 141 L 625.5 142 L 639 145 L 639 128.5 L 641 120.5 Q 645.8 108.8 654.5 101 L 659.5 97 Z " /><path fill="rgb(45,201,45)" stroke="rgb(45,201,45)" stroke-width="1" opacity="0.9686274509803922" d="M 10 0 L 27.5 0 Q 30.8 2.7 37.5 2 L 43.5 6 L 64.5 9 L 67 11.5 L 68.5 14 L 84 16 L 87.5 21 L 102 24 L 103.5 28 L 121 37 L 122.5 40 L 146.5 41 L 156.5 45 Q 157.8 42.7 162.5 44 L 164.5 44 L 191.5 44 L 192.5 43 L 200.5 43 Q 201.8 45.3 206.5 44 Q 210.3 39.3 220.5 41 Q 221.8 43.3 226.5 42 L 233.5 40 L 239.5 40 L 240.5 41 L 251.5 41 L 258.5 39 L 261.5 40 L 264.5 39 L 275.5 41 L 282.5 39 L 292.5 39 L 293.5 40 L 321.5 40 L 324.5 41 L 325.5 40 L 351.5 40 L 352.5 41 L 374.5 41 L 379.5 45 Q 384.2 43.8 385.5 46 L 386.5 45 L 406.5 45 L 414.5 49 L 442.5 49 L 443.5 50 L 452 50 L 454.5 54 L 472.5 55 L 473.5 56 L 487.5 56 L 503.5 62 L 524.5 63 L 526.5 65 L 539.5 68 L 552.5 68 L 565.5 74 L 579.5 75 L 580.5 76 L 583.5 75 L 589.5 78 L 605.5 79 L 609.5 81 L 618.5 82 L 626.5 86 L 643.5 87 L 650.5 92 L 660 94 L 660 96.5 L 655.5 101 L 652 103.5 Q 644 111.5 640 123.5 L 639 145 L 625.5 142 L 609.5 141 L 600.5 138 L 580.5 137 L 579.5 136 L 556.5 134 L 551.5 136 L 521.5 137 Q 519.2 139.7 513.5 139 L 512.5 138 L 502.5 138 L 497.5 142 L 482.5 142 Q 481 139.5 479.5 143 L 463.5 143 L 462.5 144 L 440.5 145 L 439.5 146 L 399.5 147 L 393.5 144 L 369.5 144 L 348.5 137 L 322.5 137 L 318.5 140 L 303.5 141 L 301.5 143 L 274.5 144 L 267.5 147 L 250.5 147 L 247.5 149 L 209.5 150 Q 208 147.5 202.5 149 L 201.5 150 L 186.5 151 L 185.5 150 L 177.5 150 L 176.5 151 L 153.5 151 L 142.5 153 L 127.5 153 L 124.5 155 L 109.5 158 L 102.5 158 Q 99.4 161.7 94 162 Q 95.3 165 91.5 164 L 85.5 166 L 58.5 148 L 53 142.5 L 44 130 Q 41.3 131.1 42 128.5 Q 33.4 121.6 29 112 Q 26.3 113.1 27 110.5 L 14 95.5 L 0 54.5 L 0 41.5 L 1 40.5 L 3 13.5 L 9 4.5 L 10 0 Z " /></svg>