<svg width="248" height="961" version="1.1" xmlns="http://www.w3.org/2000/svg" desc="Created with imagetracer.js version 1.2.6" ><path fill="rgb(0,0,0)" stroke="rgb(0,0,0)" stroke-width="1" opacity="0" d="M 0 0 L 58.5 0 L 59 2.5 L 57 7.5 Q 58.2 19 55 25 Q 51.3 23.5 52 26.5 L 49 38.5 L 48 51.5 L 42 63.5 L 42 74.5 L 39 84.5 L 39 90.5 L 34 105.5 L 31 144.5 Q 28.5 146 30 151.5 L 28.5 153 L 28 150 Q 23.1 148.4 25 154 L 28 154.5 L 26 158.5 L 25 252.5 L 26 253.5 L 26 284.5 L 29 288.5 Q 28.1 296.9 31 301.5 L 31 320.5 L 32 321.5 L 33 357.5 L 34 358.5 L 34 392.5 L 35 393.5 L 35 403.5 L 34 404.5 L 34 425.5 L 33 426.5 L 32 445.5 L 31 446.5 L 31 465.5 L 26 473.5 Q 23.3 481.8 25 494.5 L 21 503 Q 18.3 501.9 19 504.5 L 17 509.5 L 16 523.5 L 12.5 531 L 10 532.5 L 11 537.5 L 10 538.5 L 9 551.5 L 5 562.5 L 4 572.5 L 1 579.5 L 0.5 593 L 0 0 Z " /><path fill="rgb(0,0,0)" stroke="rgb(0,0,0)" stroke-width="1" opacity="0" d="M 66.5 0 L 248 0 L 248 117.5 L 246 116.5 L 231 92.5 L 204.5 66 Q 183.1 45.4 156.5 30 L 105.5 10 L 87.5 4 L 66.5 1 L 66.5 0 Z " /><path fill="rgb(0,0,0)" stroke="rgb(0,0,0)" stroke-width="1" opacity="0" d="M 247.5 121 L 248 961 L 73 960.5 L 80.5 959 L 82 957.5 L 82 871.5 L 85 859.5 L 85 853.5 L 87 850.5 L 90 797.5 L 93 794.5 L 93 787.5 L 96 782.5 L 98 750.5 L 99 745.5 L 103 740.5 L 106 712.5 L 111 705.5 L 113 696.5 L 113 685.5 L 115 681 Q 118.7 682.4 117 676.5 L 120 673.5 L 121 654.5 L 122 653.5 L 124 629 Q 126.7 630.1 126 627.5 L 127 626.5 L 127 604.5 L 128 603.5 L 128 572.5 L 127 571.5 L 127 543 L 123 541.5 L 123 519.5 L 127 513.5 L 129 503.5 L 132.5 500 Q 134.8 500.8 134 498.5 L 136 494.5 L 137 485.5 L 140 481 L 143 479.5 Q 143.4 470.4 147.5 465 Q 152.1 466.4 150 460.5 L 155 443.5 L 156.5 442 L 159 440.5 L 161 422.5 L 163 415 L 167 412.5 L 169 388.5 L 174 382.5 L 174 374.5 L 177 365.5 L 177 353 L 182 349.5 L 184 342.5 L 185 325.5 L 188.5 320 Q 190.8 320.8 190 318.5 L 193 307.5 L 193 300.5 L 195.5 295 L 199 294 Q 201.3 288.4 200 277.5 L 202.5 273 Q 205.1 273.8 204 270.5 L 207 267.5 L 209 249.5 L 211.5 245 L 214 243.5 L 214 237.5 L 217 226.5 L 217 216.5 L 218.5 215 L 223 211.5 L 224 209.5 L 224 198.5 L 227 185.5 L 228.5 184 Q 231.9 184.9 230 179.5 L 233 170.5 L 234 154.5 L 240 144.5 L 240 131.5 L 247.5 121 Z " /><path fill="rgb(0,0,0)" stroke="rgb(0,0,0)" stroke-width="1" opacity="0" d="M 0.5 666 L 3 702.5 L 7 710.5 L 8 742.5 L 9 743.5 L 9 764.5 Q 11.7 766.2 10 772.5 L 14 777.5 L 15 822.5 L 16 823.5 L 16 839.5 L 18 846.5 L 18 886.5 L 17 887.5 L 16 920.5 L 9 932.5 L 9 943.5 Q 6.2 945.5 7 950 L 25.5 957 L 41 960.5 L 0 961 L 0.5 666 Z " /><path fill="rgb(128,128,128)" stroke="rgb(128,128,128)" stroke-width="1" opacity="0.9764705882352941" d="M 59 0 L 87.5 4 L 122.5 16 L 160.5 32 L 187.5 51 L 231 92.5 L 248 118.5 L 248 120.5 L 240 131.5 L 240 144.5 L 234 154.5 L 233 170.5 L 230 179.5 L 230 184 L 227 185.5 L 224 198.5 L 224 209.5 L 219.5 215 L 217 216.5 L 217 226.5 L 214 237.5 L 214 243.5 L 212.5 245 L 210 246.5 L 207 261.5 L 207 267.5 Q 203.3 268.8 204 273 L 201 274.5 Q 198.4 280.4 200 290.5 L 199 294 L 194 296.5 L 193 307.5 L 190 320 L 186 322.5 L 184 342.5 L 182 349.5 L 178.5 353 L 177 353.5 L 177 365.5 L 174 374.5 L 174 382.5 L 169 388.5 L 167 412.5 L 164.5 415 Q 162.3 414.3 163 416.5 L 161 422.5 L 159 440.5 L 157.5 442 L 155 443.5 L 150 460.5 L 150 465 L 146 466.5 L 144 476.5 L 141.5 481 Q 139.3 480.3 140 482.5 L 137 485.5 L 136 494.5 L 134 500 L 129 503.5 L 127 513.5 L 123 519.5 L 123 541.5 L 127 543 L 128 603.5 L 127 604.5 L 127 626.5 L 126 629 Q 122 627.6 124 634.5 L 123 635.5 L 123 644.5 L 121 654.5 L 120 673.5 Q 115.8 675 117 681 Q 114.3 679.9 115 682.5 L 113 685.5 L 113 696.5 L 111 705.5 L 106 712.5 L 103 740.5 L 100 743.5 L 98 750.5 L 96 782.5 L 93 787.5 L 93 794.5 L 90 797.5 L 87 850.5 L 85 853.5 L 85 859.5 L 82 871.5 L 82 957.5 L 80.5 959 L 72.5 961 L 41.5 961 L 25.5 957 L 7 950 Q 6.2 945.5 9 943.5 L 9 932.5 L 16 920.5 L 16 912.5 L 17 911.5 L 18 846.5 L 16 839.5 L 16 823.5 L 15 822.5 L 14 777.5 L 10 772.5 Q 11.7 766.2 9 764.5 L 9 743.5 L 8 742.5 L 7 710.5 L 3 702.5 Q 4.5 697 2 695.5 L 2 679.5 L 1 678.5 L 1 666.5 L 0 665.5 L 0 593.5 L 1 592.5 L 1 579.5 L 4 572.5 L 5 562.5 L 9 551.5 L 11 535.5 L 10 532.5 L 14 529.5 L 17 518.5 L 17 509.5 L 19 503 Q 21.7 504.1 21 501.5 L 25 494.5 Q 23.3 481.8 26 473.5 L 31 465.5 L 31 446.5 L 32 445.5 L 32 434.5 L 34 425.5 L 35 393.5 L 34 392.5 L 34 358.5 L 33 357.5 L 33 336.5 L 32 335.5 L 32 321.5 L 31 320.5 L 31 301.5 Q 28.1 296.9 29 288.5 L 26 284.5 L 25 193.5 L 26 192.5 L 26 158.5 L 28 154.5 L 25 154 Q 23.1 148.4 28 150 L 28.5 153 L 30 151.5 Q 28.5 146 31 144.5 L 34 105.5 L 39 90.5 L 39 84.5 L 42 74.5 L 42 63.5 L 48 51.5 L 49 38.5 L 52 25 Q 55.8 26.5 55 23.5 L 57 18.5 L 57 7.5 L 59 0 Z " /></svg>