<svg width="201" height="137" version="1.1" xmlns="http://www.w3.org/2000/svg" desc="Created with imagetracer.js version 1.2.6" ><path fill="rgb(0,0,0)" stroke="rgb(0,0,0)" stroke-width="1" opacity="0" d="M 0 0 L 21 0.5 L 13 7.5 L 3 22.5 L 0.5 33 L 0 0 Z " /><path fill="rgb(0,0,0)" stroke="rgb(0,0,0)" stroke-width="1" opacity="0" d="M 25.5 0 L 201 0 L 201 91.5 L 200 91.5 L 195 76.5 L 191 70.5 L 190 64 Q 187 65.3 188 61.5 L 186 59.5 Q 185.4 49.6 181 43.5 L 176.5 39 L 166 35 Q 167.3 31.7 162.5 33 L 153 25.5 Q 153.5 20.5 149.5 20 L 143.5 19 L 132.5 12 L 103.5 12 L 89.5 7 L 76.5 5 L 75.5 6 L 56.5 6 Q 50.7 1.8 39.5 3 L 37.5 4 L 33.5 2 L 25.5 1 L 25.5 0 Z " /><path fill="rgb(0,0,0)" stroke="rgb(0,0,0)" stroke-width="1" opacity="0" d="M 0.5 51 L 4 52 L 5 55.5 L 4 59 L 9.5 58 L 22 69.5 Q 21.3 72.1 24 71 L 24 73 L 25.5 73 L 31 77.5 L 34.5 82 L 49 93.5 L 50.5 96 L 56 99.5 L 57.5 102 L 61 104.5 Q 60.1 107.5 64.5 106 L 69 112 Q 77.9 112.2 81 119.5 L 82.5 122 L 84.5 122 L 90.5 128 L 97 130 L 97 133 Q 100 132 99 135 L 101.5 135 Q 103 132.5 104.5 136 L 106 136.5 L 0 137 L 0.5 51 Z " /><path fill="rgb(0,0,0)" stroke="rgb(0,0,0)" stroke-width="1" opacity="0" d="M 158.5 68 L 161 69.5 L 162 78.5 L 159 84.5 L 159 90.5 Q 161.3 95.7 168.5 96 L 176 90 L 178 102.5 L 181.5 106 L 186.5 106 L 193 104 Q 191.9 101.3 194.5 102 L 201 98 L 201 137 L 116.5 137 L 116.5 136 L 120 133.5 Q 122.6 130.6 122 124.5 L 119 120 L 115 117.5 L 105.5 107 L 103 105.5 Q 103.7 102.5 100 104 L 100 101 L 97.5 101 L 92 94 Q 89.3 95.1 90 92.5 L 89 89 Q 85.2 89.8 84 86.5 L 83 79.5 L 87.5 76 L 99.5 73 L 105.5 73 Q 107.3 75.8 113.5 74 L 117.5 72 L 131.5 72 L 140.5 70 L 148.5 72 L 153.5 71 L 158.5 68 Z " /><path fill="rgb(123,152,179)" stroke="rgb(123,152,179)" stroke-width="1" opacity="0.9333333333333333" d="M 21.5 0 L 38.5 4 L 39.5 3 L 48.5 3 L 56.5 6 L 75.5 6 L 78.5 5 L 89.5 7 L 103.5 12 L 132.5 12 L 143.5 19 L 149.5 20 L 153 23.5 Q 152.5 28.5 156.5 29 L 162.5 33 L 166 33 Q 164.9 35.7 167.5 35 L 169.5 37 L 176.5 39 L 181 43.5 L 188 64 Q 191 62.8 190 66.5 L 201 92.5 L 201 98 L 193 102 Q 194.1 104.7 191.5 104 Q 188.2 106.7 181.5 106 L 178 102.5 L 176 90 L 168.5 96 L 165.5 96 L 159 90.5 L 159 84.5 L 162 78.5 L 162 71.5 L 159.5 68 L 153.5 71 L 146.5 72 L 138.5 70 L 131.5 72 L 117.5 72 Q 114.2 75.2 106.5 74 Q 105 71.5 99.5 73 L 87.5 76 L 83 79.5 Q 82.3 86.7 86.5 89 Q 90.3 87.8 89 91.5 L 90 94 Q 92.7 92.9 92 95.5 L 97.5 101 L 100 101 L 100 104 Q 103.7 102.5 103 105.5 L 115 116.5 L 117.5 120 Q 119.8 119.3 119 121.5 Q 123 122.5 122 128.5 L 117.5 136 Q 114 138.5 106.5 137 L 102.5 134 L 99 135 Q 100 132 97 133 L 97 130 L 95.5 130 L 90.5 128 L 81 120.5 L 74.5 113 L 69 112 L 64.5 106 Q 60.1 107.5 61 104.5 L 56 100.5 L 54.5 98 L 49 94.5 L 46.5 91 L 43.5 90 L 31 78.5 L 27.5 74 L 24 73 L 24 71 Q 21.3 72.1 22 69.5 L 11.5 59 L 7.5 58 L 4 59 L 5 54.5 L 4 52 L 0 50.5 L 0 33.5 Q 2.3 32.2 1 27.5 L 6 16.5 L 14.5 6 L 21.5 0 Z " /></svg>