<svg width="248" height="961" version="1.1" xmlns="http://www.w3.org/2000/svg" desc="Created with imagetracer.js version 1.2.6" ><path fill="rgb(123,152,179)" stroke="rgb(123,152,179)" stroke-width="1" opacity="0.9764705882352941" d="M 183.5 0 L 189 0 L 189 2.5 L 191 7.5 Q 189.8 19 193 25 Q 196.8 23.5 196 26.5 L 199 38.5 L 200 51.5 L 206 63.5 L 206 74.5 L 209 84.5 L 209 90.5 L 214 105.5 L 217 144.5 Q 219.5 146 218 151.5 L 219.5 153 L 220 150 Q 224.9 148.4 223 154 L 220 154.5 L 222 158.5 L 223 252.5 L 222 253.5 L 222 284.5 L 219 288.5 Q 219.9 296.9 217 301.5 L 217 320.5 L 216 321.5 L 215 357.5 L 214 358.5 L 214 392.5 L 213 393.5 L 213 403.5 L 214 404.5 L 214 425.5 L 215 426.5 L 216 445.5 L 217 446.5 L 217 465.5 L 222 473.5 Q 224.7 481.8 223 494.5 L 227 503 Q 229.7 501.9 229 504.5 L 231 509.5 L 232 523.5 L 235.5 531 L 238 532.5 L 237 537.5 L 238 538.5 L 239 551.5 L 243 562.5 L 244 572.5 L 247 579.5 L 247 592.5 L 248 593.5 L 248 665.5 L 247 666.5 L 245 702.5 L 241 710.5 L 240 742.5 L 239 743.5 L 239 764.5 Q 236.2 766.2 238 772.5 L 234 777.5 L 233 822.5 L 232 823.5 L 232 839.5 L 230 846.5 L 230 886.5 L 231 887.5 L 232 920.5 L 239 932.5 L 239 943.5 Q 241.8 945.5 241 950 L 222.5 957 L 206.5 961 L 175.5 961 L 166 957.5 L 166 871.5 L 163 859.5 L 163 853.5 L 161 850.5 L 158 797.5 L 155 794.5 L 155 787.5 L 152 782.5 L 150 750.5 L 149 745.5 L 145 740.5 L 142 712.5 L 137 705.5 L 135 696.5 L 135 685.5 L 133 681 Q 129.3 682.4 131 676.5 L 128 673.5 L 127 654.5 L 126 653.5 L 124 629 Q 121.3 630.1 122 627.5 L 121 626.5 L 121 604.5 L 120 603.5 L 120 572.5 L 121 571.5 L 121 543 L 125 541.5 L 125 519.5 L 121 513.5 L 119 503.5 L 115.5 500 Q 113.3 500.8 114 498.5 L 112 494.5 L 111 485.5 L 108 481 L 105 479.5 Q 104.6 470.4 100.5 465 Q 95.9 466.4 98 460.5 L 93 443.5 L 91.5 442 L 89 440.5 L 87 422.5 L 85 415 L 81 412.5 L 79 388.5 L 74 382.5 L 74 374.5 L 71 365.5 L 71 353 L 66 349.5 L 64 342.5 L 63 325.5 L 59.5 320 Q 57.3 320.8 58 318.5 L 55 307.5 L 55 300.5 L 52.5 295 L 49 294 Q 46.7 288.4 48 277.5 L 45.5 273 Q 42.9 273.8 44 270.5 L 41 267.5 L 39 249.5 L 36.5 245 L 34 243.5 L 34 237.5 L 31 226.5 L 31 216.5 L 29.5 215 L 25 211.5 L 24 209.5 L 24 198.5 L 21 185.5 L 19.5 184 Q 16.1 184.9 18 179.5 L 15 170.5 L 14 154.5 L 8 144.5 L 8 131.5 Q 6.5 125 1 122.5 L 0 118.5 L 17 92.5 L 41.5 68 Q 63.7 46.2 91.5 30 L 125.5 16 L 160.5 4 L 165.5 4 L 183.5 0 Z " /><path fill="rgb(0,0,0)" stroke="rgb(0,0,0)" stroke-width="1" opacity="0" d="M 0 0 L 183 0.5 L 160.5 4 L 125.5 16 L 87.5 32 L 59.5 52 L 17 92.5 L 0.5 118 L 0 0 Z " /><path fill="rgb(0,0,0)" stroke="rgb(0,0,0)" stroke-width="1" opacity="0" d="M 189 0 L 247.5 0 L 248 0.5 L 248 592.5 L 247 592.5 L 247 579.5 L 244 572.5 L 243 562.5 L 239 551.5 L 237 535.5 L 238 532.5 L 234 529.5 L 231 518.5 L 231 509.5 L 229 503 Q 226.3 504.1 227 501.5 L 223 494.5 Q 224.7 481.8 222 473.5 L 217 465.5 L 217 446.5 L 216 445.5 L 216 434.5 L 214 425.5 L 213 393.5 L 214 392.5 L 214 358.5 L 215 357.5 L 215 336.5 L 216 335.5 L 216 321.5 L 217 320.5 L 217 301.5 Q 219.9 296.9 219 288.5 L 222 284.5 L 223 193.5 L 222 192.5 L 222 158.5 L 220 154.5 L 223 154 Q 224.9 148.4 220 150 L 219.5 153 L 218 151.5 Q 219.5 146 217 144.5 L 214 105.5 L 209 90.5 L 209 84.5 L 206 74.5 L 206 63.5 L 200 51.5 L 199 38.5 L 196 25 Q 192.2 26.5 193 23.5 L 191 18.5 L 191 7.5 L 189 0 Z " /><path fill="rgb(0,0,0)" stroke="rgb(0,0,0)" stroke-width="1" opacity="0" d="M 0.5 121 L 8 131.5 L 8 144.5 L 14 154.5 L 15 170.5 L 18 179.5 L 18 184 L 21 185.5 L 24 198.5 L 24 209.5 L 28.5 215 L 31 216.5 L 31 226.5 L 34 237.5 L 34 243.5 L 35.5 245 L 38 246.5 L 41 261.5 L 41 267.5 Q 44.8 268.8 44 273 L 47 274.5 Q 49.6 280.4 48 290.5 L 49 294 L 54 296.5 L 55 307.5 L 58 320 L 62 322.5 L 64 342.5 L 66 349.5 L 69.5 353 L 71 353.5 L 71 365.5 L 74 374.5 L 74 382.5 L 79 388.5 L 81 412.5 L 83.5 415 Q 85.8 414.3 85 416.5 L 87 422.5 L 89 440.5 L 90.5 442 L 93 443.5 L 98 460.5 L 98 465 L 102 466.5 L 104 476.5 L 106.5 481 Q 108.8 480.3 108 482.5 L 111 485.5 L 112 494.5 L 114 500 L 119 503.5 L 121 513.5 L 125 519.5 L 125 541.5 L 121 543 L 120 603.5 L 121 604.5 L 121 626.5 L 122 629 Q 126 627.6 124 634.5 L 125 635.5 L 125 644.5 L 127 654.5 L 128 673.5 Q 132.2 675 131 681 Q 133.7 679.9 133 682.5 L 135 685.5 L 135 696.5 L 137 705.5 L 142 712.5 L 145 740.5 L 148 743.5 L 150 750.5 L 152 782.5 L 155 787.5 L 155 794.5 L 158 797.5 L 161 850.5 L 163 853.5 L 163 859.5 L 166 871.5 L 166 957.5 L 167.5 959 L 175 960.5 L 0 961 L 0.5 121 Z " /><path fill="rgb(0,0,0)" stroke="rgb(0,0,0)" stroke-width="1" opacity="0" d="M 247.5 666 L 248 961 L 207 960.5 L 222.5 957 L 241 950 Q 241.8 945.5 239 943.5 L 239 932.5 L 232 920.5 L 232 912.5 L 231 911.5 L 230 846.5 L 232 839.5 L 232 823.5 L 233 822.5 L 234 777.5 L 238 772.5 Q 236.2 766.2 239 764.5 L 239 743.5 L 240 742.5 L 241 710.5 L 245 702.5 L 247.5 666 Z " /></svg>