<svg width="660" height="166" version="1.1" xmlns="http://www.w3.org/2000/svg" desc="Created with imagetracer.js version 1.2.6" ><path fill="rgb(0,0,0)" stroke="rgb(0,0,0)" stroke-width="1" opacity="0" d="M 0 0 L 632 0.5 L 622.5 2 L 612.5 7 L 595.5 9 L 593 11.5 L 591.5 14 L 576 16 L 572.5 21 L 558 24 L 556.5 28 L 539 37 L 537.5 40 L 513.5 41 L 503.5 45 Q 502.3 42.7 497.5 44 L 495.5 44 L 468.5 44 L 467.5 43 L 459.5 43 Q 458.2 45.3 453.5 44 Q 449.7 39.3 439.5 41 Q 438.3 43.3 433.5 42 L 426.5 40 L 420.5 40 L 419.5 41 L 408.5 41 L 401.5 39 L 398.5 40 L 395.5 39 L 384.5 41 L 377.5 39 L 367.5 39 L 366.5 40 L 338.5 40 L 335.5 41 L 334.5 40 L 308.5 40 L 307.5 41 L 285.5 41 L 280.5 45 Q 275.7 43.8 274.5 46 L 273.5 45 L 253.5 45 L 245.5 49 L 217.5 49 L 216.5 50 L 208 50 L 205.5 54 L 187.5 55 L 186.5 56 L 172.5 56 L 156.5 62 L 135.5 63 L 133.5 65 L 120.5 68 L 107.5 68 L 94.5 74 L 80.5 75 L 79.5 76 L 76.5 75 L 70.5 78 L 54.5 79 L 50.5 81 L 41.5 82 L 33.5 86 L 16.5 87 L 9.5 92 L 0 94 L 0 0 Z " /><path fill="rgb(0,0,0)" stroke="rgb(0,0,0)" stroke-width="1" opacity="0" d="M 650 0 L 659.5 0 L 660 0.5 L 660 39.5 L 659 39.5 L 658 17.5 L 650 0 Z " /><path fill="rgb(0,0,0)" stroke="rgb(0,0,0)" stroke-width="1" opacity="0" d="M 659.5 55 L 660 166 L 575 165.5 L 604 147 L 646 95.5 L 659.5 55 Z " /><path fill="rgb(0,0,0)" stroke="rgb(0,0,0)" stroke-width="1" opacity="0" d="M 0.5 97 L 8 103.5 Q 16 111.5 20 123.5 L 21 145 L 34.5 142 L 50.5 141 L 59.5 138 L 79.5 137 L 80.5 136 L 103.5 134 L 108.5 136 L 138.5 137 Q 140.8 139.7 146.5 139 L 147.5 138 L 157.5 138 L 162.5 142 L 177.5 142 Q 179 139.5 180.5 143 L 196.5 143 L 197.5 144 L 219.5 145 L 220.5 146 L 260.5 147 L 266.5 144 L 290.5 144 L 311.5 137 L 337.5 137 L 341.5 140 L 356.5 141 L 358.5 143 L 385.5 144 L 392.5 147 L 409.5 147 L 412.5 149 L 450.5 150 Q 452 147.5 457.5 149 L 458.5 150 L 473.5 151 L 474.5 150 L 482.5 150 L 483.5 151 L 506.5 151 L 517.5 153 L 532.5 153 L 535.5 155 L 550.5 158 L 557.5 158 Q 560.6 161.7 566 162 Q 564.8 165 568.5 164 L 572 165.5 L 0 166 L 0.5 97 Z " /><path fill="rgb(128,128,128)" stroke="rgb(128,128,128)" stroke-width="1" opacity="0.9686274509803922" d="M 632.5 0 L 649.5 0 L 650 1.5 L 658 17.5 L 658 28.5 L 659 29.5 L 659 39.5 L 660 40.5 L 660 54.5 L 646 95.5 L 604 147 L 576.5 165 L 572.5 166 L 566 164 Q 567.1 161.3 564.5 162 L 557.5 158 L 550.5 158 L 535.5 155 L 532.5 153 L 517.5 153 L 506.5 151 L 474.5 150 Q 473.3 152.3 468.5 151 L 467.5 150 L 451.5 149 L 450.5 150 L 436.5 150 L 435.5 149 L 412.5 149 L 409.5 147 L 392.5 147 L 385.5 144 L 358.5 143 L 356.5 141 L 341.5 140 L 337.5 137 L 311.5 137 L 290.5 144 L 266.5 144 Q 261 149 248.5 147 L 247.5 146 L 220.5 146 L 219.5 145 L 208.5 145 L 207.5 144 L 197.5 144 L 196.5 143 L 180.5 143 L 178.5 141 L 177.5 142 L 162.5 142 Q 159.2 135.8 147.5 138 L 142.5 139 L 138.5 137 L 108.5 136 Q 105.2 133.3 98.5 134 L 97.5 135 L 88.5 135 L 79.5 137 L 59.5 138 L 50.5 141 L 34.5 142 L 21 145 L 21 128.5 L 19 120.5 Q 14.2 108.8 5.5 101 L 0 96.5 Q -1.1 93.2 1.5 94 L 9.5 92 L 16.5 87 L 33.5 86 L 41.5 82 L 50.5 81 L 54.5 79 L 65.5 79 L 78.5 75 L 80.5 75 L 94.5 74 L 107.5 68 L 120.5 68 L 133.5 65 L 135.5 63 L 156.5 62 L 172.5 56 L 198.5 55 Q 200 52.5 205.5 54 L 208 51.5 L 208.5 50 L 216.5 50 L 217.5 49 L 245.5 49 L 253.5 45 L 273.5 45 L 275.5 45 L 280.5 45 L 285.5 41 L 334.5 40 L 337.5 41 L 338.5 40 L 377.5 39 L 387.5 41 L 397.5 39 L 400.5 40 L 403.5 39 Q 408.9 42.6 419.5 41 Q 421 38.5 426.5 40 L 427.5 41 L 438.5 42 L 439.5 41 L 448.5 41 L 453.5 44 L 458.5 44 L 459.5 43 L 467.5 43 L 468.5 44 L 495.5 44 L 496.5 45 Q 497.7 42.7 502.5 44 L 504.5 45 L 513.5 41 L 537.5 40 L 539 38.5 Q 538.3 36.3 540.5 37 L 558 26.5 Q 556.8 22.8 560.5 24 L 572.5 21 L 576 17.5 Q 575.4 14.8 581.5 16 Q 583 13.5 588.5 15 L 593 12.5 L 595.5 9 L 612.5 7 L 622.5 2 Q 629.2 2.7 632.5 0 Z " /></svg>