<svg width="201" height="137" version="1.1" xmlns="http://www.w3.org/2000/svg" desc="Created with imagetracer.js version 1.2.6" ><path fill="rgb(0,0,0)" stroke="rgb(0,0,0)" stroke-width="1" opacity="0" d="M 0 0 L 176 0.5 L 162.5 4 L 161.5 3 L 152.5 3 L 144.5 6 L 125.5 6 L 122.5 5 L 111.5 7 L 97.5 12 L 68.5 12 L 57.5 19 L 51.5 20 L 48 23.5 Q 48.5 28.5 44.5 29 L 38.5 33 L 35 33 Q 36.1 35.7 33.5 35 L 31.5 37 L 24.5 39 L 20 43.5 L 13 64 Q 10 62.8 11 66.5 L 0.5 92 L 0 0 Z " /><path fill="rgb(0,0,0)" stroke="rgb(0,0,0)" stroke-width="1" opacity="0" d="M 179.5 0 L 201 0 L 201 32.5 L 200 32.5 L 200 27.5 L 196 18.5 L 180.5 1 L 179.5 0 Z " /><path fill="rgb(0,0,0)" stroke="rgb(0,0,0)" stroke-width="1" opacity="0" d="M 200.5 51 L 201 137 L 95 136.5 L 98.5 134 L 102 135 Q 101 132 104 133 L 104 130 L 105.5 130 L 110.5 128 L 120 120.5 L 126.5 113 L 132 112 L 136.5 106 Q 140.9 107.5 140 104.5 L 145 100.5 L 146.5 98 L 152 94.5 L 154.5 91 L 157.5 90 L 170 78.5 L 173.5 74 L 177 73 L 177 71 Q 179.7 72.1 179 69.5 L 189.5 59 L 193.5 58 L 197 59 L 196 54.5 L 197 52 L 200.5 51 Z " /><path fill="rgb(0,0,0)" stroke="rgb(0,0,0)" stroke-width="1" opacity="0" d="M 41.5 68 L 47.5 71 L 54.5 72 L 62.5 70 L 69.5 72 L 83.5 72 Q 86.8 75.2 94.5 74 Q 96 71.5 101.5 73 L 113.5 76 L 118 79.5 Q 118.7 86.7 114.5 89 Q 110.8 87.8 112 91.5 L 111 94 Q 108.3 92.9 109 95.5 L 103.5 101 L 101 101 L 101 104 Q 97.3 102.5 98 105.5 L 86 116.5 L 83.5 120 Q 81.3 119.3 82 121.5 Q 78 122.5 79 128.5 L 83.5 136 L 85 136.5 L 0 137 L 0 98.5 L 1.5 98 L 8 102 Q 6.9 104.7 9.5 104 Q 12.8 106.7 19.5 106 L 23 102.5 L 25 90 L 32.5 96 L 35.5 96 L 42 90.5 L 42 84.5 L 39 78.5 L 39 71.5 L 41.5 68 Z " /><path fill="rgb(45,201,45)" stroke="rgb(45,201,45)" stroke-width="1" opacity="0.9333333333333333" d="M 176.5 0 L 180.5 1 L 190 10.5 L 196 18.5 L 200 27.5 Q 198.8 32.2 201 33.5 L 201 50.5 L 197 52 L 196 55.5 L 197 59 L 191.5 58 L 179 69.5 Q 179.7 72.1 177 71 L 177 73 L 175.5 73 L 170 77.5 L 166.5 82 L 152 93.5 L 150.5 96 L 145 99.5 L 143.5 102 L 140 104.5 Q 140.9 107.5 136.5 106 L 132 112 Q 123.1 112.2 120 119.5 L 118.5 122 L 116.5 122 L 110.5 128 L 104 130 L 104 133 Q 101 132 102 135 L 99.5 135 Q 98 132.5 96.5 136 Q 93 138.5 85.5 137 L 81 133.5 Q 78.4 130.6 79 124.5 L 82 120 L 86 117.5 L 95.5 107 L 98 105.5 Q 97.2 102.5 101 104 L 101 101 L 103.5 101 L 109 94 Q 111.7 95.1 111 92.5 L 112 89 Q 115.8 89.8 117 86.5 L 118 79.5 L 113.5 76 L 101.5 73 L 95.5 73 Q 93.8 75.8 87.5 74 L 83.5 72 L 69.5 72 L 60.5 70 L 52.5 72 L 41.5 68 Q 37.5 70.5 39 78.5 L 42 84.5 L 42 90.5 Q 39.8 95.7 32.5 96 L 25 90 L 23 102.5 L 19.5 106 L 14.5 106 L 8 104 Q 9.1 101.3 6.5 102 L 0 98 L 0 92.5 L 3 87.5 L 6 76.5 L 10 70.5 L 11 64 Q 14 65.3 13 61.5 L 15 59.5 Q 15.6 49.6 20 43.5 L 24.5 39 L 35 35 Q 33.7 31.7 38.5 33 L 48 25.5 Q 47.5 20.5 51.5 20 L 57.5 19 L 68.5 12 L 97.5 12 L 111.5 7 L 124.5 5 L 125.5 6 L 144.5 6 Q 150.3 1.8 161.5 3 L 163.5 4 L 176.5 0 Z " /></svg>