<svg width="200" height="123" version="1.1" xmlns="http://www.w3.org/2000/svg" desc="Created with imagetracer.js version 1.2.6" ><path fill="rgb(123,152,179)" stroke="rgb(123,152,179)" stroke-width="1" opacity="0.9411764705882353" d="M 110 0 L 131.5 8 L 147.5 12 L 174.5 12 L 186 9 L 187 16.5 L 192 22.5 Q 191.2 28.8 194 31.5 L 194 38.5 L 200 51.5 L 200 61.5 Q 197.7 62.8 199 67.5 L 190.5 81 L 186 84.5 L 183.5 88 L 181.5 89 L 145.5 89 L 141.5 90 L 133.5 93 L 120.5 104 L 113.5 105 L 105.5 111 L 101.5 111 L 93.5 115 L 85.5 116 L 75.5 120 L 67.5 120 L 59.5 123 L 48.5 123 L 47.5 122 L 17.5 120 L 7.5 116 L 3 111.5 Q -1 108 0 99.5 L 3 93 L 11.5 87 L 14.5 87 Q 16.5 83 22.5 83 L 28.5 77 L 46 70 Q 44.9 67.3 47.5 68 L 57.5 62 L 60 62 L 60 60 L 62 60 Q 60.9 57.3 63.5 58 L 70 53.5 L 72 49 L 77 45.5 L 79 42.5 L 81 39 L 87 36 L 92.5 25 Q 95.8 26.1 95 23.5 L 100.5 14 L 104 11.5 L 110 0 Z " /><path fill="rgb(0,0,0)" stroke="rgb(0,0,0)" stroke-width="1" opacity="0" d="M 0 0 L 109.5 0 L 110 1.5 L 101.5 14 L 98 16.5 L 95 25 L 91 26.5 L 87 36 L 81 39 L 79 44 Q 76.3 42.9 77 45.5 L 72 49 L 67.5 56 L 62 58 L 60 62 L 57.5 62 L 46 68 Q 47.1 70.7 44.5 70 L 35.5 75 L 28.5 77 L 22.5 83 L 19.5 83 L 14.5 87 L 11.5 87 L 3 93 L 0.5 99 L 0 0 Z " /><path fill="rgb(0,0,0)" stroke="rgb(0,0,0)" stroke-width="1" opacity="0" d="M 113.5 0 L 200 0 L 200 50.5 L 199 50.5 L 194 38.5 L 194 31.5 Q 191.2 28.8 192 22.5 L 187 16.5 L 186 9 L 174.5 12 L 147.5 12 L 125.5 6 L 113.5 1 L 113.5 0 Z " /><path fill="rgb(0,0,0)" stroke="rgb(0,0,0)" stroke-width="1" opacity="0" d="M 199.5 62 L 200 123 L 60 122.5 L 67.5 120 L 79.5 119 Q 84.5 115 93.5 115 L 101.5 111 L 105.5 111 L 113.5 105 L 120.5 104 L 133.5 93 L 141.5 90 L 145.5 89 L 181.5 89 L 186 85.5 L 189.5 81 L 193 78.5 L 193 75.5 L 199 67.5 L 199.5 62 Z " /><path fill="rgb(0,0,0)" stroke="rgb(0,0,0)" stroke-width="1" opacity="0" d="M 0.5 106 Q 2.4 112.6 7.5 116 L 21.5 121 L 35.5 121 L 36.5 122 L 48 122.5 L 0 123 L 0.5 106 Z " /></svg>