<svg width="192" height="298" version="1.1" xmlns="http://www.w3.org/2000/svg" desc="Created with imagetracer.js version 1.2.6" ><path fill="rgb(0,0,0)" stroke="rgb(0,0,0)" stroke-width="1" opacity="0" d="M 0 0 L 82 0.5 L 79.5 2 Q 69.9 0.9 64.5 4 Q 60.5 9 52.5 10 Q 47.9 16.7 40 19 L 38.5 23 L 31 29.5 L 26 38 L 23 39.5 L 20 49.5 L 17 52.5 L 16 63.5 L 15 64.5 L 15 117.5 L 15 119.5 L 15 127 L 4.5 127 Q 3.4 129.8 0 129 L 0 0 Z " /><path fill="rgb(0,0,0)" stroke="rgb(0,0,0)" stroke-width="1" opacity="0" d="M 110.5 0 L 192 0 L 192 129 Q 188.6 129.8 187.5 127 L 177 127 L 177 119.5 L 176 118.5 L 177 117.5 L 177 64.5 L 176 63.5 L 175 52.5 L 172 49.5 L 167.5 38 Q 165.3 38.8 166 36.5 L 154.5 23 L 152 21.5 Q 153.1 18.2 150.5 19 L 139.5 10 L 136.5 10 L 127.5 4 Q 122.1 0.9 112.5 2 L 110.5 0 Z " /><path fill="rgb(0,0,0)" stroke="rgb(0,0,0)" stroke-width="1" opacity="0" d="M 0.5 155 Q 1.3 164.2 6 169.5 L 6 172.5 L 16 191 L 21 193.5 L 26 204.5 L 30 209.5 L 32 224.5 L 35 227.5 L 41 239.5 L 42 248.5 L 41 251 L 38 252.5 L 36 255.5 L 31 263 L 24 265.5 L 21.5 270 L 18 272.5 L 19 276.5 L 26.5 285 L 45.5 294 L 59.5 295 L 67.5 297 L 86 297.5 L 0 298 L 0.5 155 Z " /><path fill="rgb(0,0,0)" stroke="rgb(0,0,0)" stroke-width="1" opacity="0" d="M 191.5 155 L 192 298 L 106 297.5 L 124.5 297 L 125.5 296 L 150.5 293 L 165.5 285 L 169 281.5 Q 173.2 278.7 174 272.5 L 169 268.5 L 166.5 264 L 161 263 L 156 254 Q 153.3 255.1 154 252.5 L 151 251 Q 149.3 248.6 150 242.5 L 157 227.5 L 160 224.5 L 162 209.5 L 172.5 192 L 176 191 L 186 172.5 L 186 169.5 Q 190.7 164.2 191.5 155 Z " /><path fill="rgb(128,128,128)" stroke="rgb(128,128,128)" stroke-width="1" opacity="0.9686274509803922" d="M 82.5 0 L 109.5 0 Q 112.7 3.8 121.5 2 L 129.5 5 L 136.5 10 L 139.5 10 Q 144.1 16.7 152 19 L 153.5 23 L 161 29.5 L 166 38 L 169 39.5 L 172 49.5 L 175 52.5 L 176 63.5 L 177 64.5 L 177 117.5 L 177 119.5 L 177 127 L 187.5 127 Q 188.6 129.8 192 129 L 192 154.5 L 191 159.5 L 186 169.5 L 186 172.5 L 176 191 L 171 193.5 L 166 204.5 L 162 209.5 L 160 224.5 L 157 227.5 L 151 239.5 L 150 248.5 L 151 251 L 154 252.5 L 156 255.5 L 161 263 L 168 265.5 L 170.5 270 L 174 272.5 L 173 276.5 L 165.5 285 L 146.5 294 L 132.5 295 L 124.5 297 L 86.5 298 L 85.5 297 L 67.5 297 L 66.5 296 L 41.5 293 L 26.5 285 L 23 281.5 Q 18.8 278.7 18 272.5 L 23 268.5 L 25.5 264 L 31 263 L 36 254 Q 38.7 255.1 38 252.5 L 41 251 Q 42.8 248.6 42 242.5 L 35 227.5 L 32 224.5 L 30 209.5 L 19.5 192 L 16 191 L 6 172.5 L 6 169.5 L 1 159.5 L 0 154.5 L 0 129 Q 3.4 129.8 4.5 127 L 15 127 L 15 119.5 L 16 118.5 L 15 117.5 L 15 64.5 L 16 63.5 L 17 52.5 L 20 49.5 L 24.5 38 Q 26.8 38.8 26 36.5 L 37.5 23 L 40 21.5 Q 38.9 18.2 41.5 19 L 52.5 10 L 55.5 10 L 64.5 4 Q 69.9 0.9 79.5 2 L 82.5 0 Z " /></svg>