<svg width="410" height="788" version="1.1" xmlns="http://www.w3.org/2000/svg" desc="Created with imagetracer.js version 1.2.6" ><path fill="rgb(0,0,0)" stroke="rgb(0,0,0)" stroke-width="1" opacity="0" d="M 0 0 L 126 0.5 L 117 2 Q 118.5 5.7 115.5 5 L 108.5 9 L 103.5 9 L 99.5 11 L 88.5 13 L 83.5 16 L 75 17 L 75 20.5 L 83 36.5 L 85 69.5 L 71 110.5 L 29 162 L 0 180 L 0 0 Z " /><path fill="rgb(0,0,0)" stroke="rgb(0,0,0)" stroke-width="1" opacity="0" d="M 129.5 0 L 281 0.5 L 272.5 11 L 253.5 20 L 239.5 21 L 231.5 23 L 197.5 24 L 196.5 23 L 178.5 23 L 177.5 22 L 152.5 19 L 137.5 11 L 134 7.5 L 129.5 0 Z " /><path fill="rgb(0,0,0)" stroke="rgb(0,0,0)" stroke-width="1" opacity="0" d="M 284.5 0 L 410 0 L 410 180 L 381 162 L 339 110.5 L 325 69.5 L 325 59.5 L 326 58.5 L 326 48.5 L 327 47.5 L 327 36.5 L 335 20.5 L 335 17 L 326.5 16 L 321.5 13 L 310.5 11 L 306.5 9 L 301.5 9 L 293 5 Q 294.8 0.5 289.5 2 L 284.5 1 L 284.5 0 Z " /><path fill="rgb(0,0,0)" stroke="rgb(0,0,0)" stroke-width="1" opacity="0" d="M 0.5 184 L 5 187 Q 3.9 189.7 6.5 189 L 9 191.5 L 9 196.5 L 13 207.5 L 14 217.5 L 20 225.5 L 23 251.5 L 28 259.5 L 31 297.5 Q 32.4 303.6 37 306.5 L 39 331 L 43 332.5 L 44 336.5 L 45 389.5 L 44 392.5 L 45 393.5 L 46 444.5 L 45 449.5 L 45 451.5 L 45 466.5 L 42 472.5 L 42 475.5 L 39 479.5 L 38 510.5 L 36 519 Q 33 517.8 34 521.5 Q 30.4 523.4 31 529.5 L 32 532.5 L 30 535.5 L 29 568.5 L 26 572.5 L 26 577.5 L 22 588.5 L 21 607.5 L 15 616.5 L 14 637.5 L 11 647.5 L 8 670 L 34.5 674 L 69.5 686 L 107.5 702 L 134.5 721 L 178 762.5 L 194 787.5 L 0 788 L 0.5 184 Z " /><path fill="rgb(0,0,0)" stroke="rgb(0,0,0)" stroke-width="1" opacity="0" d="M 409.5 184 L 410 788 L 216 787.5 L 232 762.5 L 258.5 736 Q 279.8 715.3 306.5 700 L 340.5 686 L 375.5 674 L 402 670 L 399 647.5 L 396 637.5 L 395 616.5 L 389 607.5 L 388 588.5 Q 384 582.5 384 572.5 L 381 568.5 L 380 535.5 L 378 530.5 L 379 526.5 L 376 519 Q 373 520.3 374 516.5 L 372 510.5 L 371 479.5 L 368 475.5 L 368 472.5 L 365 466.5 L 365 451.5 L 364 450.5 L 365 445.5 L 364 444.5 L 364 420.5 L 365 419.5 L 365 393.5 L 366 390.5 L 365 389.5 L 365 374.5 L 366 373.5 L 366 336.5 L 368.5 331 L 371 331 L 371 324.5 L 372 323.5 L 373 306.5 Q 377.6 303.6 379 297.5 L 382 259.5 L 387 251.5 L 390 225.5 L 396 217.5 L 396 212.5 L 400 201.5 L 401 191.5 L 403.5 189 L 406.5 187 L 409.5 184 Z " /><path fill="rgb(0,0,0)" stroke="rgb(0,0,0)" stroke-width="1" opacity="0" d="M 203.5 783 L 209 784 Q 207.9 786.7 210.5 786 L 211.5 788 L 198 787.5 L 201 786 Q 199.9 783.3 202.5 784 L 203.5 783 Z " /><path fill="rgb(128,128,128)" stroke="rgb(128,128,128)" stroke-width="1" opacity="0.9882352941176471" d="M 126.5 0 L 130 1.5 L 137.5 11 L 156.5 20 L 170.5 21 L 178.5 23 L 212.5 24 L 213.5 23 L 231.5 23 L 232.5 22 L 257.5 19 L 272.5 11 L 276 7.5 L 281.5 0 L 293 2 Q 291.5 5.7 294.5 5 L 301.5 9 L 306.5 9 L 310.5 11 L 321.5 13 L 326.5 16 L 335 17 L 335 20.5 L 327 36.5 L 325 69.5 L 339 110.5 L 381 162 L 410 180 Q 411 185.6 406.5 187 L 403.5 189 L 401 191.5 L 401 196.5 L 397 207.5 L 396 217.5 L 390 225.5 L 387 251.5 L 382 259.5 L 379 297.5 Q 377.6 303.6 373 306.5 L 371 331 L 367 332.5 L 366 336.5 L 365 389.5 L 366 392.5 L 365 393.5 L 364 444.5 L 365 449.5 L 365 451.5 L 365 466.5 L 368 472.5 L 368 475.5 L 371 479.5 L 372 510.5 L 374 519 Q 377 517.8 376 521.5 Q 379.6 523.4 379 529.5 L 378 532.5 L 380 535.5 L 381 568.5 L 384 572.5 L 384 577.5 L 388 588.5 L 389 607.5 L 395 616.5 L 396 637.5 L 399 647.5 L 402 670 L 375.5 674 L 340.5 686 L 302.5 702 L 275.5 721 L 232 762.5 L 215.5 788 L 212.5 788 L 209 786 Q 210.1 783.3 207.5 784 L 203.5 783 L 201 784 Q 202.1 786.7 199.5 786 Q 198.8 788.8 194.5 788 L 178 762.5 L 151.5 736 Q 130.2 715.3 103.5 700 L 69.5 686 L 34.5 674 L 8 670 L 11 647.5 L 14 637.5 L 15 616.5 L 21 607.5 L 22 588.5 Q 26 582.5 26 572.5 L 29 568.5 L 30 535.5 L 32 530.5 L 31 526.5 L 34 519 Q 37 520.3 36 516.5 L 38 510.5 L 39 479.5 L 42 475.5 L 42 472.5 L 45 466.5 L 45 451.5 L 46 450.5 L 45 445.5 L 46 444.5 L 46 420.5 L 45 419.5 L 45 393.5 L 44 390.5 L 45 389.5 L 45 374.5 L 44 373.5 L 44 336.5 L 41.5 331 L 39 331 L 39 324.5 L 38 323.5 L 37 306.5 Q 32.4 303.6 31 297.5 L 28 259.5 L 23 251.5 L 20 225.5 L 14 217.5 L 14 212.5 L 10 201.5 L 9 191.5 L 6.5 189 L 3.5 187 Q -1 185.6 0 180 L 29 162 L 71 110.5 L 85 69.5 L 85 59.5 L 84 58.5 L 84 48.5 L 83 47.5 L 83 36.5 L 75 20.5 L 75 17 L 83.5 16 L 88.5 13 L 99.5 11 L 103.5 9 L 108.5 9 L 117 5 Q 115.3 0.5 120.5 2 L 126.5 0 Z " /></svg>