<svg width="192" height="298" version="1.1" xmlns="http://www.w3.org/2000/svg" desc="Created with imagetracer.js version 1.2.6" ><path fill="rgb(1,6,1)" stroke="rgb(1,6,1)" stroke-width="1" opacity="0.00392156862745098" d="M 0 0 L 82 0.5 L 79.5 2 Q 69.9 0.9 64.5 4 Q 59.7 9.2 51.5 11 L 40 20.5 L 38.5 23 L 31 29.5 L 26 38 Q 23.3 36.9 24 39.5 L 20 49.5 L 17 52.5 L 16 63.5 L 15 64.5 L 15 117.5 L 15 119.5 L 15 127 L 4.5 127 L 0.5 132 L 0 0 Z " /><path fill="rgb(1,6,1)" stroke="rgb(1,6,1)" stroke-width="1" opacity="0.00392156862745098" d="M 110.5 0 L 192 0 L 192 131.5 L 191 131.5 L 187.5 127 L 177 127 L 177 119.5 L 177 117.5 L 177 64.5 L 176 63.5 L 175 52.5 L 172 49.5 L 168 38 Q 165.3 39.1 166 36.5 L 154.5 23 L 152 21.5 L 148.5 17 L 127.5 4 Q 122.1 0.9 112.5 2 L 110.5 0 Z " /><path fill="rgb(1,6,1)" stroke="rgb(1,6,1)" stroke-width="1" opacity="0.00392156862745098" d="M 0.5 155 Q 1.3 164.2 6 169.5 L 6 172.5 L 16 191 L 21 193.5 L 30 209.5 L 32 222.5 L 41 239.5 L 42 248.5 L 41 251 L 38 252.5 L 36 255.5 L 31 263 L 24 265.5 L 21.5 270 L 18 272.5 L 18 274.5 L 26.5 285 L 46.5 294 L 60.5 295 L 68.5 297 L 87 297.5 L 0 298 L 0.5 155 Z " /><path fill="rgb(1,6,1)" stroke="rgb(1,6,1)" stroke-width="1" opacity="0.00392156862745098" d="M 191.5 155 L 192 298 L 105 297.5 L 123.5 297 L 131.5 295 L 145.5 294 L 165.5 285 L 168 282.5 L 174 274.5 L 174 272.5 L 169 268.5 L 166.5 264 L 161 263 L 156 254 Q 153.3 255.1 154 252.5 L 151 251 Q 149.3 248.6 150 242.5 L 159 225.5 L 160 218.5 L 162 214.5 L 162 209.5 L 172.5 192 L 176 191 L 186 172.5 L 186 169.5 Q 190.7 164.2 191.5 155 Z " /><path fill="rgb(45,202,45)" stroke="rgb(45,202,45)" stroke-width="1" opacity="0.9803921568627451" d="M 82.5 0 L 109.5 0 Q 112.7 3.8 121.5 2 L 140.5 11 L 152 20.5 L 153.5 23 L 161 29.5 L 166 38 Q 168.7 36.9 168 39.5 L 172 49.5 L 175 52.5 L 176 63.5 L 177 64.5 L 177 117.5 L 177 119.5 L 177 127 L 187.5 127 L 192 132.5 L 192 154.5 L 190 162.5 L 186 169.5 L 186 172.5 L 176 191 L 171 193.5 L 162 209.5 L 160 222.5 L 151 239.5 L 150 248.5 L 151 251 L 154 252.5 L 156 255.5 L 161 263 L 168 265.5 L 170.5 270 L 174 272.5 L 174 274.5 L 165.5 285 L 145.5 294 L 131.5 295 L 123.5 297 L 87.5 298 L 86.5 297 L 68.5 297 L 60.5 295 L 46.5 294 L 26.5 285 L 24 282.5 L 18 274.5 L 18 272.5 L 23 268.5 L 25.5 264 L 31 263 L 36 254 Q 38.7 255.1 38 252.5 L 41 251 Q 42.8 248.6 42 242.5 L 33 225.5 L 32 218.5 L 30 214.5 L 30 209.5 L 19.5 192 L 16 191 L 6 172.5 L 6 169.5 L 1 159.5 L 0 154.5 L 0 132.5 L 4.5 127 L 15 127 L 15 119.5 L 15 117.5 L 15 64.5 L 16 63.5 L 17 52.5 L 20 49.5 L 24 38 Q 26.7 39.1 26 36.5 L 37.5 23 L 40 21.5 L 43.5 17 L 64.5 4 Q 69.9 0.9 79.5 2 L 82.5 0 Z " /></svg>