<svg width="256" height="256" version="1.1" xmlns="http://www.w3.org/2000/svg" desc="Created with imagetracer.js version 1.2.6" ><path fill="rgb(125,197,234)" stroke="rgb(125,197,234)" stroke-width="1" opacity="0.48627450980392156" d="M 106.5 25 L 122 25.5 L 106.5 26 L 106.5 25 Z " /><path fill="rgb(125,197,234)" stroke="rgb(125,197,234)" stroke-width="1" opacity="0.48627450980392156" d="M 99.5 26 L 104 26.5 L 99.5 27 L 99.5 26 Z " /><path fill="rgb(125,197,234)" stroke="rgb(125,197,234)" stroke-width="1" opacity="0.48627450980392156" d="M 125.5 26 L 129 26.5 L 125.5 27 L 125.5 26 Z " /><path fill="rgb(125,197,234)" stroke="rgb(125,197,234)" stroke-width="1" opacity="0.48627450980392156" d="M 90.5 28 L 93 28.5 L 88.5 30 L 88.5 29 L 90.5 28 Z " /><path fill="rgb(125,197,234)" stroke="rgb(125,197,234)" stroke-width="1" opacity="0.48627450980392156" d="M 135.5 28 L 138 28.5 L 135.5 29 L 135.5 28 Z " /><path fill="rgb(125,197,234)" stroke="rgb(125,197,234)" stroke-width="1" opacity="0.48627450980392156" d="M 149.5 33 L 156 36.5 L 154.5 36 L 149.5 34 L 149.5 33 Z " /><path fill="rgb(125,197,234)" stroke="rgb(125,197,234)" stroke-width="1" opacity="0.48627450980392156" d="M 75.5 34 L 77 34.5 L 74.5 36 L 75.5 34 Z " /><path fill="rgb(125,197,234)" stroke="rgb(125,197,234)" stroke-width="1" opacity="0.48627450980392156" d="M 72.5 36 L 71.5 38 L 69.5 39 L 70.5 37 L 72.5 36 Z " /><path fill="rgb(125,197,234)" stroke="rgb(125,197,234)" stroke-width="1" opacity="0.48627450980392156" d="M 159.5 38 L 160.5 40 L 159.5 38 Z " /><path fill="rgb(125,197,234)" stroke="rgb(125,197,234)" stroke-width="1" opacity="0.48627450980392156" d="M 67.5 39 L 66.5 41 L 67.5 39 Z " /><path fill="rgb(125,197,234)" stroke="rgb(125,197,234)" stroke-width="1" opacity="0.48627450980392156" d="M 162.5 40 L 164.5 43 L 162.5 40 Z " /><path fill="rgb(125,197,234)" stroke="rgb(125,197,234)" stroke-width="1" opacity="0.48627450980392156" d="M 64.5 41 L 62.5 44 L 64.5 41 Z " /><path fill="rgb(125,197,234)" stroke="rgb(125,197,234)" stroke-width="1" opacity="0.48627450980392156" d="M 166.5 43 L 171.5 49 L 166.5 43 Z " /><path fill="rgb(125,197,234)" stroke="rgb(125,197,234)" stroke-width="1" opacity="0.48627450980392156" d="M 60.5 44 L 49.5 56 L 60.5 44 Z " /><path fill="rgb(125,197,234)" stroke="rgb(125,197,234)" stroke-width="1" opacity="0.48627450980392156" d="M 104.5 47 L 108 47.5 L 104.5 48 L 104.5 47 Z " /><path fill="rgb(125,197,234)" stroke="rgb(125,197,234)" stroke-width="1" opacity="0.48627450980392156" d="M 119.5 47 L 124 47.5 L 119.5 48 L 119.5 47 Z " /><path fill="rgb(125,197,234)" stroke="rgb(125,197,234)" stroke-width="1" opacity="0.48627450980392156" d="M 126.5 48 L 129 48.5 L 126.5 49 L 126.5 48 Z " /><path fill="rgb(125,197,234)" stroke="rgb(125,197,234)" stroke-width="1" opacity="0.48627450980392156" d="M 130.5 49 L 133 49.5 L 130.5 50 L 130.5 49 Z " /><path fill="rgb(125,197,234)" stroke="rgb(125,197,234)" stroke-width="1" opacity="0.48627450980392156" d="M 134.5 50 L 138 51.5 L 136.5 52 L 134.5 50 Z " /><path fill="rgb(125,197,234)" stroke="rgb(125,197,234)" stroke-width="1" opacity="0.48627450980392156" d="M 139.5 52 Q 154.3 57.7 163 69.5 L 170 80.5 L 168 79.5 Q 162.8 68.2 153.5 61 L 139.5 53 L 139.5 52 Z " /><path fill="rgb(125,197,234)" stroke="rgb(125,197,234)" stroke-width="1" opacity="0.48627450980392156" d="M 175.5 52 L 180.5 58 L 175.5 52 Z " /><path fill="rgb(125,197,234)" stroke="rgb(125,197,234)" stroke-width="1" opacity="0.48627450980392156" d="M 82.5 55 L 81.5 57 L 82.5 55 Z " /><path fill="rgb(125,197,234)" stroke="rgb(125,197,234)" stroke-width="1" opacity="0.48627450980392156" d="M 47.5 58 L 46.5 60 L 47.5 58 Z " /><path fill="rgb(125,197,234)" stroke="rgb(125,197,234)" stroke-width="1" opacity="0.48627450980392156" d="M 76.5 59 L 75.5 61 L 76.5 59 Z " /><path fill="rgb(125,197,234)" stroke="rgb(125,197,234)" stroke-width="1" opacity="0.48627450980392156" d="M 181.5 59 L 182.5 61 L 181.5 59 Z " /><path fill="rgb(125,197,234)" stroke="rgb(125,197,234)" stroke-width="1" opacity="0.48627450980392156" d="M 45.5 61 L 44.5 63 L 45.5 61 Z " /><path fill="rgb(125,197,234)" stroke="rgb(125,197,234)" stroke-width="1" opacity="0.48627450980392156" d="M 183.5 62 L 184.5 64 L 183.5 62 Z " /><path fill="rgb(125,197,234)" stroke="rgb(125,197,234)" stroke-width="1" opacity="0.48627450980392156" d="M 43.5 64 L 42.5 66 L 43.5 64 Z " /><path fill="rgb(125,197,234)" stroke="rgb(125,197,234)" stroke-width="1" opacity="0.48627450980392156" d="M 70.5 64 L 69.5 66 L 70.5 64 Z " /><path fill="rgb(125,197,234)" stroke="rgb(125,197,234)" stroke-width="1" opacity="0.48627450980392156" d="M 185.5 65 L 186.5 67 L 185.5 65 Z " /><path fill="rgb(125,197,234)" stroke="rgb(125,197,234)" stroke-width="1" opacity="0.48627450980392156" d="M 65.5 70 L 64.5 72 L 65.5 70 Z " /><path fill="rgb(125,197,234)" stroke="rgb(125,197,234)" stroke-width="1" opacity="0.48627450980392156" d="M 62.5 74 L 62 75.5 L 60.5 78 L 61 76.5 L 62.5 74 Z " /><path fill="rgb(125,197,234)" stroke="rgb(125,197,234)" stroke-width="1" opacity="0.48627450980392156" d="M 59.5 79 L 59 80.5 L 58.5 82 L 58 80.5 L 59.5 79 Z " /><path fill="rgb(125,197,234)" stroke="rgb(125,197,234)" stroke-width="1" opacity="0.48627450980392156" d="M 140.5 79 L 151.5 91 L 140.5 80 L 105.5 115 L 88 98.5 L 104.5 114 L 140.5 79 Z " /><path fill="rgb(125,197,234)" stroke="rgb(125,197,234)" stroke-width="1" opacity="0.48627450980392156" d="M 171.5 84 L 173 87.5 L 172 87.5 L 171.5 84 Z " /><path fill="rgb(125,197,234)" stroke="rgb(125,197,234)" stroke-width="1" opacity="0.48627450980392156" d="M 33.5 85 L 34 87.5 L 33 87.5 L 33.5 85 Z " /><path fill="rgb(125,197,234)" stroke="rgb(125,197,234)" stroke-width="1" opacity="0.48627450980392156" d="M 151.5 92 L 105.5 139 L 151.5 92 Z " /><path fill="rgb(125,197,234)" stroke="rgb(125,197,234)" stroke-width="1" opacity="0.48627450980392156" d="M 174.5 92 L 175 94.5 L 174 94.5 L 174.5 92 Z " /><path fill="rgb(125,197,234)" stroke="rgb(125,197,234)" stroke-width="1" opacity="0.48627450980392156" d="M 53.5 93 L 54 95.5 L 53 95.5 L 53.5 93 Z " /><path fill="rgb(125,197,234)" stroke="rgb(125,197,234)" stroke-width="1" opacity="0.48627450980392156" d="M 31.5 94 L 32 97.5 L 31 97.5 L 31.5 94 Z " /><path fill="rgb(125,197,234)" stroke="rgb(125,197,234)" stroke-width="1" opacity="0.48627450980392156" d="M 175.5 96 L 176 99.5 L 175 99.5 L 175.5 96 Z " /><path fill="rgb(125,197,234)" stroke="rgb(125,197,234)" stroke-width="1" opacity="0.48627450980392156" d="M 197.5 97 L 198 101.5 L 197 101.5 L 197.5 97 Z " /><path fill="rgb(125,197,234)" stroke="rgb(125,197,234)" stroke-width="1" opacity="0.48627450980392156" d="M 52.5 98 L 53 101.5 L 52 101.5 L 52.5 98 Z " /><path fill="rgb(125,197,234)" stroke="rgb(125,197,234)" stroke-width="1" opacity="0.48627450980392156" d="M 30.5 101 L 31 118.5 L 30 118.5 L 30.5 101 Z " /><path fill="rgb(125,197,234)" stroke="rgb(125,197,234)" stroke-width="1" opacity="0.48627450980392156" d="M 176.5 102 L 177 116.5 L 176 116.5 L 176.5 102 Z " /><path fill="rgb(125,197,234)" stroke="rgb(125,197,234)" stroke-width="1" opacity="0.48627450980392156" d="M 51.5 107 L 52 110.5 L 51 110.5 L 51.5 107 Z " /><path fill="rgb(125,197,234)" stroke="rgb(125,197,234)" stroke-width="1" opacity="0.48627450980392156" d="M 76.5 110 L 104 138.5 L 76 111.5 L 76.5 110 Z " /><path fill="rgb(125,197,234)" stroke="rgb(125,197,234)" stroke-width="1" opacity="0.48627450980392156" d="M 197.5 116 L 198 121.5 L 197 121.5 L 197.5 116 Z " /><path fill="rgb(125,197,234)" stroke="rgb(125,197,234)" stroke-width="1" opacity="0.48627450980392156" d="M 52.5 117 L 53 119.5 L 52 119.5 L 52.5 117 Z " /><path fill="rgb(125,197,234)" stroke="rgb(125,197,234)" stroke-width="1" opacity="0.48627450980392156" d="M 175.5 120 L 176 122.5 L 175 122.5 L 175.5 120 Z " /><path fill="rgb(125,197,234)" stroke="rgb(125,197,234)" stroke-width="1" opacity="0.48627450980392156" d="M 31.5 122 L 32 125.5 L 31 125.5 L 31.5 122 Z " /><path fill="rgb(125,197,234)" stroke="rgb(125,197,234)" stroke-width="1" opacity="0.48627450980392156" d="M 196.5 124 L 197 126.5 L 196 126.5 L 196.5 124 Z " /><path fill="rgb(125,197,234)" stroke="rgb(125,197,234)" stroke-width="1" opacity="0.48627450980392156" d="M 32.5 127 L 33 129.5 L 32 129.5 L 32.5 127 Z " /><path fill="rgb(125,197,234)" stroke="rgb(125,197,234)" stroke-width="1" opacity="0.48627450980392156" d="M 195.5 128 L 196 130.5 L 195 130.5 L 195.5 128 Z " /><path fill="rgb(125,197,234)" stroke="rgb(125,197,234)" stroke-width="1" opacity="0.48627450980392156" d="M 194.5 132 L 195 134.5 L 194 134.5 L 194.5 132 Z " /><path fill="rgb(125,197,234)" stroke="rgb(125,197,234)" stroke-width="1" opacity="0.48627450980392156" d="M 193.5 136 L 194 137.5 L 190.5 145 L 190 143.5 L 193.5 136 Z " /><path fill="rgb(125,197,234)" stroke="rgb(125,197,234)" stroke-width="1" opacity="0.48627450980392156" d="M 168.5 140 L 167.5 142 L 168.5 140 Z " /><path fill="rgb(125,197,234)" stroke="rgb(125,197,234)" stroke-width="1" opacity="0.48627450980392156" d="M 60.5 141 L 61.5 143 L 60.5 141 Z " /><path fill="rgb(125,197,234)" stroke="rgb(125,197,234)" stroke-width="1" opacity="0.48627450980392156" d="M 62.5 144 L 63.5 146 L 62.5 144 Z " /><path fill="rgb(125,197,234)" stroke="rgb(125,197,234)" stroke-width="1" opacity="0.48627450980392156" d="M 38.5 145 Q 45.9 162.1 59.5 173 L 75 183.5 L 73.5 183 Q 58.6 175.9 49 163.5 L 40 150.5 L 38.5 145 Z " /><path fill="rgb(125,197,234)" stroke="rgb(125,197,234)" stroke-width="1" opacity="0.48627450980392156" d="M 164.5 146 L 163.5 148 L 164.5 146 Z " /><path fill="rgb(125,197,234)" stroke="rgb(125,197,234)" stroke-width="1" opacity="0.48627450980392156" d="M 64.5 147 L 68.5 152 L 64.5 147 Z " /><path fill="rgb(125,197,234)" stroke="rgb(125,197,234)" stroke-width="1" opacity="0.48627450980392156" d="M 161.5 150 L 155.5 157 L 161.5 150 Z " /><path fill="rgb(125,197,234)" stroke="rgb(125,197,234)" stroke-width="1" opacity="0.48627450980392156" d="M 187.5 150 L 187 151.5 L 185.5 154 L 186 152.5 L 187.5 150 Z " /><path fill="rgb(125,197,234)" stroke="rgb(125,197,234)" stroke-width="1" opacity="0.48627450980392156" d="M 72.5 155 L 75.5 159 L 72.5 155 Z " /><path fill="rgb(125,197,234)" stroke="rgb(125,197,234)" stroke-width="1" opacity="0.48627450980392156" d="M 184.5 155 L 183.5 157 L 184.5 155 Z " /><path fill="rgb(125,197,234)" stroke="rgb(125,197,234)" stroke-width="1" opacity="0.48627450980392156" d="M 152.5 158 L 150.5 161 L 152.5 158 Z " /><path fill="rgb(125,197,234)" stroke="rgb(125,197,234)" stroke-width="1" opacity="0.48627450980392156" d="M 182.5 158 L 180.5 161 L 182.5 158 Z " /><path fill="rgb(125,197,234)" stroke="rgb(125,197,234)" stroke-width="1" opacity="0.48627450980392156" d="M 78.5 160 L 79.5 162 L 78.5 160 Z " /><path fill="rgb(125,197,234)" stroke="rgb(125,197,234)" stroke-width="1" opacity="0.48627450980392156" d="M 148.5 161 L 147.5 163 L 145.5 164 L 146.5 162 L 148.5 161 Z " /><path fill="rgb(125,197,234)" stroke="rgb(125,197,234)" stroke-width="1" opacity="0.48627450980392156" d="M 81.5 162 L 85 164.5 L 83.5 164 L 81.5 162 Z " /><path fill="rgb(125,197,234)" stroke="rgb(125,197,234)" stroke-width="1" opacity="0.48627450980392156" d="M 179.5 162 L 174.5 168 L 179.5 162 Z " /><path fill="rgb(125,197,234)" stroke="rgb(125,197,234)" stroke-width="1" opacity="0.48627450980392156" d="M 88.5 166 L 92 167.5 L 90.5 168 L 88.5 166 Z " /><path fill="rgb(125,197,234)" stroke="rgb(125,197,234)" stroke-width="1" opacity="0.48627450980392156" d="M 172.5 169 L 167.5 175 L 172.5 169 Z " /><path fill="rgb(125,197,234)" stroke="rgb(125,197,234)" stroke-width="1" opacity="0.48627450980392156" d="M 100.5 170 L 103 170.5 L 100.5 171 L 100.5 170 Z " /><path fill="rgb(125,197,234)" stroke="rgb(125,197,234)" stroke-width="1" opacity="0.48627450980392156" d="M 125.5 170 L 128 170.5 L 125.5 171 L 125.5 170 Z " /><path fill="rgb(125,197,234)" stroke="rgb(125,197,234)" stroke-width="1" opacity="0.48627450980392156" d="M 105.5 171 L 113 171.5 L 105.5 172 L 105.5 171 Z " /><path fill="rgb(125,197,234)" stroke="rgb(125,197,234)" stroke-width="1" opacity="0.48627450980392156" d="M 115.5 171 L 123 171.5 L 115.5 172 L 115.5 171 Z " /><path fill="rgb(125,197,234)" stroke="rgb(125,197,234)" stroke-width="1" opacity="0.48627450980392156" d="M 184.5 174 L 185 176 L 182 177.5 Q 183.6 181.9 190 181.5 L 185.5 182 L 181.5 178 L 172 187.5 L 177 191.5 L 177 201.5 L 206 230.5 L 176 201.5 L 176 191.5 L 173.5 189 L 171.5 188 L 170 188.5 L 184.5 174 Z " /><path fill="rgb(125,197,234)" stroke="rgb(125,197,234)" stroke-width="1" opacity="0.48627450980392156" d="M 164.5 176 L 163.5 178 L 164.5 176 Z " /><path fill="rgb(125,197,234)" stroke="rgb(125,197,234)" stroke-width="1" opacity="0.48627450980392156" d="M 161.5 178 L 160.5 180 L 161.5 178 Z " /><path fill="rgb(125,197,234)" stroke="rgb(125,197,234)" stroke-width="1" opacity="0.48627450980392156" d="M 158.5 180 L 157.5 182 L 158.5 180 Z " /><path fill="rgb(125,197,234)" stroke="rgb(125,197,234)" stroke-width="1" opacity="0.48627450980392156" d="M 196.5 182 L 225 211.5 L 220 215.5 L 224 210.5 L 196.5 182 Z " /><path fill="rgb(125,197,234)" stroke="rgb(125,197,234)" stroke-width="1" opacity="0.48627450980392156" d="M 76.5 184 L 84 187.5 L 82.5 188 L 76.5 185 L 76.5 184 Z " /><path fill="rgb(125,197,234)" stroke="rgb(125,197,234)" stroke-width="1" opacity="0.48627450980392156" d="M 91.5 190 L 94 190.5 L 91.5 191 L 91.5 190 Z " /><path fill="rgb(125,197,234)" stroke="rgb(125,197,234)" stroke-width="1" opacity="0.48627450980392156" d="M 134.5 190 L 137 190.5 L 134.5 191 L 134.5 190 Z " /><path fill="rgb(125,197,234)" stroke="rgb(125,197,234)" stroke-width="1" opacity="0.48627450980392156" d="M 95.5 191 L 98 191.5 L 95.5 192 L 95.5 191 Z " /><path fill="rgb(125,197,234)" stroke="rgb(125,197,234)" stroke-width="1" opacity="0.48627450980392156" d="M 100.5 192 L 105 192.5 L 100.5 193 L 100.5 192 Z " /><path fill="rgb(125,197,234)" stroke="rgb(125,197,234)" stroke-width="1" opacity="0.48627450980392156" d="M 123.5 192 L 127 192.5 L 123.5 193 L 123.5 192 Z " /><path fill="rgb(125,197,234)" stroke="rgb(125,197,234)" stroke-width="1" opacity="0.48627450980392156" d="M 110.5 193 L 117 193.5 L 110.5 194 L 110.5 193 Z " /><path fill="rgb(0,0,0)" stroke="rgb(0,0,0)" stroke-width="1" opacity="0" d="M 0 0 L 256 0 L 256 256 L 0 256 L 0 0 Z M 107 25 L 91 28 L 83 31 Q 70 36 61 44 Q 49 53 42 66 L 33 86 L 30 102 L 30 119 L 33 134 Q 38 151 49 164 Q 62 179 83 188 L 96 192 L 110 193 L 111 194 Q 148 193 168 175 Q 191 157 198 122 L 198 98 L 195 85 Q 190 69 181 58 Q 169 42 151 33 L 129 26 L 107 25 Z M 185 174 L 170 189 L 171 190 L 174 189 L 176 192 L 176 202 L 206 231 L 225 211 L 197 182 L 186 181 L 183 179 L 185 176 L 185 174 Z " /><path fill="rgb(0,0,0)" stroke="rgb(0,0,0)" stroke-width="1" opacity="0" d="M 108.5 47 L 125.5 48 L 138.5 52 Q 152.8 58.2 162 69.5 Q 169.9 78.6 174 91.5 L 176 100.5 L 176 119.5 Q 170.7 144.7 153.5 158 L 138.5 167 L 129.5 170 L 113.5 172 L 112.5 171 L 98.5 170 L 87.5 166 Q 76.8 160.8 69 152.5 Q 60.9 144.1 56 132.5 L 52 116.5 L 52 102.5 Q 56.8 75.3 74.5 61 L 89.5 52 L 108.5 47 Z M 141 79 L 105 114 L 89 98 L 76 111 L 104 139 L 106 139 L 152 93 L 152 91 L 141 79 Z " /><path fill="rgb(125,197,235)" stroke="rgb(125,197,235)" stroke-width="1" opacity="1" d="M 104.5 26 L 124.5 26 L 144.5 31 Q 162.7 38.3 175 51.5 Q 185.5 62.5 192 77.5 L 197 94.5 L 198 115.5 L 194 135.5 L 190 145.5 L 183 157.5 L 174 169 L 156.5 182 L 146.5 187 L 129.5 192 L 105.5 193 L 90.5 190 L 75.5 184 Q 60.6 175.9 50 163.5 Q 38.7 150.3 33 131.5 L 31 121.5 L 31 98.5 Q 37.4 62.4 61.5 44 L 81.5 32 L 104.5 26 Z M 105 47 Q 83 51 71 64 L 58 81 L 53 94 L 52 107 L 51 108 L 54 129 L 60 142 L 69 154 L 83 164 L 91 168 L 106 172 L 123 172 L 132 170 Q 146 166 156 157 Q 172 143 177 117 L 177 103 L 175 93 Q 171 79 163 70 Q 153 56 136 50 L 124 47 L 105 47 Z " /><path fill="rgb(125,197,235)" stroke="rgb(125,197,235)" stroke-width="1" opacity="1" d="M 140.5 80 L 152 91.5 L 104.5 139 L 77 111.5 L 77 109.5 L 88.5 99 L 105.5 115 L 140.5 80 Z " /><path fill="rgb(125,197,235)" stroke="rgb(125,197,235)" stroke-width="1" opacity="1" d="M 183.5 176 L 182 178.5 L 185.5 182 L 195.5 182 L 224 210.5 Q 217.1 222.1 206.5 230 L 177 201.5 L 177 191.5 L 173.5 188 L 170.5 190 L 183.5 176 Z " /></svg>