<svg width="400" height="400" version="1.1" xmlns="http://www.w3.org/2000/svg" desc="Created with imagetracer.js version 1.2.6" ><path fill="rgb(254,247,247)" stroke="rgb(254,247,247)" stroke-width="1" opacity="0.996078431372549" d="M 200.5 107 L 208 113.5 L 265 192.5 L 263.5 194 L 237 194 L 237 286.5 L 234.5 289 Q 229.7 290.2 228.5 288 L 167 288 L 167 256.5 L 166 255.5 L 166 194 L 139.5 194 L 138 192.5 L 141 186.5 L 200.5 107 Z " /><path fill="rgb(255,0,0)" stroke="rgb(255,0,0)" stroke-width="1" opacity="0.9921568627450981" d="M 70.5 39 L 330.5 39 Q 329.5 42.5 336.5 41 Q 337.6 43.8 341 43 Q 339.7 46.3 344.5 45 L 351.5 53 L 348 53 L 348 51 L 346 51 L 344 47 L 341.5 47 L 340 44 Q 334.7 45.3 335.5 42 L 330 42 L 329.5 40 L 71 40 L 71 42 L 65 42 Q 66.8 46.5 61.5 45 L 57 46 L 56.5 49 L 55 48.5 L 54.5 50 L 54 48.5 L 56.5 45 L 61.5 43 L 63.5 44 L 64.5 41 Q 69.5 42 70.5 39 Z " /><path fill="rgb(255,0,0)" stroke="rgb(255,0,0)" stroke-width="1" opacity="0.9921568627450981" d="M 52.5 49 L 53 53 L 51 53 Q 52.1 55.7 49.5 55 Q 46.3 56.2 47 60 L 44 61.5 L 43 69.5 L 41.5 71 L 40 71.5 L 40 330 L 43 331.5 L 43 335.5 Q 46 334.5 45 339.5 Q 48 340.8 47 345 L 51 346 L 51 348 L 55 350 L 55 353 Q 58 352 57 355 L 59.5 355 Q 60.8 358 65 357 Q 63.6 361 70.5 359 L 71.5 360 L 329.5 360 L 336 359 Q 334.3 354.5 339.5 356 L 345 353.5 L 346 350 L 348 350 L 348 348 L 350 348 Q 348.9 345.3 351.5 346 L 357.5 336 Q 360.3 336.6 359 330.5 L 360 329.5 L 360 69.5 L 354 59.5 L 354 57 L 352 56.5 L 352.5 55 L 351 54.5 L 352.5 54 L 356 56.5 L 358 64 Q 361.3 62.7 360 67.5 L 361 68.5 L 361 332.5 L 358 341 Q 354.7 339.7 356 344.5 L 346 353.5 L 344.5 356 L 337 358 Q 338.4 362 331.5 360 L 330.5 361 L 68.5 361 L 56.5 356 L 49 348.5 L 47.5 346 L 45 344.5 L 43 339.5 L 44 337.5 L 41 336.5 Q 42.5 329.5 39 330.5 L 39 70.5 L 41 68.5 L 41 64.5 L 45 56.5 L 52.5 49 Z " /><path fill="rgb(255,0,0)" stroke="rgb(255,0,0)" stroke-width="1" opacity="0.9921568627450981" d="M 199.5 106 L 201.5 106 L 207 110.5 L 210 114.5 L 206 111.5 L 204.5 109 L 199.5 107 L 199.5 106 Z " /><path fill="rgb(255,0,0)" stroke="rgb(255,0,0)" stroke-width="1" opacity="0.9921568627450981" d="M 166.5 151 L 166 152.5 L 161.5 159 L 162 157.5 L 166.5 151 Z " /><path fill="rgb(255,0,0)" stroke="rgb(255,0,0)" stroke-width="1" opacity="0.9921568627450981" d="M 138.5 191 L 139.5 194 L 166 194 L 166 255.5 L 167 256.5 L 167 285.5 L 166 285.5 L 165 195 L 138.5 195 L 137 193.5 L 138.5 191 Z " /><path fill="rgb(255,0,0)" stroke="rgb(255,0,0)" stroke-width="1" opacity="0.9921568627450981" d="M 265.5 191 L 266 192.5 L 263.5 195 L 238 195 L 238 286.5 L 235.5 290 L 233 289.5 L 236 289 L 237 286.5 L 237 194 L 263.5 194 L 265 192.5 L 265.5 191 Z " /><path fill="rgb(0,0,0)" stroke="rgb(0,0,0)" stroke-width="1" opacity="0" d="M 0 0 L 400 0 L 400 400 L 0 400 L 0 0 Z M 71 39 Q 70 42 65 41 L 64 44 L 62 43 L 57 45 L 55 48 L 53 49 L 45 57 L 41 65 L 41 69 L 39 71 L 39 331 Q 43 330 41 337 L 44 338 L 43 340 L 45 345 L 48 346 L 49 349 L 57 356 L 69 361 L 331 361 L 332 360 Q 338 362 337 358 L 345 356 L 346 354 L 356 345 Q 355 340 358 341 L 361 333 L 361 69 L 360 68 Q 361 63 358 64 L 356 57 L 354 55 L 345 45 Q 340 46 341 43 Q 338 44 337 41 Q 330 43 331 39 L 71 39 Z " /><path fill="rgb(255,0,0)" stroke="rgb(255,0,0)" stroke-width="1" opacity="1" d="M 71 40 L 329.5 40 L 330 42 L 336 42 L 336 44 L 340 44 L 340 45.5 L 344 47 L 344 49 L 346 49 L 348 53 L 351.5 53 L 351.5 55 L 353 55.5 L 352.5 57 Q 355.1 56.2 354 59.5 L 360 69.5 L 360 329.5 L 359 336 L 356 337.5 L 354 343.5 L 351.5 346 L 350 346 L 350 348 L 348 348 L 348 350 Q 345.3 348.9 346 351.5 L 343.5 355 L 336 356 Q 337.8 361.2 330.5 359 L 329.5 360 L 71.5 360 L 65 359 Q 66.3 355.7 61.5 357 Q 60.4 354.3 57 355 Q 58 352 55 353 L 55 350 L 53 350 L 53 348 L 51 348 Q 52.1 345.3 49.5 346 L 47 345 L 45 336 Q 41.3 337.4 43 331.5 L 40 330 L 40 71.5 L 41.5 71 L 45.5 60 Q 48.1 60.8 47 57.5 L 51 55 Q 50 52 53 53 L 53 49.5 L 55 49.5 L 55.5 48 L 57 48.5 Q 55.7 44.3 60.5 46 L 65 45 L 65 42 L 71 42 L 71 40 Z M 200 106 L 200 108 L 198 108 L 197 112 Q 194 111 195 115 L 193 116 L 193 118 L 190 120 L 190 122 L 187 124 L 187 126 L 185 127 L 183 131 Q 180 130 181 134 L 178 135 L 177 139 Q 174 138 175 142 L 173 143 L 173 145 L 171 145 L 171 147 L 170 147 L 170 149 L 168 149 Q 169 152 167 151 L 167 153 L 166 152 L 165 154 Q 161 155 164 157 L 163 156 L 161 161 L 160 160 L 157 166 Q 154 165 155 169 L 153 170 L 153 172 L 152 171 Q 149 172 151 174 L 150 174 L 150 176 L 148 176 Q 149 179 147 178 L 147 180 L 146 179 L 144 184 L 143 183 L 141 188 L 139 188 L 140 190 L 137 194 L 139 195 L 165 195 L 165 256 L 166 257 L 166 286 L 167 287 L 166 289 L 168 288 L 229 288 L 229 290 L 233 289 L 236 290 L 235 289 L 237 289 L 238 287 L 238 196 L 239 195 L 264 195 L 266 192 L 265 192 L 256 181 L 255 177 L 254 177 L 251 174 Q 252 170 250 171 L 247 166 L 246 166 L 244 162 L 243 162 L 243 161 L 242 160 L 239 155 L 238 155 L 236 151 L 235 151 L 235 150 L 234 149 L 231 144 L 230 144 L 228 140 L 227 140 L 227 139 L 226 138 L 223 133 L 222 133 L 220 129 L 219 129 L 219 128 L 218 127 L 215 122 L 214 122 L 212 118 L 211 118 L 211 117 L 210 116 Q 207 115 209 114 L 207 111 L 206 111 Q 203 110 205 109 L 200 106 Z " /></svg>