<svg width="256" height="256" version="1.1" xmlns="http://www.w3.org/2000/svg" desc="Created with imagetracer.js version 1.2.6" ><path fill="rgb(0,0,0)" stroke="rgb(0,0,0)" stroke-width="1" opacity="0" d="M 0 0 L 256 0 L 256 256 L 0 256 L 0 0 Z M 36 24 L 28 28 L 24 36 L 24 61 L 26 62 L 60 62 L 62 60 L 62 26 L 61 24 L 36 24 Z M 73 24 L 71 26 L 71 61 L 73 62 L 95 62 L 96 61 L 96 26 L 95 24 L 73 24 Z M 107 24 L 105 26 L 105 61 L 107 62 L 122 62 L 123 61 L 123 26 L 122 24 L 107 24 Z M 134 24 L 132 26 L 132 61 L 134 62 L 150 62 L 151 61 L 151 26 L 150 24 L 134 24 Z M 162 24 L 160 26 L 160 61 L 162 62 L 184 62 L 185 61 L 185 26 L 184 24 L 162 24 Z M 196 24 L 194 26 L 194 61 L 196 62 L 231 62 L 232 61 L 232 36 L 228 29 L 221 24 L 196 24 Z M 32 73 L 32 180 L 33 180 L 54 180 L 54 74 L 54 73 L 32 73 Z M 65 73 L 65 180 L 66 180 L 86 180 L 86 133 L 85 132 L 84 106 L 83 105 L 84 102 L 99 135 L 123 179 L 125 180 L 147 180 L 147 74 L 147 73 L 126 73 L 126 133 L 127 134 L 127 144 L 128 145 L 128 150 L 114 122 L 88 75 L 87 73 L 65 73 Z M 158 73 L 158 180 L 180 180 L 180 137 L 218 137 L 218 119 L 180 119 L 180 92 L 224 92 L 224 74 L 224 73 L 158 73 Z M 26 194 L 24 196 L 24 221 L 28 228 L 36 232 L 60 232 L 62 230 L 62 196 L 61 194 L 26 194 Z M 73 194 L 71 196 L 71 231 L 73 232 L 95 232 L 96 231 L 96 196 L 95 194 L 73 194 Z M 107 194 L 105 196 L 105 231 L 107 232 L 121 232 L 123 230 L 123 196 L 122 194 L 107 194 Z M 134 194 L 132 196 L 132 231 L 134 232 L 149 232 L 151 230 L 151 196 L 150 194 L 134 194 Z M 162 194 L 160 196 L 160 231 L 162 232 L 184 232 L 185 231 L 185 196 L 184 194 L 162 194 Z M 196 194 L 194 196 L 194 231 L 196 232 L 219 232 L 226 229 Q 231 227 232 221 L 232 196 L 231 194 L 196 194 Z " /><path fill="rgb(192,124,235)" stroke="rgb(192,124,235)" stroke-width="1" opacity="0.8509803921568627" d="M 35 24 L 60.5 24 L 62 25.5 L 62 59.5 L 59.5 62 L 25.5 62 L 24 60.5 L 24 35.5 L 28 28 L 31.5 26 L 32 28 L 28 30.5 Q 28.8 32.8 26.5 32 L 26 34.5 L 25 37.5 L 25 61 L 58.5 61 L 61 60 L 61 25 L 36.5 25 L 35 25.5 L 35 24 Z " /><path fill="rgb(192,124,235)" stroke="rgb(192,124,235)" stroke-width="1" opacity="0.8509803921568627" d="M 72.5 24 L 94.5 24 L 96 25.5 L 96 60.5 L 94.5 62 L 72.5 62 L 71 60.5 L 71 25.5 L 72.5 24 Z M 72 25 L 72 61 L 95 61 L 95 25 L 72 25 Z " /><path fill="rgb(192,124,235)" stroke="rgb(192,124,235)" stroke-width="1" opacity="0.8509803921568627" d="M 106.5 24 L 121.5 24 L 123 25.5 L 123 60.5 L 121.5 62 L 106.5 62 L 105 60.5 L 105 25.5 L 106.5 24 Z M 106 25 L 106 61 L 122 61 L 122 25 L 106 25 Z " /><path fill="rgb(192,124,235)" stroke="rgb(192,124,235)" stroke-width="1" opacity="0.8509803921568627" d="M 133.5 24 L 149.5 24 L 151 25.5 L 151 60.5 L 149.5 62 L 133.5 62 L 132 60.5 L 132 25.5 L 133.5 24 Z M 133 25 L 133 61 L 150 61 L 150 25 L 133 25 Z " /><path fill="rgb(192,124,235)" stroke="rgb(192,124,235)" stroke-width="1" opacity="0.8509803921568627" d="M 161.5 24 L 183.5 24 L 185 25.5 L 185 60.5 L 183.5 62 L 161.5 62 L 160 60.5 L 160 25.5 L 161.5 24 Z M 161 25 L 161 61 L 184 61 L 184 25 L 161 25 Z " /><path fill="rgb(192,124,235)" stroke="rgb(192,124,235)" stroke-width="1" opacity="0.8509803921568627" d="M 195.5 24 L 220.5 24 L 228 28.5 L 232 35.5 L 232 60.5 L 230.5 62 L 195.5 62 L 194 60.5 L 194 25.5 L 195.5 24 Z M 195 25 L 195 61 L 231 61 L 231 38 L 228 31 L 224 26 L 223 27 L 219 25 L 195 25 Z " /><path fill="rgb(192,124,235)" stroke="rgb(192,124,235)" stroke-width="1" opacity="0.8509803921568627" d="M 33.5 25 L 34 26.5 L 33 26.5 L 33.5 25 Z " /><path fill="rgb(192,124,235)" stroke="rgb(192,124,235)" stroke-width="1" opacity="0.8509803921568627" d="M 32.5 73 L 53.5 73 L 54 73.5 L 54 179.5 L 53 179.5 L 53 74.5 L 52.5 74 L 32.5 74 L 32.5 73 Z " /><path fill="rgb(192,124,235)" stroke="rgb(192,124,235)" stroke-width="1" opacity="0.8509803921568627" d="M 65.5 73 L 86.5 73 L 88 74.5 L 114 121.5 L 127.5 150 L 128 144.5 L 127 143.5 L 127 135.5 L 128 135.5 L 129 153.5 L 127 152.5 L 115 125.5 L 87 74 L 65.5 74 L 65.5 73 Z " /><path fill="rgb(192,124,235)" stroke="rgb(192,124,235)" stroke-width="1" opacity="0.8509803921568627" d="M 126 73 L 146.5 73 L 147 73.5 L 147 179.5 L 146 179.5 L 146 74.5 L 145.5 74 L 127 74 L 126.5 133 L 126 73 Z " /><path fill="rgb(192,124,235)" stroke="rgb(192,124,235)" stroke-width="1" opacity="0.8509803921568627" d="M 158.5 73 L 223.5 73 L 224 73.5 L 224 92 L 180 92 L 180 118.5 L 179 118.5 L 179 91 L 223 91 L 223 74 L 158.5 74 L 158.5 73 Z " /><path fill="rgb(192,124,235)" stroke="rgb(192,124,235)" stroke-width="1" opacity="0.8509803921568627" d="M 82 100 Q 84.7 98.9 84 101.5 L 98 130.5 L 125 179.5 L 123 178.5 L 99 134.5 L 83.5 102 L 82.5 104 L 82 100 Z " /><path fill="rgb(192,124,235)" stroke="rgb(192,124,235)" stroke-width="1" opacity="0.8509803921568627" d="M 83.5 105 L 84 115.5 L 83 115.5 L 83.5 105 Z " /><path fill="rgb(192,124,235)" stroke="rgb(192,124,235)" stroke-width="1" opacity="0.8509803921568627" d="M 84.5 117 L 85 127.5 L 84 127.5 L 84.5 117 Z " /><path fill="rgb(192,124,235)" stroke="rgb(192,124,235)" stroke-width="1" opacity="0.8509803921568627" d="M 217.5 119 L 218 136.5 L 217 136.5 L 217.5 119 Z " /><path fill="rgb(192,124,235)" stroke="rgb(192,124,235)" stroke-width="1" opacity="0.8509803921568627" d="M 85.5 132 L 86 179.5 L 85 179.5 L 85.5 132 Z " /><path fill="rgb(192,124,235)" stroke="rgb(192,124,235)" stroke-width="1" opacity="0.8509803921568627" d="M 179.5 137 L 180 179.5 L 179 179.5 L 179.5 137 Z " /><path fill="rgb(192,124,235)" stroke="rgb(192,124,235)" stroke-width="1" opacity="0.8509803921568627" d="M 25.5 194 L 60.5 194 L 62 195.5 L 62 229.5 L 59.5 232 L 35.5 232 L 28 228 L 24 220.5 L 24 195.5 L 25.5 194 Z M 25 195 L 25 220 L 28 226 L 31 227 L 32 230 L 34 229 L 38 231 L 59 231 L 61 229 L 61 195 L 25 195 Z " /><path fill="rgb(192,124,235)" stroke="rgb(192,124,235)" stroke-width="1" opacity="0.8509803921568627" d="M 72.5 194 L 94.5 194 L 96 195.5 L 96 230.5 L 94.5 232 L 72.5 232 L 71 230.5 L 71 195.5 L 72.5 194 Z M 72 195 L 72 231 L 95 231 L 95 195 L 72 195 Z " /><path fill="rgb(192,124,235)" stroke="rgb(192,124,235)" stroke-width="1" opacity="0.8509803921568627" d="M 106.5 194 L 121.5 194 L 123 195.5 L 123 229.5 L 120.5 232 L 106.5 232 L 105 230.5 L 105 195.5 L 106.5 194 Z M 106 195 L 106 231 L 120 231 L 122 230 L 122 195 L 106 195 Z " /><path fill="rgb(192,124,235)" stroke="rgb(192,124,235)" stroke-width="1" opacity="0.8509803921568627" d="M 133.5 194 L 149.5 194 L 151 195.5 L 151 229.5 L 148.5 232 L 133.5 232 L 132 230.5 L 132 195.5 L 133.5 194 Z M 133 195 L 133 231 L 148 231 L 150 230 L 150 195 L 133 195 Z " /><path fill="rgb(192,124,235)" stroke="rgb(192,124,235)" stroke-width="1" opacity="0.8509803921568627" d="M 161.5 194 L 183.5 194 L 185 195.5 L 185 230.5 L 183.5 232 L 161.5 232 L 160 230.5 L 160 195.5 L 161.5 194 Z M 161 195 L 161 231 L 184 231 L 184 195 L 161 195 Z " /><path fill="rgb(192,124,235)" stroke="rgb(192,124,235)" stroke-width="1" opacity="0.8509803921568627" d="M 195.5 194 L 230.5 194 L 232 195.5 L 232 220.5 Q 230.6 226.6 225.5 229 L 222.5 230 L 223.5 228 L 228 225.5 Q 227.3 222.9 230 224 L 230 220.5 L 231 219.5 L 231 195 L 195 195 L 195 231 L 216.5 231 L 220.5 229 L 221 231 L 218.5 232 L 195.5 232 L 194 230.5 L 194 195.5 L 195.5 194 Z " /><path fill="rgb(192,125,235)" stroke="rgb(192,125,235)" stroke-width="1" opacity="0.996078431372549" d="M 34.5 25 L 36.5 25 L 61 25 L 61 60 L 58.5 61 L 25 61 L 25 37.5 L 27 33.5 L 26.5 32 Q 28.8 32.8 28 30.5 L 32 28 L 32.5 26 L 34 26.5 L 34.5 25 Z " /><path fill="rgb(192,125,235)" stroke="rgb(192,125,235)" stroke-width="1" opacity="0.996078431372549" d="M 72 25 L 95 25 L 95 61 L 72 61 L 72 25 Z " /><path fill="rgb(192,125,235)" stroke="rgb(192,125,235)" stroke-width="1" opacity="0.996078431372549" d="M 106 25 L 122 25 L 122 61 L 106 61 L 106 25 Z " /><path fill="rgb(192,125,235)" stroke="rgb(192,125,235)" stroke-width="1" opacity="0.996078431372549" d="M 133 25 L 150 25 L 150 61 L 133 61 L 133 25 Z " /><path fill="rgb(192,125,235)" stroke="rgb(192,125,235)" stroke-width="1" opacity="0.996078431372549" d="M 161 25 L 184 25 L 184 61 L 161 61 L 161 25 Z " /><path fill="rgb(192,125,235)" stroke="rgb(192,125,235)" stroke-width="1" opacity="0.996078431372549" d="M 195 25 L 218.5 25 L 222.5 27 L 223.5 26 L 228 30.5 L 231 37.5 L 231 61 L 195 61 L 195 25 Z " /><path fill="rgb(192,125,235)" stroke="rgb(192,125,235)" stroke-width="1" opacity="0.996078431372549" d="M 32.5 74 L 33 179.5 L 32 179.5 L 32.5 74 Z " /><path fill="rgb(192,125,235)" stroke="rgb(192,125,235)" stroke-width="1" opacity="0.996078431372549" d="M 65.5 74 L 66 179.5 L 65 179.5 L 65.5 74 Z " /><path fill="rgb(192,125,235)" stroke="rgb(192,125,235)" stroke-width="1" opacity="0.996078431372549" d="M 86.5 74 L 86.5 75 L 86.5 74 Z " /><path fill="rgb(192,125,235)" stroke="rgb(192,125,235)" stroke-width="1" opacity="0.996078431372549" d="M 158.5 74 L 159 179.5 L 158 179.5 L 158.5 74 Z " /><path fill="rgb(192,125,235)" stroke="rgb(192,125,235)" stroke-width="1" opacity="0.996078431372549" d="M 90.5 81 L 90.5 82 L 90.5 81 Z " /><path fill="rgb(192,125,235)" stroke="rgb(192,125,235)" stroke-width="1" opacity="0.996078431372549" d="M 91.5 83 L 91.5 84 L 91.5 83 Z " /><path fill="rgb(192,125,235)" stroke="rgb(192,125,235)" stroke-width="1" opacity="0.996078431372549" d="M 92.5 85 L 92.5 86 L 92.5 85 Z " /><path fill="rgb(192,125,235)" stroke="rgb(192,125,235)" stroke-width="1" opacity="0.996078431372549" d="M 96.5 92 L 96.5 93 L 96.5 92 Z " /><path fill="rgb(192,125,235)" stroke="rgb(192,125,235)" stroke-width="1" opacity="0.996078431372549" d="M 97.5 94 L 97.5 95 L 97.5 94 Z " /><path fill="rgb(192,125,235)" stroke="rgb(192,125,235)" stroke-width="1" opacity="0.996078431372549" d="M 84.5 101 L 84.5 102 L 84.5 101 Z " /><path fill="rgb(192,125,235)" stroke="rgb(192,125,235)" stroke-width="1" opacity="0.996078431372549" d="M 85.5 103 L 85.5 104 L 85.5 103 Z " /><path fill="rgb(192,125,235)" stroke="rgb(192,125,235)" stroke-width="1" opacity="0.996078431372549" d="M 102.5 103 L 102.5 104 L 102.5 103 Z " /><path fill="rgb(192,125,235)" stroke="rgb(192,125,235)" stroke-width="1" opacity="0.996078431372549" d="M 82.5 104 L 82.5 105 L 82.5 104 Z " /><path fill="rgb(192,125,235)" stroke="rgb(192,125,235)" stroke-width="1" opacity="0.996078431372549" d="M 103.5 105 L 103.5 106 L 103.5 105 Z " /><path fill="rgb(192,125,235)" stroke="rgb(192,125,235)" stroke-width="1" opacity="0.996078431372549" d="M 89.5 112 L 89.5 113 L 89.5 112 Z " /><path fill="rgb(192,125,235)" stroke="rgb(192,125,235)" stroke-width="1" opacity="0.996078431372549" d="M 90.5 114 L 90.5 115 L 90.5 114 Z " /><path fill="rgb(192,125,235)" stroke="rgb(192,125,235)" stroke-width="1" opacity="0.996078431372549" d="M 108.5 114 L 108.5 115 L 108.5 114 Z " /><path fill="rgb(192,125,235)" stroke="rgb(192,125,235)" stroke-width="1" opacity="0.996078431372549" d="M 83.5 116 L 83.5 117 L 83.5 116 Z " /><path fill="rgb(192,125,235)" stroke="rgb(192,125,235)" stroke-width="1" opacity="0.996078431372549" d="M 91.5 116 L 91.5 117 L 91.5 116 Z " /><path fill="rgb(192,125,235)" stroke="rgb(192,125,235)" stroke-width="1" opacity="0.996078431372549" d="M 109.5 116 L 109.5 117 L 109.5 116 Z " /><path fill="rgb(192,125,235)" stroke="rgb(192,125,235)" stroke-width="1" opacity="0.996078431372549" d="M 114.5 125 L 114.5 126 L 114.5 125 Z " /><path fill="rgb(192,125,235)" stroke="rgb(192,125,235)" stroke-width="1" opacity="0.996078431372549" d="M 96.5 126 L 96.5 127 L 96.5 126 Z " /><path fill="rgb(192,125,235)" stroke="rgb(192,125,235)" stroke-width="1" opacity="0.996078431372549" d="M 115.5 127 L 115.5 128 L 115.5 127 Z " /><path fill="rgb(192,125,235)" stroke="rgb(192,125,235)" stroke-width="1" opacity="0.996078431372549" d="M 84.5 128 L 85 129.5 L 84 129.5 L 84.5 128 Z " /><path fill="rgb(192,125,235)" stroke="rgb(192,125,235)" stroke-width="1" opacity="0.996078431372549" d="M 97.5 128 L 97.5 129 L 97.5 128 Z " /><path fill="rgb(192,125,235)" stroke="rgb(192,125,235)" stroke-width="1" opacity="0.996078431372549" d="M 98.5 130 L 98.5 131 L 98.5 130 Z " /><path fill="rgb(192,125,235)" stroke="rgb(192,125,235)" stroke-width="1" opacity="0.996078431372549" d="M 118.5 133 L 118.5 134 L 118.5 133 Z " /><path fill="rgb(192,125,235)" stroke="rgb(192,125,235)" stroke-width="1" opacity="0.996078431372549" d="M 127.5 133 L 128 134.5 L 127 134.5 L 127.5 133 Z " /><path fill="rgb(192,125,235)" stroke="rgb(192,125,235)" stroke-width="1" opacity="0.996078431372549" d="M 119.5 135 L 119.5 136 L 119.5 135 Z " /><path fill="rgb(192,125,235)" stroke="rgb(192,125,235)" stroke-width="1" opacity="0.996078431372549" d="M 120.5 137 L 120.5 138 L 120.5 137 Z " /><path fill="rgb(192,125,235)" stroke="rgb(192,125,235)" stroke-width="1" opacity="0.996078431372549" d="M 103.5 139 L 103.5 140 L 103.5 139 Z " /><path fill="rgb(192,125,235)" stroke="rgb(192,125,235)" stroke-width="1" opacity="0.996078431372549" d="M 104.5 141 L 104.5 142 L 104.5 141 Z " /><path fill="rgb(192,125,235)" stroke="rgb(192,125,235)" stroke-width="1" opacity="0.996078431372549" d="M 124.5 146 L 124.5 147 L 124.5 146 Z " /><path fill="rgb(192,125,235)" stroke="rgb(192,125,235)" stroke-width="1" opacity="0.996078431372549" d="M 125.5 148 L 125.5 149 L 125.5 148 Z " /><path fill="rgb(192,125,235)" stroke="rgb(192,125,235)" stroke-width="1" opacity="0.996078431372549" d="M 109.5 150 L 109.5 151 L 109.5 150 Z " /><path fill="rgb(192,125,235)" stroke="rgb(192,125,235)" stroke-width="1" opacity="0.996078431372549" d="M 126.5 150 L 126.5 151 L 126.5 150 Z " /><path fill="rgb(192,125,235)" stroke="rgb(192,125,235)" stroke-width="1" opacity="0.996078431372549" d="M 110.5 152 L 110.5 153 L 110.5 152 Z " /><path fill="rgb(192,125,235)" stroke="rgb(192,125,235)" stroke-width="1" opacity="0.996078431372549" d="M 111.5 154 L 111.5 155 L 111.5 154 Z " /><path fill="rgb(192,125,235)" stroke="rgb(192,125,235)" stroke-width="1" opacity="0.996078431372549" d="M 116.5 163 L 116.5 164 L 116.5 163 Z " /><path fill="rgb(192,125,235)" stroke="rgb(192,125,235)" stroke-width="1" opacity="0.996078431372549" d="M 117.5 165 L 117.5 166 L 117.5 165 Z " /><path fill="rgb(192,125,235)" stroke="rgb(192,125,235)" stroke-width="1" opacity="0.996078431372549" d="M 122.5 174 L 122.5 175 L 122.5 174 Z " /><path fill="rgb(192,125,235)" stroke="rgb(192,125,235)" stroke-width="1" opacity="0.996078431372549" d="M 123.5 176 L 123.5 177 L 123.5 176 Z " /><path fill="rgb(192,125,235)" stroke="rgb(192,125,235)" stroke-width="1" opacity="0.996078431372549" d="M 124.5 178 L 124.5 179 L 124.5 178 Z " /><path fill="rgb(192,125,235)" stroke="rgb(192,125,235)" stroke-width="1" opacity="0.996078431372549" d="M 25 195 L 61 195 L 61 228.5 L 58.5 231 L 37.5 231 L 33.5 229 L 32 229.5 L 30.5 227 L 28 225.5 L 25 219.5 L 25 195 Z " /><path fill="rgb(192,125,235)" stroke="rgb(192,125,235)" stroke-width="1" opacity="0.996078431372549" d="M 72 195 L 95 195 L 95 231 L 72 231 L 72 195 Z " /><path fill="rgb(192,125,235)" stroke="rgb(192,125,235)" stroke-width="1" opacity="0.996078431372549" d="M 106 195 L 122 195 L 122 230 L 119.5 231 L 106 231 L 106 195 Z " /><path fill="rgb(192,125,235)" stroke="rgb(192,125,235)" stroke-width="1" opacity="0.996078431372549" d="M 133 195 L 150 195 L 150 230 L 147.5 231 L 133 231 L 133 195 Z " /><path fill="rgb(192,125,235)" stroke="rgb(192,125,235)" stroke-width="1" opacity="0.996078431372549" d="M 161 195 L 184 195 L 184 231 L 161 231 L 161 195 Z " /><path fill="rgb(192,125,235)" stroke="rgb(192,125,235)" stroke-width="1" opacity="0.996078431372549" d="M 195 195 L 231 195 L 231 219.5 L 230 224 Q 227.3 222.9 228 225.5 L 221.5 230 L 219.5 230 L 216.5 231 L 195 231 L 195 195 Z " /><path fill="rgb(192,125,235)" stroke="rgb(192,125,235)" stroke-width="1" opacity="1" d="M 33 74 L 52.5 74 L 53 74.5 L 53 180 L 33.5 180 L 33 179.5 L 33 74 Z " /><path fill="rgb(192,125,235)" stroke="rgb(192,125,235)" stroke-width="1" opacity="1" d="M 66 74 L 85.5 74 L 88 76.5 L 117 129.5 L 128.5 154 L 129 144.5 L 128 143.5 L 128 133.5 L 127 132.5 L 127 74 L 145.5 74 L 146 74.5 L 146 180 L 125.5 180 L 125 178.5 L 95 124.5 L 83.5 100 Q 80.1 99.1 82 104.5 L 83 105.5 L 83 116.5 L 84 117.5 L 84 129.5 L 85 130.5 L 85 180 L 66.5 180 L 66 179.5 L 66 74 Z " /><path fill="rgb(192,125,235)" stroke="rgb(192,125,235)" stroke-width="1" opacity="1" d="M 159 74 L 222.5 74 L 223 74.5 L 223 91 L 179 91 L 179 119 L 217 119 L 217 137 L 179 137 L 179 180 L 159 180 L 159 74 Z " /></svg>