<svg width="256" height="256" version="1.1" xmlns="http://www.w3.org/2000/svg" desc="Created with imagetracer.js version 1.2.6" ><path fill="rgb(0,0,0)" stroke="rgb(0,0,0)" stroke-width="1" opacity="0" d="M 0 0 L 256 0 L 256 256 L 0 256 L 0 0 Z M 54 36 L 47 40 Q 43 39 44 42 L 40 44 L 36 54 L 36 80 L 41 83 L 49 83 L 53 79 L 53 68 L 56 59 L 63 54 L 68 53 L 104 53 L 104 120 L 59 120 L 60 118 Q 59 115 62 116 L 66 111 L 66 108 L 68 108 L 68 100 L 66 99 Q 63 100 64 97 L 57 97 L 56 99 L 53 100 L 46 106 Q 43 105 44 108 L 39 112 Q 36 111 37 114 L 34 116 Q 31 115 32 119 L 29 120 L 25 125 Q 24 132 28 135 Q 27 137 31 136 L 32 139 L 39 144 Q 41 143 40 146 L 45 149 Q 47 148 46 151 L 51 154 Q 53 153 52 156 L 56 158 Q 65 160 68 155 L 68 149 L 62 140 L 60 140 L 60 136 L 104 136 L 104 203 L 69 203 L 62 201 L 56 197 L 53 188 L 53 177 L 51 176 L 49 172 Q 40 170 38 175 Q 39 177 36 176 L 36 203 L 40 211 Q 45 217 54 220 L 121 220 L 121 36 L 54 36 Z M 135 36 L 135 220 L 203 220 L 212 215 Q 218 211 220 203 L 220 177 L 218 176 L 216 172 Q 207 170 205 175 Q 206 177 203 176 L 203 188 L 201 196 L 199 197 L 196 201 L 189 203 L 152 203 L 152 136 L 196 136 L 196 140 L 195 140 L 188 149 L 188 155 L 193 158 Q 200 160 203 156 Q 205 157 204 154 L 209 151 Q 211 152 210 149 L 215 146 Q 217 147 216 144 L 222 141 L 224 138 L 228 136 L 231 131 Q 232 121 227 119 Q 224 120 225 118 L 222 115 Q 219 116 220 114 L 214 108 Q 211 109 212 106 Q 205 103 200 97 L 194 97 L 188 102 Q 187 109 190 108 L 190 111 L 195 116 Q 197 115 196 119 L 197 120 L 152 120 L 152 53 L 189 53 L 196 55 L 202 63 L 203 79 L 208 83 L 216 83 L 220 80 L 220 53 L 216 46 Q 217 43 215 44 L 212 40 L 204 36 L 135 36 Z " /><path fill="rgb(232,145,50)" stroke="rgb(232,145,50)" stroke-width="1" opacity="0.3843137254901961" d="M 53.5 36 L 121 36 L 121 220 L 53.5 220 Q 44.8 217.2 40 210.5 L 36 202.5 L 36 176 Q 38.7 177.1 38 174.5 Q 40 170 48.5 172 L 51 176 L 53 176.5 L 53 187.5 L 56 197 L 61.5 201 L 68.5 203 L 104 203 L 104 136 L 60 136 L 60 140 L 61.5 140 L 68 148.5 L 68 154.5 Q 65.3 159.8 55.5 158 L 52 156 Q 53.1 153.3 50.5 154 L 46 151 Q 47.1 148.3 44.5 149 L 40 146 Q 41.1 143.3 38.5 144 L 32 138.5 L 30.5 136 Q 27.2 137.1 28 134.5 Q 23.7 132.3 25 124.5 L 28.5 120 L 32 118.5 Q 30.9 115.2 33.5 116 L 37 113.5 Q 36.3 111.3 38.5 112 L 44 107.5 Q 43.3 105.3 45.5 106 L 52.5 100 L 56 99 L 56.5 97 L 64 97 Q 62.9 99.7 65.5 99 L 68 100 L 68 107.5 L 66 108 L 66 110.5 L 61.5 116 Q 59.3 115.3 60 117.5 L 59 120 L 56 119.5 L 58 116 Q 60.7 117.1 60 114.5 L 66 107.5 L 66 102.5 Q 64.4 98.1 57.5 99 L 52 102 Q 53.1 104.7 50.5 104 L 40 112 Q 41.1 114.7 38.5 114 L 27 124.5 L 26 128.5 L 31.5 136 L 50 150 Q 48.9 152.7 51.5 152 Q 54.3 156.3 60.5 157 L 66 153.5 L 66 148.5 L 56 136.5 L 57.5 135 L 104.5 135 L 106 136.5 L 106 202.5 L 104.5 204 L 63.5 204 L 56 200 L 52 192.5 L 52 178.5 L 47.5 174 Q 39.5 172.5 38 177.5 L 37 180.5 L 37 197.5 L 40 207.5 L 43 212 L 48.5 216 L 56.5 219 L 120 219 L 120 37 L 56.5 37 Q 47.1 39.1 42 45.5 Q 34.4 55.4 37 75.5 L 40.5 81 L 46.5 82 L 51 78.5 L 52 76.5 L 52 63.5 L 58.5 54 L 62.5 52 L 106 52 L 106 119.5 L 104 120 L 104 53 L 67.5 53 L 62.5 54 L 56 58.5 L 53 67.5 L 53 78.5 L 48.5 83 L 40.5 83 L 36 80 L 36 53.5 L 40 44 L 44 41.5 Q 43.2 38.9 46.5 40 L 53.5 36 Z " /><path fill="rgb(232,145,50)" stroke="rgb(232,145,50)" stroke-width="1" opacity="0.3843137254901961" d="M 135 36 L 203.5 36 L 212 40 L 214.5 44 Q 216.8 43.3 216 45.5 L 220 52.5 L 220 80 L 215.5 83 L 207.5 83 L 203 78.5 L 202 62.5 L 195.5 55 L 188.5 53 L 152 53 L 152 119.5 L 150 120 L 150 52 L 193.5 52 L 200 56.5 L 202 59.5 L 204 62.5 L 204 76.5 L 206.5 80 Q 208.2 82.8 213.5 82 L 218 78.5 L 219 75.5 L 219 57.5 Q 217.3 47.3 210.5 42 L 199.5 37 L 136 37 L 136 219 L 199.5 219 Q 210.9 216.4 216 207.5 L 219 197.5 L 219 180.5 L 214.5 174 Q 206.5 172.5 205 177.5 L 204 179.5 L 204 192.5 L 200 200 L 192.5 204 L 151.5 204 L 150 202.5 L 150 136.5 L 151.5 135 L 200 135 L 192 145.5 Q 189.3 147.8 190 153.5 Q 191.8 156.8 196.5 157 L 206 152 Q 204.9 149.3 207.5 150 L 228 132.5 L 230 127.5 Q 228.4 120.6 222.5 118 L 216 114 Q 217.1 111.3 214.5 112 L 204 104 Q 205.1 101.3 202.5 102 Q 200.9 98.1 194.5 99 L 190 102.5 L 190 106.5 L 196 116 Q 198.7 114.9 198 117.5 L 199.5 120 L 196 118.5 Q 197.1 115.2 194.5 116 L 190 110.5 L 190 108 Q 186.5 109.1 188 101.5 L 193.5 97 L 199.5 97 Q 204.5 103.5 212 106 Q 210.9 108.7 213.5 108 L 220 113.5 Q 219.3 115.8 221.5 115 L 225 117.5 Q 224.3 119.8 226.5 119 Q 232.3 121.2 231 130.5 L 228 136 L 224 137.5 L 221.5 141 L 216 144 Q 217.1 146.7 214.5 146 L 210 149 Q 211.1 151.7 208.5 151 L 204 154 Q 205.1 156.7 202.5 156 Q 200.5 160 192.5 158 L 188 154.5 L 188 148.5 L 194.5 140 L 196 140 L 196 136 L 152 136 L 152 203 L 188.5 203 L 196 201 L 198.5 197 L 201 195.5 L 203 187.5 L 203 176 Q 205.7 177.1 205 174.5 Q 207 170 215.5 172 L 218 176 L 220 176.5 L 220 202.5 Q 217.6 210.6 211.5 215 L 202.5 220 L 135 220 L 135 36 Z " /><path fill="rgb(232,143,52)" stroke="rgb(232,143,52)" stroke-width="1" opacity="0.996078431372549" d="M 56.5 37 L 120 37 L 120 219 L 56.5 219 L 48.5 216 L 43 212 Q 34.6 202.1 37 180.5 L 41.5 174 Q 50.5 172.5 52 178.5 L 52 192.5 L 56 200 L 63.5 204 L 104.5 204 L 106 202.5 L 106 136.5 L 104.5 135 L 57.5 135 L 56 136.5 L 60 140.5 L 66 148.5 L 66 153.5 Q 64.1 157.1 58.5 157 L 50 152 Q 51.1 149.3 48.5 150 L 28 132.5 L 26 126.5 L 33.5 118 L 40 114 Q 38.9 111.3 41.5 112 L 52 104 Q 50.9 101.3 53.5 102 Q 55.1 98.1 61.5 99 L 66 102.5 L 66 107.5 L 60 116 Q 57.3 114.9 58 117.5 L 56.5 120 L 106 120 L 106 52 L 62.5 52 L 56 56.5 L 52 63.5 L 52 76.5 L 49.5 80 Q 47.8 82.8 42.5 82 L 39 79.5 L 37 75.5 L 37 57.5 Q 38.8 47.3 45.5 42 L 56.5 37 Z " /><path fill="rgb(232,143,52)" stroke="rgb(232,143,52)" stroke-width="1" opacity="0.996078431372549" d="M 136 37 L 199.5 37 Q 208.9 39.1 214 45.5 Q 221.6 55.4 219 75.5 L 215.5 81 L 209.5 82 L 205 78.5 L 204 76.5 L 204 62.5 L 202 58 Q 199.3 59.1 200 56.5 L 193.5 52 L 150 52 L 150 120 L 199.5 120 L 198 117.5 L 196 114.5 Q 190.2 111.3 190 102.5 Q 191.6 98.1 198.5 99 L 204 102 Q 202.9 104.7 205.5 104 L 216 112 Q 214.9 114.7 217.5 114 L 229 124.5 L 230 128.5 L 224.5 136 L 206 150 Q 207.1 152.7 204.5 152 Q 201.8 156.3 195.5 157 L 190 153.5 Q 189.3 147.8 192 145.5 L 200 135 L 151.5 135 L 150 136.5 L 150 202.5 L 151.5 204 L 192.5 204 L 200 200 L 204 192.5 L 204 179.5 L 208.5 174 Q 216.5 172.5 218 177.5 L 219 180.5 L 219 197.5 L 216 207.5 L 207.5 216 L 199.5 219 L 136 219 L 136 37 Z " /></svg>