<svg width="200" height="200" version="1.1" xmlns="http://www.w3.org/2000/svg" desc="Created with imagetracer.js version 1.2.6" ><path fill="rgb(0,0,0)" stroke="rgb(0,0,0)" stroke-width="1" opacity="0" d="M 0 0 L 200 0 L 200 200 L 0 200 L 0 0 Z M 98 30 Q 79 34 67 44 L 51 61 L 44 74 L 40 87 L 40 114 L 41 118 Q 47 137 59 150 L 79 164 L 97 170 L 121 170 L 126 169 Q 141 164 153 155 L 160 147 L 160 138 L 154 132 L 147 132 L 133 143 L 116 149 L 97 148 L 81 140 Q 66 129 61 109 Q 59 96 62 88 L 71 70 Q 82 55 103 51 L 121 52 Q 132 55 140 62 L 142 66 L 147 68 L 156 67 Q 163 65 160 53 Q 149 40 132 33 L 121 30 L 98 30 Z " /><path fill="rgb(129,129,129)" stroke="rgb(129,129,129)" stroke-width="1" opacity="0.2901960784313726" d="M 97.5 30 L 102 30.5 L 97.5 31 L 97.5 30 Z " /><path fill="rgb(129,129,129)" stroke="rgb(129,129,129)" stroke-width="1" opacity="0.2901960784313726" d="M 115.5 30 L 121 30.5 L 115.5 31 L 115.5 30 Z " /><path fill="rgb(129,129,129)" stroke="rgb(129,129,129)" stroke-width="1" opacity="0.2901960784313726" d="M 92.5 31 L 95 31.5 L 86.5 34 L 86.5 33 L 92.5 31 Z " /><path fill="rgb(129,129,129)" stroke="rgb(129,129,129)" stroke-width="1" opacity="0.2901960784313726" d="M 122.5 31 L 134 34.5 L 132.5 35 L 122.5 32 L 122.5 31 Z " /><path fill="rgb(129,129,129)" stroke="rgb(129,129,129)" stroke-width="1" opacity="0.2901960784313726" d="M 83.5 34 L 85 34.5 L 81.5 36 L 81.5 35 L 83.5 34 Z " /><path fill="rgb(129,129,129)" stroke="rgb(129,129,129)" stroke-width="1" opacity="0.2901960784313726" d="M 135.5 35 L 148 42.5 L 145.5 41 L 135.5 36 L 135.5 35 Z " /><path fill="rgb(129,129,129)" stroke="rgb(129,129,129)" stroke-width="1" opacity="0.2901960784313726" d="M 79.5 36 L 78.5 38 Q 64 44.5 55 56.5 L 50.5 63 L 51 61.5 Q 56.7 50.7 66.5 44 L 79.5 36 Z " /><path fill="rgb(129,129,129)" stroke="rgb(129,129,129)" stroke-width="1" opacity="0.2901960784313726" d="M 149.5 43 L 152.5 47 L 149.5 43 Z " /><path fill="rgb(129,129,129)" stroke="rgb(129,129,129)" stroke-width="1" opacity="0.2901960784313726" d="M 154.5 47 L 160 52.5 L 160 54.5 L 159 54.5 L 154.5 47 Z " /><path fill="rgb(129,129,129)" stroke="rgb(129,129,129)" stroke-width="1" opacity="0.2901960784313726" d="M 102.5 50 L 115.5 50 L 126 53.5 L 124.5 54 Q 116.6 49.4 102.5 51 L 94.5 53 L 94.5 52 L 102.5 50 Z " /><path fill="rgb(129,129,129)" stroke="rgb(129,129,129)" stroke-width="1" opacity="0.2901960784313726" d="M 89.5 54 L 88.5 56 Q 77.5 60.5 71 69.5 L 68.5 73 L 70 70.5 L 79.5 60 L 89.5 54 Z " /><path fill="rgb(129,129,129)" stroke="rgb(129,129,129)" stroke-width="1" opacity="0.2901960784313726" d="M 127.5 54 L 132 56.5 L 130.5 56 Q 126.7 55.8 127.5 54 Z " /><path fill="rgb(129,129,129)" stroke="rgb(129,129,129)" stroke-width="1" opacity="0.2901960784313726" d="M 133.5 57 L 139 61.5 L 135.5 59 L 133.5 57 Z " /><path fill="rgb(129,129,129)" stroke="rgb(129,129,129)" stroke-width="1" opacity="0.2901960784313726" d="M 159.5 60 L 160 62.5 Q 157.6 69.6 146.5 68 L 142 66 L 140 62.5 L 144.5 66 L 153.5 67 L 159 62.5 L 159.5 60 Z " /><path fill="rgb(129,129,129)" stroke="rgb(129,129,129)" stroke-width="1" opacity="0.2901960784313726" d="M 49.5 64 L 49 65.5 L 44.5 76 L 44 73.5 L 49.5 64 Z " /><path fill="rgb(129,129,129)" stroke="rgb(129,129,129)" stroke-width="1" opacity="0.2901960784313726" d="M 67.5 74 L 67 75.5 L 62.5 87 L 62 84.5 L 67.5 74 Z " /><path fill="rgb(129,129,129)" stroke="rgb(129,129,129)" stroke-width="1" opacity="0.2901960784313726" d="M 42.5 79 L 43 81.5 Q 40.3 85.8 40.5 93 L 40 86.5 L 42.5 79 Z " /><path fill="rgb(129,129,129)" stroke="rgb(129,129,129)" stroke-width="1" opacity="0.2901960784313726" d="M 61.5 88 L 62 90.5 L 61 90.5 L 61.5 88 Z " /><path fill="rgb(129,129,129)" stroke="rgb(129,129,129)" stroke-width="1" opacity="0.2901960784313726" d="M 60.5 93 L 61 106.5 L 60 106.5 L 60.5 93 Z " /><path fill="rgb(129,129,129)" stroke="rgb(129,129,129)" stroke-width="1" opacity="0.2901960784313726" d="M 40.5 108 Q 42.3 124.7 50 135.5 L 48 134.5 L 41 117.5 L 40.5 108 Z " /><path fill="rgb(129,129,129)" stroke="rgb(129,129,129)" stroke-width="1" opacity="0.2901960784313726" d="M 61.5 109 Q 63 119 68 125.5 L 66 124.5 L 61 112.5 L 61.5 109 Z " /><path fill="rgb(129,129,129)" stroke="rgb(129,129,129)" stroke-width="1" opacity="0.2901960784313726" d="M 68.5 127 L 80.5 140 L 90 145.5 L 88.5 145 Q 76.5 140.5 70 130.5 L 68.5 127 Z " /><path fill="rgb(129,129,129)" stroke="rgb(129,129,129)" stroke-width="1" opacity="0.2901960784313726" d="M 146.5 132 Q 157.6 130.4 160 137.5 L 159.5 140 L 155.5 134 L 146.5 133 L 140.5 138 L 144.5 133 L 146.5 132 Z " /><path fill="rgb(129,129,129)" stroke="rgb(129,129,129)" stroke-width="1" opacity="0.2901960784313726" d="M 50.5 137 L 66.5 155 L 76 161.5 L 74.5 161 L 59 149.5 L 51 139.5 L 50.5 137 Z " /><path fill="rgb(129,129,129)" stroke="rgb(129,129,129)" stroke-width="1" opacity="0.2901960784313726" d="M 138.5 138 L 135.5 142 L 133.5 143 L 134.5 141 L 138.5 138 Z " /><path fill="rgb(129,129,129)" stroke="rgb(129,129,129)" stroke-width="1" opacity="0.2901960784313726" d="M 131.5 143 L 130.5 145 L 127.5 146 L 127.5 145 L 131.5 143 Z " /><path fill="rgb(129,129,129)" stroke="rgb(129,129,129)" stroke-width="1" opacity="0.2901960784313726" d="M 159.5 145 L 160 146.5 L 152.5 155 L 149.5 157 L 151.5 154 L 158 148.5 L 159.5 145 Z " /><path fill="rgb(129,129,129)" stroke="rgb(129,129,129)" stroke-width="1" opacity="0.2901960784313726" d="M 124.5 146 L 126 146.5 L 115.5 150 L 102.5 150 L 97 148.5 L 101.5 148 L 102.5 149 L 115.5 149 L 124.5 146 Z " /><path fill="rgb(129,129,129)" stroke="rgb(129,129,129)" stroke-width="1" opacity="0.2901960784313726" d="M 147.5 157 L 145.5 160 L 143.5 161 L 144.5 159 L 147.5 157 Z " /><path fill="rgb(129,129,129)" stroke="rgb(129,129,129)" stroke-width="1" opacity="0.2901960784313726" d="M 141.5 161 L 140.5 163 L 135.5 165 L 135.5 164 L 141.5 161 Z " /><path fill="rgb(129,129,129)" stroke="rgb(129,129,129)" stroke-width="1" opacity="0.2901960784313726" d="M 77.5 162 L 91 167.5 L 88.5 168 L 78.5 164 L 77.5 162 Z " /><path fill="rgb(129,129,129)" stroke="rgb(129,129,129)" stroke-width="1" opacity="0.2901960784313726" d="M 132.5 165 L 134 165.5 L 122.5 169 L 122.5 168 L 132.5 165 Z " /><path fill="rgb(129,129,129)" stroke="rgb(129,129,129)" stroke-width="1" opacity="0.2901960784313726" d="M 92.5 168 L 95 168.5 L 92.5 169 L 92.5 168 Z " /><path fill="rgb(129,129,129)" stroke="rgb(129,129,129)" stroke-width="1" opacity="0.2901960784313726" d="M 96.5 169 L 101 169.5 L 96.5 170 L 96.5 169 Z " /><path fill="rgb(129,129,129)" stroke="rgb(129,129,129)" stroke-width="1" opacity="0.2901960784313726" d="M 116.5 169 L 121 169.5 L 116.5 170 L 116.5 169 Z " /><path fill="rgb(127,127,127)" stroke="rgb(127,127,127)" stroke-width="1" opacity="0.8705882352941177" d="M 102.5 30 L 115 30.5 L 102.5 31 L 102.5 30 Z " /><path fill="rgb(127,127,127)" stroke="rgb(127,127,127)" stroke-width="1" opacity="0.8705882352941177" d="M 95.5 31 L 99 31.5 L 95.5 32 L 95.5 31 Z " /><path fill="rgb(127,127,127)" stroke="rgb(127,127,127)" stroke-width="1" opacity="0.8705882352941177" d="M 119.5 31 L 122 31.5 L 119.5 32 L 119.5 31 Z " /><path fill="rgb(127,127,127)" stroke="rgb(127,127,127)" stroke-width="1" opacity="0.8705882352941177" d="M 73.5 40 L 72.5 42 L 73.5 40 Z " /><path fill="rgb(127,127,127)" stroke="rgb(127,127,127)" stroke-width="1" opacity="0.8705882352941177" d="M 145.5 41 L 146.5 43 L 145.5 41 Z " /><path fill="rgb(127,127,127)" stroke="rgb(127,127,127)" stroke-width="1" opacity="0.8705882352941177" d="M 70.5 42 L 69.5 44 L 70.5 42 Z " /><path fill="rgb(127,127,127)" stroke="rgb(127,127,127)" stroke-width="1" opacity="0.8705882352941177" d="M 148.5 43 L 149.5 45 L 148.5 43 Z " /><path fill="rgb(127,127,127)" stroke="rgb(127,127,127)" stroke-width="1" opacity="0.8705882352941177" d="M 66.5 45 L 63.5 49 L 66.5 45 Z " /><path fill="rgb(127,127,127)" stroke="rgb(127,127,127)" stroke-width="1" opacity="0.8705882352941177" d="M 153.5 47 L 157.5 52 L 153.5 47 Z " /><path fill="rgb(127,127,127)" stroke="rgb(127,127,127)" stroke-width="1" opacity="0.8705882352941177" d="M 106.5 49 L 112 49.5 L 106.5 50 L 106.5 49 Z " /><path fill="rgb(127,127,127)" stroke="rgb(127,127,127)" stroke-width="1" opacity="0.8705882352941177" d="M 99.5 50 L 102 50.5 L 99.5 51 L 99.5 50 Z " /><path fill="rgb(127,127,127)" stroke="rgb(127,127,127)" stroke-width="1" opacity="0.8705882352941177" d="M 58.5 53 L 55.5 57 L 58.5 53 Z " /><path fill="rgb(127,127,127)" stroke="rgb(127,127,127)" stroke-width="1" opacity="0.8705882352941177" d="M 131.5 55 L 132.5 57 L 131.5 55 Z " /><path fill="rgb(127,127,127)" stroke="rgb(127,127,127)" stroke-width="1" opacity="0.8705882352941177" d="M 159.5 55 L 160 59.5 L 159 59.5 L 159.5 55 Z " /><path fill="rgb(127,127,127)" stroke="rgb(127,127,127)" stroke-width="1" opacity="0.8705882352941177" d="M 54.5 58 L 52.5 61 L 54.5 58 Z " /><path fill="rgb(127,127,127)" stroke="rgb(127,127,127)" stroke-width="1" opacity="0.8705882352941177" d="M 81.5 58 L 80.5 60 L 81.5 58 Z " /><path fill="rgb(127,127,127)" stroke="rgb(127,127,127)" stroke-width="1" opacity="0.8705882352941177" d="M 137.5 59 L 139.5 62 L 137.5 59 Z " /><path fill="rgb(127,127,127)" stroke="rgb(127,127,127)" stroke-width="1" opacity="0.8705882352941177" d="M 77.5 61 L 71.5 68 L 77.5 61 Z " /><path fill="rgb(127,127,127)" stroke="rgb(127,127,127)" stroke-width="1" opacity="0.8705882352941177" d="M 51.5 62 L 50.5 64 L 51.5 62 Z " /><path fill="rgb(127,127,127)" stroke="rgb(127,127,127)" stroke-width="1" opacity="0.8705882352941177" d="M 158.5 62 L 155.5 66 L 158.5 62 Z " /><path fill="rgb(127,127,127)" stroke="rgb(127,127,127)" stroke-width="1" opacity="0.8705882352941177" d="M 143.5 64 L 144.5 66 L 143.5 64 Z " /><path fill="rgb(127,127,127)" stroke="rgb(127,127,127)" stroke-width="1" opacity="0.8705882352941177" d="M 69.5 70 L 68.5 72 L 69.5 70 Z " /><path fill="rgb(127,127,127)" stroke="rgb(127,127,127)" stroke-width="1" opacity="0.8705882352941177" d="M 67.5 73 L 66.5 75 L 67.5 73 Z " /><path fill="rgb(127,127,127)" stroke="rgb(127,127,127)" stroke-width="1" opacity="0.8705882352941177" d="M 42.5 82 L 43 84.5 L 42 84.5 L 42.5 82 Z " /><path fill="rgb(127,127,127)" stroke="rgb(127,127,127)" stroke-width="1" opacity="0.8705882352941177" d="M 61.5 85 L 62 87.5 L 61 87.5 L 61.5 85 Z " /><path fill="rgb(127,127,127)" stroke="rgb(127,127,127)" stroke-width="1" opacity="0.8705882352941177" d="M 41.5 86 L 42 88.5 L 41 88.5 L 41.5 86 Z " /><path fill="rgb(127,127,127)" stroke="rgb(127,127,127)" stroke-width="1" opacity="0.8705882352941177" d="M 60.5 89 L 61 92.5 L 60 92.5 L 60.5 89 Z " /><path fill="rgb(127,127,127)" stroke="rgb(127,127,127)" stroke-width="1" opacity="0.8705882352941177" d="M 40.5 93 L 41 98.5 L 40 98.5 L 40.5 93 Z " /><path fill="rgb(127,127,127)" stroke="rgb(127,127,127)" stroke-width="1" opacity="0.8705882352941177" d="M 40.5 101 L 41 107.5 L 40 107.5 L 40.5 101 Z " /><path fill="rgb(127,127,127)" stroke="rgb(127,127,127)" stroke-width="1" opacity="0.8705882352941177" d="M 60.5 107 L 61 110.5 L 60 110.5 L 60.5 107 Z " /><path fill="rgb(127,127,127)" stroke="rgb(127,127,127)" stroke-width="1" opacity="0.8705882352941177" d="M 41.5 111 L 42 113.5 L 41 113.5 L 41.5 111 Z " /><path fill="rgb(127,127,127)" stroke="rgb(127,127,127)" stroke-width="1" opacity="0.8705882352941177" d="M 66.5 125 L 67.5 127 L 66.5 125 Z " /><path fill="rgb(127,127,127)" stroke="rgb(127,127,127)" stroke-width="1" opacity="0.8705882352941177" d="M 68.5 128 L 69.5 130 L 68.5 128 Z " /><path fill="rgb(127,127,127)" stroke="rgb(127,127,127)" stroke-width="1" opacity="0.8705882352941177" d="M 70.5 131 L 78.5 140 L 70.5 131 Z " /><path fill="rgb(127,127,127)" stroke="rgb(127,127,127)" stroke-width="1" opacity="0.8705882352941177" d="M 144.5 134 L 143.5 136 L 144.5 134 Z " /><path fill="rgb(127,127,127)" stroke="rgb(127,127,127)" stroke-width="1" opacity="0.8705882352941177" d="M 155.5 134 L 157.5 137 L 155.5 134 Z " /><path fill="rgb(127,127,127)" stroke="rgb(127,127,127)" stroke-width="1" opacity="0.8705882352941177" d="M 50.5 136 L 51.5 138 L 50.5 136 Z " /><path fill="rgb(127,127,127)" stroke="rgb(127,127,127)" stroke-width="1" opacity="0.8705882352941177" d="M 139.5 138 L 137.5 141 L 139.5 138 Z " /><path fill="rgb(127,127,127)" stroke="rgb(127,127,127)" stroke-width="1" opacity="0.8705882352941177" d="M 52.5 139 L 53.5 141 L 52.5 139 Z " /><path fill="rgb(127,127,127)" stroke="rgb(127,127,127)" stroke-width="1" opacity="0.8705882352941177" d="M 159.5 140 L 160 144.5 L 159 144.5 L 159.5 140 Z " /><path fill="rgb(127,127,127)" stroke="rgb(127,127,127)" stroke-width="1" opacity="0.8705882352941177" d="M 81.5 141 L 82.5 143 L 81.5 141 Z " /><path fill="rgb(127,127,127)" stroke="rgb(127,127,127)" stroke-width="1" opacity="0.8705882352941177" d="M 55.5 143 L 57.5 146 L 55.5 143 Z " /><path fill="rgb(127,127,127)" stroke="rgb(127,127,127)" stroke-width="1" opacity="0.8705882352941177" d="M 132.5 143 L 131.5 145 L 132.5 143 Z " /><path fill="rgb(127,127,127)" stroke="rgb(127,127,127)" stroke-width="1" opacity="0.8705882352941177" d="M 157.5 148 L 152.5 154 L 157.5 148 Z " /><path fill="rgb(127,127,127)" stroke="rgb(127,127,127)" stroke-width="1" opacity="0.8705882352941177" d="M 61.5 149 L 62.5 151 L 61.5 149 Z " /><path fill="rgb(127,127,127)" stroke="rgb(127,127,127)" stroke-width="1" opacity="0.8705882352941177" d="M 99.5 149 L 102 149.5 L 99.5 150 L 99.5 149 Z " /><path fill="rgb(127,127,127)" stroke="rgb(127,127,127)" stroke-width="1" opacity="0.8705882352941177" d="M 106.5 150 L 112 150.5 L 106.5 151 L 106.5 150 Z " /><path fill="rgb(127,127,127)" stroke="rgb(127,127,127)" stroke-width="1" opacity="0.8705882352941177" d="M 65.5 153 L 66.5 155 L 65.5 153 Z " /><path fill="rgb(127,127,127)" stroke="rgb(127,127,127)" stroke-width="1" opacity="0.8705882352941177" d="M 149.5 155 L 148.5 157 L 149.5 155 Z " /><path fill="rgb(127,127,127)" stroke="rgb(127,127,127)" stroke-width="1" opacity="0.8705882352941177" d="M 69.5 156 L 70.5 158 L 69.5 156 Z " /><path fill="rgb(127,127,127)" stroke="rgb(127,127,127)" stroke-width="1" opacity="0.8705882352941177" d="M 143.5 159 L 142.5 161 L 143.5 159 Z " /><path fill="rgb(127,127,127)" stroke="rgb(127,127,127)" stroke-width="1" opacity="0.8705882352941177" d="M 75.5 160 L 76.5 162 L 75.5 160 Z " /><path fill="rgb(127,127,127)" stroke="rgb(127,127,127)" stroke-width="1" opacity="0.8705882352941177" d="M 95.5 168 L 99 168.5 L 95.5 169 L 95.5 168 Z " /><path fill="rgb(127,127,127)" stroke="rgb(127,127,127)" stroke-width="1" opacity="0.8705882352941177" d="M 119.5 168 L 122 168.5 L 119.5 169 L 119.5 168 Z " /><path fill="rgb(127,127,127)" stroke="rgb(127,127,127)" stroke-width="1" opacity="0.8705882352941177" d="M 101.5 169 L 116 169.5 L 101.5 170 L 101.5 169 Z " /><path fill="rgb(127,127,127)" stroke="rgb(127,127,127)" stroke-width="1" opacity="1" d="M 99.5 31 L 118.5 31 L 130.5 34 Q 147.6 39.9 158 52.5 L 159 61.5 L 152.5 67 L 147.5 67 L 127.5 53 Q 118.8 49.2 106.5 49 L 95.5 51 L 84.5 56 L 71 67.5 L 66 74.5 L 61 85.5 L 60 89.5 L 60 110.5 Q 65 129.5 78.5 140 Q 90 150.5 111.5 151 L 127.5 147 Q 137.9 141.9 145.5 134 L 152.5 133 L 159 138.5 L 158 147.5 L 150.5 155 L 128.5 167 L 118.5 169 L 99.5 169 L 81.5 164 L 63 151.5 L 61.5 149 L 58 146.5 Q 50 137.5 45 125.5 L 41 110.5 Q 42.5 103 40 99.5 L 41 98.5 L 41 89.5 L 45 74.5 Q 51.5 59.5 62.5 49 L 79.5 37 L 89.5 33 L 99.5 31 Z " /></svg>