<svg width="256" height="256" version="1.1" xmlns="http://www.w3.org/2000/svg" desc="Created with imagetracer.js version 1.2.6" ><path fill="rgb(156,138,117)" stroke="rgb(156,138,117)" stroke-width="1" opacity="0.3843137254901961" d="M 116.5 25 L 139.5 25 L 161 29 Q 159.8 32 163.5 31 L 173 34 Q 171.8 37 175.5 36 L 195 48 L 196.5 51 L 200 52 L 201.5 56 Q 204.8 54.9 204 57.5 L 206.5 61 Q 208.8 60.3 208 62.5 L 219 77.5 Q 219.4 84.6 224 87.5 L 225 95 Q 228 93.8 227 97.5 L 231 116.5 L 231 139.5 L 228 151.5 L 228 157.5 Q 223.7 160.7 224 168.5 L 208 195 L 204 197.5 Q 205.3 201.3 201.5 200 L 200 204 Q 196.2 203.3 195 206.5 Q 195.8 208.8 193.5 208 Q 190 213 184 214 Q 185.3 217 181.5 216 L 178.5 219 Q 171.4 219.4 168.5 224 L 164.5 224 L 156.5 228 L 138.5 230 L 137.5 231 L 116.5 231 L 104.5 228 L 98.5 228 Q 95.3 223.7 87.5 224 L 82.5 220 L 79.5 220 L 72.5 216 L 60 206.5 Q 60.8 204.3 58.5 205 L 56 204 L 54.5 200 Q 51.2 201.1 52 198.5 L 51 196 L 48 194.5 L 37 178.5 Q 36.6 171.4 32 168.5 L 31 161.5 L 28 157.5 L 28 152.5 L 25 139.5 L 25 116.5 L 29 95 Q 32 96.3 31 92.5 L 32 87.5 L 36 82.5 L 37 77.5 L 48 61 L 51 59.5 L 52 56 L 56 54.5 Q 54.9 51.2 57.5 52 L 61 49.5 Q 60.3 47.3 62.5 48 L 77.5 37 L 83 36 Q 81.9 33.3 84.5 34 L 87.5 32 L 94.5 31 L 98.5 28 Q 109 28 116.5 25 Z M 122 26 L 114 28 L 107 28 L 93 32 L 80 38 L 66 48 Q 63 47 64 50 L 63 50 L 50 63 Q 51 65 48 64 L 36 84 L 30 99 L 26 122 L 26 134 L 30 157 Q 36 177 48 191 Q 47 193 50 192 L 50 194 L 52 194 L 52 196 L 61 204 Q 63 203 62 206 L 64 206 L 64 208 L 91 223 L 108 228 L 123 229 L 124 230 L 133 230 L 134 229 L 149 228 Q 151 225 157 226 L 173 220 L 191 208 Q 193 209 192 206 L 194 206 L 206 194 Q 205 191 208 192 Q 217 179 224 163 L 228 149 L 229 135 L 230 134 L 230 123 L 228 114 L 228 107 L 224 93 L 211 69 L 194 50 Q 191 51 192 48 L 173 36 L 158 30 L 135 26 L 122 26 Z " /><path fill="rgb(156,138,117)" stroke="rgb(156,138,117)" stroke-width="1" opacity="0.3843137254901961" d="M 119.5 44 L 137.5 44 Q 140.8 46.7 147.5 46 L 150.5 48 L 154.5 48 L 164.5 52 Q 180.9 60.1 192 73.5 Q 202.2 85.3 208 101.5 L 208 105.5 L 210 108.5 Q 209.1 115.9 212 119.5 L 212 136.5 L 210 141.5 L 210 147.5 Q 207.2 149.2 208 154.5 L 200 171.5 Q 192.8 183.3 182.5 192 L 171.5 200 L 159.5 206 L 156.5 206 L 154.5 208 L 150.5 208 L 147.5 210 Q 140.1 209.1 136.5 212 L 120.5 212 L 101.5 208 L 84.5 200 Q 72.8 192.8 64 182.5 Q 53.8 170.7 48 154.5 L 46 147.5 L 46 141.5 L 44 136.5 L 44 119.5 L 46 113.5 L 46 108.5 L 52 91.5 Q 60.3 75.3 73.5 64 Q 83.4 55.4 96.5 50 L 119.5 44 Z M 122 46 L 114 48 L 107 48 L 103 50 Q 99 49 100 52 L 94 53 L 77 64 Q 61 77 52 97 Q 53 101 50 100 L 48 107 L 47 122 L 46 123 L 46 134 L 48 143 L 48 150 L 50 154 Q 49 157 52 156 L 53 163 L 64 180 Q 77 195 97 204 Q 101 203 100 206 L 107 208 L 123 209 L 124 210 L 132 210 L 133 209 L 141 209 L 142 208 L 153 207 L 157 204 L 163 203 L 170 198 L 172 198 L 180 192 Q 195 179 204 160 Q 203 155 206 156 L 208 150 L 209 135 L 210 134 L 210 124 L 209 123 L 207 104 L 204 100 L 201 90 L 198 87 Q 199 83 196 84 L 192 77 Q 185 67 174 60 Q 171 61 172 58 L 170 58 L 163 53 L 157 52 L 149 48 L 135 47 L 134 46 L 122 46 Z " /><path fill="rgb(156,138,117)" stroke="rgb(156,138,117)" stroke-width="1" opacity="0.3843137254901961" d="M 126 53 L 130 53 L 130 54.5 L 135 58 L 138.5 63 Q 140.8 62.3 140 64.5 L 149 72 L 152.5 77 Q 154.8 76.3 154 78.5 L 159 82 L 160 87 L 96.5 87 L 96 84.5 L 97 82 L 102 78.5 Q 101.3 76.3 103.5 77 L 107 72 L 116 64.5 Q 115.3 62.3 117.5 63 L 121 58 L 126 54.5 L 126 53 Z M 126 56 L 126 58 L 124 58 L 122 62 L 120 62 L 120 64 L 118 64 L 118 66 L 116 66 L 116 68 L 114 68 L 114 70 L 112 70 L 112 72 L 110 72 L 110 74 L 108 74 L 108 76 L 106 76 L 106 78 L 104 78 L 104 80 L 102 80 L 102 82 L 100 82 L 99 85 L 157 85 L 156 84 Q 157 81 154 82 L 154 80 L 152 80 L 152 78 L 150 78 L 150 76 L 148 76 L 148 74 L 146 74 L 146 72 L 144 72 L 144 70 L 142 70 L 142 68 L 140 68 L 140 66 L 138 66 L 138 64 L 136 64 L 136 62 L 134 62 L 134 60 L 132 60 L 132 58 L 130 58 L 130 56 L 126 56 Z " /><path fill="rgb(156,138,117)" stroke="rgb(156,138,117)" stroke-width="1" opacity="0.3843137254901961" d="M 84.5 96 L 87 96.5 L 87 160 L 84.5 160 L 53 128.5 Q 51.9 125.2 54.5 126 L 58 121 L 63 117.5 Q 62.3 115.3 64.5 116 L 72 107 L 77 103.5 Q 76.3 101.3 78.5 102 L 82 97 L 84.5 96 Z M 85 99 L 84 100 Q 81 99 82 102 L 80 102 L 80 104 L 78 104 L 78 106 L 76 106 L 76 108 L 74 108 L 74 110 L 72 110 L 72 112 L 70 112 L 70 114 L 68 114 L 68 116 L 66 116 L 66 118 L 64 118 L 64 120 L 62 120 L 62 122 L 60 122 L 60 124 L 58 124 L 58 126 L 56 126 L 56 129 L 60 134 L 64 137 Q 63 139 66 138 L 74 147 L 74 148 L 78 151 Q 77 153 80 152 L 85 157 L 85 99 Z " /><path fill="rgb(156,138,117)" stroke="rgb(156,138,117)" stroke-width="1" opacity="0.3843137254901961" d="M 169 96 L 174 97 L 177.5 102 Q 179.8 101.3 179 103.5 L 184 107 L 191.5 116 Q 193.8 115.3 193 117.5 L 198 121 L 201.5 126 L 203 126 L 203 130 L 198 133.5 Q 198.8 135.8 196.5 135 L 193 140 L 184 147.5 Q 184.8 149.8 182.5 149 L 179 154 L 174 157.5 Q 174.8 159.8 172.5 159 L 169 160 L 169 96 Z M 172 99 L 171 157 L 173 156 Q 175 157 174 154 L 176 154 L 176 152 L 178 152 L 178 150 L 180 150 L 180 148 L 182 148 L 182 146 L 184 146 L 184 144 L 186 144 L 186 142 L 188 142 L 188 140 L 190 140 L 190 138 L 192 138 L 192 136 L 194 136 L 194 134 L 196 134 L 196 132 L 198 132 L 198 130 L 200 130 L 200 126 L 198 126 L 196 122 L 194 122 L 194 120 L 192 120 L 192 118 L 190 118 L 190 116 L 188 116 L 188 114 L 186 114 L 186 112 L 184 112 L 184 110 L 182 110 L 182 108 L 180 108 L 180 106 L 178 106 L 178 104 L 176 104 L 176 102 L 174 102 L 174 100 L 172 99 Z " /><path fill="rgb(156,138,117)" stroke="rgb(156,138,117)" stroke-width="1" opacity="0.3843137254901961" d="M 96 169 L 159.5 169 L 160 171.5 L 159 174 L 154 177.5 Q 154.8 179.8 152.5 179 L 149 184 L 140 191.5 Q 140.8 193.8 138.5 193 L 135 198 L 130 201.5 Q 130.8 204.1 127.5 203 L 96 171.5 L 96 169 Z M 100 171 L 104 177 Q 103 179 106 178 L 108 182 L 110 182 L 118 191 Q 117 193 120 192 L 122 196 L 128 200 L 130 200 L 132 196 L 134 196 L 134 194 L 136 194 L 136 192 L 138 192 L 138 190 L 140 190 L 140 188 L 142 188 L 142 186 L 144 186 L 144 184 L 146 184 L 146 182 L 148 182 L 148 180 L 150 180 L 150 178 L 152 178 L 152 176 L 154 176 L 154 174 L 156 174 L 157 172 L 100 171 Z " /><path fill="rgb(158,138,118)" stroke="rgb(158,138,118)" stroke-width="1" opacity="0.996078431372549" d="M 121.5 26 L 134.5 26 L 142 27.5 L 114.5 28 L 114.5 27 Q 120 28.5 121.5 26 Z " /><path fill="rgb(158,138,118)" stroke="rgb(158,138,118)" stroke-width="1" opacity="0.996078431372549" d="M 106.5 28 L 111 28.5 L 103.5 30 L 103.5 29 L 106.5 28 Z " /><path fill="rgb(158,138,118)" stroke="rgb(158,138,118)" stroke-width="1" opacity="0.996078431372549" d="M 145.5 28 L 149.5 28 L 163.5 32 L 181.5 41 L 192 48.5 L 189.5 49 Q 185.1 43.6 178 42 Q 179.3 39 175.5 40 L 167.5 35 L 164.5 35 L 159.5 32 L 154.5 32 L 152.5 30 L 145.5 29 L 145.5 28 Z " /><path fill="rgb(158,138,118)" stroke="rgb(158,138,118)" stroke-width="1" opacity="0.996078431372549" d="M 99.5 30 L 102 30.5 L 100.5 32 L 96.5 32 L 88.5 35 L 64.5 49 L 64.5 48 L 79.5 38 L 99.5 30 Z " /><path fill="rgb(158,138,118)" stroke="rgb(158,138,118)" stroke-width="1" opacity="0.996078431372549" d="M 123.5 43 L 133 43.5 L 123.5 44 L 123.5 43 Z " /><path fill="rgb(158,138,118)" stroke="rgb(158,138,118)" stroke-width="1" opacity="0.996078431372549" d="M 114.5 44 L 119 44.5 Q 82.7 50.2 64 73.5 L 56.5 84 L 56 81.5 L 63 72 L 67 69.5 L 68.5 67 L 72 64.5 Q 71.3 62.3 73.5 63 L 81.5 56 L 86 55 Q 84.9 52.3 87.5 53 L 96 50 Q 94.7 46.3 100.5 48 L 114.5 44 Z " /><path fill="rgb(158,138,118)" stroke="rgb(158,138,118)" stroke-width="1" opacity="0.996078431372549" d="M 138.5 44 L 147 45.5 L 142.5 46 L 138.5 45 L 138.5 44 Z " /><path fill="rgb(158,138,118)" stroke="rgb(158,138,118)" stroke-width="1" opacity="0.996078431372549" d="M 148.5 46 L 160 48 Q 158.9 50.7 161.5 50 L 164 51.5 L 162.5 52 L 154.5 48 L 150.5 48 L 148.5 46 Z " /><path fill="rgb(158,138,118)" stroke="rgb(158,138,118)" stroke-width="1" opacity="0.996078431372549" d="M 62.5 50 Q 65.1 49.3 64 52 Q 57.7 53.8 54 59.5 L 52 64 Q 49.3 65.1 50 62.5 L 62.5 50 Z " /><path fill="rgb(158,138,118)" stroke="rgb(158,138,118)" stroke-width="1" opacity="0.996078431372549" d="M 192 50 L 193.5 50 L 208 64.5 L 216 76.5 L 224 92.5 L 228 106.5 L 228 111.5 L 227 111.5 L 227 107.5 L 224 101.5 L 223 93.5 L 221 91.5 L 221 88.5 L 216 80.5 L 216 78 Q 213.3 79.1 214 76.5 L 207 66.5 L 207 64 Q 203.3 65.5 204 62.5 L 193.5 52 L 192 52 L 192 50 Z " /><path fill="rgb(158,138,118)" stroke="rgb(158,138,118)" stroke-width="1" opacity="0.996078431372549" d="M 165.5 52 L 170 53 L 171 55.5 L 169.5 55 Q 165.5 54.5 165.5 52 Z " /><path fill="rgb(158,138,118)" stroke="rgb(158,138,118)" stroke-width="1" opacity="0.996078431372549" d="M 126 56 L 130 56 L 130 58 L 132 58 L 132 60 L 134 60 L 134 62 L 136 62 L 136 64 L 138 64 L 138 66 L 140 66 L 140 68 L 142 68 L 142 70 L 144 70 L 144 72 L 146 72 L 146 74 L 148 74 L 148 76 L 150 76 L 150 78 L 152 78 L 152 80 L 154 80 L 154 82 Q 156.7 80.9 156 83.5 L 156.5 85 L 99 84.5 L 100 82 L 102 82 L 102 80 L 104 80 L 104 78 L 106 78 L 106 76 L 108 76 L 108 74 L 110 74 L 110 72 L 112 72 L 112 70 L 114 70 L 114 68 L 116 68 L 116 66 L 118 66 L 118 64 L 120 64 L 120 62 L 122 62 L 124 58 L 126 58 L 126 56 Z M 128 57 L 120 66 L 119 66 L 101 84 L 154 84 L 152 82 Q 153 79 151 80 L 148 76 L 144 74 Q 145 71 143 72 L 140 68 L 136 66 Q 137 63 135 64 L 132 60 L 128 57 Z " /><path fill="rgb(158,138,118)" stroke="rgb(158,138,118)" stroke-width="1" opacity="0.996078431372549" d="M 172.5 56 L 174.5 56 L 184 63.5 L 186.5 67 L 189 68.5 L 191.5 72 L 194 73.5 L 200 81.5 L 200 83.5 L 198 82.5 Q 191.6 71 181.5 63 L 173.5 58 L 172.5 56 Z " /><path fill="rgb(158,138,118)" stroke="rgb(158,138,118)" stroke-width="1" opacity="0.996078431372549" d="M 48.5 64 L 49 65.5 L 35 88.5 L 32 96.5 L 32 102 Q 28.7 103.3 30 98.5 L 36 83.5 L 48.5 64 Z " /><path fill="rgb(158,138,118)" stroke="rgb(158,138,118)" stroke-width="1" opacity="0.996078431372549" d="M 55.5 85 L 55 86.5 L 52.5 91 L 52 88.5 L 53 86 L 55.5 85 Z " /><path fill="rgb(158,138,118)" stroke="rgb(158,138,118)" stroke-width="1" opacity="0.996078431372549" d="M 200.5 85 L 203 86 L 204 90.5 L 202 89.5 L 200.5 85 Z " /><path fill="rgb(158,138,118)" stroke="rgb(158,138,118)" stroke-width="1" opacity="0.996078431372549" d="M 51.5 92 L 52 93.5 L 48.5 101 L 48 96 Q 50.7 97.1 50 94.5 L 51.5 92 Z " /><path fill="rgb(158,138,118)" stroke="rgb(158,138,118)" stroke-width="1" opacity="0.996078431372549" d="M 204.5 92 L 208 97.5 L 210 107.5 L 209 107.5 L 204.5 92 Z " /><path fill="rgb(158,138,118)" stroke="rgb(158,138,118)" stroke-width="1" opacity="0.996078431372549" d="M 84.5 99 L 85 156.5 L 79.5 152 Q 77.3 152.8 78 150.5 L 74 148 L 74 146.5 L 65.5 138 Q 63.3 138.8 64 136.5 L 60 134 L 56 128.5 L 56 126 L 58 126 L 58 124 L 60 124 L 60 122 L 62 122 L 62 120 L 64 120 L 64 118 L 66 118 L 66 116 L 68 116 L 68 114 L 70 114 L 70 112 L 72 112 L 72 110 L 74 110 L 74 108 L 76 108 L 76 106 L 78 106 L 78 104 L 80 104 L 80 102 L 82 102 Q 80.9 99.3 83.5 100 L 84.5 99 Z M 84 101 L 66 119 L 66 120 L 57 128 L 60 132 L 64 135 Q 63 137 66 136 L 68 140 L 72 143 Q 71 145 74 144 L 76 148 L 80 151 Q 79 153 82 152 L 84 154 L 84 101 Z " /><path fill="rgb(158,138,118)" stroke="rgb(158,138,118)" stroke-width="1" opacity="0.996078431372549" d="M 171.5 99 L 174 100 L 174 102 L 176 102 L 176 104 L 178 104 L 178 106 L 180 106 L 180 108 L 182 108 L 182 110 L 184 110 L 184 112 L 186 112 L 186 114 L 188 114 L 188 116 L 190 116 L 190 118 L 192 118 L 192 120 L 194 120 L 194 122 L 196 122 L 198 126 L 200 126 L 200 130 L 198 130 L 198 132 L 196 132 L 196 134 L 194 134 L 194 136 L 192 136 L 192 138 L 190 138 L 190 140 L 188 140 L 188 142 L 186 142 L 186 144 L 184 144 L 184 146 L 182 146 L 182 148 L 180 148 L 180 150 L 178 150 L 178 152 L 176 152 L 176 154 L 174 154 Q 175.1 156.7 172.5 156 L 171 156.5 L 171.5 99 Z M 173 102 L 172 154 L 175 152 Q 177 153 176 151 L 180 148 L 183 144 Q 185 145 184 143 L 188 140 L 191 136 Q 193 137 192 135 L 196 132 L 198 129 L 196 126 Q 197 123 195 124 L 192 120 L 188 118 Q 189 115 187 116 L 184 112 L 180 110 Q 181 107 179 108 L 176 104 L 173 102 Z " /><path fill="rgb(158,138,118)" stroke="rgb(158,138,118)" stroke-width="1" opacity="0.996078431372549" d="M 47.5 102 L 48 104.5 L 46.5 108 L 46 105.5 L 47.5 102 Z " /><path fill="rgb(158,138,118)" stroke="rgb(158,138,118)" stroke-width="1" opacity="0.996078431372549" d="M 29.5 103 L 30 105.5 L 28.5 111 L 28 106.5 L 29.5 103 Z " /><path fill="rgb(158,138,118)" stroke="rgb(158,138,118)" stroke-width="1" opacity="0.996078431372549" d="M 45.5 109 L 46 113.5 L 44.5 119 L 44 114.5 L 45.5 109 Z " /><path fill="rgb(158,138,118)" stroke="rgb(158,138,118)" stroke-width="1" opacity="0.996078431372549" d="M 210.5 109 L 212 118.5 L 211 118.5 L 210.5 109 Z " /><path fill="rgb(158,138,118)" stroke="rgb(158,138,118)" stroke-width="1" opacity="0.996078431372549" d="M 27.5 114 L 28 141.5 L 27 141.5 L 26 121.5 L 27.5 114 Z " /><path fill="rgb(158,138,118)" stroke="rgb(158,138,118)" stroke-width="1" opacity="0.996078431372549" d="M 228.5 114 L 230 122.5 L 230 133.5 L 228.5 142 L 228.5 114 Z " /><path fill="rgb(158,138,118)" stroke="rgb(158,138,118)" stroke-width="1" opacity="0.996078431372549" d="M 43.5 124 L 44 132.5 L 43 132.5 L 43.5 124 Z " /><path fill="rgb(158,138,118)" stroke="rgb(158,138,118)" stroke-width="1" opacity="0.996078431372549" d="M 212.5 124 L 213 131.5 L 212 131.5 L 212.5 124 Z " /><path fill="rgb(158,138,118)" stroke="rgb(158,138,118)" stroke-width="1" opacity="0.996078431372549" d="M 44.5 137 Q 50.2 173.3 73.5 192 Q 90.5 208 120 211.5 L 114.5 212 L 97.5 208 Q 93.3 203.3 86 203 Q 87.1 200.3 84.5 201 L 72 193 L 70.5 190 L 66 186.5 L 64.5 184 Q 62.3 184.8 63 182.5 L 56 174.5 L 55 170 Q 52.3 171.1 53 168.5 L 50 160 Q 46.3 161.3 48 155.5 L 45 147.5 L 44.5 137 Z " /><path fill="rgb(158,138,118)" stroke="rgb(158,138,118)" stroke-width="1" opacity="0.996078431372549" d="M 211.5 137 L 212 141.5 L 210.5 147 L 210 141.5 L 211.5 137 Z " /><path fill="rgb(158,138,118)" stroke="rgb(158,138,118)" stroke-width="1" opacity="0.996078431372549" d="M 28.5 145 L 30 152.5 L 29 152.5 L 28.5 145 Z " /><path fill="rgb(158,138,118)" stroke="rgb(158,138,118)" stroke-width="1" opacity="0.996078431372549" d="M 227.5 145 L 228 148.5 L 227 148.5 L 227.5 145 Z " /><path fill="rgb(158,138,118)" stroke="rgb(158,138,118)" stroke-width="1" opacity="0.996078431372549" d="M 209.5 148 L 210 150.5 L 203 170 L 200.5 171 L 201 169.5 L 208 154.5 Q 207.3 149.8 209.5 148 Z " /><path fill="rgb(158,138,118)" stroke="rgb(158,138,118)" stroke-width="1" opacity="0.996078431372549" d="M 30.5 154 L 32 155.5 L 32 159.5 L 35 167.5 L 40 177.5 L 49 189.5 L 49 191.5 L 48 191.5 L 34 167.5 L 30 156.5 L 30.5 154 Z " /><path fill="rgb(158,138,118)" stroke="rgb(158,138,118)" stroke-width="1" opacity="0.996078431372549" d="M 224 154 Q 227 152.8 226 156.5 Q 219.5 177 207.5 192 L 207 189.5 L 216 177.5 L 221 167.5 L 224 159.5 L 224 154 Z " /><path fill="rgb(158,138,118)" stroke="rgb(158,138,118)" stroke-width="1" opacity="0.996078431372549" d="M 99.5 171 L 157 171.5 L 156 174 L 154 174 L 154 176 L 152 176 L 152 178 L 150 178 L 150 180 L 148 180 L 148 182 L 146 182 L 146 184 L 144 184 L 144 186 L 142 186 L 142 188 L 140 188 L 140 190 L 138 190 L 138 192 L 136 192 L 136 194 L 134 194 L 134 196 L 132 196 L 130 200 L 127.5 200 L 122 196 L 119.5 192 Q 117.3 192.8 118 190.5 L 109.5 182 L 108 182 L 105.5 178 Q 103.3 178.8 104 176.5 L 99.5 171 Z M 103 172 L 104 175 Q 103 177 106 176 L 108 180 L 112 183 Q 111 185 114 184 L 116 188 L 120 191 Q 119 193 122 192 L 124 196 L 128 198 L 131 196 Q 133 197 132 195 L 136 192 L 139 188 Q 141 189 140 187 L 144 184 L 147 180 Q 149 181 148 179 L 152 176 L 154 173 L 103 172 Z " /><path fill="rgb(158,138,118)" stroke="rgb(158,138,118)" stroke-width="1" opacity="0.996078431372549" d="M 199.5 172 L 200 174.5 L 197 176 L 193 184 L 189 186.5 L 187.5 189 L 184 191.5 Q 184.8 193.8 182.5 193 L 180 194 Q 181.1 196.7 178.5 196 L 176 197 Q 177.1 199.7 174.5 199 L 172.5 200 L 173.5 198 Q 184.5 191.9 192 182.5 L 199.5 172 Z " /><path fill="rgb(158,138,118)" stroke="rgb(158,138,118)" stroke-width="1" opacity="0.996078431372549" d="M 50 192 Q 52.7 190.9 52 193.5 L 57.5 200 L 64 204 Q 65 207 62 206 Q 63.1 203.3 60.5 204 L 52 195.5 L 52 194 Q 49 195 50 192 Z " /><path fill="rgb(158,138,118)" stroke="rgb(158,138,118)" stroke-width="1" opacity="0.996078431372549" d="M 204 192 Q 206.7 190.9 206 193.5 L 193.5 206 L 192 206 Q 190.9 203.3 193.5 204 L 200 198.5 L 204 192 Z " /><path fill="rgb(158,138,118)" stroke="rgb(158,138,118)" stroke-width="1" opacity="0.996078431372549" d="M 170.5 200 L 170 201.5 Q 170.8 203.8 168.5 203 L 162.5 205 L 162.5 204 L 170.5 200 Z " /><path fill="rgb(158,138,118)" stroke="rgb(158,138,118)" stroke-width="1" opacity="0.996078431372549" d="M 160.5 205 L 158.5 208 L 155 207.5 L 160.5 205 Z " /><path fill="rgb(158,138,118)" stroke="rgb(158,138,118)" stroke-width="1" opacity="0.996078431372549" d="M 64.5 207 L 66.5 207 L 72.5 212 L 88.5 221 L 96.5 224 L 101.5 224 L 103 225.5 L 99.5 226 Q 77.8 219.4 64.5 207 Z " /><path fill="rgb(158,138,118)" stroke="rgb(158,138,118)" stroke-width="1" opacity="0.996078431372549" d="M 189.5 207 L 192 207.5 L 172.5 220 L 156.5 226 L 153.5 226 L 154.5 224 L 159.5 224 L 164.5 221 L 167.5 221 L 177.5 216 L 189.5 207 Z " /><path fill="rgb(158,138,118)" stroke="rgb(158,138,118)" stroke-width="1" opacity="0.996078431372549" d="M 150.5 208 L 154 208.5 L 148.5 210 L 148.5 209 L 150.5 208 Z " /><path fill="rgb(158,138,118)" stroke="rgb(158,138,118)" stroke-width="1" opacity="0.996078431372549" d="M 141.5 210 L 147 210.5 L 137.5 212 L 137.5 211 L 141.5 210 Z " /><path fill="rgb(158,138,118)" stroke="rgb(158,138,118)" stroke-width="1" opacity="0.996078431372549" d="M 124.5 212 L 132 212.5 L 124.5 213 L 124.5 212 Z " /><path fill="rgb(158,138,118)" stroke="rgb(158,138,118)" stroke-width="1" opacity="0.996078431372549" d="M 149.5 226 L 152 226.5 L 144.5 228 L 144.5 227 L 149.5 226 Z " /><path fill="rgb(158,138,118)" stroke="rgb(158,138,118)" stroke-width="1" opacity="0.996078431372549" d="M 107.5 227 L 112 227.5 L 107.5 228 L 107.5 227 Z " /><path fill="rgb(158,138,118)" stroke="rgb(158,138,118)" stroke-width="1" opacity="0.996078431372549" d="M 115.5 228 L 141 228.5 L 132.5 230 L 123.5 230 Q 121.8 227.3 115.5 229 L 115.5 228 Z " /><path fill="rgb(158,138,118)" stroke="rgb(158,138,118)" stroke-width="1" opacity="1" d="M 111.5 28 L 144.5 28 L 152.5 30 L 154.5 32 L 162.5 33 L 164.5 35 L 167.5 35 L 175.5 40 L 178 40 Q 176.9 42.7 179.5 42 L 189.5 49 L 192 49 Q 190.5 52.7 193.5 52 L 204 62.5 L 204 64 Q 208.1 62.3 207 66.5 Q 212.4 70.9 214 78 Q 217 76.8 216 80.5 L 223 93.5 L 224 101.5 L 226 103.5 L 228 112.5 L 228 144.5 L 226 154 Q 222 152.6 224 159.5 L 216 177.5 L 207 189.5 L 207 192 Q 203.3 190.5 204 193.5 L 198.5 200 L 192 204 Q 193.7 208.1 189.5 207 L 177.5 216 L 167.5 221 L 164.5 221 L 162.5 223 L 154.5 224 L 152.5 226 L 143.5 228 L 112.5 228 L 88.5 221 L 72.5 212 L 66.5 207 L 64 207 Q 65.5 203.3 62.5 204 L 56 198.5 L 52 192 Q 47.9 193.7 49 189.5 L 40 177.5 L 33 162.5 L 32 155.5 L 30 153.5 L 28 144.5 L 28 111.5 L 30 102 Q 34 103.4 32 96.5 L 40 78.5 L 49 64 Q 52.7 65.5 52 62.5 L 59.5 54 L 64 52 Q 62.5 48.3 65.5 49 L 88.5 35 L 111.5 28 Z M 124 43 L 123 44 L 109 45 L 101 48 Q 95 46 96 50 L 88 53 Q 85 52 86 55 L 82 56 L 74 63 Q 71 62 72 65 L 69 67 L 67 70 L 63 72 L 56 82 L 56 85 L 53 86 L 50 95 Q 51 97 48 96 L 43 125 L 44 142 L 48 156 Q 46 161 50 160 L 53 169 Q 52 171 55 170 L 56 175 L 63 183 Q 62 185 65 184 L 66 187 L 71 190 L 72 193 L 85 201 Q 87 200 86 203 Q 93 203 98 208 Q 104 208 109 211 L 124 212 L 125 213 L 147 211 L 155 208 L 159 208 L 162 205 L 169 203 Q 171 204 170 202 L 175 199 Q 177 200 176 197 L 179 196 Q 181 197 180 194 L 183 193 Q 185 194 184 192 L 188 189 L 189 187 L 193 184 L 197 178 Q 196 175 199 176 Q 201 175 200 172 L 203 170 Q 203 163 208 159 L 212 142 L 212 133 L 213 132 L 211 110 L 208 98 L 203 88 Q 204 85 202 86 Q 199 85 200 82 L 194 74 L 192 72 L 189 69 L 187 67 L 184 64 L 175 56 L 172 56 L 170 53 L 162 50 Q 159 51 160 48 L 142 44 L 124 43 Z " /><path fill="rgb(158,138,118)" stroke="rgb(158,138,118)" stroke-width="1" opacity="1" d="M 127.5 57 L 132 60 L 134.5 64 Q 136.8 63.3 136 65.5 L 140 68 L 142.5 72 Q 144.8 71.3 144 73.5 L 148 76 L 150.5 80 Q 152.8 79.3 152 81.5 L 153.5 84 L 101 83.5 L 118.5 66 L 120 66 L 127.5 57 Z " /><path fill="rgb(158,138,118)" stroke="rgb(158,138,118)" stroke-width="1" opacity="1" d="M 83.5 101 L 84 153.5 L 81.5 152 Q 79.3 152.8 80 150.5 L 76 148 L 73.5 144 Q 71.3 144.8 72 142.5 L 68 140 L 65.5 136 Q 63.3 136.8 64 134.5 L 60 132 L 57 127.5 L 66 120 L 66 118.5 L 83.5 101 Z " /><path fill="rgb(158,138,118)" stroke="rgb(158,138,118)" stroke-width="1" opacity="1" d="M 172.5 102 L 176 104 L 178.5 108 Q 180.8 107.3 180 109.5 L 184 112 L 186.5 116 Q 188.8 115.3 188 117.5 L 192 120 L 194.5 124 Q 196.8 123.3 196 125.5 L 198 128.5 L 196 132 L 192 134.5 Q 192.8 136.8 190.5 136 L 188 140 L 184 142.5 Q 184.8 144.8 182.5 144 L 180 148 L 176 150.5 Q 176.8 152.8 174.5 152 L 172 153.5 L 172.5 102 Z " /><path fill="rgb(158,138,118)" stroke="rgb(158,138,118)" stroke-width="1" opacity="1" d="M 102.5 172 L 154 172.5 L 152 176 L 148 178.5 Q 148.8 180.8 146.5 180 L 144 184 L 140 186.5 Q 140.8 188.8 138.5 188 L 136 192 L 132 194.5 Q 132.8 196.8 130.5 196 L 127.5 198 L 124 196 L 121.5 192 Q 119.3 192.8 120 190.5 L 116 188 L 113.5 184 Q 111.3 184.8 112 182.5 L 108 180 L 105.5 176 Q 103.3 176.8 104 174.5 L 102.5 172 Z " /><path fill="rgb(0,0,0)" stroke="rgb(0,0,0)" stroke-width="1" opacity="0" d="M 0 0 L 256 0 L 256 256 L 0 256 L 0 0 Z M 117 25 Q 109 28 99 28 L 95 31 L 88 32 L 85 34 Q 82 33 83 36 L 78 37 L 63 48 Q 60 47 61 50 L 58 52 Q 55 51 56 55 L 52 56 L 51 60 L 48 61 L 37 78 L 36 83 L 32 88 L 31 93 Q 32 96 29 95 L 25 117 L 25 140 L 28 153 L 28 158 L 31 162 L 32 169 Q 37 171 37 179 L 48 195 L 51 196 L 52 199 Q 51 201 55 200 L 56 204 L 59 205 Q 61 204 60 207 L 73 216 L 80 220 L 83 220 L 88 224 Q 95 224 99 228 L 105 228 L 117 231 L 138 231 L 139 230 L 157 228 L 165 224 L 169 224 Q 171 219 179 219 L 182 216 Q 185 217 184 214 Q 190 213 194 208 Q 196 209 195 207 Q 196 203 200 204 L 202 200 Q 205 201 204 198 L 208 195 L 224 169 Q 224 161 228 158 L 228 152 L 231 140 L 231 117 L 227 98 Q 228 94 225 95 L 224 88 Q 219 85 219 78 L 208 63 Q 209 60 207 61 L 204 58 Q 205 55 202 56 L 200 52 L 197 51 L 195 48 L 176 36 Q 172 37 173 34 L 164 31 Q 160 32 161 29 L 140 25 L 117 25 Z " /><path fill="rgb(0,0,0)" stroke="rgb(0,0,0)" stroke-width="1" opacity="0" d="M 121.5 46 L 133.5 46 L 134.5 47 L 148.5 48 L 156.5 52 L 162.5 53 L 169.5 58 L 172 58 Q 170.9 60.7 173.5 60 Q 184.5 66.5 192 76.5 L 196 84 Q 199 82.8 198 86.5 L 201 89.5 L 204 99.5 L 207 103.5 L 209 122.5 L 210 123.5 L 210 133.5 L 209 134.5 L 208 149.5 L 206 156 Q 202.7 154.7 204 159.5 Q 195.3 179.3 179.5 192 L 171.5 198 L 169.5 198 L 162.5 203 L 156.5 204 L 152.5 207 L 141.5 208 L 140.5 209 L 132.5 209 L 131.5 210 L 123.5 210 L 122.5 209 L 106.5 208 L 100 206 Q 101.3 202.7 96.5 204 Q 76.7 195.3 64 179.5 L 53 162.5 L 52 156 Q 49 157.3 50 153.5 L 48 149.5 L 48 142.5 L 46 133.5 L 46 122.5 L 47 121.5 L 48 106.5 L 50 100 Q 53.3 101.3 52 96.5 Q 60.7 76.7 76.5 64 L 93.5 53 L 100 52 Q 98.8 49 102.5 50 L 106.5 48 L 113.5 48 L 121.5 46 Z M 126 53 L 126 55 L 121 58 L 118 63 Q 115 62 116 65 L 107 72 L 104 77 Q 101 76 102 79 L 97 82 L 96 85 L 97 87 L 160 87 L 159 82 L 154 79 Q 155 76 153 77 L 149 72 L 140 65 Q 141 62 139 63 L 135 58 L 130 55 L 130 53 L 126 53 Z M 85 96 L 82 97 L 79 102 Q 76 101 77 104 L 72 107 L 65 116 Q 62 115 63 118 L 58 121 L 55 126 Q 52 125 53 129 L 85 160 L 87 160 L 87 97 L 85 96 Z M 169 96 L 169 160 L 173 159 Q 175 160 174 158 L 179 154 L 183 149 Q 185 150 184 148 L 193 140 L 197 135 Q 199 136 198 134 L 203 130 L 203 126 L 202 126 L 198 121 L 193 118 Q 194 115 192 116 L 184 107 L 179 104 Q 180 101 178 102 L 174 97 L 169 96 Z M 96 169 L 96 172 L 128 203 Q 131 204 130 202 L 135 198 L 139 193 Q 141 194 140 192 L 149 184 L 153 179 Q 155 180 154 178 L 159 174 L 160 172 L 160 169 L 96 169 Z " /></svg>