<svg width="200" height="200" version="1.1" xmlns="http://www.w3.org/2000/svg" desc="Created with imagetracer.js version 1.2.6" ><path fill="rgb(127,127,127)" stroke="rgb(127,127,127)" stroke-width="1" opacity="0.6627450980392157" d="M 68.5 14 L 64.5 19 L 55 18.5 L 64.5 18 L 68.5 14 Z " /><path fill="rgb(127,127,127)" stroke="rgb(127,127,127)" stroke-width="1" opacity="0.6627450980392157" d="M 84.5 17 L 85.5 18 L 94 18.5 L 85.5 19 L 84.5 17 Z " /><path fill="rgb(127,127,127)" stroke="rgb(127,127,127)" stroke-width="1" opacity="0.6627450980392157" d="M 99.5 20 L 101.5 23 L 99.5 20 Z " /><path fill="rgb(127,127,127)" stroke="rgb(127,127,127)" stroke-width="1" opacity="0.6627450980392157" d="M 30.5 30 L 33 30.5 L 30.5 31 L 30.5 30 Z " /><path fill="rgb(127,127,127)" stroke="rgb(127,127,127)" stroke-width="1" opacity="0.6627450980392157" d="M 57.5 30 L 58 41.5 L 57 41.5 L 57.5 30 Z " /><path fill="rgb(127,127,127)" stroke="rgb(127,127,127)" stroke-width="1" opacity="0.6627450980392157" d="M 126.5 33 L 130.5 38 L 126.5 33 Z " /><path fill="rgb(127,127,127)" stroke="rgb(127,127,127)" stroke-width="1" opacity="0.6627450980392157" d="M 133.5 45 L 134 67.5 L 133 67.5 L 133.5 45 Z " /><path fill="rgb(127,127,127)" stroke="rgb(127,127,127)" stroke-width="1" opacity="0.6627450980392157" d="M 34.5 47 L 47.5 47 L 49 48.5 L 47.5 48 L 34.5 48 L 34.5 47 Z " /><path fill="rgb(127,127,127)" stroke="rgb(127,127,127)" stroke-width="1" opacity="0.6627450980392157" d="M 103.5 47 L 116 47.5 L 103.5 48 L 103.5 47 Z " /><path fill="rgb(127,127,127)" stroke="rgb(127,127,127)" stroke-width="1" opacity="0.6627450980392157" d="M 58.5 53 L 93 53.5 L 58.5 54 L 58.5 53 Z " /><path fill="rgb(127,127,127)" stroke="rgb(127,127,127)" stroke-width="1" opacity="0.6627450980392157" d="M 175.5 70 L 176.5 72 L 175.5 70 Z " /><path fill="rgb(127,127,127)" stroke="rgb(127,127,127)" stroke-width="1" opacity="0.6627450980392157" d="M 82.5 71 L 79.5 75 L 82.5 71 Z " /><path fill="rgb(127,127,127)" stroke="rgb(127,127,127)" stroke-width="1" opacity="0.6627450980392157" d="M 178.5 73 L 179.5 75 L 178.5 73 Z " /><path fill="rgb(127,127,127)" stroke="rgb(127,127,127)" stroke-width="1" opacity="0.6627450980392157" d="M 96.5 80 L 164 80.5 L 96.5 81 L 96.5 80 Z " /><path fill="rgb(127,127,127)" stroke="rgb(127,127,127)" stroke-width="1" opacity="0.6627450980392157" d="M 100.5 105 L 159 105.5 L 100.5 106 L 100.5 105 Z " /><path fill="rgb(127,127,127)" stroke="rgb(127,127,127)" stroke-width="1" opacity="0.6627450980392157" d="M 140.5 131 L 141 142.5 L 139.5 144 L 100.5 144 L 100.5 143 L 139.5 143 L 140 142.5 L 140.5 131 Z " /><path fill="rgb(127,127,127)" stroke="rgb(127,127,127)" stroke-width="1" opacity="0.6627450980392157" d="M 170.5 150 L 169.5 152 L 170.5 150 Z " /><path fill="rgb(127,127,127)" stroke="rgb(127,127,127)" stroke-width="1" opacity="0.6627450980392157" d="M 32.5 164 L 76 164.5 L 32.5 165 L 32.5 164 Z " /><path fill="rgb(127,127,127)" stroke="rgb(127,127,127)" stroke-width="1" opacity="0.6627450980392157" d="M 79.5 180 L 80.5 182 L 79.5 180 Z " /><path fill="rgb(127,127,127)" stroke="rgb(127,127,127)" stroke-width="1" opacity="0.6627450980392157" d="M 82.5 183 L 83.5 185 L 82.5 183 Z " /><path fill="rgb(127,127,127)" stroke="rgb(127,127,127)" stroke-width="1" opacity="0.6627450980392157" d="M 93.5 187 L 148 187.5 L 93.5 188 L 93.5 187 Z " /><path fill="rgb(128,128,128)" stroke="rgb(128,128,128)" stroke-width="1" opacity="0.3176470588235294" d="M 75.5 12 L 78 12.5 L 75.5 13 L 75.5 12 Z " /><path fill="rgb(128,128,128)" stroke="rgb(128,128,128)" stroke-width="1" opacity="0.3176470588235294" d="M 82.5 14 L 84.5 17 L 82.5 14 Z " /><path fill="rgb(128,128,128)" stroke="rgb(128,128,128)" stroke-width="1" opacity="0.3176470588235294" d="M 50.5 20 L 47.5 24 L 50.5 20 Z " /><path fill="rgb(128,128,128)" stroke="rgb(128,128,128)" stroke-width="1" opacity="0.3176470588235294" d="M 104.5 27 L 105 29.5 L 104 29.5 L 104.5 27 Z " /><path fill="rgb(128,128,128)" stroke="rgb(128,128,128)" stroke-width="1" opacity="0.3176470588235294" d="M 92.5 30 L 93 40.5 L 91.5 42 L 58.5 42 L 58.5 41 L 91.5 41 L 92 40.5 L 92.5 30 Z " /><path fill="rgb(128,128,128)" stroke="rgb(128,128,128)" stroke-width="1" opacity="0.3176470588235294" d="M 24.5 32 L 22.5 35 L 24.5 32 Z " /><path fill="rgb(128,128,128)" stroke="rgb(128,128,128)" stroke-width="1" opacity="0.3176470588235294" d="M 20.5 36 L 19.5 38 L 20.5 36 Z " /><path fill="rgb(128,128,128)" stroke="rgb(128,128,128)" stroke-width="1" opacity="0.3176470588235294" d="M 16.5 45 L 17 150.5 L 16 150.5 L 16.5 45 Z " /><path fill="rgb(128,128,128)" stroke="rgb(128,128,128)" stroke-width="1" opacity="0.3176470588235294" d="M 34.5 48 L 35 146.5 L 34 146.5 L 34.5 48 Z " /><path fill="rgb(128,128,128)" stroke="rgb(128,128,128)" stroke-width="1" opacity="0.3176470588235294" d="M 47.5 48 L 50.5 52 L 47.5 48 Z " /><path fill="rgb(128,128,128)" stroke="rgb(128,128,128)" stroke-width="1" opacity="0.3176470588235294" d="M 102.5 48 L 99.5 52 L 102.5 48 Z " /><path fill="rgb(128,128,128)" stroke="rgb(128,128,128)" stroke-width="1" opacity="0.3176470588235294" d="M 54.5 53 L 58 53.5 L 54.5 54 L 54.5 53 Z " /><path fill="rgb(128,128,128)" stroke="rgb(128,128,128)" stroke-width="1" opacity="0.3176470588235294" d="M 90.5 67 L 116 67.5 L 90.5 68 L 90.5 67 Z " /><path fill="rgb(128,128,128)" stroke="rgb(128,128,128)" stroke-width="1" opacity="0.3176470588235294" d="M 134.5 67 L 169 67.5 L 134.5 68 L 134.5 67 Z " /><path fill="rgb(128,128,128)" stroke="rgb(128,128,128)" stroke-width="1" opacity="0.3176470588235294" d="M 165.5 81 L 166.5 83 L 165.5 81 Z " /><path fill="rgb(128,128,128)" stroke="rgb(128,128,128)" stroke-width="1" opacity="0.3176470588235294" d="M 75.5 82 L 76 146.5 L 75 146.5 L 75.5 82 Z " /><path fill="rgb(128,128,128)" stroke="rgb(128,128,128)" stroke-width="1" opacity="0.3176470588235294" d="M 183.5 82 L 184 152.5 L 183 152.5 L 183.5 82 Z " /><path fill="rgb(128,128,128)" stroke="rgb(128,128,128)" stroke-width="1" opacity="0.3176470588235294" d="M 159.5 105 L 160 117.5 L 158.5 119 L 100.5 119 L 100.5 118 L 158.5 118 L 159 117.5 L 159.5 105 Z " /><path fill="rgb(128,128,128)" stroke="rgb(128,128,128)" stroke-width="1" opacity="0.3176470588235294" d="M 100.5 130 L 140 130.5 L 100.5 131 L 100.5 130 Z " /><path fill="rgb(128,128,128)" stroke="rgb(128,128,128)" stroke-width="1" opacity="0.3176470588235294" d="M 151.5 151 L 169 151.5 L 151.5 152 L 151.5 151 Z " /><path fill="rgb(128,128,128)" stroke="rgb(128,128,128)" stroke-width="1" opacity="0.3176470588235294" d="M 149.5 152 L 148.5 154 L 149.5 152 Z " /><path fill="rgb(128,128,128)" stroke="rgb(128,128,128)" stroke-width="1" opacity="0.3176470588235294" d="M 147.5 156 L 148 169.5 L 147 169.5 L 147.5 156 Z " /><path fill="rgb(128,128,128)" stroke="rgb(128,128,128)" stroke-width="1" opacity="0.3176470588235294" d="M 19.5 157 L 23.5 162 L 19.5 157 Z " /><path fill="rgb(128,128,128)" stroke="rgb(128,128,128)" stroke-width="1" opacity="0.3176470588235294" d="M 179.5 160 L 156.5 184 L 179.5 160 Z " /><path fill="rgb(128,128,128)" stroke="rgb(128,128,128)" stroke-width="1" opacity="0.3176470588235294" d="M 25.5 162 L 28 163.5 L 26.5 164 L 25.5 162 Z " /><path fill="rgb(128,128,128)" stroke="rgb(128,128,128)" stroke-width="1" opacity="0.3176470588235294" d="M 29.5 164 L 32 164.5 L 29.5 165 L 29.5 164 Z " /><path fill="rgb(128,128,128)" stroke="rgb(128,128,128)" stroke-width="1" opacity="0.3176470588235294" d="M 75.5 165 L 76 173.5 L 75 173.5 L 75.5 165 Z " /><path fill="rgb(128,128,128)" stroke="rgb(128,128,128)" stroke-width="1" opacity="0.3176470588235294" d="M 96.5 174 L 144 174.5 L 96.5 175 L 96.5 174 Z " /><path fill="rgb(128,128,128)" stroke="rgb(128,128,128)" stroke-width="1" opacity="0.3176470588235294" d="M 76.5 175 L 79 179.5 L 77 178.5 L 76.5 175 Z " /><path fill="rgb(128,128,128)" stroke="rgb(128,128,128)" stroke-width="1" opacity="0.3176470588235294" d="M 79.5 181 L 81.5 184 L 79.5 181 Z " /><path fill="rgb(128,128,128)" stroke="rgb(128,128,128)" stroke-width="1" opacity="0.3176470588235294" d="M 89.5 187 L 93 187.5 L 89.5 188 L 89.5 187 Z " /><path fill="rgb(0,0,0)" stroke="rgb(0,0,0)" stroke-width="1" opacity="0" d="M 0 0 L 200 0 L 200 200 L 0 200 L 0 0 Z M 73 12 L 68 15 Q 65 14 66 17 L 65 18 Q 55 16 51 20 Q 45 22 46 30 L 30 30 L 25 32 Q 18 36 16 46 L 16 151 L 19 158 Q 23 163 30 165 L 75 165 Q 74 176 79 182 L 90 188 L 149 188 L 157 184 L 180 161 L 184 153 L 184 83 L 181 76 Q 177 69 169 67 L 134 67 L 134 44 L 131 38 Q 128 32 121 30 L 105 30 L 103 24 L 96 18 L 86 18 L 85 17 Q 82 11 73 12 Z " /><path fill="rgb(0,0,0)" stroke="rgb(0,0,0)" stroke-width="1" opacity="0" d="M 58 30 L 91.5 30 L 92 30.5 L 92 41 L 58.5 41 L 58 40.5 L 58 30 Z " /><path fill="rgb(0,0,0)" stroke="rgb(0,0,0)" stroke-width="1" opacity="0" d="M 35 48 L 46.5 48 L 54.5 54 L 94.5 54 Q 100.6 52.6 103.5 48 L 116 48 L 116 67 L 90.5 67 Q 82.2 69.2 78 75.5 L 75 82.5 L 75 147 L 35 147 L 35 48 Z " /><path fill="rgb(0,0,0)" stroke="rgb(0,0,0)" stroke-width="1" opacity="0" d="M 94.5 81 L 164.5 81 L 169 84.5 L 171 90.5 L 171 147.5 L 170 151 L 151.5 151 L 148 153.5 L 147 156.5 L 147 171.5 L 146 174 L 94.5 174 L 89 169.5 L 88 165.5 L 88 89.5 L 92.5 82 L 94.5 81 Z M 100 105 L 100 119 L 159 119 L 160 118 L 160 106 L 160 105 L 100 105 Z M 100 130 L 100 144 L 141 144 L 141 144 L 141 132 L 140 130 L 100 130 Z " /><path fill="rgb(127,127,127)" stroke="rgb(127,127,127)" stroke-width="1" opacity="0.996078431372549" d="M 71.5 13 Q 80.9 11.6 84 16.5 L 85.5 19 Q 99.5 16.5 103 24.5 L 104 30 Q 124 27.3 131 38.5 L 133 43.5 L 133 68 L 169.5 68 L 178 72 L 183 81.5 L 183 153.5 L 180 159.5 L 155.5 184 L 150.5 187 L 89.5 187 L 81 183 L 76 173.5 L 76 164 L 29.5 164 L 20 157.5 L 17 150.5 L 17 43.5 Q 19.3 36.8 24.5 33 Q 32.6 28.4 46 30 Q 46.5 23.2 51.5 20 L 53.5 19 L 64.5 19 L 71.5 13 Z M 57 30 L 57 42 L 93 42 L 93 30 L 57 30 Z M 34 47 L 34 147 L 76 147 L 76 82 L 78 77 Q 82 70 90 68 L 116 68 L 116 47 L 104 47 L 97 53 L 55 53 L 51 51 L 49 49 L 48 47 L 34 47 Z M 97 80 L 92 82 L 88 87 L 88 169 L 89 171 L 96 175 L 145 175 L 147 174 L 148 172 L 148 156 L 149 153 L 152 152 L 170 152 L 171 151 L 171 87 L 170 85 L 164 80 L 97 80 Z " /><path fill="rgb(127,127,127)" stroke="rgb(127,127,127)" stroke-width="1" opacity="0.996078431372549" d="M 100 106 L 158.5 106 L 159 106.5 L 159 118 L 100.5 118 L 100 117.5 L 100 106 Z " /><path fill="rgb(127,127,127)" stroke="rgb(127,127,127)" stroke-width="1" opacity="0.996078431372549" d="M 100 131 L 139.5 131 L 140 131.5 L 140 143 L 100.5 143 L 100 142.5 L 100 131 Z " /></svg>