<svg width="256" height="256" version="1.1" xmlns="http://www.w3.org/2000/svg" desc="Created with imagetracer.js version 1.2.6" ><path fill="rgb(235,125,125)" stroke="rgb(235,125,125)" stroke-width="1" opacity="0.48627450980392156" d="M 61.5 25 L 161.5 25 L 168 28 L 170 32.5 L 170 48 L 68 48 L 68 189.5 L 67.5 190 L 52.5 190 L 48 188 L 45 181.5 L 45 43.5 Q 46.6 32.6 54.5 28 L 61.5 25 Z M 65 26 L 56 30 Q 53 29 54 32 L 52 32 L 52 34 L 50 34 L 47 43 L 47 182 L 48 185 L 56 189 L 66 189 L 66 189 L 66 46 L 168 46 L 168 33 L 167 31 L 160 26 L 65 26 Z " /><path fill="rgb(235,125,125)" stroke="rgb(235,125,125)" stroke-width="1" opacity="0.48627450980392156" d="M 101.5 66 L 195.5 66 L 201.5 70 L 204 70 Q 203 73 206 72 L 206 75 L 208 75 L 208 77.5 L 211 83.5 L 211 212.5 L 209 219.5 L 205.5 224 Q 203.3 223.3 204 225.5 L 201.5 228 L 193.5 231 L 101.5 231 L 94 228 L 94 226 L 92 226 Q 93.1 223.3 90.5 224 L 86 215.5 L 86 82.5 Q 87.5 74.9 92.5 71 L 101.5 66 Z M 107 67 Q 105 69 101 68 L 98 70 Q 95 69 96 72 L 92 75 Q 93 77 90 76 L 88 82 L 88 216 L 92 223 L 99 228 L 107 230 L 192 230 L 204 224 L 209 214 L 209 84 L 204 74 L 196 68 L 191 67 L 107 67 Z " /><path fill="rgb(235,125,125)" stroke="rgb(235,125,125)" stroke-width="1" opacity="0.48627450980392156" d="M 108.5 87 L 188.5 87 L 190 88.5 L 190 208.5 L 188.5 210 L 107 210 L 107 88.5 L 108.5 87 Z M 108 88 L 108 208 L 188 208 L 188 88 L 108 88 Z " /><path fill="rgb(0,0,0)" stroke="rgb(0,0,0)" stroke-width="1" opacity="0" d="M 0 0 L 256 0 L 256 256 L 0 256 L 0 0 Z M 62 25 L 55 28 Q 47 33 45 44 L 45 182 L 48 188 L 53 190 L 68 190 L 68 190 L 68 48 L 170 48 L 170 33 L 168 28 L 162 25 L 62 25 Z M 102 66 L 93 71 Q 87 75 86 83 L 86 216 L 91 224 Q 93 223 92 226 L 94 226 L 94 228 L 102 231 L 194 231 L 202 228 L 204 226 Q 203 223 206 224 L 209 220 L 211 213 L 211 84 L 208 78 L 208 75 L 206 75 L 206 72 Q 203 73 204 70 L 202 70 L 196 66 L 102 66 Z " /><path fill="rgb(0,0,0)" stroke="rgb(0,0,0)" stroke-width="1" opacity="0" d="M 108 88 L 188 88 L 188 208 L 108 208 L 108 88 Z " /><path fill="rgb(235,125,125)" stroke="rgb(235,125,125)" stroke-width="1" opacity="0.996078431372549" d="M 64.5 26 L 159.5 26 L 167 30.5 L 168 34 Q 165.3 35.1 166 32.5 L 162.5 28 L 61 27.5 L 64.5 26 Z " /><path fill="rgb(235,125,125)" stroke="rgb(235,125,125)" stroke-width="1" opacity="0.996078431372549" d="M 58.5 28 L 60 28.5 L 56 30 Q 57.1 32.7 54.5 32 L 52 36 Q 49.3 34.9 50 37.5 L 48.5 40 L 48 38.5 L 50 34 L 52 34 L 52 32 L 54 32 Q 52.9 29.3 55.5 30 L 58.5 28 Z " /><path fill="rgb(235,125,125)" stroke="rgb(235,125,125)" stroke-width="1" opacity="0.996078431372549" d="M 47.5 42 L 48 181.5 L 47 181.5 L 47.5 42 Z " /><path fill="rgb(235,125,125)" stroke="rgb(235,125,125)" stroke-width="1" opacity="0.996078431372549" d="M 66.5 45 L 168 45.5 L 66.5 46 L 66.5 45 Z " /><path fill="rgb(235,125,125)" stroke="rgb(235,125,125)" stroke-width="1" opacity="0.996078431372549" d="M 106.5 67 L 191 67.5 L 106.5 68 L 106.5 67 Z " /><path fill="rgb(235,125,125)" stroke="rgb(235,125,125)" stroke-width="1" opacity="0.996078431372549" d="M 100.5 68 L 102 68.5 L 93 74.5 L 91 80 L 89 79.5 L 90 76 Q 92.7 77.1 92 74.5 L 96 72 Q 94.9 69.3 97.5 70 L 100.5 68 Z " /><path fill="rgb(235,125,125)" stroke="rgb(235,125,125)" stroke-width="1" opacity="0.996078431372549" d="M 194.5 68 L 196 68.5 L 194.5 69 L 194.5 68 Z " /><path fill="rgb(235,125,125)" stroke="rgb(235,125,125)" stroke-width="1" opacity="0.996078431372549" d="M 197.5 69 L 204 73.5 L 208 80.5 L 207 80.5 L 200.5 72 L 197 70.5 L 197.5 69 Z " /><path fill="rgb(235,125,125)" stroke="rgb(235,125,125)" stroke-width="1" opacity="0.996078431372549" d="M 88.5 81 L 89 82.5 L 88 82.5 L 88.5 81 Z " /><path fill="rgb(235,125,125)" stroke="rgb(235,125,125)" stroke-width="1" opacity="0.996078431372549" d="M 208.5 83 L 209 213.5 L 208 213.5 L 208.5 83 Z " /><path fill="rgb(235,125,125)" stroke="rgb(235,125,125)" stroke-width="1" opacity="0.996078431372549" d="M 106 86 L 189.5 86 L 190 87.5 L 188.5 87 L 108.5 87 L 107 88.5 L 107 210 L 188.5 210 L 190 209.5 L 189.5 211 L 106 211 L 106 86 Z " /><path fill="rgb(235,125,125)" stroke="rgb(235,125,125)" stroke-width="1" opacity="0.996078431372549" d="M 48.5 183 L 52.5 188 L 48 184.5 L 48.5 183 Z " /><path fill="rgb(235,125,125)" stroke="rgb(235,125,125)" stroke-width="1" opacity="0.996078431372549" d="M 55.5 188 L 66 188.5 L 55.5 189 L 55.5 188 Z " /><path fill="rgb(235,125,125)" stroke="rgb(235,125,125)" stroke-width="1" opacity="0.996078431372549" d="M 88.5 214 L 89 215.5 L 88 215.5 L 88.5 214 Z " /><path fill="rgb(235,125,125)" stroke="rgb(235,125,125)" stroke-width="1" opacity="0.996078431372549" d="M 207.5 216 L 208 217.5 L 204 224 L 196.5 228 L 196.5 227 L 200 226 Q 198.9 223.3 201.5 224 L 205 218 Q 207.8 219 207.5 216 Z " /><path fill="rgb(235,125,125)" stroke="rgb(235,125,125)" stroke-width="1" opacity="0.996078431372549" d="M 89.5 217 L 92 218.5 L 94.5 224 L 100 227.5 L 98.5 228 L 92 222.5 L 89.5 217 Z " /><path fill="rgb(235,125,125)" stroke="rgb(235,125,125)" stroke-width="1" opacity="0.996078431372549" d="M 102.5 228 L 195 228.5 L 191.5 230 L 106.5 230 L 102.5 229 L 102.5 228 Z " /><path fill="rgb(235,125,125)" stroke="rgb(235,125,125)" stroke-width="1" opacity="1" d="M 60.5 28 L 162.5 28 L 165 30.5 L 166 34 L 168 34.5 L 168 45 L 66 45 L 66 187.5 L 65.5 188 L 53.5 188 L 48 182.5 L 48 40.5 L 50 36 Q 52.7 37.1 52 34.5 L 56 32 Q 54.9 29.3 57.5 30 L 60.5 28 Z " /><path fill="rgb(235,125,125)" stroke="rgb(235,125,125)" stroke-width="1" opacity="1" d="M 102.5 68 L 193.5 68 L 197 69 L 198.5 72 Q 203.5 71.5 204 75.5 L 208 81.5 L 208 215.5 L 207 218 Q 204.3 216.9 205 219.5 L 201.5 224 L 198.5 226 L 195.5 228 L 100.5 228 L 93 222.5 L 90.5 217 Q 87.9 217.8 89 214.5 L 88 213.5 L 88 83.5 L 89 80 Q 91.7 81.1 91 78.5 L 94.5 73 L 102.5 68 Z M 106 86 L 106 211 L 190 211 L 190 86 L 106 86 Z " /></svg>