<svg width="256" height="256" version="1.1" xmlns="http://www.w3.org/2000/svg" desc="Created with imagetracer.js version 1.2.6" ><path fill="rgb(0,0,0)" stroke="rgb(0,0,0)" stroke-width="1" opacity="0" d="M 0 0 L 256 0 L 256 256 L 0 256 L 0 0 Z M 165 37 L 162 39 L 159 45 L 159 69 L 120 69 L 118 70 L 115 75 L 116 82 L 120 84 L 169 84 L 171 83 L 174 77 L 174 65 L 176 64 L 179 68 Q 181 67 180 70 L 184 72 L 187 76 Q 189 75 188 78 L 192 80 L 195 84 Q 197 83 196 86 L 200 88 L 203 92 Q 205 91 204 94 L 208 96 L 211 100 Q 213 99 212 102 L 213 103 L 175 141 L 174 128 L 172 122 L 168 120 L 97 120 L 97 96 L 96 93 L 92 89 L 86 90 L 25 152 L 26 159 L 85 217 L 89 219 Q 93 220 95 217 L 97 213 L 97 187 L 137 187 L 140 185 L 141 183 L 140 174 L 136 172 L 88 172 L 86 173 L 82 180 L 82 192 L 80 192 L 78 188 Q 75 189 76 187 L 72 184 L 70 180 Q 67 181 68 179 L 64 176 L 62 172 Q 59 173 60 171 L 56 168 L 54 164 Q 51 165 52 163 L 48 160 L 46 156 Q 43 157 44 155 L 43 154 L 82 115 L 82 129 L 84 134 L 89 136 L 159 136 L 159 161 L 164 167 L 171 166 L 231 106 L 230 98 L 172 39 L 165 37 Z " /><path fill="rgb(234,126,126)" stroke="rgb(234,126,126)" stroke-width="1" opacity="0.39215686274509803" d="M 164.5 37 L 171.5 39 L 230 97.5 L 231 105.5 L 170.5 166 L 163.5 167 L 160 162.5 L 161 162.5 Q 160.3 164.8 162.5 164 Q 163.5 167 168.5 166 L 172 164 L 172 162 L 174 162 L 174 160 L 176 160 L 176 158 L 178 158 L 178 156 L 180 156 L 180 154 L 182 154 L 182 152 L 184 152 L 184 150 L 186 150 L 186 148 L 188 148 L 188 146 L 190 146 L 190 144 L 192 144 L 192 142 L 194 142 L 194 140 L 196 140 L 196 138 L 198 138 L 198 136 L 200 136 L 200 134 L 202 134 L 202 132 L 204 132 L 204 130 L 206 130 L 206 128 L 208 128 L 208 126 L 210 126 L 210 124 L 212 124 L 212 122 L 214 122 L 214 120 L 216 120 L 216 118 L 218 118 L 218 116 L 220 116 L 220 114 L 222 114 L 222 112 L 224 112 L 224 110 L 226 110 L 226 108 Q 228.7 109.1 228 106.5 Q 231.3 105.3 230 99.5 L 169.5 39 L 165.5 38 L 160.5 42 L 160 40.5 L 164.5 37 Z " /><path fill="rgb(234,126,126)" stroke="rgb(234,126,126)" stroke-width="1" opacity="0.39215686274509803" d="M 159.5 44 L 160 70 L 120.5 70 L 116.5 73 L 116 71.5 L 119.5 69 L 159 69 L 159.5 44 Z " /><path fill="rgb(234,126,126)" stroke="rgb(234,126,126)" stroke-width="1" opacity="0.39215686274509803" d="M 173.5 61 L 214 101.5 L 214 104 L 212 104 L 212 106 L 210 106 L 210 108 L 208 108 L 208 110 L 206 110 L 206 112 L 204 112 L 204 114 L 202 114 L 202 116 L 200 116 L 200 118 L 198 118 L 198 120 L 196 120 L 196 122 L 194 122 L 194 124 L 192 124 L 192 126 L 190 126 L 190 128 L 188 128 L 188 130 L 186 130 L 186 132 L 184 132 L 184 134 L 182 134 L 182 136 L 180 136 L 180 138 L 178 138 L 178 140 L 176 140 L 176 142 Q 173.3 140.9 174 143.5 L 173 143.5 L 173 128.5 L 172 124.5 L 169.5 122 L 96 122 L 96 95.5 L 97 95.5 L 97 120 L 167.5 120 L 172 122 L 174 127.5 L 174.5 141 L 213 102.5 L 212 101.5 Q 212.8 99.3 210.5 100 L 208 96 L 204 93.5 Q 204.8 91.3 202.5 92 L 200 88 L 196 85.5 Q 196.8 83.3 194.5 84 L 192 80 L 188 77.5 Q 188.8 75.3 186.5 76 L 184 72 L 180 69.5 Q 180.8 67.3 178.5 68 L 176 64 L 174 64.5 L 174 76.5 L 170.5 83 L 168.5 84 L 119.5 84 L 116 81.5 L 115 74.5 L 116 74.5 L 116 80 Q 119 79 118 82 L 120.5 82 L 121.5 83 L 166.5 83 L 172 79.5 L 173.5 61 Z " /><path fill="rgb(234,126,126)" stroke="rgb(234,126,126)" stroke-width="1" opacity="0.39215686274509803" d="M 87.5 89 Q 94.4 88.1 96 92.5 L 95.5 94 L 93.5 91 L 87.5 90 L 84 92 L 84 94 L 82 94 L 82 96 L 80 96 L 80 98 L 78 98 L 78 100 L 76 100 L 76 102 L 74 102 L 74 104 L 72 104 L 72 106 L 70 106 L 70 108 L 68 108 L 68 110 L 66 110 L 66 112 L 64 112 L 64 114 L 62 114 L 62 116 L 60 116 L 60 118 L 58 118 L 58 120 L 56 120 L 56 122 L 54 122 L 54 124 L 52 124 L 52 126 L 50 126 L 50 128 L 48 128 L 48 130 L 46 130 L 46 132 L 44 132 L 44 134 L 42 134 L 42 136 L 40 136 L 40 138 L 38 138 L 38 140 L 36 140 L 36 142 L 34 142 L 34 144 L 32 144 L 32 146 L 30 146 L 30 148 Q 27.3 146.9 28 149.5 Q 25 150.5 26 155.5 L 86.5 217 L 90.5 218 L 95.5 214 L 96 215.5 L 91.5 219 L 88.5 219 L 84.5 217 L 26 158.5 L 25 151.5 L 85.5 90 L 87.5 89 Z " /><path fill="rgb(234,126,126)" stroke="rgb(234,126,126)" stroke-width="1" opacity="0.39215686274509803" d="M 82.5 112 L 83 128.5 L 86.5 134 L 160 134 L 160 160.5 L 159 160.5 L 159 136 L 88.5 136 L 84 134 L 82 128.5 L 81.5 115 L 43 153.5 L 44 154.5 Q 43.3 156.8 45.5 156 L 48 160 L 52 162.5 Q 51.3 164.8 53.5 164 L 56 168 L 60 170.5 Q 59.3 172.8 61.5 172 L 64 176 L 68 178.5 Q 67.3 180.8 69.5 180 L 72 184 L 76 186.5 Q 75.3 188.8 77.5 188 L 80 192 L 82 191.5 L 82 179.5 L 85.5 173 L 87.5 172 L 135.5 172 L 140 174 L 139.5 176 L 134.5 173 L 89.5 173 L 84 176.5 L 82.5 195 L 42 154.5 L 42 152 L 44 152 L 44 150 L 46 150 L 46 148 L 48 148 L 48 146 L 50 146 L 50 144 L 52 144 L 52 142 L 54 142 L 54 140 L 56 140 L 56 138 L 58 138 L 58 136 L 60 136 L 60 134 L 62 134 L 62 132 L 64 132 L 64 130 L 66 130 L 66 128 L 68 128 L 68 126 L 70 126 L 70 124 L 72 124 L 72 122 L 74 122 L 74 120 L 76 120 L 76 118 L 78 118 L 78 116 L 80 116 L 80 114 Q 82.8 115 82.5 112 Z " /><path fill="rgb(234,126,126)" stroke="rgb(234,126,126)" stroke-width="1" opacity="0.39215686274509803" d="M 140.5 177 L 141 182.5 L 140 185 L 136.5 187 L 97 187 L 96.5 213 L 96 186 L 135.5 186 L 140 182.5 L 140.5 177 Z " /><path fill="rgb(235,125,125)" stroke="rgb(235,125,125)" stroke-width="1" opacity="0.996078431372549" d="M 165.5 38 L 169.5 39 L 230 99.5 Q 231.3 104.8 228.5 106 L 229 104.5 Q 229.9 97.6 225.5 96 Q 223.3 96.8 224 94.5 L 220 92 L 217.5 88 Q 215.3 88.8 216 86.5 L 212 84 L 209.5 80 Q 207.3 80.8 208 78.5 L 204 76 L 201.5 72 Q 199.3 72.8 200 70.5 L 196 68 L 193.5 64 Q 191.3 64.8 192 62.5 L 188 60 L 185.5 56 Q 183.3 56.8 184 54.5 L 180 52 L 177.5 48 Q 175.3 48.8 176 46.5 L 172 44 L 169.5 40 L 165.5 39 L 163.5 40 L 163.5 39 L 165.5 38 Z " /><path fill="rgb(235,125,125)" stroke="rgb(235,125,125)" stroke-width="1" opacity="0.996078431372549" d="M 161.5 41 L 161 42.5 L 160.5 44 L 160 42.5 L 161.5 41 Z " /><path fill="rgb(235,125,125)" stroke="rgb(235,125,125)" stroke-width="1" opacity="0.996078431372549" d="M 172 60 L 176 61.5 L 177.5 64 L 180 65.5 L 181.5 68 L 184 69.5 L 185.5 72 L 188 73.5 L 189.5 76 L 192 77.5 L 193.5 80 L 196 81.5 L 197.5 84 L 200 85.5 L 201.5 88 L 204 89.5 L 205.5 92 L 208 93.5 L 209.5 96 L 212 97.5 L 213.5 100 Q 216.5 99.1 215 103.5 L 214 103.5 L 214 101.5 L 173.5 61 L 172.5 77 L 172 60 Z " /><path fill="rgb(235,125,125)" stroke="rgb(235,125,125)" stroke-width="1" opacity="0.996078431372549" d="M 120.5 70 L 160 70.5 L 120.5 71 L 116.5 74 L 118.5 71 L 120.5 70 Z " /><path fill="rgb(235,125,125)" stroke="rgb(235,125,125)" stroke-width="1" opacity="0.996078431372549" d="M 116.5 79 L 116.5 80 L 116.5 79 Z " /><path fill="rgb(235,125,125)" stroke="rgb(235,125,125)" stroke-width="1" opacity="0.996078431372549" d="M 118.5 80 L 119.5 82 Q 116.7 82.7 118.5 80 Z " /><path fill="rgb(235,125,125)" stroke="rgb(235,125,125)" stroke-width="1" opacity="0.996078431372549" d="M 170.5 80 L 169.5 82 L 168 81.5 L 170.5 80 Z " /><path fill="rgb(235,125,125)" stroke="rgb(235,125,125)" stroke-width="1" opacity="0.996078431372549" d="M 121.5 82 L 167 82.5 L 121.5 83 L 121.5 82 Z " /><path fill="rgb(235,125,125)" stroke="rgb(235,125,125)" stroke-width="1" opacity="0.996078431372549" d="M 87.5 90 Q 93.3 89.2 95 92.5 L 93.5 92 L 87.5 91 L 86 91.5 L 87.5 90 Z " /><path fill="rgb(235,125,125)" stroke="rgb(235,125,125)" stroke-width="1" opacity="0.996078431372549" d="M 84.5 92 L 84.5 93 L 84.5 92 Z " /><path fill="rgb(235,125,125)" stroke="rgb(235,125,125)" stroke-width="1" opacity="0.996078431372549" d="M 82 94 L 84 94.5 L 82 95.5 L 82 94 Z " /><path fill="rgb(235,125,125)" stroke="rgb(235,125,125)" stroke-width="1" opacity="0.996078431372549" d="M 95.5 94 L 96 95.5 L 95 95.5 L 95.5 94 Z " /><path fill="rgb(235,125,125)" stroke="rgb(235,125,125)" stroke-width="1" opacity="0.996078431372549" d="M 80.5 96 L 80.5 97 L 80.5 96 Z " /><path fill="rgb(235,125,125)" stroke="rgb(235,125,125)" stroke-width="1" opacity="0.996078431372549" d="M 78 98 L 80 98.5 L 78 99.5 L 78 98 Z " /><path fill="rgb(235,125,125)" stroke="rgb(235,125,125)" stroke-width="1" opacity="0.996078431372549" d="M 76.5 100 L 76.5 101 L 76.5 100 Z " /><path fill="rgb(235,125,125)" stroke="rgb(235,125,125)" stroke-width="1" opacity="0.996078431372549" d="M 74 102 L 76 102.5 L 74 103.5 L 74 102 Z " /><path fill="rgb(235,125,125)" stroke="rgb(235,125,125)" stroke-width="1" opacity="0.996078431372549" d="M 72.5 104 L 72.5 105 L 72.5 104 Z " /><path fill="rgb(235,125,125)" stroke="rgb(235,125,125)" stroke-width="1" opacity="0.996078431372549" d="M 212.5 104 L 212.5 105 L 212.5 104 Z " /><path fill="rgb(235,125,125)" stroke="rgb(235,125,125)" stroke-width="1" opacity="0.996078431372549" d="M 70 106 L 72 106.5 L 70 107.5 L 70 106 Z " /><path fill="rgb(235,125,125)" stroke="rgb(235,125,125)" stroke-width="1" opacity="0.996078431372549" d="M 210 106 L 212 106.5 L 210 107.5 L 210 106 Z " /><path fill="rgb(235,125,125)" stroke="rgb(235,125,125)" stroke-width="1" opacity="0.996078431372549" d="M 227.5 107 L 227.5 108 L 227.5 107 Z " /><path fill="rgb(235,125,125)" stroke="rgb(235,125,125)" stroke-width="1" opacity="0.996078431372549" d="M 68.5 108 L 68.5 109 L 68.5 108 Z " /><path fill="rgb(235,125,125)" stroke="rgb(235,125,125)" stroke-width="1" opacity="0.996078431372549" d="M 208.5 108 L 208.5 109 L 208.5 108 Z " /><path fill="rgb(235,125,125)" stroke="rgb(235,125,125)" stroke-width="1" opacity="0.996078431372549" d="M 225.5 108 L 226 110 L 224 109.5 L 225.5 108 Z " /><path fill="rgb(235,125,125)" stroke="rgb(235,125,125)" stroke-width="1" opacity="0.996078431372549" d="M 66 110 L 68 110.5 L 66 111.5 L 66 110 Z " /><path fill="rgb(235,125,125)" stroke="rgb(235,125,125)" stroke-width="1" opacity="0.996078431372549" d="M 206 110 L 208 110.5 L 206 111.5 L 206 110 Z " /><path fill="rgb(235,125,125)" stroke="rgb(235,125,125)" stroke-width="1" opacity="0.996078431372549" d="M 223.5 111 L 223.5 112 L 223.5 111 Z " /><path fill="rgb(235,125,125)" stroke="rgb(235,125,125)" stroke-width="1" opacity="0.996078431372549" d="M 64.5 112 L 64.5 113 L 64.5 112 Z " /><path fill="rgb(235,125,125)" stroke="rgb(235,125,125)" stroke-width="1" opacity="0.996078431372549" d="M 81.5 112 L 82 114 L 80 113.5 L 81.5 112 Z " /><path fill="rgb(235,125,125)" stroke="rgb(235,125,125)" stroke-width="1" opacity="0.996078431372549" d="M 83.5 112 L 84 128.5 L 83 128.5 L 83.5 112 Z " /><path fill="rgb(235,125,125)" stroke="rgb(235,125,125)" stroke-width="1" opacity="0.996078431372549" d="M 204.5 112 L 204.5 113 L 204.5 112 Z " /><path fill="rgb(235,125,125)" stroke="rgb(235,125,125)" stroke-width="1" opacity="0.996078431372549" d="M 221.5 112 L 222 114 L 220 113.5 L 221.5 112 Z " /><path fill="rgb(235,125,125)" stroke="rgb(235,125,125)" stroke-width="1" opacity="0.996078431372549" d="M 62 114 L 64 114.5 L 62 115.5 L 62 114 Z " /><path fill="rgb(235,125,125)" stroke="rgb(235,125,125)" stroke-width="1" opacity="0.996078431372549" d="M 202 114 L 204 114.5 L 202 115.5 L 202 114 Z " /><path fill="rgb(235,125,125)" stroke="rgb(235,125,125)" stroke-width="1" opacity="0.996078431372549" d="M 79.5 115 L 79.5 116 L 79.5 115 Z " /><path fill="rgb(235,125,125)" stroke="rgb(235,125,125)" stroke-width="1" opacity="0.996078431372549" d="M 219.5 115 L 219.5 116 L 219.5 115 Z " /><path fill="rgb(235,125,125)" stroke="rgb(235,125,125)" stroke-width="1" opacity="0.996078431372549" d="M 60.5 116 L 60.5 117 L 60.5 116 Z " /><path fill="rgb(235,125,125)" stroke="rgb(235,125,125)" stroke-width="1" opacity="0.996078431372549" d="M 77.5 116 L 78 118 L 76 117.5 L 77.5 116 Z " /><path fill="rgb(235,125,125)" stroke="rgb(235,125,125)" stroke-width="1" opacity="0.996078431372549" d="M 200.5 116 L 200.5 117 L 200.5 116 Z " /><path fill="rgb(235,125,125)" stroke="rgb(235,125,125)" stroke-width="1" opacity="0.996078431372549" d="M 217.5 116 L 218 118 L 216 117.5 L 217.5 116 Z " /><path fill="rgb(235,125,125)" stroke="rgb(235,125,125)" stroke-width="1" opacity="0.996078431372549" d="M 58 118 L 60 118.5 L 58 119.5 L 58 118 Z " /><path fill="rgb(235,125,125)" stroke="rgb(235,125,125)" stroke-width="1" opacity="0.996078431372549" d="M 198 118 L 200 118.5 L 198 119.5 L 198 118 Z " /><path fill="rgb(235,125,125)" stroke="rgb(235,125,125)" stroke-width="1" opacity="0.996078431372549" d="M 75.5 119 L 75.5 120 L 75.5 119 Z " /><path fill="rgb(235,125,125)" stroke="rgb(235,125,125)" stroke-width="1" opacity="0.996078431372549" d="M 215.5 119 L 215.5 120 L 215.5 119 Z " /><path fill="rgb(235,125,125)" stroke="rgb(235,125,125)" stroke-width="1" opacity="0.996078431372549" d="M 56.5 120 L 56.5 121 L 56.5 120 Z " /><path fill="rgb(235,125,125)" stroke="rgb(235,125,125)" stroke-width="1" opacity="0.996078431372549" d="M 73.5 120 L 74 122 L 72 121.5 L 73.5 120 Z " /><path fill="rgb(235,125,125)" stroke="rgb(235,125,125)" stroke-width="1" opacity="0.996078431372549" d="M 196.5 120 L 196.5 121 L 196.5 120 Z " /><path fill="rgb(235,125,125)" stroke="rgb(235,125,125)" stroke-width="1" opacity="0.996078431372549" d="M 213.5 120 L 214 122 L 212 121.5 L 213.5 120 Z " /><path fill="rgb(235,125,125)" stroke="rgb(235,125,125)" stroke-width="1" opacity="0.996078431372549" d="M 54 122 L 56 122.5 L 54 123.5 L 54 122 Z " /><path fill="rgb(235,125,125)" stroke="rgb(235,125,125)" stroke-width="1" opacity="0.996078431372549" d="M 167.5 122 Q 171.5 121.5 172 124.5 L 170.5 124 Q 166.8 123.7 167.5 122 Z " /><path fill="rgb(235,125,125)" stroke="rgb(235,125,125)" stroke-width="1" opacity="0.996078431372549" d="M 194 122 L 196 122.5 L 194 123.5 L 194 122 Z " /><path fill="rgb(235,125,125)" stroke="rgb(235,125,125)" stroke-width="1" opacity="0.996078431372549" d="M 71.5 123 L 71.5 124 L 71.5 123 Z " /><path fill="rgb(235,125,125)" stroke="rgb(235,125,125)" stroke-width="1" opacity="0.996078431372549" d="M 211.5 123 L 211.5 124 L 211.5 123 Z " /><path fill="rgb(235,125,125)" stroke="rgb(235,125,125)" stroke-width="1" opacity="0.996078431372549" d="M 52.5 124 L 52.5 125 L 52.5 124 Z " /><path fill="rgb(235,125,125)" stroke="rgb(235,125,125)" stroke-width="1" opacity="0.996078431372549" d="M 69.5 124 L 70 126 L 68 125.5 L 69.5 124 Z " /><path fill="rgb(235,125,125)" stroke="rgb(235,125,125)" stroke-width="1" opacity="0.996078431372549" d="M 192.5 124 L 192.5 125 L 192.5 124 Z " /><path fill="rgb(235,125,125)" stroke="rgb(235,125,125)" stroke-width="1" opacity="0.996078431372549" d="M 209.5 124 L 210 126 L 208 125.5 L 209.5 124 Z " /><path fill="rgb(235,125,125)" stroke="rgb(235,125,125)" stroke-width="1" opacity="0.996078431372549" d="M 50 126 L 52 126.5 L 50 127.5 L 50 126 Z " /><path fill="rgb(235,125,125)" stroke="rgb(235,125,125)" stroke-width="1" opacity="0.996078431372549" d="M 190 126 L 192 126.5 L 190 127.5 L 190 126 Z " /><path fill="rgb(235,125,125)" stroke="rgb(235,125,125)" stroke-width="1" opacity="0.996078431372549" d="M 67.5 127 L 67.5 128 L 67.5 127 Z " /><path fill="rgb(235,125,125)" stroke="rgb(235,125,125)" stroke-width="1" opacity="0.996078431372549" d="M 207.5 127 L 207.5 128 L 207.5 127 Z " /><path fill="rgb(235,125,125)" stroke="rgb(235,125,125)" stroke-width="1" opacity="0.996078431372549" d="M 48.5 128 L 48.5 129 L 48.5 128 Z " /><path fill="rgb(235,125,125)" stroke="rgb(235,125,125)" stroke-width="1" opacity="0.996078431372549" d="M 65.5 128 L 66 130 L 64 129.5 L 65.5 128 Z " /><path fill="rgb(235,125,125)" stroke="rgb(235,125,125)" stroke-width="1" opacity="0.996078431372549" d="M 172.5 128 L 173 143.5 L 172 143.5 L 172.5 128 Z " /><path fill="rgb(235,125,125)" stroke="rgb(235,125,125)" stroke-width="1" opacity="0.996078431372549" d="M 188.5 128 L 188.5 129 L 188.5 128 Z " /><path fill="rgb(235,125,125)" stroke="rgb(235,125,125)" stroke-width="1" opacity="0.996078431372549" d="M 205.5 128 L 206 130 L 204 129.5 L 205.5 128 Z " /><path fill="rgb(235,125,125)" stroke="rgb(235,125,125)" stroke-width="1" opacity="0.996078431372549" d="M 46 130 L 48 130.5 L 46 131.5 L 46 130 Z " /><path fill="rgb(235,125,125)" stroke="rgb(235,125,125)" stroke-width="1" opacity="0.996078431372549" d="M 186 130 L 188 130.5 L 186 131.5 L 186 130 Z " /><path fill="rgb(235,125,125)" stroke="rgb(235,125,125)" stroke-width="1" opacity="0.996078431372549" d="M 63.5 131 L 63.5 132 L 63.5 131 Z " /><path fill="rgb(235,125,125)" stroke="rgb(235,125,125)" stroke-width="1" opacity="0.996078431372549" d="M 84.5 131 L 88 133.5 L 86.5 134 L 84.5 131 Z " /><path fill="rgb(235,125,125)" stroke="rgb(235,125,125)" stroke-width="1" opacity="0.996078431372549" d="M 203.5 131 L 203.5 132 L 203.5 131 Z " /><path fill="rgb(235,125,125)" stroke="rgb(235,125,125)" stroke-width="1" opacity="0.996078431372549" d="M 44.5 132 L 44.5 133 L 44.5 132 Z " /><path fill="rgb(235,125,125)" stroke="rgb(235,125,125)" stroke-width="1" opacity="0.996078431372549" d="M 61.5 132 L 62 134 L 60 133.5 L 61.5 132 Z " /><path fill="rgb(235,125,125)" stroke="rgb(235,125,125)" stroke-width="1" opacity="0.996078431372549" d="M 184.5 132 L 184.5 133 L 184.5 132 Z " /><path fill="rgb(235,125,125)" stroke="rgb(235,125,125)" stroke-width="1" opacity="0.996078431372549" d="M 201.5 132 L 202 134 L 200 133.5 L 201.5 132 Z " /><path fill="rgb(235,125,125)" stroke="rgb(235,125,125)" stroke-width="1" opacity="0.996078431372549" d="M 42 134 L 44 134.5 L 42 135.5 L 42 134 Z " /><path fill="rgb(235,125,125)" stroke="rgb(235,125,125)" stroke-width="1" opacity="0.996078431372549" d="M 182 134 L 184 134.5 L 182 135.5 L 182 134 Z " /><path fill="rgb(235,125,125)" stroke="rgb(235,125,125)" stroke-width="1" opacity="0.996078431372549" d="M 59.5 135 L 59.5 136 L 59.5 135 Z " /><path fill="rgb(235,125,125)" stroke="rgb(235,125,125)" stroke-width="1" opacity="0.996078431372549" d="M 199.5 135 L 199.5 136 L 199.5 135 Z " /><path fill="rgb(235,125,125)" stroke="rgb(235,125,125)" stroke-width="1" opacity="0.996078431372549" d="M 40.5 136 L 40.5 137 L 40.5 136 Z " /><path fill="rgb(235,125,125)" stroke="rgb(235,125,125)" stroke-width="1" opacity="0.996078431372549" d="M 57.5 136 L 58 138 L 56 137.5 L 57.5 136 Z " /><path fill="rgb(235,125,125)" stroke="rgb(235,125,125)" stroke-width="1" opacity="0.996078431372549" d="M 180.5 136 L 180.5 137 L 180.5 136 Z " /><path fill="rgb(235,125,125)" stroke="rgb(235,125,125)" stroke-width="1" opacity="0.996078431372549" d="M 197.5 136 L 198 138 L 196 137.5 L 197.5 136 Z " /><path fill="rgb(235,125,125)" stroke="rgb(235,125,125)" stroke-width="1" opacity="0.996078431372549" d="M 38 138 L 40 138.5 L 38 139.5 L 38 138 Z " /><path fill="rgb(235,125,125)" stroke="rgb(235,125,125)" stroke-width="1" opacity="0.996078431372549" d="M 178 138 L 180 138.5 L 178 139.5 L 178 138 Z " /><path fill="rgb(235,125,125)" stroke="rgb(235,125,125)" stroke-width="1" opacity="0.996078431372549" d="M 55.5 139 L 55.5 140 L 55.5 139 Z " /><path fill="rgb(235,125,125)" stroke="rgb(235,125,125)" stroke-width="1" opacity="0.996078431372549" d="M 195.5 139 L 195.5 140 L 195.5 139 Z " /><path fill="rgb(235,125,125)" stroke="rgb(235,125,125)" stroke-width="1" opacity="0.996078431372549" d="M 36.5 140 L 36.5 141 L 36.5 140 Z " /><path fill="rgb(235,125,125)" stroke="rgb(235,125,125)" stroke-width="1" opacity="0.996078431372549" d="M 53.5 140 L 54 142 L 52 141.5 L 53.5 140 Z " /><path fill="rgb(235,125,125)" stroke="rgb(235,125,125)" stroke-width="1" opacity="0.996078431372549" d="M 176.5 140 L 176.5 141 L 176.5 140 Z " /><path fill="rgb(235,125,125)" stroke="rgb(235,125,125)" stroke-width="1" opacity="0.996078431372549" d="M 193.5 140 L 194 142 L 192 141.5 L 193.5 140 Z " /><path fill="rgb(235,125,125)" stroke="rgb(235,125,125)" stroke-width="1" opacity="0.996078431372549" d="M 34 142 L 36 142.5 L 34 143.5 L 34 142 Z " /><path fill="rgb(235,125,125)" stroke="rgb(235,125,125)" stroke-width="1" opacity="0.996078431372549" d="M 174 142 L 176 142.5 L 174 143.5 L 174 142 Z " /><path fill="rgb(235,125,125)" stroke="rgb(235,125,125)" stroke-width="1" opacity="0.996078431372549" d="M 51.5 143 L 51.5 144 L 51.5 143 Z " /><path fill="rgb(235,125,125)" stroke="rgb(235,125,125)" stroke-width="1" opacity="0.996078431372549" d="M 191.5 143 L 191.5 144 L 191.5 143 Z " /><path fill="rgb(235,125,125)" stroke="rgb(235,125,125)" stroke-width="1" opacity="0.996078431372549" d="M 32.5 144 L 32.5 145 L 32.5 144 Z " /><path fill="rgb(235,125,125)" stroke="rgb(235,125,125)" stroke-width="1" opacity="0.996078431372549" d="M 49.5 144 L 50 146 L 48 145.5 L 49.5 144 Z " /><path fill="rgb(235,125,125)" stroke="rgb(235,125,125)" stroke-width="1" opacity="0.996078431372549" d="M 189.5 144 L 190 146 L 188 145.5 L 189.5 144 Z " /><path fill="rgb(235,125,125)" stroke="rgb(235,125,125)" stroke-width="1" opacity="0.996078431372549" d="M 30 146 L 32 146.5 L 30 147.5 L 30 146 Z " /><path fill="rgb(235,125,125)" stroke="rgb(235,125,125)" stroke-width="1" opacity="0.996078431372549" d="M 47.5 147 L 47.5 148 L 47.5 147 Z " /><path fill="rgb(235,125,125)" stroke="rgb(235,125,125)" stroke-width="1" opacity="0.996078431372549" d="M 187.5 147 L 187.5 148 L 187.5 147 Z " /><path fill="rgb(235,125,125)" stroke="rgb(235,125,125)" stroke-width="1" opacity="0.996078431372549" d="M 28.5 148 L 28.5 149 L 28.5 148 Z " /><path fill="rgb(235,125,125)" stroke="rgb(235,125,125)" stroke-width="1" opacity="0.996078431372549" d="M 45.5 148 L 46 150 L 44 149.5 L 45.5 148 Z " /><path fill="rgb(235,125,125)" stroke="rgb(235,125,125)" stroke-width="1" opacity="0.996078431372549" d="M 185.5 148 L 186 150 L 184 149.5 L 185.5 148 Z " /><path fill="rgb(235,125,125)" stroke="rgb(235,125,125)" stroke-width="1" opacity="0.996078431372549" d="M 27.5 150 L 27 151.5 L 28 157.5 L 27 157.5 L 26 151.5 L 27.5 150 Z " /><path fill="rgb(235,125,125)" stroke="rgb(235,125,125)" stroke-width="1" opacity="0.996078431372549" d="M 43.5 151 L 43.5 152 L 43.5 151 Z " /><path fill="rgb(235,125,125)" stroke="rgb(235,125,125)" stroke-width="1" opacity="0.996078431372549" d="M 183.5 151 L 183.5 152 L 183.5 151 Z " /><path fill="rgb(235,125,125)" stroke="rgb(235,125,125)" stroke-width="1" opacity="0.996078431372549" d="M 41.5 152 L 42 154.5 L 82.5 195 L 83.5 179 L 84 196 L 80 194.5 L 78.5 192 L 76 190.5 L 74.5 188 L 72 186.5 L 70.5 184 L 68 182.5 L 66.5 180 L 64 178.5 L 62.5 176 L 60 174.5 L 58.5 172 L 56 170.5 L 54.5 168 L 52 166.5 L 50.5 164 L 48 162.5 L 46.5 160 L 44 158.5 L 42.5 156 Q 39 156.8 41.5 152 Z " /><path fill="rgb(235,125,125)" stroke="rgb(235,125,125)" stroke-width="1" opacity="0.996078431372549" d="M 181.5 152 L 182 154 L 180 153.5 L 181.5 152 Z " /><path fill="rgb(235,125,125)" stroke="rgb(235,125,125)" stroke-width="1" opacity="0.996078431372549" d="M 179.5 155 L 179.5 156 L 179.5 155 Z " /><path fill="rgb(235,125,125)" stroke="rgb(235,125,125)" stroke-width="1" opacity="0.996078431372549" d="M 177.5 156 L 178 158 L 176 157.5 L 177.5 156 Z " /><path fill="rgb(235,125,125)" stroke="rgb(235,125,125)" stroke-width="1" opacity="0.996078431372549" d="M 175.5 159 L 175.5 160 L 175.5 159 Z " /><path fill="rgb(235,125,125)" stroke="rgb(235,125,125)" stroke-width="1" opacity="0.996078431372549" d="M 30.5 160 L 31.5 162 L 30.5 160 Z " /><path fill="rgb(235,125,125)" stroke="rgb(235,125,125)" stroke-width="1" opacity="0.996078431372549" d="M 173.5 160 L 174 162 L 172 161.5 L 173.5 160 Z " /><path fill="rgb(235,125,125)" stroke="rgb(235,125,125)" stroke-width="1" opacity="0.996078431372549" d="M 160.5 161 L 160.5 162 L 160.5 161 Z " /><path fill="rgb(235,125,125)" stroke="rgb(235,125,125)" stroke-width="1" opacity="0.996078431372549" d="M 161.5 163 L 161.5 164 L 161.5 163 Z " /><path fill="rgb(235,125,125)" stroke="rgb(235,125,125)" stroke-width="1" opacity="0.996078431372549" d="M 171.5 163 L 171.5 164 L 171.5 163 Z " /><path fill="rgb(235,125,125)" stroke="rgb(235,125,125)" stroke-width="1" opacity="0.996078431372549" d="M 34.5 164 L 35.5 166 L 34.5 164 Z " /><path fill="rgb(235,125,125)" stroke="rgb(235,125,125)" stroke-width="1" opacity="0.996078431372549" d="M 163.5 164 L 167.5 165 L 169.5 164 L 168.5 166 Q 163 167 163.5 164 Z " /><path fill="rgb(235,125,125)" stroke="rgb(235,125,125)" stroke-width="1" opacity="0.996078431372549" d="M 38.5 168 L 39.5 170 L 38.5 168 Z " /><path fill="rgb(235,125,125)" stroke="rgb(235,125,125)" stroke-width="1" opacity="0.996078431372549" d="M 42.5 172 L 43.5 174 L 42.5 172 Z " /><path fill="rgb(235,125,125)" stroke="rgb(235,125,125)" stroke-width="1" opacity="0.996078431372549" d="M 89.5 173 L 135 173.5 L 89.5 174 L 89.5 173 Z " /><path fill="rgb(235,125,125)" stroke="rgb(235,125,125)" stroke-width="1" opacity="0.996078431372549" d="M 86.5 174 L 88 174.5 L 85.5 176 L 86.5 174 Z " /><path fill="rgb(235,125,125)" stroke="rgb(235,125,125)" stroke-width="1" opacity="0.996078431372549" d="M 136.5 174 L 140 176.5 L 139.5 178 L 139 176 L 136.5 174 Z " /><path fill="rgb(235,125,125)" stroke="rgb(235,125,125)" stroke-width="1" opacity="0.996078431372549" d="M 46.5 176 L 47.5 178 L 46.5 176 Z " /><path fill="rgb(235,125,125)" stroke="rgb(235,125,125)" stroke-width="1" opacity="0.996078431372549" d="M 50.5 180 L 51.5 182 L 50.5 180 Z " /><path fill="rgb(235,125,125)" stroke="rgb(235,125,125)" stroke-width="1" opacity="0.996078431372549" d="M 139.5 182 L 137.5 185 L 135.5 186 L 96.5 186 L 96.5 185 L 135.5 185 L 139.5 182 Z " /><path fill="rgb(235,125,125)" stroke="rgb(235,125,125)" stroke-width="1" opacity="0.996078431372549" d="M 54.5 184 L 55.5 186 L 54.5 184 Z " /><path fill="rgb(235,125,125)" stroke="rgb(235,125,125)" stroke-width="1" opacity="0.996078431372549" d="M 58.5 188 L 59.5 190 L 58.5 188 Z " /><path fill="rgb(235,125,125)" stroke="rgb(235,125,125)" stroke-width="1" opacity="0.996078431372549" d="M 62.5 192 L 63.5 194 L 62.5 192 Z " /><path fill="rgb(235,125,125)" stroke="rgb(235,125,125)" stroke-width="1" opacity="0.996078431372549" d="M 66.5 196 L 67.5 198 L 66.5 196 Z " /><path fill="rgb(235,125,125)" stroke="rgb(235,125,125)" stroke-width="1" opacity="0.996078431372549" d="M 70.5 200 L 71.5 202 L 70.5 200 Z " /><path fill="rgb(235,125,125)" stroke="rgb(235,125,125)" stroke-width="1" opacity="0.996078431372549" d="M 74.5 204 L 75.5 206 L 74.5 204 Z " /><path fill="rgb(235,125,125)" stroke="rgb(235,125,125)" stroke-width="1" opacity="0.996078431372549" d="M 78.5 208 L 79.5 210 L 78.5 208 Z " /><path fill="rgb(235,125,125)" stroke="rgb(235,125,125)" stroke-width="1" opacity="0.996078431372549" d="M 82.5 212 L 83.5 214 L 82.5 212 Z " /><path fill="rgb(235,125,125)" stroke="rgb(235,125,125)" stroke-width="1" opacity="0.996078431372549" d="M 95.5 213 L 94.5 215 L 95.5 213 Z " /><path fill="rgb(235,125,125)" stroke="rgb(235,125,125)" stroke-width="1" opacity="0.996078431372549" d="M 86.5 216 L 90.5 217 L 92.5 216 L 92.5 217 L 88.5 218 L 86.5 216 Z " /><path fill="rgb(235,125,125)" stroke="rgb(235,125,125)" stroke-width="1" opacity="1" d="M 165.5 39 Q 170.3 39.3 172 42.5 Q 171.3 44.8 173.5 44 L 176 48 L 180 50.5 Q 179.3 52.8 181.5 52 L 184 56 L 188 58.5 Q 187.3 60.8 189.5 60 L 192 64 L 196 66.5 Q 195.3 68.8 197.5 68 L 200 72 L 204 74.5 Q 203.3 76.8 205.5 76 L 208 80 L 212 82.5 Q 211.3 84.8 213.5 84 L 216 88 L 220 90.5 Q 219.3 92.8 221.5 92 L 224 96 L 228 98.5 L 229 104.5 L 226.5 108 L 224 109.5 L 222.5 112 L 220 113.5 L 218.5 116 L 216 117.5 L 214.5 120 L 212 121.5 L 210.5 124 L 208 125.5 L 206.5 128 L 204 129.5 L 202.5 132 L 200 133.5 L 198.5 136 L 196 137.5 L 194.5 140 L 192 141.5 L 190.5 144 L 188 145.5 L 186.5 148 L 184 149.5 L 182.5 152 L 180 153.5 L 178.5 156 L 176 157.5 L 174.5 160 L 172 161.5 L 170.5 164 L 164.5 165 L 161 162.5 L 160 160.5 L 160 134 L 88.5 134 L 84 130.5 L 84 112.5 L 81.5 112 L 78.5 116 L 76 117.5 L 74.5 120 L 72 121.5 L 70.5 124 L 68 125.5 L 66.5 128 L 64 129.5 L 62.5 132 L 60 133.5 L 58.5 136 L 56 137.5 L 54.5 140 L 52 141.5 L 50.5 144 L 48 145.5 L 46.5 148 L 44 149.5 L 42.5 152 L 41 152 L 41 156 L 44 157.5 L 45.5 160 L 48 161.5 L 49.5 164 L 52 165.5 L 53.5 168 L 56 169.5 L 57.5 172 L 60 173.5 L 61.5 176 L 64 177.5 L 65.5 180 L 68 181.5 L 69.5 184 L 72 185.5 L 73.5 188 L 76 189.5 L 77.5 192 L 80 193.5 L 81.5 196 L 84 195.5 L 84 176.5 L 85.5 176 L 88.5 174 L 135.5 174 L 139 176 L 140 181.5 L 135.5 185 L 96 185 L 96 212.5 L 94 216 L 88.5 217 L 84 214.5 L 82.5 212 L 80 210.5 L 78.5 208 L 76 206.5 L 74.5 204 L 72 202.5 L 70.5 200 L 68 198.5 L 66.5 196 L 64 194.5 L 62.5 192 L 60 190.5 L 58.5 188 L 56 186.5 L 54.5 184 L 52 182.5 L 50.5 180 L 48 178.5 L 46.5 176 L 44 174.5 L 42.5 172 L 40 170.5 L 38.5 168 L 36 166.5 L 34.5 164 L 32 162.5 L 30.5 160 L 28 158.5 L 27 151.5 L 29.5 148 L 32 146.5 L 33.5 144 L 36 142.5 L 37.5 140 L 40 138.5 L 41.5 136 L 44 134.5 L 45.5 132 L 48 130.5 L 49.5 128 L 52 126.5 L 53.5 124 L 56 122.5 L 57.5 120 L 60 118.5 L 61.5 116 L 64 114.5 L 65.5 112 L 68 110.5 L 69.5 108 L 72 106.5 L 73.5 104 L 76 102.5 L 77.5 100 L 80 98.5 L 81.5 96 L 84 94.5 L 85.5 92 L 91.5 91 L 95 93.5 L 96 96.5 L 96 122 L 166.5 122 L 172 125.5 L 172 143.5 L 174.5 144 L 177.5 140 L 180 138.5 L 181.5 136 L 184 134.5 L 185.5 132 L 188 130.5 L 189.5 128 L 192 126.5 L 193.5 124 L 196 122.5 L 197.5 120 L 200 118.5 L 201.5 116 L 204 114.5 L 205.5 112 L 208 110.5 L 209.5 108 L 212 106.5 L 213.5 104 L 215 104 L 215 100 L 212 98.5 L 210.5 96 L 208 94.5 L 206.5 92 L 204 90.5 L 202.5 88 L 200 86.5 L 198.5 84 L 196 82.5 L 194.5 80 L 192 78.5 L 190.5 76 L 188 74.5 L 186.5 72 L 184 70.5 L 182.5 68 L 180 66.5 L 178.5 64 L 176 62.5 L 174.5 60 L 172 60.5 L 172 79.5 L 170.5 80 L 167.5 82 L 120.5 82 L 116 78.5 Q 115 73 118.5 72 L 120.5 71 L 160 71 L 160 44.5 L 162 40 L 165.5 39 Z " /></svg>