<svg width="200" height="200" version="1.1" xmlns="http://www.w3.org/2000/svg" desc="Created with imagetracer.js version 1.2.6" ><path fill="rgb(0,0,0)" stroke="rgb(0,0,0)" stroke-width="1" opacity="0" d="M 0 0 L 200 0 L 200 200 L 0 200 L 0 0 Z M 59 12 L 55 13 L 53 18 L 54 37 L 61 56 Q 71 76 87 90 L 75 107 L 66 116 L 42 130 Q 30 138 25 153 L 25 166 L 32 179 Q 38 186 50 188 Q 66 189 74 181 Q 84 171 87 154 L 87 147 L 84 139 L 85 128 L 102 107 L 114 126 L 114 160 L 115 165 L 117 170 L 125 180 L 136 186 L 146 188 L 156 186 L 165 181 Q 172 175 175 165 L 175 152 L 168 139 L 158 130 Q 142 125 131 115 L 115 93 L 117 88 Q 129 75 138 60 Q 144 48 147 33 Q 148 22 146 16 L 142 12 L 136 13 L 115 50 L 101 70 L 65 17 L 61 12 L 59 12 Z " /><path fill="rgb(0,0,0)" stroke="rgb(0,0,0)" stroke-width="1" opacity="0" d="M 52.5 143 Q 60.2 143.5 64 147 L 68 155.5 L 68 160.5 L 61.5 169 Q 58.2 172.2 50.5 171 Q 44.4 169.6 42 164.5 Q 39 161.5 40 154.5 Q 41.5 148 46.5 145 L 52.5 143 Z " /><path fill="rgb(0,0,0)" stroke="rgb(0,0,0)" stroke-width="1" opacity="0" d="M 140.5 144 Q 153.4 142.1 157 149.5 Q 160.5 153.5 159 162.5 L 153.5 169 Q 149.8 172.3 141.5 171 L 134 165.5 Q 130.7 161.8 132 153.5 L 138.5 145 L 140.5 144 Z " /><path fill="rgb(127,127,127)" stroke="rgb(127,127,127)" stroke-width="1" opacity="0.9529411764705882" d="M 58.5 12 L 60.5 12 L 65 16.5 L 100.5 70 L 115 49.5 L 135.5 13 L 141.5 12 L 146 15.5 Q 148.3 22.2 147 32.5 Q 144.3 47.8 138 59.5 Q 129.2 75.2 117 87.5 L 115 92.5 L 130.5 115 Q 141.8 124.7 157.5 130 L 168 138.5 L 175 151.5 L 175 164.5 Q 172.4 175.4 164.5 181 L 155.5 186 L 145.5 188 L 135.5 186 L 125 180 L 117 169.5 L 115 164.5 L 114 159.5 L 114 125.5 L 101.5 107 L 85 127.5 L 84 138.5 L 87 146.5 L 87 153.5 Q 84.1 171.1 73.5 181 Q 65.9 188.9 49.5 188 Q 38.3 185.7 32 178.5 L 25 165.5 L 25 152.5 Q 29.6 137.6 41.5 130 L 65.5 116 L 75 106.5 L 87 89.5 Q 70.7 75.8 61 55.5 L 54 36.5 L 53 17.5 L 55 13 L 58.5 12 Z M 53 143 L 47 145 Q 42 148 40 155 Q 39 162 42 165 Q 44 170 51 171 Q 58 172 62 169 L 68 161 L 68 156 L 64 147 Q 60 143 53 143 Z M 141 144 L 139 145 L 132 154 Q 131 162 134 166 L 142 171 Q 150 172 154 169 L 159 163 Q 161 154 157 150 Q 153 142 141 144 Z " /></svg>