<?xml version="1.0" encoding="UTF-8"?>
<svg xmlns="http://www.w3.org/2000/svg" xmlns:xlink="http://www.w3.org/1999/xlink" width="20px" height="px" viewBox="0 0 20 20" version="1.1">
<defs>
<filter id="alpha" filterUnits="objectBoundingBox" x="0%" y="0%" width="100%" height="100%">
  <feColorMatrix type="matrix" in="SourceGraphic" values="0 0 0 0 1 0 0 0 0 1 0 0 0 0 1 0 0 0 1 0"/>
</filter>
<mask id="mask0">
  <g filter="url(#alpha)">
<rect x="0" y="0" width="20" height="20" style="fill:rgb(0%,0%,0%);fill-opacity:0.952941;stroke:none;"/>
  </g>
</mask>
<clipPath id="clip1">
  <rect x="0" y="0" width="20" height="20"/>
</clipPath>
<g id="surface8" clip-path="url(#clip1)">
<path style="fill-rule:nonzero;fill:rgb(49.803922%,49.803922%,49.803922%);fill-opacity:1;stroke-width:1;stroke-linecap:butt;stroke-linejoin:miter;stroke:rgb(49.803922%,49.803922%,49.803922%);stroke-opacity:1;stroke-miterlimit:4;" d="M 58.515625 11.992188 L 60.507812 11.992188 L 65 16.484375 L 100.507812 70 L 115 49.492188 L 135.507812 13.007812 L 141.484375 11.992188 L 146.015625 15.507812 C 147.539062 19.960938 147.851562 25.625 146.992188 32.5 C 145.195312 42.695312 142.1875 51.71875 138.007812 59.492188 C 132.148438 69.960938 125.117188 79.296875 116.992188 87.5 L 115 92.5 L 130.507812 115 C 138.046875 121.484375 147.03125 126.484375 157.5 130 L 168.007812 138.515625 L 175 151.484375 L 175 164.492188 C 173.28125 171.757812 169.765625 177.265625 164.492188 181.015625 L 155.507812 186.015625 L 145.507812 188.007812 L 135.507812 186.015625 L 125 180 L 116.992188 169.492188 L 115 164.492188 L 113.984375 159.492188 L 113.984375 125.507812 L 101.484375 106.992188 L 85 127.5 L 83.984375 138.515625 L 86.992188 146.484375 L 86.992188 153.515625 C 85.078125 165.234375 80.585938 174.414062 73.515625 181.015625 C 68.4375 186.25 60.429688 188.59375 49.492188 188.007812 C 42.03125 186.484375 36.210938 183.28125 31.992188 178.515625 L 25 165.507812 L 25 152.5 C 28.085938 142.578125 33.554688 135.078125 41.484375 130 L 65.507812 116.015625 L 75 106.484375 L 86.992188 89.492188 C 76.132812 80.351562 67.460938 69.023438 61.015625 55.507812 L 53.984375 36.484375 L 53.007812 17.5 L 55 13.007812 Z M 53.007812 143.007812 L 46.992188 145 C 43.671875 146.992188 41.328125 150.351562 40 155 C 39.335938 159.648438 40 163.007812 41.992188 165 C 43.320312 168.320312 46.328125 170.351562 51.015625 171.015625 C 55.664062 171.679688 59.335938 171.015625 61.992188 168.984375 L 68.007812 161.015625 L 68.007812 156.015625 L 63.984375 146.992188 C 61.328125 144.335938 57.65625 143.007812 53.007812 143.007812 Z M 141.015625 143.984375 L 138.984375 145 L 131.992188 153.984375 C 131.328125 159.335938 131.992188 163.320312 133.984375 166.015625 L 141.992188 171.015625 C 147.34375 171.679688 151.328125 171.015625 153.984375 168.984375 L 158.984375 163.007812 C 160.351562 156.992188 159.648438 152.65625 156.992188 150 C 154.335938 144.648438 148.984375 142.65625 141.015625 143.984375 Z M 141.015625 143.984375 " transform="matrix(0.1,0,0,0.1,0,0)"/>
</g>
</defs>
<g id="surface1">
<use xlink:href="#surface8" mask="url(#mask0)"/>
</g>
</svg>
