<svg width="256" height="256" version="1.1" xmlns="http://www.w3.org/2000/svg" desc="Created with imagetracer.js version 1.2.6" ><path fill="rgb(0,0,0)" stroke="rgb(0,0,0)" stroke-width="1" opacity="0" d="M 0 0 L 256 0 L 256 256 L 0 256 L 0 0 Z M 38 25 L 33 28 L 32 33 L 32 225 L 34 229 L 38 231 L 163 231 L 168 227 Q 169 219 167 216 L 164 215 Q 165 211 162 212 L 152 197 L 144 181 L 144 178 L 141 174 L 140 166 L 136 156 L 134 139 L 133 138 L 133 119 L 140 86 L 152 60 L 162 46 Q 161 43 164 44 Q 163 39 168 38 L 168 30 L 163 25 L 38 25 Z M 171 76 L 168 80 L 166 80 L 155 88 L 150 95 Q 149 101 152 103 L 167 114 L 175 118 L 181 116 Q 185 113 184 106 L 223 106 L 224 105 L 224 88 L 184 88 Q 185 81 182 79 L 180 76 L 171 76 Z M 175 138 L 170 140 L 154 152 L 150 158 Q 149 163 152 166 L 171 180 L 180 180 L 184 175 Q 183 168 185 168 L 224 168 L 224 152 L 223 150 L 184 150 L 183 143 Q 180 139 175 138 Z " /><path fill="rgb(0,0,0)" stroke="rgb(0,0,0)" stroke-width="1" opacity="0" d="M 50 43 L 141 43.5 L 132 57.5 L 120 87.5 L 120 92.5 L 115 116.5 L 115 139.5 L 120 168.5 L 124 176.5 L 125 183.5 L 138 210 Q 140.7 208.9 140 211.5 L 140.5 213 L 50 213 L 50 43 Z " /><path fill="rgb(54,170,95)" stroke="rgb(54,170,95)" stroke-width="1" opacity="0.8666666666666667" d="M 37.5 25 L 162.5 25 L 168 29.5 L 168 37.5 Q 163.3 38.9 164 44 Q 161.3 42.9 162 45.5 L 152 59.5 L 140 85.5 L 133 118.5 L 133 137.5 L 134 138.5 L 136 155.5 L 140 165.5 L 141 173.5 L 144 177.5 L 144 180.5 L 152 196.5 L 162 212 Q 165 210.8 164 214.5 L 167 216 Q 169 219 168 226.5 L 162.5 231 L 37.5 231 L 34 228.5 L 32 224.5 L 32 32.5 L 33 28 L 37.5 25 Z M 50 43 L 50 213 L 141 213 L 140 212 Q 141 209 138 210 L 125 184 L 124 177 L 120 169 L 115 140 L 115 117 L 120 93 L 120 88 L 132 58 L 141 44 L 50 43 Z " /><path fill="rgb(54,170,95)" stroke="rgb(54,170,95)" stroke-width="1" opacity="0.8666666666666667" d="M 170.5 76 L 179.5 76 L 182 78.5 Q 185.4 81.3 184 88 L 224 88 L 224 104.5 L 222.5 106 L 184 106 Q 185.3 113.5 180.5 116 L 174.5 118 L 166.5 114 L 152 102.5 Q 149 100.5 150 94.5 L 154.5 88 L 165.5 80 L 168 80 L 170.5 76 Z " /><path fill="rgb(54,170,95)" stroke="rgb(54,170,95)" stroke-width="1" opacity="0.8666666666666667" d="M 174.5 138 Q 180.4 138.6 183 142.5 L 184 150 L 222.5 150 L 224 151.5 L 224 168 L 184.5 168 Q 183.3 168.3 184 174.5 L 179.5 180 L 170.5 180 L 152 165.5 Q 149.3 163.2 150 157.5 L 153.5 152 L 169.5 140 L 174.5 138 Z " /></svg>