<svg width="400" height="400" version="1.1" xmlns="http://www.w3.org/2000/svg" desc="Created with imagetracer.js version 1.2.6" ><path fill="rgb(5,4,3)" stroke="rgb(5,4,3)" stroke-width="1" opacity="0.9725490196078431" d="M 174.5 63 L 222.5 63 L 225 65.5 L 225 141.5 L 227.5 142 Q 241.3 148.7 250 160.5 Q 256.5 167.8 259 178 L 360.5 178 L 363 180.5 L 363 219.5 L 360.5 222 L 259.5 222 L 258 223.5 L 254 233.5 L 248 242 L 246 242 L 246 244 L 244 244 L 244 246 L 242 246 Q 243.1 248.7 240.5 248 Q 234.3 254.8 225 258.5 L 225 334.5 L 222.5 337 L 174.5 337 L 172 334.5 L 172 257.5 L 170.5 256 Q 156.7 249.3 148 237.5 L 139.5 222 L 39.5 222 L 37 219.5 L 37 180.5 L 39.5 178 L 139.5 178 L 140 176.5 Q 146.7 159.2 160.5 149 L 172 141.5 L 172 65.5 L 174.5 63 Z M 175 66 L 176 141 L 183 138 L 193 136 L 208 136 L 222 140 L 222 66 L 175 66 Z M 197 151 L 187 153 L 171 161 Q 155 172 152 195 L 152 197 Q 154 202 151 204 L 155 218 L 161 229 Q 168 238 179 243 L 190 247 Q 195 246 197 248 L 198 247 L 210 247 L 217 245 L 228 239 Q 238 231 244 219 L 247 210 L 247 197 L 248 196 L 244 181 L 237 170 Q 230 161 221 156 L 213 153 L 198 152 L 197 151 Z M 40 181 L 40 219 L 139 219 L 136 206 L 136 194 L 139 183 L 139 181 L 40 181 Z M 260 181 L 263 194 L 263 206 Q 261 207 262 213 L 260 217 L 261 219 L 360 219 L 360 181 L 260 181 Z M 176 258 L 175 334 L 222 334 L 222 259 L 215 262 Q 209 261 208 263 L 185 262 L 176 258 Z " /><path fill="rgb(0,0,0)" stroke="rgb(0,0,0)" stroke-width="1" opacity="0" d="M 0 0 L 400 0 L 400 400 L 0 400 L 0 0 Z M 175 63 L 172 66 L 172 142 L 161 149 Q 147 159 140 177 L 140 178 L 40 178 L 37 181 L 37 220 L 40 222 L 140 222 L 148 238 Q 157 249 171 256 L 172 258 L 172 335 L 175 337 L 223 337 L 225 335 L 225 259 Q 234 255 241 248 Q 243 249 242 246 L 244 246 L 244 244 L 246 244 L 246 242 L 248 242 L 254 234 L 258 224 L 260 222 L 361 222 L 363 220 L 363 181 L 361 178 L 259 178 Q 257 168 250 161 Q 241 149 228 142 L 225 142 L 225 66 L 223 63 L 175 63 Z " /><path fill="rgb(225,90,55)" stroke="rgb(225,90,55)" stroke-width="1" opacity="1" d="M 175 66 L 222 66 L 222 140 L 207.5 136 L 192.5 136 L 182.5 138 L 175.5 141 L 175 66 Z " /><path fill="rgb(225,90,55)" stroke="rgb(225,90,55)" stroke-width="1" opacity="1" d="M 178.5 172 L 184 174 L 184 176 L 186 176 L 186 178 L 188 178 L 188 180 L 190 180 L 190 182 L 192 182 L 192 184 L 194 184 L 194 186 L 196 186 L 196 188 L 198 188 Q 196.9 190.7 199.5 190 L 216.5 173 L 220.5 172 L 227 177.5 L 226 182.5 L 209 199.5 L 227 217.5 L 227 221.5 L 226 224 L 218.5 227 L 216 226 Q 217.1 223.3 214.5 224 L 199.5 209 L 198 209 L 198 210.5 L 187.5 221 L 180.5 227 L 177.5 227 L 172 222.5 L 172 217.5 L 190 199.5 L 172 181.5 L 172 176 L 174 176 Q 172.9 173.3 175.5 174 L 178.5 172 Z " /><path fill="rgb(225,90,55)" stroke="rgb(225,90,55)" stroke-width="1" opacity="1" d="M 175.5 258 L 184.5 262 L 207.5 263 Q 209 260.5 214.5 262 L 221.5 259 L 222 334 L 175 334 L 175.5 258 Z " /><path fill="rgb(254,254,254)" stroke="rgb(254,254,254)" stroke-width="1" opacity="1" d="M 231.5 164 L 235.5 169 L 231.5 164 Z " /><path fill="rgb(254,254,254)" stroke="rgb(254,254,254)" stroke-width="1" opacity="1" d="M 262.5 185 L 264 189.5 L 264 209.5 L 262.5 214 L 262 210.5 L 263 209.5 L 263 189.5 L 262.5 185 Z " /><path fill="rgb(254,254,254)" stroke="rgb(254,254,254)" stroke-width="1" opacity="1" d="M 235.5 230 L 230.5 236 L 235.5 230 Z " /><path fill="rgb(255,255,255)" stroke="rgb(255,255,255)" stroke-width="1" opacity="1" d="M 196.5 152 L 203.5 152 L 218.5 156 Q 229.8 161.2 237 170.5 L 246 188.5 L 247 203.5 Q 244.5 205 246 210.5 L 240 224.5 L 227.5 238 L 210.5 246 L 196.5 247 Q 194.8 244.3 188.5 246 L 176.5 241 L 162 228.5 L 154 212.5 L 152 203.5 L 152 195.5 L 157 178.5 Q 162 168.5 170.5 162 L 183.5 155 L 196.5 152 Z M 178 172 L 176 174 Q 173 173 174 176 L 172 176 L 172 182 L 190 200 L 172 218 L 172 223 L 178 227 L 181 227 L 185 224 L 200 209 L 215 224 Q 217 223 216 226 L 219 227 L 223 226 Q 225 227 224 224 L 226 224 L 227 218 L 209 200 L 227 182 L 227 178 L 222 172 L 217 173 L 200 190 L 198 188 Q 195 189 196 187 L 192 184 L 190 180 Q 187 181 188 178 L 186 178 L 186 176 L 184 176 L 184 174 L 178 172 Z " /><path fill="rgb(255,255,255)" stroke="rgb(255,255,255)" stroke-width="1" opacity="1" d="M 40 181 L 138 181.5 L 136 185.5 L 136 213.5 L 138 219 L 40 219 L 40 181 Z " /><path fill="rgb(255,255,255)" stroke="rgb(255,255,255)" stroke-width="1" opacity="1" d="M 261.5 181 L 360 181 L 360 219 L 261.5 219 L 261 217.5 L 264 209.5 L 264 189.5 L 261.5 181 Z " /></svg>