<svg width="200" height="200" version="1.1" xmlns="http://www.w3.org/2000/svg" desc="Created with imagetracer.js version 1.2.6" ><path fill="rgb(0,0,0)" stroke="rgb(0,0,0)" stroke-width="1" opacity="0" d="M 0 0 L 200 0 L 200 200 L 0 200 L 0 0 Z M 72 12 L 70 14 L 70 22 L 70 22 L 22 22 L 22 42 L 32 42 L 32 174 L 34 179 Q 38 186 48 188 L 152 188 L 160 185 Q 165 181 168 174 L 168 43 L 169 42 L 178 42 L 178 22 L 131 22 L 130 22 L 130 14 L 129 12 L 72 12 Z " /><path fill="rgb(0,0,0)" stroke="rgb(0,0,0)" stroke-width="1" opacity="0" d="M 71 62 L 89.5 62 L 90 62.5 L 90 148 L 71.5 148 L 71 147.5 L 71 62 Z " /><path fill="rgb(0,0,0)" stroke="rgb(0,0,0)" stroke-width="1" opacity="0" d="M 110 62 L 128.5 62 L 129 62.5 L 129 148 L 110.5 148 L 110 147.5 L 110 62 Z " /><path fill="rgb(127,127,127)" stroke="rgb(127,127,127)" stroke-width="1" opacity="0.9803921568627451" d="M 71.5 12 L 128.5 12 L 130 13.5 L 130 21.5 L 130.5 22 L 178 22 L 178 42 L 168.5 42 L 168 42.5 L 168 173.5 L 166.5 176 L 166 174.5 L 167 173.5 L 167 42.5 L 168.5 41 L 177 41 L 177 23 L 129.5 23 L 129 22.5 L 129 13.5 L 128.5 13 L 71 13 L 71 21.5 L 69.5 23 L 23 23 L 23 41 L 31.5 41 L 33 42.5 L 33 173.5 L 39.5 183 L 47.5 187 L 152 187.5 L 47.5 188 Q 38.4 185.5 34 178.5 L 32 173.5 L 32 42 L 22 42 L 22 22 L 69.5 22 L 70 21.5 L 70 13.5 L 71.5 12 Z " /><path fill="rgb(127,127,127)" stroke="rgb(127,127,127)" stroke-width="1" opacity="0.9803921568627451" d="M 71.5 61 L 90.5 61 L 91 61.5 L 91 149 L 70.5 149 L 70 148.5 L 70 62.5 L 71.5 61 Z M 71 62 L 71 148 L 72 148 L 90 148 L 90 63 L 90 62 L 71 62 Z " /><path fill="rgb(127,127,127)" stroke="rgb(127,127,127)" stroke-width="1" opacity="0.9803921568627451" d="M 109 61 L 129.5 61 L 130 61.5 L 130 149 L 109.5 149 L 109 148.5 L 109 61 Z M 110 62 L 110 148 L 111 148 L 129 148 L 129 63 L 129 62 L 110 62 Z " /><path fill="rgb(127,127,127)" stroke="rgb(127,127,127)" stroke-width="1" opacity="0.9803921568627451" d="M 165.5 177 L 165 178.5 L 159.5 185 L 153.5 187 L 153.5 186 Q 160.9 184.9 164 179.5 L 165.5 177 Z " /><path fill="rgb(127,127,127)" stroke="rgb(127,127,127)" stroke-width="1" opacity="1" d="M 71 13 L 128.5 13 L 129 13.5 L 129 22.5 L 129.5 23 L 176.5 23 L 177 23.5 L 177 41 L 168.5 41 L 167 42.5 L 167 173.5 L 160.5 183 L 152.5 187 L 47.5 187 Q 40.1 184.9 36 179.5 L 33 173.5 L 33 42.5 L 31.5 41 L 23 41 L 23 23 L 69.5 23 L 71 21.5 L 71 13 Z M 72 61 L 70 63 L 70 149 L 71 149 L 91 149 L 91 62 L 91 61 L 72 61 Z M 109 61 L 109 149 L 110 149 L 130 149 L 130 62 L 130 61 L 109 61 Z " /></svg>