<svg width="200" height="200" version="1.1" xmlns="http://www.w3.org/2000/svg" desc="Created with imagetracer.js version 1.2.6" ><path fill="rgb(0,0,0)" stroke="rgb(0,0,0)" stroke-width="1" opacity="0" d="M 0 0 L 200 0 L 200 200 L 0 200 L 0 0 Z M 90 7 L 86 13 L 86 81 L 87 82 L 87 113 L 86 114 L 86 188 L 87 191 L 90 193 L 111 193 L 114 189 L 114 124 L 113 123 L 113 83 L 114 82 L 114 12 L 112 9 L 111 7 L 90 7 Z " /><path fill="rgb(125,125,125)" stroke="rgb(125,125,125)" stroke-width="1" opacity="0.21568627450980393" d="M 89.5 7 L 91 7.5 L 88 9.5 L 87.5 11 L 87 9.5 L 89.5 7 Z " /><path fill="rgb(125,125,125)" stroke="rgb(125,125,125)" stroke-width="1" opacity="0.21568627450980393" d="M 109.5 7 L 112 8.5 L 110.5 8 L 109.5 7 Z " /><path fill="rgb(125,125,125)" stroke="rgb(125,125,125)" stroke-width="1" opacity="0.21568627450980393" d="M 112.5 10 L 114 11.5 L 114 81.5 L 113 81.5 L 113 11.5 L 112.5 10 Z " /><path fill="rgb(125,125,125)" stroke="rgb(125,125,125)" stroke-width="1" opacity="0.21568627450980393" d="M 86.5 12 L 87 80.5 L 86 80.5 L 86.5 12 Z " /><path fill="rgb(125,125,125)" stroke="rgb(125,125,125)" stroke-width="1" opacity="0.21568627450980393" d="M 86.5 113 L 87 187.5 L 86 187.5 L 86.5 113 Z " /><path fill="rgb(125,125,125)" stroke="rgb(125,125,125)" stroke-width="1" opacity="0.21568627450980393" d="M 113.5 123 L 114 188.5 L 112 189.5 L 113 188.5 L 113.5 123 Z " /><path fill="rgb(125,125,125)" stroke="rgb(125,125,125)" stroke-width="1" opacity="0.21568627450980393" d="M 87.5 189 L 89.5 192 L 91 192.5 L 89.5 193 Q 85.9 191.9 87.5 189 Z " /><path fill="rgb(125,125,125)" stroke="rgb(125,125,125)" stroke-width="1" opacity="0.21568627450980393" d="M 111.5 191 L 110.5 193 L 109 192.5 L 111.5 191 Z " /><path fill="rgb(127,127,127)" stroke="rgb(127,127,127)" stroke-width="1" opacity="0.996078431372549" d="M 89.5 8 L 88.5 10 L 89.5 8 Z " /><path fill="rgb(127,127,127)" stroke="rgb(127,127,127)" stroke-width="1" opacity="0.996078431372549" d="M 110.5 8 L 111.5 10 L 110.5 8 Z " /><path fill="rgb(127,127,127)" stroke="rgb(127,127,127)" stroke-width="1" opacity="0.996078431372549" d="M 87.5 11 L 88 188.5 L 87 188.5 L 87.5 11 Z " /><path fill="rgb(127,127,127)" stroke="rgb(127,127,127)" stroke-width="1" opacity="0.996078431372549" d="M 112.5 11 L 113 188.5 L 112 188.5 L 112.5 11 Z " /><path fill="rgb(127,127,127)" stroke="rgb(127,127,127)" stroke-width="1" opacity="0.996078431372549" d="M 88.5 190 L 89.5 192 L 88.5 190 Z " /><path fill="rgb(127,127,127)" stroke="rgb(127,127,127)" stroke-width="1" opacity="0.996078431372549" d="M 111.5 190 L 110.5 192 L 111.5 190 Z " /><path fill="rgb(127,127,127)" stroke="rgb(127,127,127)" stroke-width="1" opacity="1" d="M 93.5 7 L 106.5 7 L 112 10.5 L 112 189.5 L 109.5 192 Q 103.6 194.6 93.5 193 L 88 189.5 L 88 10.5 L 90.5 8 L 93.5 7 Z " /></svg>