<svg width="200" height="200" version="1.1" xmlns="http://www.w3.org/2000/svg" desc="Created with imagetracer.js version 1.2.6" ><path fill="rgb(0,0,0)" stroke="rgb(0,0,0)" stroke-width="1" opacity="0" d="M 0 0 L 200 0 L 200 200 L 0 200 L 0 0 Z M 58 41 L 51 44 L 46 49 L 18 92 L 22 91 L 178 91 L 181 92 L 182 93 L 182 91 L 154 49 Q 150 42 142 41 L 58 41 Z M 23 100 L 19 102 Q 13 105 12 113 L 12 148 L 16 155 L 25 159 L 175 159 L 181 157 Q 186 154 188 147 L 188 112 L 186 107 L 178 100 L 23 100 Z " /><path fill="rgb(0,0,0)" stroke="rgb(0,0,0)" stroke-width="1" opacity="0" d="M 126.5 120 Q 135.1 118.9 137 124.5 L 138 132.5 L 134.5 137 L 125.5 138 L 122 136 Q 119.3 133.4 120 126.5 L 124.5 121 L 126.5 120 Z " /><path fill="rgb(0,0,0)" stroke="rgb(0,0,0)" stroke-width="1" opacity="0" d="M 155.5 120 L 160.5 120 L 167 125.5 L 168 129.5 L 163.5 137 L 154.5 138 Q 148.9 135.6 149 127.5 L 153.5 121 L 155.5 120 Z " /><path fill="rgb(127,127,127)" stroke="rgb(127,127,127)" stroke-width="1" opacity="0.9686274509803922" d="M 57.5 41 L 142 41.5 L 57.5 42 L 57.5 41 Z " /><path fill="rgb(127,127,127)" stroke="rgb(127,127,127)" stroke-width="1" opacity="0.9686274509803922" d="M 54.5 42 L 56 42.5 L 47 48.5 L 19 90.5 L 21 91.5 L 17.5 93 L 18 91.5 L 46 48.5 L 50.5 44 L 54.5 42 Z " /><path fill="rgb(127,127,127)" stroke="rgb(127,127,127)" stroke-width="1" opacity="0.9686274509803922" d="M 143.5 42 Q 150.9 43.1 154 48.5 L 182 90.5 L 182 92.5 L 180.5 92 L 177.5 91 L 22 90.5 L 177.5 90 L 180 91 L 151 46 L 143.5 43 L 143.5 42 Z " /><path fill="rgb(127,127,127)" stroke="rgb(127,127,127)" stroke-width="1" opacity="0.9686274509803922" d="M 22.5 100 L 26 100.5 Q 18.8 101.3 15.5 106 L 18.5 102 L 22.5 100 Z " /><path fill="rgb(127,127,127)" stroke="rgb(127,127,127)" stroke-width="1" opacity="0.9686274509803922" d="M 173.5 100 Q 182.6 100.4 186 106.5 L 188 111.5 L 188 146.5 L 187 146.5 L 187 111.5 L 183 104 L 177.5 101 L 173.5 101 L 173.5 100 Z " /><path fill="rgb(127,127,127)" stroke="rgb(127,127,127)" stroke-width="1" opacity="0.9686274509803922" d="M 14.5 107 L 14 108.5 L 13.5 111 L 13 108.5 L 14.5 107 Z " /><path fill="rgb(127,127,127)" stroke="rgb(127,127,127)" stroke-width="1" opacity="0.9686274509803922" d="M 12.5 112 L 13 147.5 L 19.5 156 L 24.5 158 L 175 158.5 L 24.5 159 L 16 155 L 12 147.5 L 12.5 112 Z " /><path fill="rgb(127,127,127)" stroke="rgb(127,127,127)" stroke-width="1" opacity="0.9686274509803922" d="M 127.5 119 L 131 119.5 L 127.5 120 L 127.5 119 Z " /><path fill="rgb(127,127,127)" stroke="rgb(127,127,127)" stroke-width="1" opacity="0.9686274509803922" d="M 156.5 119 L 160.5 119 L 167 123.5 L 168 128.5 L 167 128.5 L 167 125.5 L 162.5 121 L 156.5 120 L 156.5 119 Z " /><path fill="rgb(127,127,127)" stroke="rgb(127,127,127)" stroke-width="1" opacity="0.9686274509803922" d="M 124.5 120 L 126 120.5 L 121 124.5 L 120.5 126 L 120 124.5 L 124.5 120 Z " /><path fill="rgb(127,127,127)" stroke="rgb(127,127,127)" stroke-width="1" opacity="0.9686274509803922" d="M 132.5 120 L 137 122.5 Q 140.4 125.1 139 132.5 L 134.5 138 L 125.5 139 L 120 134.5 L 119 127.5 L 120 127.5 Q 119.4 133.7 122 136 L 125.5 138 L 132.5 138 L 137 134.5 L 138 126.5 L 133.5 121 L 132.5 120 Z " /><path fill="rgb(127,127,127)" stroke="rgb(127,127,127)" stroke-width="1" opacity="0.9686274509803922" d="M 153.5 120 L 155 120.5 L 150 124.5 L 149.5 127 L 149 124.5 L 153.5 120 Z " /><path fill="rgb(127,127,127)" stroke="rgb(127,127,127)" stroke-width="1" opacity="0.9686274509803922" d="M 148.5 128 L 149 130.5 L 148 130.5 L 148.5 128 Z " /><path fill="rgb(127,127,127)" stroke="rgb(127,127,127)" stroke-width="1" opacity="0.9686274509803922" d="M 167.5 130 L 168 132.5 L 163.5 138 L 154.5 139 L 150 135.5 L 149 132.5 L 150 132.5 L 154.5 138 Q 163.5 139.5 166 134.5 L 167.5 130 Z " /><path fill="rgb(127,127,127)" stroke="rgb(127,127,127)" stroke-width="1" opacity="0.9686274509803922" d="M 186.5 148 L 187 149.5 L 180.5 157 L 176.5 158 L 176.5 157 Q 182.9 156.4 185 151.5 L 186.5 148 Z " /><path fill="rgb(127,127,127)" stroke="rgb(127,127,127)" stroke-width="1" opacity="1" d="M 56.5 42 L 142.5 42 L 151 46 L 180 91 L 177.5 90 L 22.5 90 L 19.5 91 L 21 88.5 L 50.5 45 L 56.5 42 Z " /><path fill="rgb(127,127,127)" stroke="rgb(127,127,127)" stroke-width="1" opacity="1" d="M 26.5 100 L 172.5 100 L 177.5 101 L 183 104 L 187 111.5 L 187 147.5 L 180.5 156 L 175.5 158 L 24.5 158 Q 18 156.5 15 151.5 L 13 147.5 L 13 111.5 Q 14.3 105.8 18.5 103 L 26.5 100 Z M 128 119 L 125 120 L 119 128 L 120 135 L 126 139 L 135 138 L 139 133 Q 140 125 137 123 Q 134 119 128 119 Z M 157 119 L 154 120 L 149 125 L 148 129 L 150 136 L 155 139 L 164 138 L 168 133 L 167 124 L 161 119 L 157 119 Z " /></svg>