<svg width="200" height="200" version="1.1" xmlns="http://www.w3.org/2000/svg" desc="Created with imagetracer.js version 1.2.6" ><path fill="rgb(0,0,0)" stroke="rgb(0,0,0)" stroke-width="1" opacity="0" d="M 0 0 L 200 0 L 200 200 L 0 200 L 0 0 Z M 164 13 L 160 15 L 146 30 L 146 32 L 172 56 L 186 42 L 188 38 L 188 35 L 184 29 L 171 15 L 164 13 Z M 27 26 L 19 30 Q 13 34 12 42 L 12 173 L 16 181 L 27 187 L 166 187 L 173 184 Q 179 180 181 172 L 181 104 L 180 101 L 174 95 Q 167 94 164 97 L 161 104 L 161 167 L 32 167 L 32 46 L 98 46 L 102 45 L 107 39 Q 108 32 105 30 L 100 26 L 27 26 Z M 138 38 L 57 119 L 55 129 L 55 138 L 54 139 Q 52 146 57 148 L 58 147 L 76 146 L 84 144 Q 125 105 163 63 L 138 38 Z " /><path fill="rgb(128,128,128)" stroke="rgb(128,128,128)" stroke-width="1" opacity="0.4470588235294118" d="M 163.5 13 L 167 13.5 L 163.5 14 L 163.5 13 Z " /><path fill="rgb(128,128,128)" stroke="rgb(128,128,128)" stroke-width="1" opacity="0.4470588235294118" d="M 159.5 15 L 157.5 18 L 159.5 15 Z " /><path fill="rgb(128,128,128)" stroke="rgb(128,128,128)" stroke-width="1" opacity="0.4470588235294118" d="M 170.5 15 L 183.5 29 L 170.5 15 Z " /><path fill="rgb(128,128,128)" stroke="rgb(128,128,128)" stroke-width="1" opacity="0.4470588235294118" d="M 150.5 25 L 146.5 30 L 150.5 25 Z " /><path fill="rgb(128,128,128)" stroke="rgb(128,128,128)" stroke-width="1" opacity="0.4470588235294118" d="M 26.5 26 L 100 26.5 L 26.5 27 L 26.5 26 Z " /><path fill="rgb(128,128,128)" stroke="rgb(128,128,128)" stroke-width="1" opacity="0.4470588235294118" d="M 21.5 28 L 20.5 30 L 21.5 28 Z " /><path fill="rgb(128,128,128)" stroke="rgb(128,128,128)" stroke-width="1" opacity="0.4470588235294118" d="M 103.5 28 L 104.5 30 L 103.5 28 Z " /><path fill="rgb(128,128,128)" stroke="rgb(128,128,128)" stroke-width="1" opacity="0.4470588235294118" d="M 18.5 30 L 16.5 33 L 18.5 30 Z " /><path fill="rgb(128,128,128)" stroke="rgb(128,128,128)" stroke-width="1" opacity="0.4470588235294118" d="M 146.5 31 L 171.5 55 L 186 41.5 L 170.5 56 L 146.5 31 Z " /><path fill="rgb(128,128,128)" stroke="rgb(128,128,128)" stroke-width="1" opacity="0.4470588235294118" d="M 106.5 33 L 107 38.5 L 106 38.5 L 106.5 33 Z " /><path fill="rgb(128,128,128)" stroke="rgb(128,128,128)" stroke-width="1" opacity="0.4470588235294118" d="M 15.5 34 L 15 35.5 L 14.5 37 L 14 35.5 L 15.5 34 Z " /><path fill="rgb(128,128,128)" stroke="rgb(128,128,128)" stroke-width="1" opacity="0.4470588235294118" d="M 187.5 34 L 188 37.5 L 187 37.5 L 187.5 34 Z " /><path fill="rgb(128,128,128)" stroke="rgb(128,128,128)" stroke-width="1" opacity="0.4470588235294118" d="M 138.5 38 L 162.5 63 L 138.5 38 Z " /><path fill="rgb(128,128,128)" stroke="rgb(128,128,128)" stroke-width="1" opacity="0.4470588235294118" d="M 105.5 40 L 104.5 42 L 105.5 40 Z " /><path fill="rgb(128,128,128)" stroke="rgb(128,128,128)" stroke-width="1" opacity="0.4470588235294118" d="M 12.5 41 L 13 172.5 L 12 172.5 L 12.5 41 Z " /><path fill="rgb(128,128,128)" stroke="rgb(128,128,128)" stroke-width="1" opacity="0.4470588235294118" d="M 102.5 43 L 101.5 45 L 102.5 43 Z " /><path fill="rgb(128,128,128)" stroke="rgb(128,128,128)" stroke-width="1" opacity="0.4470588235294118" d="M 32.5 45 L 98 45.5 L 32 46 L 32 167 L 161 167 L 161.5 103 L 162 166.5 L 160.5 168 L 32.5 168 L 31 166.5 L 31 46.5 L 32.5 45 Z " /><path fill="rgb(128,128,128)" stroke="rgb(128,128,128)" stroke-width="1" opacity="0.4470588235294118" d="M 144.5 82 L 83.5 144 L 144.5 82 Z " /><path fill="rgb(128,128,128)" stroke="rgb(128,128,128)" stroke-width="1" opacity="0.4470588235294118" d="M 168.5 95 L 174 95.5 L 168.5 96 L 168.5 95 Z " /><path fill="rgb(128,128,128)" stroke="rgb(128,128,128)" stroke-width="1" opacity="0.4470588235294118" d="M 175.5 96 L 176.5 98 L 175.5 96 Z " /><path fill="rgb(128,128,128)" stroke="rgb(128,128,128)" stroke-width="1" opacity="0.4470588235294118" d="M 178.5 99 L 179.5 101 L 178.5 99 Z " /><path fill="rgb(128,128,128)" stroke="rgb(128,128,128)" stroke-width="1" opacity="0.4470588235294118" d="M 180.5 103 L 181 171.5 L 180 171.5 L 180.5 103 Z " /><path fill="rgb(128,128,128)" stroke="rgb(128,128,128)" stroke-width="1" opacity="0.4470588235294118" d="M 61.5 114 L 57.5 119 L 61.5 114 Z " /><path fill="rgb(128,128,128)" stroke="rgb(128,128,128)" stroke-width="1" opacity="0.4470588235294118" d="M 56.5 120 L 57 123.5 L 56 123.5 L 56.5 120 Z " /><path fill="rgb(128,128,128)" stroke="rgb(128,128,128)" stroke-width="1" opacity="0.4470588235294118" d="M 55.5 128 L 56 133.5 L 55 133.5 L 55.5 128 Z " /><path fill="rgb(128,128,128)" stroke="rgb(128,128,128)" stroke-width="1" opacity="0.4470588235294118" d="M 54.5 138 L 55 145.5 L 57 147.5 L 54 145.5 L 54.5 138 Z " /><path fill="rgb(128,128,128)" stroke="rgb(128,128,128)" stroke-width="1" opacity="0.4470588235294118" d="M 71.5 145 L 76 145.5 L 71.5 146 L 71.5 145 Z " /><path fill="rgb(128,128,128)" stroke="rgb(128,128,128)" stroke-width="1" opacity="0.4470588235294118" d="M 61.5 146 L 67 146.5 L 61.5 147 L 61.5 146 Z " /><path fill="rgb(128,128,128)" stroke="rgb(128,128,128)" stroke-width="1" opacity="0.4470588235294118" d="M 179.5 173 L 180 175.5 L 178 176.5 L 179.5 173 Z " /><path fill="rgb(128,128,128)" stroke="rgb(128,128,128)" stroke-width="1" opacity="0.4470588235294118" d="M 13.5 174 L 17 181 L 26.5 186 L 166 186.5 L 26.5 187 L 16 180.5 L 13 175.5 L 13.5 174 Z " /><path fill="rgb(128,128,128)" stroke="rgb(128,128,128)" stroke-width="1" opacity="0.4470588235294118" d="M 173.5 182 L 172.5 184 L 173.5 182 Z " /><path fill="rgb(127,127,127)" stroke="rgb(127,127,127)" stroke-width="1" opacity="0.996078431372549" d="M 162.5 14 L 169.5 15 L 186 31.5 L 187 38.5 L 171.5 55 L 146 30.5 L 160.5 15 L 162.5 14 Z " /><path fill="rgb(127,127,127)" stroke="rgb(127,127,127)" stroke-width="1" opacity="0.996078431372549" d="M 25.5 27 L 100.5 27 L 105 30.5 L 106 39.5 L 104 43 L 100.5 45 L 32.5 45 L 31 46.5 L 31 166.5 L 32.5 168 L 160.5 168 L 162 166.5 L 162 101.5 L 165.5 97 L 174.5 96 L 178 98 L 180 101.5 L 180 172.5 L 174.5 182 L 166.5 186 L 26.5 186 L 17 181 L 13 173.5 L 13 39.5 L 19.5 30 L 25.5 27 Z " /><path fill="rgb(127,127,127)" stroke="rgb(127,127,127)" stroke-width="1" opacity="0.996078431372549" d="M 137.5 38 L 163 63.5 L 82.5 144 L 56.5 147 L 55 145.5 L 55 134.5 L 56 133.5 L 57 119.5 L 62 113.5 L 137.5 38 Z " /></svg>