<svg width="256" height="256" version="1.1" xmlns="http://www.w3.org/2000/svg" desc="Created with imagetracer.js version 1.2.6" ><path fill="rgb(0,100,249)" stroke="rgb(0,100,249)" stroke-width="1" opacity="0.4745098039215686" d="M 61.5 56 L 65 56.5 L 61.5 57 L 61.5 56 Z " /><path fill="rgb(0,100,249)" stroke="rgb(0,100,249)" stroke-width="1" opacity="0.4745098039215686" d="M 132.5 56 L 137 56.5 L 132.5 57 L 132.5 56 Z " /><path fill="rgb(0,100,249)" stroke="rgb(0,100,249)" stroke-width="1" opacity="0.4745098039215686" d="M 184.5 56 L 187 56.5 L 184.5 57 L 184.5 56 Z " /><path fill="rgb(0,100,249)" stroke="rgb(0,100,249)" stroke-width="1" opacity="0.4745098039215686" d="M 192.5 56 L 198 56.5 L 192.5 57 L 192.5 56 Z " /><path fill="rgb(0,100,249)" stroke="rgb(0,100,249)" stroke-width="1" opacity="0.4745098039215686" d="M 138.5 57 L 141 57.5 L 138.5 58 L 138.5 57 Z " /><path fill="rgb(0,100,249)" stroke="rgb(0,100,249)" stroke-width="1" opacity="0.4745098039215686" d="M 182.5 57 L 181.5 59 L 182.5 57 Z " /><path fill="rgb(0,100,249)" stroke="rgb(0,100,249)" stroke-width="1" opacity="0.4745098039215686" d="M 178.5 61 L 178 62.5 L 177.5 64 L 177 62.5 L 178.5 61 Z " /><path fill="rgb(0,100,249)" stroke="rgb(0,100,249)" stroke-width="1" opacity="0.4745098039215686" d="M 45.5 62 L 44.5 64 L 45.5 62 Z " /><path fill="rgb(0,100,249)" stroke="rgb(0,100,249)" stroke-width="1" opacity="0.4745098039215686" d="M 151.5 62 L 163 72.5 L 164 74.5 L 161 72.5 L 155.5 66 L 151.5 62 Z " /><path fill="rgb(0,100,249)" stroke="rgb(0,100,249)" stroke-width="1" opacity="0.4745098039215686" d="M 211.5 62 L 223 72.5 L 226 77.5 L 224 76.5 Q 221 69 214.5 65 L 211.5 62 Z " /><path fill="rgb(0,100,249)" stroke="rgb(0,100,249)" stroke-width="1" opacity="0.4745098039215686" d="M 42.5 64 L 38.5 69 L 42.5 64 Z " /><path fill="rgb(0,100,249)" stroke="rgb(0,100,249)" stroke-width="1" opacity="0.4745098039215686" d="M 176.5 65 L 177 70.5 L 176 70.5 L 176.5 65 Z " /><path fill="rgb(0,100,249)" stroke="rgb(0,100,249)" stroke-width="1" opacity="0.4745098039215686" d="M 36.5 70 L 34.5 73 L 36.5 70 Z " /><path fill="rgb(0,100,249)" stroke="rgb(0,100,249)" stroke-width="1" opacity="0.4745098039215686" d="M 177.5 72 L 179 74.5 L 177 73.5 L 177.5 72 Z " /><path fill="rgb(0,100,249)" stroke="rgb(0,100,249)" stroke-width="1" opacity="0.4745098039215686" d="M 33.5 74 L 32.5 76 L 33.5 74 Z " /><path fill="rgb(0,100,249)" stroke="rgb(0,100,249)" stroke-width="1" opacity="0.4745098039215686" d="M 164.5 76 L 168 82.5 L 167 82.5 L 164.5 76 Z " /><path fill="rgb(0,100,249)" stroke="rgb(0,100,249)" stroke-width="1" opacity="0.4745098039215686" d="M 181.5 77 L 182.5 79 L 181.5 77 Z " /><path fill="rgb(0,100,249)" stroke="rgb(0,100,249)" stroke-width="1" opacity="0.4745098039215686" d="M 63.5 80 L 132 80.5 L 63.5 81 L 61.5 82 L 61.5 81 L 63.5 80 Z " /><path fill="rgb(0,100,249)" stroke="rgb(0,100,249)" stroke-width="1" opacity="0.4745098039215686" d="M 188.5 80 L 193 80.5 L 188.5 81 L 188.5 80 Z " /><path fill="rgb(0,100,249)" stroke="rgb(0,100,249)" stroke-width="1" opacity="0.4745098039215686" d="M 227.5 81 L 230 88.5 L 229 88.5 L 227.5 81 Z " /><path fill="rgb(0,100,249)" stroke="rgb(0,100,249)" stroke-width="1" opacity="0.4745098039215686" d="M 137.5 82 L 139.5 85 L 137.5 82 Z " /><path fill="rgb(0,100,249)" stroke="rgb(0,100,249)" stroke-width="1" opacity="0.4745098039215686" d="M 197.5 82 L 198.5 84 L 197.5 82 Z " /><path fill="rgb(0,100,249)" stroke="rgb(0,100,249)" stroke-width="1" opacity="0.4745098039215686" d="M 56.5 84 L 53.5 88 L 56.5 84 Z " /><path fill="rgb(0,100,249)" stroke="rgb(0,100,249)" stroke-width="1" opacity="0.4745098039215686" d="M 200.5 84 L 201.5 86 L 200.5 84 Z " /><path fill="rgb(0,100,249)" stroke="rgb(0,100,249)" stroke-width="1" opacity="0.4745098039215686" d="M 142.5 87 L 143.5 89 L 142.5 87 Z " /><path fill="rgb(0,100,249)" stroke="rgb(0,100,249)" stroke-width="1" opacity="0.4745098039215686" d="M 169.5 87 L 170 90.5 L 169 90.5 L 169.5 87 Z " /><path fill="rgb(0,100,249)" stroke="rgb(0,100,249)" stroke-width="1" opacity="0.4745098039215686" d="M 203.5 88 L 206 92.5 L 205 92.5 L 203.5 88 Z " /><path fill="rgb(0,100,249)" stroke="rgb(0,100,249)" stroke-width="1" opacity="0.4745098039215686" d="M 26.5 89 L 27 94.5 L 26 94.5 L 26.5 89 Z " /><path fill="rgb(0,100,249)" stroke="rgb(0,100,249)" stroke-width="1" opacity="0.4745098039215686" d="M 230.5 91 L 231 95.5 L 230 95.5 L 230.5 91 Z " /><path fill="rgb(0,100,249)" stroke="rgb(0,100,249)" stroke-width="1" opacity="0.4745098039215686" d="M 170.5 92 L 171 130.5 L 170 130.5 L 170.5 92 Z " /><path fill="rgb(0,100,249)" stroke="rgb(0,100,249)" stroke-width="1" opacity="0.4745098039215686" d="M 50.5 94 L 51 162.5 L 50 162.5 L 50.5 94 Z " /><path fill="rgb(0,100,249)" stroke="rgb(0,100,249)" stroke-width="1" opacity="0.4745098039215686" d="M 206.5 94 L 207 161.5 L 206 161.5 L 206.5 94 Z " /><path fill="rgb(0,100,249)" stroke="rgb(0,100,249)" stroke-width="1" opacity="0.4745098039215686" d="M 146.5 96 L 147 130.5 L 146 130.5 L 146.5 96 Z " /><path fill="rgb(0,100,249)" stroke="rgb(0,100,249)" stroke-width="1" opacity="0.4745098039215686" d="M 99.5 116 Q 103.3 115.3 104 117.5 L 102.5 117 Q 98.5 117.8 99.5 116 Z " /><path fill="rgb(0,100,249)" stroke="rgb(0,100,249)" stroke-width="1" opacity="0.4745098039215686" d="M 92.5 117 L 91.5 119 L 92.5 117 Z " /><path fill="rgb(0,100,249)" stroke="rgb(0,100,249)" stroke-width="1" opacity="0.4745098039215686" d="M 105.5 118 L 108.5 122 L 105.5 118 Z " /><path fill="rgb(0,100,249)" stroke="rgb(0,100,249)" stroke-width="1" opacity="0.4745098039215686" d="M 88.5 121 L 87.5 123 L 88.5 121 Z " /><path fill="rgb(0,100,249)" stroke="rgb(0,100,249)" stroke-width="1" opacity="0.4745098039215686" d="M 86.5 124 L 87 127.5 L 86 127.5 L 86.5 124 Z " /><path fill="rgb(0,100,249)" stroke="rgb(0,100,249)" stroke-width="1" opacity="0.4745098039215686" d="M 110.5 126 L 111 161.5 L 110 161.5 L 110.5 126 Z " /><path fill="rgb(0,100,249)" stroke="rgb(0,100,249)" stroke-width="1" opacity="0.4745098039215686" d="M 169.5 133 L 168.5 135 L 169.5 133 Z " /><path fill="rgb(0,100,249)" stroke="rgb(0,100,249)" stroke-width="1" opacity="0.4745098039215686" d="M 149.5 136 L 150.5 138 L 149.5 136 Z " /><path fill="rgb(0,100,249)" stroke="rgb(0,100,249)" stroke-width="1" opacity="0.4745098039215686" d="M 167.5 136 L 166.5 138 L 167.5 136 Z " /><path fill="rgb(0,100,249)" stroke="rgb(0,100,249)" stroke-width="1" opacity="0.4745098039215686" d="M 152.5 138 L 155 139.5 L 153.5 140 L 152.5 138 Z " /><path fill="rgb(0,100,249)" stroke="rgb(0,100,249)" stroke-width="1" opacity="0.4745098039215686" d="M 164.5 138 L 163.5 140 L 161 139.5 L 164.5 138 Z " /><path fill="rgb(0,100,249)" stroke="rgb(0,100,249)" stroke-width="1" opacity="0.4745098039215686" d="M 157.5 140 L 160 140.5 L 157.5 141 L 157.5 140 Z " /><path fill="rgb(0,100,249)" stroke="rgb(0,100,249)" stroke-width="1" opacity="0.4745098039215686" d="M 230.5 160 L 231 165.5 L 230 165.5 L 230.5 160 Z " /><path fill="rgb(0,100,249)" stroke="rgb(0,100,249)" stroke-width="1" opacity="0.4745098039215686" d="M 86.5 161 L 87 164.5 L 86 164.5 L 86.5 161 Z " /><path fill="rgb(0,100,249)" stroke="rgb(0,100,249)" stroke-width="1" opacity="0.4745098039215686" d="M 26.5 162 L 27 165.5 L 26 165.5 L 26.5 162 Z " /><path fill="rgb(0,100,249)" stroke="rgb(0,100,249)" stroke-width="1" opacity="0.4745098039215686" d="M 51.5 164 L 58.5 173 L 64 175.5 L 62.5 176 L 54 171 L 51.5 164 Z " /><path fill="rgb(0,100,249)" stroke="rgb(0,100,249)" stroke-width="1" opacity="0.4745098039215686" d="M 113.5 168 Q 117.1 173.9 125 175.5 L 122.5 176 Q 115.7 173.5 113.5 168 Z " /><path fill="rgb(0,100,249)" stroke="rgb(0,100,249)" stroke-width="1" opacity="0.4745098039215686" d="M 203.5 168 L 198.5 174 L 203.5 168 Z " /><path fill="rgb(0,100,249)" stroke="rgb(0,100,249)" stroke-width="1" opacity="0.4745098039215686" d="M 89.5 174 L 92 178.5 L 90 177.5 L 89.5 174 Z " /><path fill="rgb(0,100,249)" stroke="rgb(0,100,249)" stroke-width="1" opacity="0.4745098039215686" d="M 66.5 176 L 71 176.5 L 66.5 177 L 66.5 176 Z " /><path fill="rgb(0,100,249)" stroke="rgb(0,100,249)" stroke-width="1" opacity="0.4745098039215686" d="M 126.5 176 L 191 176.5 L 126.5 177 L 126.5 176 Z " /><path fill="rgb(0,100,249)" stroke="rgb(0,100,249)" stroke-width="1" opacity="0.4745098039215686" d="M 73.5 177 L 78 180.5 L 80 185.5 L 79 185.5 L 75.5 179 L 73.5 177 Z " /><path fill="rgb(0,100,249)" stroke="rgb(0,100,249)" stroke-width="1" opacity="0.4745098039215686" d="M 31.5 179 L 32.5 181 L 31.5 179 Z " /><path fill="rgb(0,100,249)" stroke="rgb(0,100,249)" stroke-width="1" opacity="0.4745098039215686" d="M 33.5 182 L 34.5 184 L 33.5 182 Z " /><path fill="rgb(0,100,249)" stroke="rgb(0,100,249)" stroke-width="1" opacity="0.4745098039215686" d="M 93.5 182 L 96.5 186 L 93.5 182 Z " /><path fill="rgb(0,100,249)" stroke="rgb(0,100,249)" stroke-width="1" opacity="0.4745098039215686" d="M 222.5 183 L 221.5 185 L 222.5 183 Z " /><path fill="rgb(0,100,249)" stroke="rgb(0,100,249)" stroke-width="1" opacity="0.4745098039215686" d="M 36.5 186 L 40.5 191 L 36.5 186 Z " /><path fill="rgb(0,100,249)" stroke="rgb(0,100,249)" stroke-width="1" opacity="0.4745098039215686" d="M 97.5 187 L 99.5 190 L 97.5 187 Z " /><path fill="rgb(0,100,249)" stroke="rgb(0,100,249)" stroke-width="1" opacity="0.4745098039215686" d="M 219.5 187 L 218.5 189 L 219.5 187 Z " /><path fill="rgb(0,100,249)" stroke="rgb(0,100,249)" stroke-width="1" opacity="0.4745098039215686" d="M 101.5 190 L 104.5 194 L 101.5 190 Z " /><path fill="rgb(0,100,249)" stroke="rgb(0,100,249)" stroke-width="1" opacity="0.4745098039215686" d="M 42.5 191 L 44.5 194 L 42.5 191 Z " /><path fill="rgb(0,100,249)" stroke="rgb(0,100,249)" stroke-width="1" opacity="0.4745098039215686" d="M 214.5 191 L 212.5 194 L 210.5 195 L 211.5 193 L 214.5 191 Z " /><path fill="rgb(0,100,249)" stroke="rgb(0,100,249)" stroke-width="1" opacity="0.4745098039215686" d="M 50.5 196 L 53 197.5 L 51.5 198 L 50.5 196 Z " /><path fill="rgb(0,100,249)" stroke="rgb(0,100,249)" stroke-width="1" opacity="0.4745098039215686" d="M 74.5 198 L 73.5 200 L 72 199.5 L 74.5 198 Z " /><path fill="rgb(0,100,249)" stroke="rgb(0,100,249)" stroke-width="1" opacity="0.4745098039215686" d="M 200.5 198 L 202 198.5 L 196.5 200 L 196.5 199 L 200.5 198 Z " /><path fill="rgb(0,100,249)" stroke="rgb(0,100,249)" stroke-width="1" opacity="0.4745098039215686" d="M 63.5 200 L 71 200.5 L 63.5 201 L 63.5 200 Z " /><path fill="rgb(0,100,249)" stroke="rgb(0,100,249)" stroke-width="1" opacity="0.4745098039215686" d="M 123.5 200 L 194 200.5 L 123.5 201 L 123.5 200 Z " /><path fill="rgb(0,100,250)" stroke="rgb(0,100,250)" stroke-width="1" opacity="1" d="M 65.5 56 L 131.5 56 L 141.5 58 L 150.5 62 L 161 71.5 Q 167.9 79.1 170 91.5 L 170 132.5 L 165.5 138 Q 162.2 140.7 155.5 140 L 148 134.5 L 147 131.5 L 147 96.5 Q 145 86.5 137.5 82 L 131.5 80 L 63.5 80 L 53 87.5 L 50 94.5 L 50 162.5 L 54 171 L 62.5 176 L 72.5 177 L 77 180.5 Q 80.7 183.3 80 190.5 L 75.5 198 Q 70.5 202 59.5 200 Q 43.8 195.8 35 184.5 L 28 171.5 L 26 161.5 L 26 95.5 L 29 82.5 L 37 69 L 52.5 59 L 65.5 56 Z " /><path fill="rgb(0,100,250)" stroke="rgb(0,100,250)" stroke-width="1" opacity="1" d="M 187.5 56 L 198.5 57 L 204.5 59 Q 215.2 63.8 222 72.5 L 227 80.5 L 231 96.5 L 231 159.5 L 228 173.5 Q 223.8 184.3 215.5 191 Q 207.6 197.6 195.5 200 L 120.5 200 Q 105.4 196.6 97 186.5 Q 89.9 179.1 87 167.5 Q 88.5 162 86 160.5 L 86 128.5 L 87 123.5 L 90.5 119 L 98.5 116 Q 105.9 117.1 109 122.5 L 110 125.5 L 110 161.5 Q 112.2 169.9 118.5 174 L 126.5 177 L 190.5 177 Q 199.8 175.3 204 168.5 L 207 161.5 L 207 94.5 L 200.5 84 L 192.5 80 L 183.5 79 L 179 75.5 Q 175.8 72.2 177 64.5 L 180.5 59 L 187.5 56 Z " /><path fill="rgb(0,0,0)" stroke="rgb(0,0,0)" stroke-width="1" opacity="0" d="M 0 0 L 256 0 L 256 256 L 0 256 L 0 0 Z M 62 56 Q 50 58 43 64 Q 31 73 26 90 L 26 166 Q 29 178 36 187 L 52 198 L 64 201 L 71 201 L 77 198 L 81 189 L 78 181 L 74 177 L 65 176 L 59 173 L 51 164 L 51 93 L 53 89 Q 56 83 64 81 L 134 81 L 141 85 L 146 95 L 146 131 L 149 137 L 154 140 L 158 141 Q 164 141 167 138 L 171 131 L 171 93 Q 169 81 163 73 Q 154 60 137 56 L 62 56 Z M 185 56 L 183 57 Q 177 59 176 66 L 176 71 L 179 77 L 185 80 L 194 81 L 200 84 L 206 94 L 206 163 L 204 168 Q 200 174 193 176 L 126 176 L 119 173 Q 113 170 111 163 L 111 127 L 109 122 L 103 116 L 96 116 L 89 119 L 86 125 L 86 165 Q 88 179 97 188 Q 106 198 124 201 L 194 201 Q 209 198 219 189 Q 227 180 231 166 L 231 92 Q 229 80 223 73 Q 216 63 204 58 Q 197 54 185 56 Z " /></svg>