<svg width="200" height="200" version="1.1" xmlns="http://www.w3.org/2000/svg" desc="Created with imagetracer.js version 1.2.6" ><path fill="rgb(0,0,0)" stroke="rgb(0,0,0)" stroke-width="1" opacity="0" d="M 0 0 L 200 0 L 200 200 L 0 200 L 0 0 Z M 96 32 L 94 33 L 89 39 L 75 70 L 56 73 L 51 75 L 45 75 L 37 78 L 32 84 Q 30 93 35 97 Q 34 99 37 98 L 37 100 L 39 100 L 59 121 L 54 150 L 52 155 L 52 159 L 55 165 L 60 168 L 70 168 L 99 152 L 131 168 Q 138 170 142 167 L 147 160 L 147 153 L 144 142 L 144 135 L 141 125 L 141 121 L 166 96 L 168 92 L 167 82 Q 163 77 157 75 L 151 75 L 126 70 L 109 37 Q 110 34 107 35 L 107 33 Q 104 31 96 32 Z " /><path fill="rgb(127,127,127)" stroke="rgb(127,127,127)" stroke-width="1" opacity="0.8784313725490196" d="M 97.5 32 L 102 32.5 L 97.5 33 L 97.5 32 Z " /><path fill="rgb(127,127,127)" stroke="rgb(127,127,127)" stroke-width="1" opacity="0.8784313725490196" d="M 93.5 34 L 91.5 37 L 93.5 34 Z " /><path fill="rgb(127,127,127)" stroke="rgb(127,127,127)" stroke-width="1" opacity="0.8784313725490196" d="M 78.5 63 L 79 64.5 L 77.5 67 L 77 65.5 L 78.5 63 Z " /><path fill="rgb(127,127,127)" stroke="rgb(127,127,127)" stroke-width="1" opacity="0.8784313725490196" d="M 70.5 71 L 74 71.5 L 70.5 72 L 70.5 71 Z " /><path fill="rgb(127,127,127)" stroke="rgb(127,127,127)" stroke-width="1" opacity="0.8784313725490196" d="M 126.5 71 L 129 71.5 L 126.5 72 L 126.5 71 Z " /><path fill="rgb(127,127,127)" stroke="rgb(127,127,127)" stroke-width="1" opacity="0.8784313725490196" d="M 65.5 72 L 68 72.5 L 65.5 73 L 65.5 72 Z " /><path fill="rgb(127,127,127)" stroke="rgb(127,127,127)" stroke-width="1" opacity="0.8784313725490196" d="M 132.5 72 L 135 72.5 L 132.5 73 L 132.5 72 Z " /><path fill="rgb(127,127,127)" stroke="rgb(127,127,127)" stroke-width="1" opacity="0.8784313725490196" d="M 60.5 73 L 63 73.5 L 60.5 74 L 60.5 73 Z " /><path fill="rgb(127,127,127)" stroke="rgb(127,127,127)" stroke-width="1" opacity="0.8784313725490196" d="M 137.5 73 L 140 73.5 L 137.5 74 L 137.5 73 Z " /><path fill="rgb(127,127,127)" stroke="rgb(127,127,127)" stroke-width="1" opacity="0.8784313725490196" d="M 54.5 74 L 58 74.5 L 54.5 75 L 54.5 74 Z " /><path fill="rgb(127,127,127)" stroke="rgb(127,127,127)" stroke-width="1" opacity="0.8784313725490196" d="M 143.5 74 L 146 74.5 L 143.5 75 L 143.5 74 Z " /><path fill="rgb(127,127,127)" stroke="rgb(127,127,127)" stroke-width="1" opacity="0.8784313725490196" d="M 49.5 75 L 53 75.5 L 49.5 76 L 49.5 75 Z " /><path fill="rgb(127,127,127)" stroke="rgb(127,127,127)" stroke-width="1" opacity="0.8784313725490196" d="M 148.5 75 L 151 75.5 L 148.5 76 L 148.5 75 Z " /><path fill="rgb(127,127,127)" stroke="rgb(127,127,127)" stroke-width="1" opacity="0.8784313725490196" d="M 36.5 79 L 35.5 81 L 36.5 79 Z " /><path fill="rgb(127,127,127)" stroke="rgb(127,127,127)" stroke-width="1" opacity="0.8784313725490196" d="M 163.5 79 L 164.5 81 L 163.5 79 Z " /><path fill="rgb(127,127,127)" stroke="rgb(127,127,127)" stroke-width="1" opacity="0.8784313725490196" d="M 34.5 94 L 35.5 96 L 34.5 94 Z " /><path fill="rgb(127,127,127)" stroke="rgb(127,127,127)" stroke-width="1" opacity="0.8784313725490196" d="M 164.5 95 L 141.5 119 L 164.5 95 Z " /><path fill="rgb(127,127,127)" stroke="rgb(127,127,127)" stroke-width="1" opacity="0.8784313725490196" d="M 37.5 97 L 38.5 99 L 37.5 97 Z " /><path fill="rgb(127,127,127)" stroke="rgb(127,127,127)" stroke-width="1" opacity="0.8784313725490196" d="M 42.5 102 L 43.5 104 L 42.5 102 Z " /><path fill="rgb(127,127,127)" stroke="rgb(127,127,127)" stroke-width="1" opacity="0.8784313725490196" d="M 45.5 105 L 59.5 120 L 45.5 105 Z " /><path fill="rgb(127,127,127)" stroke="rgb(127,127,127)" stroke-width="1" opacity="0.8784313725490196" d="M 59.5 122 L 60 124.5 L 59 124.5 L 59.5 122 Z " /><path fill="rgb(127,127,127)" stroke="rgb(127,127,127)" stroke-width="1" opacity="0.8784313725490196" d="M 140.5 123 L 141 126.5 L 140 126.5 L 140.5 123 Z " /><path fill="rgb(127,127,127)" stroke="rgb(127,127,127)" stroke-width="1" opacity="0.8784313725490196" d="M 58.5 127 L 59 130.5 L 58 130.5 L 58.5 127 Z " /><path fill="rgb(127,127,127)" stroke="rgb(127,127,127)" stroke-width="1" opacity="0.8784313725490196" d="M 141.5 129 L 142 132.5 L 141 132.5 L 141.5 129 Z " /><path fill="rgb(127,127,127)" stroke="rgb(127,127,127)" stroke-width="1" opacity="0.8784313725490196" d="M 57.5 133 L 58 135.5 L 57 135.5 L 57.5 133 Z " /><path fill="rgb(127,127,127)" stroke="rgb(127,127,127)" stroke-width="1" opacity="0.8784313725490196" d="M 142.5 135 L 143 137.5 L 142 137.5 L 142.5 135 Z " /><path fill="rgb(127,127,127)" stroke="rgb(127,127,127)" stroke-width="1" opacity="0.8784313725490196" d="M 55.5 144 L 56 146.5 L 55 146.5 L 55.5 144 Z " /><path fill="rgb(127,127,127)" stroke="rgb(127,127,127)" stroke-width="1" opacity="0.8784313725490196" d="M 144.5 146 L 145 148.5 L 144 148.5 L 144.5 146 Z " /><path fill="rgb(127,127,127)" stroke="rgb(127,127,127)" stroke-width="1" opacity="0.8784313725490196" d="M 54.5 149 L 55 151.5 L 54 151.5 L 54.5 149 Z " /><path fill="rgb(127,127,127)" stroke="rgb(127,127,127)" stroke-width="1" opacity="0.8784313725490196" d="M 99.5 150 L 102 151.5 L 100.5 151 L 99.5 150 Z " /><path fill="rgb(127,127,127)" stroke="rgb(127,127,127)" stroke-width="1" opacity="0.8784313725490196" d="M 97.5 151 L 96.5 153 L 92.5 155 L 93.5 153 L 97.5 151 Z " /><path fill="rgb(127,127,127)" stroke="rgb(127,127,127)" stroke-width="1" opacity="0.8784313725490196" d="M 145.5 152 L 146 156.5 L 145 156.5 L 145.5 152 Z " /><path fill="rgb(127,127,127)" stroke="rgb(127,127,127)" stroke-width="1" opacity="0.8784313725490196" d="M 89.5 155 L 91 155.5 L 86.5 158 L 87.5 156 L 89.5 155 Z " /><path fill="rgb(127,127,127)" stroke="rgb(127,127,127)" stroke-width="1" opacity="0.8784313725490196" d="M 54.5 160 L 56 162.5 L 54 161.5 L 54.5 160 Z " /><path fill="rgb(127,127,127)" stroke="rgb(127,127,127)" stroke-width="1" opacity="0.8784313725490196" d="M 119.5 160 L 129 165.5 L 127.5 165 L 120.5 162 L 119.5 160 Z " /><path fill="rgb(127,127,127)" stroke="rgb(127,127,127)" stroke-width="1" opacity="0.8784313725490196" d="M 143.5 163 L 141.5 166 L 143.5 163 Z " /><path fill="rgb(127,127,127)" stroke="rgb(127,127,127)" stroke-width="1" opacity="0.8784313725490196" d="M 70.5 165 L 69.5 167 L 68 166.5 L 70.5 165 Z " /><path fill="rgb(127,127,127)" stroke="rgb(127,127,127)" stroke-width="1" opacity="0.8784313725490196" d="M 62.5 167 L 67 167.5 L 62.5 168 L 62.5 167 Z " /><path fill="rgb(127,127,127)" stroke="rgb(127,127,127)" stroke-width="1" opacity="1" d="M 96.5 33 Q 105.5 31.5 108 36.5 L 124 71 L 158.5 77 L 165 81.5 Q 167.7 83.8 167 89.5 L 165 94.5 L 139 120.5 L 146 157.5 Q 144.8 163.3 140.5 166 L 135.5 168 L 99.5 150 L 67.5 167 L 60.5 167 L 56 163.5 Q 52.8 160.2 54 152.5 L 59 130.5 L 60 119.5 L 45.5 105 L 44 105 L 42.5 102 L 39 99.5 L 37.5 97 Q 35.3 97.8 36 95.5 Q 31.7 93.3 33 85.5 L 37.5 79 L 46.5 76 L 52.5 76 L 76 71 L 91 37.5 L 94.5 34 L 96.5 33 Z " /><path fill="rgb(131,131,131)" stroke="rgb(131,131,131)" stroke-width="1" opacity="0.2980392156862745" d="M 95.5 32 L 97 32.5 L 91.5 36 L 93.5 33 L 95.5 32 Z " /><path fill="rgb(131,131,131)" stroke="rgb(131,131,131)" stroke-width="1" opacity="0.2980392156862745" d="M 102.5 32 L 107 33 L 107 35 Q 109.7 33.9 109 36.5 L 124 67.5 L 123 67.5 L 109 37.5 L 104.5 33 Q 101.5 33.5 102.5 32 Z " /><path fill="rgb(131,131,131)" stroke="rgb(131,131,131)" stroke-width="1" opacity="0.2980392156862745" d="M 90.5 37 L 90 38.5 L 74.5 71 L 71 70.5 L 75 70 L 76 65.5 L 90.5 37 Z " /><path fill="rgb(131,131,131)" stroke="rgb(131,131,131)" stroke-width="1" opacity="0.2980392156862745" d="M 124.5 69 L 129.5 71 L 145 73.5 L 140.5 74 L 125.5 71 L 124.5 69 Z " /><path fill="rgb(131,131,131)" stroke="rgb(131,131,131)" stroke-width="1" opacity="0.2980392156862745" d="M 66.5 71 L 70 71.5 L 66.5 72 L 66.5 71 Z " /><path fill="rgb(131,131,131)" stroke="rgb(131,131,131)" stroke-width="1" opacity="0.2980392156862745" d="M 60.5 72 L 65 72.5 L 55.5 74 L 55.5 73 L 60.5 72 Z " /><path fill="rgb(131,131,131)" stroke="rgb(131,131,131)" stroke-width="1" opacity="0.2980392156862745" d="M 51.5 74 L 54 74.5 L 51.5 75 L 51.5 74 Z " /><path fill="rgb(131,131,131)" stroke="rgb(131,131,131)" stroke-width="1" opacity="0.2980392156862745" d="M 146.5 74 L 150 74.5 L 146.5 75 L 146.5 74 Z " /><path fill="rgb(131,131,131)" stroke="rgb(131,131,131)" stroke-width="1" opacity="0.2980392156862745" d="M 44.5 75 L 49 75.5 L 40.5 77 L 35 80.5 L 32.5 87 L 32 83.5 L 36.5 78 L 44.5 75 Z " /><path fill="rgb(131,131,131)" stroke="rgb(131,131,131)" stroke-width="1" opacity="0.2980392156862745" d="M 151.5 75 Q 162.7 74.8 167 81.5 L 168 91.5 L 166 95.5 L 141 120.5 L 140.5 123 L 140 119 L 141.5 119 L 165 95.5 Q 168.2 92.2 167 84.5 L 163.5 79 Q 159.2 75.8 151.5 76 L 151.5 75 Z " /><path fill="rgb(131,131,131)" stroke="rgb(131,131,131)" stroke-width="1" opacity="0.2980392156862745" d="M 32.5 89 L 34 94.5 L 60 121.5 L 59 121.5 L 38.5 100 L 37 100 L 37 98 Q 34.3 99.1 35 96.5 Q 30.7 94.4 32.5 89 Z " /><path fill="rgb(131,131,131)" stroke="rgb(131,131,131)" stroke-width="1" opacity="0.2980392156862745" d="M 58.5 124 L 59 126.5 L 58 126.5 L 58.5 124 Z " /><path fill="rgb(131,131,131)" stroke="rgb(131,131,131)" stroke-width="1" opacity="0.2980392156862745" d="M 141.5 125 L 142 128.5 L 141 128.5 L 141.5 125 Z " /><path fill="rgb(131,131,131)" stroke="rgb(131,131,131)" stroke-width="1" opacity="0.2980392156862745" d="M 57.5 128 L 58 132.5 L 55.5 144 L 55 139.5 L 57.5 128 Z " /><path fill="rgb(131,131,131)" stroke="rgb(131,131,131)" stroke-width="1" opacity="0.2980392156862745" d="M 142.5 130 Q 144.8 133.8 144 140.5 L 143 140.5 L 142.5 130 Z " /><path fill="rgb(131,131,131)" stroke="rgb(131,131,131)" stroke-width="1" opacity="0.2980392156862745" d="M 144.5 142 L 145 145.5 L 144 145.5 L 144.5 142 Z " /><path fill="rgb(131,131,131)" stroke="rgb(131,131,131)" stroke-width="1" opacity="0.2980392156862745" d="M 54.5 145 L 55 148.5 L 54 148.5 L 54.5 145 Z " /><path fill="rgb(131,131,131)" stroke="rgb(131,131,131)" stroke-width="1" opacity="0.2980392156862745" d="M 145.5 148 Q 147.9 152.1 147 159.5 L 141.5 167 L 138.5 168 L 138.5 167 L 144 163.5 Q 147.2 160.2 146 152.5 L 145.5 148 Z " /><path fill="rgb(131,131,131)" stroke="rgb(131,131,131)" stroke-width="1" opacity="0.2980392156862745" d="M 53.5 150 L 54 155.5 L 53 157.5 L 54 160.5 L 53 160.5 L 52 154.5 L 53.5 150 Z " /><path fill="rgb(131,131,131)" stroke="rgb(131,131,131)" stroke-width="1" opacity="0.2980392156862745" d="M 98.5 151 L 120 161.5 L 118.5 161 L 98.5 152 L 97 152.5 L 98.5 151 Z " /><path fill="rgb(131,131,131)" stroke="rgb(131,131,131)" stroke-width="1" opacity="0.2980392156862745" d="M 93.5 154 L 92.5 156 L 91 155.5 L 93.5 154 Z " /><path fill="rgb(131,131,131)" stroke="rgb(131,131,131)" stroke-width="1" opacity="0.2980392156862745" d="M 89.5 156 L 88.5 158 L 67.5 168 L 67.5 167 L 89.5 156 Z " /><path fill="rgb(131,131,131)" stroke="rgb(131,131,131)" stroke-width="1" opacity="0.2980392156862745" d="M 54.5 162 Q 56.1 166.9 62 167.5 L 59.5 168 L 55 164.5 L 54.5 162 Z " /><path fill="rgb(131,131,131)" stroke="rgb(131,131,131)" stroke-width="1" opacity="0.2980392156862745" d="M 121.5 162 L 133 167.5 L 130.5 168 L 122.5 164 L 121.5 162 Z " /></svg>