<svg width="256" height="256" version="1.1" xmlns="http://www.w3.org/2000/svg" desc="Created with imagetracer.js version 1.2.6" ><path fill="rgb(0,0,0)" stroke="rgb(0,0,0)" stroke-width="1" opacity="0" d="M 0 0 L 256 0 L 256 256 L 0 256 L 0 0 Z M 151 34 L 149 35 L 144 42 L 144 45 L 139 55 Q 140 57 137 56 L 137 61 L 133 66 Q 133 73 129 77 Q 131 82 127 81 L 127 85 L 123 92 L 113 123 L 109 119 Q 110 115 108 116 L 106 114 L 101 109 L 28 109 L 26 113 L 26 220 L 32 224 L 225 224 L 227 223 L 231 217 L 231 115 L 228 109 L 158 109 L 152 113 L 146 121 L 145 121 L 145 105 L 147 103 L 147 96 L 149 89 L 149 81 L 151 80 Q 154 60 162 45 L 161 38 Q 159 33 151 34 Z " /><path fill="rgb(0,0,0)" stroke="rgb(0,0,0)" stroke-width="1" opacity="0" d="M 42 125 L 92.5 125 L 95 127.5 L 94 138.5 L 85 155.5 L 84 173.5 Q 87.1 189.9 98.5 198 L 109.5 205 L 116 206.5 L 42 207 L 42 125 Z " /><path fill="rgb(0,0,0)" stroke="rgb(0,0,0)" stroke-width="1" opacity="0" d="M 162 125 L 214 125 L 214 207 L 141 206.5 Q 155.5 203 163 192.5 L 169 183.5 L 170 175.5 L 172 173.5 L 172 160.5 Q 168.7 157.3 169 150.5 L 162 139.5 L 160 129.5 L 162 125 Z " /><path fill="rgb(0,0,0)" stroke="rgb(0,0,0)" stroke-width="1" opacity="0" d="M 128.5 129 L 130 146.5 L 132 148.5 L 133 158.5 L 136 164.5 L 136 168.5 L 132.5 173 Q 131.1 175.6 126.5 175 L 121 170.5 L 120 163.5 L 123 146.5 L 128.5 129 Z " /><path fill="rgb(0,0,0)" stroke="rgb(0,0,0)" stroke-width="1" opacity="0" d="M 149.5 151 L 155 161.5 L 155 172.5 Q 151.8 181.8 144.5 187 L 142.5 188 L 149 180.5 L 149 177 Q 151.7 178.1 151 175.5 L 152 174.5 L 152 159.5 L 149 153.5 L 149.5 151 Z " /><path fill="rgb(0,0,0)" stroke="rgb(0,0,0)" stroke-width="1" opacity="0" d="M 104.5 156 L 105 157.5 L 104 158.5 L 104 172.5 L 105 178 L 107 178 L 107 181 Q 110 180 109 183 L 105 180.5 L 101 171.5 L 101 161.5 L 104.5 156 Z " /><path fill="rgb(0,0,0)" stroke="rgb(0,0,0)" stroke-width="1" opacity="0" d="M 109.5 184 L 113 185 L 114 187.5 L 111.5 186 L 109.5 184 Z " /><path fill="rgb(51,171,95)" stroke="rgb(51,171,95)" stroke-width="1" opacity="0.11764705882352941" d="M 150.5 34 Q 158.8 32.7 161 37.5 L 162 44.5 Q 153.7 60 151 80 Q 147.3 81.3 149 75.5 L 155 55.5 L 161 42.5 L 159 37 L 152.5 35 L 148 37.5 L 121 101.5 L 121 104.5 L 111.5 131 L 110 121.5 L 103.5 113 L 96.5 110 L 30.5 110 L 27 115.5 L 27 216.5 L 29 221 L 35.5 223 L 221.5 223 L 229 218.5 L 230 215.5 L 230 115.5 L 228 111 L 224.5 110 L 161.5 110 Q 153.2 111.7 149 117.5 L 145 130.5 L 149 147.5 L 157 162.5 L 157 172.5 Q 153.2 183.2 144.5 189 L 135.5 193 L 122.5 193 L 113.5 190 L 109 187 Q 110.1 184.3 107.5 185 L 105 181 Q 102 182.3 103 178.5 L 101 176.5 L 99 165.5 L 103 153 Q 106 154.3 105 150.5 L 107 149.5 L 105 158.5 L 105 172.5 L 111 184 L 119.5 189 L 131.5 190 Q 142.3 188.3 147 180.5 L 150 174.5 L 150 158.5 L 149 154.5 L 151 155.5 Q 153.5 163 152 174.5 L 151 177 Q 147.7 175.7 149 180.5 L 143.5 187 L 151 180.5 Q 156.8 174.8 155 161.5 L 149.5 151 L 148.5 153 L 146 146.5 L 145 133.5 L 144 132.5 L 144 104.5 L 145 103.5 L 146 89.5 L 148.5 81 L 149 88.5 L 147 95.5 L 147 102.5 L 145 104.5 L 145 120.5 L 146 120.5 L 151.5 113 L 157.5 109 L 227.5 109 L 231 114.5 L 231 216.5 L 226.5 223 L 224.5 224 L 31.5 224 L 26 219.5 L 26 112.5 L 28 109 L 100.5 109 L 106 113.5 L 107.5 116 Q 110.1 115.2 109 118.5 L 112.5 123 L 123 91.5 L 127 84.5 L 127 81 Q 130.7 82.3 129 76.5 Q 133.3 73.3 133 65.5 L 137 60.5 L 137 56 Q 139.7 57.1 139 54.5 L 144 44.5 L 144 41.5 L 148.5 35 L 150.5 34 Z M 105 156 L 101 162 Q 100 171 103 177 L 105 178 L 104 173 L 104 159 L 105 158 L 105 156 Z M 105 178 L 105 181 L 109 183 Q 110 180 107 181 L 107 178 L 105 178 Z M 111 185 L 112 186 L 113 187 Q 114 184 111 185 Z " /><path fill="rgb(51,171,95)" stroke="rgb(51,171,95)" stroke-width="1" opacity="0.11764705882352941" d="M 41 123 L 90.5 123 L 96 125 Q 97.9 127.7 97 134.5 L 86 158.5 L 85 171.5 L 89 184.5 L 95.5 193 Q 97.8 192.3 97 194.5 Q 103.6 201.4 113.5 205 Q 119.2 204.3 121.5 207 L 133.5 207 Q 151.4 203.9 161 192.5 L 165 187.5 L 169 178.5 L 170 160.5 L 167 150.5 L 159 135.5 L 159 127.5 L 160 125 L 163.5 123 L 214.5 123 L 216 124.5 L 216 207.5 L 214.5 209 L 42.5 209 L 41 207.5 L 41 123 Z M 42 125 L 42 207 L 116 207 L 110 205 L 99 198 Q 87 190 84 174 L 85 156 L 94 139 L 95 128 L 93 125 L 42 125 Z M 162 125 L 160 130 L 162 140 L 169 151 Q 169 157 172 161 L 172 174 L 170 176 L 169 184 L 163 193 Q 155 203 141 207 L 214 207 L 214 125 L 162 125 Z " /><path fill="rgb(51,171,95)" stroke="rgb(51,171,95)" stroke-width="1" opacity="0.11764705882352941" d="M 128 124 L 130 124.5 L 130 132.5 L 131 133.5 L 131 141.5 L 133 147.5 L 133 152.5 L 137 162.5 L 137 169.5 L 132.5 175 L 125.5 176 L 119 170.5 L 118 164.5 Q 120.7 162.8 119 156.5 L 121 152.5 L 121 146.5 L 128 124 Z M 129 129 L 123 147 L 120 164 L 121 171 L 127 175 Q 131 176 133 173 L 136 169 L 136 165 L 133 159 L 132 149 L 130 147 L 129 129 Z " /><path fill="rgb(54,171,95)" stroke="rgb(54,171,95)" stroke-width="1" opacity="0.9294117647058824" d="M 152.5 35 L 159 37 L 161 42.5 L 153 61.5 L 146 89.5 L 145 103.5 L 144 104.5 L 144 132.5 L 145 133.5 L 146 146.5 L 150 158.5 L 150 174.5 Q 147.4 181.9 141.5 186 L 136.5 189 L 124.5 190 L 119.5 189 L 111 184 L 105 172.5 L 105 158.5 L 107 149.5 L 105 150.5 L 105 153 Q 102 151.8 103 155.5 L 101 157.5 L 99 168.5 L 103 181 Q 105.7 179.9 105 182.5 L 109 185 Q 107.9 187.7 110.5 187 L 113.5 190 L 122.5 193 L 135.5 193 L 144.5 189 L 153 180.5 L 157 172.5 L 157 162.5 L 149 147.5 L 145 129.5 L 147 121.5 L 151.5 115 L 161.5 110 L 224.5 110 L 228 111 L 230 115.5 L 230 215.5 L 226.5 221 L 221.5 223 L 35.5 223 L 29 221 L 27 216.5 L 27 115.5 L 30.5 110 L 96.5 110 L 105 114.5 Q 111.5 119.5 111.5 131 L 121 104.5 L 121 101.5 L 124 96.5 L 137 61.5 L 149.5 36 L 152.5 35 Z M 41 123 L 41 208 L 43 209 L 215 209 L 216 208 L 216 125 L 215 123 L 164 123 L 160 125 L 159 128 L 159 136 L 167 151 L 170 161 L 169 179 L 165 188 L 161 193 Q 151 204 134 207 L 122 207 Q 119 204 114 205 Q 104 201 97 195 Q 98 192 96 193 L 89 185 L 85 172 L 86 159 L 97 135 Q 98 128 96 125 L 91 123 L 41 123 Z M 128 124 L 121 147 L 121 153 L 119 157 Q 121 163 118 165 L 119 171 L 126 176 L 133 175 L 137 170 L 137 163 L 133 153 L 133 148 L 131 142 L 131 134 L 130 133 L 130 125 L 128 124 Z " /></svg>