<svg width="256" height="256" version="1.1" xmlns="http://www.w3.org/2000/svg" desc="Created with imagetracer.js version 1.2.6" ><path fill="rgb(0,0,0)" stroke="rgb(0,0,0)" stroke-width="1" opacity="0" d="M 0 0 L 256 0 L 256 256 L 0 256 L 0 0 Z M 143 38 L 138 40 L 136 43 L 132 45 L 130 52 Q 129 61 132 65 L 142 70 L 161 69 L 167 65 L 167 59 Q 164 56 164 50 L 161 48 L 158 42 Q 155 43 156 40 L 150 38 L 143 38 Z M 109 75 L 98 77 Q 95 76 96 79 L 89 80 L 77 88 Q 73 87 74 90 Q 74 93 70 92 L 68 96 L 66 97 Q 63 96 64 99 L 58 104 L 56 108 L 52 110 L 52 113 L 47 121 L 47 124 L 56 124 L 64 120 Q 69 122 68 119 L 74 116 Q 78 113 76 104 L 80 97 L 83 96 Q 85 97 84 94 L 88 92 L 91 92 L 92 89 L 102 87 L 113 88 L 114 89 Q 116 88 115 91 L 123 93 L 132 100 Q 135 99 134 102 L 142 107 L 139 109 L 136 113 L 133 115 L 131 118 L 128 120 L 124 126 L 122 127 L 120 131 L 118 132 L 113 139 L 112 140 L 95 145 Q 91 144 92 147 L 87 148 L 67 160 L 63 161 L 61 164 L 56 165 L 55 168 Q 51 167 52 170 Q 52 173 48 172 L 46 175 Q 46 178 42 177 L 32 189 Q 33 191 31 190 L 25 201 L 25 208 Q 28 207 27 210 L 36 210 L 38 208 L 45 208 L 64 200 L 65 197 Q 71 197 75 192 Q 77 193 76 190 Q 79 191 81 188 L 86 184 L 88 180 L 91 179 Q 93 180 92 178 L 95 176 L 96 174 L 99 172 L 100 170 L 103 168 L 105 165 Q 104 162 107 163 L 108 160 L 118 160 L 119 159 L 152 161 L 168 164 L 173 167 L 181 169 Q 183 168 182 171 L 186 172 Q 189 171 188 174 L 191 174 L 196 183 L 195 187 L 195 196 L 197 196 L 198 200 L 202 201 L 206 206 L 208 206 L 208 208 Q 212 206 211 210 L 225 218 Q 230 219 231 217 L 231 213 L 227 202 L 224 200 L 224 197 L 219 190 Q 220 187 217 188 Q 218 185 215 184 Q 216 181 214 182 L 211 178 L 208 176 L 206 172 Q 203 173 204 170 L 197 164 Q 194 165 195 162 L 190 160 L 187 156 L 185 156 L 175 149 L 169 147 Q 165 148 166 145 L 147 139 L 128 137 L 133 131 Q 132 126 136 128 L 140 122 L 143 120 L 144 118 Q 143 115 147 116 L 148 112 L 151 111 L 161 116 L 173 116 L 183 112 L 188 108 Q 190 109 189 107 L 195 102 Q 194 99 197 100 L 199 98 L 201 92 L 200 83 L 198 80 L 194 79 L 178 80 L 166 88 L 162 88 L 148 81 L 140 79 Q 135 80 136 77 Q 132 75 124 76 L 123 75 L 109 75 Z " /><path fill="rgb(0,0,0)" stroke="rgb(0,0,0)" stroke-width="1" opacity="0" d="M 190.5 86 L 196 88.5 L 192.5 92 L 178.5 93 L 176 91.5 L 178 91 Q 176.9 88.3 179.5 89 L 190.5 86 Z " /><path fill="rgb(0,0,0)" stroke="rgb(0,0,0)" stroke-width="1" opacity="0" d="M 92.5 161 L 94 161.5 L 92 162 L 90 166.5 L 79.5 177 L 72 182 Q 73.3 185 69.5 184 L 66.5 188 L 64.5 188 L 53.5 196 L 50 196 Q 51.1 198.7 48.5 198 Q 45 201.2 38 200 L 36 196 Q 38.7 197.1 38 194.5 L 42 186 L 44 186 Q 42.9 183.3 45.5 184 L 48 180 L 61.5 172 L 66.5 171 L 69.5 168 L 73.5 168 L 81.5 164 Q 88.5 164 92.5 161 Z " /><path fill="rgb(233,144,50)" stroke="rgb(233,144,50)" stroke-width="1" opacity="0.4" d="M 142.5 38 L 149.5 38 L 156 40 Q 154.9 42.7 157.5 42 L 161 48 L 164 49.5 Q 164 55.5 167 58.5 L 167 64.5 L 160.5 69 L 141.5 70 L 132 65 Q 129 60.8 130 51.5 L 132 45 L 136 42.5 L 137.5 40 L 142.5 38 Z M 144 39 L 141 40 Q 134 44 131 53 L 132 62 Q 135 67 143 69 L 160 68 L 166 64 Q 165 51 158 46 Q 159 43 156 44 L 156 42 L 150 39 L 144 39 Z " /><path fill="rgb(233,144,50)" stroke="rgb(233,144,50)" stroke-width="1" opacity="0.4" d="M 108.5 75 L 122.5 75 L 123.5 76 Q 131.8 75.1 136 77 Q 134.7 80.3 139.5 79 L 147.5 81 L 161.5 88 L 165.5 88 L 177.5 80 L 180.5 80 L 179.5 82 Q 170.5 84 165.5 90 L 162.5 90 L 160.5 88 L 157.5 88 L 155.5 86 L 132.5 78 L 121.5 76 L 110.5 76 L 92.5 80 L 84.5 84 Q 68.8 92.8 58 106.5 L 48 120.5 L 48 123 Q 54.9 123.8 59.5 121 L 74 114 L 75.5 104 L 76 112.5 L 73.5 116 L 68 118.5 Q 68.9 121.9 63.5 120 L 55.5 124 L 47 124 L 47 120.5 L 52 112.5 L 52 110 L 56 107.5 L 57.5 104 L 64 98.5 Q 63.3 96.3 65.5 97 L 68 96 L 69.5 92 Q 73.5 92.5 74 89.5 Q 73.2 86.9 76.5 88 L 88.5 80 L 96 79 Q 94.9 76.3 97.5 77 L 108.5 75 Z " /><path fill="rgb(233,144,50)" stroke="rgb(233,144,50)" stroke-width="1" opacity="0.4" d="M 182.5 79 Q 194.9 77.1 200 82.5 L 201 91.5 L 199 97.5 L 196.5 100 Q 194.3 99.3 195 101.5 L 189 106.5 Q 189.8 108.8 187.5 108 L 182.5 112 L 172.5 116 L 160.5 116 L 150.5 111 L 148 112 L 146.5 116 Q 143.2 114.9 144 117.5 L 143 120 L 140 121.5 L 136 128 Q 131.9 126.3 133 130.5 L 128 136.5 L 146.5 139 L 166 145 Q 164.8 148 168.5 147 L 174.5 149 L 184.5 156 L 187 156 L 189.5 160 L 195 162 Q 193.9 164.7 196.5 164 L 204 170 Q 202.9 172.7 205.5 172 L 208 176 L 211 177.5 L 213.5 182 Q 215.8 181.3 215 183.5 Q 217.8 184.6 217 188 Q 219.7 186.9 219 189.5 L 224 196.5 L 224 198.5 L 223 198.5 L 208 176 L 206 176 L 206 174 L 204 174 L 204 172 L 202 172 L 202 170 Q 199 171 200 168 L 197 168 L 197 166.5 Q 181.8 153.2 161.5 145 L 145.5 140 L 125 137.5 L 149.5 110 L 160.5 114 L 174.5 114 Q 185.4 110.4 192 102.5 L 193.5 100 L 196 98.5 L 200 91.5 L 200 85.5 L 193.5 80 L 182.5 80 L 182.5 79 Z " /><path fill="rgb(233,144,50)" stroke="rgb(233,144,50)" stroke-width="1" opacity="0.4" d="M 189.5 85 Q 195 84.5 197 87.5 Q 197.5 91.5 194.5 92 L 191.5 94 L 174.5 94 L 173 91.5 L 182.5 86 Q 188 87.5 189.5 85 Z M 191 86 L 180 89 Q 177 88 178 91 L 176 92 L 179 93 L 193 92 L 196 89 L 191 86 Z " /><path fill="rgb(233,144,50)" stroke="rgb(233,144,50)" stroke-width="1" opacity="0.4" d="M 97.5 86 L 110.5 86 L 112 87.5 L 106.5 88 L 101.5 87 L 96.5 88 L 97.5 86 Z " /><path fill="rgb(233,144,50)" stroke="rgb(233,144,50)" stroke-width="1" opacity="0.4" d="M 92.5 88 L 95 88.5 L 92 89 L 90.5 92 L 87.5 92 L 84 94 Q 85.1 96.7 82.5 96 L 80 97 L 76.5 103 L 76 100.5 L 80.5 95 L 92.5 88 Z " /><path fill="rgb(233,144,50)" stroke="rgb(233,144,50)" stroke-width="1" opacity="0.4" d="M 113.5 88 L 123.5 92 L 144 106.5 Q 144.8 108.8 142.5 108 L 140 109 L 138.5 112 L 136 113.5 L 134.5 116 L 132 117.5 L 130.5 120 L 128 121.5 L 124 128 Q 121.3 126.9 122 129.5 Q 116.7 132.3 116 138 L 114 138 Q 115.1 140.7 112.5 140 L 90.5 148 L 90.5 147 Q 93.1 147.7 92 145 L 94.5 145 L 111.5 140 L 113 138.5 L 117.5 132 L 120 130.5 L 121.5 127 L 124 125.5 L 127.5 120 L 131 117.5 L 132.5 115 L 136 112.5 L 138.5 109 L 142 106.5 L 134 101.5 Q 134.8 98.9 131.5 100 L 122.5 93 L 115 91 Q 116.1 88.3 113.5 89 L 113.5 88 Z " /><path fill="rgb(233,144,50)" stroke="rgb(233,144,50)" stroke-width="1" opacity="0.4" d="M 86.5 148 L 89 148.5 L 61 164 L 62.5 161 L 66.5 160 L 86.5 148 Z " /><path fill="rgb(233,144,50)" stroke="rgb(233,144,50)" stroke-width="1" opacity="0.4" d="M 117.5 157 L 138.5 158 L 171.5 164 L 186.5 170 L 196 178.5 L 197 187.5 Q 194.5 189 196 194.5 L 199 196 L 200 200 L 204 201.5 L 205.5 204 L 208 204 Q 206.9 206.7 209.5 206 Q 216.1 214.4 228.5 217 L 230 213.5 L 224 200 L 227 201.5 L 231 212.5 L 231 216.5 Q 229.8 219.3 224.5 218 L 211 209.5 Q 211.7 206.5 208 208 L 208 206 L 205.5 206 L 201.5 201 L 198 200 L 196.5 196 L 195 195.5 L 195 186.5 L 196 182.5 L 190.5 174 L 188 174 Q 189.3 171 185.5 172 L 182 171 Q 183.1 168.3 180.5 169 L 172.5 167 L 167.5 164 L 151.5 161 L 118.5 159 L 117.5 160 L 108 160 L 106.5 163 Q 104.3 162.3 105 164.5 L 102.5 168 L 100 169.5 L 98.5 172 L 96 173.5 L 94.5 176 L 92 177.5 Q 92.8 179.8 90.5 179 L 88 180 L 85.5 184 L 80.5 188 Q 79.4 190.7 76 190 Q 77.1 192.7 74.5 192 Q 71.2 196.6 65 197 L 63.5 200 L 55.5 204 L 52.5 204 L 50.5 206 L 40.5 208 L 40.5 207 L 46.5 206 L 63.5 198 L 82 186 L 82 184 L 84 184 L 84 182 L 86 182 L 86 180 L 88 180 Q 86.9 177.3 89.5 178 L 100 168.5 L 104 162 L 106 162 L 108 158 L 116.5 158 L 117.5 157 Z " /><path fill="rgb(233,144,50)" stroke="rgb(233,144,50)" stroke-width="1" opacity="0.4" d="M 92.5 160 Q 96.9 158.5 96 161.5 L 80.5 178 L 59.5 194 L 48.5 200 L 39.5 202 L 36 199.5 Q 35.3 196.9 38 198 Q 36.9 201.5 44.5 200 L 50 198 Q 48.7 194.7 53.5 196 L 68 186.5 L 69.5 184 L 72 184 Q 70.9 181.3 73.5 182 L 90 166.5 L 92 162 L 70.5 168 L 70.5 167 L 92.5 160 Z " /><path fill="rgb(233,144,50)" stroke="rgb(233,144,50)" stroke-width="1" opacity="0.4" d="M 58.5 164 Q 61.1 163.3 60 166 L 52 170 Q 53.1 172.7 50.5 172 L 39 182.5 L 32 192 Q 29 190.8 30 194.5 Q 25.1 198.6 25.5 208 L 25 200.5 L 30.5 190 Q 32.8 190.8 32 188.5 L 41.5 177 Q 45.5 177.5 46 174.5 L 47.5 172 Q 51.5 172.5 52 169.5 Q 51.2 166.9 54.5 168 L 56 165 L 58.5 164 Z " /><path fill="rgb(233,144,50)" stroke="rgb(233,144,50)" stroke-width="1" opacity="0.4" d="M 66.5 168 L 69 168.5 L 66.5 171 L 61.5 172 L 48 180 L 45.5 184 Q 42.9 183.3 44 186 L 42 186 L 42 187.5 L 38 196 Q 35.3 197.1 36 194.5 L 40 186 L 42 186 L 42 184 L 44 184 L 44 182 L 46 182 L 46 180 L 48 180 Q 46.9 177.3 49.5 178 L 66.5 168 Z " /><path fill="rgb(233,144,50)" stroke="rgb(233,144,50)" stroke-width="1" opacity="0.4" d="M 27 208 L 37 208.5 L 35.5 210 L 27 210 L 27 208 Z " /><path fill="rgb(232,143,52)" stroke="rgb(232,143,52)" stroke-width="1" opacity="0.996078431372549" d="M 143.5 39 L 149.5 39 L 156 42 L 156 44 Q 158.7 42.9 158 45.5 Q 165.4 51.1 166 63.5 L 159.5 68 L 142.5 69 Q 135.3 67.2 132 61.5 L 131 52.5 Q 133.9 44.4 140.5 40 L 143.5 39 Z " /><path fill="rgb(232,143,52)" stroke="rgb(232,143,52)" stroke-width="1" opacity="0.996078431372549" d="M 110.5 76 L 121.5 76 L 132.5 78 L 145.5 82 L 157.5 88 L 160.5 88 L 162.5 90 L 165.5 90 L 181.5 80 L 193.5 80 L 200 85.5 L 200 91.5 L 194.5 100 L 192 101.5 L 190.5 104 L 174.5 114 L 160.5 114 L 149.5 110 L 125 137.5 L 145.5 140 L 161.5 145 Q 181.8 153.2 197 166.5 Q 196.2 169.5 200 168 L 200 170 L 202 170 L 202 172 L 204 172 L 204 174 L 206 174 L 206 176 Q 208.7 174.9 208 177.5 Q 216.9 186.1 223 197.5 L 228 207.5 L 230 215.5 Q 229.3 217.8 225.5 217 L 208 206 Q 209.3 203 205.5 204 L 202.5 200 Q 199.2 201.1 200 198.5 L 199 196 L 196 194.5 L 197 181.5 Q 195.4 174.6 189.5 172 L 182.5 168 L 163.5 162 L 139.5 159 L 138.5 158 L 117.5 157 L 116.5 158 L 108 158 L 108 160 L 106 160 L 106 162 Q 103.3 160.9 104 163.5 L 98.5 170 L 88 178 L 88 180 L 86 180 L 86 182 L 84 182 L 84 184 L 82 184 Q 83.1 186.7 80.5 186 L 63.5 198 L 51.5 204 L 39.5 208 L 26 208 L 26 201.5 L 30 192 Q 32.7 193.1 32 190.5 L 42.5 179 L 52 172 Q 50.9 169.3 53.5 170 L 60 166 Q 58.8 163 62.5 164 L 89.5 148 L 114 140 L 114 138 Q 116.7 139.1 116 136.5 L 122 128 Q 124.7 129.1 124 126.5 L 129.5 120 L 132 118.5 L 133.5 116 L 136 114.5 L 137.5 112 L 140 110.5 Q 139.3 108.3 141.5 109 L 144 108 L 141.5 104 L 115.5 88 Q 111.3 88.8 110.5 86 L 97.5 86 L 95.5 88 L 92.5 88 L 86.5 91 L 78 97.5 L 76 100.5 L 75 111.5 L 74 114 L 59.5 121 Q 54.9 123.8 48 123 L 48 120.5 L 54 111.5 L 72.5 92 L 92.5 80 L 110.5 76 Z M 190 85 Q 188 88 183 86 L 173 92 L 175 94 L 192 94 L 195 92 Q 198 92 197 88 Q 195 84 190 85 Z M 93 160 L 67 168 L 50 178 Q 47 177 48 180 L 46 180 L 46 182 L 44 182 L 44 184 L 42 184 L 42 186 L 40 186 L 36 195 L 36 200 L 40 202 L 49 200 L 60 194 L 81 178 L 96 162 Q 97 158 93 160 Z " /></svg>