<svg width="258" height="256" version="1.1" xmlns="http://www.w3.org/2000/svg" desc="Created with imagetracer.js version 1.2.6" ><path fill="rgb(235,126,126)" stroke="rgb(235,126,126)" stroke-width="1" opacity="0.4627450980392157" d="M 90.5 25 L 206.5 25 L 218.5 28 L 222 30 Q 220.8 33 224.5 32 L 226 36 L 229 37.5 L 233 48.5 L 233 170.5 L 230 179.5 L 222.5 188 L 215.5 192 L 212.5 192 L 212.5 191 L 220.5 188 L 227 181.5 L 230 176.5 L 232 167.5 L 232 51.5 L 228 38.5 L 219.5 30 L 205.5 26 L 92.5 26 L 78.5 30 L 70 38.5 L 66.5 48 L 66 43.5 Q 69.3 35.8 75.5 31 L 79.5 28 L 90.5 25 Z " /><path fill="rgb(235,126,126)" stroke="rgb(235,126,126)" stroke-width="1" opacity="0.4627450980392157" d="M 89.5 41 L 207.5 41 L 214 44 L 218 52.5 L 218 168.5 L 214 176 L 209.5 178 L 194 178 L 194 153 L 180 153 L 180 205.5 Q 178.8 211.3 174.5 214 L 169.5 216 L 58.5 216 Q 50 214.5 46 208.5 L 47.5 208 L 50 212 L 60.5 215 L 167.5 215 Q 174.9 213.9 178 208.5 L 178 152.5 L 178.5 152 L 195 152 L 195 177 L 205.5 177 L 210.5 176 L 214 173.5 L 217 167.5 L 217 52.5 L 211.5 44 L 206.5 42 L 90.5 42 L 82.5 48 L 82 46.5 L 89.5 41 Z " /><path fill="rgb(235,126,126)" stroke="rgb(235,126,126)" stroke-width="1" opacity="0.4627450980392157" d="M 81.5 49 L 82 63.5 L 81 63.5 L 81.5 49 Z " /><path fill="rgb(235,126,126)" stroke="rgb(235,126,126)" stroke-width="1" opacity="0.4627450980392157" d="M 65.5 51 L 66 63.5 L 65 63.5 L 65.5 51 Z " /><path fill="rgb(235,126,126)" stroke="rgb(235,126,126)" stroke-width="1" opacity="0.4627450980392157" d="M 45.5 64 L 50 64.5 L 40.5 68 L 35 72 L 30 80.5 L 28 88.5 L 28 205.5 L 30 213.5 L 29 213.5 L 27 207.5 L 27 85.5 L 30 77.5 L 38.5 68 L 45.5 64 Z " /><path fill="rgb(235,126,126)" stroke="rgb(235,126,126)" stroke-width="1" opacity="0.4627450980392157" d="M 93.5 64 L 94 80 L 52 79.5 L 93 79 L 93.5 64 Z " /><path fill="rgb(235,126,126)" stroke="rgb(235,126,126)" stroke-width="1" opacity="0.4627450980392157" d="M 103.5 64 L 104 79 L 129.5 79 L 130 80.5 L 65 146.5 L 74.5 156 L 140.5 90 L 142 90.5 L 142 116 L 156 116 L 156 64.5 L 158 64 L 158 116.5 L 157.5 117 L 142.5 117 L 141 115.5 L 141 92 L 138 93.5 L 136.5 96 L 134 97.5 L 132.5 100 L 130 101.5 L 128.5 104 L 126 105.5 L 124.5 108 L 122 109.5 L 120.5 112 Q 118.3 111.3 119 113.5 L 98 133.5 L 96.5 136 L 94 137.5 L 92.5 140 L 90 141.5 L 88.5 144 L 86 145.5 L 80.5 152 L 78 153.5 L 76.5 156 L 73.5 157 L 66 151 L 64.5 148 L 63 148 L 63 144 L 66 142.5 L 67.5 140 L 92.5 116 L 94 116 L 94 114.5 L 124.5 84 Q 126.8 84.8 126 82.5 L 127.5 80 L 103 80 L 103.5 64 Z " /><path fill="rgb(235,126,126)" stroke="rgb(235,126,126)" stroke-width="1" opacity="0.4627450980392157" d="M 49.5 80 L 51 80.5 L 46 84 L 44 88.5 L 44 201.5 L 46 206.5 L 44 205.5 L 43 202.5 L 43 88.5 L 46 82 L 49.5 80 Z " /><path fill="rgb(235,126,126)" stroke="rgb(235,126,126)" stroke-width="1" opacity="0.4627450980392157" d="M 174.5 105 L 186 117.5 L 182 120 L 179.5 124 Q 177.3 123.3 178 125.5 L 174 128 L 171.5 132 Q 169.3 131.3 170 133.5 L 166 136 L 163.5 140 Q 161.3 139.3 162 141.5 L 158 144 L 155.5 148 Q 153.3 147.3 154 149.5 L 150 152 L 147.5 156 Q 145.3 155.3 146 157.5 L 142 160 L 132.5 172 L 130 173.5 Q 130.8 175.8 128.5 175 L 125 180 L 122 181.5 Q 122.8 183.8 120.5 183 L 120.5 184 L 142 184 L 142 201 L 90 201 L 90 144 L 105.5 144 L 106 146 L 91.5 146 L 91 146.5 L 91 200 L 140.5 200 L 141 199.5 L 141 186 L 118.5 186 L 118 183.5 L 184 116.5 L 174.5 107 L 173.5 108 L 172 108 L 172 110 L 170 110 L 170 112 L 168 112 L 168 114 L 166 114 L 166 116 L 164 116 L 164 118 L 162 118 L 162 120 L 160 120 L 160 122 L 158 122 L 158 124 L 156 124 L 156 126 L 154 126 L 154 128 L 152 128 L 152 130 L 150 130 L 150 132 L 148 132 L 148 134 L 146 134 L 146 136 L 144 136 L 144 138 L 142 138 L 142 140 L 140 140 L 140 142 L 138 142 L 138 144 L 136 144 L 136 146 L 134 146 L 134 148 L 132 148 L 132 150 L 130 150 L 130 152 L 128 152 L 128 154 L 126 154 L 126 156 L 124 156 L 124 158 L 122 158 L 122 160 L 120 160 L 120 162 Q 117.3 160.9 118 163.5 L 106 174.5 Q 104.9 171.2 107.5 172 L 110 168 L 114 165.5 Q 113.3 163.3 115.5 164 L 118 160 L 122 157.5 Q 121.3 155.3 123.5 156 L 126 152 L 130 149.5 Q 129.3 147.3 131.5 148 L 134 144 L 138 141.5 Q 137.3 139.3 139.5 140 L 142 136 L 146 133.5 Q 145.3 131.3 147.5 132 L 150 128 L 154 125.5 Q 153.3 123.3 155.5 124 L 158 120 L 162 117.5 Q 161.3 115.3 163.5 116 L 166 112 L 170 109.5 Q 169.3 107.3 171.5 108 L 174.5 105 Z " /><path fill="rgb(235,126,126)" stroke="rgb(235,126,126)" stroke-width="1" opacity="0.4627450980392157" d="M 194 192 L 211 192.5 L 195 193 L 194.5 208 L 194 192 Z " /><path fill="rgb(235,126,126)" stroke="rgb(235,126,126)" stroke-width="1" opacity="0.4627450980392157" d="M 193.5 209 L 194 213.5 Q 190.8 221.3 184.5 226 L 173.5 231 L 48.5 231 Q 39.1 228.9 34 222.5 L 30 215.5 L 32 216.5 L 38.5 225 L 49.5 230 L 173.5 230 Q 184.1 226.6 190 218.5 L 193.5 209 Z " /><path fill="rgb(234,124,124)" stroke="rgb(234,124,124)" stroke-width="1" opacity="0.996078431372549" d="M 86.5 27 L 86.5 28 L 86.5 27 Z " /><path fill="rgb(234,124,124)" stroke="rgb(234,124,124)" stroke-width="1" opacity="0.996078431372549" d="M 80.5 29 L 80.5 30 L 80.5 29 Z " /><path fill="rgb(234,124,124)" stroke="rgb(234,124,124)" stroke-width="1" opacity="0.996078431372549" d="M 217.5 29 L 217.5 30 L 217.5 29 Z " /><path fill="rgb(234,124,124)" stroke="rgb(234,124,124)" stroke-width="1" opacity="0.996078431372549" d="M 78.5 30 L 78.5 31 L 78.5 30 Z " /><path fill="rgb(234,124,124)" stroke="rgb(234,124,124)" stroke-width="1" opacity="0.996078431372549" d="M 220.5 31 L 220.5 32 L 220.5 31 Z " /><path fill="rgb(234,124,124)" stroke="rgb(234,124,124)" stroke-width="1" opacity="0.996078431372549" d="M 226.5 37 L 226.5 38 L 226.5 37 Z " /><path fill="rgb(234,124,124)" stroke="rgb(234,124,124)" stroke-width="1" opacity="0.996078431372549" d="M 208.5 41 L 208.5 42 L 208.5 41 Z " /><path fill="rgb(234,124,124)" stroke="rgb(234,124,124)" stroke-width="1" opacity="0.996078431372549" d="M 67.5 45 L 67.5 46 L 67.5 45 Z " /><path fill="rgb(234,124,124)" stroke="rgb(234,124,124)" stroke-width="1" opacity="0.996078431372549" d="M 66.5 49 L 66.5 50 L 66.5 49 Z " /><path fill="rgb(234,124,124)" stroke="rgb(234,124,124)" stroke-width="1" opacity="0.996078431372549" d="M 80.5 52 L 81 63.5 L 80 63.5 L 80.5 52 Z " /><path fill="rgb(234,124,124)" stroke="rgb(234,124,124)" stroke-width="1" opacity="0.996078431372549" d="M 51.5 64 L 51.5 65 L 51.5 64 Z " /><path fill="rgb(234,124,124)" stroke="rgb(234,124,124)" stroke-width="1" opacity="0.996078431372549" d="M 33.5 75 L 33.5 76 L 33.5 75 Z " /><path fill="rgb(234,124,124)" stroke="rgb(234,124,124)" stroke-width="1" opacity="0.996078431372549" d="M 48.5 80 L 48.5 81 L 48.5 80 Z " /><path fill="rgb(234,124,124)" stroke="rgb(234,124,124)" stroke-width="1" opacity="0.996078431372549" d="M 28.5 90 L 28.5 91 L 28.5 90 Z " /><path fill="rgb(234,124,124)" stroke="rgb(234,124,124)" stroke-width="1" opacity="0.996078431372549" d="M 168.5 112 L 168.5 113 L 168.5 112 Z " /><path fill="rgb(234,124,124)" stroke="rgb(234,124,124)" stroke-width="1" opacity="0.996078431372549" d="M 28.5 115 L 28.5 116 L 28.5 115 Z " /><path fill="rgb(234,124,124)" stroke="rgb(234,124,124)" stroke-width="1" opacity="0.996078431372549" d="M 179.5 121 L 179.5 122 L 179.5 121 Z " /><path fill="rgb(234,124,124)" stroke="rgb(234,124,124)" stroke-width="1" opacity="0.996078431372549" d="M 176.5 124 L 176.5 125 L 176.5 124 Z " /><path fill="rgb(234,124,124)" stroke="rgb(234,124,124)" stroke-width="1" opacity="0.996078431372549" d="M 174.5 126 L 174.5 127 L 174.5 126 Z " /><path fill="rgb(234,124,124)" stroke="rgb(234,124,124)" stroke-width="1" opacity="0.996078431372549" d="M 101.5 128 L 85.5 145 L 101.5 128 Z " /><path fill="rgb(234,124,124)" stroke="rgb(234,124,124)" stroke-width="1" opacity="0.996078431372549" d="M 152.5 128 L 152.5 129 L 152.5 128 Z " /><path fill="rgb(234,124,124)" stroke="rgb(234,124,124)" stroke-width="1" opacity="0.996078431372549" d="M 150.5 130 L 150.5 131 L 150.5 130 Z " /><path fill="rgb(234,124,124)" stroke="rgb(234,124,124)" stroke-width="1" opacity="0.996078431372549" d="M 148.5 132 L 148.5 133 L 148.5 132 Z " /><path fill="rgb(234,124,124)" stroke="rgb(234,124,124)" stroke-width="1" opacity="0.996078431372549" d="M 28.5 145 L 28.5 146 L 28.5 145 Z " /><path fill="rgb(234,124,124)" stroke="rgb(234,124,124)" stroke-width="1" opacity="0.996078431372549" d="M 105.5 146 L 106 173.5 L 105 173.5 L 105.5 146 Z " /><path fill="rgb(234,124,124)" stroke="rgb(234,124,124)" stroke-width="1" opacity="0.996078431372549" d="M 28.5 147 L 28.5 148 L 28.5 147 Z " /><path fill="rgb(234,124,124)" stroke="rgb(234,124,124)" stroke-width="1" opacity="0.996078431372549" d="M 28.5 152 L 29 154.5 L 28 154.5 L 28.5 152 Z " /><path fill="rgb(234,124,124)" stroke="rgb(234,124,124)" stroke-width="1" opacity="0.996078431372549" d="M 28.5 156 L 28.5 157 L 28.5 156 Z " /><path fill="rgb(234,124,124)" stroke="rgb(234,124,124)" stroke-width="1" opacity="0.996078431372549" d="M 140.5 160 L 140.5 161 L 140.5 160 Z " /><path fill="rgb(234,124,124)" stroke="rgb(234,124,124)" stroke-width="1" opacity="0.996078431372549" d="M 138.5 162 L 138.5 163 L 138.5 162 Z " /><path fill="rgb(234,124,124)" stroke="rgb(234,124,124)" stroke-width="1" opacity="0.996078431372549" d="M 28.5 166 L 29 167.5 L 28 167.5 L 28.5 166 Z " /><path fill="rgb(234,124,124)" stroke="rgb(234,124,124)" stroke-width="1" opacity="0.996078431372549" d="M 217.5 169 L 218 170.5 L 217 170.5 L 217.5 169 Z " /><path fill="rgb(234,124,124)" stroke="rgb(234,124,124)" stroke-width="1" opacity="0.996078431372549" d="M 28.5 174 L 29 179.5 L 28 179.5 L 28.5 174 Z " /><path fill="rgb(234,124,124)" stroke="rgb(234,124,124)" stroke-width="1" opacity="0.996078431372549" d="M 28.5 181 L 29 182.5 L 28 182.5 L 28.5 181 Z " /><path fill="rgb(234,124,124)" stroke="rgb(234,124,124)" stroke-width="1" opacity="0.996078431372549" d="M 28.5 185 L 28.5 186 L 28.5 185 Z " /><path fill="rgb(234,124,124)" stroke="rgb(234,124,124)" stroke-width="1" opacity="0.996078431372549" d="M 117.5 185 L 117.5 186 L 117.5 185 Z " /><path fill="rgb(234,124,124)" stroke="rgb(234,124,124)" stroke-width="1" opacity="0.996078431372549" d="M 28.5 187 L 29 188.5 L 28 188.5 L 28.5 187 Z " /><path fill="rgb(234,124,124)" stroke="rgb(234,124,124)" stroke-width="1" opacity="0.996078431372549" d="M 139.5 188 L 140 196.5 L 139 196.5 L 139.5 188 Z " /><path fill="rgb(234,124,124)" stroke="rgb(234,124,124)" stroke-width="1" opacity="0.996078431372549" d="M 211.5 191 L 211.5 192 L 211.5 191 Z " /><path fill="rgb(234,124,124)" stroke="rgb(234,124,124)" stroke-width="1" opacity="0.996078431372549" d="M 28.5 192 L 28.5 193 L 28.5 192 Z " /><path fill="rgb(234,124,124)" stroke="rgb(234,124,124)" stroke-width="1" opacity="0.996078431372549" d="M 28.5 198 L 28.5 199 L 28.5 198 Z " /><path fill="rgb(234,124,124)" stroke="rgb(234,124,124)" stroke-width="1" opacity="0.996078431372549" d="M 42.5 198 L 43 199.5 L 42 199.5 L 42.5 198 Z " /><path fill="rgb(234,124,124)" stroke="rgb(234,124,124)" stroke-width="1" opacity="0.996078431372549" d="M 28.5 200 L 28.5 201 L 28.5 200 Z " /><path fill="rgb(234,124,124)" stroke="rgb(234,124,124)" stroke-width="1" opacity="0.996078431372549" d="M 28.5 203 L 29 204.5 L 28 204.5 L 28.5 203 Z " /><path fill="rgb(234,124,124)" stroke="rgb(234,124,124)" stroke-width="1" opacity="0.996078431372549" d="M 48.5 211 L 48.5 212 L 48.5 211 Z " /><path fill="rgb(234,124,124)" stroke="rgb(234,124,124)" stroke-width="1" opacity="0.996078431372549" d="M 186.5 221 L 186.5 222 L 186.5 221 Z " /><path fill="rgb(234,124,124)" stroke="rgb(234,124,124)" stroke-width="1" opacity="0.996078431372549" d="M 38.5 224 L 38.5 225 L 38.5 224 Z " /><path fill="rgb(234,124,124)" stroke="rgb(234,124,124)" stroke-width="1" opacity="0.996078431372549" d="M 183.5 224 L 183.5 225 L 183.5 224 Z " /><path fill="rgb(234,124,124)" stroke="rgb(234,124,124)" stroke-width="1" opacity="0.996078431372549" d="M 40.5 225 L 40.5 226 L 40.5 225 Z " /><path fill="rgb(0,0,0)" stroke="rgb(0,0,0)" stroke-width="1" opacity="0" d="M 0 0 L 258 0 L 258 256 L 0 256 L 0 0 Z M 91 25 L 80 28 L 76 31 Q 69 36 66 44 L 65 64 L 46 64 L 39 68 L 30 78 L 27 86 L 27 208 Q 29 217 34 223 Q 39 229 49 231 L 174 231 L 185 226 Q 191 221 194 214 L 195 193 Q 213 195 223 188 L 230 180 L 233 171 L 233 49 L 229 38 L 226 36 L 225 32 Q 221 33 222 30 L 219 28 L 207 25 L 91 25 Z " /><path fill="rgb(0,0,0)" stroke="rgb(0,0,0)" stroke-width="1" opacity="0" d="M 90.5 42 L 206.5 42 L 214 46.5 L 217 52.5 L 217 167.5 L 212.5 175 Q 205.5 178.2 195 177 L 195 152 L 178 152 L 178 208.5 L 173.5 213 L 167.5 215 L 60.5 215 L 50 212 L 47.5 208 Q 44.5 208.9 46 204.5 L 44 201.5 L 44 88.5 L 46 84 L 51.5 80 L 94 80 L 94 64 L 82 64 L 82 48.5 L 90.5 42 Z M 103 64 L 103 80 L 128 80 L 126 83 Q 127 85 125 84 L 94 115 L 94 116 L 93 116 L 68 140 L 66 143 L 63 144 L 63 148 L 65 148 L 66 151 L 74 157 L 77 156 L 78 154 L 81 152 L 86 146 L 89 144 L 90 142 L 93 140 L 94 138 L 97 136 L 98 134 L 119 114 Q 118 111 121 112 L 122 110 L 125 108 L 126 106 L 129 104 L 130 102 L 133 100 L 134 98 L 137 96 L 140 92 L 141 93 L 141 116 L 143 117 L 158 117 L 158 64 L 103 64 Z M 175 105 L 172 108 Q 169 107 170 110 L 166 112 L 164 116 Q 161 115 162 118 L 158 120 L 156 124 Q 153 123 154 126 L 150 128 L 148 132 Q 145 131 146 134 L 142 136 L 140 140 Q 137 139 138 142 L 134 144 L 132 148 Q 129 147 130 150 L 126 152 L 124 156 Q 121 155 122 158 L 118 160 L 116 164 Q 113 163 114 166 L 110 168 L 108 172 L 106 172 L 106 144 L 90 144 L 90 201 L 142 201 L 142 184 L 121 184 L 121 183 Q 123 184 122 182 L 125 180 L 129 175 Q 131 176 130 174 L 133 172 L 142 160 L 146 158 Q 145 155 148 156 L 150 152 L 154 150 Q 153 147 156 148 L 158 144 L 162 142 Q 161 139 164 140 L 166 136 L 170 134 Q 169 131 172 132 L 174 128 L 178 126 Q 177 123 180 124 L 182 120 L 186 118 L 175 105 Z " /><path fill="rgb(235,125,125)" stroke="rgb(235,125,125)" stroke-width="1" opacity="1" d="M 92.5 26 L 205.5 26 L 220 30 Q 218.9 32.7 221.5 32 L 226 38 Q 228.7 36.9 228 39.5 L 230 42.5 L 232 51.5 L 232 167.5 L 230 176.5 L 220.5 188 L 210.5 192 L 194 192 L 194 208.5 L 190 218.5 L 187.5 221 Q 185.3 220.3 186 222.5 Q 181.3 227.8 173.5 230 L 49.5 230 L 43.5 228 L 34 220.5 L 30 214.5 L 28 205.5 L 29 203.5 L 28 201.5 L 28 197.5 L 29 192.5 L 28 189.5 L 29 187.5 L 28 184.5 L 29 181.5 L 29 179.5 L 28 168.5 L 29 166.5 L 28 165.5 L 28 157.5 L 29 154.5 L 28 148.5 L 28 144.5 L 28 116.5 L 29 115.5 L 28 114.5 L 28 91.5 L 28 89.5 L 32 76 Q 34.7 77.1 34 74.5 L 35 72 L 40.5 68 L 50.5 64 L 52.5 64 L 66 64 L 66 50.5 L 67 47.5 Q 68.9 35.9 77.5 31 L 82.5 28 L 92.5 26 Z M 90 41 L 85 44 L 82 47 L 80 53 L 80 64 L 93 64 L 93 79 L 53 79 L 52 80 L 48 80 Q 49 83 46 82 L 43 89 L 43 198 L 42 199 Q 44 207 48 212 L 59 216 L 170 216 L 175 214 Q 179 211 180 206 L 180 153 L 194 153 L 194 178 L 210 178 L 214 176 L 216 173 Q 215 170 218 171 L 218 53 L 214 44 L 209 41 L 90 41 Z " /><path fill="rgb(235,125,125)" stroke="rgb(235,125,125)" stroke-width="1" opacity="1" d="M 104 64 L 156 64 L 156 116 L 142 116 L 142 90.5 L 140.5 90 L 85 144.5 L 74.5 156 L 65 145.5 L 130 80.5 L 130 79 L 104 79 L 104 64 Z " /><path fill="rgb(235,125,125)" stroke="rgb(235,125,125)" stroke-width="1" opacity="1" d="M 174.5 107 L 184 117.5 L 179 121 L 177.5 124 L 176 124 L 176 126 Q 173.3 124.9 174 127.5 L 141.5 160 L 140 160 L 140 162 Q 137.3 160.9 138 163.5 L 117 185.5 L 141 186 L 141 199.5 L 140.5 200 L 91 200 L 91 146.5 L 91.5 146 L 105 146 L 105 173.5 L 106.5 175 L 118 163.5 L 118 162 L 120 162 L 120 160 L 122 160 L 122 158 L 124 158 L 124 156 L 126 156 L 126 154 L 128 154 L 128 152 L 130 152 L 130 150 L 132 150 L 132 148 L 134 148 L 134 146 L 136 146 L 136 144 L 138 144 L 138 142 L 140 142 L 140 140 L 142 140 L 142 138 L 144 138 L 144 136 L 146 136 Q 144.9 133.3 147.5 134 L 154 126 L 156 126 L 156 124 L 158 124 L 158 122 L 160 122 L 160 120 L 162 120 L 162 118 L 164 118 L 164 116 L 166 116 Q 164.9 113.3 167.5 114 L 170 110 L 172 110 Q 170.9 107.3 173.5 108 L 174.5 107 Z M 140 188 L 139 197 L 140 197 L 140 188 Z " /></svg>