<svg width="400" height="400" version="1.1" xmlns="http://www.w3.org/2000/svg" desc="Created with imagetracer.js version 1.2.6" ><path fill="rgb(217,241,217)" stroke="rgb(217,241,217)" stroke-width="1" opacity="0.9490196078431372" d="M 165.5 111 Q 170.5 110 171.5 113 L 231.5 113 L 233 112.5 L 232 115.5 L 232 142.5 L 233 143.5 L 233 205.5 L 234.5 207 L 259.5 207 L 260 210.5 L 257 216 Q 254.3 214.9 255 217.5 L 254 220 Q 251.3 218.9 252 221.5 Q 248 222.9 249 228 Q 245.2 226.5 246 229.5 L 243.5 234 Q 241.3 233.3 242 235.5 L 239.5 239 Q 237.3 238.3 238 240.5 L 233.5 247 Q 231.3 246.3 232 248.5 Q 226.2 253.2 223.5 261 Q 220.9 260.2 222 263.5 L 219 265 L 217.5 269 Q 215.3 268.3 216 270.5 L 215 273 L 212 274.5 L 203.5 288 L 202 288 Q 203.5 291.8 200.5 291 L 198.5 292 L 196 291 L 194.5 288 L 192 286.5 L 192 284 Q 189.3 285.1 190 282.5 L 151 230.5 L 149 225.5 L 136 207 L 162.5 207 L 164 205.5 L 164 114.5 L 163 113.5 L 165.5 111 Z " /><path fill="rgb(23,112,23)" stroke="rgb(23,112,23)" stroke-width="1" opacity="0.996078431372549" d="M 69.5 38 L 331.5 38 L 343.5 43 L 352 51.5 L 353.5 54 L 356 55.5 L 358 60.5 Q 355.8 61.8 358.5 63 Q 360.8 62.3 360 64.5 L 359 67.5 L 362 69 L 362 329.5 L 360 331.5 L 360 335.5 L 356 343.5 L 348.5 351 L 345 353.5 L 343.5 356 L 338.5 358 Q 337.3 355.8 336 358.5 Q 336.9 361.9 331.5 360 L 329.5 362 L 69 362 L 67.5 359 L 63.5 360 L 58 356.5 L 57.5 355 L 55.5 356 L 45.5 345 L 43 343.5 L 42 337 L 39 335.5 L 38 331.5 L 38 67.5 L 42.5 58 L 44 57.5 L 43 55.5 L 54 45.5 L 55.5 43 L 62 42 L 63.5 39 Q 68.2 40.2 69.5 38 Z M 72 40 Q 70 43 65 41 L 63 43 L 64 45 L 58 45 Q 55 46 55 50 L 52 51 L 49 55 L 46 57 L 46 59 L 45 61 Q 46 64 44 63 L 42 63 L 41 67 L 41 69 L 40 71 L 40 330 L 46 339 L 46 343 L 49 344 L 48 346 L 48 347 L 53 347 L 53 351 Q 57 349 56 353 L 60 355 L 60 356 L 64 356 L 64 358 L 71 358 L 71 360 L 329 360 L 329 358 L 335 358 L 335 354 L 343 354 L 344 351 L 346 351 L 347 351 L 347 347 Q 350 348 349 345 L 352 343 L 352 341 L 355 337 Q 358 335 357 333 Q 359 334 358 332 L 358 330 Q 357 327 360 328 L 360 71 L 359 70 Q 356 69 358 68 Q 359 63 357 64 L 355 64 L 353 60 L 354 57 Q 353 54 350 55 L 347 52 Q 348 49 345 50 L 345 48 L 334 43 Q 335 40 333 41 L 331 41 L 329 40 L 72 40 Z " /><path fill="rgb(23,112,23)" stroke="rgb(23,112,23)" stroke-width="1" opacity="0.996078431372549" d="M 167.5 110 Q 172.5 109 171.5 112 L 231.5 112 L 234 111 L 233.5 113 L 231.5 113 L 171.5 113 L 167.5 111 L 167.5 110 Z " /><path fill="rgb(23,112,23)" stroke="rgb(23,112,23)" stroke-width="1" opacity="0.996078431372549" d="M 162 111 L 165 111.5 Q 161.5 113 164 114.5 L 164 205.5 L 162.5 207 L 136.5 207 L 136 208.5 L 139 212.5 L 135 209.5 L 134 206.5 L 135.5 205 L 162 205 L 162 111 Z " /><path fill="rgb(23,112,23)" stroke="rgb(23,112,23)" stroke-width="1" opacity="0.996078431372549" d="M 232.5 115 L 233 142.5 L 235 144.5 L 235 158.5 L 235 160.5 L 235 205 L 262.5 205 L 263 207 L 234.5 207 L 233 205.5 L 233 158.5 L 234 157.5 L 234 145.5 L 232 142.5 L 232.5 115 Z " /><path fill="rgb(23,112,23)" stroke="rgb(23,112,23)" stroke-width="1" opacity="0.996078431372549" d="M 152.5 232 L 158 238.5 L 156.5 238 Q 154.3 238.8 155 236.5 L 154 234 Q 150.8 235 152.5 232 Z " /><path fill="rgb(23,112,23)" stroke="rgb(23,112,23)" stroke-width="1" opacity="0.996078431372549" d="M 160.5 243 L 166 249.5 L 164.5 249 Q 162.3 249.8 163 247.5 L 162 245 Q 158.8 246 160.5 243 Z " /><path fill="rgb(23,112,23)" stroke="rgb(23,112,23)" stroke-width="1" opacity="0.996078431372549" d="M 167.5 254 L 171 256.5 L 174 260.5 L 172.5 260 Q 170.3 260.8 171 258.5 L 170 256 L 167.5 254 Z " /><path fill="rgb(23,112,23)" stroke="rgb(23,112,23)" stroke-width="1" opacity="0.996078431372549" d="M 226.5 256 L 227 257.5 L 224.5 262 Q 221.9 261.2 223 264.5 L 221 265.5 L 222 261 L 225 259.5 L 226.5 256 Z " /><path fill="rgb(23,112,23)" stroke="rgb(23,112,23)" stroke-width="1" opacity="0.996078431372549" d="M 175.5 265 L 179 267.5 L 182 271.5 L 180.5 271 Q 178.3 271.8 179 269.5 L 178 267 L 175.5 265 Z " /><path fill="rgb(23,112,23)" stroke="rgb(23,112,23)" stroke-width="1" opacity="0.996078431372549" d="M 219.5 265 L 220 268.5 L 216 271.5 L 214.5 274 L 213 273.5 L 215 273 L 216 269 L 219 267.5 L 219.5 265 Z " /><path fill="rgb(23,112,23)" stroke="rgb(23,112,23)" stroke-width="1" opacity="0.996078431372549" d="M 183.5 276 L 187 278.5 L 190 282.5 L 188.5 282 Q 186.3 282.8 187 280.5 L 186 278 L 183.5 276 Z " /><path fill="rgb(23,112,23)" stroke="rgb(23,112,23)" stroke-width="1" opacity="0.996078431372549" d="M 206.5 283 L 207 284.5 L 204.5 289 Q 201.5 288.2 203 292 L 200.5 292 L 200.5 291 L 202 291 Q 200.5 287.2 203.5 288 L 206.5 283 Z " /><path fill="rgb(23,112,23)" stroke="rgb(23,112,23)" stroke-width="1" opacity="0.996078431372549" d="M 190.5 284 L 193.5 288 L 196 289.5 Q 195.3 291.8 197.5 291 L 199 293.5 L 198 293.5 Q 198.8 291.3 196.5 292 L 192 289 L 190.5 284 Z " /><path fill="rgb(0,0,0)" stroke="rgb(0,0,0)" stroke-width="1" opacity="0" d="M 0 0 L 400 0 L 400 400 L 0 400 L 0 0 Z M 70 38 Q 68 40 64 39 L 62 42 L 56 43 L 54 46 L 43 56 L 44 58 L 43 58 L 38 68 L 38 332 L 39 336 L 42 337 L 43 344 L 46 345 L 56 356 L 58 355 L 58 357 L 64 360 L 68 359 L 69 362 L 330 362 L 332 360 Q 337 362 336 359 Q 337 356 339 358 L 344 356 L 345 354 L 349 351 L 356 344 L 360 336 L 360 332 L 362 330 L 362 69 L 359 68 L 360 65 Q 361 62 359 63 Q 356 62 358 61 L 356 56 L 354 54 L 352 52 L 344 43 L 332 38 L 70 38 Z " /><path fill="rgb(23,112,23)" stroke="rgb(23,112,23)" stroke-width="1" opacity="1" d="M 71.5 40 L 328.5 40 L 330.5 41 L 332.5 41 Q 334.8 40.3 334 42.5 L 345 48 L 345 50 Q 347.7 48.9 347 51.5 L 349.5 55 Q 353.3 54.3 354 56.5 L 353 59.5 L 354.5 64 L 356.5 64 Q 359.5 63.1 358 67.5 Q 355.8 68.8 358.5 70 L 360 70.5 L 360 328 Q 357.3 326.9 358 329.5 L 358 331.5 Q 358.8 333.8 356.5 333 Q 358.1 334.8 355 336.5 L 352 340.5 L 352 343 L 349 344.5 Q 350 348.3 347 347 L 347 351 L 345.5 351 L 344 350.5 L 343 354 L 335 354 L 335 358 L 329 358 L 328.5 360 L 71 360 L 71 358 L 64 358 L 64 356 L 60 356 L 60 354.5 L 56 352.5 Q 56.7 349.5 53 351 L 53 347 L 48 347 L 48 345.5 L 48.5 344 L 46 342.5 L 46 338.5 L 40 329.5 L 40 70.5 L 41 68.5 L 41 66.5 L 41.5 63 L 43.5 63 Q 46.1 63.8 45 60.5 L 46 58.5 L 45.5 57 L 49 54.5 L 51.5 51 L 55 49.5 Q 54.5 45.5 57.5 45 L 64 44.5 L 63 42.5 L 64.5 41 Q 70 42.5 71.5 40 Z M 168 110 L 167 111 Q 162 110 162 112 L 162 205 L 136 205 L 134 207 L 139 213 Q 141 212 140 216 L 142 216 Q 141 219 144 218 Q 146 219 144 221 Q 143 224 147 223 Q 151 225 148 227 Q 148 231 151 231 Q 154 230 152 234 L 154 234 L 155 238 L 158 240 Q 157 243 160 242 L 160 245 L 162 245 L 163 249 L 166 251 Q 165 254 168 253 L 167 255 L 170 256 L 171 260 L 174 262 Q 173 265 176 264 L 175 266 L 178 267 L 179 271 L 182 273 Q 181 276 184 275 L 183 277 L 186 278 L 187 281 Q 186 283 189 282 L 190 285 L 192 284 L 191 286 L 192 289 L 197 292 Q 199 291 198 294 L 199 294 L 199 292 L 203 292 Q 201 288 205 289 L 207 285 L 206 283 L 210 281 L 209 279 L 213 277 L 212 275 L 215 274 L 216 272 L 219 270 Q 221 269 220 266 L 223 265 Q 222 261 225 262 L 227 258 L 226 256 Q 227 253 229 255 L 229 254 L 229 252 Q 230 249 232 251 L 232 250 L 232 248 L 237 246 L 238 244 L 237 244 L 239 241 L 239 239 L 241 240 L 242 235 L 244 235 L 246 234 L 245 231 L 247 231 L 247 230 L 247 228 L 250 229 L 249 225 L 253 222 L 252 221 L 256 219 L 255 216 L 259 215 L 258 213 L 261 212 L 260 210 L 260 208 L 263 207 L 263 205 L 235 205 L 235 161 L 235 159 L 235 145 L 233 143 L 233 114 L 234 111 L 232 112 L 172 112 Q 173 109 168 110 Z " /><path fill="rgb(23,112,23)" stroke="rgb(23,112,23)" stroke-width="1" opacity="1" d="M 233.5 145 L 234 157.5 L 233 157.5 L 233.5 145 Z " /></svg>