<svg width="200" height="200" version="1.1" xmlns="http://www.w3.org/2000/svg" desc="Created with imagetracer.js version 1.2.6" ><path fill="rgb(0,0,0)" stroke="rgb(0,0,0)" stroke-width="1" opacity="0" d="M 0 0 L 200 0 L 200 200 L 0 200 L 0 0 Z M 68 66 L 36 90 L 30 96 L 30 105 L 37 111 L 68 134 L 76 134 Q 80 127 78 114 L 166 114 L 168 113 L 170 111 L 170 90 L 166 86 L 78 86 L 77 69 Q 75 64 68 66 Z " /><path fill="rgb(127,127,127)" stroke="rgb(127,127,127)" stroke-width="1" opacity="0.4549019607843137" d="M 67.5 66 L 69 66.5 L 31 95.5 L 30.5 98 L 30 95.5 L 67.5 66 Z " /><path fill="rgb(127,127,127)" stroke="rgb(127,127,127)" stroke-width="1" opacity="0.4549019607843137" d="M 74.5 66 Q 77.5 66.5 77 70.5 L 76 70.5 L 74.5 66 Z " /><path fill="rgb(127,127,127)" stroke="rgb(127,127,127)" stroke-width="1" opacity="0.4549019607843137" d="M 77.5 72 L 78 86 L 165.5 86 L 170 89.5 L 169.5 91 L 167.5 88 L 165.5 87 L 77 87 L 77.5 72 Z " /><path fill="rgb(127,127,127)" stroke="rgb(127,127,127)" stroke-width="1" opacity="0.4549019607843137" d="M 30.5 102 Q 31 107.5 35.5 109 L 69 133.5 L 67.5 134 L 36.5 111 L 30 104.5 L 30.5 102 Z " /><path fill="rgb(127,127,127)" stroke="rgb(127,127,127)" stroke-width="1" opacity="0.4549019607843137" d="M 169.5 109 L 170 110.5 L 165.5 114 L 78 114 L 77.5 128 L 77 113 L 165.5 113 L 169 110.5 L 169.5 109 Z " /><path fill="rgb(127,127,127)" stroke="rgb(127,127,127)" stroke-width="1" opacity="0.4549019607843137" d="M 76.5 129 L 77 131.5 L 76 134 L 74 133.5 L 76.5 129 Z " /><path fill="rgb(127,127,127)" stroke="rgb(127,127,127)" stroke-width="1" opacity="0.996078431372549" d="M 69.5 66 Q 75 65 76 68.5 L 73.5 67 Q 68.2 66.2 66.5 69 L 67.5 67 L 69.5 66 Z " /><path fill="rgb(127,127,127)" stroke="rgb(127,127,127)" stroke-width="1" opacity="0.996078431372549" d="M 63.5 70 L 62.5 72 L 63.5 70 Z " /><path fill="rgb(127,127,127)" stroke="rgb(127,127,127)" stroke-width="1" opacity="0.996078431372549" d="M 76.5 71 L 77 87 L 166 87.5 L 77.5 88 L 76 86.5 L 76.5 71 Z " /><path fill="rgb(127,127,127)" stroke="rgb(127,127,127)" stroke-width="1" opacity="0.996078431372549" d="M 59.5 73 L 57.5 76 L 59.5 73 Z " /><path fill="rgb(127,127,127)" stroke="rgb(127,127,127)" stroke-width="1" opacity="0.996078431372549" d="M 55.5 76 L 53.5 79 L 55.5 76 Z " /><path fill="rgb(127,127,127)" stroke="rgb(127,127,127)" stroke-width="1" opacity="0.996078431372549" d="M 51.5 79 L 50.5 81 L 51.5 79 Z " /><path fill="rgb(127,127,127)" stroke="rgb(127,127,127)" stroke-width="1" opacity="0.996078431372549" d="M 47.5 82 L 46.5 84 L 47.5 82 Z " /><path fill="rgb(127,127,127)" stroke="rgb(127,127,127)" stroke-width="1" opacity="0.996078431372549" d="M 42.5 86 L 41.5 88 L 42.5 86 Z " /><path fill="rgb(127,127,127)" stroke="rgb(127,127,127)" stroke-width="1" opacity="0.996078431372549" d="M 39.5 88 L 37.5 91 L 39.5 88 Z " /><path fill="rgb(127,127,127)" stroke="rgb(127,127,127)" stroke-width="1" opacity="0.996078431372549" d="M 167.5 88 L 168.5 90 L 167.5 88 Z " /><path fill="rgb(127,127,127)" stroke="rgb(127,127,127)" stroke-width="1" opacity="0.996078431372549" d="M 35.5 91 L 32 95.5 L 31.5 97 L 31 95.5 L 35.5 91 Z " /><path fill="rgb(127,127,127)" stroke="rgb(127,127,127)" stroke-width="1" opacity="0.996078431372549" d="M 30.5 98 L 31 101.5 L 30 101.5 L 30.5 98 Z " /><path fill="rgb(127,127,127)" stroke="rgb(127,127,127)" stroke-width="1" opacity="0.996078431372549" d="M 31.5 103 L 36 108.5 L 31 104.5 L 31.5 103 Z " /><path fill="rgb(127,127,127)" stroke="rgb(127,127,127)" stroke-width="1" opacity="0.996078431372549" d="M 38.5 110 L 39.5 112 L 38.5 110 Z " /><path fill="rgb(127,127,127)" stroke="rgb(127,127,127)" stroke-width="1" opacity="0.996078431372549" d="M 168.5 110 L 167.5 112 L 168.5 110 Z " /><path fill="rgb(127,127,127)" stroke="rgb(127,127,127)" stroke-width="1" opacity="0.996078431372549" d="M 41.5 112 L 43.5 115 L 41.5 112 Z " /><path fill="rgb(127,127,127)" stroke="rgb(127,127,127)" stroke-width="1" opacity="0.996078431372549" d="M 76 112 L 166 112.5 L 77 113 L 76.5 129 L 76 112 Z " /><path fill="rgb(127,127,127)" stroke="rgb(127,127,127)" stroke-width="1" opacity="0.996078431372549" d="M 46.5 116 L 47.5 118 L 46.5 116 Z " /><path fill="rgb(127,127,127)" stroke="rgb(127,127,127)" stroke-width="1" opacity="0.996078431372549" d="M 50.5 119 L 51.5 121 L 50.5 119 Z " /><path fill="rgb(127,127,127)" stroke="rgb(127,127,127)" stroke-width="1" opacity="0.996078431372549" d="M 54.5 122 L 55.5 124 L 54.5 122 Z " /><path fill="rgb(127,127,127)" stroke="rgb(127,127,127)" stroke-width="1" opacity="0.996078431372549" d="M 57.5 124 L 59.5 127 L 57.5 124 Z " /><path fill="rgb(127,127,127)" stroke="rgb(127,127,127)" stroke-width="1" opacity="0.996078431372549" d="M 62.5 128 L 63.5 130 L 62.5 128 Z " /><path fill="rgb(127,127,127)" stroke="rgb(127,127,127)" stroke-width="1" opacity="0.996078431372549" d="M 66.5 131 Q 68.2 133.8 73.5 133 L 76 131.5 Q 75 135 69.5 134 L 66.5 131 Z " /><path fill="rgb(127,127,127)" stroke="rgb(127,127,127)" stroke-width="1" opacity="1" d="M 69.5 67 Q 75 66 76 69.5 L 76 86.5 L 77.5 88 L 166.5 88 L 169 90.5 Q 171.6 96.4 170 106.5 L 166.5 112 L 76.5 112 L 76 112.5 L 76 130.5 Q 75 134 69.5 133 L 37.5 110 L 32 104.5 L 31 97.5 L 36.5 91 L 69.5 67 Z " /></svg>