<svg width="200" height="200" version="1.1" xmlns="http://www.w3.org/2000/svg" desc="Created with imagetracer.js version 1.2.6" ><path fill="rgb(128,128,128)" stroke="rgb(128,128,128)" stroke-width="1" opacity="0.4196078431372549" d="M 77.5 24 L 123 24.5 L 77.5 25 L 77.5 24 Z " /><path fill="rgb(128,128,128)" stroke="rgb(128,128,128)" stroke-width="1" opacity="0.4196078431372549" d="M 125.5 25 L 128 25.5 L 125.5 26 L 125.5 25 Z " /><path fill="rgb(128,128,128)" stroke="rgb(128,128,128)" stroke-width="1" opacity="0.4196078431372549" d="M 69.5 26 L 71 26.5 L 67.5 28 L 67.5 27 L 69.5 26 Z " /><path fill="rgb(128,128,128)" stroke="rgb(128,128,128)" stroke-width="1" opacity="0.4196078431372549" d="M 63.5 29 L 62.5 31 L 63.5 29 Z " /><path fill="rgb(128,128,128)" stroke="rgb(128,128,128)" stroke-width="1" opacity="0.4196078431372549" d="M 137.5 29 L 148 38.5 L 139.5 31 L 137.5 29 Z " /><path fill="rgb(128,128,128)" stroke="rgb(128,128,128)" stroke-width="1" opacity="0.4196078431372549" d="M 60.5 31 L 54.5 38 L 60.5 31 Z " /><path fill="rgb(128,128,128)" stroke="rgb(128,128,128)" stroke-width="1" opacity="0.4196078431372549" d="M 53.5 39 L 52.5 41 L 53.5 39 Z " /><path fill="rgb(128,128,128)" stroke="rgb(128,128,128)" stroke-width="1" opacity="0.4196078431372549" d="M 86.5 43 L 113 43.5 L 86.5 44 L 86.5 43 Z " /><path fill="rgb(128,128,128)" stroke="rgb(128,128,128)" stroke-width="1" opacity="0.4196078431372549" d="M 116.5 44 L 120 44.5 L 116.5 45 L 116.5 44 Z " /><path fill="rgb(128,128,128)" stroke="rgb(128,128,128)" stroke-width="1" opacity="0.4196078431372549" d="M 121.5 45 L 127 48.5 L 129 52.5 L 128 52.5 L 126 48 Q 120.9 47.5 121.5 45 Z " /><path fill="rgb(128,128,128)" stroke="rgb(128,128,128)" stroke-width="1" opacity="0.4196078431372549" d="M 76.5 46 L 75.5 48 L 76.5 46 Z " /><path fill="rgb(128,128,128)" stroke="rgb(128,128,128)" stroke-width="1" opacity="0.4196078431372549" d="M 73.5 49 L 72 51.5 L 71.5 53 L 71 51.5 L 73.5 49 Z " /><path fill="rgb(128,128,128)" stroke="rgb(128,128,128)" stroke-width="1" opacity="0.4196078431372549" d="M 152.5 50 L 153 84.5 L 154 85.5 L 152 86 L 152.5 50 Z " /><path fill="rgb(128,128,128)" stroke="rgb(128,128,128)" stroke-width="1" opacity="0.4196078431372549" d="M 48.5 53 L 49 86 L 46 85.5 L 48 85 L 48.5 53 Z " /><path fill="rgb(128,128,128)" stroke="rgb(128,128,128)" stroke-width="1" opacity="0.4196078431372549" d="M 69.5 57 L 70 61.5 L 69 61.5 L 69.5 57 Z " /><path fill="rgb(128,128,128)" stroke="rgb(128,128,128)" stroke-width="1" opacity="0.4196078431372549" d="M 130.5 58 L 131 60.5 L 130 60.5 L 130.5 58 Z " /><path fill="rgb(128,128,128)" stroke="rgb(128,128,128)" stroke-width="1" opacity="0.4196078431372549" d="M 68.5 65 L 69 85 L 130.5 85 L 131 84.5 L 131 66.5 L 132 66.5 L 132 84.5 L 130.5 86 L 68.5 86 L 68 85.5 L 68.5 65 Z " /><path fill="rgb(128,128,128)" stroke="rgb(128,128,128)" stroke-width="1" opacity="0.4196078431372549" d="M 161.5 88 L 168 93.5 L 169 95.5 L 167 94.5 L 163.5 90 L 161.5 88 Z " /><path fill="rgb(128,128,128)" stroke="rgb(128,128,128)" stroke-width="1" opacity="0.4196078431372549" d="M 36.5 89 L 32.5 94 L 36.5 89 Z " /><path fill="rgb(128,128,128)" stroke="rgb(128,128,128)" stroke-width="1" opacity="0.4196078431372549" d="M 171.5 103 L 172 168.5 L 171 168.5 L 171.5 103 Z " /><path fill="rgb(128,128,128)" stroke="rgb(128,128,128)" stroke-width="1" opacity="0.4196078431372549" d="M 28.5 104 L 29 169.5 L 28 169.5 L 28.5 104 Z " /><path fill="rgb(128,128,128)" stroke="rgb(128,128,128)" stroke-width="1" opacity="0.4196078431372549" d="M 94.5 119 L 92.5 122 L 94.5 119 Z " /><path fill="rgb(128,128,128)" stroke="rgb(128,128,128)" stroke-width="1" opacity="0.4196078431372549" d="M 105.5 119 Q 109.9 121.1 110 127.5 L 109 127.5 L 109 124.5 L 105.5 119 Z " /><path fill="rgb(128,128,128)" stroke="rgb(128,128,128)" stroke-width="1" opacity="0.4196078431372549" d="M 90.5 125 L 91 160.5 L 90 160.5 L 90.5 125 Z " /><path fill="rgb(128,128,128)" stroke="rgb(128,128,128)" stroke-width="1" opacity="0.4196078431372549" d="M 109.5 159 L 110 161.5 L 109 161.5 L 109.5 159 Z " /><path fill="rgb(128,128,128)" stroke="rgb(128,128,128)" stroke-width="1" opacity="0.4196078431372549" d="M 108.5 163 L 105.5 167 L 108.5 163 Z " /><path fill="rgb(128,128,128)" stroke="rgb(128,128,128)" stroke-width="1" opacity="0.4196078431372549" d="M 92.5 164 L 94.5 167 L 92.5 164 Z " /><path fill="rgb(128,128,128)" stroke="rgb(128,128,128)" stroke-width="1" opacity="0.4196078431372549" d="M 170.5 171 L 171 173.5 L 170 173.5 L 170.5 171 Z " /><path fill="rgb(128,128,128)" stroke="rgb(128,128,128)" stroke-width="1" opacity="0.4196078431372549" d="M 30.5 175 L 37.5 184 L 44 186.5 L 41.5 187 L 31 178.5 L 30.5 175 Z " /><path fill="rgb(128,128,128)" stroke="rgb(128,128,128)" stroke-width="1" opacity="0.4196078431372549" d="M 167.5 179 L 163.5 184 L 167.5 179 Z " /><path fill="rgb(128,128,128)" stroke="rgb(128,128,128)" stroke-width="1" opacity="0.4196078431372549" d="M 161.5 184 L 160.5 186 L 159 185.5 L 161.5 184 Z " /><path fill="rgb(128,128,128)" stroke="rgb(128,128,128)" stroke-width="1" opacity="0.4196078431372549" d="M 45.5 187 L 154 187.5 L 45.5 188 L 45.5 187 Z " /><path fill="rgb(0,0,0)" stroke="rgb(0,0,0)" stroke-width="1" opacity="0" d="M 0 0 L 200 0 L 200 200 L 0 200 L 0 0 Z M 78 24 L 70 26 L 61 31 Q 52 37 49 49 L 48 54 L 48 85 L 37 89 L 32 94 L 28 105 L 28 170 L 31 179 Q 36 186 46 188 L 154 188 L 164 184 L 168 180 L 172 169 L 172 104 L 168 94 Q 164 87 155 86 L 153 85 L 153 51 L 148 39 Q 141 28 128 25 L 123 24 L 78 24 Z " /><path fill="rgb(0,0,0)" stroke="rgb(0,0,0)" stroke-width="1" opacity="0" d="M 83.5 44 L 115.5 44 L 126 48 L 129 53.5 L 131 61.5 L 131 85 L 69 85 L 69 62.5 L 71 53.5 L 74 48 L 83.5 44 Z " /><path fill="rgb(0,0,0)" stroke="rgb(0,0,0)" stroke-width="1" opacity="0" d="M 98.5 118 Q 105.8 117.8 108 122.5 L 110 128.5 L 110 158.5 L 109 162.5 L 104.5 167 L 97.5 168 L 92 163.5 L 91 161.5 L 91 124.5 L 95.5 119 L 98.5 118 Z " /><path fill="rgb(127,127,127)" stroke="rgb(127,127,127)" stroke-width="1" opacity="1" d="M 75.5 25 L 124.5 25 Q 140.6 27.9 148 39.5 L 152 48.5 L 152 86 Q 162.2 86.6 167 93.5 L 171 101.5 L 171 170.5 Q 169.3 179.8 162.5 184 L 155.5 187 L 44.5 187 Q 36.1 184.9 32 178.5 L 29 171.5 L 29 101.5 Q 31.2 93.2 37.5 89 Q 41.8 85.2 49 86 L 49 50.5 Q 51.6 37.1 61.5 31 L 75.5 25 Z M 87 43 L 77 46 Q 70 49 69 58 L 68 86 L 131 86 L 132 85 L 131 59 L 127 49 L 123 45 L 113 43 L 87 43 Z M 97 118 L 95 119 L 90 126 L 90 161 L 92 165 L 97 168 L 106 167 L 110 162 L 110 125 L 109 123 Q 107 116 97 118 Z " /></svg>