<svg width="256" height="256" version="1.1" xmlns="http://www.w3.org/2000/svg" desc="Created with imagetracer.js version 1.2.6" ><path fill="rgb(0,0,0)" stroke="rgb(0,0,0)" stroke-width="1" opacity="0" d="M 0 0 L 256 0 L 256 256 L 0 256 L 0 0 Z M 36 25 L 32 27 Q 27 30 25 37 L 25 61 L 60 61 L 61 60 L 61 25 L 36 25 Z M 72 25 L 72 61 L 95 61 L 95 25 L 72 25 Z M 106 25 L 106 61 L 122 61 L 122 25 L 106 25 Z M 133 25 L 133 61 L 150 61 L 150 25 L 133 25 Z M 161 25 L 161 61 L 184 61 L 184 25 L 161 25 Z M 195 25 L 195 61 L 231 61 L 231 37 L 229 32 Q 226 27 220 25 L 195 25 Z M 119 71 L 108 73 L 100 78 Q 92 85 89 98 L 87 109 L 87 119 L 86 120 L 86 137 L 87 138 L 88 154 Q 90 166 97 175 Q 102 180 111 183 L 125 183 L 137 177 Q 143 171 146 163 L 150 144 L 150 114 Q 147 112 149 106 L 146 93 L 141 83 L 132 74 L 119 71 Z M 36 73 L 36 181 L 82 181 L 82 163 L 59 163 L 58 163 L 58 75 L 57 73 L 36 73 Z M 166 73 L 164 75 L 164 181 L 195 181 L 203 179 L 213 173 L 221 161 L 226 140 L 226 112 Q 224 110 225 106 Q 223 94 217 86 Q 210 76 197 74 L 166 73 Z M 25 195 L 25 220 L 27 225 Q 30 229 37 231 L 60 231 L 61 230 L 61 195 L 25 195 Z M 72 195 L 72 231 L 95 231 L 95 195 L 72 195 Z M 106 195 L 106 231 L 121 231 L 122 230 L 122 195 L 106 195 Z M 133 195 L 133 231 L 149 231 L 150 230 L 150 195 L 133 195 Z M 161 195 L 161 231 L 184 231 L 184 195 L 161 195 Z M 195 195 L 195 231 L 218 231 L 226 228 Q 230 225 231 220 L 231 195 L 195 195 Z " /><path fill="rgb(0,0,0)" stroke="rgb(0,0,0)" stroke-width="1" opacity="0" d="M 115.5 89 Q 122.8 87.8 124 92.5 L 127 101.5 L 127 110.5 L 128 111.5 L 128 143.5 L 127 144.5 L 126 157.5 L 121.5 164 L 116.5 165 L 111 158.5 L 109 148.5 L 109 105.5 L 112 92.5 L 115.5 89 Z " /><path fill="rgb(0,0,0)" stroke="rgb(0,0,0)" stroke-width="1" opacity="0" d="M 186 91 Q 194.3 90.5 198 95.5 L 203 107.5 Q 201.3 113.8 204 115.5 L 204 139.5 L 203 140.5 L 202 151.5 Q 199.8 158.3 194.5 162 L 186 164 L 186 91 Z " /><path fill="rgb(54,170,96)" stroke="rgb(54,170,96)" stroke-width="1" opacity="0.9411764705882353" d="M 35.5 25 L 61 25 L 61 59.5 L 59.5 61 L 25 61 L 25 36.5 Q 26.5 30 31.5 27 L 35.5 25 Z " /><path fill="rgb(54,170,96)" stroke="rgb(54,170,96)" stroke-width="1" opacity="0.9411764705882353" d="M 72 25 L 95 25 L 95 61 L 72 61 L 72 25 Z " /><path fill="rgb(54,170,96)" stroke="rgb(54,170,96)" stroke-width="1" opacity="0.9411764705882353" d="M 106 25 L 122 25 L 122 61 L 106 61 L 106 25 Z " /><path fill="rgb(54,170,96)" stroke="rgb(54,170,96)" stroke-width="1" opacity="0.9411764705882353" d="M 133 25 L 150 25 L 150 61 L 133 61 L 133 25 Z " /><path fill="rgb(54,170,96)" stroke="rgb(54,170,96)" stroke-width="1" opacity="0.9411764705882353" d="M 161 25 L 184 25 L 184 61 L 161 61 L 161 25 Z " /><path fill="rgb(54,170,96)" stroke="rgb(54,170,96)" stroke-width="1" opacity="0.9411764705882353" d="M 195 25 L 219.5 25 Q 226 26.5 229 31.5 L 231 36.5 L 231 61 L 195 61 L 195 25 Z " /><path fill="rgb(54,170,96)" stroke="rgb(54,170,96)" stroke-width="1" opacity="0.9411764705882353" d="M 118.5 71 L 131.5 74 L 141 82.5 L 146 92.5 L 149 105.5 Q 147.3 111.8 150 113.5 L 150 143.5 L 146 162.5 Q 142.8 171.3 136.5 177 L 124.5 183 L 110.5 183 Q 102 180.5 97 174.5 Q 90.3 166.2 88 153.5 L 87 137.5 L 86 136.5 L 86 119.5 L 87 118.5 L 87 108.5 L 89 97.5 Q 91.8 85.3 99.5 78 L 107.5 73 L 118.5 71 Z M 116 89 L 112 93 L 109 106 L 109 149 L 111 159 L 117 165 L 122 164 L 126 158 L 127 145 L 128 144 L 128 112 L 127 111 L 127 102 L 124 93 Q 123 88 116 89 Z " /><path fill="rgb(54,170,96)" stroke="rgb(54,170,96)" stroke-width="1" opacity="0.9411764705882353" d="M 36 73 L 56.5 73 L 58 74.5 L 58 162.5 L 58.5 163 L 82 163 L 82 181 L 36 181 L 36 73 Z " /><path fill="rgb(54,170,96)" stroke="rgb(54,170,96)" stroke-width="1" opacity="0.9411764705882353" d="M 165.5 73 L 196.5 74 Q 210.2 76.3 217 85.5 Q 223 93.5 225 105.5 Q 223.8 110.3 226 111.5 L 226 139.5 L 221 160.5 L 212.5 173 L 202.5 179 L 194.5 181 L 164 181 L 164 74.5 L 165.5 73 Z M 186 91 L 186 164 L 195 162 Q 200 158 202 152 L 203 141 L 204 140 L 204 116 Q 201 114 203 108 L 198 96 Q 194 90 186 91 Z " /><path fill="rgb(54,170,96)" stroke="rgb(54,170,96)" stroke-width="1" opacity="0.9411764705882353" d="M 25 195 L 61 195 L 61 229.5 L 59.5 231 L 36.5 231 Q 30 229.5 27 224.5 L 25 219.5 L 25 195 Z " /><path fill="rgb(54,170,96)" stroke="rgb(54,170,96)" stroke-width="1" opacity="0.9411764705882353" d="M 72 195 L 95 195 L 95 231 L 72 231 L 72 195 Z " /><path fill="rgb(54,170,96)" stroke="rgb(54,170,96)" stroke-width="1" opacity="0.9411764705882353" d="M 106 195 L 122 195 L 122 229.5 L 120.5 231 L 106 231 L 106 195 Z " /><path fill="rgb(54,170,96)" stroke="rgb(54,170,96)" stroke-width="1" opacity="0.9411764705882353" d="M 133 195 L 150 195 L 150 229.5 L 148.5 231 L 133 231 L 133 195 Z " /><path fill="rgb(54,170,96)" stroke="rgb(54,170,96)" stroke-width="1" opacity="0.9411764705882353" d="M 161 195 L 184 195 L 184 231 L 161 231 L 161 195 Z " /><path fill="rgb(54,170,96)" stroke="rgb(54,170,96)" stroke-width="1" opacity="0.9411764705882353" d="M 195 195 L 231 195 L 231 219.5 Q 229.8 225.3 225.5 228 L 217.5 231 L 195 231 L 195 195 Z " /></svg>