<svg width="256" height="256" version="1.1" xmlns="http://www.w3.org/2000/svg" desc="Created with imagetracer.js version 1.2.6" ><path fill="rgb(248,241,139)" stroke="rgb(248,241,139)" stroke-width="1" opacity="0.8901960784313725" d="M 51.5 26 L 56 26.5 L 48.5 28 L 48.5 27 L 51.5 26 Z " /><path fill="rgb(248,241,139)" stroke="rgb(248,241,139)" stroke-width="1" opacity="0.8901960784313725" d="M 102.5 26 L 103 83 L 152 83 L 152 26.5 L 153 26.5 L 153 82.5 L 151.5 84 L 103.5 84 L 102 82.5 L 102.5 26 Z " /><path fill="rgb(248,241,139)" stroke="rgb(248,241,139)" stroke-width="1" opacity="0.8901960784313725" d="M 171.5 26 L 172 83 L 230 83.5 L 172.5 84 L 171 82.5 L 171.5 26 Z " /><path fill="rgb(248,241,139)" stroke="rgb(248,241,139)" stroke-width="1" opacity="0.8901960784313725" d="M 200.5 26 L 208 27.5 L 204.5 28 L 200.5 27 L 200.5 26 Z " /><path fill="rgb(248,241,139)" stroke="rgb(248,241,139)" stroke-width="1" opacity="0.8901960784313725" d="M 44.5 28 L 46 28.5 L 43.5 30 L 44.5 28 Z " /><path fill="rgb(248,241,139)" stroke="rgb(248,241,139)" stroke-width="1" opacity="0.8901960784313725" d="M 210.5 28 L 213 29.5 L 211.5 29 L 210.5 28 Z " /><path fill="rgb(248,241,139)" stroke="rgb(248,241,139)" stroke-width="1" opacity="0.8901960784313725" d="M 41.5 30 L 40.5 32 L 41.5 30 Z " /><path fill="rgb(248,241,139)" stroke="rgb(248,241,139)" stroke-width="1" opacity="0.8901960784313725" d="M 214.5 30 L 215.5 32 L 214.5 30 Z " /><path fill="rgb(248,241,139)" stroke="rgb(248,241,139)" stroke-width="1" opacity="0.8901960784313725" d="M 38.5 32 L 32.5 39 L 38.5 32 Z " /><path fill="rgb(248,241,139)" stroke="rgb(248,241,139)" stroke-width="1" opacity="0.8901960784313725" d="M 217.5 32 L 223.5 39 L 217.5 32 Z " /><path fill="rgb(248,241,139)" stroke="rgb(248,241,139)" stroke-width="1" opacity="0.8901960784313725" d="M 31.5 40 L 30.5 42 L 31.5 40 Z " /><path fill="rgb(248,241,139)" stroke="rgb(248,241,139)" stroke-width="1" opacity="0.8901960784313725" d="M 224.5 40 L 225.5 42 L 224.5 40 Z " /><path fill="rgb(248,241,139)" stroke="rgb(248,241,139)" stroke-width="1" opacity="0.8901960784313725" d="M 29.5 43 L 29 44.5 L 28.5 46 L 28 44.5 L 29.5 43 Z " /><path fill="rgb(248,241,139)" stroke="rgb(248,241,139)" stroke-width="1" opacity="0.8901960784313725" d="M 226.5 43 L 228 45.5 L 227 45.5 L 226.5 43 Z " /><path fill="rgb(248,241,139)" stroke="rgb(248,241,139)" stroke-width="1" opacity="0.8901960784313725" d="M 27.5 48 L 28 51.5 L 26.5 56 L 26 52.5 L 27.5 48 Z " /><path fill="rgb(248,241,139)" stroke="rgb(248,241,139)" stroke-width="1" opacity="0.8901960784313725" d="M 192.5 48 L 194 48.5 L 188 52.5 L 187.5 55 L 187 52.5 L 192.5 48 Z " /><path fill="rgb(248,241,139)" stroke="rgb(248,241,139)" stroke-width="1" opacity="0.8901960784313725" d="M 199.5 48 L 204 51.5 L 201.5 50 L 199.5 48 Z " /><path fill="rgb(248,241,139)" stroke="rgb(248,241,139)" stroke-width="1" opacity="0.8901960784313725" d="M 228.5 48 L 230 55.5 L 229 55.5 L 228.5 48 Z " /><path fill="rgb(248,241,139)" stroke="rgb(248,241,139)" stroke-width="1" opacity="0.8901960784313725" d="M 188.5 62 L 189.5 64 L 188.5 62 Z " /><path fill="rgb(248,241,139)" stroke="rgb(248,241,139)" stroke-width="1" opacity="0.8901960784313725" d="M 203.5 62 L 202.5 64 L 203.5 62 Z " /><path fill="rgb(248,241,139)" stroke="rgb(248,241,139)" stroke-width="1" opacity="0.8901960784313725" d="M 191.5 64 L 195 65.5 L 192.5 66 L 191.5 64 Z " /><path fill="rgb(248,241,139)" stroke="rgb(248,241,139)" stroke-width="1" opacity="0.8901960784313725" d="M 200.5 64 L 199.5 66 L 196 65.5 L 200.5 64 Z " /><path fill="rgb(248,241,139)" stroke="rgb(248,241,139)" stroke-width="1" opacity="0.8901960784313725" d="M 26.5 83 L 84 83.5 L 26.5 84 L 26.5 83 Z " /><path fill="rgb(248,241,139)" stroke="rgb(248,241,139)" stroke-width="1" opacity="0.8901960784313725" d="M 26.5 101 L 84 101.5 L 26.5 102 L 26.5 101 Z " /><path fill="rgb(248,241,139)" stroke="rgb(248,241,139)" stroke-width="1" opacity="0.8901960784313725" d="M 103.5 101 L 151.5 101 L 153 102.5 L 152.5 153 L 152 102 L 103 102 L 103 152.5 L 102 152.5 L 102 102.5 L 103.5 101 Z " /><path fill="rgb(248,241,139)" stroke="rgb(248,241,139)" stroke-width="1" opacity="0.8901960784313725" d="M 172.5 101 L 230 101.5 L 172 102 L 171.5 153 L 171 102.5 L 172.5 101 Z " /><path fill="rgb(248,241,139)" stroke="rgb(248,241,139)" stroke-width="1" opacity="0.8901960784313725" d="M 196.5 119 L 199 119.5 L 196.5 120 L 196.5 119 Z " /><path fill="rgb(248,241,139)" stroke="rgb(248,241,139)" stroke-width="1" opacity="0.8901960784313725" d="M 200.5 119 L 203 119.5 L 200.5 120 L 200.5 119 Z " /><path fill="rgb(248,241,139)" stroke="rgb(248,241,139)" stroke-width="1" opacity="0.8901960784313725" d="M 51.5 120 L 49 123.5 L 48.5 125 L 48 123.5 L 51.5 120 Z " /><path fill="rgb(248,241,139)" stroke="rgb(248,241,139)" stroke-width="1" opacity="0.8901960784313725" d="M 62.5 120 L 63.5 122 L 62.5 120 Z " /><path fill="rgb(248,241,139)" stroke="rgb(248,241,139)" stroke-width="1" opacity="0.8901960784313725" d="M 194.5 120 L 193.5 122 L 192 121.5 L 194.5 120 Z " /><path fill="rgb(248,241,139)" stroke="rgb(248,241,139)" stroke-width="1" opacity="0.8901960784313725" d="M 204.5 120 L 208 124.5 L 207 124.5 L 204.5 120 Z " /><path fill="rgb(248,241,139)" stroke="rgb(248,241,139)" stroke-width="1" opacity="0.8901960784313725" d="M 64.5 123 L 66 126.5 L 65 126.5 L 64.5 123 Z " /><path fill="rgb(248,241,139)" stroke="rgb(248,241,139)" stroke-width="1" opacity="0.8901960784313725" d="M 191.5 123 L 191 124.5 L 190.5 127 L 190 124.5 L 191.5 123 Z " /><path fill="rgb(248,241,139)" stroke="rgb(248,241,139)" stroke-width="1" opacity="0.8901960784313725" d="M 65.5 129 L 66 131.5 L 64 132.5 L 65.5 129 Z " /><path fill="rgb(248,241,139)" stroke="rgb(248,241,139)" stroke-width="1" opacity="0.8901960784313725" d="M 190.5 130 L 192 132.5 L 190 131.5 L 190.5 130 Z " /><path fill="rgb(248,241,139)" stroke="rgb(248,241,139)" stroke-width="1" opacity="0.8901960784313725" d="M 48.5 131 L 52 135.5 L 48 132.5 L 48.5 131 Z " /><path fill="rgb(248,241,139)" stroke="rgb(248,241,139)" stroke-width="1" opacity="0.8901960784313725" d="M 207.5 131 L 208 132.5 L 204 135.5 L 207.5 131 Z " /><path fill="rgb(248,241,139)" stroke="rgb(248,241,139)" stroke-width="1" opacity="0.8901960784313725" d="M 63.5 134 L 62.5 136 L 63.5 134 Z " /><path fill="rgb(248,241,139)" stroke="rgb(248,241,139)" stroke-width="1" opacity="0.8901960784313725" d="M 192.5 134 L 195 135.5 L 193.5 136 L 192.5 134 Z " /><path fill="rgb(248,241,139)" stroke="rgb(248,241,139)" stroke-width="1" opacity="0.8901960784313725" d="M 58.5 136 L 61 136.5 L 58.5 137 L 58.5 136 Z " /><path fill="rgb(248,241,139)" stroke="rgb(248,241,139)" stroke-width="1" opacity="0.8901960784313725" d="M 26.5 171 L 84 171.5 L 26.5 172 L 26.5 171 Z " /><path fill="rgb(248,241,139)" stroke="rgb(248,241,139)" stroke-width="1" opacity="0.8901960784313725" d="M 103.5 171 L 153 171 L 153 229.5 L 152 229.5 L 152 172 L 103 172 L 102.5 230 L 102 172.5 L 103.5 171 Z " /><path fill="rgb(248,241,139)" stroke="rgb(248,241,139)" stroke-width="1" opacity="0.8901960784313725" d="M 171 171 L 230 171.5 L 172 172 L 171.5 230 L 171 171 Z " /><path fill="rgb(248,241,139)" stroke="rgb(248,241,139)" stroke-width="1" opacity="0.8901960784313725" d="M 124.5 187 L 131 187.5 L 124.5 188 L 122.5 190 L 124.5 187 Z " /><path fill="rgb(248,241,139)" stroke="rgb(248,241,139)" stroke-width="1" opacity="0.8901960784313725" d="M 132.5 188 L 136 190.5 L 133.5 189 L 132.5 188 Z " /><path fill="rgb(248,241,139)" stroke="rgb(248,241,139)" stroke-width="1" opacity="0.8901960784313725" d="M 26.5 200 L 28 207.5 L 27 207.5 L 26.5 200 Z " /><path fill="rgb(248,241,139)" stroke="rgb(248,241,139)" stroke-width="1" opacity="0.8901960784313725" d="M 229.5 200 L 230 203.5 L 228.5 207 L 228 204.5 L 229.5 200 Z " /><path fill="rgb(248,241,139)" stroke="rgb(248,241,139)" stroke-width="1" opacity="0.8901960784313725" d="M 120.5 201 L 122.5 204 L 120 202.5 L 120.5 201 Z " /><path fill="rgb(248,241,139)" stroke="rgb(248,241,139)" stroke-width="1" opacity="0.8901960784313725" d="M 135.5 201 L 133.5 204 L 135.5 201 Z " /><path fill="rgb(248,241,139)" stroke="rgb(248,241,139)" stroke-width="1" opacity="0.8901960784313725" d="M 126.5 205 L 130 205.5 L 126.5 206 L 126.5 205 Z " /><path fill="rgb(248,241,139)" stroke="rgb(248,241,139)" stroke-width="1" opacity="0.8901960784313725" d="M 28.5 210 L 32 215.5 L 30 214.5 L 28.5 210 Z " /><path fill="rgb(248,241,139)" stroke="rgb(248,241,139)" stroke-width="1" opacity="0.8901960784313725" d="M 227.5 211 L 226 213.5 L 224.5 216 L 225 214.5 L 227.5 211 Z " /><path fill="rgb(248,241,139)" stroke="rgb(248,241,139)" stroke-width="1" opacity="0.8901960784313725" d="M 32.5 217 L 38.5 224 L 32.5 217 Z " /><path fill="rgb(248,241,139)" stroke="rgb(248,241,139)" stroke-width="1" opacity="0.8901960784313725" d="M 223.5 217 L 222.5 219 L 223.5 217 Z " /><path fill="rgb(248,241,139)" stroke="rgb(248,241,139)" stroke-width="1" opacity="0.8901960784313725" d="M 218.5 222 L 217.5 224 L 218.5 222 Z " /><path fill="rgb(248,241,139)" stroke="rgb(248,241,139)" stroke-width="1" opacity="0.8901960784313725" d="M 40.5 224 L 41.5 226 L 40.5 224 Z " /><path fill="rgb(248,241,139)" stroke="rgb(248,241,139)" stroke-width="1" opacity="0.8901960784313725" d="M 215.5 224 L 214.5 226 L 215.5 224 Z " /><path fill="rgb(248,241,139)" stroke="rgb(248,241,139)" stroke-width="1" opacity="0.8901960784313725" d="M 43.5 226 L 46 227.5 L 44.5 228 L 43.5 226 Z " /><path fill="rgb(248,241,139)" stroke="rgb(248,241,139)" stroke-width="1" opacity="0.8901960784313725" d="M 212.5 226 L 211.5 228 L 210 227.5 L 212.5 226 Z " /><path fill="rgb(248,241,139)" stroke="rgb(248,241,139)" stroke-width="1" opacity="0.8901960784313725" d="M 48.5 228 L 56 229.5 L 52.5 230 L 48.5 229 L 48.5 228 Z " /><path fill="rgb(248,241,139)" stroke="rgb(248,241,139)" stroke-width="1" opacity="0.8901960784313725" d="M 204.5 228 L 208 228.5 L 200.5 230 L 200.5 229 L 204.5 228 Z " /><path fill="rgb(249,242,139)" stroke="rgb(249,242,139)" stroke-width="1" opacity="0.996078431372549" d="M 103.5 26 L 104 82 L 152 82.5 L 103 83 L 103.5 26 Z " /><path fill="rgb(249,242,139)" stroke="rgb(249,242,139)" stroke-width="1" opacity="0.996078431372549" d="M 199.5 26 L 204 27.5 L 199 28 L 199.5 26 Z " /><path fill="rgb(249,242,139)" stroke="rgb(249,242,139)" stroke-width="1" opacity="0.996078431372549" d="M 52.5 27 L 56 27.5 L 52.5 28 L 52.5 27 Z " /><path fill="rgb(249,242,139)" stroke="rgb(249,242,139)" stroke-width="1" opacity="0.996078431372549" d="M 46.5 28 L 45.5 30 L 41.5 32 L 42.5 30 L 46.5 28 Z " /><path fill="rgb(249,242,139)" stroke="rgb(249,242,139)" stroke-width="1" opacity="0.996078431372549" d="M 209.5 28 L 215 31.5 L 213.5 31 Q 209.5 30.5 209.5 28 Z " /><path fill="rgb(249,242,139)" stroke="rgb(249,242,139)" stroke-width="1" opacity="0.996078431372549" d="M 39.5 32 L 40 34 L 37.5 35 L 39.5 32 Z " /><path fill="rgb(249,242,139)" stroke="rgb(249,242,139)" stroke-width="1" opacity="0.996078431372549" d="M 216.5 32 L 223.5 40 Q 221.3 40.8 222 38.5 L 216.5 32 Z " /><path fill="rgb(249,242,139)" stroke="rgb(249,242,139)" stroke-width="1" opacity="0.996078431372549" d="M 34.5 37 L 34 38.5 Q 34.8 40.8 32.5 40 L 34.5 37 Z " /><path fill="rgb(249,242,139)" stroke="rgb(249,242,139)" stroke-width="1" opacity="0.996078431372549" d="M 31.5 41 L 32 42.5 L 28.5 47 L 29 45.5 L 31.5 41 Z " /><path fill="rgb(249,242,139)" stroke="rgb(249,242,139)" stroke-width="1" opacity="0.996078431372549" d="M 224.5 41 L 228 46.5 L 226 45.5 L 224.5 41 Z " /><path fill="rgb(249,242,139)" stroke="rgb(249,242,139)" stroke-width="1" opacity="0.996078431372549" d="M 192.5 47 Q 199.3 45.3 201 48.5 L 199.5 48 Q 191 46.5 188.5 51 L 190.5 48 L 192.5 47 Z " /><path fill="rgb(249,242,139)" stroke="rgb(249,242,139)" stroke-width="1" opacity="0.996078431372549" d="M 202.5 49 Q 204.8 48.3 204 50.5 L 202.5 49 Z " /><path fill="rgb(249,242,139)" stroke="rgb(249,242,139)" stroke-width="1" opacity="0.996078431372549" d="M 27.5 52 L 28 57 L 26 56.5 L 27.5 52 Z " /><path fill="rgb(249,242,139)" stroke="rgb(249,242,139)" stroke-width="1" opacity="0.996078431372549" d="M 204.5 52 Q 207.5 51.1 206 55.5 L 205 55.5 L 204.5 52 Z " /><path fill="rgb(249,242,139)" stroke="rgb(249,242,139)" stroke-width="1" opacity="0.996078431372549" d="M 228.5 52 L 230 56.5 L 228 57 L 228.5 52 Z " /><path fill="rgb(249,242,139)" stroke="rgb(249,242,139)" stroke-width="1" opacity="0.996078431372549" d="M 205.5 57 L 206 60.5 L 204 61.5 L 205.5 57 Z " /><path fill="rgb(249,242,139)" stroke="rgb(249,242,139)" stroke-width="1" opacity="0.996078431372549" d="M 187.5 61 L 189 63.5 L 187 62.5 L 187.5 61 Z " /><path fill="rgb(249,242,139)" stroke="rgb(249,242,139)" stroke-width="1" opacity="0.996078431372549" d="M 190.5 64 L 191.5 66 Q 188.7 66.7 190.5 64 Z " /><path fill="rgb(249,242,139)" stroke="rgb(249,242,139)" stroke-width="1" opacity="0.996078431372549" d="M 201.5 64 L 200.5 66 L 201.5 64 Z " /><path fill="rgb(249,242,139)" stroke="rgb(249,242,139)" stroke-width="1" opacity="0.996078431372549" d="M 193.5 66 L 197 66.5 L 193.5 67 L 193.5 66 Z " /><path fill="rgb(249,242,139)" stroke="rgb(249,242,139)" stroke-width="1" opacity="0.996078431372549" d="M 26.5 82 L 84 82.5 L 26.5 83 L 26.5 82 Z " /><path fill="rgb(249,242,139)" stroke="rgb(249,242,139)" stroke-width="1" opacity="0.996078431372549" d="M 172.5 82 L 230 82.5 L 172.5 83 L 172.5 82 Z " /><path fill="rgb(249,242,139)" stroke="rgb(249,242,139)" stroke-width="1" opacity="0.996078431372549" d="M 103.5 102 L 104 152 L 152 152.5 L 103 153 L 103.5 102 Z " /><path fill="rgb(249,242,139)" stroke="rgb(249,242,139)" stroke-width="1" opacity="0.996078431372549" d="M 194.5 119 L 196 119.5 L 192 121 L 190.5 124 L 191 122.5 L 192.5 120 L 194.5 119 Z " /><path fill="rgb(249,242,139)" stroke="rgb(249,242,139)" stroke-width="1" opacity="0.996078431372549" d="M 49 120 L 51 120.5 L 48 122.5 L 49 120 Z " /><path fill="rgb(249,242,139)" stroke="rgb(249,242,139)" stroke-width="1" opacity="0.996078431372549" d="M 63.5 120 L 66 123.5 L 64 122.5 L 63.5 120 Z " /><path fill="rgb(249,242,139)" stroke="rgb(249,242,139)" stroke-width="1" opacity="0.996078431372549" d="M 205.5 120 Q 207.8 119.3 207 121.5 L 207.5 123 L 205.5 120 Z " /><path fill="rgb(249,242,139)" stroke="rgb(249,242,139)" stroke-width="1" opacity="0.996078431372549" d="M 47.5 124 L 48 132.5 L 51 135.5 L 47 132.5 L 47.5 124 Z " /><path fill="rgb(249,242,139)" stroke="rgb(249,242,139)" stroke-width="1" opacity="0.996078431372549" d="M 208.5 124 L 209 126.5 L 208 126.5 L 208.5 124 Z " /><path fill="rgb(249,242,139)" stroke="rgb(249,242,139)" stroke-width="1" opacity="0.996078431372549" d="M 66.5 126 L 67 129.5 L 66 129.5 L 66.5 126 Z " /><path fill="rgb(249,242,139)" stroke="rgb(249,242,139)" stroke-width="1" opacity="0.996078431372549" d="M 189.5 126 L 190 130.5 L 189 130.5 L 189.5 126 Z " /><path fill="rgb(249,242,139)" stroke="rgb(249,242,139)" stroke-width="1" opacity="0.996078431372549" d="M 208.5 128 L 209 131.5 L 208 131.5 L 208.5 128 Z " /><path fill="rgb(249,242,139)" stroke="rgb(249,242,139)" stroke-width="1" opacity="0.996078431372549" d="M 65.5 132 L 64.5 134 L 65.5 132 Z " /><path fill="rgb(249,242,139)" stroke="rgb(249,242,139)" stroke-width="1" opacity="0.996078431372549" d="M 190.5 132 L 193 135.5 L 191 134.5 L 190.5 132 Z " /><path fill="rgb(249,242,139)" stroke="rgb(249,242,139)" stroke-width="1" opacity="0.996078431372549" d="M 207.5 133 L 207 134.5 Q 207.8 136.8 205.5 136 L 207.5 133 Z " /><path fill="rgb(249,242,139)" stroke="rgb(249,242,139)" stroke-width="1" opacity="0.996078431372549" d="M 26.5 152 L 84 152.5 L 26.5 153 L 26.5 152 Z " /><path fill="rgb(249,242,139)" stroke="rgb(249,242,139)" stroke-width="1" opacity="0.996078431372549" d="M 172.5 152 L 230 152.5 L 172.5 153 L 172.5 152 Z " /><path fill="rgb(249,242,139)" stroke="rgb(249,242,139)" stroke-width="1" opacity="0.996078431372549" d="M 103.5 172 L 104 229.5 L 103 229.5 L 103.5 172 Z " /><path fill="rgb(249,242,139)" stroke="rgb(249,242,139)" stroke-width="1" opacity="0.996078431372549" d="M 123.5 187 L 121.5 190 L 120 189.5 L 123.5 187 Z " /><path fill="rgb(249,242,139)" stroke="rgb(249,242,139)" stroke-width="1" opacity="0.996078431372549" d="M 26.5 199 Q 29.9 198.1 28 203.5 L 27 203.5 L 26.5 199 Z " /><path fill="rgb(249,242,139)" stroke="rgb(249,242,139)" stroke-width="1" opacity="0.996078431372549" d="M 228.5 200 L 229 203.5 L 228 203.5 L 228.5 200 Z " /><path fill="rgb(249,242,139)" stroke="rgb(249,242,139)" stroke-width="1" opacity="0.996078431372549" d="M 135.5 202 L 136 204 L 134 203.5 L 135.5 202 Z " /><path fill="rgb(249,242,139)" stroke="rgb(249,242,139)" stroke-width="1" opacity="0.996078431372549" d="M 123.5 204 L 126 205.5 L 124.5 206 L 123.5 204 Z " /><path fill="rgb(249,242,139)" stroke="rgb(249,242,139)" stroke-width="1" opacity="0.996078431372549" d="M 132.5 204 L 131.5 206 L 130 205.5 L 132.5 204 Z " /><path fill="rgb(249,242,139)" stroke="rgb(249,242,139)" stroke-width="1" opacity="0.996078431372549" d="M 28.5 209 Q 31.1 208.2 30 211.5 L 32 214.5 L 31 214.5 L 28.5 209 Z " /><path fill="rgb(249,242,139)" stroke="rgb(249,242,139)" stroke-width="1" opacity="0.996078431372549" d="M 226 210 L 228 210.5 L 224.5 215 L 224 213.5 L 226 210 Z " /><path fill="rgb(249,242,139)" stroke="rgb(249,242,139)" stroke-width="1" opacity="0.996078431372549" d="M 32.5 216 Q 34.8 215.3 34 217.5 L 34.5 219 L 32.5 216 Z " /><path fill="rgb(249,242,139)" stroke="rgb(249,242,139)" stroke-width="1" opacity="0.996078431372549" d="M 222 216 L 224 216.5 L 221.5 220 L 221 218.5 L 222 216 Z " /><path fill="rgb(249,242,139)" stroke="rgb(249,242,139)" stroke-width="1" opacity="0.996078431372549" d="M 37.5 221 L 40 222 L 39.5 224 L 37.5 221 Z " /><path fill="rgb(249,242,139)" stroke="rgb(249,242,139)" stroke-width="1" opacity="0.996078431372549" d="M 218.5 221 L 220 221.5 L 216.5 224 L 216 222 L 218.5 221 Z " /><path fill="rgb(249,242,139)" stroke="rgb(249,242,139)" stroke-width="1" opacity="0.996078431372549" d="M 41.5 224 L 47 226 L 46.5 228 Q 41.9 226.8 41.5 224 Z " /><path fill="rgb(249,242,139)" stroke="rgb(249,242,139)" stroke-width="1" opacity="0.996078431372549" d="M 214.5 224 L 213.5 226 L 209.5 228 L 210.5 226 L 214.5 224 Z " /><path fill="rgb(249,242,139)" stroke="rgb(249,242,139)" stroke-width="1" opacity="0.996078431372549" d="M 52.5 228 Q 57.9 226.1 57 229.5 L 55.5 229 Q 51.5 229.8 52.5 228 Z " /><path fill="rgb(249,242,139)" stroke="rgb(249,242,139)" stroke-width="1" opacity="0.996078431372549" d="M 199 228 L 204 228.5 L 199.5 230 L 199 228 Z " /><path fill="rgb(249,242,139)" stroke="rgb(249,242,139)" stroke-width="1" opacity="0.48627450980392156" d="M 53.5 25 L 83.5 25 L 85 26.5 L 84.5 84 L 84 26 L 53.5 26 L 53.5 25 Z " /><path fill="rgb(249,242,139)" stroke="rgb(249,242,139)" stroke-width="1" opacity="0.48627450980392156" d="M 102.5 25 L 152.5 25 L 154 26.5 L 154 83.5 L 152.5 84 L 153 82.5 L 153 26 L 102 26 L 102 82.5 L 103 83.5 L 101 82.5 L 101 26.5 L 102.5 25 Z " /><path fill="rgb(249,242,139)" stroke="rgb(249,242,139)" stroke-width="1" opacity="0.48627450980392156" d="M 171.5 25 L 203 25.5 L 171 26 L 171 82.5 L 172 83.5 L 170 84 L 170 26.5 L 171.5 25 Z " /><path fill="rgb(249,242,139)" stroke="rgb(249,242,139)" stroke-width="1" opacity="0.48627450980392156" d="M 48.5 26 L 51 26.5 L 46.5 28 L 46.5 27 L 48.5 26 Z " /><path fill="rgb(249,242,139)" stroke="rgb(249,242,139)" stroke-width="1" opacity="0.48627450980392156" d="M 204.5 26 L 210 27.5 L 208.5 28 L 204.5 27 L 204.5 26 Z " /><path fill="rgb(249,242,139)" stroke="rgb(249,242,139)" stroke-width="1" opacity="0.48627450980392156" d="M 43.5 28 L 42.5 30 L 32 38.5 L 28.5 44 L 29 42.5 L 36 32 L 43.5 28 Z " /><path fill="rgb(249,242,139)" stroke="rgb(249,242,139)" stroke-width="1" opacity="0.48627450980392156" d="M 212.5 28 L 220 32 L 222.5 36 Q 224.8 35.3 224 37.5 L 228 43.5 L 226 42.5 L 217.5 32 Q 212.9 30.8 212.5 28 Z " /><path fill="rgb(249,242,139)" stroke="rgb(249,242,139)" stroke-width="1" opacity="0.48627450980392156" d="M 27.5 46 L 28 47.5 L 26.5 52 L 26 48.5 L 27.5 46 Z " /><path fill="rgb(249,242,139)" stroke="rgb(249,242,139)" stroke-width="1" opacity="0.48627450980392156" d="M 228.5 46 L 230 51.5 L 229 51.5 L 228.5 46 Z " /><path fill="rgb(249,242,139)" stroke="rgb(249,242,139)" stroke-width="1" opacity="0.48627450980392156" d="M 194.5 48 Q 199 47 200 49.5 L 198.5 49 Q 193.5 50 194.5 48 Z " /><path fill="rgb(249,242,139)" stroke="rgb(249,242,139)" stroke-width="1" opacity="0.48627450980392156" d="M 190.5 50 L 189 52.5 L 188.5 54 L 188 52.5 L 190.5 50 Z " /><path fill="rgb(249,242,139)" stroke="rgb(249,242,139)" stroke-width="1" opacity="0.48627450980392156" d="M 201.5 50 L 204 53.5 L 203 53.5 L 201.5 50 Z " /><path fill="rgb(249,242,139)" stroke="rgb(249,242,139)" stroke-width="1" opacity="0.48627450980392156" d="M 230.5 53 L 231 83.5 L 230 83.5 L 230.5 53 Z " /><path fill="rgb(249,242,139)" stroke="rgb(249,242,139)" stroke-width="1" opacity="0.48627450980392156" d="M 25.5 54 L 26 83.5 L 25 83.5 L 25.5 54 Z " /><path fill="rgb(249,242,139)" stroke="rgb(249,242,139)" stroke-width="1" opacity="0.48627450980392156" d="M 187.5 55 L 188 58.5 L 187 58.5 L 187.5 55 Z " /><path fill="rgb(249,242,139)" stroke="rgb(249,242,139)" stroke-width="1" opacity="0.48627450980392156" d="M 204.5 55 L 205 58.5 L 204 58.5 L 204.5 55 Z " /><path fill="rgb(249,242,139)" stroke="rgb(249,242,139)" stroke-width="1" opacity="0.48627450980392156" d="M 188.5 60 L 190.5 63 L 194 64.5 L 192.5 65 L 188 61.5 L 188.5 60 Z " /><path fill="rgb(249,242,139)" stroke="rgb(249,242,139)" stroke-width="1" opacity="0.48627450980392156" d="M 203.5 60 L 204 61.5 Q 202.3 64.8 197.5 65 L 197.5 64 L 203 61.5 L 203.5 60 Z " /><path fill="rgb(249,242,139)" stroke="rgb(249,242,139)" stroke-width="1" opacity="0.48627450980392156" d="M 26.5 100 L 83.5 100 L 85 101.5 L 85 154 L 26.5 154 L 25 152.5 L 25 101.5 L 26.5 100 Z M 26 101 L 26 153 L 84 153 L 84 101 L 26 101 Z " /><path fill="rgb(249,242,139)" stroke="rgb(249,242,139)" stroke-width="1" opacity="0.48627450980392156" d="M 102 100 L 152.5 100 L 154 101.5 L 154 154 L 102.5 154 L 101 152.5 L 101 102.5 L 102 100 Z M 104 101 L 102 103 L 102 153 L 153 153 L 153 103 L 152 101 L 104 101 Z " /><path fill="rgb(249,242,139)" stroke="rgb(249,242,139)" stroke-width="1" opacity="0.48627450980392156" d="M 171.5 100 L 229.5 100 L 231 101.5 L 231 152.5 L 229.5 154 L 170 154 L 170 101.5 L 171.5 100 Z M 173 101 L 171 103 L 171 153 L 230 153 L 230 101 L 173 101 Z " /><path fill="rgb(249,242,139)" stroke="rgb(249,242,139)" stroke-width="1" opacity="0.48627450980392156" d="M 55.5 119 L 59 119.5 L 55.5 120 L 55.5 119 Z " /><path fill="rgb(249,242,139)" stroke="rgb(249,242,139)" stroke-width="1" opacity="0.48627450980392156" d="M 52.5 120 L 54 120.5 L 50 123.5 L 49 130.5 L 49.5 132 Q 46.8 130.8 48 125.5 L 52.5 120 Z " /><path fill="rgb(249,242,139)" stroke="rgb(249,242,139)" stroke-width="1" opacity="0.48627450980392156" d="M 60.5 120 L 64 122.5 L 66 128.5 L 65 128.5 L 61.5 121 L 60.5 120 Z " /><path fill="rgb(249,242,139)" stroke="rgb(249,242,139)" stroke-width="1" opacity="0.48627450980392156" d="M 195.5 120 L 192 124.5 L 191.5 126 L 191 124.5 L 192 122 L 195.5 120 Z " /><path fill="rgb(249,242,139)" stroke="rgb(249,242,139)" stroke-width="1" opacity="0.48627450980392156" d="M 202.5 120 L 207 123.5 L 208 126.5 L 207 126.5 L 203.5 121 L 202.5 120 Z " /><path fill="rgb(249,242,139)" stroke="rgb(249,242,139)" stroke-width="1" opacity="0.48627450980392156" d="M 190.5 127 L 193 134 L 196 135.5 L 194.5 135 L 192 133.5 Q 189 131 190.5 127 Z " /><path fill="rgb(249,242,139)" stroke="rgb(249,242,139)" stroke-width="1" opacity="0.48627450980392156" d="M 207.5 128 L 208 130.5 L 207 130.5 L 207.5 128 Z " /><path fill="rgb(249,242,139)" stroke="rgb(249,242,139)" stroke-width="1" opacity="0.48627450980392156" d="M 64.5 130 L 65 131.5 L 61.5 136 L 60 135.5 L 63 133.5 L 64.5 130 Z " /><path fill="rgb(249,242,139)" stroke="rgb(249,242,139)" stroke-width="1" opacity="0.48627450980392156" d="M 206.5 132 L 203.5 136 L 202 135.5 L 206.5 132 Z " /><path fill="rgb(249,242,139)" stroke="rgb(249,242,139)" stroke-width="1" opacity="0.48627450980392156" d="M 50.5 133 L 54 135.5 L 52.5 136 L 50.5 133 Z " /><path fill="rgb(249,242,139)" stroke="rgb(249,242,139)" stroke-width="1" opacity="0.48627450980392156" d="M 55.5 136 L 58 136.5 L 55.5 137 L 55.5 136 Z " /><path fill="rgb(249,242,139)" stroke="rgb(249,242,139)" stroke-width="1" opacity="0.48627450980392156" d="M 197.5 136 L 201 136.5 L 197.5 137 L 197.5 136 Z " /><path fill="rgb(249,242,139)" stroke="rgb(249,242,139)" stroke-width="1" opacity="0.48627450980392156" d="M 26.5 170 L 83.5 170 L 85 171.5 L 85 229.5 L 83.5 231 L 53 230.5 L 84 230 L 84 171 L 26 171 L 25.5 203 L 25 171.5 L 26.5 170 Z " /><path fill="rgb(249,242,139)" stroke="rgb(249,242,139)" stroke-width="1" opacity="0.48627450980392156" d="M 102 170 L 152.5 170 L 154 171.5 L 154 229.5 L 152.5 231 L 102.5 231 L 101 229.5 L 101 172.5 L 102 170 Z M 104 171 L 102 173 L 102 230 L 153 230 L 153 171 L 104 171 Z " /><path fill="rgb(249,242,139)" stroke="rgb(249,242,139)" stroke-width="1" opacity="0.48627450980392156" d="M 171.5 170 L 229.5 170 L 231 171.5 L 230.5 202 L 230 171 L 171 171 L 171 230 L 203 230.5 L 171.5 231 L 170 229.5 L 170 171.5 L 171.5 170 Z " /><path fill="rgb(249,242,139)" stroke="rgb(249,242,139)" stroke-width="1" opacity="0.48627450980392156" d="M 124.5 188 L 127 188.5 L 123.5 190 L 124.5 188 Z " /><path fill="rgb(249,242,139)" stroke="rgb(249,242,139)" stroke-width="1" opacity="0.48627450980392156" d="M 130.5 188 L 136 191.5 L 135.5 193 L 134 190 Q 129.8 190 130.5 188 Z " /><path fill="rgb(249,242,139)" stroke="rgb(249,242,139)" stroke-width="1" opacity="0.48627450980392156" d="M 121.5 190 L 122 191.5 L 120 192.5 L 121.5 190 Z " /><path fill="rgb(249,242,139)" stroke="rgb(249,242,139)" stroke-width="1" opacity="0.48627450980392156" d="M 119.5 194 L 120 197.5 L 119 197.5 L 119.5 194 Z " /><path fill="rgb(249,242,139)" stroke="rgb(249,242,139)" stroke-width="1" opacity="0.48627450980392156" d="M 136.5 194 L 137 197.5 L 136 197.5 L 136.5 194 Z " /><path fill="rgb(249,242,139)" stroke="rgb(249,242,139)" stroke-width="1" opacity="0.48627450980392156" d="M 120.5 199 L 124 203.5 L 120 200.5 L 120.5 199 Z " /><path fill="rgb(249,242,139)" stroke="rgb(249,242,139)" stroke-width="1" opacity="0.48627450980392156" d="M 135.5 200 L 132.5 204 L 135.5 200 Z " /><path fill="rgb(249,242,139)" stroke="rgb(249,242,139)" stroke-width="1" opacity="0.48627450980392156" d="M 26.5 204 L 28 209.5 L 27 209.5 L 26.5 204 Z " /><path fill="rgb(249,242,139)" stroke="rgb(249,242,139)" stroke-width="1" opacity="0.48627450980392156" d="M 125.5 204 L 131 204.5 L 125.5 205 L 125.5 204 Z " /><path fill="rgb(249,242,139)" stroke="rgb(249,242,139)" stroke-width="1" opacity="0.48627450980392156" d="M 229.5 204 L 230 207.5 L 228.5 210 L 228 207.5 L 229.5 204 Z " /><path fill="rgb(249,242,139)" stroke="rgb(249,242,139)" stroke-width="1" opacity="0.48627450980392156" d="M 28.5 212 L 38.5 224 L 44 227.5 L 42.5 227 L 36 224 L 33.5 220 Q 31.3 220.8 32 218.5 L 28.5 212 Z " /><path fill="rgb(249,242,139)" stroke="rgb(249,242,139)" stroke-width="1" opacity="0.48627450980392156" d="M 227.5 212 L 226.5 214 L 227.5 212 Z " /><path fill="rgb(249,242,139)" stroke="rgb(249,242,139)" stroke-width="1" opacity="0.48627450980392156" d="M 225.5 215 L 225 216.5 L 222 222 L 212.5 228 L 213.5 226 L 224 217.5 L 225.5 215 Z " /><path fill="rgb(249,242,139)" stroke="rgb(249,242,139)" stroke-width="1" opacity="0.48627450980392156" d="M 46.5 228 L 52 229.5 L 48.5 230 L 46.5 228 Z " /><path fill="rgb(249,242,139)" stroke="rgb(249,242,139)" stroke-width="1" opacity="0.48627450980392156" d="M 208.5 228 L 210 228.5 L 205.5 230 L 205.5 229 L 208.5 228 Z " /><path fill="rgb(252,244,150)" stroke="rgb(252,244,150)" stroke-width="1" opacity="0.08627450980392157" d="M 48.5 25 L 53 25.5 L 48.5 26 L 36 32 L 29 41.5 L 26.5 48 L 26 46.5 Q 28.1 37.1 34.5 32 L 48.5 25 Z " /><path fill="rgb(252,244,150)" stroke="rgb(252,244,150)" stroke-width="1" opacity="0.08627450980392157" d="M 84.5 25 L 86 25.5 L 86 85 L 25 84.5 L 85 84 L 85 26.5 L 84.5 25 Z " /><path fill="rgb(252,244,150)" stroke="rgb(252,244,150)" stroke-width="1" opacity="0.08627450980392157" d="M 100 25 L 102 25.5 L 101 26.5 L 101 82.5 L 102.5 84 L 154 84 L 154 26.5 L 153 25.5 L 155 25 L 155 85 L 100 85 L 100 25 Z " /><path fill="rgb(252,244,150)" stroke="rgb(252,244,150)" stroke-width="1" opacity="0.08627450980392157" d="M 169.5 25 L 171 25.5 L 170 26.5 L 170 84 L 231 84.5 L 169.5 85 L 168 83.5 L 168 26.5 L 169.5 25 Z " /><path fill="rgb(252,244,150)" stroke="rgb(252,244,150)" stroke-width="1" opacity="0.08627450980392157" d="M 203.5 25 Q 217.3 26.3 224 34.5 L 230 45.5 L 231 52.5 L 230 52.5 L 230 48.5 L 224 36 L 220 33.5 Q 220.8 31.3 218.5 32 Q 213.3 26.7 203.5 26 L 203.5 25 Z " /><path fill="rgb(252,244,150)" stroke="rgb(252,244,150)" stroke-width="1" opacity="0.08627450980392157" d="M 25.5 49 L 26 53.5 L 25 53.5 L 25.5 49 Z " /><path fill="rgb(252,244,150)" stroke="rgb(252,244,150)" stroke-width="1" opacity="0.08627450980392157" d="M 193.5 49 Q 201.1 47.9 203 52.5 L 204 59.5 L 201.5 63 L 194.5 65 L 189 61.5 L 188 59.5 L 190 59 L 192.5 63 L 196.5 64 L 200 63 Q 198.9 60.3 201.5 61 Q 204.3 59.8 203 54.5 L 198.5 50 L 194.5 50 L 190 53.5 L 188.5 56 L 188 54.5 L 191.5 50 L 193.5 49 Z " /><path fill="rgb(252,244,150)" stroke="rgb(252,244,150)" stroke-width="1" opacity="0.08627450980392157" d="M 84.5 100 L 86 100.5 L 86 154.5 L 84.5 156 L 25 156 L 25.5 153 L 26.5 154 L 85 154 L 85 101.5 L 84.5 100 Z " /><path fill="rgb(252,244,150)" stroke="rgb(252,244,150)" stroke-width="1" opacity="0.08627450980392157" d="M 100 100 Q 102.7 98.9 102 101.5 L 101 102.5 L 101 152.5 L 102.5 154 L 154 154 L 154 101.5 L 153 100.5 L 155 100 L 155 153.5 L 152.5 156 L 101.5 156 L 100 154.5 L 100 100 Z " /><path fill="rgb(252,244,150)" stroke="rgb(252,244,150)" stroke-width="1" opacity="0.08627450980392157" d="M 169.5 100 L 171 100.5 L 170 101.5 L 170 154 L 229.5 154 L 230.5 153 L 231 156 L 169.5 156 L 168 154.5 L 168 101.5 L 169.5 100 Z " /><path fill="rgb(252,244,150)" stroke="rgb(252,244,150)" stroke-width="1" opacity="0.08627450980392157" d="M 54.5 120 Q 61 119 63 122.5 L 65 129.5 L 61.5 135 L 54.5 136 L 50 132.5 L 49 125.5 L 52.5 121 L 53 122.5 Q 49.4 123.9 50 129.5 L 52.5 133 L 54 133 L 54.5 135 L 60 135 L 61.5 132 Q 64.1 132.8 63 129.5 L 63 127.5 L 63 124 Q 60.3 125.1 61 122.5 Q 59.8 119.8 54.5 121 L 54.5 120 Z " /><path fill="rgb(252,244,150)" stroke="rgb(252,244,150)" stroke-width="1" opacity="0.08627450980392157" d="M 196.5 120 Q 204.1 118.9 206 123.5 L 208 127.5 L 207 131.5 L 203.5 135 L 196.5 136 L 193 134 L 191 126.5 L 196.5 120 Z M 196 121 L 196 123 L 193 124 L 192 127 L 193 130 Q 192 133 195 132 L 196 135 L 202 135 L 202 133 L 205 132 Q 208 132 206 126 Q 204 120 196 121 Z " /><path fill="rgb(252,244,150)" stroke="rgb(252,244,150)" stroke-width="1" opacity="0.08627450980392157" d="M 84.5 170 L 86 170.5 L 86 231 L 84 230.5 L 85 229.5 L 85 171.5 L 84.5 170 Z " /><path fill="rgb(252,244,150)" stroke="rgb(252,244,150)" stroke-width="1" opacity="0.08627450980392157" d="M 100 170 Q 102.7 168.9 102 171.5 L 101 172.5 L 101 229.5 L 101.5 231 L 100 230.5 L 100 170 Z " /><path fill="rgb(252,244,150)" stroke="rgb(252,244,150)" stroke-width="1" opacity="0.08627450980392157" d="M 153.5 170 L 155 170.5 L 155 231 L 153 230.5 L 154 229.5 L 154 171.5 L 153.5 170 Z " /><path fill="rgb(252,244,150)" stroke="rgb(252,244,150)" stroke-width="1" opacity="0.08627450980392157" d="M 170.5 170 L 170 171.5 L 170 229.5 L 171 230.5 L 169.5 231 L 168 229.5 L 168 172.5 L 170.5 170 Z " /><path fill="rgb(252,244,150)" stroke="rgb(252,244,150)" stroke-width="1" opacity="0.08627450980392157" d="M 127.5 188 L 134 190 L 136 193.5 L 136 199.5 Q 134.3 205.8 124.5 204 L 121.5 200 L 124 201.5 L 124.5 203 L 132 203 L 133.5 200 Q 136.3 200.6 135 194.5 Q 132.9 188.3 124 190 Q 125.1 192.7 122.5 192 Q 119.6 193.6 120.5 199 L 120 193.5 L 122 190 L 127.5 188 Z " /><path fill="rgb(252,244,150)" stroke="rgb(252,244,150)" stroke-width="1" opacity="0.08627450980392157" d="M 230.5 202 L 231 207.5 Q 228.3 217.8 221.5 224 Q 216.7 228.7 208.5 230 L 208.5 229 L 214.5 227 L 222 222 L 228 212.5 L 230.5 202 Z " /><path fill="rgb(252,244,150)" stroke="rgb(252,244,150)" stroke-width="1" opacity="0.08627450980392157" d="M 25.5 203 L 26 207.5 L 32 220 L 36 222.5 Q 35.3 224.8 37.5 224 Q 43.1 229.4 53 230.5 L 48.5 231 L 36 226 L 36 224 Q 33.3 225.1 34 222.5 L 30 220 L 25 207.5 L 25.5 203 Z " /><path fill="rgb(252,244,150)" stroke="rgb(252,244,150)" stroke-width="1" opacity="0.08627450980392157" d="M 203.5 230 L 207 230.5 L 203.5 231 L 203.5 230 Z " /><path fill="rgb(249,242,139)" stroke="rgb(249,242,139)" stroke-width="1" opacity="1" d="M 56 26 L 84 26 L 84 82 L 26 82 L 26 57 L 28 56.5 L 28 47.5 L 32 42.5 L 32 40 Q 34.7 41.1 34 38.5 L 36.5 35 L 40 34 Q 38.9 31.3 41.5 32 L 47.5 28 L 56 28 L 56 26 Z " /><path fill="rgb(249,242,139)" stroke="rgb(249,242,139)" stroke-width="1" opacity="1" d="M 104 26 L 152 26 L 152 82 L 104 82 L 104 26 Z " /><path fill="rgb(249,242,139)" stroke="rgb(249,242,139)" stroke-width="1" opacity="1" d="M 172 26 L 198.5 26 L 199.5 28 L 208.5 28 Q 216.9 31.6 222 38.5 L 224 41.5 L 228 47.5 L 228 57 L 230 57.5 L 230 82 L 172 82 L 172 26 Z M 193 47 L 191 48 L 186 56 Q 185 62 189 64 Q 191 63 190 66 L 194 67 Q 201 67 204 64 L 206 61 L 206 53 Q 203 53 204 49 Q 201 50 200 47 L 193 47 Z " /><path fill="rgb(249,242,139)" stroke="rgb(249,242,139)" stroke-width="1" opacity="1" d="M 26 102 L 84 102 L 84 152 L 26 152 L 26 102 Z M 53 119 L 49 120 Q 46 124 47 133 L 53 137 Q 61 138 64 136 L 67 130 L 65 122 Q 62 117 53 119 Z " /><path fill="rgb(249,242,139)" stroke="rgb(249,242,139)" stroke-width="1" opacity="1" d="M 104 102 L 152 102 L 152 152 L 104 152 L 104 102 Z " /><path fill="rgb(249,242,139)" stroke="rgb(249,242,139)" stroke-width="1" opacity="1" d="M 172 102 L 230 102 L 230 152 L 172 152 L 172 102 Z M 195 119 L 193 120 L 189 127 Q 188 132 191 135 L 195 137 Q 203 138 207 136 L 209 132 Q 210 123 207 120 Q 203 118 195 119 Z " /><path fill="rgb(249,242,139)" stroke="rgb(249,242,139)" stroke-width="1" opacity="1" d="M 26 172 L 84 172 L 84 230 L 57.5 230 L 56.5 228 L 47.5 228 L 47 226 L 44.5 226 Q 43.4 223.3 40 224 Q 41.1 221.3 38.5 222 L 35 219.5 L 34 216 Q 31 217.3 32 213.5 Q 29.3 212.4 30 209 L 28 209 L 28 199.5 L 26 198.5 L 26 172 Z " /><path fill="rgb(249,242,139)" stroke="rgb(249,242,139)" stroke-width="1" opacity="1" d="M 104 172 L 152 172 L 152 230 L 104 230 L 104 172 Z M 124 187 L 120 189 L 119 192 Q 118 200 120 204 Q 123 203 125 206 L 132 206 Q 133 203 136 204 L 137 201 Q 138 192 136 189 L 133 187 L 124 187 Z " /><path fill="rgb(249,242,139)" stroke="rgb(249,242,139)" stroke-width="1" opacity="1" d="M 172 172 L 230 172 L 230 200 L 228 200 L 228 209.5 L 226 210 L 226 211.5 Q 223.3 212.6 224 216 Q 221.3 214.9 222 217.5 L 219.5 221 L 216 222 Q 217.1 224.7 214.5 224 L 208.5 228 L 199 228 L 198.5 230 L 172 230 L 172 172 Z " /><path fill="rgb(0,0,0)" stroke="rgb(0,0,0)" stroke-width="1" opacity="0" d="M 0 0 L 256 0 L 256 256 L 0 256 L 0 0 Z M 49 25 L 35 32 L 28 41 L 25 50 L 25 85 L 86 85 L 86 25 L 49 25 Z M 100 25 L 100 85 L 155 85 L 155 25 L 100 25 Z M 170 25 L 168 27 L 168 84 L 170 85 L 231 85 L 231 49 L 224 35 Q 218 28 208 25 L 170 25 Z M 25 100 L 25 156 L 85 156 L 86 155 L 86 100 L 25 100 Z M 100 100 L 100 155 L 102 156 L 153 156 L 155 154 L 155 100 L 100 100 Z M 170 100 L 168 102 L 168 155 L 170 156 L 231 156 L 231 100 L 170 100 Z M 25 170 L 25 208 L 30 220 L 34 223 Q 33 225 36 224 L 36 226 L 49 231 L 86 231 L 86 170 L 25 170 Z M 100 170 L 100 231 L 155 231 L 155 170 L 100 170 Z M 171 170 L 168 173 L 168 230 L 170 231 L 207 231 Q 216 229 222 224 Q 228 218 231 208 L 231 170 L 171 170 Z " /><path fill="rgb(0,0,0)" stroke="rgb(0,0,0)" stroke-width="1" opacity="0" d="M 194.5 50 L 198.5 50 L 203 54.5 Q 204.3 59.8 201.5 61 Q 198.9 60.3 200 63 L 197.5 63 L 195.5 64 L 190 60.5 Q 190.7 57.9 188 59 L 188 56.5 L 192.5 51 L 194.5 50 Z " /><path fill="rgb(0,0,0)" stroke="rgb(0,0,0)" stroke-width="1" opacity="0" d="M 53 121 Q 59.1 119.3 61 122.5 Q 60.3 125.1 63 124 L 63 127.5 L 63 129.5 Q 64.1 132.8 61.5 132 L 60 135 L 54.5 135 L 54 133 L 52.5 133 Q 49.4 131.6 50 126.5 L 53 121 Z " /><path fill="rgb(0,0,0)" stroke="rgb(0,0,0)" stroke-width="1" opacity="0" d="M 196 121 Q 204.1 119.5 206 125.5 Q 207.5 132.5 204.5 132 L 202 133 L 202 135 L 196 135 L 194.5 132 Q 191.9 132.8 193 129.5 L 192 126.5 L 193 124 L 196 122.5 L 196 121 Z " /><path fill="rgb(0,0,0)" stroke="rgb(0,0,0)" stroke-width="1" opacity="0" d="M 124 190 Q 132.9 188.3 135 194.5 Q 136.3 200.6 133.5 200 L 132 203 L 124.5 203 L 124 201.5 L 121 200 Q 119.3 193.9 122.5 192 Q 125.1 192.7 124 190 Z " /></svg>