<svg width="256" height="256" version="1.1" xmlns="http://www.w3.org/2000/svg" desc="Created with imagetracer.js version 1.2.6" ><path fill="rgb(0,0,0)" stroke="rgb(0,0,0)" stroke-width="1" opacity="0" d="M 0 0 L 256 0 L 256 256 L 0 256 L 0 0 Z M 101 25 Q 91 27 86 32 L 80 39 L 76 48 L 76 73 L 121 73 L 123 74 L 126 79 L 126 81 L 48 81 L 34 89 L 31 93 Q 32 95 29 94 L 25 106 L 25 156 Q 27 165 32 171 L 39 176 L 47 180 L 68 180 L 68 148 L 72 138 L 76 132 L 85 126 Q 89 127 91 124 L 152 124 L 164 121 L 170 116 L 172 116 L 173 114 Q 172 111 175 112 Q 176 106 180 102 L 180 48 L 176 39 L 172 34 L 166 28 L 156 25 L 101 25 Z M 188 76 L 188 110 L 180 124 L 175 128 L 165 132 L 105 132 L 92 136 Q 88 135 89 138 L 84 140 L 83 144 L 80 146 Q 81 150 78 149 L 76 155 L 76 210 L 80 216 L 80 219 L 83 220 L 84 223 L 91 228 L 101 231 L 156 231 L 166 228 L 167 225 L 171 224 L 172 222 L 175 220 L 180 209 L 180 183 L 136 183 L 132 182 L 130 175 L 208 175 L 222 168 L 225 164 Q 224 161 227 162 L 231 151 L 231 101 L 228 91 L 225 89 L 222 83 Q 219 84 220 81 L 209 76 L 188 76 Z " /><path fill="rgb(0,0,0)" stroke="rgb(0,0,0)" stroke-width="1" opacity="0" d="M 94.5 44 L 104 44 L 104 47.5 L 105 50.5 L 104 56 L 97.5 57 L 94 56 L 92 48.5 L 94.5 44 Z " /><path fill="rgb(0,0,0)" stroke="rgb(0,0,0)" stroke-width="1" opacity="0" d="M 155.5 199 Q 160.6 198.4 162 201.5 L 164 206.5 L 159.5 212 L 152 212 L 152 208.5 L 151 205.5 L 152 200 L 155.5 199 Z " /><path fill="rgb(60,119,170)" stroke="rgb(60,119,170)" stroke-width="1" opacity="0.5215686274509804" d="M 100.5 25 L 155.5 25 L 165.5 28 L 172 33.5 L 176 38.5 L 180 47.5 L 180 101.5 Q 175.6 105.5 175 112 Q 172.3 110.9 173 113.5 L 172 116 L 169.5 116 L 163.5 121 L 151.5 124 L 90.5 124 Q 89.1 126.6 84.5 126 L 76 132 L 72 137.5 L 68 147.5 L 68 180 L 46.5 180 L 38.5 176 L 32 170.5 Q 26.7 164.8 25 155.5 L 25 105.5 L 29 94 Q 31.7 95.1 31 92.5 L 33.5 89 L 47.5 81 L 126 81 L 126 78.5 L 122.5 74 L 120.5 73 L 76 73 L 76 47.5 L 80 38.5 L 85.5 32 Q 91.4 26.9 100.5 25 Z M 106 26 L 96 28 L 90 32 L 87 34 Q 81 39 78 48 L 78 72 L 123 72 L 126 74 L 128 82 L 55 82 L 45 84 L 37 89 L 28 101 L 26 111 L 26 151 L 28 161 L 32 167 L 34 170 Q 39 175 48 178 L 67 178 L 67 147 L 68 142 L 72 135 L 85 124 L 93 122 L 156 122 L 167 117 Q 175 111 178 101 L 178 49 Q 176 39 170 34 Q 167 35 168 32 L 161 28 L 151 26 L 106 26 Z " /><path fill="rgb(60,119,170)" stroke="rgb(60,119,170)" stroke-width="1" opacity="0.5215686274509804" d="M 95.5 42 Q 104.3 40.3 106 45.5 L 106 54.5 L 104 58 L 96.5 59 L 92 55.5 L 91 47.5 L 92 44 L 95.5 42 Z M 95 44 L 92 49 L 94 56 L 98 57 L 104 56 L 105 51 L 104 48 L 104 44 L 95 44 Z " /><path fill="rgb(60,120,170)" stroke="rgb(60,120,170)" stroke-width="1" opacity="0.996078431372549" d="M 105.5 26 L 150.5 26 L 160.5 28 L 168 32 Q 166.9 34.7 169.5 34 Q 175.9 39.1 178 48.5 L 178 100.5 Q 174.9 111.4 166.5 117 L 155.5 122 L 92.5 122 L 84.5 124 L 72 134.5 L 68 141.5 L 67 146.5 L 67 178 L 47.5 178 Q 39 175.5 34 169.5 L 32 166.5 L 28 160.5 L 26 150.5 L 26 110.5 L 28 100.5 L 36.5 89 L 44.5 84 L 54.5 82 L 128 82 L 126 74 L 122.5 72 L 78 72 L 78 47.5 Q 80.5 39 86.5 34 L 89.5 32 L 95.5 28 L 105.5 26 Z M 96 42 L 92 44 L 91 48 L 92 56 L 97 59 L 104 58 L 106 55 L 106 46 Q 104 40 96 42 Z " /><path fill="rgb(253,216,52)" stroke="rgb(253,216,52)" stroke-width="1" opacity="0.4823529411764706" d="M 188 76 L 208.5 76 L 220 81 Q 218.9 83.7 221.5 83 L 225 89 L 228 90.5 L 231 100.5 L 231 150.5 L 226.5 162 Q 224.3 161.3 225 163.5 L 221.5 168 L 207.5 175 L 130 175 L 132 182 L 135.5 183 L 180 183 L 180 208.5 L 175 220 L 172 221.5 L 170.5 224 L 167 225 L 165.5 228 L 155.5 231 L 100.5 231 L 90.5 228 L 84 222.5 L 82.5 220 L 80 218.5 L 80 215.5 L 76 209.5 L 76 154.5 L 78 149 Q 81.3 150.3 80 145.5 L 83 144 L 84 140 L 89 137.5 Q 88.2 134.9 91.5 136 L 104.5 132 L 164.5 132 L 174.5 128 L 180 124 L 188 109.5 L 188 76 Z M 191 77 L 189 79 L 189 110 L 184 122 Q 177 131 164 134 L 101 134 L 89 140 L 82 147 L 78 156 Q 80 161 77 163 L 77 200 L 78 201 L 78 209 Q 81 217 87 222 Q 89 221 88 224 L 96 228 Q 102 227 105 230 L 152 230 L 161 228 L 167 224 L 170 222 Q 175 217 178 209 L 179 186 L 178 184 L 134 184 Q 128 181 128 174 L 202 174 L 212 172 L 219 168 L 226 160 L 230 147 L 230 105 L 228 96 L 224 90 L 222 87 Q 217 80 208 78 L 191 77 Z " /><path fill="rgb(253,216,52)" stroke="rgb(253,216,52)" stroke-width="1" opacity="0.4823529411764706" d="M 155.5 197 L 162 198 Q 161 201 164 200 L 164 204.5 L 165 207.5 L 162.5 212 Q 160.5 215 154.5 214 L 150 210.5 Q 148.3 200.8 153.5 198 L 155.5 197 Z M 156 199 L 152 200 L 151 206 L 152 209 L 152 212 L 160 212 L 164 207 L 162 202 Q 161 198 156 199 Z " /><path fill="rgb(253,216,53)" stroke="rgb(253,216,53)" stroke-width="1" opacity="0.996078431372549" d="M 190.5 77 L 207.5 78 Q 216.9 80.1 222 86.5 L 224 89.5 L 228 95.5 L 230 104.5 L 230 146.5 L 226 159.5 L 218.5 168 L 211.5 172 L 201.5 174 L 128 174 Q 127.9 181.3 133.5 184 L 177.5 184 L 179 185.5 L 178 208.5 Q 175.5 217 169.5 222 L 166.5 224 L 160.5 228 L 151.5 230 L 104.5 230 Q 101.6 227.4 95.5 228 L 88 224 Q 89.1 221.3 86.5 222 Q 80.5 217 78 208.5 L 78 200.5 L 77 199.5 L 77 162.5 Q 79.5 161 78 155.5 L 82 146.5 L 88.5 140 L 100.5 134 L 163.5 134 Q 177.1 131.1 184 121.5 L 189 109.5 L 189 78.5 L 190.5 77 Z M 156 197 L 154 198 Q 148 201 150 211 L 155 214 Q 161 215 163 212 L 165 208 L 164 205 L 164 200 Q 161 201 162 198 L 156 197 Z " /></svg>