<svg width="256" height="256" version="1.1" xmlns="http://www.w3.org/2000/svg" desc="Created with imagetracer.js version 1.2.6" ><path fill="rgb(0,0,0)" stroke="rgb(0,0,0)" stroke-width="1" opacity="0" d="M 0 0 L 256 0 L 256 256 L 0 256 L 0 0 Z M 54 36 L 47 40 Q 43 39 44 42 L 40 44 L 36 54 L 36 80 L 41 83 L 49 83 L 53 79 L 53 68 L 56 59 L 63 54 L 68 53 L 104 53 L 104 54 L 104 203 L 69 203 L 62 201 L 56 197 L 53 188 L 53 177 L 51 176 L 49 172 Q 40 170 38 175 Q 39 177 36 176 L 36 203 L 40 211 Q 45 217 54 220 L 121 220 L 121 36 L 54 36 Z M 135 36 L 135 220 L 203 220 L 212 215 Q 218 211 220 203 L 220 177 L 218 176 L 216 172 Q 207 170 205 175 Q 206 177 203 176 L 203 188 L 201 196 L 199 197 L 196 201 L 189 203 L 153 203 L 152 203 L 152 53 L 189 53 L 196 55 L 202 63 L 203 79 L 208 83 L 216 83 L 220 80 L 220 53 L 216 46 Q 217 43 215 44 L 212 40 L 204 36 L 135 36 Z M 52 97 L 52 99 L 48 100 L 48 108 L 50 108 L 50 111 L 53 115 L 56 116 L 57 119 L 57 120 L 11 120 L 11 136 L 56 136 L 56 140 L 55 140 L 48 149 L 48 155 L 53 158 Q 60 160 63 156 Q 65 157 64 154 L 69 151 Q 71 152 70 149 L 75 146 Q 77 147 76 144 L 82 141 L 84 138 L 88 136 L 91 131 L 90 123 Q 90 119 86 120 L 84 116 L 81 115 L 79 112 L 75 110 L 72 106 L 69 105 L 62 99 L 60 99 L 60 97 L 52 97 Z M 188 97 L 177 106 Q 174 105 175 108 L 169 112 L 167 115 L 162 118 Q 163 120 161 119 L 156 125 Q 155 132 159 135 Q 158 137 162 136 L 163 139 L 170 144 Q 172 143 171 146 L 176 149 Q 178 148 177 151 L 182 154 Q 184 153 183 156 L 187 158 Q 196 160 199 155 L 199 149 L 195 143 L 191 140 L 192 136 L 236 136 L 236 120 L 191 120 L 191 119 Q 190 115 193 116 L 197 111 L 197 108 L 199 108 L 199 102 L 194 97 L 188 97 Z " /><path fill="rgb(232,145,50)" stroke="rgb(232,145,50)" stroke-width="1" opacity="0.3843137254901961" d="M 53.5 36 L 121 36 L 121 220 L 53.5 220 Q 44.8 217.2 40 210.5 L 36 202.5 L 36 176 Q 38.7 177.1 38 174.5 Q 40 170 48.5 172 L 51 176 L 53 176.5 L 53 187.5 L 56 197 L 61.5 201 L 68.5 203 L 104 203 L 104 53.5 L 103.5 53 L 67.5 53 L 62.5 54 L 56 58.5 L 53 67.5 L 53 78.5 L 48.5 83 L 40.5 83 L 36 80 L 36 53.5 L 40 44 L 44 41.5 Q 43.2 38.9 46.5 40 L 53.5 36 Z M 57 37 L 46 42 Q 39 47 37 58 L 37 76 L 39 80 L 43 82 Q 48 83 50 80 L 52 77 L 52 64 L 56 57 L 63 52 L 106 52 L 106 203 L 105 204 L 64 204 L 56 200 L 52 193 L 52 179 Q 51 173 42 174 L 37 181 Q 35 202 43 212 L 49 216 L 57 219 L 120 219 L 120 37 L 57 37 Z " /><path fill="rgb(232,145,50)" stroke="rgb(232,145,50)" stroke-width="1" opacity="0.3843137254901961" d="M 135 36 L 203.5 36 L 212 40 L 214.5 44 Q 216.8 43.3 216 45.5 L 220 52.5 L 220 80 L 215.5 83 L 207.5 83 L 203 78.5 L 202 62.5 L 195.5 55 L 188.5 53 L 152 53 L 152 202.5 L 152.5 203 L 188.5 203 L 196 201 L 198.5 197 L 201 195.5 L 203 187.5 L 203 176 Q 205.7 177.1 205 174.5 Q 207 170 215.5 172 L 218 176 L 220 176.5 L 220 202.5 Q 217.6 210.6 211.5 215 L 202.5 220 L 135 220 L 135 36 Z M 136 37 L 136 219 L 200 219 L 208 216 L 216 208 L 219 198 L 219 181 L 218 178 Q 217 172 209 174 L 204 180 L 204 193 L 200 200 L 193 204 L 152 204 L 150 203 L 150 52 L 194 52 L 200 57 Q 199 59 202 58 L 204 63 L 204 77 L 205 79 L 210 82 L 216 81 L 219 76 Q 222 55 214 46 Q 209 39 200 37 L 136 37 Z " /><path fill="rgb(232,145,50)" stroke="rgb(232,145,50)" stroke-width="1" opacity="0.3843137254901961" d="M 52 97 L 59.5 97 L 60 99 L 61.5 99 L 68.5 105 L 72 106 L 74.5 110 L 79 112 L 80.5 115 L 84 116 L 85.5 120 Q 89.5 119.5 90 122.5 L 91 130.5 L 88 136 L 84 137.5 L 81.5 141 L 76 144 Q 77.1 146.7 74.5 146 L 70 149 Q 71.1 151.7 68.5 151 L 64 154 Q 65.1 156.7 62.5 156 Q 60.5 160 52.5 158 L 48 154.5 L 48 148.5 L 54.5 140 L 56 140 L 56 136 L 11 135.5 L 58.5 135 L 60 136.5 L 56 140.5 L 50 148.5 L 50 153.5 Q 51.9 157.1 57.5 157 L 66 152 Q 64.9 149.3 67.5 150 L 88 132.5 L 90 126.5 L 82.5 118 L 76 114 Q 77.1 111.3 74.5 112 L 64 104 Q 65.1 101.3 62.5 102 Q 60.9 98.1 54.5 99 L 50 102.5 L 50 107.5 L 56 116 Q 58.7 114.9 58 117.5 L 59.5 120 Q 56.2 121.1 57 118.5 L 56 116 L 53 114.5 L 50 110.5 L 50 108 L 48 107.5 L 48 100 L 52 99 L 52 97 Z " /><path fill="rgb(232,145,50)" stroke="rgb(232,145,50)" stroke-width="1" opacity="0.3843137254901961" d="M 187.5 97 L 193.5 97 L 199 101.5 L 199 107.5 L 197 108 L 197 110.5 L 192.5 116 Q 189.9 115.2 191 118.5 L 187.5 120 L 189 117.5 L 191 114.5 Q 196.8 111.3 197 102.5 Q 195.4 98.1 188.5 99 L 183 102 Q 184.1 104.7 181.5 104 L 171 112 Q 172.1 114.7 169.5 114 L 158 124.5 L 157 128.5 L 162.5 136 L 181 150 Q 179.9 152.7 182.5 152 Q 185.3 156.3 191.5 157 L 197 153.5 Q 197.7 147.8 195 145.5 L 187 135 L 236 135.5 L 191 136 L 191 140 L 192.5 140 L 199 148.5 L 199 154.5 Q 196.3 159.8 186.5 158 L 183 156 Q 184.1 153.3 181.5 154 L 177 151 Q 178.1 148.3 175.5 149 L 171 146 Q 172.1 143.3 169.5 144 L 163 138.5 L 161.5 136 Q 158.2 137.1 159 134.5 Q 154.7 132.3 156 124.5 L 160.5 119 Q 162.8 119.8 162 117.5 L 167 115 L 168.5 112 L 175 108 Q 173.9 105.3 176.5 106 L 187.5 97 Z " /><path fill="rgb(232,143,52)" stroke="rgb(232,143,52)" stroke-width="1" opacity="0.996078431372549" d="M 56.5 37 L 120 37 L 120 219 L 56.5 219 L 48.5 216 L 43 212 Q 34.6 202.1 37 180.5 L 41.5 174 Q 50.5 172.5 52 178.5 L 52 192.5 L 56 200 L 63.5 204 L 104.5 204 L 106 202.5 L 106 52 L 62.5 52 L 56 56.5 L 52 63.5 L 52 76.5 L 49.5 80 Q 47.8 82.8 42.5 82 L 39 79.5 L 37 75.5 L 37 57.5 Q 38.8 47.3 45.5 42 L 56.5 37 Z " /><path fill="rgb(232,143,52)" stroke="rgb(232,143,52)" stroke-width="1" opacity="0.996078431372549" d="M 136 37 L 199.5 37 Q 208.9 39.1 214 45.5 Q 221.6 55.4 219 75.5 L 215.5 81 L 209.5 82 L 205 78.5 L 204 76.5 L 204 62.5 L 202 58 Q 199.3 59.1 200 56.5 L 193.5 52 L 150 52 L 150 202.5 L 151.5 204 L 192.5 204 L 200 200 L 204 192.5 L 204 179.5 L 208.5 174 Q 216.5 172.5 218 177.5 L 219 180.5 L 219 197.5 L 216 207.5 L 207.5 216 L 199.5 219 L 136 219 L 136 37 Z " /><path fill="rgb(232,143,52)" stroke="rgb(232,143,52)" stroke-width="1" opacity="0.996078431372549" d="M 54.5 99 L 58.5 99 L 64 102 Q 62.9 104.7 65.5 104 L 76 112 Q 74.9 114.7 77.5 114 L 89 124.5 L 90 128.5 L 84.5 136 L 66 150 Q 67.1 152.7 64.5 152 Q 61.8 156.3 55.5 157 L 50 153.5 L 50 148.5 L 60 136.5 L 58.5 135 L 11 135 L 11 120.5 L 11.5 120 L 59.5 120 L 58 117.5 L 56 114.5 L 50 107.5 L 50 102.5 L 54.5 99 Z " /><path fill="rgb(232,143,52)" stroke="rgb(232,143,52)" stroke-width="1" opacity="0.996078431372549" d="M 188.5 99 Q 195.4 98.1 197 102.5 L 197 106.5 L 191 116 Q 188.3 114.9 189 117.5 L 187.5 120 L 235.5 120 L 236 120.5 L 236 135 L 187.5 135 L 187 136.5 L 195 145.5 Q 197.7 147.8 197 153.5 Q 195.3 156.8 190.5 157 L 181 152 Q 182.1 149.3 179.5 150 L 159 132.5 L 157 127.5 Q 158.6 120.6 164.5 118 L 171 114 Q 169.9 111.3 172.5 112 L 183 104 Q 181.9 101.3 184.5 102 L 188.5 99 Z " /></svg>