<svg width="256" height="256" version="1.1" xmlns="http://www.w3.org/2000/svg" desc="Created with imagetracer.js version 1.2.6" ><path fill="rgb(0,0,0)" stroke="rgb(0,0,0)" stroke-width="1" opacity="0" d="M 0 0 L 256 0 L 256 256 L 0 256 L 0 0 Z M 54 36 L 47 40 Q 43 39 44 42 L 40 44 L 36 54 L 36 80 L 41 83 L 49 83 L 53 79 L 53 68 L 56 59 L 63 54 L 68 53 L 104 53 L 104 54 L 104 203 L 69 203 L 62 201 L 56 197 L 53 188 L 53 177 L 51 176 L 49 172 Q 40 170 38 175 Q 39 177 36 176 L 36 203 L 40 211 Q 45 217 54 220 L 121 220 L 121 36 L 54 36 Z M 135 36 L 135 220 L 203 220 L 212 215 Q 218 211 220 203 L 220 177 L 218 176 L 216 172 Q 207 170 205 175 Q 206 177 203 176 L 203 188 L 201 196 L 199 197 L 196 201 L 189 203 L 153 203 L 152 203 L 152 53 L 189 53 L 196 55 L 202 63 L 203 79 L 208 83 L 216 83 L 220 80 L 220 53 L 216 46 Q 217 43 215 44 L 212 40 L 204 36 L 135 36 Z M 11 94 L 11 110 L 27 110 L 27 94 L 11 94 Z M 220 94 L 220 110 L 236 110 L 236 94 L 220 94 Z M 52 97 L 52 99 L 48 100 L 48 108 L 50 108 L 50 111 L 53 115 L 56 116 L 57 119 L 57 120 L 11 120 L 11 136 L 56 136 L 56 140 L 55 140 L 48 149 L 48 155 L 53 158 Q 60 160 63 156 Q 65 157 64 154 L 69 151 Q 71 152 70 149 L 75 146 Q 77 147 76 144 L 82 141 L 84 138 L 88 136 L 91 131 L 90 123 Q 90 119 86 120 L 84 116 L 81 115 L 79 112 L 75 110 L 72 106 L 69 105 L 62 99 L 60 99 L 60 97 L 52 97 Z M 188 97 L 177 106 Q 174 105 175 108 L 169 112 L 167 115 L 162 118 Q 163 120 161 119 L 156 125 Q 155 132 159 135 Q 158 137 162 136 L 163 139 L 170 144 Q 172 143 171 146 L 176 149 Q 178 148 177 151 L 182 154 Q 184 153 183 156 L 187 158 Q 196 160 199 155 L 199 149 L 195 143 L 191 140 L 192 136 L 236 136 L 236 120 L 191 120 L 191 119 Q 190 115 193 116 L 197 111 L 197 108 L 199 108 L 199 102 L 194 97 L 188 97 Z M 11 146 L 11 162 L 27 162 L 27 146 L 11 146 Z M 220 146 L 220 162 L 236 162 L 236 146 L 220 146 Z " /><path fill="rgb(233,149,55)" stroke="rgb(233,149,55)" stroke-width="1" opacity="0.22745098039215686" d="M 53.5 36 L 121 36 L 121 220 L 53.5 220 Q 44.8 217.2 40 210.5 L 36 202.5 L 36 176 Q 38.7 177.1 38 174.5 Q 40 170 48.5 172 L 51 176 L 53 176.5 L 53 187.5 L 56 197 L 61.5 201 L 68.5 203 L 104 203 L 104 53.5 L 103.5 53 L 67.5 53 L 62.5 54 L 56 58.5 L 53 67.5 L 53 78.5 L 48.5 83 L 40.5 83 L 36 80 L 36 53.5 L 40 44 L 44 41.5 Q 43.2 38.9 46.5 40 L 53.5 36 Z M 56 37 L 47 41 Q 39 46 37 57 L 37 77 L 38 79 Q 40 83 48 82 L 52 77 L 52 65 L 56 56 L 64 52 L 105 52 L 105 53 L 105 204 L 65 204 L 60 202 Q 54 199 52 192 L 52 179 L 51 176 L 48 174 L 42 174 L 37 180 L 37 200 L 43 212 Q 48 217 57 219 L 120 219 L 120 37 L 56 37 Z " /><path fill="rgb(233,149,55)" stroke="rgb(233,149,55)" stroke-width="1" opacity="0.22745098039215686" d="M 135 36 L 203.5 36 L 212 40 L 214.5 44 Q 216.8 43.3 216 45.5 L 220 52.5 L 220 80 L 215.5 83 L 207.5 83 L 203 78.5 L 202 62.5 L 195.5 55 L 188.5 53 L 152 53 L 152 202.5 L 152.5 203 L 188.5 203 L 196 201 L 198.5 197 L 201 195.5 L 203 187.5 L 203 176 Q 205.7 177.1 205 174.5 Q 207 170 215.5 172 L 218 176 L 220 176.5 L 220 202.5 Q 217.6 210.6 211.5 215 L 202.5 220 L 135 220 L 135 36 Z M 136 37 L 136 219 L 201 219 L 211 214 Q 217 209 219 200 L 219 180 L 215 174 L 209 174 L 205 176 L 204 179 L 204 192 L 200 200 L 192 204 L 152 204 L 151 204 L 151 52 L 193 52 L 200 56 L 204 64 L 204 78 L 209 82 L 216 81 L 219 76 L 219 57 L 215 47 Q 210 39 201 37 L 136 37 Z " /><path fill="rgb(233,149,55)" stroke="rgb(233,149,55)" stroke-width="1" opacity="0.22745098039215686" d="M 52 97 L 59.5 97 L 60 99 L 61.5 99 L 68.5 105 L 72 106 L 74.5 110 L 79 112 L 80.5 115 L 84 116 L 85.5 120 Q 89.5 119.5 90 122.5 L 91 130.5 L 88 136 L 84 137.5 L 81.5 141 L 76 144 Q 77.1 146.7 74.5 146 L 70 149 Q 71.1 151.7 68.5 151 L 64 154 Q 65.1 156.7 62.5 156 Q 60.5 160 52.5 158 L 48 154.5 L 48 148.5 L 54.5 140 L 56 140 L 56 136 L 12 135.5 L 59 135 L 59 137.5 L 56 142 Q 53.3 140.9 54 143.5 L 50 148.5 L 50 153.5 Q 51.3 157.7 57.5 157 Q 75 146 89 131.5 L 90 126.5 L 88 122 L 64 104 Q 65.1 101.3 62.5 102 Q 60.6 97.9 53.5 99 L 51 100 Q 49.4 102.1 50 107.5 L 60 119.5 L 57 120 L 56 116 L 53 114.5 L 50 110.5 L 50 108 L 48 107.5 L 48 100 L 52 99 L 52 97 Z " /><path fill="rgb(233,149,55)" stroke="rgb(233,149,55)" stroke-width="1" opacity="0.22745098039215686" d="M 187.5 97 L 193.5 97 L 199 101.5 L 199 107.5 L 197 108 L 197 110.5 L 192.5 116 Q 189.9 115.2 191 118.5 L 187.5 120 L 191 115.5 L 197 107.5 L 197 101.5 Q 194.8 97.8 187.5 99 L 183 102 Q 184.1 104.7 181.5 104 L 166.5 117 L 161 120 L 161 122 Q 158.3 120.9 159 123.5 Q 156.4 124.9 157 129.5 L 163.5 137 L 171 142 Q 169.9 144.7 172.5 144 L 183 152 Q 181.9 154.7 184.5 154 Q 186.5 157.5 192.5 157 L 197 153.5 L 197 148.5 L 193 142 Q 190.3 143.1 191 140.5 L 188 135 L 235 135.5 L 191 136 L 191 140 L 192.5 140 L 199 148.5 L 199 154.5 Q 196.3 159.8 186.5 158 L 183 156 Q 184.1 153.3 181.5 154 L 177 151 Q 178.1 148.3 175.5 149 L 171 146 Q 172.1 143.3 169.5 144 L 163 138.5 L 161.5 136 Q 158.2 137.1 159 134.5 Q 154.7 132.3 156 124.5 L 160.5 119 Q 162.8 119.8 162 117.5 L 167 115 L 168.5 112 L 175 108 Q 173.9 105.3 176.5 106 L 187.5 97 Z " /><path fill="rgb(255,255,255)" stroke="rgb(255,255,255)" stroke-width="1" opacity="0.9803921568627451" d="M 11 94 L 27 94 L 27 110 L 11 110 L 11 94 Z " /><path fill="rgb(255,255,255)" stroke="rgb(255,255,255)" stroke-width="1" opacity="0.9803921568627451" d="M 220 94 L 236 94 L 236 110 L 220 110 L 220 94 Z " /><path fill="rgb(255,255,255)" stroke="rgb(255,255,255)" stroke-width="1" opacity="0.9803921568627451" d="M 11 146 L 27 146 L 27 162 L 11 162 L 11 146 Z " /><path fill="rgb(255,255,255)" stroke="rgb(255,255,255)" stroke-width="1" opacity="0.9803921568627451" d="M 220 146 L 236 146 L 236 162 L 220 162 L 220 146 Z " /><path fill="rgb(231,143,52)" stroke="rgb(231,143,52)" stroke-width="1" opacity="0.9803921568627451" d="M 55.5 37 L 60 37.5 L 50.5 40 L 44 44 L 40.5 49 L 41 47.5 L 46.5 41 L 55.5 37 Z " /><path fill="rgb(231,143,52)" stroke="rgb(231,143,52)" stroke-width="1" opacity="0.9803921568627451" d="M 196.5 37 Q 209.5 38 215 46.5 L 219 56.5 L 219 75.5 L 215.5 81 L 208.5 82 L 204 77.5 L 204 74.5 L 205 74.5 L 208.5 80 L 211.5 81 L 216 80 Q 219.9 73.3 218 59.5 L 216 50.5 L 212 44 L 205.5 40 L 196.5 38 L 196.5 37 Z " /><path fill="rgb(231,143,52)" stroke="rgb(231,143,52)" stroke-width="1" opacity="0.9803921568627451" d="M 39.5 50 L 40 52.5 Q 36.3 60.8 38 74.5 L 40 80 L 44.5 81 L 50 77.5 L 51.5 74 L 52 76.5 L 47.5 82 Q 39.9 83.1 38 78.5 L 37 76.5 L 37 56.5 L 39.5 50 Z " /><path fill="rgb(231,143,52)" stroke="rgb(231,143,52)" stroke-width="1" opacity="0.9803921568627451" d="M 62.5 51 L 105.5 51 L 106 51.5 L 106 203.5 L 105 203.5 L 105 52.5 L 104.5 52 L 63.5 52 L 56 56 L 52.5 64 L 52 60.5 L 54 56 L 56 56 Q 54.9 53.3 57.5 54 L 62.5 51 Z " /><path fill="rgb(231,143,52)" stroke="rgb(231,143,52)" stroke-width="1" opacity="0.9803921568627451" d="M 150 51 L 193.5 51 L 200 54 L 200 56 Q 202.7 54.9 202 57.5 L 204 62.5 L 203 62.5 L 200 56 L 192.5 52 L 151 52 L 150.5 204 L 150 51 Z " /><path fill="rgb(231,143,52)" stroke="rgb(231,143,52)" stroke-width="1" opacity="0.9803921568627451" d="M 53.5 99 L 59 99.5 Q 53.6 98.6 52 101.5 L 51 105.5 L 52 108.5 L 60 117.5 L 61 121 L 11 120.5 L 60 119.5 L 50 107.5 L 50 102.5 L 51 100 L 53.5 99 Z " /><path fill="rgb(231,143,52)" stroke="rgb(231,143,52)" stroke-width="1" opacity="0.9803921568627451" d="M 187.5 99 Q 194.8 97.8 197 101.5 L 197 107.5 L 187 119.5 L 236 120.5 L 186 121 L 187 117.5 L 194 109.5 L 196 103.5 L 193.5 100 L 187.5 100 L 187 102 L 185.5 102 L 178.5 108 L 181.5 104 L 184.5 102 L 187.5 99 Z " /><path fill="rgb(231,143,52)" stroke="rgb(231,143,52)" stroke-width="1" opacity="0.9803921568627451" d="M 60.5 100 L 64 102 Q 62.9 104.7 65.5 104 L 68.5 108 L 60 101.5 L 60.5 100 Z " /><path fill="rgb(231,143,52)" stroke="rgb(231,143,52)" stroke-width="1" opacity="0.9803921568627451" d="M 70.5 108 L 88 122 L 90 129.5 L 83.5 137 L 59.5 156 L 62.5 152 L 88 130.5 Q 89.5 123.5 85.5 122 L 76 114.5 Q 76.8 112.3 74.5 113 L 70 109.5 L 70.5 108 Z " /><path fill="rgb(231,143,52)" stroke="rgb(231,143,52)" stroke-width="1" opacity="0.9803921568627451" d="M 176.5 108 L 177 109.5 L 171 113 L 169.5 116 L 159 124.5 L 159 132 L 161 132 Q 159.9 134.7 162.5 134 L 167 137.5 Q 166.3 139.8 168.5 139 L 171 140 L 172.5 143 L 187 154.5 L 186.5 156 L 183 154 Q 184.1 151.3 181.5 152 L 171 144 Q 172.1 141.3 169.5 142 L 158 131.5 L 157 126.5 L 159 122 L 161 122 Q 159.9 119.3 162.5 120 L 176.5 108 Z " /><path fill="rgb(231,143,52)" stroke="rgb(231,143,52)" stroke-width="1" opacity="0.9803921568627451" d="M 59 135 Q 61.7 133.9 61 136.5 L 56 144 Q 53.3 142.9 54 145.5 L 51 151.5 L 53 155.5 L 50 153.5 L 50 148.5 L 54 142 Q 56.7 143.1 56 140.5 Q 59.8 139.2 59 135 Z " /><path fill="rgb(231,143,52)" stroke="rgb(231,143,52)" stroke-width="1" opacity="0.9803921568627451" d="M 186 135 Q 188.7 133.9 188 136.5 L 191 142 Q 193.7 140.9 193 143.5 L 197 148.5 L 197 153.5 Q 195.7 157.7 189.5 157 L 189.5 156 L 195 155 L 196 150.5 L 186 135 Z " /><path fill="rgb(231,143,52)" stroke="rgb(231,143,52)" stroke-width="1" opacity="0.9803921568627451" d="M 54.5 156 L 58 156.5 L 54.5 157 L 54.5 156 Z " /><path fill="rgb(231,143,52)" stroke="rgb(231,143,52)" stroke-width="1" opacity="0.9803921568627451" d="M 41.5 174 L 47.5 174 L 51 176 L 52 180 Q 49.3 181.1 50 178.5 L 47.5 175 Q 41.5 173.5 40 176.5 L 38 180.5 L 38 195.5 L 41 208 L 44 209.5 Q 42.9 212.8 45.5 212 Q 50.3 217.5 60 217 Q 61.3 220.3 56.5 219 Q 47.9 217.1 43 211.5 L 37 199.5 L 37 179.5 L 41.5 174 Z " /><path fill="rgb(231,143,52)" stroke="rgb(231,143,52)" stroke-width="1" opacity="0.9803921568627451" d="M 208.5 174 Q 216.5 172.5 218 177.5 L 219 179.5 L 219 199.5 Q 216.9 208.9 210.5 214 L 200.5 219 L 196.5 219 L 197.5 217 L 205.5 216 L 212 212 L 213.5 208 Q 215.8 208.8 215 206.5 L 218 195.5 L 218 180.5 L 214.5 175 Q 208.5 173.5 207 176.5 L 206 180 Q 203.3 181.1 204 178.5 L 205 176 L 208.5 174 Z " /><path fill="rgb(231,143,52)" stroke="rgb(231,143,52)" stroke-width="1" opacity="0.9803921568627451" d="M 52.5 192 Q 53.9 199.1 59.5 202 L 64 203.5 L 60.5 204 L 53 197.5 L 52.5 192 Z " /><path fill="rgb(231,143,52)" stroke="rgb(231,143,52)" stroke-width="1" opacity="0.9803921568627451" d="M 203.5 192 L 204 195.5 L 200.5 200 L 200 198.5 L 203.5 192 Z " /><path fill="rgb(231,143,52)" stroke="rgb(231,143,52)" stroke-width="1" opacity="0.9803921568627451" d="M 198.5 200 L 199 201.5 Q 197.6 204.6 192.5 204 L 192.5 203 L 198.5 200 Z " /><path fill="rgb(232,143,52)" stroke="rgb(232,143,52)" stroke-width="1" opacity="1" d="M 60.5 37 L 119.5 37 L 120 37.5 L 120 219 L 60.5 219 Q 61.5 215.5 54.5 217 L 44 212 L 42.5 208 Q 40.3 208.8 41 206.5 L 38 195.5 L 38 180.5 L 41.5 175 Q 47.5 173.5 49 176.5 L 50 180 L 52 180.5 L 52 195.5 L 58.5 203 L 60.5 204 L 106 204 L 106 51.5 L 105.5 51 L 62.5 51 L 56 54 L 56 56 Q 53.3 54.9 54 57.5 L 52 60.5 L 52 73.5 L 47.5 80 L 44.5 81 L 40 80 Q 36.1 73.3 38 59.5 L 40 49.5 L 44 44 L 50.5 40 Q 57.3 40.3 60.5 37 Z " /><path fill="rgb(232,143,52)" stroke="rgb(232,143,52)" stroke-width="1" opacity="1" d="M 136 37 L 195.5 37 L 198.5 39 L 205.5 40 L 212 44 L 217 53.5 L 218 74.5 L 216 80 L 211.5 81 L 206 77.5 L 204 73.5 L 204 60.5 L 202 56 L 200 56 Q 201.1 53.3 198.5 54 L 193.5 51 L 150 51 L 150 203.5 L 150.5 204 L 195.5 204 L 199 201.5 Q 198.3 199.3 200.5 200 L 204 195.5 L 204 180 Q 206.7 181.1 206 178.5 L 208.5 175 Q 214.5 173.5 216 176.5 L 218 180.5 L 218 195.5 L 215 208 L 212 209.5 Q 213.1 212.8 210.5 212 L 205.5 216 L 197.5 217 L 195.5 219 L 136 219 L 136 37 Z " /><path fill="rgb(232,143,52)" stroke="rgb(232,143,52)" stroke-width="1" opacity="1" d="M 53.5 100 Q 60.5 98.5 60 101.5 L 67.5 108 L 70 108 L 72.5 112 L 76 113 L 78.5 117 L 88 124.5 L 88 130.5 L 82.5 136 L 58.5 156 L 53.5 156 L 51 150.5 L 54 144 Q 56.7 145.1 56 142.5 L 61 135 L 11.5 135 L 11 134.5 L 11 121 L 60.5 121 L 61 119.5 L 52 108.5 L 51 103.5 L 53.5 100 Z " /><path fill="rgb(232,143,52)" stroke="rgb(232,143,52)" stroke-width="1" opacity="1" d="M 187 100 Q 193.1 98.3 195 101.5 L 196 104.5 L 186 121 L 235.5 121 L 236 121.5 L 236 135 L 186.5 135 L 186 136.5 Q 193.1 141.9 196 151.5 L 195 155 L 187 156 L 184.5 152 L 171 141.5 Q 171.8 139.3 169.5 140 L 167 139 L 165.5 136 L 161 134 Q 161.8 130.9 159 131.5 L 159 124.5 L 171 114.5 Q 170.3 112.3 172.5 113 L 177 109.5 Q 176.3 107.3 178.5 108 L 187 102 L 187 100 Z " /></svg>