<svg width="256" height="256" version="1.1" xmlns="http://www.w3.org/2000/svg" desc="Created with imagetracer.js version 1.2.6" ><path fill="rgb(232,143,51)" stroke="rgb(232,143,51)" stroke-width="1" opacity="0.4588235294117647" d="M 116.5 25 L 139.5 25 L 150 27.5 L 145.5 28 L 138.5 26 L 117.5 26 L 116.5 27 L 105.5 28 L 92.5 32 L 92.5 31 L 99.5 28 L 104.5 28 L 116.5 25 Z " /><path fill="rgb(232,143,51)" stroke="rgb(232,143,51)" stroke-width="1" opacity="0.4588235294117647" d="M 152.5 28 Q 160 28 164 31.5 L 161.5 32 Q 158.5 29 152.5 29 L 152.5 28 Z " /><path fill="rgb(232,143,51)" stroke="rgb(232,143,51)" stroke-width="1" opacity="0.4588235294117647" d="M 88.5 32 L 91 32.5 Q 65.3 42.8 49 62.5 L 36.5 82 L 36 79.5 L 46.5 64 Q 49.1 64.8 48 61.5 L 52 58.5 L 53.5 56 L 56 54.5 L 57.5 52 L 60 50.5 L 61.5 48 Q 64.8 49.1 64 46.5 L 72.5 40 L 88.5 32 Z " /><path fill="rgb(232,143,51)" stroke="rgb(232,143,51)" stroke-width="1" opacity="0.4588235294117647" d="M 165.5 32 L 173 35.5 L 171.5 36 L 165.5 33 L 165.5 32 Z " /><path fill="rgb(232,143,51)" stroke="rgb(232,143,51)" stroke-width="1" opacity="0.4588235294117647" d="M 174.5 36 L 183.5 40 L 192 46.5 L 191.5 48 Q 184.5 41 174.5 37 L 174.5 36 Z " /><path fill="rgb(232,143,51)" stroke="rgb(232,143,51)" stroke-width="1" opacity="0.4588235294117647" d="M 124.5 42 L 141 43.5 L 115.5 44 L 115.5 43 L 123.5 43 L 124.5 42 Z " /><path fill="rgb(232,143,51)" stroke="rgb(232,143,51)" stroke-width="1" opacity="0.4588235294117647" d="M 108.5 44 L 112 44.5 L 99.5 48 L 99.5 47 L 108.5 44 Z " /><path fill="rgb(232,143,51)" stroke="rgb(232,143,51)" stroke-width="1" opacity="0.4588235294117647" d="M 143.5 44 L 147.5 44 L 164.5 50 L 184 62 Q 182.9 64.7 185.5 64 L 192 72 Q 194.7 70.9 194 73.5 Q 208.3 87.7 212 112.5 L 211 112.5 L 207 96.5 L 200 82.5 L 196 78.5 L 196 76 L 192 73.5 L 183.5 64 L 180 61.5 Q 180.8 58.9 177.5 60 L 166.5 52 L 161.5 51 L 156.5 48 L 143.5 45 L 143.5 44 Z " /><path fill="rgb(232,143,51)" stroke="rgb(232,143,51)" stroke-width="1" opacity="0.4588235294117647" d="M 95.5 48 L 98 48.5 L 80 57 L 78.5 60 L 76 60 Q 77.1 62.7 74.5 62 L 62 74.5 L 62 76 Q 59 74.8 60 78.5 L 57 80 L 48.5 98 L 48 95.5 L 62 72 Q 64.7 73.1 64 70.5 L 72 64 Q 70.9 61.3 73.5 62 L 80.5 56 L 95.5 48 Z " /><path fill="rgb(232,143,51)" stroke="rgb(232,143,51)" stroke-width="1" opacity="0.4588235294117647" d="M 193.5 48 L 196 49.5 L 197.5 52 L 200 53.5 L 201.5 56 L 204 57.5 L 205.5 60 L 208 61.5 L 207.5 63 L 193.5 48 Z " /><path fill="rgb(232,143,51)" stroke="rgb(232,143,51)" stroke-width="1" opacity="0.4588235294117647" d="M 208.5 64 L 211 65.5 L 220 79.5 L 220 81.5 L 219 81.5 L 208.5 64 Z " /><path fill="rgb(232,143,51)" stroke="rgb(232,143,51)" stroke-width="1" opacity="0.4588235294117647" d="M 120.5 76 Q 132.6 74.4 140.5 77 L 151.5 81 L 164 90.5 Q 163.3 92.8 165.5 92 L 175 104.5 L 176 111.5 L 171.5 117 L 163.5 118 L 158 113.5 Q 158.7 110.9 156 112 L 156 109.5 L 158 110.5 L 161.5 116 L 169.5 117 L 172 116 L 174 112.5 L 174 105.5 Q 168.3 95.2 159.5 88 Q 151.5 81 139.5 78 L 123.5 77 L 111.5 80 L 111.5 79 L 120.5 76 Z " /><path fill="rgb(232,143,51)" stroke="rgb(232,143,51)" stroke-width="1" opacity="0.4588235294117647" d="M 108.5 80 L 110 80.5 L 94 90 Q 95.1 92.7 92.5 92 Q 84.7 98.7 80.5 109 L 80 106.5 L 90.5 92 L 100.5 84 L 108.5 80 Z " /><path fill="rgb(232,143,51)" stroke="rgb(232,143,51)" stroke-width="1" opacity="0.4588235294117647" d="M 35.5 83 L 36 84.5 L 32.5 91 L 32 88.5 L 35.5 83 Z " /><path fill="rgb(232,143,51)" stroke="rgb(232,143,51)" stroke-width="1" opacity="0.4588235294117647" d="M 220.5 83 L 224 90.5 L 223 90.5 L 220.5 83 Z " /><path fill="rgb(232,143,51)" stroke="rgb(232,143,51)" stroke-width="1" opacity="0.4588235294117647" d="M 31.5 92 L 32 94.5 L 28.5 104 L 28 100.5 L 31.5 92 Z " /><path fill="rgb(232,143,51)" stroke="rgb(232,143,51)" stroke-width="1" opacity="0.4588235294117647" d="M 224.5 92 Q 228.2 96.3 228 104.5 L 227 104.5 L 224.5 92 Z " /><path fill="rgb(232,143,51)" stroke="rgb(232,143,51)" stroke-width="1" opacity="0.4588235294117647" d="M 126.5 93 L 136.5 94 L 142.5 96 L 156 107.5 L 154.5 108 L 152 104 L 148 101.5 Q 148.8 98.9 145.5 100 L 139.5 96 L 121.5 95 L 108.5 100 L 103 104.5 L 96.5 116 L 96 113.5 Q 99.6 105.1 106.5 100 L 113.5 96 L 126.5 93 Z " /><path fill="rgb(232,143,51)" stroke="rgb(232,143,51)" stroke-width="1" opacity="0.4588235294117647" d="M 47.5 99 L 48 102.5 L 44.5 113 L 44 108.5 L 47.5 99 Z " /><path fill="rgb(232,143,51)" stroke="rgb(232,143,51)" stroke-width="1" opacity="0.4588235294117647" d="M 27.5 106 L 28 110.5 L 26 116.5 L 26 138.5 L 27 139.5 L 28 150.5 L 32 163.5 L 31 163.5 L 28 156.5 L 28 151.5 L 25 139.5 L 25 116.5 L 27.5 106 Z " /><path fill="rgb(232,143,51)" stroke="rgb(232,143,51)" stroke-width="1" opacity="0.4588235294117647" d="M 228.5 106 L 231 116.5 L 231 131.5 L 227.5 136 L 226 135.5 L 230 131.5 L 230 117.5 L 228 110.5 L 228.5 106 Z " /><path fill="rgb(232,143,51)" stroke="rgb(232,143,51)" stroke-width="1" opacity="0.4588235294117647" d="M 79.5 110 L 80 112.5 L 78 116.5 L 77 133.5 L 80 145.5 L 79 145.5 L 76 136.5 L 76 119.5 L 79.5 110 Z " /><path fill="rgb(232,143,51)" stroke="rgb(232,143,51)" stroke-width="1" opacity="0.4588235294117647" d="M 43.5 115 L 44 140.5 L 43 140.5 L 42 124.5 L 43 123.5 L 43.5 115 Z " /><path fill="rgb(232,143,51)" stroke="rgb(232,143,51)" stroke-width="1" opacity="0.4588235294117647" d="M 212.5 115 L 214 131.5 L 218.5 136 L 224 136.5 L 218.5 137 L 213 132.5 L 212 129.5 L 212.5 115 Z " /><path fill="rgb(232,143,51)" stroke="rgb(232,143,51)" stroke-width="1" opacity="0.4588235294117647" d="M 95.5 117 L 96 121.5 L 95 122.5 L 95 132.5 Q 97.3 133.7 96 138.5 L 95 138.5 L 94 135.5 L 94 120.5 L 95.5 117 Z " /><path fill="rgb(232,143,51)" stroke="rgb(232,143,51)" stroke-width="1" opacity="0.4588235294117647" d="M 128.5 122 Q 133.3 121.3 135 123.5 L 132.5 124 L 130.5 123 L 124.5 127 L 124 125.5 L 128.5 122 Z " /><path fill="rgb(232,143,51)" stroke="rgb(232,143,51)" stroke-width="1" opacity="0.4588235294117647" d="M 136.5 124 L 139.5 124 L 147 127.5 L 144.5 128 L 136.5 125 L 136.5 124 Z " /><path fill="rgb(232,143,51)" stroke="rgb(232,143,51)" stroke-width="1" opacity="0.4588235294117647" d="M 123.5 128 L 124 135.5 L 126 138.5 L 126 141.5 L 128 144.5 L 128 147.5 L 130 150.5 L 130 153.5 L 132 156.5 L 132 159.5 L 134 162.5 L 134 165.5 L 136 168.5 L 136 171.5 L 138 174.5 L 138 177.5 L 140 180.5 L 140 183.5 L 142 186.5 L 154 225.5 L 156 229 Q 158.1 230.6 163.5 230 L 168 228 L 175.5 211 L 176 213.5 L 170 226.5 L 166.5 230 L 157.5 231 L 152 224.5 L 152 220.5 L 145 203.5 L 144 196.5 L 124 139.5 L 123.5 128 Z " /><path fill="rgb(232,143,51)" stroke="rgb(232,143,51)" stroke-width="1" opacity="0.4588235294117647" d="M 148.5 128 L 151.5 128 L 156.5 131 L 163.5 132 L 169.5 135 L 226.5 153 L 228 154.5 L 230 157.5 Q 232.5 159 231 164.5 L 225.5 171 L 221.5 172 L 221.5 171 L 228 168 Q 230.6 165.7 230 159.5 L 225.5 154 L 150.5 130 L 148.5 128 Z " /><path fill="rgb(232,143,51)" stroke="rgb(232,143,51)" stroke-width="1" opacity="0.4588235294117647" d="M 96.5 140 L 101.5 148 L 104 149.5 L 105.5 152 L 108 153.5 Q 107.3 155.8 109.5 155 L 118 160 Q 119.9 162.7 119 169.5 L 118 172 L 116 172 Q 117.1 174.7 114.5 174 Q 112.5 177 106.5 176 L 92 165.5 Q 92.8 163.3 90.5 164 L 84 155.5 L 88 158.5 L 96.5 168 L 105.5 174 L 109.5 175 Q 115.3 173.8 118 169.5 L 118 163.5 L 116 160 L 112.5 159 L 103 151.5 Q 97.2 147.1 96.5 140 Z " /><path fill="rgb(232,143,51)" stroke="rgb(232,143,51)" stroke-width="1" opacity="0.4588235294117647" d="M 44.5 143 L 48 156.5 L 47 156.5 L 44 147.5 L 44.5 143 Z " /><path fill="rgb(232,143,51)" stroke="rgb(232,143,51)" stroke-width="1" opacity="0.4588235294117647" d="M 145 145 L 198 162.5 Q 196.8 165.3 195.5 163 L 172.5 156 L 164.5 152 L 160.5 152 L 152.5 148 L 148 148 L 148 152.5 L 152 160.5 L 152 163.5 L 151 163.5 L 145 145 Z " /><path fill="rgb(232,143,51)" stroke="rgb(232,143,51)" stroke-width="1" opacity="0.4588235294117647" d="M 80.5 147 L 84 153.5 L 81 151.5 L 80.5 147 Z " /><path fill="rgb(232,143,51)" stroke="rgb(232,143,51)" stroke-width="1" opacity="0.4588235294117647" d="M 48.5 158 L 56 173.5 L 60 177.5 L 60 180 Q 62.7 178.9 62 181.5 L 74.5 194 L 76 194 Q 74.8 197 78.5 196 L 82.5 200 L 98 207.5 L 95.5 208 L 72 194 Q 73.1 191.3 70.5 192 L 64 184 Q 61.3 185.1 62 182.5 L 53 170.5 L 48 160.5 L 48.5 158 Z " /><path fill="rgb(232,143,51)" stroke="rgb(232,143,51)" stroke-width="1" opacity="0.4588235294117647" d="M 192.5 164 L 195 164.5 L 174 174 L 164.5 195 L 164 192.5 L 173 173 L 192.5 164 Z " /><path fill="rgb(232,143,51)" stroke="rgb(232,143,51)" stroke-width="1" opacity="0.4588235294117647" d="M 32.5 165 Q 42.8 190.7 62.5 207 L 78.5 218 L 91 223.5 L 88.5 224 L 72.5 216 L 60 206.5 L 58.5 204 L 52 198.5 L 50.5 196 L 48 194.5 L 37 178.5 L 33 170.5 L 32.5 165 Z " /><path fill="rgb(232,143,51)" stroke="rgb(232,143,51)" stroke-width="1" opacity="0.4588235294117647" d="M 152.5 165 L 156 172.5 L 156 175.5 L 155 175.5 L 152 167.5 L 152.5 165 Z " /><path fill="rgb(232,143,51)" stroke="rgb(232,143,51)" stroke-width="1" opacity="0.4588235294117647" d="M 218.5 172 L 220 172.5 L 203.5 180 L 204.5 178 L 218.5 172 Z " /><path fill="rgb(232,143,51)" stroke="rgb(232,143,51)" stroke-width="1" opacity="0.4588235294117647" d="M 156.5 177 L 160 184.5 L 160 187.5 L 159 187.5 L 156 179.5 L 156.5 177 Z " /><path fill="rgb(232,143,51)" stroke="rgb(232,143,51)" stroke-width="1" opacity="0.4588235294117647" d="M 200.5 180 L 202 180.5 L 194.5 184 L 194.5 183 L 200.5 180 Z " /><path fill="rgb(232,143,51)" stroke="rgb(232,143,51)" stroke-width="1" opacity="0.4588235294117647" d="M 190.5 184 L 193 184.5 L 186 188 L 184 195.5 L 176.5 210 L 176 208.5 L 186 186 L 190.5 184 Z " /><path fill="rgb(232,143,51)" stroke="rgb(232,143,51)" stroke-width="1" opacity="0.4588235294117647" d="M 160.5 189 L 164 196.5 L 162 197.5 L 160.5 189 Z " /><path fill="rgb(232,143,51)" stroke="rgb(232,143,51)" stroke-width="1" opacity="0.4588235294117647" d="M 99.5 208 L 112 211.5 L 108.5 212 L 99.5 209 L 99.5 208 Z " /><path fill="rgb(232,143,51)" stroke="rgb(232,143,51)" stroke-width="1" opacity="0.4588235294117647" d="M 116.5 212 Q 130.8 209.8 136 216.5 L 135.5 218 L 131.5 214 L 116.5 213 L 116.5 212 Z " /><path fill="rgb(232,143,51)" stroke="rgb(232,143,51)" stroke-width="1" opacity="0.4588235294117647" d="M 92.5 224 L 104 227.5 L 99.5 228 L 92.5 225 L 92.5 224 Z " /><path fill="rgb(232,143,51)" stroke="rgb(232,143,51)" stroke-width="1" opacity="0.4588235294117647" d="M 135.5 226 L 136 227.5 L 131.5 231 L 116.5 231 L 105 228.5 L 110.5 228 Q 118.4 231.6 131.5 230 L 135.5 226 Z " /><path fill="rgb(0,0,0)" stroke="rgb(0,0,0)" stroke-width="1" opacity="0" d="M 0 0 L 256 0 L 256 256 L 0 256 L 0 0 Z M 117 25 L 105 28 L 100 28 L 92 32 L 89 32 L 73 40 L 64 47 Q 65 49 62 48 L 60 51 L 58 52 L 56 55 L 54 56 L 52 59 L 48 62 Q 49 65 47 64 L 40 73 L 32 89 L 31 95 L 28 101 L 28 106 L 25 117 L 25 140 L 28 152 L 28 157 L 37 179 L 48 195 L 51 196 L 52 199 L 59 204 L 60 207 L 73 216 L 86 223 Q 94 224 100 228 L 105 228 L 117 231 L 132 231 L 135 229 L 137 225 L 136 217 L 129 212 L 113 212 L 103 208 L 99 208 L 83 200 L 79 196 Q 75 197 76 194 L 75 194 L 62 182 Q 63 179 60 180 L 60 178 L 56 174 L 48 158 L 48 154 L 44 143 L 44 114 L 48 103 L 48 99 L 57 80 L 60 79 Q 59 75 62 76 L 62 75 L 75 62 Q 77 63 76 60 L 79 60 L 80 57 L 99 48 L 103 48 L 113 44 L 143 44 L 167 52 L 178 60 Q 181 59 180 62 L 184 64 L 192 74 L 196 76 L 196 79 L 204 90 L 205 95 L 208 100 L 212 114 L 212 130 L 213 133 L 219 137 L 228 136 L 231 132 L 231 117 L 227 97 L 220 83 L 220 80 L 210 64 Q 207 65 208 62 L 206 60 L 204 58 L 202 56 L 200 54 L 198 52 L 195 48 Q 191 49 192 47 L 177 36 L 174 36 L 160 29 L 140 25 L 117 25 Z M 121 76 L 101 84 L 91 92 L 81 105 L 76 120 L 76 137 L 78 144 L 84 157 L 91 164 Q 93 163 92 166 L 107 176 Q 113 177 115 174 Q 117 175 116 172 L 118 172 L 119 170 Q 120 163 118 160 L 110 155 Q 107 156 108 154 L 106 152 L 104 150 L 102 148 L 96 140 Q 98 134 95 133 L 96 117 L 103 105 L 109 100 L 122 95 L 140 96 L 146 100 Q 149 99 148 102 L 152 104 L 155 108 L 156 108 L 156 112 Q 159 111 158 114 L 164 118 L 172 117 L 176 112 L 175 105 L 166 92 Q 163 93 164 91 L 152 81 L 141 77 Q 133 74 121 76 Z M 129 122 L 126 124 L 123 129 L 124 140 L 144 197 L 145 204 L 148 209 L 149 216 L 152 221 L 152 225 L 158 231 L 167 230 L 172 223 L 186 188 L 203 180 L 206 180 L 210 177 L 215 176 L 221 172 L 226 171 L 231 165 Q 233 159 230 158 L 228 155 L 227 153 L 170 135 L 164 132 L 157 131 L 152 128 L 145 127 L 140 124 L 129 122 Z " /><path fill="rgb(0,0,0)" stroke="rgb(0,0,0)" stroke-width="1" opacity="0" d="M 147.5 147 L 196 163.5 L 180.5 169 L 173 173 L 163.5 196 L 156 176.5 L 156 172.5 L 152 164.5 L 152 160.5 L 148 152.5 L 147.5 147 Z " /><path fill="rgb(232,143,52)" stroke="rgb(232,143,52)" stroke-width="1" opacity="0.996078431372549" d="M 117.5 26 L 127 26.5 L 117.5 27 L 117.5 26 Z " /><path fill="rgb(232,143,52)" stroke="rgb(232,143,52)" stroke-width="1" opacity="0.996078431372549" d="M 128.5 26 L 139 26.5 L 128.5 27 L 128.5 26 Z " /><path fill="rgb(232,143,52)" stroke="rgb(232,143,52)" stroke-width="1" opacity="0.996078431372549" d="M 172.5 36 L 179 39.5 L 177.5 40 L 172.5 37 L 172.5 36 Z " /><path fill="rgb(232,143,52)" stroke="rgb(232,143,52)" stroke-width="1" opacity="0.996078431372549" d="M 192.5 48 L 207.5 64 L 204 61.5 L 195.5 52 L 192 49.5 L 192.5 48 Z " /><path fill="rgb(232,143,52)" stroke="rgb(232,143,52)" stroke-width="1" opacity="0.996078431372549" d="M 62.5 49 L 64 49.5 L 50 62.5 L 49.5 64 L 49 62.5 L 62.5 49 Z " /><path fill="rgb(232,143,52)" stroke="rgb(232,143,52)" stroke-width="1" opacity="0.996078431372549" d="M 69.5 64 L 64.5 70 L 69.5 64 Z " /><path fill="rgb(232,143,52)" stroke="rgb(232,143,52)" stroke-width="1" opacity="0.996078431372549" d="M 186.5 64 L 191.5 70 L 186.5 64 Z " /><path fill="rgb(232,143,52)" stroke="rgb(232,143,52)" stroke-width="1" opacity="0.996078431372549" d="M 123.5 77 L 134 77.5 L 123.5 78 L 123.5 77 Z " /><path fill="rgb(232,143,52)" stroke="rgb(232,143,52)" stroke-width="1" opacity="0.996078431372549" d="M 216.5 77 L 220 83.5 L 219 83.5 L 216 78.5 L 216.5 77 Z " /><path fill="rgb(232,143,52)" stroke="rgb(232,143,52)" stroke-width="1" opacity="0.996078431372549" d="M 108.5 81 L 107.5 83 L 103.5 85 L 104.5 83 L 108.5 81 Z " /><path fill="rgb(232,143,52)" stroke="rgb(232,143,52)" stroke-width="1" opacity="0.996078431372549" d="M 159.5 88 L 167.5 97 L 164 94.5 L 162.5 92 L 160 90.5 L 159.5 88 Z " /><path fill="rgb(232,143,52)" stroke="rgb(232,143,52)" stroke-width="1" opacity="0.996078431372549" d="M 105.5 100 L 100.5 106 L 105.5 100 Z " /><path fill="rgb(232,143,52)" stroke="rgb(232,143,52)" stroke-width="1" opacity="0.996078431372549" d="M 149.5 100 L 152 101.5 L 153.5 104 L 156 105.5 L 155.5 107 L 149.5 100 Z " /><path fill="rgb(232,143,52)" stroke="rgb(232,143,52)" stroke-width="1" opacity="0.996078431372549" d="M 99.5 107 L 99 108.5 L 96.5 113 L 97 111.5 L 99.5 107 Z " /><path fill="rgb(232,143,52)" stroke="rgb(232,143,52)" stroke-width="1" opacity="0.996078431372549" d="M 27.5 111 L 28 115.5 L 27 116.5 L 26.5 139 L 26 116.5 L 27.5 111 Z " /><path fill="rgb(232,143,52)" stroke="rgb(232,143,52)" stroke-width="1" opacity="0.996078431372549" d="M 229.5 117 L 230 131.5 L 228 132.5 L 229 131.5 L 229.5 117 Z " /><path fill="rgb(232,143,52)" stroke="rgb(232,143,52)" stroke-width="1" opacity="0.996078431372549" d="M 93.5 122 L 94 132.5 L 93 132.5 L 93.5 122 Z " /><path fill="rgb(232,143,52)" stroke="rgb(232,143,52)" stroke-width="1" opacity="0.996078431372549" d="M 144 144 L 149 145.5 L 147.5 146 L 145 145 L 147 151.5 L 146 151.5 L 144 144 Z " /><path fill="rgb(232,143,52)" stroke="rgb(232,143,52)" stroke-width="1" opacity="0.996078431372549" d="M 98.5 146 L 103 151.5 L 100 149.5 L 98.5 146 Z " /><path fill="rgb(232,143,52)" stroke="rgb(232,143,52)" stroke-width="1" opacity="0.996078431372549" d="M 104.5 153 L 111 157.5 L 109.5 157 L 104.5 154 L 104.5 153 Z " /><path fill="rgb(232,143,52)" stroke="rgb(232,143,52)" stroke-width="1" opacity="0.996078431372549" d="M 88.5 159 L 92 161.5 L 93.5 164 L 96 165.5 L 97 167.5 L 88.5 159 Z " /><path fill="rgb(232,143,52)" stroke="rgb(232,143,52)" stroke-width="1" opacity="0.996078431372549" d="M 52.5 169 L 56 174.5 L 54 173.5 L 52.5 169 Z " /><path fill="rgb(232,143,52)" stroke="rgb(232,143,52)" stroke-width="1" opacity="0.996078431372549" d="M 216.5 172 L 218 172.5 L 211.5 176 L 212.5 174 L 216.5 172 Z " /><path fill="rgb(232,143,52)" stroke="rgb(232,143,52)" stroke-width="1" opacity="0.996078431372549" d="M 198.5 180 L 200 180.5 L 192.5 184 L 192.5 183 L 198.5 180 Z " /><path fill="rgb(232,143,52)" stroke="rgb(232,143,52)" stroke-width="1" opacity="0.996078431372549" d="M 64.5 186 L 69.5 192 Q 67.3 192.8 68 190.5 L 64 188 L 64.5 186 Z " /><path fill="rgb(232,143,52)" stroke="rgb(232,143,52)" stroke-width="1" opacity="0.996078431372549" d="M 49.5 192 L 61.5 205 L 64 206.5 L 62.5 207 L 49 193.5 L 49.5 192 Z " /><path fill="rgb(232,143,52)" stroke="rgb(232,143,52)" stroke-width="1" opacity="0.996078431372549" d="M 81.5 200 L 87 203.5 L 85.5 204 L 81.5 200 Z " /><path fill="rgb(232,143,52)" stroke="rgb(232,143,52)" stroke-width="1" opacity="0.996078431372549" d="M 156.5 228 L 163.5 229 L 165.5 228 L 165.5 229 L 158.5 230 L 156.5 228 Z " /><path fill="rgb(232,143,52)" stroke="rgb(232,143,52)" stroke-width="1" opacity="0.996078431372549" d="M 117.5 229 L 127 229.5 L 117.5 230 L 117.5 229 Z " /><path fill="rgb(232,143,52)" stroke="rgb(232,143,52)" stroke-width="1" opacity="1" d="M 127.5 26 L 128.5 27 L 148.5 28 L 159.5 32 L 163.5 32 L 179.5 40 L 189.5 48 L 192 48 L 194.5 52 L 204 60.5 L 206.5 64 Q 209.1 63.2 208 66.5 L 216 76.5 L 224 92.5 L 224 96.5 L 228 107.5 L 229 131.5 L 228 134 Q 225.7 136.6 219.5 136 L 216 134 L 214 128.5 L 214 119.5 L 212 112.5 L 212 105.5 L 208 97.5 L 208 93.5 L 198 76 Q 195 77.3 196 73.5 L 192 70.5 L 186.5 64 L 184 62.5 L 182.5 60 L 180 60 Q 181.1 57.3 178.5 58 L 170.5 52 L 150.5 44 L 143.5 44 L 136.5 42 L 118.5 42 L 111.5 44 L 105.5 44 Q 101 47.5 93.5 48 L 76 58 Q 77.3 61 73.5 60 L 70.5 64 L 64 69.5 L 62.5 72 L 60 73.5 L 60 76 Q 57.3 74.9 58 77.5 L 48 93.5 L 48 97.5 L 44 106.5 L 44 112.5 L 42 119.5 L 42 137.5 L 44 144.5 L 44 150.5 Q 47.5 155 48 162.5 L 58.5 180 Q 61.1 179.2 60 182.5 L 64 185.5 Q 62.9 188.8 65.5 188 L 68 192 L 72 193.5 L 73.5 196 Q 76.8 194.9 76 197.5 L 93.5 208 L 96.5 208 L 105.5 212 L 111.5 212 L 118.5 214 L 128.5 214 L 134 216 Q 136.6 218.3 136 224.5 L 134 228 L 127.5 230 L 126.5 229 L 106.5 228 L 96.5 224 L 92.5 224 L 68 211 L 66.5 208 Q 63.2 209.1 64 206.5 L 51 194.5 L 49.5 192 Q 46.9 192.8 48 189.5 L 45 188 L 36 172.5 L 36 169.5 L 32 163.5 L 32 159.5 L 28 149.5 L 27 116.5 L 28 115.5 L 28 106.5 L 32 96.5 L 32 92.5 L 45 68 Q 47.7 69.1 47 66.5 L 48 64 Q 50.7 65.1 50 62.5 L 62.5 50 L 64 50 Q 62.9 47.3 65.5 48 L 68 47 L 69.5 44 L 92.5 32 L 96.5 32 L 106.5 28 L 126.5 27 L 127.5 26 Z " /><path fill="rgb(232,143,52)" stroke="rgb(232,143,52)" stroke-width="1" opacity="1" d="M 120.5 78 L 136.5 78 Q 138.8 80.7 144.5 80 L 160 89.5 L 161.5 92 L 164 93.5 L 165.5 96 L 168 97.5 L 174 107.5 L 174 110.5 L 170.5 116 Q 162 118 160 113.5 L 154.5 104 L 152 102.5 L 150.5 100 L 148 100 Q 149.1 97.3 146.5 98 L 135.5 93 L 121.5 93 L 108.5 98 L 100 105.5 L 94 118.5 L 93 132.5 L 96 143.5 L 102.5 152 L 105.5 154 L 112 158 Q 110.8 161 114.5 160 L 118 166.5 L 116 172 Q 112.6 171.3 111.5 174 L 107.5 174 L 100 170 Q 101.3 167 97.5 168 L 94.5 164 L 92 162.5 L 90.5 160 L 88 158.5 Q 89.1 155.2 86.5 156 L 81 147.5 L 77 127.5 Q 79.8 125.8 78 119.5 L 80 115.5 L 80 110.5 L 92 92 L 96 90.5 L 97.5 88 L 99.5 88 L 109.5 81 L 120.5 78 Z " /><path fill="rgb(232,143,52)" stroke="rgb(232,143,52)" stroke-width="1" opacity="1" d="M 128.5 124 L 133.5 124 L 153.5 132 L 158.5 132 L 166.5 136 L 170.5 136 L 178.5 140 L 182.5 140 L 190.5 144 L 194.5 144 L 202.5 148 L 206.5 148 L 214.5 152 L 218.5 152 L 228 156 L 229 164.5 L 226.5 168 L 210.5 176 L 207.5 176 L 203.5 179 L 185 186 L 184 191.5 L 180 197.5 Q 179.7 203.7 176 206.5 L 176 209.5 L 168 224.5 L 168 228 L 158.5 229 L 156 228 L 152 219.5 L 152 215.5 L 148 207.5 L 148 203.5 L 144 194.5 L 144 190.5 L 140 182.5 L 140 178.5 L 136 170.5 L 136 166.5 L 132 158.5 L 132 154.5 L 124 134.5 L 124 128.5 L 128.5 124 Z M 144 144 L 144 148 L 148 155 L 148 159 L 152 167 L 152 171 L 156 179 L 156 183 Q 160 188 161 197 L 164 198 L 173 178 Q 172 175 175 176 L 176 173 L 188 168 L 191 168 L 197 164 Q 200 165 199 162 L 194 160 L 190 160 L 182 156 L 178 156 L 171 152 L 167 152 L 159 148 L 155 148 L 144 144 Z " /></svg>