<svg width="256" height="256" version="1.1" xmlns="http://www.w3.org/2000/svg" desc="Created with imagetracer.js version 1.2.6" ><path fill="rgb(232,143,52)" stroke="rgb(232,143,52)" stroke-width="1" opacity="0.4392156862745098" d="M 36.5 34 L 47.5 35 L 54.5 39 L 63.5 40 L 71.5 44 L 107.5 54 L 117 61.5 L 119 65.5 L 119 190.5 L 115 198 L 109.5 201 L 90.5 206 L 86.5 209 L 78.5 210 L 74.5 213 L 67.5 213 L 61.5 217 L 55.5 217 L 48.5 221 L 34 222 Q 32.9 219.3 35.5 220 L 39.5 221 L 76.5 208 L 80.5 208 L 89.5 204 L 93.5 204 L 96.5 202 L 105.5 200 Q 112 198.5 115 193.5 L 117 187.5 L 117 69.5 Q 115.4 60.6 108.5 57 L 101.5 56 L 92.5 52 L 88.5 52 L 85.5 50 L 46.5 38 L 45.5 39 L 42.5 36 L 33.5 36 L 28 41.5 L 26 46.5 L 26 211.5 L 31.5 219 Q 34.1 218.3 33 221 L 28 218.5 L 24 210.5 L 24 44.5 Q 25.5 38 30.5 35 Q 35.3 36.3 36.5 34 Z " /><path fill="rgb(232,143,52)" stroke="rgb(232,143,52)" stroke-width="1" opacity="0.4392156862745098" d="M 216.5 34 L 225.5 35 L 229 37.5 L 232 44.5 L 232 213.5 L 226.5 221 L 224.5 222 L 212.5 222 L 200.5 217 L 196.5 217 L 191.5 214 L 182.5 213 L 176.5 209 L 169.5 209 L 160.5 204 L 146.5 201 L 140 195.5 L 137 188.5 L 137 67.5 L 145.5 56 L 156.5 53 L 158.5 51 L 167.5 50 L 171.5 47 L 176.5 47 L 183.5 43 L 189.5 43 L 196.5 39 L 202.5 39 L 208.5 35 Q 214.7 36.8 216.5 34 Z M 214 36 L 202 40 L 200 42 L 196 42 L 194 44 L 189 44 L 181 48 L 175 48 L 168 52 L 163 52 L 155 56 L 151 56 L 140 65 L 140 192 L 142 195 L 150 200 L 161 202 L 164 204 L 168 204 L 175 208 L 180 208 L 189 212 L 194 212 L 196 214 L 201 213 L 200 215 L 207 218 L 212 218 L 217 221 L 224 220 L 230 213 L 230 44 L 229 42 Q 226 34 214 36 Z " /><path fill="rgb(232,143,52)" stroke="rgb(232,143,52)" stroke-width="1" opacity="0.4392156862745098" d="M 44.5 60 L 46.5 62 Q 52.3 60.8 53.5 64 L 60.5 64 L 68.5 68 L 74.5 68 L 76.5 70 Q 82.2 68.8 83.5 72 L 89.5 72 L 91.5 74 L 100 75 L 100 180.5 L 98.5 181 Q 97.3 183.2 92.5 182 L 90.5 184 L 84.5 184 L 82.5 186 L 77.5 186 L 75.5 188 L 69.5 188 L 62.5 190 L 60.5 192 L 54.5 192 L 52.5 194 L 47.5 194 Q 46.4 196.8 43 196 L 43 61.5 L 44.5 60 Z M 47 64 L 46 192 Q 50 190 58 191 L 66 187 L 97 180 L 98 179 L 98 77 L 90 76 L 86 73 L 75 72 L 71 69 L 60 68 L 56 65 L 48 65 L 47 64 Z " /><path fill="rgb(0,0,0)" stroke="rgb(0,0,0)" stroke-width="1" opacity="0" d="M 0 0 L 256 0 L 256 256 L 0 256 L 0 0 Z M 37 34 Q 35 36 31 35 Q 26 38 24 45 L 24 211 L 28 219 L 32 221 L 34 220 L 34 222 L 49 221 L 56 217 L 62 217 L 68 213 L 75 213 L 79 210 L 87 209 L 91 206 L 110 201 L 115 198 L 119 191 L 119 66 L 117 62 L 108 54 L 72 44 L 64 40 L 55 39 L 48 35 L 37 34 Z M 217 34 Q 215 37 209 35 L 203 39 L 197 39 L 190 43 L 184 43 L 177 47 L 172 47 L 168 50 L 159 51 L 157 53 L 146 56 L 137 68 L 137 189 L 140 196 L 147 201 L 161 204 L 170 209 L 177 209 L 183 213 L 192 214 L 197 217 L 201 217 L 213 222 L 225 222 L 227 221 L 232 214 L 232 45 L 229 38 L 226 35 L 217 34 Z " /><path fill="rgb(0,0,0)" stroke="rgb(0,0,0)" stroke-width="1" opacity="0" d="M 46.5 64 L 47.5 65 L 55.5 65 L 59.5 68 L 70.5 69 L 74.5 72 L 85.5 73 L 89.5 76 L 98 77 L 98 178.5 L 96.5 180 L 65.5 187 L 57.5 191 Q 49.8 190.2 46 192 L 46.5 64 Z " /><path fill="rgb(232,143,52)" stroke="rgb(232,143,52)" stroke-width="1" opacity="0.996078431372549" d="M 33.5 36 Q 43.3 33.8 45.5 39 L 47.5 38 L 50 39.5 L 48.5 41 Q 47 37.5 45.5 40 Q 43.3 40.8 44 38.5 L 42.5 39 L 40 39 Q 41.1 36.3 38.5 37 L 36.5 38 L 35 37.5 Q 35.8 39.8 33.5 39 L 28 41.5 L 33.5 36 Z " /><path fill="rgb(232,143,52)" stroke="rgb(232,143,52)" stroke-width="1" opacity="0.996078431372549" d="M 213.5 36 Q 226.1 33.9 229 41.5 L 230 43.5 L 230 212.5 L 226.5 215 L 229 211.5 L 229 202.5 L 228 201.5 L 228 74.5 L 229 73.5 L 229 45.5 L 224.5 39 L 223.5 40 L 220.5 37 L 219.5 38 L 216.5 37 Q 215 40.5 213.5 38 Q 211.3 37.3 212 39.5 L 210.5 39 Q 208.3 38.3 209 40.5 L 207.5 40 Q 204.9 39.3 206 42 L 200.5 42 Q 201.5 45 196.5 44 Q 195.3 46.3 194 43.5 L 213.5 36 Z " /><path fill="rgb(232,143,52)" stroke="rgb(232,143,52)" stroke-width="1" opacity="0.996078431372549" d="M 51.5 40 L 63 43 Q 64.4 47 57.5 45 L 53.5 41 L 51.5 41 L 51.5 40 Z " /><path fill="rgb(232,143,52)" stroke="rgb(232,143,52)" stroke-width="1" opacity="0.996078431372549" d="M 28.5 43 L 28 44.5 L 28 210.5 L 29 211.5 Q 27.5 214.5 26 211.5 L 26 46.5 L 28.5 43 Z " /><path fill="rgb(232,143,52)" stroke="rgb(232,143,52)" stroke-width="1" opacity="0.996078431372549" d="M 64 44 L 76 47 L 75.5 49 Q 73.7 46.3 67.5 48 L 66 46.5 L 65.5 45 L 64 45.5 L 64 44 Z " /><path fill="rgb(232,143,52)" stroke="rgb(232,143,52)" stroke-width="1" opacity="0.996078431372549" d="M 188.5 44 L 191.5 45 L 193 44.5 Q 191.8 47.3 190.5 45 L 187.5 48 L 184.5 47 L 181.5 49 L 181 47.5 L 184.5 46 L 185.5 47 L 188.5 44 Z " /><path fill="rgb(232,143,52)" stroke="rgb(232,143,52)" stroke-width="1" opacity="0.996078431372549" d="M 77.5 48 L 88 51 Q 89.4 55 82.5 53 L 79.5 49 Q 77.7 51.5 77.5 48 Z " /><path fill="rgb(232,143,52)" stroke="rgb(232,143,52)" stroke-width="1" opacity="0.996078431372549" d="M 174.5 48 L 180 48.5 L 176.5 50 L 175 50 L 174.5 52 L 169.5 52 L 168 52.5 L 169.5 50 L 174.5 48 Z " /><path fill="rgb(232,143,52)" stroke="rgb(232,143,52)" stroke-width="1" opacity="0.996078431372549" d="M 89 52 L 101 55 L 101 57 L 95 57 L 94.5 55 L 93 55.5 L 92.5 54 L 91 54.5 L 90.5 53 L 89 53.5 L 89 52 Z " /><path fill="rgb(232,143,52)" stroke="rgb(232,143,52)" stroke-width="1" opacity="0.996078431372549" d="M 162.5 52 Q 168.3 50.3 167 54 L 159.5 56 L 157.5 55 L 155 56.5 L 156.5 54 Q 161.5 55 162.5 52 Z " /><path fill="rgb(232,143,52)" stroke="rgb(232,143,52)" stroke-width="1" opacity="0.996078431372549" d="M 102.5 56 L 108.5 57 L 115 63.5 L 117 69.5 L 117 187.5 Q 115.9 194.9 110.5 198 L 77.5 208 L 77.5 207 L 82.5 204 L 84.5 204 L 93 203 Q 91.3 198.5 96.5 200 L 98.5 201 L 104.5 197 L 106 197.5 L 106.5 196 L 108.5 196 L 112 196 L 112 192 Q 115 193.3 114 189.5 L 116 187.5 L 116 69.5 L 110.5 60 L 109 60.5 L 108.5 59 L 104.5 60 L 102.5 56 Z " /><path fill="rgb(232,143,52)" stroke="rgb(232,143,52)" stroke-width="1" opacity="0.996078431372549" d="M 150.5 56 L 154 56.5 L 152 57 Q 153.8 61.5 148.5 60 L 146 61 L 147.5 58 L 150.5 56 Z " /><path fill="rgb(232,143,52)" stroke="rgb(232,143,52)" stroke-width="1" opacity="0.996078431372549" d="M 43.5 59 L 46.5 60 L 50.5 59 L 63 63 Q 61.9 65.7 64.5 65 L 66.5 64 L 68.5 66 L 72.5 66 Q 75.1 65.3 74 68 Q 68.6 69.5 67 66.5 L 66.5 65 L 62.5 66 L 60.5 64 L 53.5 64 L 51.5 62 Q 45.8 63.3 44.5 60 L 43 61.5 L 43 196 Q 46.4 196.8 47.5 194 L 52 194 L 51.5 196 L 49.5 195 L 49.5 197 Q 43.5 198.5 42 195.5 L 42 60.5 L 43.5 59 Z " /><path fill="rgb(232,143,52)" stroke="rgb(232,143,52)" stroke-width="1" opacity="0.996078431372549" d="M 144.5 60 L 144 61.5 Q 145.1 64.8 142.5 64 L 142.5 66 L 141 66.5 L 143 67 L 140.5 71 L 140 64.5 L 144.5 60 Z " /><path fill="rgb(232,143,52)" stroke="rgb(232,143,52)" stroke-width="1" opacity="0.996078431372549" d="M 76.5 67 L 79.5 69 L 81.5 68 Q 83 71.5 84.5 69 L 88.5 71 L 92.5 71 L 96 71 Q 94.9 73.7 97.5 73 L 99.5 72 L 101 73.5 L 101 181.5 L 100 184 L 96.5 183 L 96 185 L 81.5 188 L 80 187.5 Q 80.8 189.8 78.5 189 L 77.5 188 L 75.5 190 L 72 189.5 Q 72.8 191.8 70.5 191 L 68 190 Q 69.1 192.7 66.5 192 L 64 191 L 63.5 193 L 61 192.5 L 62.5 190 L 72.5 188 L 74.5 188 L 77.5 186 L 82.5 186 Q 83.3 183.3 87.5 184 L 89.5 184 L 92.5 182 Q 97.9 182.6 100 181 L 100 75.5 L 97.5 75 Q 96.3 72.8 91.5 74 L 89.5 72 L 83.5 72 L 82 70.5 L 81.5 69 L 76.5 70 Q 73.5 68.5 76.5 67 Z " /><path fill="rgb(232,143,52)" stroke="rgb(232,143,52)" stroke-width="1" opacity="0.996078431372549" d="M 140.5 188 L 141 190 L 143 190.5 Q 140.8 191.8 143.5 193 Q 145.8 192.3 145 194.5 Q 146.8 192.9 148.5 196 L 153.5 199 L 157 199 L 157.5 201 Q 159 197.5 160.5 200 Q 164.3 199.3 165 201.5 Q 166.1 204.8 163.5 204 L 160.5 202 L 149.5 200 L 142 194.5 Q 138.9 192.5 140.5 188 Z " /><path fill="rgb(232,143,52)" stroke="rgb(232,143,52)" stroke-width="1" opacity="0.996078431372549" d="M 54.5 192 Q 60.6 190.8 60 193.5 L 58.5 193 L 55.5 195 L 53 194.5 L 54.5 192 Z " /><path fill="rgb(232,143,52)" stroke="rgb(232,143,52)" stroke-width="1" opacity="0.996078431372549" d="M 166.5 203 Q 173.5 201.5 173 204.5 L 175 204.5 L 175.5 206 L 177 205.5 L 177.5 207 L 179 206.5 Q 178.3 208.8 174.5 208 L 166.5 204 L 166.5 203 Z " /><path fill="rgb(232,143,52)" stroke="rgb(232,143,52)" stroke-width="1" opacity="0.996078431372549" d="M 73.5 207 Q 77.3 206 76 209 L 65.5 212 L 65.5 211 L 69 209.5 L 68.5 208 L 71.5 209 L 73.5 207 Z " /><path fill="rgb(232,143,52)" stroke="rgb(232,143,52)" stroke-width="1" opacity="0.996078431372549" d="M 180.5 207 L 187 208 L 187.5 210 Q 189 207.5 190.5 211 L 192 211.5 L 188.5 212 L 180 209 L 180.5 207 Z " /><path fill="rgb(232,143,52)" stroke="rgb(232,143,52)" stroke-width="1" opacity="0.996078431372549" d="M 63.5 211 L 64 213 L 51.5 216 L 46.5 219 L 36.5 221 Q 30.8 219.8 28 215.5 L 28.5 214 Q 30 217.5 31.5 215 L 34 216.5 Q 32.9 219.8 35.5 219 L 36.5 218 L 44 218 Q 42.7 214.7 47.5 216 L 49.5 216 L 53.5 214 L 55.5 214 Q 58.1 214.7 57 212 L 59.5 212 L 61.5 212 L 63.5 211 Z " /><path fill="rgb(232,143,52)" stroke="rgb(232,143,52)" stroke-width="1" opacity="0.996078431372549" d="M 193.5 211 Q 199.6 209.8 199 212.5 L 201 212.5 Q 198.8 213.8 201.5 215 L 202.5 213 L 203.5 215 L 205 214.5 L 201.5 216 Q 200.5 213 195.5 214 L 193.5 211 Z " /><path fill="rgb(232,143,52)" stroke="rgb(232,143,52)" stroke-width="1" opacity="0.996078431372549" d="M 206.5 215 L 210.5 217 L 212.5 216 L 215 217.5 L 214.5 219 L 216.5 218 L 220.5 219 L 224 217.5 L 224.5 215 L 227 216.5 Q 224.6 221.6 216.5 221 L 211.5 218 Q 206.3 219.3 205 216.5 L 206.5 215 Z " /><path fill="rgb(232,143,52)" stroke="rgb(232,143,52)" stroke-width="1" opacity="1" d="M 35.5 37 L 37.5 38 L 40 37 Q 38.8 40 42.5 39 L 44 38.5 Q 43.3 40.8 45.5 40 L 49.5 40 Q 55.4 40.5 57.5 45 L 62.5 45 L 64 44.5 L 64.5 46 L 66 45.5 L 67.5 48 Q 73.7 46.3 75.5 49 L 76.5 48 L 81 50.5 L 82.5 53 Q 87.3 54.3 88.5 52 L 89.5 54 L 91 53.5 L 91.5 55 L 93 54.5 L 93.5 56 L 95 55.5 Q 94.4 58.3 100.5 57 Q 101.8 54.8 103 57.5 L 104.5 60 L 108.5 59 L 109.5 61 Q 110.8 58.7 112 61.5 L 112 64.5 L 116 69.5 L 116 187.5 Q 113.2 188.6 114 192 Q 110.3 190.8 112 196 L 108.5 196 L 106 196.5 L 105.5 198 L 104.5 197 L 101.5 200 L 97.5 201 L 93 200 L 93 203 L 86.5 203 L 83.5 205 L 81.5 204 L 76.5 208 L 73.5 207 L 73.5 209 L 71.5 209 L 68.5 208 L 67.5 211 L 64.5 212 L 62.5 212 L 60.5 213 L 57 212 Q 58.1 214.7 55.5 214 L 52.5 215 L 48.5 217 L 44 216 L 43.5 218 L 36.5 218 L 34 219 L 32.5 215 L 30.5 216 L 28 212.5 L 28 210.5 L 28 44.5 L 29 43.5 L 28 42.5 L 31.5 39 L 33.5 39 Q 36 39.7 35.5 37 Z M 44 59 L 42 61 L 42 196 L 44 197 Q 50 198 50 196 L 52 196 L 52 195 L 56 195 L 58 193 L 60 194 L 60 193 L 64 193 L 64 191 L 67 192 Q 69 193 68 190 L 71 191 Q 73 192 72 190 L 74 188 L 76 190 Q 77 186 79 189 Q 81 190 80 188 L 82 188 L 100 184 L 101 182 L 101 74 L 100 72 L 98 73 Q 95 74 96 71 L 93 71 L 89 71 L 85 69 L 82 70 L 82 68 L 79 69 Q 77 65 76 68 L 73 66 L 67 66 L 67 64 L 65 65 Q 62 66 63 63 L 51 59 L 47 60 L 44 59 Z " /><path fill="rgb(232,143,52)" stroke="rgb(232,143,52)" stroke-width="1" opacity="1" d="M 216.5 37 L 219.5 38 L 220.5 37 L 223.5 40 Q 224.8 37.8 226 40.5 L 229 45.5 L 229 73.5 L 228 74.5 L 228 201.5 L 229 202.5 L 229 211.5 Q 224.7 213.7 226.5 216 L 224.5 215 L 222.5 219 L 220.5 219 L 216.5 218 L 214.5 219 L 214.5 217 L 211.5 216 L 208.5 217 Q 207 213.5 205.5 216 L 203 214.5 L 202.5 213 L 201.5 215 L 200.5 212 L 199 212.5 Q 199.6 209.8 193.5 211 L 191.5 211 L 189.5 210 Q 188.3 212.3 187 209.5 Q 187.6 206.8 181.5 208 L 179.5 208 L 177 206.5 L 176.5 205 L 175 205.5 L 174.5 204 L 173 204.5 Q 173.5 201.5 166.5 203 L 165 203.5 L 163.5 200 L 159.5 199 L 157 200.5 Q 157.9 197.5 153.5 199 L 146.5 194 L 145 194.5 Q 145.8 192.3 143.5 193 L 142.5 190 Q 140.3 190.8 141 188.5 L 140 185.5 L 140 71.5 L 143 67 L 141 66.5 L 143 65.5 L 142.5 64 Q 145.1 64.8 144 61.5 Q 145.3 58.7 146.5 61 L 152 60 Q 150.5 56.2 153.5 57 L 157.5 55 L 162.5 56 L 167 54 L 167.5 52 L 169.5 52 L 174.5 52 L 175 50 L 176.5 50 L 182.5 48 L 185.5 46 L 185.5 48 L 187.5 48 L 191.5 44 L 193.5 44 L 195.5 45 L 200 44 L 200 42 L 205.5 42 L 206 40 L 207.5 40 L 209 40.5 Q 208.3 38.3 210.5 39 L 212 39.5 Q 211.3 37.3 213.5 38 Q 215 40.5 216.5 37 Z " /></svg>