<svg width="256" height="256" version="1.1" xmlns="http://www.w3.org/2000/svg" desc="Created with imagetracer.js version 1.2.6" ><path fill="rgb(0,0,0)" stroke="rgb(0,0,0)" stroke-width="1" opacity="0" d="M 0 0 L 256 0 L 256 256 L 0 256 L 0 0 Z M 37 35 L 29 37 L 26 42 L 25 47 L 25 210 L 29 219 L 35 221 Q 48 222 56 216 Q 63 218 62 214 L 69 212 L 75 212 L 79 209 L 87 208 L 89 206 L 112 199 Q 116 196 118 190 L 118 67 L 116 62 L 110 56 L 67 43 Q 63 44 64 41 L 55 40 L 48 36 L 37 35 Z M 217 35 L 207 37 L 203 40 L 195 41 L 190 44 L 185 44 L 180 47 L 172 48 L 168 51 L 159 52 L 157 54 L 148 56 L 145 58 L 139 65 L 138 70 L 138 188 L 141 196 L 147 200 L 160 203 L 171 208 Q 177 207 180 210 Q 183 209 182 212 L 192 213 L 197 216 L 201 216 L 206 219 L 215 221 Q 223 222 227 220 L 228 218 Q 227 215 230 216 L 231 212 L 231 45 L 230 44 L 230 40 Q 227 41 228 37 L 217 35 Z " /><path fill="rgb(0,0,0)" stroke="rgb(0,0,0)" stroke-width="1" opacity="0" d="M 45 63 Q 48.5 64.7 55.5 64 L 57.5 66 L 64.5 68 L 72 68 Q 70.8 71 74.5 70 Q 79.1 73.1 87 72 Q 85.8 75 89.5 74 L 99 76 L 99 179.5 L 96.5 180 L 73.5 187 L 62.5 189 L 57.5 192 Q 49.5 191 45.5 194 L 45 63 Z " /><path fill="rgb(234,125,125)" stroke="rgb(234,125,125)" stroke-width="1" opacity="0.8235294117647058" d="M 34.5 36 Q 40.9 35.1 44 37.5 L 40.5 38 L 35.5 37 L 28.5 42 L 32.5 37 L 34.5 36 Z " /><path fill="rgb(234,125,125)" stroke="rgb(234,125,125)" stroke-width="1" opacity="0.8235294117647058" d="M 215.5 36 L 222.5 36 L 228 40.5 L 230 44.5 L 230 211.5 L 228.5 214 L 228 212.5 L 229 211.5 L 229 45.5 L 227 40 L 220.5 37 L 216.5 37 L 200.5 42 L 200.5 41 L 215.5 36 Z " /><path fill="rgb(234,125,125)" stroke="rgb(234,125,125)" stroke-width="1" opacity="0.8235294117647058" d="M 45.5 38 L 50 39.5 L 47.5 40 L 45.5 38 Z " /><path fill="rgb(234,125,125)" stroke="rgb(234,125,125)" stroke-width="1" opacity="0.8235294117647058" d="M 51.5 40 L 56 41.5 L 54.5 42 L 51.5 41 L 51.5 40 Z " /><path fill="rgb(234,125,125)" stroke="rgb(234,125,125)" stroke-width="1" opacity="0.8235294117647058" d="M 57.5 42 L 63 43.5 L 60.5 44 L 57.5 43 L 57.5 42 Z " /><path fill="rgb(234,125,125)" stroke="rgb(234,125,125)" stroke-width="1" opacity="0.8235294117647058" d="M 196.5 42 L 199 42.5 L 194.5 44 L 194.5 43 L 196.5 42 Z " /><path fill="rgb(234,125,125)" stroke="rgb(234,125,125)" stroke-width="1" opacity="0.8235294117647058" d="M 27.5 44 L 28 46.5 L 27 47.5 L 27 208.5 L 28 212.5 L 27 212.5 L 26 209.5 L 26 47.5 L 27.5 44 Z " /><path fill="rgb(234,125,125)" stroke="rgb(234,125,125)" stroke-width="1" opacity="0.8235294117647058" d="M 64.5 44 L 69 45.5 L 67.5 46 L 64.5 45 L 64.5 44 Z " /><path fill="rgb(234,125,125)" stroke="rgb(234,125,125)" stroke-width="1" opacity="0.8235294117647058" d="M 189.5 44 L 192 44.5 L 187.5 46 L 187.5 45 L 189.5 44 Z " /><path fill="rgb(234,125,125)" stroke="rgb(234,125,125)" stroke-width="1" opacity="0.8235294117647058" d="M 70.5 46 L 76 47.5 L 72.5 48 L 70.5 46 Z " /><path fill="rgb(234,125,125)" stroke="rgb(234,125,125)" stroke-width="1" opacity="0.8235294117647058" d="M 183.5 46 L 186 46.5 L 181.5 48 L 181.5 47 L 183.5 46 Z " /><path fill="rgb(234,125,125)" stroke="rgb(234,125,125)" stroke-width="1" opacity="0.8235294117647058" d="M 77.5 48 L 82 49.5 L 80.5 50 L 77.5 49 L 77.5 48 Z " /><path fill="rgb(234,125,125)" stroke="rgb(234,125,125)" stroke-width="1" opacity="0.8235294117647058" d="M 176.5 48 L 180 48.5 L 168.5 52 L 168.5 51 L 176.5 48 Z " /><path fill="rgb(234,125,125)" stroke="rgb(234,125,125)" stroke-width="1" opacity="0.8235294117647058" d="M 83.5 50 L 88 51.5 L 86.5 52 L 83.5 51 L 83.5 50 Z " /><path fill="rgb(234,125,125)" stroke="rgb(234,125,125)" stroke-width="1" opacity="0.8235294117647058" d="M 89.5 52 L 95 53.5 L 93.5 54 L 89.5 53 L 89.5 52 Z " /><path fill="rgb(234,125,125)" stroke="rgb(234,125,125)" stroke-width="1" opacity="0.8235294117647058" d="M 164.5 52 L 167 52.5 L 161.5 54 L 161.5 53 L 164.5 52 Z " /><path fill="rgb(234,125,125)" stroke="rgb(234,125,125)" stroke-width="1" opacity="0.8235294117647058" d="M 96.5 54 L 101 55.5 L 98.5 56 L 96.5 54 Z " /><path fill="rgb(234,125,125)" stroke="rgb(234,125,125)" stroke-width="1" opacity="0.8235294117647058" d="M 158.5 54 L 160 54.5 L 155.5 56 L 155.5 55 L 158.5 54 Z " /><path fill="rgb(234,125,125)" stroke="rgb(234,125,125)" stroke-width="1" opacity="0.8235294117647058" d="M 102.5 56 Q 108.3 56.3 111 59.5 L 109.5 60 Q 107.7 56.8 102.5 57 L 102.5 56 Z " /><path fill="rgb(234,125,125)" stroke="rgb(234,125,125)" stroke-width="1" opacity="0.8235294117647058" d="M 151.5 56 L 154 56.5 L 149.5 58 L 149.5 57 L 151.5 56 Z " /><path fill="rgb(234,125,125)" stroke="rgb(234,125,125)" stroke-width="1" opacity="0.8235294117647058" d="M 147.5 58 L 146.5 60 L 147.5 58 Z " /><path fill="rgb(234,125,125)" stroke="rgb(234,125,125)" stroke-width="1" opacity="0.8235294117647058" d="M 42 60 L 44 60.5 L 43 61.5 L 43 196 L 45 196.5 L 43.5 197 L 42 195.5 L 42 60 Z " /><path fill="rgb(234,125,125)" stroke="rgb(234,125,125)" stroke-width="1" opacity="0.8235294117647058" d="M 45.5 60 L 51 61.5 L 48.5 62 L 45.5 61 L 45.5 60 Z " /><path fill="rgb(234,125,125)" stroke="rgb(234,125,125)" stroke-width="1" opacity="0.8235294117647058" d="M 144.5 60 L 143 62.5 L 140.5 69 L 140 65.5 L 144.5 60 Z " /><path fill="rgb(234,125,125)" stroke="rgb(234,125,125)" stroke-width="1" opacity="0.8235294117647058" d="M 112.5 61 L 116 65.5 L 115 65.5 L 112.5 61 Z " /><path fill="rgb(234,125,125)" stroke="rgb(234,125,125)" stroke-width="1" opacity="0.8235294117647058" d="M 52.5 62 L 59 63.5 L 55.5 64 L 52.5 63 L 52.5 62 Z " /><path fill="rgb(234,125,125)" stroke="rgb(234,125,125)" stroke-width="1" opacity="0.8235294117647058" d="M 60.5 64 L 66 65.5 L 62.5 66 L 60.5 64 Z " /><path fill="rgb(234,125,125)" stroke="rgb(234,125,125)" stroke-width="1" opacity="0.8235294117647058" d="M 67.5 66 L 74 67.5 L 70.5 68 L 67.5 67 L 67.5 66 Z " /><path fill="rgb(234,125,125)" stroke="rgb(234,125,125)" stroke-width="1" opacity="0.8235294117647058" d="M 75.5 68 L 81 69.5 L 78.5 70 L 75.5 69 L 75.5 68 Z " /><path fill="rgb(234,125,125)" stroke="rgb(234,125,125)" stroke-width="1" opacity="0.8235294117647058" d="M 116.5 69 L 117 187.5 L 116 187.5 L 116.5 69 Z " /><path fill="rgb(234,125,125)" stroke="rgb(234,125,125)" stroke-width="1" opacity="0.8235294117647058" d="M 82.5 70 L 88 71.5 L 85.5 72 L 82.5 71 L 82.5 70 Z " /><path fill="rgb(234,125,125)" stroke="rgb(234,125,125)" stroke-width="1" opacity="0.8235294117647058" d="M 90.5 72 L 96 73.5 L 93.5 74 L 90.5 73 L 90.5 72 Z " /><path fill="rgb(234,125,125)" stroke="rgb(234,125,125)" stroke-width="1" opacity="0.8235294117647058" d="M 97.5 74 L 100 74.5 L 97.5 75 L 97.5 74 Z " /><path fill="rgb(234,125,125)" stroke="rgb(234,125,125)" stroke-width="1" opacity="0.8235294117647058" d="M 98.5 181 L 100 181.5 L 98.5 182 L 98.5 181 Z " /><path fill="rgb(234,125,125)" stroke="rgb(234,125,125)" stroke-width="1" opacity="0.8235294117647058" d="M 94.5 182 L 97 182.5 L 91.5 184 L 91.5 183 L 94.5 182 Z " /><path fill="rgb(234,125,125)" stroke="rgb(234,125,125)" stroke-width="1" opacity="0.8235294117647058" d="M 86.5 184 L 89 184.5 L 83.5 186 L 83.5 185 L 86.5 184 Z " /><path fill="rgb(234,125,125)" stroke="rgb(234,125,125)" stroke-width="1" opacity="0.8235294117647058" d="M 79.5 186 L 82 186.5 L 76.5 188 L 76.5 187 L 79.5 186 Z " /><path fill="rgb(234,125,125)" stroke="rgb(234,125,125)" stroke-width="1" opacity="0.8235294117647058" d="M 71.5 188 L 74 188.5 L 61.5 192 L 61.5 191 L 71.5 188 Z " /><path fill="rgb(234,125,125)" stroke="rgb(234,125,125)" stroke-width="1" opacity="0.8235294117647058" d="M 140.5 189 L 144 195.5 L 143 195.5 L 140 190.5 L 140.5 189 Z " /><path fill="rgb(234,125,125)" stroke="rgb(234,125,125)" stroke-width="1" opacity="0.8235294117647058" d="M 115.5 190 L 116 191.5 L 110.5 198 L 109 197.5 L 114 193.5 L 115.5 190 Z " /><path fill="rgb(234,125,125)" stroke="rgb(234,125,125)" stroke-width="1" opacity="0.8235294117647058" d="M 56.5 192 L 60 192.5 L 53.5 194 L 53.5 193 L 56.5 192 Z " /><path fill="rgb(234,125,125)" stroke="rgb(234,125,125)" stroke-width="1" opacity="0.8235294117647058" d="M 49.5 194 L 52 194.5 L 46.5 196 L 46.5 195 L 49.5 194 Z " /><path fill="rgb(234,125,125)" stroke="rgb(234,125,125)" stroke-width="1" opacity="0.8235294117647058" d="M 145.5 196 L 152 199.5 L 150.5 200 Q 145.9 198.8 145.5 196 Z " /><path fill="rgb(234,125,125)" stroke="rgb(234,125,125)" stroke-width="1" opacity="0.8235294117647058" d="M 107.5 198 L 107.5 199 L 107.5 198 Z " /><path fill="rgb(234,125,125)" stroke="rgb(234,125,125)" stroke-width="1" opacity="0.8235294117647058" d="M 104.5 199 L 106 199.5 L 104.5 200 L 104.5 199 Z " /><path fill="rgb(234,125,125)" stroke="rgb(234,125,125)" stroke-width="1" opacity="0.8235294117647058" d="M 99.5 200 L 102 200.5 L 97.5 202 L 97.5 201 L 99.5 200 Z " /><path fill="rgb(234,125,125)" stroke="rgb(234,125,125)" stroke-width="1" opacity="0.8235294117647058" d="M 154.5 200 L 160 201.5 L 156.5 202 L 154.5 200 Z " /><path fill="rgb(234,125,125)" stroke="rgb(234,125,125)" stroke-width="1" opacity="0.8235294117647058" d="M 94.5 202 L 96 202.5 L 91.5 204 L 91.5 203 L 94.5 202 Z " /><path fill="rgb(234,125,125)" stroke="rgb(234,125,125)" stroke-width="1" opacity="0.8235294117647058" d="M 161.5 202 L 165 203.5 L 163.5 204 L 161.5 202 Z " /><path fill="rgb(234,125,125)" stroke="rgb(234,125,125)" stroke-width="1" opacity="0.8235294117647058" d="M 87.5 204 L 89 204.5 L 84.5 206 L 84.5 205 L 87.5 204 Z " /><path fill="rgb(234,125,125)" stroke="rgb(234,125,125)" stroke-width="1" opacity="0.8235294117647058" d="M 167.5 204 L 172 205.5 L 169.5 206 L 167.5 204 Z " /><path fill="rgb(234,125,125)" stroke="rgb(234,125,125)" stroke-width="1" opacity="0.8235294117647058" d="M 82.5 206 L 82.5 207 L 82.5 206 Z " /><path fill="rgb(234,125,125)" stroke="rgb(234,125,125)" stroke-width="1" opacity="0.8235294117647058" d="M 173.5 206 L 178 207.5 L 176.5 208 L 173.5 207 L 173.5 206 Z " /><path fill="rgb(234,125,125)" stroke="rgb(234,125,125)" stroke-width="1" opacity="0.8235294117647058" d="M 78.5 207 L 81 207.5 L 78.5 208 L 78.5 207 Z " /><path fill="rgb(234,125,125)" stroke="rgb(234,125,125)" stroke-width="1" opacity="0.8235294117647058" d="M 74.5 208 L 76 208.5 L 65.5 212 L 65.5 211 L 74.5 208 Z " /><path fill="rgb(234,125,125)" stroke="rgb(234,125,125)" stroke-width="1" opacity="0.8235294117647058" d="M 180.5 208 L 185 209.5 L 182.5 210 L 180.5 208 Z " /><path fill="rgb(234,125,125)" stroke="rgb(234,125,125)" stroke-width="1" opacity="0.8235294117647058" d="M 186.5 210 L 192 211.5 L 188.5 212 L 186.5 210 Z " /><path fill="rgb(234,125,125)" stroke="rgb(234,125,125)" stroke-width="1" opacity="0.8235294117647058" d="M 61.5 212 L 64 212.5 L 52.5 216 L 52.5 215 L 61.5 212 Z " /><path fill="rgb(234,125,125)" stroke="rgb(234,125,125)" stroke-width="1" opacity="0.8235294117647058" d="M 193.5 212 L 198 213.5 L 195.5 214 L 193.5 212 Z " /><path fill="rgb(234,125,125)" stroke="rgb(234,125,125)" stroke-width="1" opacity="0.8235294117647058" d="M 28.5 214 Q 30.5 221 41.5 219 L 50.5 216 L 50.5 217 L 37.5 221 L 30 218 Q 31 215 28 216 L 28.5 214 Z " /><path fill="rgb(234,125,125)" stroke="rgb(234,125,125)" stroke-width="1" opacity="0.8235294117647058" d="M 199.5 214 L 204 215.5 L 201.5 216 L 199.5 214 Z " /><path fill="rgb(234,125,125)" stroke="rgb(234,125,125)" stroke-width="1" opacity="0.8235294117647058" d="M 227.5 215 L 225.5 218 Q 222.6 221.6 214.5 220 L 212 218.5 L 213.5 218 L 214.5 219 L 222.5 219 L 227.5 215 Z " /><path fill="rgb(234,125,125)" stroke="rgb(234,125,125)" stroke-width="1" opacity="0.8235294117647058" d="M 205.5 216 L 211 217.5 L 208.5 218 L 205.5 217 L 205.5 216 Z " /><path fill="rgb(235,125,125)" stroke="rgb(235,125,125)" stroke-width="1" opacity="0.996078431372549" d="M 35.5 37 L 35.5 38 L 35.5 37 Z " /><path fill="rgb(235,125,125)" stroke="rgb(235,125,125)" stroke-width="1" opacity="0.996078431372549" d="M 39.5 37 L 39.5 38 L 39.5 37 Z " /><path fill="rgb(235,125,125)" stroke="rgb(235,125,125)" stroke-width="1" opacity="0.996078431372549" d="M 216.5 37 L 216.5 38 L 216.5 37 Z " /><path fill="rgb(235,125,125)" stroke="rgb(235,125,125)" stroke-width="1" opacity="0.996078431372549" d="M 220.5 37 L 220.5 38 L 220.5 37 Z " /><path fill="rgb(235,125,125)" stroke="rgb(235,125,125)" stroke-width="1" opacity="0.996078431372549" d="M 32.5 38 L 30.5 41 L 32.5 38 Z " /><path fill="rgb(235,125,125)" stroke="rgb(235,125,125)" stroke-width="1" opacity="0.996078431372549" d="M 43.5 38 L 45 38.5 L 43.5 39 L 43.5 38 Z " /><path fill="rgb(235,125,125)" stroke="rgb(235,125,125)" stroke-width="1" opacity="0.996078431372549" d="M 212.5 38 L 214 38.5 L 212.5 39 L 212.5 38 Z " /><path fill="rgb(235,125,125)" stroke="rgb(235,125,125)" stroke-width="1" opacity="0.996078431372549" d="M 223.5 38 L 227 40.5 L 225.5 41 L 223.5 38 Z " /><path fill="rgb(235,125,125)" stroke="rgb(235,125,125)" stroke-width="1" opacity="0.996078431372549" d="M 46.5 39 L 46.5 40 L 46.5 39 Z " /><path fill="rgb(235,125,125)" stroke="rgb(235,125,125)" stroke-width="1" opacity="0.996078431372549" d="M 209.5 39 L 211 39.5 L 209.5 40 L 209.5 39 Z " /><path fill="rgb(235,125,125)" stroke="rgb(235,125,125)" stroke-width="1" opacity="0.996078431372549" d="M 49.5 40 L 51 40.5 L 49.5 41 L 49.5 40 Z " /><path fill="rgb(235,125,125)" stroke="rgb(235,125,125)" stroke-width="1" opacity="0.996078431372549" d="M 206.5 40 L 208 40.5 L 206.5 41 L 206.5 40 Z " /><path fill="rgb(235,125,125)" stroke="rgb(235,125,125)" stroke-width="1" opacity="0.996078431372549" d="M 52.5 41 L 54 41.5 L 52.5 42 L 52.5 41 Z " /><path fill="rgb(235,125,125)" stroke="rgb(235,125,125)" stroke-width="1" opacity="0.996078431372549" d="M 203.5 41 L 203.5 42 L 203.5 41 Z " /><path fill="rgb(235,125,125)" stroke="rgb(235,125,125)" stroke-width="1" opacity="0.996078431372549" d="M 28.5 42 L 28.5 43 L 28.5 42 Z " /><path fill="rgb(235,125,125)" stroke="rgb(235,125,125)" stroke-width="1" opacity="0.996078431372549" d="M 56.5 42 L 60 43.5 L 56 44 L 56.5 42 Z " /><path fill="rgb(235,125,125)" stroke="rgb(235,125,125)" stroke-width="1" opacity="0.996078431372549" d="M 199.5 42 L 200 44 L 196 43.5 L 199.5 42 Z " /><path fill="rgb(235,125,125)" stroke="rgb(235,125,125)" stroke-width="1" opacity="0.996078431372549" d="M 63.5 44 L 63.5 45 L 63.5 44 Z " /><path fill="rgb(235,125,125)" stroke="rgb(235,125,125)" stroke-width="1" opacity="0.996078431372549" d="M 192.5 44 L 195 44.5 L 190.5 46 L 190.5 45 L 192.5 44 Z " /><path fill="rgb(235,125,125)" stroke="rgb(235,125,125)" stroke-width="1" opacity="0.996078431372549" d="M 65.5 45 L 67 45.5 L 65.5 46 L 65.5 45 Z " /><path fill="rgb(235,125,125)" stroke="rgb(235,125,125)" stroke-width="1" opacity="0.996078431372549" d="M 228.5 45 L 229 211.5 L 228 211.5 L 228.5 45 Z " /><path fill="rgb(235,125,125)" stroke="rgb(235,125,125)" stroke-width="1" opacity="0.996078431372549" d="M 68.5 46 L 72 47.5 L 69.5 48 L 68.5 46 Z " /><path fill="rgb(235,125,125)" stroke="rgb(235,125,125)" stroke-width="1" opacity="0.996078431372549" d="M 186.5 46 L 188 46.5 L 184.5 48 L 184.5 47 L 186.5 46 Z " /><path fill="rgb(235,125,125)" stroke="rgb(235,125,125)" stroke-width="1" opacity="0.996078431372549" d="M 27.5 47 L 28 208.5 L 27 208.5 L 27.5 47 Z " /><path fill="rgb(235,125,125)" stroke="rgb(235,125,125)" stroke-width="1" opacity="0.996078431372549" d="M 76.5 48 L 76.5 49 L 76.5 48 Z " /><path fill="rgb(235,125,125)" stroke="rgb(235,125,125)" stroke-width="1" opacity="0.996078431372549" d="M 180.5 48 L 180.5 49 L 180.5 48 Z " /><path fill="rgb(235,125,125)" stroke="rgb(235,125,125)" stroke-width="1" opacity="0.996078431372549" d="M 79.5 49 L 79.5 50 L 79.5 49 Z " /><path fill="rgb(235,125,125)" stroke="rgb(235,125,125)" stroke-width="1" opacity="0.996078431372549" d="M 177.5 49 L 177.5 50 L 177.5 49 Z " /><path fill="rgb(235,125,125)" stroke="rgb(235,125,125)" stroke-width="1" opacity="0.996078431372549" d="M 82.5 50 L 86 51.5 L 82 52 L 82.5 50 Z " /><path fill="rgb(235,125,125)" stroke="rgb(235,125,125)" stroke-width="1" opacity="0.996078431372549" d="M 174.5 50 L 175 52 L 171 51.5 L 174.5 50 Z " /><path fill="rgb(235,125,125)" stroke="rgb(235,125,125)" stroke-width="1" opacity="0.996078431372549" d="M 88.5 52 L 88.5 53 L 88.5 52 Z " /><path fill="rgb(235,125,125)" stroke="rgb(235,125,125)" stroke-width="1" opacity="0.996078431372549" d="M 167.5 52 L 167.5 53 L 167.5 52 Z " /><path fill="rgb(235,125,125)" stroke="rgb(235,125,125)" stroke-width="1" opacity="0.996078431372549" d="M 92.5 53 L 98 55.5 L 95.5 56 L 92.5 53 Z " /><path fill="rgb(235,125,125)" stroke="rgb(235,125,125)" stroke-width="1" opacity="0.996078431372549" d="M 164.5 53 L 163.5 55 L 158.5 56 L 158.5 55 L 164.5 53 Z " /><path fill="rgb(235,125,125)" stroke="rgb(235,125,125)" stroke-width="1" opacity="0.996078431372549" d="M 101.5 56 L 101.5 57 L 101.5 56 Z " /><path fill="rgb(235,125,125)" stroke="rgb(235,125,125)" stroke-width="1" opacity="0.996078431372549" d="M 154.5 56 L 154.5 57 L 154.5 56 Z " /><path fill="rgb(235,125,125)" stroke="rgb(235,125,125)" stroke-width="1" opacity="0.996078431372549" d="M 104.5 57 L 109 59.5 L 107.5 59 Q 102.4 60.3 104.5 57 Z " /><path fill="rgb(235,125,125)" stroke="rgb(235,125,125)" stroke-width="1" opacity="0.996078431372549" d="M 151.5 57 L 152 59 L 147.5 60 L 148.5 58 L 151.5 57 Z " /><path fill="rgb(235,125,125)" stroke="rgb(235,125,125)" stroke-width="1" opacity="0.996078431372549" d="M 42.5 59 L 46 59.5 L 42.5 60 L 42.5 59 Z " /><path fill="rgb(235,125,125)" stroke="rgb(235,125,125)" stroke-width="1" opacity="0.996078431372549" d="M 48.5 60 L 54 61.5 L 51.5 62 L 48.5 61 L 48.5 60 Z " /><path fill="rgb(235,125,125)" stroke="rgb(235,125,125)" stroke-width="1" opacity="0.996078431372549" d="M 110.5 60 L 112 60.5 L 110.5 61 L 110.5 60 Z " /><path fill="rgb(235,125,125)" stroke="rgb(235,125,125)" stroke-width="1" opacity="0.996078431372549" d="M 145.5 60 L 145.5 61 L 145.5 60 Z " /><path fill="rgb(235,125,125)" stroke="rgb(235,125,125)" stroke-width="1" opacity="0.996078431372549" d="M 56.5 62 L 56.5 63 L 56.5 62 Z " /><path fill="rgb(235,125,125)" stroke="rgb(235,125,125)" stroke-width="1" opacity="0.996078431372549" d="M 112.5 62 L 116 67.5 L 114 66.5 L 112.5 62 Z " /><path fill="rgb(235,125,125)" stroke="rgb(235,125,125)" stroke-width="1" opacity="0.996078431372549" d="M 143.5 62 L 144 63.5 L 140.5 70 L 141 68.5 Q 140.4 63.4 143.5 62 Z " /><path fill="rgb(235,125,125)" stroke="rgb(235,125,125)" stroke-width="1" opacity="0.996078431372549" d="M 59.5 63 L 61 63.5 L 59.5 64 L 59.5 63 Z " /><path fill="rgb(235,125,125)" stroke="rgb(235,125,125)" stroke-width="1" opacity="0.996078431372549" d="M 63.5 64 L 65 64.5 L 63.5 65 L 63.5 64 Z " /><path fill="rgb(235,125,125)" stroke="rgb(235,125,125)" stroke-width="1" opacity="0.996078431372549" d="M 66.5 65 L 69 65.5 L 66.5 66 L 66.5 65 Z " /><path fill="rgb(235,125,125)" stroke="rgb(235,125,125)" stroke-width="1" opacity="0.996078431372549" d="M 71.5 66 L 71.5 67 L 71.5 66 Z " /><path fill="rgb(235,125,125)" stroke="rgb(235,125,125)" stroke-width="1" opacity="0.996078431372549" d="M 74.5 67 L 76 67.5 L 74.5 68 L 74.5 67 Z " /><path fill="rgb(235,125,125)" stroke="rgb(235,125,125)" stroke-width="1" opacity="0.996078431372549" d="M 78.5 68 L 80 68.5 L 78.5 69 L 78.5 68 Z " /><path fill="rgb(235,125,125)" stroke="rgb(235,125,125)" stroke-width="1" opacity="0.996078431372549" d="M 81.5 69 L 84 69.5 L 81.5 70 L 81.5 69 Z " /><path fill="rgb(235,125,125)" stroke="rgb(235,125,125)" stroke-width="1" opacity="0.996078431372549" d="M 86.5 70 L 92 71.5 L 88.5 72 L 86.5 70 Z " /><path fill="rgb(235,125,125)" stroke="rgb(235,125,125)" stroke-width="1" opacity="0.996078431372549" d="M 93.5 72 L 99.5 73 L 101 74.5 L 101 181.5 L 99.5 183 L 97 182.5 L 100 182 L 100 74.5 L 96.5 74 L 93.5 73 L 93.5 72 Z " /><path fill="rgb(235,125,125)" stroke="rgb(235,125,125)" stroke-width="1" opacity="0.996078431372549" d="M 95.5 183 L 95.5 184 L 95.5 183 Z " /><path fill="rgb(235,125,125)" stroke="rgb(235,125,125)" stroke-width="1" opacity="0.996078431372549" d="M 89.5 184 L 93 184.5 L 87.5 186 L 87.5 185 L 89.5 184 Z " /><path fill="rgb(235,125,125)" stroke="rgb(235,125,125)" stroke-width="1" opacity="0.996078431372549" d="M 82.5 186 L 85 186.5 L 82.5 187 L 82.5 186 Z " /><path fill="rgb(235,125,125)" stroke="rgb(235,125,125)" stroke-width="1" opacity="0.996078431372549" d="M 80.5 187 L 80.5 188 L 80.5 187 Z " /><path fill="rgb(235,125,125)" stroke="rgb(235,125,125)" stroke-width="1" opacity="0.996078431372549" d="M 140.5 187 L 146.5 196 L 154 199.5 L 152.5 200 L 144 196 L 140 188.5 L 140.5 187 Z " /><path fill="rgb(235,125,125)" stroke="rgb(235,125,125)" stroke-width="1" opacity="0.996078431372549" d="M 74.5 188 L 78 188.5 L 72.5 190 L 72.5 189 L 74.5 188 Z " /><path fill="rgb(235,125,125)" stroke="rgb(235,125,125)" stroke-width="1" opacity="0.996078431372549" d="M 115.5 189 L 115 190.5 L 112.5 195 L 112 193.5 L 115.5 189 Z " /><path fill="rgb(235,125,125)" stroke="rgb(235,125,125)" stroke-width="1" opacity="0.996078431372549" d="M 68.5 190 L 70 190.5 L 68.5 191 L 68.5 190 Z " /><path fill="rgb(235,125,125)" stroke="rgb(235,125,125)" stroke-width="1" opacity="0.996078431372549" d="M 64.5 191 L 66 191.5 L 64.5 192 L 64.5 191 Z " /><path fill="rgb(235,125,125)" stroke="rgb(235,125,125)" stroke-width="1" opacity="0.996078431372549" d="M 60.5 192 L 63 192.5 L 60.5 193 L 60.5 192 Z " /><path fill="rgb(235,125,125)" stroke="rgb(235,125,125)" stroke-width="1" opacity="0.996078431372549" d="M 57.5 193 L 59 193.5 L 57.5 194 L 57.5 193 Z " /><path fill="rgb(235,125,125)" stroke="rgb(235,125,125)" stroke-width="1" opacity="0.996078431372549" d="M 52.5 194 L 55 194.5 L 52.5 195 L 52.5 194 Z " /><path fill="rgb(235,125,125)" stroke="rgb(235,125,125)" stroke-width="1" opacity="0.996078431372549" d="M 50.5 195 L 50.5 196 L 50.5 195 Z " /><path fill="rgb(235,125,125)" stroke="rgb(235,125,125)" stroke-width="1" opacity="0.996078431372549" d="M 42.5 196 L 42.5 197 L 42.5 196 Z " /><path fill="rgb(235,125,125)" stroke="rgb(235,125,125)" stroke-width="1" opacity="0.996078431372549" d="M 45.5 196 L 48 196.5 L 45.5 197 L 45.5 196 Z " /><path fill="rgb(235,125,125)" stroke="rgb(235,125,125)" stroke-width="1" opacity="0.996078431372549" d="M 108.5 196 L 110 196.5 L 103.5 200 L 104.5 198 L 108.5 196 Z " /><path fill="rgb(235,125,125)" stroke="rgb(235,125,125)" stroke-width="1" opacity="0.996078431372549" d="M 97.5 200 L 99 200.5 L 93.5 203 L 93 201 L 97.5 200 Z " /><path fill="rgb(235,125,125)" stroke="rgb(235,125,125)" stroke-width="1" opacity="0.996078431372549" d="M 157.5 200 L 164 201 L 163.5 203 L 157.5 201 L 157.5 200 Z " /><path fill="rgb(235,125,125)" stroke="rgb(235,125,125)" stroke-width="1" opacity="0.996078431372549" d="M 90.5 203 L 90.5 204 L 90.5 203 Z " /><path fill="rgb(235,125,125)" stroke="rgb(235,125,125)" stroke-width="1" opacity="0.996078431372549" d="M 165.5 203 L 167 203.5 L 165.5 204 L 165.5 203 Z " /><path fill="rgb(235,125,125)" stroke="rgb(235,125,125)" stroke-width="1" opacity="0.996078431372549" d="M 84.5 204 L 87 204.5 L 80.5 207 L 81.5 205 L 84.5 204 Z " /><path fill="rgb(235,125,125)" stroke="rgb(235,125,125)" stroke-width="1" opacity="0.996078431372549" d="M 170.5 204 L 177 206.5 L 175.5 206 Q 170.6 206.6 170.5 204 Z " /><path fill="rgb(235,125,125)" stroke="rgb(235,125,125)" stroke-width="1" opacity="0.996078431372549" d="M 76.5 207 L 78 207.5 L 76.5 208 L 76.5 207 Z " /><path fill="rgb(235,125,125)" stroke="rgb(235,125,125)" stroke-width="1" opacity="0.996078431372549" d="M 178.5 207 L 180 207.5 L 178.5 208 L 178.5 207 Z " /><path fill="rgb(235,125,125)" stroke="rgb(235,125,125)" stroke-width="1" opacity="0.996078431372549" d="M 71.5 208 L 74 208.5 L 68.5 210 L 68.5 209 L 71.5 208 Z " /><path fill="rgb(235,125,125)" stroke="rgb(235,125,125)" stroke-width="1" opacity="0.996078431372549" d="M 183.5 208 L 189 210.5 L 187.5 210 Q 182.7 210.1 183.5 208 Z " /><path fill="rgb(235,125,125)" stroke="rgb(235,125,125)" stroke-width="1" opacity="0.996078431372549" d="M 64.5 211 L 64.5 212 L 64.5 211 Z " /><path fill="rgb(235,125,125)" stroke="rgb(235,125,125)" stroke-width="1" opacity="0.996078431372549" d="M 192.5 211 L 192.5 212 L 192.5 211 Z " /><path fill="rgb(235,125,125)" stroke="rgb(235,125,125)" stroke-width="1" opacity="0.996078431372549" d="M 28.5 212 L 29 213.5 L 28 213.5 L 28.5 212 Z " /><path fill="rgb(235,125,125)" stroke="rgb(235,125,125)" stroke-width="1" opacity="0.996078431372549" d="M 57 212 L 61 212.5 L 57.5 214 L 57 212 Z " /><path fill="rgb(235,125,125)" stroke="rgb(235,125,125)" stroke-width="1" opacity="0.996078431372549" d="M 196.5 212 L 200 213.5 L 198.5 214 L 196.5 212 Z " /><path fill="rgb(235,125,125)" stroke="rgb(235,125,125)" stroke-width="1" opacity="0.996078431372549" d="M 54.5 214 L 54.5 215 L 54.5 214 Z " /><path fill="rgb(235,125,125)" stroke="rgb(235,125,125)" stroke-width="1" opacity="0.996078431372549" d="M 201.5 214 L 203 214.5 L 201.5 215 L 201.5 214 Z " /><path fill="rgb(235,125,125)" stroke="rgb(235,125,125)" stroke-width="1" opacity="0.996078431372549" d="M 227.5 214 L 225.5 217 L 224 216.5 L 227.5 214 Z " /><path fill="rgb(235,125,125)" stroke="rgb(235,125,125)" stroke-width="1" opacity="0.996078431372549" d="M 30.5 215 L 33 216 Q 31.8 219 35.5 218 L 35.5 219 Q 29.9 219.5 30.5 215 Z " /><path fill="rgb(235,125,125)" stroke="rgb(235,125,125)" stroke-width="1" opacity="0.996078431372549" d="M 204.5 215 L 206 215.5 L 204.5 216 L 204.5 215 Z " /><path fill="rgb(235,125,125)" stroke="rgb(235,125,125)" stroke-width="1" opacity="0.996078431372549" d="M 44 216 L 49 216.5 L 44.5 218 L 44 216 Z " /><path fill="rgb(235,125,125)" stroke="rgb(235,125,125)" stroke-width="1" opacity="0.996078431372549" d="M 208.5 216 Q 212.3 215.3 213 217.5 L 211.5 218 L 208.5 217 L 208.5 216 Z " /><path fill="rgb(235,125,125)" stroke="rgb(235,125,125)" stroke-width="1" opacity="0.996078431372549" d="M 41.5 218 L 41.5 219 L 41.5 218 Z " /><path fill="rgb(235,125,125)" stroke="rgb(235,125,125)" stroke-width="1" opacity="0.996078431372549" d="M 214.5 218 L 216 218.5 L 214.5 219 L 214.5 218 Z " /><path fill="rgb(235,125,125)" stroke="rgb(235,125,125)" stroke-width="1" opacity="0.996078431372549" d="M 222.5 218 L 222.5 219 L 222.5 218 Z " /><path fill="rgb(235,125,125)" stroke="rgb(235,125,125)" stroke-width="1" opacity="1" d="M 36.5 37 L 56 42 Q 54.9 45.5 62.5 44 L 69.5 48 L 75.5 48 L 82 50 Q 80.6 54 87.5 52 L 95.5 56 L 104 57 Q 102.7 60.3 107.5 59 L 112 61 L 112 63.5 L 116 68.5 L 116 188.5 L 112 193.5 L 112 196 Q 105.3 195.2 102.5 200 L 93 201 Q 94.3 204 90.5 203 L 81.5 205 L 79.5 207 L 68 209 Q 69.3 212.3 64.5 211 L 63.5 212 L 57 212 Q 58.3 215 54.5 214 Q 51.4 217.6 44 216 Q 45.3 219 41.5 218 L 36.5 219 L 33 218 Q 34.1 215.3 31.5 216 L 29 215 L 28 211.5 L 28 43.5 L 29 41 L 36.5 37 Z M 42 59 L 42 197 L 48 197 L 52 195 L 100 183 L 101 182 L 101 75 L 100 73 Q 73 68 51 60 L 42 59 Z " /><path fill="rgb(235,125,125)" stroke="rgb(235,125,125)" stroke-width="1" opacity="1" d="M 217.5 37 L 222.5 38 L 228 42.5 L 228 213.5 L 226.5 215 L 224 216.5 Q 224.8 218.8 222.5 218 Q 221.2 220.2 216.5 219 L 211.5 216 L 206.5 216 L 198.5 212 L 189.5 211 L 185.5 208 L 180.5 208 L 172.5 204 L 164 203 Q 165.3 200 161.5 201 Q 160 198.5 154.5 200 L 144 193.5 L 140 186.5 L 140 70.5 L 142 68.5 L 144 61 L 152 59 Q 150.8 56 154.5 57 Q 156 54.5 161.5 56 L 168.5 52 L 175 52 Q 173.8 49 177.5 50 Q 180.2 47.2 186.5 48 L 188.5 46 L 195.5 44 L 200 44 Q 198.7 40.7 203.5 42 L 217.5 37 Z " /><path fill="rgb(237,122,122)" stroke="rgb(237,122,122)" stroke-width="1" opacity="0.20784313725490197" d="M 36.5 35 L 40 35.5 L 36.5 36 L 36.5 35 Z " /><path fill="rgb(237,122,122)" stroke="rgb(237,122,122)" stroke-width="1" opacity="0.20784313725490197" d="M 216.5 35 L 221 35.5 L 216.5 36 L 216.5 35 Z " /><path fill="rgb(237,122,122)" stroke="rgb(237,122,122)" stroke-width="1" opacity="0.20784313725490197" d="M 31.5 36 L 34 36.5 L 28 41.5 L 26 47.5 L 26 209.5 L 28 216 L 30 216 Q 28.9 218.7 31.5 218 L 32.5 220 L 29 218.5 L 25 209.5 L 25 46.5 L 26 41.5 L 29 37 L 31.5 36 Z " /><path fill="rgb(237,122,122)" stroke="rgb(237,122,122)" stroke-width="1" opacity="0.20784313725490197" d="M 41.5 36 L 47.5 36 L 54.5 40 L 64 41 Q 62.8 44 66.5 43 L 109.5 56 L 116 61.5 L 118 66.5 L 118 189.5 Q 116.5 196 111.5 199 L 88.5 206 L 86.5 208 L 78.5 209 L 74.5 212 L 68.5 212 L 62 214 Q 63.1 217.5 55.5 216 Q 49.6 221.1 38.5 221 L 38.5 220 L 48.5 218 L 76.5 208 L 80.5 208 L 89.5 204 L 93.5 204 L 96.5 202 L 105.5 200 Q 112 198.5 115 193.5 L 117 187.5 L 117 69.5 L 116 64.5 L 109.5 58 L 92.5 52 L 88.5 52 L 79.5 48 L 69.5 46 L 60.5 42 L 56.5 42 L 53.5 40 L 41.5 37 L 41.5 36 Z " /><path fill="rgb(237,122,122)" stroke="rgb(237,122,122)" stroke-width="1" opacity="0.20784313725490197" d="M 209.5 36 L 215 36.5 L 203.5 40 L 204.5 38 L 209.5 36 Z " /><path fill="rgb(237,122,122)" stroke="rgb(237,122,122)" stroke-width="1" opacity="0.20784313725490197" d="M 223.5 36 L 228 37 Q 226.7 41.1 230 40 L 230 43.5 L 231 44.5 L 231 211.5 L 230 216 Q 227.3 214.9 228 217.5 L 227 220 Q 222.5 221.7 214.5 221 L 205.5 219 L 200.5 216 L 196.5 216 L 191.5 213 L 182 212 Q 183.3 209 179.5 210 Q 176.8 207.2 170.5 208 L 159.5 203 L 146.5 200 L 141 195.5 L 138 187.5 L 138 69.5 L 139 64.5 L 144.5 58 L 147.5 56 L 156.5 54 L 158.5 52 L 167.5 51 L 171.5 48 L 175.5 48 L 184.5 44 L 188.5 44 L 188.5 45 L 151.5 56 L 142 62.5 L 140 65.5 L 140 190.5 L 143 196 L 150.5 200 L 160.5 202 L 163.5 204 L 179.5 208 L 188.5 212 L 192.5 212 L 214.5 220 L 222.5 220 L 228 215.5 L 230 211.5 L 230 44.5 L 225.5 38 L 223.5 36 Z " /><path fill="rgb(237,122,122)" stroke="rgb(237,122,122)" stroke-width="1" opacity="0.20784313725490197" d="M 197.5 40 L 202 40.5 L 190.5 44 L 190.5 43 L 197.5 40 Z " /><path fill="rgb(237,122,122)" stroke="rgb(237,122,122)" stroke-width="1" opacity="0.20784313725490197" d="M 44.5 60 L 55 63.5 L 48.5 64 L 45 63 L 45.5 194 Q 48.8 191.3 55.5 192 L 55.5 193 L 43 196 L 43 61.5 L 44.5 60 Z " /><path fill="rgb(237,122,122)" stroke="rgb(237,122,122)" stroke-width="1" opacity="0.20784313725490197" d="M 56.5 64 L 70 67.5 L 64.5 68 L 57.5 66 L 56.5 64 Z " /><path fill="rgb(237,122,122)" stroke="rgb(237,122,122)" stroke-width="1" opacity="0.20784313725490197" d="M 72 68 L 85 71.5 L 79.5 72 L 72 70 L 72 68 Z " /><path fill="rgb(237,122,122)" stroke="rgb(237,122,122)" stroke-width="1" opacity="0.20784313725490197" d="M 87 72 L 100 75 L 100 180.5 L 98.5 181 L 58.5 192 L 59.5 190 L 99 180 L 99 76.5 Q 99 75.5 94.5 76 L 87 74 L 87 72 Z " /><path fill="rgb(237,122,122)" stroke="rgb(237,122,122)" stroke-width="1" opacity="0.20784313725490197" d="M 34.5 220 L 37 220.5 L 34.5 221 L 34.5 220 Z " /></svg>