<svg width="256" height="256" version="1.1" xmlns="http://www.w3.org/2000/svg" desc="Created with imagetracer.js version 1.2.6" ><path fill="rgb(125,196,234)" stroke="rgb(125,196,234)" stroke-width="1" opacity="0.9568627450980393" d="M 44.5 25 L 103.5 25 Q 112.1 26.6 117 31 L 123 43.5 L 123 123 L 42.5 123 Q 34.8 120.8 30 115.5 L 25 104.5 L 25 44.5 Q 27.4 33.4 35.5 28 L 44.5 25 Z M 48 48 L 48 101 L 101 101 L 101 48 L 48 48 Z " /><path fill="rgb(125,196,234)" stroke="rgb(125,196,234)" stroke-width="1" opacity="0.9568627450980393" d="M 151.5 25 L 211.5 25 Q 222.3 26.7 227 34.5 L 231 44.5 L 231 103.5 Q 229.1 115.1 220.5 120 L 212.5 123 L 133 123 L 133 43.5 L 139 31 L 151.5 25 Z M 155 48 L 155 101 L 208 101 L 208 48 L 155 48 Z " /><path fill="rgb(125,196,234)" stroke="rgb(125,196,234)" stroke-width="1" opacity="0.9568627450980393" d="M 42.5 133 L 123 133 L 123 212.5 Q 121 222.5 113.5 227 L 103.5 231 L 43.5 231 L 31 225 L 25 213.5 L 25 151.5 L 31 139 L 42.5 133 Z M 48 155 L 48 208 L 101 208 L 101 155 L 48 155 Z " /><path fill="rgb(125,196,234)" stroke="rgb(125,196,234)" stroke-width="1" opacity="0.9568627450980393" d="M 133 133 L 212.5 133 Q 222.4 135.1 227 142.5 L 231 152.5 L 231 211.5 Q 228.9 221.9 221.5 227 L 212.5 231 L 150.5 231 Q 142 228.5 137 222.5 L 133 213.5 L 133 133 Z M 155 155 L 155 208 L 208 208 L 208 155 L 155 155 Z " /><path fill="rgb(0,0,0)" stroke="rgb(0,0,0)" stroke-width="1" opacity="0" d="M 0 0 L 256 0 L 256 256 L 0 256 L 0 0 Z M 45 25 L 36 28 Q 27 33 25 45 L 25 105 L 30 116 Q 35 121 43 123 L 123 123 L 123 44 L 117 31 Q 112 27 104 25 L 45 25 Z M 152 25 L 139 31 L 133 44 L 133 123 L 213 123 L 221 120 Q 229 115 231 104 L 231 45 L 227 35 Q 222 27 212 25 L 152 25 Z M 43 133 L 31 139 L 25 152 L 25 214 L 31 225 L 44 231 L 104 231 L 114 227 Q 121 222 123 213 L 123 133 L 43 133 Z M 133 133 L 133 214 L 137 223 Q 142 228 151 231 L 213 231 L 222 227 Q 229 222 231 212 L 231 153 L 227 143 Q 222 135 213 133 L 133 133 Z " /><path fill="rgb(0,0,0)" stroke="rgb(0,0,0)" stroke-width="1" opacity="0" d="M 48 48 L 101 48 L 101 101 L 48 101 L 48 48 Z " /><path fill="rgb(0,0,0)" stroke="rgb(0,0,0)" stroke-width="1" opacity="0" d="M 155 48 L 208 48 L 208 101 L 155 101 L 155 48 Z " /><path fill="rgb(0,0,0)" stroke="rgb(0,0,0)" stroke-width="1" opacity="0" d="M 48 155 L 101 155 L 101 208 L 48 208 L 48 155 Z " /><path fill="rgb(0,0,0)" stroke="rgb(0,0,0)" stroke-width="1" opacity="0" d="M 155 155 L 208 155 L 208 208 L 155 208 L 155 155 Z " /></svg>