<svg width="256" height="256" version="1.1" xmlns="http://www.w3.org/2000/svg" desc="Created with imagetracer.js version 1.2.6" ><path fill="rgb(128,128,128)" stroke="rgb(128,128,128)" stroke-width="1" opacity="0.7647058823529411" d="M 58.5 16 L 62 17.5 L 60.5 17 Q 57.5 17.5 58.5 16 Z " /><path fill="rgb(128,128,128)" stroke="rgb(128,128,128)" stroke-width="1" opacity="0.7647058823529411" d="M 237.5 26 L 238.5 28 L 237.5 26 Z " /><path fill="rgb(128,128,128)" stroke="rgb(128,128,128)" stroke-width="1" opacity="0.7647058823529411" d="M 239.5 30 L 240 225.5 L 239 225.5 L 239.5 30 Z " /><path fill="rgb(128,128,128)" stroke="rgb(128,128,128)" stroke-width="1" opacity="0.7647058823529411" d="M 64.5 141 L 65 233.5 L 64 233.5 L 64.5 141 Z " /><path fill="rgb(128,128,128)" stroke="rgb(128,128,128)" stroke-width="1" opacity="0.7647058823529411" d="M 235.5 231 L 234.5 233 L 235.5 231 Z " /><path fill="rgb(128,128,128)" stroke="rgb(128,128,128)" stroke-width="1" opacity="0.7647058823529411" d="M 227.5 233 L 232 233.5 L 227.5 234 L 227.5 233 Z " /><path fill="rgb(128,128,128)" stroke="rgb(128,128,128)" stroke-width="1" opacity="0.7647058823529411" d="M 17.5 234 L 19 236.5 L 17 235.5 L 17.5 234 Z " /><path fill="rgb(128,128,128)" stroke="rgb(128,128,128)" stroke-width="1" opacity="0.7647058823529411" d="M 22.5 239 L 59 239.5 L 22.5 240 L 22.5 239 Z " /><path fill="rgb(0,0,0)" stroke="rgb(0,0,0)" stroke-width="1" opacity="0" d="M 0 0 L 256 0 L 256 256 L 0 256 L 0 0 Z M 22 16 L 20 17 L 17 20 L 16 24 L 16 234 L 17 237 L 21 240 L 61 240 L 65 236 L 65 142 L 226 234 Q 232 235 236 233 L 240 228 L 240 29 L 239 27 Q 236 22 231 21 L 222 24 L 67 114 L 66 22 L 65 20 L 62 16 L 22 16 Z " /><path fill="rgb(128,128,128)" stroke="rgb(128,128,128)" stroke-width="1" opacity="1" d="M 24.5 16 L 57.5 16 L 64 19.5 L 65 21.5 L 65 115 L 72.5 112 L 221.5 25 L 227.5 22 L 230.5 22 L 237 25.5 L 239 28.5 L 239 227.5 L 236.5 231 Q 233.9 234.4 226.5 233 L 70.5 143 L 64 141 L 64 235.5 L 60.5 239 L 21.5 239 L 19 238 L 17 233.5 L 17 22.5 L 19.5 18 L 24.5 16 Z " /><path fill="rgb(128,128,128)" stroke="rgb(128,128,128)" stroke-width="1" opacity="0.2980392156862745" d="M 61.5 16 L 62.5 18 L 61.5 16 Z " /><path fill="rgb(128,128,128)" stroke="rgb(128,128,128)" stroke-width="1" opacity="0.2980392156862745" d="M 19.5 17 L 17.5 20 L 19.5 17 Z " /><path fill="rgb(128,128,128)" stroke="rgb(128,128,128)" stroke-width="1" opacity="0.2980392156862745" d="M 65.5 21 L 66.5 114 L 69.5 112 L 68.5 114 L 65 115 L 65.5 21 Z " /><path fill="rgb(128,128,128)" stroke="rgb(128,128,128)" stroke-width="1" opacity="0.2980392156862745" d="M 16.5 23 L 17 233.5 L 16 233.5 L 16.5 23 Z " /><path fill="rgb(128,128,128)" stroke="rgb(128,128,128)" stroke-width="1" opacity="0.2980392156862745" d="M 223.5 23 L 222.5 25 L 220.5 26 L 221.5 24 L 223.5 23 Z " /><path fill="rgb(128,128,128)" stroke="rgb(128,128,128)" stroke-width="1" opacity="0.2980392156862745" d="M 235.5 23 L 238.5 27 L 235.5 23 Z " /><path fill="rgb(128,128,128)" stroke="rgb(128,128,128)" stroke-width="1" opacity="0.2980392156862745" d="M 216.5 27 L 215.5 29 L 213.5 30 L 214.5 28 L 216.5 27 Z " /><path fill="rgb(128,128,128)" stroke="rgb(128,128,128)" stroke-width="1" opacity="0.2980392156862745" d="M 209.5 31 L 208.5 33 L 209.5 31 Z " /><path fill="rgb(128,128,128)" stroke="rgb(128,128,128)" stroke-width="1" opacity="0.2980392156862745" d="M 204.5 34 L 203.5 36 L 201.5 37 L 202.5 35 L 204.5 34 Z " /><path fill="rgb(128,128,128)" stroke="rgb(128,128,128)" stroke-width="1" opacity="0.2980392156862745" d="M 197.5 38 L 196.5 40 L 194.5 41 L 195.5 39 L 197.5 38 Z " /><path fill="rgb(128,128,128)" stroke="rgb(128,128,128)" stroke-width="1" opacity="0.2980392156862745" d="M 190.5 42 L 189.5 44 L 190.5 42 Z " /><path fill="rgb(128,128,128)" stroke="rgb(128,128,128)" stroke-width="1" opacity="0.2980392156862745" d="M 185.5 45 L 184.5 47 L 182.5 48 L 183.5 46 L 185.5 45 Z " /><path fill="rgb(128,128,128)" stroke="rgb(128,128,128)" stroke-width="1" opacity="0.2980392156862745" d="M 178.5 49 L 177.5 51 L 175.5 52 L 176.5 50 L 178.5 49 Z " /><path fill="rgb(128,128,128)" stroke="rgb(128,128,128)" stroke-width="1" opacity="0.2980392156862745" d="M 171.5 53 L 170.5 55 L 168.5 56 L 169.5 54 L 171.5 53 Z " /><path fill="rgb(128,128,128)" stroke="rgb(128,128,128)" stroke-width="1" opacity="0.2980392156862745" d="M 166.5 56 L 165.5 58 L 163.5 59 L 164.5 57 L 166.5 56 Z " /><path fill="rgb(128,128,128)" stroke="rgb(128,128,128)" stroke-width="1" opacity="0.2980392156862745" d="M 159.5 60 L 158.5 62 L 156.5 63 L 157.5 61 L 159.5 60 Z " /><path fill="rgb(128,128,128)" stroke="rgb(128,128,128)" stroke-width="1" opacity="0.2980392156862745" d="M 152.5 64 L 151.5 66 L 149.5 67 L 150.5 65 L 152.5 64 Z " /><path fill="rgb(128,128,128)" stroke="rgb(128,128,128)" stroke-width="1" opacity="0.2980392156862745" d="M 145.5 68 L 144.5 70 L 145.5 68 Z " /><path fill="rgb(128,128,128)" stroke="rgb(128,128,128)" stroke-width="1" opacity="0.2980392156862745" d="M 140.5 71 L 139.5 73 L 137.5 74 L 138.5 72 L 140.5 71 Z " /><path fill="rgb(128,128,128)" stroke="rgb(128,128,128)" stroke-width="1" opacity="0.2980392156862745" d="M 133.5 75 L 132.5 77 L 130.5 78 L 131.5 76 L 133.5 75 Z " /><path fill="rgb(128,128,128)" stroke="rgb(128,128,128)" stroke-width="1" opacity="0.2980392156862745" d="M 126.5 79 L 125.5 81 L 123.5 82 L 124.5 80 L 126.5 79 Z " /><path fill="rgb(128,128,128)" stroke="rgb(128,128,128)" stroke-width="1" opacity="0.2980392156862745" d="M 121.5 82 L 120.5 84 L 118.5 85 L 119.5 83 L 121.5 82 Z " /><path fill="rgb(128,128,128)" stroke="rgb(128,128,128)" stroke-width="1" opacity="0.2980392156862745" d="M 114.5 86 L 113.5 88 L 111.5 89 L 112.5 87 L 114.5 86 Z " /><path fill="rgb(128,128,128)" stroke="rgb(128,128,128)" stroke-width="1" opacity="0.2980392156862745" d="M 107.5 90 L 106.5 92 L 104.5 93 L 105.5 91 L 107.5 90 Z " /><path fill="rgb(128,128,128)" stroke="rgb(128,128,128)" stroke-width="1" opacity="0.2980392156862745" d="M 100.5 94 L 99.5 96 L 100.5 94 Z " /><path fill="rgb(128,128,128)" stroke="rgb(128,128,128)" stroke-width="1" opacity="0.2980392156862745" d="M 95.5 97 L 94.5 99 L 92.5 100 L 93.5 98 L 95.5 97 Z " /><path fill="rgb(128,128,128)" stroke="rgb(128,128,128)" stroke-width="1" opacity="0.2980392156862745" d="M 88.5 101 L 87.5 103 L 85.5 104 L 86.5 102 L 88.5 101 Z " /><path fill="rgb(128,128,128)" stroke="rgb(128,128,128)" stroke-width="1" opacity="0.2980392156862745" d="M 81.5 105 L 80.5 107 L 81.5 105 Z " /><path fill="rgb(128,128,128)" stroke="rgb(128,128,128)" stroke-width="1" opacity="0.2980392156862745" d="M 76.5 108 L 75.5 110 L 73.5 111 L 74.5 109 L 76.5 108 Z " /><path fill="rgb(128,128,128)" stroke="rgb(128,128,128)" stroke-width="1" opacity="0.2980392156862745" d="M 65.5 141 L 68 142.5 L 66.5 142 L 65.5 141 Z " /><path fill="rgb(128,128,128)" stroke="rgb(128,128,128)" stroke-width="1" opacity="0.2980392156862745" d="M 69.5 143 L 75 146.5 L 73.5 146 Q 69.5 145.5 69.5 143 Z " /><path fill="rgb(128,128,128)" stroke="rgb(128,128,128)" stroke-width="1" opacity="0.2980392156862745" d="M 76.5 147 L 82 150.5 L 80.5 150 Q 76.5 149.5 76.5 147 Z " /><path fill="rgb(128,128,128)" stroke="rgb(128,128,128)" stroke-width="1" opacity="0.2980392156862745" d="M 83.5 151 L 89 154.5 L 87.5 154 Q 83.5 153.5 83.5 151 Z " /><path fill="rgb(128,128,128)" stroke="rgb(128,128,128)" stroke-width="1" opacity="0.2980392156862745" d="M 90.5 155 L 101 161.5 L 99.5 161 L 91.5 157 L 90.5 155 Z " /><path fill="rgb(128,128,128)" stroke="rgb(128,128,128)" stroke-width="1" opacity="0.2980392156862745" d="M 102.5 162 L 108 165.5 L 106.5 165 Q 102.5 164.5 102.5 162 Z " /><path fill="rgb(128,128,128)" stroke="rgb(128,128,128)" stroke-width="1" opacity="0.2980392156862745" d="M 109.5 166 L 115 169.5 L 113.5 169 Q 109.5 168.5 109.5 166 Z " /><path fill="rgb(128,128,128)" stroke="rgb(128,128,128)" stroke-width="1" opacity="0.2980392156862745" d="M 116.5 170 L 122 173.5 L 120.5 173 Q 116.5 172.5 116.5 170 Z " /><path fill="rgb(128,128,128)" stroke="rgb(128,128,128)" stroke-width="1" opacity="0.2980392156862745" d="M 123.5 174 L 129 177.5 L 127.5 177 Q 123.5 176.5 123.5 174 Z " /><path fill="rgb(128,128,128)" stroke="rgb(128,128,128)" stroke-width="1" opacity="0.2980392156862745" d="M 130.5 178 L 141 184.5 L 139.5 184 L 131.5 180 L 130.5 178 Z " /><path fill="rgb(128,128,128)" stroke="rgb(128,128,128)" stroke-width="1" opacity="0.2980392156862745" d="M 142.5 185 L 148 188.5 L 146.5 188 Q 142.5 187.5 142.5 185 Z " /><path fill="rgb(128,128,128)" stroke="rgb(128,128,128)" stroke-width="1" opacity="0.2980392156862745" d="M 149.5 189 L 155 192.5 L 153.5 192 Q 149.5 191.5 149.5 189 Z " /><path fill="rgb(128,128,128)" stroke="rgb(128,128,128)" stroke-width="1" opacity="0.2980392156862745" d="M 156.5 193 L 162 196.5 L 160.5 196 Q 156.5 195.5 156.5 193 Z " /><path fill="rgb(128,128,128)" stroke="rgb(128,128,128)" stroke-width="1" opacity="0.2980392156862745" d="M 163.5 197 L 169 200.5 L 167.5 200 Q 163.5 199.5 163.5 197 Z " /><path fill="rgb(128,128,128)" stroke="rgb(128,128,128)" stroke-width="1" opacity="0.2980392156862745" d="M 170.5 201 L 181 207.5 L 179.5 207 L 171.5 203 L 170.5 201 Z " /><path fill="rgb(128,128,128)" stroke="rgb(128,128,128)" stroke-width="1" opacity="0.2980392156862745" d="M 182.5 208 L 188 211.5 L 186.5 211 Q 182.5 210.5 182.5 208 Z " /><path fill="rgb(128,128,128)" stroke="rgb(128,128,128)" stroke-width="1" opacity="0.2980392156862745" d="M 189.5 212 L 195 215.5 L 193.5 215 Q 189.5 214.5 189.5 212 Z " /><path fill="rgb(128,128,128)" stroke="rgb(128,128,128)" stroke-width="1" opacity="0.2980392156862745" d="M 196.5 216 L 202 219.5 L 200.5 219 Q 196.5 218.5 196.5 216 Z " /><path fill="rgb(128,128,128)" stroke="rgb(128,128,128)" stroke-width="1" opacity="0.2980392156862745" d="M 203.5 220 L 209 223.5 L 207.5 223 Q 203.5 222.5 203.5 220 Z " /><path fill="rgb(128,128,128)" stroke="rgb(128,128,128)" stroke-width="1" opacity="0.2980392156862745" d="M 210.5 224 L 221 230.5 L 219.5 230 L 211.5 226 L 210.5 224 Z " /><path fill="rgb(128,128,128)" stroke="rgb(128,128,128)" stroke-width="1" opacity="0.2980392156862745" d="M 238.5 229 L 235.5 233 L 238.5 229 Z " /><path fill="rgb(128,128,128)" stroke="rgb(128,128,128)" stroke-width="1" opacity="0.2980392156862745" d="M 222.5 231 L 227 233.5 L 225.5 234 L 222.5 231 Z " /><path fill="rgb(128,128,128)" stroke="rgb(128,128,128)" stroke-width="1" opacity="0.2980392156862745" d="M 64.5 234 L 65 235.5 L 63 236.5 L 64.5 234 Z " /><path fill="rgb(128,128,128)" stroke="rgb(128,128,128)" stroke-width="1" opacity="0.2980392156862745" d="M 17.5 236 L 22 239.5 L 20.5 240 L 17.5 236 Z " /><path fill="rgb(128,128,128)" stroke="rgb(128,128,128)" stroke-width="1" opacity="0.2980392156862745" d="M 61.5 238 L 60.5 240 L 59 239.5 L 61.5 238 Z " /></svg>