<svg width="256" height="256" version="1.1" xmlns="http://www.w3.org/2000/svg" desc="Created with imagetracer.js version 1.2.6" ><path fill="rgb(0,0,0)" stroke="rgb(0,0,0)" stroke-width="1" opacity="0" d="M 0 0 L 256 0 L 256 256 L 0 256 L 0 0 Z M 21 16 L 16 23 L 16 235 L 17 237 L 22 240 L 61 240 L 63 239 L 65 236 L 65 142 L 227 234 L 236 233 L 240 228 L 240 29 L 239 27 L 232 21 L 228 21 L 222 24 L 67 114 L 66 22 L 65 18 L 62 16 L 21 16 Z " /><path fill="rgb(128,128,128)" stroke="rgb(128,128,128)" stroke-width="1" opacity="0.984313725490196" d="M 227.5 21 L 226.5 23 L 221.5 26 L 223.5 23 L 227.5 21 Z " /><path fill="rgb(128,128,128)" stroke="rgb(128,128,128)" stroke-width="1" opacity="0.984313725490196" d="M 232.5 22 L 239 26.5 L 240 28.5 L 240 225.5 L 239 225.5 L 239 28.5 L 235.5 24 Q 231.7 23.8 232.5 22 Z " /><path fill="rgb(128,128,128)" stroke="rgb(128,128,128)" stroke-width="1" opacity="0.984313725490196" d="M 211.5 30 L 213 30.5 L 200.5 38 L 200 36 L 204.5 35 L 211.5 30 Z " /><path fill="rgb(128,128,128)" stroke="rgb(128,128,128)" stroke-width="1" opacity="0.984313725490196" d="M 191.5 42 L 190.5 44 L 181.5 49 L 181 47 Q 187.4 46.4 191.5 42 Z " /><path fill="rgb(128,128,128)" stroke="rgb(128,128,128)" stroke-width="1" opacity="0.984313725490196" d="M 178.5 49 L 180 49.5 L 174.5 53 L 175.5 51 L 178.5 49 Z " /><path fill="rgb(128,128,128)" stroke="rgb(128,128,128)" stroke-width="1" opacity="0.984313725490196" d="M 164.5 57 L 166 57.5 L 157.5 63 L 159.5 60 L 164.5 57 Z " /><path fill="rgb(128,128,128)" stroke="rgb(128,128,128)" stroke-width="1" opacity="0.984313725490196" d="M 146.5 68 L 145.5 70 L 136.5 75 L 136 73 Q 142.4 72.4 146.5 68 Z " /><path fill="rgb(128,128,128)" stroke="rgb(128,128,128)" stroke-width="1" opacity="0.984313725490196" d="M 134.5 75 L 133.5 77 L 129.5 79 L 129 77 L 134.5 75 Z " /><path fill="rgb(128,128,128)" stroke="rgb(128,128,128)" stroke-width="1" opacity="0.984313725490196" d="M 119.5 83 L 121 83.5 L 110.5 90 L 112.5 87 L 119.5 83 Z " /><path fill="rgb(128,128,128)" stroke="rgb(128,128,128)" stroke-width="1" opacity="0.984313725490196" d="M 107.5 90 L 109 90.5 L 103.5 94 L 104.5 92 L 107.5 90 Z " /><path fill="rgb(128,128,128)" stroke="rgb(128,128,128)" stroke-width="1" opacity="0.984313725490196" d="M 96.5 97 L 95.5 99 L 84.5 105 L 84 103 L 86.5 103 L 96.5 97 Z " /><path fill="rgb(128,128,128)" stroke="rgb(128,128,128)" stroke-width="1" opacity="0.984313725490196" d="M 75.5 109 L 74.5 111 L 65.5 116 L 67.5 113 L 75.5 109 Z " /><path fill="rgb(128,128,128)" stroke="rgb(128,128,128)" stroke-width="1" opacity="0.984313725490196" d="M 70.5 143 L 76 146.5 L 74.5 147 L 70.5 143 Z " /><path fill="rgb(128,128,128)" stroke="rgb(128,128,128)" stroke-width="1" opacity="0.984313725490196" d="M 91.5 155 L 97 158.5 L 95.5 159 L 91.5 155 Z " /><path fill="rgb(128,128,128)" stroke="rgb(128,128,128)" stroke-width="1" opacity="0.984313725490196" d="M 98.5 159 L 109 165.5 L 107.5 165 L 100.5 162 L 98.5 159 Z " /><path fill="rgb(128,128,128)" stroke="rgb(128,128,128)" stroke-width="1" opacity="0.984313725490196" d="M 110.5 166 L 116 169.5 L 114.5 170 L 110.5 166 Z " /><path fill="rgb(128,128,128)" stroke="rgb(128,128,128)" stroke-width="1" opacity="0.984313725490196" d="M 131.5 178 L 137 181.5 L 135.5 182 L 131.5 178 Z " /><path fill="rgb(128,128,128)" stroke="rgb(128,128,128)" stroke-width="1" opacity="0.984313725490196" d="M 138.5 182 L 149 188.5 L 147.5 188 L 140.5 185 L 138.5 182 Z " /><path fill="rgb(128,128,128)" stroke="rgb(128,128,128)" stroke-width="1" opacity="0.984313725490196" d="M 150.5 189 L 156 192.5 L 154.5 193 L 150.5 189 Z " /><path fill="rgb(128,128,128)" stroke="rgb(128,128,128)" stroke-width="1" opacity="0.984313725490196" d="M 171.5 201 L 177 204.5 L 175.5 205 L 171.5 201 Z " /><path fill="rgb(128,128,128)" stroke="rgb(128,128,128)" stroke-width="1" opacity="0.984313725490196" d="M 178.5 205 L 189 211.5 L 187.5 211 L 180.5 208 L 178.5 205 Z " /><path fill="rgb(128,128,128)" stroke="rgb(128,128,128)" stroke-width="1" opacity="0.984313725490196" d="M 190.5 212 L 196 215.5 L 194.5 216 L 190.5 212 Z " /><path fill="rgb(128,128,128)" stroke="rgb(128,128,128)" stroke-width="1" opacity="0.984313725490196" d="M 211.5 224 L 229 233.5 L 226.5 234 L 213.5 227 L 211.5 224 Z " /><path fill="rgb(128,128,128)" stroke="rgb(128,128,128)" stroke-width="1" opacity="0.984313725490196" d="M 239.5 227 L 239 228.5 Q 239.8 230.8 237.5 230 L 236 233 L 230.5 234 L 230.5 233 L 233.5 233 L 239.5 227 Z " /><path fill="rgb(220,131,76)" stroke="rgb(220,131,76)" stroke-width="1" opacity="0.4196078431372549" d="M 20.5 16 L 22 16.5 L 18 19.5 L 17.5 21 L 17 19.5 L 20.5 16 Z " /><path fill="rgb(220,131,76)" stroke="rgb(220,131,76)" stroke-width="1" opacity="0.4196078431372549" d="M 65.5 21 L 66 114.5 L 65 114.5 L 65.5 21 Z " /><path fill="rgb(220,131,76)" stroke="rgb(220,131,76)" stroke-width="1" opacity="0.4196078431372549" d="M 16.5 22 L 17 234.5 L 20 238.5 L 17 236.5 L 16 234.5 L 16.5 22 Z " /><path fill="rgb(128,128,128)" stroke="rgb(128,128,128)" stroke-width="1" opacity="1" d="M 227.5 22 L 231.5 22 L 238 26.5 L 239 28.5 L 239 227.5 L 233.5 233 L 229.5 234 L 65 139.5 L 65 116.5 L 66.5 115 L 227.5 22 Z " /><path fill="rgb(219,129,72)" stroke="rgb(219,129,72)" stroke-width="1" opacity="0.996078431372549" d="M 22.5 16 L 59.5 16 L 64 18 L 65 20.5 L 65 233.5 L 61.5 239 L 58.5 240 L 23.5 240 L 18 236.5 L 17 234.5 L 17 21.5 L 20.5 17 L 22.5 16 Z " /></svg>