<svg width="256" height="256" version="1.1" xmlns="http://www.w3.org/2000/svg" desc="Created with imagetracer.js version 1.2.6" ><path fill="rgb(128,128,128)" stroke="rgb(128,128,128)" stroke-width="1" opacity="0.5529411764705883" d="M 195.5 16 L 198 16.5 L 193.5 18 L 193.5 17 L 195.5 16 Z " /><path fill="rgb(128,128,128)" stroke="rgb(128,128,128)" stroke-width="1" opacity="0.5529411764705883" d="M 237.5 17 L 238.5 19 L 237.5 17 Z " /><path fill="rgb(128,128,128)" stroke="rgb(128,128,128)" stroke-width="1" opacity="0.5529411764705883" d="M 192.5 19 L 192 20.5 L 192 114.5 L 190.5 115 L 191 113.5 L 191 20.5 L 192.5 19 Z " /><path fill="rgb(128,128,128)" stroke="rgb(128,128,128)" stroke-width="1" opacity="0.5529411764705883" d="M 239.5 20 L 240 22.5 L 239 22.5 L 239.5 20 Z " /><path fill="rgb(128,128,128)" stroke="rgb(128,128,128)" stroke-width="1" opacity="0.5529411764705883" d="M 22.5 22 L 24 22.5 L 18.5 27 L 19 25.5 Q 18.3 23.3 20.5 24 L 22.5 22 Z " /><path fill="rgb(128,128,128)" stroke="rgb(128,128,128)" stroke-width="1" opacity="0.5529411764705883" d="M 36.5 25 L 40 27.5 L 38.5 27 L 36.5 25 Z " /><path fill="rgb(128,128,128)" stroke="rgb(128,128,128)" stroke-width="1" opacity="0.5529411764705883" d="M 43.5 29 L 44.5 31 L 43.5 29 Z " /><path fill="rgb(128,128,128)" stroke="rgb(128,128,128)" stroke-width="1" opacity="0.5529411764705883" d="M 16.5 31 L 17 225.5 L 21.5 232 L 26 233.5 L 23.5 234 L 19 232 L 16 225.5 L 16.5 31 Z " /><path fill="rgb(128,128,128)" stroke="rgb(128,128,128)" stroke-width="1" opacity="0.5529411764705883" d="M 48.5 32 L 52 34.5 L 50.5 34 L 48.5 32 Z " /><path fill="rgb(128,128,128)" stroke="rgb(128,128,128)" stroke-width="1" opacity="0.5529411764705883" d="M 55.5 36 L 59 38.5 L 57.5 38 L 55.5 36 Z " /><path fill="rgb(128,128,128)" stroke="rgb(128,128,128)" stroke-width="1" opacity="0.5529411764705883" d="M 62.5 40 L 66 42.5 L 64.5 42 L 62.5 40 Z " /><path fill="rgb(128,128,128)" stroke="rgb(128,128,128)" stroke-width="1" opacity="0.5529411764705883" d="M 67.5 43 L 71 45.5 L 69.5 45 L 67.5 43 Z " /><path fill="rgb(128,128,128)" stroke="rgb(128,128,128)" stroke-width="1" opacity="0.5529411764705883" d="M 74.5 47 L 78 49.5 L 76.5 49 L 74.5 47 Z " /><path fill="rgb(128,128,128)" stroke="rgb(128,128,128)" stroke-width="1" opacity="0.5529411764705883" d="M 81.5 51 L 85 53.5 L 83.5 53 L 81.5 51 Z " /><path fill="rgb(128,128,128)" stroke="rgb(128,128,128)" stroke-width="1" opacity="0.5529411764705883" d="M 88.5 55 L 89.5 57 L 88.5 55 Z " /><path fill="rgb(128,128,128)" stroke="rgb(128,128,128)" stroke-width="1" opacity="0.5529411764705883" d="M 93.5 58 L 97 60.5 L 95.5 60 L 93.5 58 Z " /><path fill="rgb(128,128,128)" stroke="rgb(128,128,128)" stroke-width="1" opacity="0.5529411764705883" d="M 100.5 62 L 104 64.5 L 102.5 64 L 100.5 62 Z " /><path fill="rgb(128,128,128)" stroke="rgb(128,128,128)" stroke-width="1" opacity="0.5529411764705883" d="M 107.5 66 L 111 68.5 L 109.5 68 L 107.5 66 Z " /><path fill="rgb(128,128,128)" stroke="rgb(128,128,128)" stroke-width="1" opacity="0.5529411764705883" d="M 112.5 69 L 116 71.5 L 114.5 71 L 112.5 69 Z " /><path fill="rgb(128,128,128)" stroke="rgb(128,128,128)" stroke-width="1" opacity="0.5529411764705883" d="M 119.5 73 L 123 75.5 L 121.5 75 L 119.5 73 Z " /><path fill="rgb(128,128,128)" stroke="rgb(128,128,128)" stroke-width="1" opacity="0.5529411764705883" d="M 126.5 77 L 130 79.5 L 128.5 79 L 126.5 77 Z " /><path fill="rgb(128,128,128)" stroke="rgb(128,128,128)" stroke-width="1" opacity="0.5529411764705883" d="M 131.5 80 L 135 82.5 L 133.5 82 L 131.5 80 Z " /><path fill="rgb(128,128,128)" stroke="rgb(128,128,128)" stroke-width="1" opacity="0.5529411764705883" d="M 138.5 84 L 142 86.5 L 140.5 86 L 138.5 84 Z " /><path fill="rgb(128,128,128)" stroke="rgb(128,128,128)" stroke-width="1" opacity="0.5529411764705883" d="M 145.5 88 L 149 90.5 L 147.5 90 L 145.5 88 Z " /><path fill="rgb(128,128,128)" stroke="rgb(128,128,128)" stroke-width="1" opacity="0.5529411764705883" d="M 152.5 92 L 156 94.5 L 154.5 94 L 152.5 92 Z " /><path fill="rgb(128,128,128)" stroke="rgb(128,128,128)" stroke-width="1" opacity="0.5529411764705883" d="M 157.5 95 L 161 97.5 L 159.5 97 L 157.5 95 Z " /><path fill="rgb(128,128,128)" stroke="rgb(128,128,128)" stroke-width="1" opacity="0.5529411764705883" d="M 164.5 99 L 168 101.5 L 166.5 101 L 164.5 99 Z " /><path fill="rgb(128,128,128)" stroke="rgb(128,128,128)" stroke-width="1" opacity="0.5529411764705883" d="M 171.5 103 L 175 105.5 L 173.5 105 L 171.5 103 Z " /><path fill="rgb(128,128,128)" stroke="rgb(128,128,128)" stroke-width="1" opacity="0.5529411764705883" d="M 176.5 106 L 180 108.5 L 178.5 108 L 176.5 106 Z " /><path fill="rgb(128,128,128)" stroke="rgb(128,128,128)" stroke-width="1" opacity="0.5529411764705883" d="M 183.5 110 L 187 112.5 L 185.5 112 L 183.5 110 Z " /><path fill="rgb(128,128,128)" stroke="rgb(128,128,128)" stroke-width="1" opacity="0.5529411764705883" d="M 190.5 141 L 192 141.5 L 192 233.5 L 194 238 L 199 239.5 L 196.5 240 L 192 236.5 L 191 233.5 L 191 142.5 L 190.5 141 Z " /><path fill="rgb(128,128,128)" stroke="rgb(128,128,128)" stroke-width="1" opacity="0.5529411764705883" d="M 188.5 142 L 187.5 144 L 185.5 145 L 186.5 143 L 188.5 142 Z " /><path fill="rgb(128,128,128)" stroke="rgb(128,128,128)" stroke-width="1" opacity="0.5529411764705883" d="M 181.5 146 L 180.5 148 L 178.5 149 L 179.5 147 L 181.5 146 Z " /><path fill="rgb(128,128,128)" stroke="rgb(128,128,128)" stroke-width="1" opacity="0.5529411764705883" d="M 174.5 150 L 173.5 152 L 174.5 150 Z " /><path fill="rgb(128,128,128)" stroke="rgb(128,128,128)" stroke-width="1" opacity="0.5529411764705883" d="M 167.5 154 L 166.5 156 L 167.5 154 Z " /><path fill="rgb(128,128,128)" stroke="rgb(128,128,128)" stroke-width="1" opacity="0.5529411764705883" d="M 162.5 157 L 161.5 159 L 159.5 160 L 160.5 158 L 162.5 157 Z " /><path fill="rgb(128,128,128)" stroke="rgb(128,128,128)" stroke-width="1" opacity="0.5529411764705883" d="M 155.5 161 L 154.5 163 L 152.5 164 L 153.5 162 L 155.5 161 Z " /><path fill="rgb(128,128,128)" stroke="rgb(128,128,128)" stroke-width="1" opacity="0.5529411764705883" d="M 148.5 165 L 147.5 167 L 145.5 168 L 146.5 166 L 148.5 165 Z " /><path fill="rgb(128,128,128)" stroke="rgb(128,128,128)" stroke-width="1" opacity="0.5529411764705883" d="M 141.5 169 L 140.5 171 L 138.5 172 L 139.5 170 L 141.5 169 Z " /><path fill="rgb(128,128,128)" stroke="rgb(128,128,128)" stroke-width="1" opacity="0.5529411764705883" d="M 134.5 173 L 133.5 175 L 134.5 173 Z " /><path fill="rgb(128,128,128)" stroke="rgb(128,128,128)" stroke-width="1" opacity="0.5529411764705883" d="M 127.5 177 L 126.5 179 L 127.5 177 Z " /><path fill="rgb(128,128,128)" stroke="rgb(128,128,128)" stroke-width="1" opacity="0.5529411764705883" d="M 122.5 180 L 121.5 182 L 119.5 183 L 120.5 181 L 122.5 180 Z " /><path fill="rgb(128,128,128)" stroke="rgb(128,128,128)" stroke-width="1" opacity="0.5529411764705883" d="M 115.5 184 L 114.5 186 L 112.5 187 L 113.5 185 L 115.5 184 Z " /><path fill="rgb(128,128,128)" stroke="rgb(128,128,128)" stroke-width="1" opacity="0.5529411764705883" d="M 108.5 188 L 107.5 190 L 105.5 191 L 106.5 189 L 108.5 188 Z " /><path fill="rgb(128,128,128)" stroke="rgb(128,128,128)" stroke-width="1" opacity="0.5529411764705883" d="M 101.5 192 L 100.5 194 L 98.5 195 L 99.5 193 L 101.5 192 Z " /><path fill="rgb(128,128,128)" stroke="rgb(128,128,128)" stroke-width="1" opacity="0.5529411764705883" d="M 94.5 196 L 93.5 198 L 94.5 196 Z " /><path fill="rgb(128,128,128)" stroke="rgb(128,128,128)" stroke-width="1" opacity="0.5529411764705883" d="M 87.5 200 L 86.5 202 L 87.5 200 Z " /><path fill="rgb(128,128,128)" stroke="rgb(128,128,128)" stroke-width="1" opacity="0.5529411764705883" d="M 82.5 203 L 81.5 205 L 79.5 206 L 80.5 204 L 82.5 203 Z " /><path fill="rgb(128,128,128)" stroke="rgb(128,128,128)" stroke-width="1" opacity="0.5529411764705883" d="M 75.5 207 L 74.5 209 L 72.5 210 L 73.5 208 L 75.5 207 Z " /><path fill="rgb(128,128,128)" stroke="rgb(128,128,128)" stroke-width="1" opacity="0.5529411764705883" d="M 68.5 211 L 67.5 213 L 65.5 214 L 66.5 212 L 68.5 211 Z " /><path fill="rgb(128,128,128)" stroke="rgb(128,128,128)" stroke-width="1" opacity="0.5529411764705883" d="M 61.5 215 L 60.5 217 L 58.5 218 L 59.5 216 L 61.5 215 Z " /><path fill="rgb(128,128,128)" stroke="rgb(128,128,128)" stroke-width="1" opacity="0.5529411764705883" d="M 54.5 219 L 53.5 221 L 54.5 219 Z " /><path fill="rgb(128,128,128)" stroke="rgb(128,128,128)" stroke-width="1" opacity="0.5529411764705883" d="M 47.5 223 L 46.5 225 L 47.5 223 Z " /><path fill="rgb(128,128,128)" stroke="rgb(128,128,128)" stroke-width="1" opacity="0.5529411764705883" d="M 42.5 226 L 41.5 228 L 39.5 229 L 40.5 227 L 42.5 226 Z " /><path fill="rgb(128,128,128)" stroke="rgb(128,128,128)" stroke-width="1" opacity="0.5529411764705883" d="M 35.5 230 L 34.5 232 L 32.5 233 L 33.5 231 L 35.5 230 Z " /><path fill="rgb(128,128,128)" stroke="rgb(128,128,128)" stroke-width="1" opacity="0.5529411764705883" d="M 28.5 233 L 31 233.5 L 28.5 234 L 28.5 233 Z " /><path fill="rgb(128,128,128)" stroke="rgb(128,128,128)" stroke-width="1" opacity="0.5529411764705883" d="M 239.5 233 L 240 235.5 L 238 236.5 L 239.5 233 Z " /><path fill="rgb(128,128,128)" stroke="rgb(128,128,128)" stroke-width="1" opacity="0.5529411764705883" d="M 236.5 238 L 235.5 240 L 233 239.5 L 236.5 238 Z " /><path fill="rgb(0,0,0)" stroke="rgb(0,0,0)" stroke-width="1" opacity="0" d="M 0 0 L 256 0 L 256 256 L 0 256 L 0 0 Z M 196 16 L 193 17 L 191 21 L 191 114 L 39 26 L 28 21 L 19 24 L 16 32 L 16 226 L 19 232 L 24 234 Q 31 235 35 232 L 191 142 L 191 234 L 192 237 L 197 240 L 236 240 L 240 236 L 240 21 L 239 19 L 236 16 L 196 16 Z " /><path fill="rgb(128,128,128)" stroke="rgb(128,128,128)" stroke-width="1" opacity="1" d="M 198.5 16 L 233.5 16 L 239 19.5 L 240 23.5 L 240 232.5 L 238 238 L 232.5 240 L 199.5 240 L 194 238 L 192 233.5 L 192 141 L 179.5 147 L 31.5 233 L 26.5 234 Q 20.8 232.8 18 228.5 L 17 225.5 L 17 29.5 L 22.5 23 L 29.5 22 L 177.5 108 L 192 115 L 192 20.5 L 193 18 L 198.5 16 Z " /></svg>