<svg width="256" height="256" version="1.1" xmlns="http://www.w3.org/2000/svg" desc="Created with imagetracer.js version 1.2.6" ><path fill="rgb(0,0,0)" stroke="rgb(0,0,0)" stroke-width="1" opacity="0" d="M 0 0 L 256 0 L 256 256 L 0 256 L 0 0 Z M 196 16 L 194 17 L 191 20 L 191 114 L 29 21 Q 22 20 20 24 L 16 31 L 16 226 L 19 232 L 24 234 L 31 234 L 37 231 L 191 142 L 191 235 L 192 237 L 197 240 L 236 240 L 238 239 L 240 236 L 240 21 L 239 19 L 236 16 L 196 16 Z " /><path fill="rgb(218,131,76)" stroke="rgb(218,131,76)" stroke-width="1" opacity="0.6470588235294118" d="M 195.5 16 L 194.5 18 L 192 19.5 L 191.5 115 L 191 19.5 L 195.5 16 Z " /><path fill="rgb(218,131,76)" stroke="rgb(218,131,76)" stroke-width="1" opacity="0.6470588235294118" d="M 234.5 16 L 239 18.5 L 240 23.5 L 239 23.5 L 238 18 Q 233.8 18.1 234.5 16 Z " /><path fill="rgb(218,131,76)" stroke="rgb(218,131,76)" stroke-width="1" opacity="0.6470588235294118" d="M 191.5 140 L 192 233.5 L 191 233.5 L 191.5 140 Z " /><path fill="rgb(218,131,76)" stroke="rgb(218,131,76)" stroke-width="1" opacity="0.6470588235294118" d="M 239.5 232 L 240 235.5 L 237.5 239 L 235.5 240 L 196.5 240 L 196.5 239 L 235.5 239 L 238 238 L 239.5 232 Z " /><path fill="rgb(129,129,129)" stroke="rgb(129,129,129)" stroke-width="1" opacity="0.40784313725490196" d="M 36.5 25 L 54 35.5 L 52.5 35 L 37.5 27 L 36.5 25 Z " /><path fill="rgb(129,129,129)" stroke="rgb(129,129,129)" stroke-width="1" opacity="0.40784313725490196" d="M 16.5 30 L 17 225.5 L 16 225.5 L 16.5 30 Z " /><path fill="rgb(129,129,129)" stroke="rgb(129,129,129)" stroke-width="1" opacity="0.40784313725490196" d="M 55.5 36 L 61 39.5 L 59.5 39 Q 55.5 38.5 55.5 36 Z " /><path fill="rgb(129,129,129)" stroke="rgb(129,129,129)" stroke-width="1" opacity="0.40784313725490196" d="M 62.5 40 L 80 50.5 L 78.5 50 L 63.5 42 L 62.5 40 Z " /><path fill="rgb(129,129,129)" stroke="rgb(129,129,129)" stroke-width="1" opacity="0.40784313725490196" d="M 81.5 51 L 87 54.5 L 85.5 54 Q 81.5 53.5 81.5 51 Z " /><path fill="rgb(129,129,129)" stroke="rgb(129,129,129)" stroke-width="1" opacity="0.40784313725490196" d="M 88.5 55 L 99 61.5 L 97.5 61 L 89.5 57 L 88.5 55 Z " /><path fill="rgb(129,129,129)" stroke="rgb(129,129,129)" stroke-width="1" opacity="0.40784313725490196" d="M 100.5 62 L 106 65.5 L 104.5 65 Q 100.5 64.5 100.5 62 Z " /><path fill="rgb(129,129,129)" stroke="rgb(129,129,129)" stroke-width="1" opacity="0.40784313725490196" d="M 107.5 66 L 125 76.5 L 123.5 76 L 108.5 68 L 107.5 66 Z " /><path fill="rgb(129,129,129)" stroke="rgb(129,129,129)" stroke-width="1" opacity="0.40784313725490196" d="M 126.5 77 L 132 80.5 L 130.5 80 Q 126.5 79.5 126.5 77 Z " /><path fill="rgb(129,129,129)" stroke="rgb(129,129,129)" stroke-width="1" opacity="0.40784313725490196" d="M 133.5 81 L 144 87.5 L 142.5 87 L 134.5 83 L 133.5 81 Z " /><path fill="rgb(129,129,129)" stroke="rgb(129,129,129)" stroke-width="1" opacity="0.40784313725490196" d="M 145.5 88 L 151 91.5 L 149.5 91 Q 145.5 90.5 145.5 88 Z " /><path fill="rgb(129,129,129)" stroke="rgb(129,129,129)" stroke-width="1" opacity="0.40784313725490196" d="M 152.5 92 L 170 102.5 L 168.5 102 L 153.5 94 L 152.5 92 Z " /><path fill="rgb(129,129,129)" stroke="rgb(129,129,129)" stroke-width="1" opacity="0.40784313725490196" d="M 171.5 103 L 177 106.5 L 175.5 106 Q 171.5 105.5 171.5 103 Z " /><path fill="rgb(129,129,129)" stroke="rgb(129,129,129)" stroke-width="1" opacity="0.40784313725490196" d="M 178.5 107 L 189 113.5 L 187.5 113 L 179.5 109 L 178.5 107 Z " /><path fill="rgb(129,129,129)" stroke="rgb(129,129,129)" stroke-width="1" opacity="0.40784313725490196" d="M 190.5 141 L 189.5 143 L 185.5 145 L 186.5 143 L 190.5 141 Z " /><path fill="rgb(129,129,129)" stroke="rgb(129,129,129)" stroke-width="1" opacity="0.40784313725490196" d="M 183.5 145 L 182.5 147 L 178.5 149 L 179.5 147 L 183.5 145 Z " /><path fill="rgb(129,129,129)" stroke="rgb(129,129,129)" stroke-width="1" opacity="0.40784313725490196" d="M 176.5 149 L 175.5 151 L 171.5 153 L 172.5 151 L 176.5 149 Z " /><path fill="rgb(129,129,129)" stroke="rgb(129,129,129)" stroke-width="1" opacity="0.40784313725490196" d="M 169.5 153 L 168.5 155 L 164.5 157 L 165.5 155 L 169.5 153 Z " /><path fill="rgb(129,129,129)" stroke="rgb(129,129,129)" stroke-width="1" opacity="0.40784313725490196" d="M 162.5 157 L 161.5 159 L 145.5 168 L 146.5 166 L 162.5 157 Z " /><path fill="rgb(129,129,129)" stroke="rgb(129,129,129)" stroke-width="1" opacity="0.40784313725490196" d="M 143.5 168 L 142.5 170 L 138.5 172 L 139.5 170 L 143.5 168 Z " /><path fill="rgb(129,129,129)" stroke="rgb(129,129,129)" stroke-width="1" opacity="0.40784313725490196" d="M 136.5 172 L 135.5 174 L 131.5 176 L 132.5 174 L 136.5 172 Z " /><path fill="rgb(129,129,129)" stroke="rgb(129,129,129)" stroke-width="1" opacity="0.40784313725490196" d="M 129.5 176 L 128.5 178 L 124.5 180 L 125.5 178 L 129.5 176 Z " /><path fill="rgb(129,129,129)" stroke="rgb(129,129,129)" stroke-width="1" opacity="0.40784313725490196" d="M 122.5 180 L 121.5 182 L 105.5 191 L 106.5 189 L 122.5 180 Z " /><path fill="rgb(129,129,129)" stroke="rgb(129,129,129)" stroke-width="1" opacity="0.40784313725490196" d="M 103.5 191 L 102.5 193 L 98.5 195 L 99.5 193 L 103.5 191 Z " /><path fill="rgb(129,129,129)" stroke="rgb(129,129,129)" stroke-width="1" opacity="0.40784313725490196" d="M 96.5 195 L 95.5 197 L 91.5 199 L 92.5 197 L 96.5 195 Z " /><path fill="rgb(129,129,129)" stroke="rgb(129,129,129)" stroke-width="1" opacity="0.40784313725490196" d="M 89.5 199 L 88.5 201 L 84.5 203 L 85.5 201 L 89.5 199 Z " /><path fill="rgb(129,129,129)" stroke="rgb(129,129,129)" stroke-width="1" opacity="0.40784313725490196" d="M 82.5 203 L 81.5 205 L 65.5 214 L 66.5 212 L 82.5 203 Z " /><path fill="rgb(129,129,129)" stroke="rgb(129,129,129)" stroke-width="1" opacity="0.40784313725490196" d="M 63.5 214 L 62.5 216 L 58.5 218 L 59.5 216 L 63.5 214 Z " /><path fill="rgb(129,129,129)" stroke="rgb(129,129,129)" stroke-width="1" opacity="0.40784313725490196" d="M 56.5 218 L 55.5 220 L 51.5 222 L 52.5 220 L 56.5 218 Z " /><path fill="rgb(129,129,129)" stroke="rgb(129,129,129)" stroke-width="1" opacity="0.40784313725490196" d="M 49.5 222 L 48.5 224 L 44.5 226 L 45.5 224 L 49.5 222 Z " /><path fill="rgb(129,129,129)" stroke="rgb(129,129,129)" stroke-width="1" opacity="0.40784313725490196" d="M 42.5 226 L 41.5 228 L 29.5 234 L 29.5 233 L 42.5 226 Z " /><path fill="rgb(129,129,129)" stroke="rgb(129,129,129)" stroke-width="1" opacity="0.40784313725490196" d="M 17.5 227 L 22 232.5 L 20.5 232 Q 18.3 232.8 19 230.5 Q 16 229.5 17.5 227 Z " /><path fill="rgb(219,129,72)" stroke="rgb(219,129,72)" stroke-width="1" opacity="1" d="M 196.5 16 L 233.5 16 L 238 18 L 240 24.5 L 240 231.5 L 238 238 L 235.5 239 L 195.5 239 L 192 234.5 L 192 130.5 L 191 129.5 L 191 115.5 L 192 114.5 L 192 19.5 L 193.5 18 L 196.5 16 Z " /><path fill="rgb(128,128,128)" stroke="rgb(128,128,128)" stroke-width="1" opacity="0.996078431372549" d="M 23.5 22 L 29.5 22 L 35.5 25 L 191 115.5 L 192 139.5 L 184.5 145 L 36.5 230 L 28.5 234 L 25.5 234 L 18 228.5 L 17 226.5 L 17 29.5 L 20.5 24 L 23.5 22 Z " /></svg>