<svg width="400" height="400" version="1.1" xmlns="http://www.w3.org/2000/svg" desc="Created with imagetracer.js version 1.2.6" ><path fill="rgb(0,0,0)" stroke="rgb(0,0,0)" stroke-width="1" opacity="0" d="M 0 0 L 400 0 L 400 400 L 0 400 L 0 0 Z M 185 39 L 162 43 L 138 51 L 112 65 L 85 86 L 85 88 L 76 97 Q 77 99 74 98 L 73 102 Q 64 110 58 123 L 47 148 L 41 169 L 41 176 L 39 183 L 39 199 L 38 200 L 39 203 L 39 219 L 45 248 L 57 277 L 66 292 L 72 299 Q 71 301 74 300 L 77 306 Q 96 328 124 343 L 140 351 Q 147 351 152 355 L 167 359 L 172 359 L 178 361 L 188 361 L 189 362 L 223 361 L 242 357 L 258 351 L 261 351 L 292 334 L 314 316 L 334 292 L 347 269 L 355 248 L 355 244 L 359 232 Q 358 223 361 219 L 361 203 L 362 202 L 359 169 L 353 148 L 342 123 L 326 100 Q 327 97 324 98 L 316 88 L 306 78 Q 303 79 304 76 L 279 59 L 263 51 L 246 45 L 216 39 L 185 39 Z " /><path fill="rgb(0,0,0)" stroke="rgb(0,0,0)" stroke-width="1" opacity="0" d="M 198.5 55 L 223.5 57 L 228.5 59 L 241.5 61 L 257.5 67 L 282 80 Q 280.9 82.7 283.5 82 Q 298 91.5 309 104.5 L 328 131.5 L 337 152.5 L 343 175.5 L 344 191.5 L 345 192.5 L 345 208.5 L 344 209.5 L 343 225.5 L 337 248.5 L 329 267.5 L 318 286 Q 315.3 284.9 316 287.5 L 310 296 L 308 296 L 308 298 Q 305.3 296.9 306 299.5 L 295.5 310 L 294 310 Q 295.1 312.7 292.5 312 L 271.5 327 Q 256.1 335.6 237.5 341 L 232.5 341 L 227.5 343 L 215.5 344 L 214.5 345 L 185.5 345 L 184.5 344 L 172.5 343 L 167.5 341 L 162.5 341 L 140.5 333 L 118.5 321 L 104 310 L 104 308 L 102 308 Q 103.1 305.3 100.5 306 L 94 298 Q 91.3 299.1 92 296.5 Q 73 277 63 248.5 L 57 225.5 L 56 208.5 L 55 207.5 L 55 192.5 L 56 191.5 L 56 182.5 L 59 165.5 L 71 133.5 Q 83.9 109.4 103.5 92 L 114.5 83 L 118 82 Q 116.9 79.3 119.5 80 L 142.5 67 L 158.5 61 L 162.5 61 L 176.5 57 L 197.5 56 L 198.5 55 Z M 187 61 L 186 62 L 173 63 L 155 68 L 148 72 L 145 72 L 136 76 L 118 88 Q 115 87 116 90 L 108 96 Q 105 95 106 98 L 100 103 Q 101 105 98 104 L 98 106 L 96 106 L 76 135 L 65 164 L 60 189 L 61 190 L 61 218 L 68 248 L 82 276 L 101 300 L 108 306 L 134 324 L 145 328 L 149 331 L 174 338 L 179 338 L 185 340 L 197 340 L 198 341 L 207 341 L 208 340 L 216 340 L 222 338 L 227 338 L 252 331 Q 257 326 267 324 Q 276 315 290 310 L 293 305 L 299 300 Q 314 285 324 266 L 332 248 L 340 213 L 340 190 L 336 168 L 332 157 L 332 153 L 325 140 L 324 135 L 315 121 L 304 108 L 300 103 L 297 100 L 294 96 L 286 90 Q 283 91 284 88 L 265 76 L 240 66 L 214 61 L 187 61 Z " /><path fill="rgb(0,0,0)" stroke="rgb(0,0,0)" stroke-width="1" opacity="0" d="M 185.5 77 L 214.5 77 L 230.5 80 Q 235 83.5 242.5 84 L 268.5 97 L 285 110.5 L 286.5 113 Q 288.8 112.3 288 114.5 L 292 117.5 L 296 124 Q 298.7 122.9 298 125.5 L 304 133.5 L 304 136 Q 306.7 134.9 306 137.5 L 312 147.5 L 312 150.5 L 316 156.5 L 316 159.5 L 319 165.5 L 323 185.5 L 323 205.5 L 320 212.5 L 312 224 Q 309.3 222.9 310 225.5 L 301.5 234 L 300 234 L 300 236 Q 297.3 234.9 298 237.5 L 278.5 252 L 268 256 Q 269.3 259 265.5 258 L 251.5 264 L 247.5 264 L 233 268 L 237 253.5 L 237 237.5 L 233 222.5 L 228 213.5 L 228 204.5 L 231 196.5 L 232 184.5 L 234 181.5 L 235.5 174 L 242.5 177 L 257.5 177 L 268.5 173 L 278 166 L 287 147.5 L 287 133.5 Q 282.8 118.2 271.5 110 Q 262.5 103 245.5 104 Q 228.8 106.8 221 118.5 L 215 129.5 L 213 140.5 L 215 151.5 L 219 159.5 L 181.5 181 L 161.5 183 L 151.5 186 Q 133.8 193.3 123 207.5 L 113 226.5 L 110.5 240 Q 98 227.5 89 211.5 L 84 201.5 L 84 198.5 L 80 192.5 L 78 178.5 Q 80.6 175.6 80 169.5 L 84 160.5 L 84 156.5 L 88 150.5 L 88 147.5 L 91 141.5 L 109.5 116 L 116 110.5 L 117.5 108 L 143.5 90 L 169.5 80 L 185.5 77 Z " /><path fill="rgb(0,0,0)" stroke="rgb(0,0,0)" stroke-width="1" opacity="0" d="M 248.5 119 L 259.5 121 L 269 129.5 L 272 141.5 Q 269.8 142.8 271 147.5 L 266 156 L 257.5 161 L 249.5 162 Q 248.2 159.8 243.5 161 L 234 154.5 Q 228.5 149 229 137.5 L 234 126 L 236 126 Q 234.9 123.3 237.5 124 L 241.5 121 L 248.5 119 Z " /><path fill="rgb(0,0,0)" stroke="rgb(0,0,0)" stroke-width="1" opacity="0" d="M 215.5 180 Q 217.8 179.3 217 181.5 L 214 196 L 201 188.5 L 215.5 180 Z " /><path fill="rgb(0,0,0)" stroke="rgb(0,0,0)" stroke-width="1" opacity="0" d="M 172.5 198 L 186.5 199 L 196.5 203 L 210 214.5 L 218 226.5 L 221 235.5 L 221 240 L 210.5 244 L 194.5 248 L 167 249 L 168 213.5 L 171 199.5 L 172.5 198 Z " /><path fill="rgb(0,0,0)" stroke="rgb(0,0,0)" stroke-width="1" opacity="0" d="M 151.5 203 L 154 203.5 L 152 209.5 L 151 248 L 134.5 244 L 127 239.5 L 127 233.5 L 131 223.5 L 141.5 210 L 151.5 203 Z " /><path fill="rgb(0,0,0)" stroke="rgb(0,0,0)" stroke-width="1" opacity="0" d="M 79.5 226 L 90 242 Q 92.7 240.9 92 243.5 L 100 253 L 108 258 Q 106.9 260.7 109.5 260 L 113 262 L 118 274.5 L 118 278 L 116 278 Q 117.1 280.7 114.5 280 L 110.5 285 L 108 284 L 102 274 Q 99.3 275.1 100 272.5 L 88 253.5 L 88 250.5 L 85 246.5 Q 84.1 237.4 80 231.5 L 79.5 226 Z " /><path fill="rgb(0,0,0)" stroke="rgb(0,0,0)" stroke-width="1" opacity="0" d="M 315.5 243 L 315 244.5 L 308 261.5 L 292 284 Q 289.3 282.9 290 285.5 L 284.5 290 L 272 273.5 L 296 260 Q 294.9 257.3 297.5 258 L 304 254 Q 302.9 251.3 305.5 252 L 315.5 243 Z " /><path fill="rgb(0,0,0)" stroke="rgb(0,0,0)" stroke-width="1" opacity="0" d="M 219.5 257 L 220 259.5 L 210 278 L 208 278 Q 209.1 280.7 206.5 280 L 201.5 285 L 190.5 291 L 183.5 293 L 175 293 L 170 275.5 L 169 266 L 203.5 263 L 219.5 257 Z " /><path fill="rgb(0,0,0)" stroke="rgb(0,0,0)" stroke-width="1" opacity="0" d="M 129.5 259 Q 139 263.8 152 264 L 157 290 L 152.5 289 L 144 284 Q 145.1 281.3 142.5 282 L 131 267.5 Q 127.9 264.5 129.5 259 Z " /><path fill="rgb(0,0,0)" stroke="rgb(0,0,0)" stroke-width="1" opacity="0" d="M 252.5 280 Q 258 279 259 282.5 L 266 294 Q 268.7 292.9 268 295.5 L 272 300.5 L 258.5 310 Q 250.3 311.3 245.5 316 L 224.5 322 L 210 323 L 210 297.5 L 212.5 295 L 224.5 284 L 235.5 284 L 252.5 280 Z " /><path fill="rgb(0,0,0)" stroke="rgb(0,0,0)" stroke-width="1" opacity="0" d="M 128.5 290 L 131.5 292 L 146.5 303 L 156.5 307 L 170.5 310 L 194 306 L 194 323.5 L 190.5 324 L 189.5 323 L 175.5 322 L 154.5 316 L 138.5 308 L 123 296.5 L 128.5 290 Z " /><path fill="rgb(236,123,123)" stroke="rgb(236,123,123)" stroke-width="1" opacity="0.3686274509803922" d="M 184.5 39 L 216 39.5 L 184.5 40 L 184.5 39 Z " /><path fill="rgb(236,123,123)" stroke="rgb(236,123,123)" stroke-width="1" opacity="0.3686274509803922" d="M 185.5 55 L 198 55.5 L 185.5 56 L 185.5 55 Z " /><path fill="rgb(236,123,123)" stroke="rgb(236,123,123)" stroke-width="1" opacity="0.3686274509803922" d="M 202.5 55 L 215 55.5 L 202.5 56 L 202.5 55 Z " /><path fill="rgb(236,123,123)" stroke="rgb(236,123,123)" stroke-width="1" opacity="0.3686274509803922" d="M 186.5 61 L 214 61.5 L 186.5 62 L 186.5 61 Z " /><path fill="rgb(236,123,123)" stroke="rgb(236,123,123)" stroke-width="1" opacity="0.3686274509803922" d="M 104.5 70 L 101.5 74 L 87.5 86 L 95.5 77 L 104.5 70 Z " /><path fill="rgb(236,123,123)" stroke="rgb(236,123,123)" stroke-width="1" opacity="0.3686274509803922" d="M 249.5 70 L 258 73.5 L 255.5 74 L 249.5 71 L 249.5 70 Z " /><path fill="rgb(236,123,123)" stroke="rgb(236,123,123)" stroke-width="1" opacity="0.3686274509803922" d="M 295.5 70 L 302 75.5 L 299.5 74 L 295.5 70 Z " /><path fill="rgb(236,123,123)" stroke="rgb(236,123,123)" stroke-width="1" opacity="0.3686274509803922" d="M 144.5 72 L 147 72.5 L 140.5 75 L 140.5 74 L 144.5 72 Z " /><path fill="rgb(236,123,123)" stroke="rgb(236,123,123)" stroke-width="1" opacity="0.3686274509803922" d="M 186.5 76 L 214 76.5 L 186.5 77 L 186.5 76 Z " /><path fill="rgb(236,123,123)" stroke="rgb(236,123,123)" stroke-width="1" opacity="0.3686274509803922" d="M 222.5 78 L 230 79.5 L 226.5 80 L 222.5 79 L 222.5 78 Z " /><path fill="rgb(236,123,123)" stroke="rgb(236,123,123)" stroke-width="1" opacity="0.3686274509803922" d="M 305.5 78 L 311.5 85 L 305.5 78 Z " /><path fill="rgb(236,123,123)" stroke="rgb(236,123,123)" stroke-width="1" opacity="0.3686274509803922" d="M 128.5 80 L 130 80.5 L 120.5 87 L 122.5 84 L 128.5 80 Z " /><path fill="rgb(236,123,123)" stroke="rgb(236,123,123)" stroke-width="1" opacity="0.3686274509803922" d="M 270.5 80 L 284 88 L 283.5 90 L 271.5 82 L 270.5 80 Z " /><path fill="rgb(236,123,123)" stroke="rgb(236,123,123)" stroke-width="1" opacity="0.3686274509803922" d="M 113.5 83 L 110.5 87 L 104.5 92 L 109.5 86 L 113.5 83 Z " /><path fill="rgb(236,123,123)" stroke="rgb(236,123,123)" stroke-width="1" opacity="0.3686274509803922" d="M 150.5 86 L 152 86.5 L 144.5 90 L 144.5 89 L 150.5 86 Z " /><path fill="rgb(236,123,123)" stroke="rgb(236,123,123)" stroke-width="1" opacity="0.3686274509803922" d="M 290.5 86 L 294.5 91 L 290.5 86 Z " /><path fill="rgb(236,123,123)" stroke="rgb(236,123,123)" stroke-width="1" opacity="0.3686274509803922" d="M 84.5 88 L 76.5 97 L 84.5 88 Z " /><path fill="rgb(236,123,123)" stroke="rgb(236,123,123)" stroke-width="1" opacity="0.3686274509803922" d="M 316.5 89 L 323.5 97 L 316.5 89 Z " /><path fill="rgb(236,123,123)" stroke="rgb(236,123,123)" stroke-width="1" opacity="0.3686274509803922" d="M 114.5 90 L 111.5 94 L 100.5 103 L 102.5 100 L 106 97.5 Q 105.3 95.3 107.5 96 L 114.5 90 Z " /><path fill="rgb(236,123,123)" stroke="rgb(236,123,123)" stroke-width="1" opacity="0.3686274509803922" d="M 141.5 90 L 143 90.5 L 127.5 100 L 116 109.5 L 110.5 116 L 108 117.5 L 90.5 143 L 90 141.5 Q 94.6 138.1 96 131.5 L 110.5 114 L 114 111.5 L 118.5 106 L 141.5 90 Z " /><path fill="rgb(236,123,123)" stroke="rgb(236,123,123)" stroke-width="1" opacity="0.3686274509803922" d="M 257.5 90 Q 274.2 97.8 286 110.5 L 287 112.5 L 285 111.5 L 282.5 108 L 268.5 97 L 261.5 94 L 257.5 90 Z " /><path fill="rgb(236,123,123)" stroke="rgb(236,123,123)" stroke-width="1" opacity="0.3686274509803922" d="M 285.5 90 L 294 96 L 296 99.5 L 289.5 94 L 285.5 90 Z " /><path fill="rgb(236,123,123)" stroke="rgb(236,123,123)" stroke-width="1" opacity="0.3686274509803922" d="M 296.5 91 L 308.5 104 L 296.5 91 Z " /><path fill="rgb(236,123,123)" stroke="rgb(236,123,123)" stroke-width="1" opacity="0.3686274509803922" d="M 102.5 92 L 92.5 103 L 102.5 92 Z " /><path fill="rgb(236,123,123)" stroke="rgb(236,123,123)" stroke-width="1" opacity="0.3686274509803922" d="M 72.5 102 L 70 105.5 L 66.5 110 L 69 106.5 L 72.5 102 Z " /><path fill="rgb(236,123,123)" stroke="rgb(236,123,123)" stroke-width="1" opacity="0.3686274509803922" d="M 328.5 103 L 334 109.5 L 330 106.5 L 328.5 103 Z " /><path fill="rgb(236,123,123)" stroke="rgb(236,123,123)" stroke-width="1" opacity="0.3686274509803922" d="M 91.5 104 L 86.5 110 L 91.5 104 Z " /><path fill="rgb(236,123,123)" stroke="rgb(236,123,123)" stroke-width="1" opacity="0.3686274509803922" d="M 98 104 L 100 104.5 L 84.5 123 L 85 121.5 L 96 106 Q 99 107 98 104 Z " /><path fill="rgb(236,123,123)" stroke="rgb(236,123,123)" stroke-width="1" opacity="0.3686274509803922" d="M 245.5 104 L 256 104.5 L 245.5 105 L 245.5 104 Z " /><path fill="rgb(236,123,123)" stroke="rgb(236,123,123)" stroke-width="1" opacity="0.3686274509803922" d="M 300.5 104 L 302 104 L 302 106 Q 304.7 104.9 304 107.5 L 316 122.5 L 314 121.5 L 300.5 104 Z " /><path fill="rgb(236,123,123)" stroke="rgb(236,123,123)" stroke-width="1" opacity="0.3686274509803922" d="M 309.5 105 L 313.5 110 L 309.5 105 Z " /><path fill="rgb(236,123,123)" stroke="rgb(236,123,123)" stroke-width="1" opacity="0.3686274509803922" d="M 229.5 110 L 221.5 119 L 229.5 110 Z " /><path fill="rgb(236,123,123)" stroke="rgb(236,123,123)" stroke-width="1" opacity="0.3686274509803922" d="M 271.5 110 L 279.5 119 L 271.5 110 Z " /><path fill="rgb(236,123,123)" stroke="rgb(236,123,123)" stroke-width="1" opacity="0.3686274509803922" d="M 314.5 111 L 320 117.5 L 317 115.5 L 314.5 111 Z " /><path fill="rgb(236,123,123)" stroke="rgb(236,123,123)" stroke-width="1" opacity="0.3686274509803922" d="M 288.5 113 L 298 123.5 L 296 124 L 290.5 116 L 288 114.5 L 288.5 113 Z " /><path fill="rgb(236,123,123)" stroke="rgb(236,123,123)" stroke-width="1" opacity="0.3686274509803922" d="M 260.5 121 L 270 129.5 L 269.5 131 L 262.5 123 L 260.5 121 Z " /><path fill="rgb(236,123,123)" stroke="rgb(236,123,123)" stroke-width="1" opacity="0.3686274509803922" d="M 298.5 125 L 306 135.5 L 304 136 L 304 133.5 L 298.5 125 Z " /><path fill="rgb(236,123,123)" stroke="rgb(236,123,123)" stroke-width="1" opacity="0.3686274509803922" d="M 233.5 127 L 232 129.5 L 230.5 134 L 230 131.5 L 233.5 127 Z " /><path fill="rgb(236,123,123)" stroke="rgb(236,123,123)" stroke-width="1" opacity="0.3686274509803922" d="M 78.5 132 L 78 133.5 L 72.5 146 L 72 144.5 L 76 134.5 L 78.5 132 Z " /><path fill="rgb(236,123,123)" stroke="rgb(236,123,123)" stroke-width="1" opacity="0.3686274509803922" d="M 321.5 132 Q 324.8 133.8 325 138.5 L 324 138.5 L 321.5 132 Z " /><path fill="rgb(236,123,123)" stroke="rgb(236,123,123)" stroke-width="1" opacity="0.3686274509803922" d="M 286.5 133 L 287 147.5 L 286 147.5 L 286.5 133 Z " /><path fill="rgb(236,123,123)" stroke="rgb(236,123,123)" stroke-width="1" opacity="0.3686274509803922" d="M 332.5 141 L 336 149.5 L 335 149.5 L 332.5 141 Z " /><path fill="rgb(236,123,123)" stroke="rgb(236,123,123)" stroke-width="1" opacity="0.3686274509803922" d="M 49.5 142 L 50 144.5 L 47.5 150 L 47 147.5 L 49.5 142 Z " /><path fill="rgb(236,123,123)" stroke="rgb(236,123,123)" stroke-width="1" opacity="0.3686274509803922" d="M 326.5 142 L 330 148.5 L 328 147.5 L 326.5 142 Z " /><path fill="rgb(236,123,123)" stroke="rgb(236,123,123)" stroke-width="1" opacity="0.3686274509803922" d="M 350.5 142 L 353 149.5 L 352 149.5 L 350.5 142 Z " /><path fill="rgb(236,123,123)" stroke="rgb(236,123,123)" stroke-width="1" opacity="0.3686274509803922" d="M 237.5 157 L 243 160.5 L 241.5 161 L 237.5 157 Z " /><path fill="rgb(236,123,123)" stroke="rgb(236,123,123)" stroke-width="1" opacity="0.3686274509803922" d="M 219.5 159 L 217.5 162 L 213.5 164 L 213.5 163 L 219.5 159 Z " /><path fill="rgb(236,123,123)" stroke="rgb(236,123,123)" stroke-width="1" opacity="0.3686274509803922" d="M 65.5 163 L 66 166.5 L 64.5 171 L 64 167.5 L 65.5 163 Z " /><path fill="rgb(236,123,123)" stroke="rgb(236,123,123)" stroke-width="1" opacity="0.3686274509803922" d="M 210.5 164 L 212 164.5 L 206.5 168 L 208.5 165 L 210.5 164 Z " /><path fill="rgb(236,123,123)" stroke="rgb(236,123,123)" stroke-width="1" opacity="0.3686274509803922" d="M 79.5 170 L 80 173.5 L 78.5 178 L 78 173.5 L 79.5 170 Z " /><path fill="rgb(236,123,123)" stroke="rgb(236,123,123)" stroke-width="1" opacity="0.3686274509803922" d="M 200.5 170 L 199.5 172 L 187.5 178 L 188.5 176 L 200.5 170 Z " /><path fill="rgb(236,123,123)" stroke="rgb(236,123,123)" stroke-width="1" opacity="0.3686274509803922" d="M 320.5 170 L 322 177.5 L 321 177.5 L 320.5 170 Z " /><path fill="rgb(236,123,123)" stroke="rgb(236,123,123)" stroke-width="1" opacity="0.3686274509803922" d="M 242.5 176 L 258 176.5 L 242.5 177 L 242.5 176 Z " /><path fill="rgb(236,123,123)" stroke="rgb(236,123,123)" stroke-width="1" opacity="0.3686274509803922" d="M 217.5 178 L 218 180.5 L 216.5 180 L 209.5 184 L 210.5 182 L 217.5 178 Z " /><path fill="rgb(236,123,123)" stroke="rgb(236,123,123)" stroke-width="1" opacity="0.3686274509803922" d="M 39.5 182 L 40 197.5 L 39 197.5 L 39.5 182 Z " /><path fill="rgb(236,123,123)" stroke="rgb(236,123,123)" stroke-width="1" opacity="0.3686274509803922" d="M 169.5 182 L 178 182.5 L 169.5 183 L 169.5 182 Z " /><path fill="rgb(236,123,123)" stroke="rgb(236,123,123)" stroke-width="1" opacity="0.3686274509803922" d="M 360.5 182 L 361 196.5 L 360 196.5 L 360.5 182 Z " /><path fill="rgb(236,123,123)" stroke="rgb(236,123,123)" stroke-width="1" opacity="0.3686274509803922" d="M 55.5 183 L 56 191.5 L 55 191.5 L 55.5 183 Z " /><path fill="rgb(236,123,123)" stroke="rgb(236,123,123)" stroke-width="1" opacity="0.3686274509803922" d="M 338.5 183 L 340 189.5 L 340 212.5 L 339 212.5 L 338.5 183 Z " /><path fill="rgb(236,123,123)" stroke="rgb(236,123,123)" stroke-width="1" opacity="0.3686274509803922" d="M 344.5 183 L 345 191.5 L 344 191.5 L 344.5 183 Z " /><path fill="rgb(236,123,123)" stroke="rgb(236,123,123)" stroke-width="1" opacity="0.3686274509803922" d="M 78.5 184 L 80 191.5 L 79 191.5 L 78.5 184 Z " /><path fill="rgb(236,123,123)" stroke="rgb(236,123,123)" stroke-width="1" opacity="0.3686274509803922" d="M 231.5 185 L 232 191.5 L 230.5 197 L 230 189.5 L 231.5 185 Z " /><path fill="rgb(236,123,123)" stroke="rgb(236,123,123)" stroke-width="1" opacity="0.3686274509803922" d="M 202.5 186 L 204 186.5 L 201 188.5 L 203 189.5 L 201.5 190 L 199 188.5 L 202.5 186 Z " /><path fill="rgb(236,123,123)" stroke="rgb(236,123,123)" stroke-width="1" opacity="0.3686274509803922" d="M 323.5 186 L 324 204.5 L 323 204.5 L 323.5 186 Z " /><path fill="rgb(236,123,123)" stroke="rgb(236,123,123)" stroke-width="1" opacity="0.3686274509803922" d="M 61.5 190 L 62 217.5 L 61 217.5 L 61.5 190 Z " /><path fill="rgb(236,123,123)" stroke="rgb(236,123,123)" stroke-width="1" opacity="0.3686274509803922" d="M 54.5 193 L 55 206.5 L 54 206.5 L 54.5 193 Z " /><path fill="rgb(236,123,123)" stroke="rgb(236,123,123)" stroke-width="1" opacity="0.3686274509803922" d="M 138.5 193 L 136.5 196 L 124 207.5 L 121.5 211 L 123 208.5 L 135.5 195 L 138.5 193 Z " /><path fill="rgb(236,123,123)" stroke="rgb(236,123,123)" stroke-width="1" opacity="0.3686274509803922" d="M 345.5 193 L 346 206.5 L 345 206.5 L 345.5 193 Z " /><path fill="rgb(236,123,123)" stroke="rgb(236,123,123)" stroke-width="1" opacity="0.3686274509803922" d="M 171 197 L 175 197.5 L 171 199.5 L 170.5 203 L 170 199.5 L 171 197 Z " /><path fill="rgb(236,123,123)" stroke="rgb(236,123,123)" stroke-width="1" opacity="0.3686274509803922" d="M 176.5 198 L 186 198.5 L 176.5 199 L 176.5 198 Z " /><path fill="rgb(236,123,123)" stroke="rgb(236,123,123)" stroke-width="1" opacity="0.3686274509803922" d="M 154.5 201 L 155 204.5 L 154 205.5 L 152.5 221 L 152 209.5 L 154 203.5 L 151.5 203 L 150 203.5 L 154.5 201 Z " /><path fill="rgb(236,123,123)" stroke="rgb(236,123,123)" stroke-width="1" opacity="0.3686274509803922" d="M 84.5 202 L 88 208.5 L 87 208.5 L 84.5 202 Z " /><path fill="rgb(236,123,123)" stroke="rgb(236,123,123)" stroke-width="1" opacity="0.3686274509803922" d="M 39.5 203 L 40 218.5 L 39 218.5 L 39.5 203 Z " /><path fill="rgb(236,123,123)" stroke="rgb(236,123,123)" stroke-width="1" opacity="0.3686274509803922" d="M 360.5 203 L 361 218.5 L 360 218.5 L 360.5 203 Z " /><path fill="rgb(236,123,123)" stroke="rgb(236,123,123)" stroke-width="1" opacity="0.3686274509803922" d="M 227.5 205 L 228 212.5 L 227 212.5 L 226 209.5 L 227.5 205 Z " /><path fill="rgb(236,123,123)" stroke="rgb(236,123,123)" stroke-width="1" opacity="0.3686274509803922" d="M 55.5 208 L 56 217.5 L 55 217.5 L 55.5 208 Z " /><path fill="rgb(236,123,123)" stroke="rgb(236,123,123)" stroke-width="1" opacity="0.3686274509803922" d="M 204.5 208 L 209.5 214 L 204.5 208 Z " /><path fill="rgb(236,123,123)" stroke="rgb(236,123,123)" stroke-width="1" opacity="0.3686274509803922" d="M 321.5 208 L 322 210.5 L 318.5 215 L 320 212.5 L 321.5 208 Z " /><path fill="rgb(236,123,123)" stroke="rgb(236,123,123)" stroke-width="1" opacity="0.3686274509803922" d="M 344.5 209 L 345 217.5 L 344 217.5 L 344.5 209 Z " /><path fill="rgb(236,123,123)" stroke="rgb(236,123,123)" stroke-width="1" opacity="0.3686274509803922" d="M 167.5 214 L 168 222.5 L 167 223.5 L 167 249 L 193.5 248 L 193.5 249 L 188.5 250 L 167.5 250 L 166 248.5 L 166 219.5 L 167.5 214 Z " /><path fill="rgb(236,123,123)" stroke="rgb(236,123,123)" stroke-width="1" opacity="0.3686274509803922" d="M 317.5 216 L 317 217.5 L 304 234 L 296.5 240 L 298 237.5 L 298 236 L 300 236 Q 298.9 233.3 301.5 234 L 310 225.5 L 310 224 Q 312.7 225.1 312 222.5 L 317.5 216 Z " /><path fill="rgb(236,123,123)" stroke="rgb(236,123,123)" stroke-width="1" opacity="0.3686274509803922" d="M 78.5 223 L 87 235.5 L 84 233.5 L 80.5 228 L 79.5 231 Q 77 228 78.5 223 Z " /><path fill="rgb(236,123,123)" stroke="rgb(236,123,123)" stroke-width="1" opacity="0.3686274509803922" d="M 151.5 223 L 152 247.5 L 150 248.5 L 151 247.5 L 151.5 223 Z " /><path fill="rgb(236,123,123)" stroke="rgb(236,123,123)" stroke-width="1" opacity="0.3686274509803922" d="M 98.5 226 L 110.5 240 L 111.5 235 L 112 239.5 L 110.5 241 L 106 236.5 L 98.5 226 Z " /><path fill="rgb(236,123,123)" stroke="rgb(236,123,123)" stroke-width="1" opacity="0.3686274509803922" d="M 126.5 234 Q 125.6 239.4 128.5 241 L 130 241.5 L 127.5 242 Q 124.1 240.1 126.5 234 Z " /><path fill="rgb(236,123,123)" stroke="rgb(236,123,123)" stroke-width="1" opacity="0.3686274509803922" d="M 221.5 236 L 222 241 L 216.5 242 L 216.5 241 L 221 240 L 221.5 236 Z " /><path fill="rgb(236,123,123)" stroke="rgb(236,123,123)" stroke-width="1" opacity="0.3686274509803922" d="M 236.5 237 L 237 253.5 L 236 253.5 L 236.5 237 Z " /><path fill="rgb(236,123,123)" stroke="rgb(236,123,123)" stroke-width="1" opacity="0.3686274509803922" d="M 293.5 240 L 295 240.5 L 279.5 252 L 282.5 248 L 293.5 240 Z " /><path fill="rgb(236,123,123)" stroke="rgb(236,123,123)" stroke-width="1" opacity="0.3686274509803922" d="M 317.5 240 L 317 241.5 Q 317.8 243.8 315.5 243 L 316 244.5 L 315.5 246 L 314.5 244 L 305.5 252 L 310.5 246 L 314 243.5 Q 313.3 241.3 315.5 242 L 317.5 240 Z " /><path fill="rgb(236,123,123)" stroke="rgb(236,123,123)" stroke-width="1" opacity="0.3686274509803922" d="M 92.5 243 L 106 255.5 L 107 257.5 L 101.5 253 Q 99.3 253.8 100 251.5 L 92.5 243 Z " /><path fill="rgb(236,123,123)" stroke="rgb(236,123,123)" stroke-width="1" opacity="0.3686274509803922" d="M 211.5 243 L 213 243.5 Q 210.1 246.6 203.5 246 L 203.5 245 L 211.5 243 Z " /><path fill="rgb(236,123,123)" stroke="rgb(236,123,123)" stroke-width="1" opacity="0.3686274509803922" d="M 84.5 244 L 88 252.5 L 87 252.5 L 84 246.5 L 84.5 244 Z " /><path fill="rgb(236,123,123)" stroke="rgb(236,123,123)" stroke-width="1" opacity="0.3686274509803922" d="M 276.5 252 L 278 252.5 L 271.5 256 L 272.5 254 L 276.5 252 Z " /><path fill="rgb(236,123,123)" stroke="rgb(236,123,123)" stroke-width="1" opacity="0.3686274509803922" d="M 303.5 252 L 304 254 L 297.5 258 L 299.5 255 L 303.5 252 Z " /><path fill="rgb(236,123,123)" stroke="rgb(236,123,123)" stroke-width="1" opacity="0.3686274509803922" d="M 128 258 L 133 259.5 L 130.5 260 L 129 259.5 L 128.5 263 L 128 258 Z " /><path fill="rgb(236,123,123)" stroke="rgb(236,123,123)" stroke-width="1" opacity="0.3686274509803922" d="M 265.5 258 L 267 258.5 Q 265 261.5 259.5 261 L 259.5 260 Q 264.1 260.6 265.5 258 Z " /><path fill="rgb(236,123,123)" stroke="rgb(236,123,123)" stroke-width="1" opacity="0.3686274509803922" d="M 295.5 258 L 296 260 L 288.5 264 L 289.5 262 L 295.5 258 Z " /><path fill="rgb(236,123,123)" stroke="rgb(236,123,123)" stroke-width="1" opacity="0.3686274509803922" d="M 74.5 260 L 80 269.5 L 77 267.5 L 74.5 260 Z " /><path fill="rgb(236,123,123)" stroke="rgb(236,123,123)" stroke-width="1" opacity="0.3686274509803922" d="M 141.5 262 Q 148.3 260.7 151 263.5 L 146.5 264 L 141.5 263 L 141.5 262 Z " /><path fill="rgb(236,123,123)" stroke="rgb(236,123,123)" stroke-width="1" opacity="0.3686274509803922" d="M 194.5 262 L 204 262.5 L 189.5 264 L 189.5 263 L 194.5 262 Z " /><path fill="rgb(236,123,123)" stroke="rgb(236,123,123)" stroke-width="1" opacity="0.3686274509803922" d="M 307.5 262 L 306 264.5 Q 301.5 276 292.5 283 L 297 277.5 L 307.5 262 Z " /><path fill="rgb(236,123,123)" stroke="rgb(236,123,123)" stroke-width="1" opacity="0.3686274509803922" d="M 94.5 264 L 100 273.5 L 98 272.5 L 94 266.5 L 94.5 264 Z " /><path fill="rgb(236,123,123)" stroke="rgb(236,123,123)" stroke-width="1" opacity="0.3686274509803922" d="M 169.5 264 L 188 264.5 L 169 266 L 168.5 270 L 168 265.5 L 169.5 264 Z " /><path fill="rgb(236,123,123)" stroke="rgb(236,123,123)" stroke-width="1" opacity="0.3686274509803922" d="M 247.5 264 L 251 264.5 Q 248.9 266.9 243.5 266 L 243.5 265 L 247.5 264 Z " /><path fill="rgb(236,123,123)" stroke="rgb(236,123,123)" stroke-width="1" opacity="0.3686274509803922" d="M 323.5 264 L 324 265.5 L 318.5 274 L 319 272.5 L 323.5 264 Z " /><path fill="rgb(236,123,123)" stroke="rgb(236,123,123)" stroke-width="1" opacity="0.3686274509803922" d="M 152.5 265 L 154 266.5 L 155 277.5 L 154 277.5 L 152.5 265 Z " /><path fill="rgb(236,123,123)" stroke="rgb(236,123,123)" stroke-width="1" opacity="0.3686274509803922" d="M 130.5 266 L 136 272.5 L 130 267.5 L 130.5 266 Z " /><path fill="rgb(236,123,123)" stroke="rgb(236,123,123)" stroke-width="1" opacity="0.3686274509803922" d="M 215.5 269 L 216 270.5 L 210.5 277 L 213 273.5 L 215.5 269 Z " /><path fill="rgb(236,123,123)" stroke="rgb(236,123,123)" stroke-width="1" opacity="0.3686274509803922" d="M 275.5 270 L 277 270.5 L 272 273.5 L 272.5 275 L 271 272 L 275.5 270 Z " /><path fill="rgb(236,123,123)" stroke="rgb(236,123,123)" stroke-width="1" opacity="0.3686274509803922" d="M 80.5 271 L 86 279.5 L 84 278.5 L 80.5 271 Z " /><path fill="rgb(236,123,123)" stroke="rgb(236,123,123)" stroke-width="1" opacity="0.3686274509803922" d="M 317.5 275 L 316 277.5 L 312 284.5 L 298.5 300 L 293.5 304 L 306 290.5 L 317.5 275 Z " /><path fill="rgb(236,123,123)" stroke="rgb(236,123,123)" stroke-width="1" opacity="0.3686274509803922" d="M 102.5 276 L 108 282.5 L 102 277.5 L 102.5 276 Z " /><path fill="rgb(236,123,123)" stroke="rgb(236,123,123)" stroke-width="1" opacity="0.3686274509803922" d="M 273.5 276 L 282 286.5 L 277 282.5 L 273.5 276 Z " /><path fill="rgb(236,123,123)" stroke="rgb(236,123,123)" stroke-width="1" opacity="0.3686274509803922" d="M 116 278 L 118 278.5 L 109.5 286 L 108.5 284 L 110.5 285 L 114.5 280 Q 117.1 280.7 116 278 Z " /><path fill="rgb(236,123,123)" stroke="rgb(236,123,123)" stroke-width="1" opacity="0.3686274509803922" d="M 253.5 279 Q 259.3 278.3 260 282.5 L 266 291.5 L 264 290.5 L 256.5 280 Q 252.5 280.8 253.5 279 Z " /><path fill="rgb(236,123,123)" stroke="rgb(236,123,123)" stroke-width="1" opacity="0.3686274509803922" d="M 206.5 280 L 202.5 285 L 206.5 280 Z " /><path fill="rgb(236,123,123)" stroke="rgb(236,123,123)" stroke-width="1" opacity="0.3686274509803922" d="M 339.5 281 L 339 282.5 L 335.5 288 L 336 286.5 L 339.5 281 Z " /><path fill="rgb(236,123,123)" stroke="rgb(236,123,123)" stroke-width="1" opacity="0.3686274509803922" d="M 234.5 282 L 243 282.5 L 235.5 284 L 225.5 284 L 225.5 283 L 233.5 283 L 234.5 282 Z " /><path fill="rgb(236,123,123)" stroke="rgb(236,123,123)" stroke-width="1" opacity="0.3686274509803922" d="M 156.5 283 L 158 291 L 156 290.5 L 157 288.5 Q 154.7 287.1 156.5 283 Z " /><path fill="rgb(236,123,123)" stroke="rgb(236,123,123)" stroke-width="1" opacity="0.3686274509803922" d="M 223.5 284 L 213.5 295 L 223.5 284 Z " /><path fill="rgb(236,123,123)" stroke="rgb(236,123,123)" stroke-width="1" opacity="0.3686274509803922" d="M 290 284 L 292 284.5 L 285.5 291 L 283.5 291 L 282 288.5 L 284.5 290 L 290 285.5 L 290 284 Z " /><path fill="rgb(236,123,123)" stroke="rgb(236,123,123)" stroke-width="1" opacity="0.3686274509803922" d="M 90.5 286 L 108 305.5 L 101 299.5 L 92 289.5 L 90.5 286 Z " /><path fill="rgb(236,123,123)" stroke="rgb(236,123,123)" stroke-width="1" opacity="0.3686274509803922" d="M 127.5 289 L 129 289.5 L 123 296.5 L 135 305.5 L 133.5 306 L 122 298 Q 121 294.2 123.5 293 L 126 291.5 L 127.5 289 Z " /><path fill="rgb(236,123,123)" stroke="rgb(236,123,123)" stroke-width="1" opacity="0.3686274509803922" d="M 86.5 291 L 91.5 297 L 86.5 291 Z " /><path fill="rgb(236,123,123)" stroke="rgb(236,123,123)" stroke-width="1" opacity="0.3686274509803922" d="M 174.5 291 L 175 293 L 183 293.5 L 175.5 294 L 174.5 291 Z " /><path fill="rgb(236,123,123)" stroke="rgb(236,123,123)" stroke-width="1" opacity="0.3686274509803922" d="M 333.5 291 L 331 294.5 L 328.5 298 L 330 295.5 L 333.5 291 Z " /><path fill="rgb(236,123,123)" stroke="rgb(236,123,123)" stroke-width="1" opacity="0.3686274509803922" d="M 209.5 298 L 210 323 L 217 323.5 L 210.5 324 L 209 322.5 L 209.5 298 Z " /><path fill="rgb(236,123,123)" stroke="rgb(236,123,123)" stroke-width="1" opacity="0.3686274509803922" d="M 94.5 300 L 99.5 306 L 94.5 300 Z " /><path fill="rgb(236,123,123)" stroke="rgb(236,123,123)" stroke-width="1" opacity="0.3686274509803922" d="M 305.5 300 L 296.5 310 L 305.5 300 Z " /><path fill="rgb(236,123,123)" stroke="rgb(236,123,123)" stroke-width="1" opacity="0.3686274509803922" d="M 271.5 301 L 269.5 304 L 265.5 306 L 266.5 304 L 271.5 301 Z " /><path fill="rgb(236,123,123)" stroke="rgb(236,123,123)" stroke-width="1" opacity="0.3686274509803922" d="M 323.5 304 L 314.5 314 L 323.5 304 Z " /><path fill="rgb(236,123,123)" stroke="rgb(236,123,123)" stroke-width="1" opacity="0.3686274509803922" d="M 77.5 305 L 94.5 323 L 77.5 305 Z " /><path fill="rgb(236,123,123)" stroke="rgb(236,123,123)" stroke-width="1" opacity="0.3686274509803922" d="M 192.5 305 L 195 305.5 L 195 323.5 L 191.5 325 L 191.5 324 L 194 323.5 L 194 306 L 192.5 305 Z " /><path fill="rgb(236,123,123)" stroke="rgb(236,123,123)" stroke-width="1" opacity="0.3686274509803922" d="M 109.5 306 L 119 313.5 L 116.5 312 L 109.5 307 L 109.5 306 Z " /><path fill="rgb(236,123,123)" stroke="rgb(236,123,123)" stroke-width="1" opacity="0.3686274509803922" d="M 136.5 306 L 150 313.5 L 148.5 314 L 138.5 309 L 136.5 306 Z " /><path fill="rgb(236,123,123)" stroke="rgb(236,123,123)" stroke-width="1" opacity="0.3686274509803922" d="M 172.5 308 L 181 308.5 L 172.5 309 L 172.5 308 Z " /><path fill="rgb(236,123,123)" stroke="rgb(236,123,123)" stroke-width="1" opacity="0.3686274509803922" d="M 105.5 310 L 109.5 315 L 105.5 310 Z " /><path fill="rgb(236,123,123)" stroke="rgb(236,123,123)" stroke-width="1" opacity="0.3686274509803922" d="M 256.5 310 L 258 310.5 L 250.5 314 L 251.5 312 L 256.5 310 Z " /><path fill="rgb(236,123,123)" stroke="rgb(236,123,123)" stroke-width="1" opacity="0.3686274509803922" d="M 111.5 315 L 118 320.5 L 114.5 318 L 111.5 315 Z " /><path fill="rgb(236,123,123)" stroke="rgb(236,123,123)" stroke-width="1" opacity="0.3686274509803922" d="M 311.5 316 L 304.5 324 L 311.5 316 Z " /><path fill="rgb(236,123,123)" stroke="rgb(236,123,123)" stroke-width="1" opacity="0.3686274509803922" d="M 126.5 318 L 144 327.5 L 142.5 328 L 133.5 324 L 127.5 320 L 126.5 318 Z " /><path fill="rgb(236,123,123)" stroke="rgb(236,123,123)" stroke-width="1" opacity="0.3686274509803922" d="M 273.5 318 L 272.5 320 L 256.5 328 L 257.5 326 L 273.5 318 Z " /><path fill="rgb(236,123,123)" stroke="rgb(236,123,123)" stroke-width="1" opacity="0.3686274509803922" d="M 96.5 323 L 100.5 328 L 96.5 323 Z " /><path fill="rgb(236,123,123)" stroke="rgb(236,123,123)" stroke-width="1" opacity="0.3686274509803922" d="M 297.5 328 L 295.5 331 L 291.5 334 L 294.5 330 L 297.5 328 Z " /><path fill="rgb(236,123,123)" stroke="rgb(236,123,123)" stroke-width="1" opacity="0.3686274509803922" d="M 148.5 330 L 157 332.5 L 155.5 333 L 148.5 331 L 148.5 330 Z " /><path fill="rgb(236,123,123)" stroke="rgb(236,123,123)" stroke-width="1" opacity="0.3686274509803922" d="M 141.5 333 L 148 335.5 L 145.5 336 L 141.5 334 L 141.5 333 Z " /><path fill="rgb(236,123,123)" stroke="rgb(236,123,123)" stroke-width="1" opacity="0.3686274509803922" d="M 257.5 333 L 259 333.5 L 252.5 336 L 252.5 335 L 257.5 333 Z " /><path fill="rgb(236,123,123)" stroke="rgb(236,123,123)" stroke-width="1" opacity="0.3686274509803922" d="M 112.5 335 L 119 339.5 L 117.5 339 Q 112.9 337.8 112.5 335 Z " /><path fill="rgb(236,123,123)" stroke="rgb(236,123,123)" stroke-width="1" opacity="0.3686274509803922" d="M 287.5 335 L 286.5 337 L 281.5 340 L 282.5 338 L 287.5 335 Z " /><path fill="rgb(236,123,123)" stroke="rgb(236,123,123)" stroke-width="1" opacity="0.3686274509803922" d="M 179.5 338 L 196 339.5 L 184.5 340 L 179.5 339 L 179.5 338 Z " /><path fill="rgb(236,123,123)" stroke="rgb(236,123,123)" stroke-width="1" opacity="0.3686274509803922" d="M 212.5 338 L 221 338.5 L 215.5 340 L 208.5 340 L 208.5 339 L 212.5 338 Z " /><path fill="rgb(236,123,123)" stroke="rgb(236,123,123)" stroke-width="1" opacity="0.3686274509803922" d="M 197.5 340 L 207 340.5 L 197.5 341 L 197.5 340 Z " /><path fill="rgb(236,123,123)" stroke="rgb(236,123,123)" stroke-width="1" opacity="0.3686274509803922" d="M 122.5 341 L 133 346.5 L 131.5 347 L 123.5 343 L 122.5 341 Z " /><path fill="rgb(236,123,123)" stroke="rgb(236,123,123)" stroke-width="1" opacity="0.3686274509803922" d="M 275.5 342 L 274.5 344 L 270.5 346 L 271.5 344 L 275.5 342 Z " /><path fill="rgb(236,123,123)" stroke="rgb(236,123,123)" stroke-width="1" opacity="0.3686274509803922" d="M 186.5 345 L 214 345.5 L 186.5 346 L 186.5 345 Z " /><path fill="rgb(236,123,123)" stroke="rgb(236,123,123)" stroke-width="1" opacity="0.3686274509803922" d="M 265.5 347 L 264.5 349 L 255.5 352 L 255.5 351 Q 262 350.5 265.5 347 Z " /><path fill="rgb(236,123,123)" stroke="rgb(236,123,123)" stroke-width="1" opacity="0.3686274509803922" d="M 138.5 349 L 145 351.5 L 143.5 352 L 139.5 351 L 138.5 349 Z " /><path fill="rgb(236,123,123)" stroke="rgb(236,123,123)" stroke-width="1" opacity="0.3686274509803922" d="M 177.5 360 L 187 360.5 L 177.5 361 L 177.5 360 Z " /><path fill="rgb(236,123,123)" stroke="rgb(236,123,123)" stroke-width="1" opacity="0.3686274509803922" d="M 213.5 360 L 223 360.5 L 213.5 361 L 213.5 360 Z " /><path fill="rgb(236,123,123)" stroke="rgb(236,123,123)" stroke-width="1" opacity="0.3686274509803922" d="M 188.5 361 L 212 361.5 L 188.5 362 L 188.5 361 Z " /><path fill="rgb(235,125,125)" stroke="rgb(235,125,125)" stroke-width="1" opacity="0.996078431372549" d="M 302.5 76 L 308.5 83 L 302.5 76 Z " /><path fill="rgb(235,125,125)" stroke="rgb(235,125,125)" stroke-width="1" opacity="0.996078431372549" d="M 108.5 86 L 103.5 92 L 108.5 86 Z " /><path fill="rgb(235,125,125)" stroke="rgb(235,125,125)" stroke-width="1" opacity="0.996078431372549" d="M 110.5 94 L 103.5 102 L 110.5 94 Z " /><path fill="rgb(235,125,125)" stroke="rgb(235,125,125)" stroke-width="1" opacity="0.996078431372549" d="M 289.5 94 L 294.5 100 L 289.5 94 Z " /><path fill="rgb(235,125,125)" stroke="rgb(235,125,125)" stroke-width="1" opacity="0.996078431372549" d="M 300.5 94 L 306.5 101 L 300.5 94 Z " /><path fill="rgb(235,125,125)" stroke="rgb(235,125,125)" stroke-width="1" opacity="0.996078431372549" d="M 78.5 95 L 74.5 100 L 78.5 95 Z " /><path fill="rgb(235,125,125)" stroke="rgb(235,125,125)" stroke-width="1" opacity="0.996078431372549" d="M 91.5 103 L 87.5 108 L 91.5 103 Z " /><path fill="rgb(235,125,125)" stroke="rgb(235,125,125)" stroke-width="1" opacity="0.996078431372549" d="M 309.5 104 L 313.5 109 L 309.5 104 Z " /><path fill="rgb(235,125,125)" stroke="rgb(235,125,125)" stroke-width="1" opacity="0.996078431372549" d="M 99.5 105 L 94.5 111 L 99.5 105 Z " /><path fill="rgb(235,125,125)" stroke="rgb(235,125,125)" stroke-width="1" opacity="0.996078431372549" d="M 300.5 105 L 306.5 112 L 300.5 105 Z " /><path fill="rgb(235,125,125)" stroke="rgb(235,125,125)" stroke-width="1" opacity="0.996078431372549" d="M 270.5 110 L 274.5 115 L 270.5 110 Z " /><path fill="rgb(235,125,125)" stroke="rgb(235,125,125)" stroke-width="1" opacity="0.996078431372549" d="M 93.5 112 L 89.5 117 L 93.5 112 Z " /><path fill="rgb(235,125,125)" stroke="rgb(235,125,125)" stroke-width="1" opacity="0.996078431372549" d="M 289.5 113 L 293.5 118 L 289.5 113 Z " /><path fill="rgb(235,125,125)" stroke="rgb(235,125,125)" stroke-width="1" opacity="0.996078431372549" d="M 237.5 122 L 232.5 128 L 237.5 122 Z " /><path fill="rgb(235,125,125)" stroke="rgb(235,125,125)" stroke-width="1" opacity="0.996078431372549" d="M 263.5 122 L 268.5 128 L 263.5 122 Z " /><path fill="rgb(235,125,125)" stroke="rgb(235,125,125)" stroke-width="1" opacity="0.996078431372549" d="M 268.5 153 L 264.5 158 L 268.5 153 Z " /><path fill="rgb(235,125,125)" stroke="rgb(235,125,125)" stroke-width="1" opacity="0.996078431372549" d="M 205.5 208 L 209.5 213 L 205.5 208 Z " /><path fill="rgb(235,125,125)" stroke="rgb(235,125,125)" stroke-width="1" opacity="0.996078431372549" d="M 313.5 223 L 304.5 233 L 313.5 223 Z " /><path fill="rgb(235,125,125)" stroke="rgb(235,125,125)" stroke-width="1" opacity="0.996078431372549" d="M 101.5 231 L 105.5 236 L 101.5 231 Z " /><path fill="rgb(235,125,125)" stroke="rgb(235,125,125)" stroke-width="1" opacity="0.996078431372549" d="M 302.5 234 L 297.5 240 L 302.5 234 Z " /><path fill="rgb(235,125,125)" stroke="rgb(235,125,125)" stroke-width="1" opacity="0.996078431372549" d="M 106.5 237 Q 109.3 242.4 112 240.5 L 110.5 242 L 106.5 237 Z " /><path fill="rgb(235,125,125)" stroke="rgb(235,125,125)" stroke-width="1" opacity="0.996078431372549" d="M 90.5 240 L 103.5 254 L 90.5 240 Z " /><path fill="rgb(235,125,125)" stroke="rgb(235,125,125)" stroke-width="1" opacity="0.996078431372549" d="M 309.5 246 L 304.5 252 L 309.5 246 Z " /><path fill="rgb(235,125,125)" stroke="rgb(235,125,125)" stroke-width="1" opacity="0.996078431372549" d="M 109.5 258 L 113.5 263 L 109.5 258 Z " /><path fill="rgb(235,125,125)" stroke="rgb(235,125,125)" stroke-width="1" opacity="0.996078431372549" d="M 130.5 268 L 135.5 274 L 130.5 268 Z " /><path fill="rgb(235,125,125)" stroke="rgb(235,125,125)" stroke-width="1" opacity="0.996078431372549" d="M 212.5 275 L 204.5 284 L 212.5 275 Z " /><path fill="rgb(235,125,125)" stroke="rgb(235,125,125)" stroke-width="1" opacity="0.996078431372549" d="M 102.5 278 L 107.5 284 L 102.5 278 Z " /><path fill="rgb(235,125,125)" stroke="rgb(235,125,125)" stroke-width="1" opacity="0.996078431372549" d="M 297.5 278 L 292.5 284 L 297.5 278 Z " /><path fill="rgb(235,125,125)" stroke="rgb(235,125,125)" stroke-width="1" opacity="0.996078431372549" d="M 117.5 279 L 111.5 286 L 117.5 279 Z " /><path fill="rgb(235,125,125)" stroke="rgb(235,125,125)" stroke-width="1" opacity="0.996078431372549" d="M 277.5 283 L 281.5 288 L 277.5 283 Z " /><path fill="rgb(235,125,125)" stroke="rgb(235,125,125)" stroke-width="1" opacity="0.996078431372549" d="M 291.5 285 L 286.5 291 L 291.5 285 Z " /><path fill="rgb(235,125,125)" stroke="rgb(235,125,125)" stroke-width="1" opacity="0.996078431372549" d="M 127.5 288 L 132 291.5 L 128.5 289 L 126.5 290 L 127.5 288 Z " /><path fill="rgb(235,125,125)" stroke="rgb(235,125,125)" stroke-width="1" opacity="0.996078431372549" d="M 94.5 290 L 101.5 298 L 94.5 290 Z " /><path fill="rgb(235,125,125)" stroke="rgb(235,125,125)" stroke-width="1" opacity="0.996078431372549" d="M 216.5 290 L 212.5 295 L 216.5 290 Z " /><path fill="rgb(235,125,125)" stroke="rgb(235,125,125)" stroke-width="1" opacity="0.996078431372549" d="M 305.5 290 L 293.5 303 L 305.5 290 Z " /><path fill="rgb(235,125,125)" stroke="rgb(235,125,125)" stroke-width="1" opacity="0.996078431372549" d="M 266.5 292 L 270.5 297 L 266.5 292 Z " /><path fill="rgb(235,125,125)" stroke="rgb(235,125,125)" stroke-width="1" opacity="0.996078431372549" d="M 313.5 292 L 306.5 300 L 313.5 292 Z " /><path fill="rgb(235,125,125)" stroke="rgb(235,125,125)" stroke-width="1" opacity="0.996078431372549" d="M 102.5 299 L 108.5 306 L 102.5 299 Z " /><path fill="rgb(235,125,125)" stroke="rgb(235,125,125)" stroke-width="1" opacity="0.996078431372549" d="M 94.5 301 L 98.5 306 L 94.5 301 Z " /><path fill="rgb(235,125,125)" stroke="rgb(235,125,125)" stroke-width="1" opacity="0.996078431372549" d="M 305.5 301 L 301.5 306 L 305.5 301 Z " /><path fill="rgb(235,125,125)" stroke="rgb(235,125,125)" stroke-width="1" opacity="0.996078431372549" d="M 323.5 303 L 318.5 309 L 323.5 303 Z " /><path fill="rgb(235,125,125)" stroke="rgb(235,125,125)" stroke-width="1" opacity="0.996078431372549" d="M 77.5 304 L 85.5 313 L 77.5 304 Z " /><path fill="rgb(235,125,125)" stroke="rgb(235,125,125)" stroke-width="1" opacity="0.996078431372549" d="M 100.5 306 L 108.5 315 L 100.5 306 Z " /><path fill="rgb(235,125,125)" stroke="rgb(235,125,125)" stroke-width="1" opacity="0.996078431372549" d="M 111.5 306 L 115.5 311 L 111.5 306 Z " /><path fill="rgb(235,125,125)" stroke="rgb(235,125,125)" stroke-width="1" opacity="0.996078431372549" d="M 90.5 317 L 95.5 323 L 90.5 317 Z " /><path fill="rgb(235,125,125)" stroke="rgb(235,125,125)" stroke-width="1" opacity="0.996078431372549" d="M 309.5 317 L 303.5 324 L 309.5 317 Z " /><path fill="rgb(235,125,125)" stroke="rgb(235,125,125)" stroke-width="1" opacity="1" d="M 184.5 40 L 215.5 40 L 222.5 42 L 229.5 42 L 259.5 51 L 288.5 66 L 318 91.5 L 322 96.5 L 338 117.5 L 349 139.5 L 358 168.5 L 361 201.5 L 360 202.5 L 360 218.5 L 354 247.5 L 342 276.5 L 332 293 Q 329.3 291.9 330 294.5 L 326 301 Q 323.3 299.9 324 302.5 L 310.5 317 L 289.5 334 L 276.5 342 L 248.5 354 L 222.5 360 L 188.5 361 L 187.5 360 L 177.5 360 L 171.5 358 L 166.5 358 L 151.5 354 L 131.5 346 L 107 332 Q 108.1 329.3 105.5 330 L 99 326 Q 100.1 323.3 97.5 324 L 86 313.5 L 77 302 L 74 300.5 L 58 276.5 L 46 247.5 L 40 218.5 L 40 202.5 L 39 199.5 L 40 198.5 L 40 182.5 L 42 175.5 L 42 168.5 L 50 142.5 L 58 124.5 L 79 94 L 83 91.5 L 89.5 84 L 92.5 82 Q 95.9 75.2 103 74 Q 101.9 71.3 104.5 72 L 111.5 66 L 140.5 51 L 161.5 44 L 184.5 40 Z M 199 54 L 198 55 L 185 55 L 172 58 L 167 58 L 143 66 L 120 78 L 98 96 Q 99 98 97 97 L 78 120 L 66 142 L 58 166 L 55 183 L 55 192 L 54 193 L 55 219 L 60 243 L 71 270 L 86 292 Q 85 294 88 293 L 88 295 L 90 295 L 94 302 L 109 315 L 132 330 L 163 342 L 168 342 L 173 344 L 185 345 L 186 346 L 215 346 Q 216 344 222 345 L 233 342 L 238 342 L 253 336 L 256 336 L 279 324 L 302 306 L 322 282 L 334 260 L 342 236 L 345 219 L 345 209 L 346 208 L 346 193 L 345 192 L 344 176 L 336 147 L 324 123 L 307 101 L 281 78 L 258 66 L 234 58 Q 227 59 224 56 L 217 56 L 216 55 Q 205 56 199 54 Z " /><path fill="rgb(235,125,125)" stroke="rgb(235,125,125)" stroke-width="1" opacity="1" d="M 186.5 62 L 214.5 62 L 239.5 67 L 265.5 78 Q 284.8 89.2 300 104.5 L 318 127.5 L 330 150.5 L 338 183.5 L 339 212.5 L 334 236.5 L 330 246.5 L 330 250.5 L 322 266.5 L 310 284.5 L 287.5 310 L 281.5 312 L 273.5 318 L 256.5 326 L 251.5 330 L 226.5 337 L 211.5 338 L 206.5 340 L 197.5 340 L 196.5 339 L 173.5 337 L 165.5 334 L 161.5 334 L 152.5 330 L 148.5 330 L 143.5 326 L 133.5 322 L 120.5 314 L 102 298.5 L 86 279.5 L 70 249.5 L 70 246.5 L 66 237.5 L 66 232.5 L 64 228.5 L 62 217.5 L 62 189.5 L 61 188.5 L 66 163.5 L 74 142.5 Q 85 119 102.5 102 Q 118.9 85.9 140.5 75 L 145.5 74 L 160.5 67 L 186.5 62 Z M 186 76 L 179 78 L 173 78 L 170 80 L 150 86 L 131 96 L 118 106 L 114 111 L 110 114 L 96 131 Q 95 137 90 141 L 86 152 L 84 154 L 77 179 L 78 191 L 90 216 Q 94 217 94 223 L 111 242 L 112 241 L 112 235 L 116 222 L 127 205 L 131 202 L 134 198 Q 136 199 135 196 L 155 186 L 162 184 L 183 182 L 188 178 L 194 176 L 220 161 L 216 152 L 214 141 L 216 130 L 225 116 Q 232 107 246 105 L 256 105 L 264 107 L 276 115 L 282 124 L 286 134 L 286 148 L 278 164 Q 270 172 258 176 L 243 176 L 235 172 L 230 189 L 230 197 L 228 200 Q 229 206 226 209 Q 227 217 232 223 L 236 238 L 236 254 L 232 269 Q 239 269 244 266 L 250 266 Q 254 261 264 261 L 278 254 L 298 240 Q 315 227 324 206 L 324 186 L 322 179 L 322 173 L 317 157 L 310 141 L 294 118 L 289 113 L 286 110 L 270 96 Q 263 95 260 90 L 228 78 L 222 78 L 215 76 L 186 76 Z M 250 118 L 241 120 L 238 122 L 230 131 L 228 138 Q 228 148 232 154 L 239 160 L 250 163 L 258 162 L 265 158 Q 270 154 272 148 Q 271 142 273 141 L 269 128 L 260 120 L 250 118 Z M 217 178 L 198 189 L 203 190 L 214 198 L 215 197 L 218 182 Q 219 177 217 178 Z M 172 197 L 170 199 L 166 219 L 166 250 L 190 250 L 204 246 L 209 246 L 222 241 L 222 236 L 218 225 L 210 213 L 199 203 L 190 199 L 172 197 Z M 154 201 L 138 211 L 132 220 L 127 231 L 126 242 L 130 242 L 137 246 L 152 249 L 152 223 L 155 206 Q 157 200 154 201 Z M 78 220 L 78 229 L 82 238 L 84 248 L 90 261 L 94 265 L 94 268 L 98 273 Q 97 275 100 274 L 108 285 Q 107 287 112 286 L 119 278 L 119 275 L 114 263 L 106 256 Q 107 253 105 254 L 90 240 L 78 220 Z M 318 239 Q 298 260 271 273 Q 274 283 282 289 Q 281 293 287 291 L 304 271 L 310 261 L 318 242 L 318 239 Z M 220 256 L 204 262 Q 193 261 188 264 L 168 264 L 169 276 L 174 294 L 188 293 L 205 284 L 216 272 L 221 259 Q 222 255 220 256 Z M 129 257 L 128 264 L 130 269 Q 136 272 138 280 Q 146 288 158 292 L 159 292 L 155 278 L 154 266 L 150 262 L 142 262 L 129 257 Z M 255 278 L 252 280 L 243 282 L 234 282 L 223 284 L 219 289 L 210 295 L 209 298 L 209 324 L 225 323 L 244 318 L 271 304 L 273 301 L 260 282 L 255 278 Z M 128 288 L 124 293 Q 120 292 122 298 L 138 309 L 157 318 L 176 323 L 195 325 L 195 304 L 191 306 L 181 308 L 172 308 L 171 309 L 157 306 L 141 298 Q 138 299 139 296 L 128 288 Z " /></svg>