<svg width="200" height="200" version="1.1" xmlns="http://www.w3.org/2000/svg" desc="Created with imagetracer.js version 1.2.6" ><path fill="rgb(127,127,127)" stroke="rgb(127,127,127)" stroke-width="1" opacity="0.8745098039215686" d="M 78.5 34 L 94.5 51 L 78.5 34 Z " /><path fill="rgb(127,127,127)" stroke="rgb(127,127,127)" stroke-width="1" opacity="0.8745098039215686" d="M 165.5 57 L 166.5 59 L 165.5 57 Z " /><path fill="rgb(127,127,127)" stroke="rgb(127,127,127)" stroke-width="1" opacity="0.8745098039215686" d="M 28.5 67 L 29 148.5 L 28 148.5 L 28.5 67 Z " /><path fill="rgb(127,127,127)" stroke="rgb(127,127,127)" stroke-width="1" opacity="0.8745098039215686" d="M 166.5 158 L 162.5 163 L 166.5 158 Z " /><path fill="rgb(0,0,0)" stroke="rgb(0,0,0)" stroke-width="1" opacity="0" d="M 0 0 L 200 0 L 200 200 L 0 200 L 0 0 Z M 28 33 L 20 36 Q 14 40 12 48 L 12 154 L 14 159 L 21 165 L 28 167 L 153 167 Q 154 165 159 166 L 164 163 Q 169 158 171 150 L 174 135 L 188 85 L 188 83 L 46 83 L 30 146 L 29 68 L 169 68 L 170 67 L 167 58 Q 164 52 157 50 L 96 50 L 79 33 L 28 33 Z " /><path fill="rgb(127,127,127)" stroke="rgb(127,127,127)" stroke-width="1" opacity="0.41568627450980394" d="M 27.5 33 L 78.5 33 L 95.5 50 L 157 50.5 L 95.5 51 L 78.5 34 L 27.5 34 L 27.5 33 Z " /><path fill="rgb(127,127,127)" stroke="rgb(127,127,127)" stroke-width="1" opacity="0.41568627450980394" d="M 19.5 36 L 15.5 41 L 19.5 36 Z " /><path fill="rgb(127,127,127)" stroke="rgb(127,127,127)" stroke-width="1" opacity="0.41568627450980394" d="M 12.5 47 L 13 153.5 L 12 153.5 L 12.5 47 Z " /><path fill="rgb(127,127,127)" stroke="rgb(127,127,127)" stroke-width="1" opacity="0.41568627450980394" d="M 158.5 51 Q 164.6 52.4 167 57.5 L 161.5 53 Q 157.8 52.8 158.5 51 Z " /><path fill="rgb(127,127,127)" stroke="rgb(127,127,127)" stroke-width="1" opacity="0.41568627450980394" d="M 169.5 65 L 170 66.5 L 168.5 68 L 29.5 68 L 29.5 67 L 168.5 67 L 169.5 65 Z " /><path fill="rgb(127,127,127)" stroke="rgb(127,127,127)" stroke-width="1" opacity="0.41568627450980394" d="M 46.5 83 L 187.5 83 L 188 84.5 L 186.5 84 L 46.5 84 L 46.5 83 Z " /><path fill="rgb(127,127,127)" stroke="rgb(127,127,127)" stroke-width="1" opacity="0.41568627450980394" d="M 186.5 86 L 187 88.5 L 186 88.5 L 186.5 86 Z " /><path fill="rgb(127,127,127)" stroke="rgb(127,127,127)" stroke-width="1" opacity="0.41568627450980394" d="M 185.5 90 L 186 92.5 L 185 92.5 L 185.5 90 Z " /><path fill="rgb(127,127,127)" stroke="rgb(127,127,127)" stroke-width="1" opacity="0.41568627450980394" d="M 43.5 93 L 44 95.5 L 43 95.5 L 43.5 93 Z " /><path fill="rgb(127,127,127)" stroke="rgb(127,127,127)" stroke-width="1" opacity="0.41568627450980394" d="M 183.5 97 L 184 99.5 L 183 99.5 L 183.5 97 Z " /><path fill="rgb(127,127,127)" stroke="rgb(127,127,127)" stroke-width="1" opacity="0.41568627450980394" d="M 182.5 101 L 183 103.5 L 182 103.5 L 182.5 101 Z " /><path fill="rgb(127,127,127)" stroke="rgb(127,127,127)" stroke-width="1" opacity="0.41568627450980394" d="M 181.5 105 L 182 107.5 L 181 107.5 L 181.5 105 Z " /><path fill="rgb(127,127,127)" stroke="rgb(127,127,127)" stroke-width="1" opacity="0.41568627450980394" d="M 180.5 109 L 181 111.5 L 180 111.5 L 180.5 109 Z " /><path fill="rgb(127,127,127)" stroke="rgb(127,127,127)" stroke-width="1" opacity="0.41568627450980394" d="M 178.5 116 L 179 118.5 L 178 118.5 L 178.5 116 Z " /><path fill="rgb(127,127,127)" stroke="rgb(127,127,127)" stroke-width="1" opacity="0.41568627450980394" d="M 36.5 119 L 37 121.5 L 36 121.5 L 36.5 119 Z " /><path fill="rgb(127,127,127)" stroke="rgb(127,127,127)" stroke-width="1" opacity="0.41568627450980394" d="M 177.5 120 L 178 122.5 L 177 122.5 L 177.5 120 Z " /><path fill="rgb(127,127,127)" stroke="rgb(127,127,127)" stroke-width="1" opacity="0.41568627450980394" d="M 176.5 124 L 177 126.5 L 176 126.5 L 176.5 124 Z " /><path fill="rgb(127,127,127)" stroke="rgb(127,127,127)" stroke-width="1" opacity="0.41568627450980394" d="M 175.5 128 L 176 130.5 L 174.5 134 L 174 131.5 L 175.5 128 Z " /><path fill="rgb(127,127,127)" stroke="rgb(127,127,127)" stroke-width="1" opacity="0.41568627450980394" d="M 173.5 135 L 174 137.5 L 173 137.5 L 173.5 135 Z " /><path fill="rgb(127,127,127)" stroke="rgb(127,127,127)" stroke-width="1" opacity="0.41568627450980394" d="M 172.5 139 L 173 141.5 L 172 141.5 L 172.5 139 Z " /><path fill="rgb(127,127,127)" stroke="rgb(127,127,127)" stroke-width="1" opacity="0.41568627450980394" d="M 171.5 143 L 172 145.5 L 171 145.5 L 171.5 143 Z " /><path fill="rgb(127,127,127)" stroke="rgb(127,127,127)" stroke-width="1" opacity="0.41568627450980394" d="M 170.5 147 L 171 149.5 L 169.5 153 L 169 150.5 L 170.5 147 Z " /><path fill="rgb(127,127,127)" stroke="rgb(127,127,127)" stroke-width="1" opacity="0.41568627450980394" d="M 168.5 154 L 169 155.5 L 167.5 158 L 167 156.5 L 168.5 154 Z " /><path fill="rgb(127,127,127)" stroke="rgb(127,127,127)" stroke-width="1" opacity="0.41568627450980394" d="M 13.5 155 L 20.5 164 L 25 165.5 L 22.5 166 L 14 158.5 L 13.5 155 Z " /><path fill="rgb(127,127,127)" stroke="rgb(127,127,127)" stroke-width="1" opacity="0.41568627450980394" d="M 164.5 161 L 163.5 163 L 164.5 161 Z " /><path fill="rgb(127,127,127)" stroke="rgb(127,127,127)" stroke-width="1" opacity="0.41568627450980394" d="M 159.5 164 L 158.5 166 L 156 165.5 L 159.5 164 Z " /><path fill="rgb(127,127,127)" stroke="rgb(127,127,127)" stroke-width="1" opacity="0.41568627450980394" d="M 27.5 166 L 153 166.5 L 27.5 167 L 27.5 166 Z " /><path fill="rgb(127,127,127)" stroke="rgb(127,127,127)" stroke-width="1" opacity="1" d="M 25.5 34 L 77.5 34 L 94.5 51 L 156.5 51 L 165 56.5 Q 168.7 60.5 169 67 L 28 67 L 28 148.5 L 30 147.5 L 46 85.5 L 47.5 84 L 186.5 84 L 187 85.5 L 169 153.5 L 161.5 163 L 153.5 166 L 26.5 166 Q 19.6 164.4 16 159.5 L 13 153.5 L 13 46.5 L 19.5 37 L 25.5 34 Z " /></svg>