<svg width="256" height="256" version="1.1" xmlns="http://www.w3.org/2000/svg" desc="Created with imagetracer.js version 1.2.6" ><path fill="rgb(0,0,0)" stroke="rgb(0,0,0)" stroke-width="1" opacity="0" d="M 0 0 L 256 0 L 256 256 L 0 256 L 0 0 Z M 59 108 L 51 112 L 45 119 L 42 129 Q 42 138 46 143 Q 50 149 59 151 L 69 151 L 80 145 Q 84 140 86 132 Q 86 121 81 116 L 73 109 L 59 108 Z M 123 108 L 115 112 L 109 119 L 106 129 Q 106 138 110 143 Q 115 149 123 151 L 133 151 L 144 145 Q 148 140 150 132 Q 150 121 145 116 L 137 109 L 123 108 Z M 187 108 L 179 112 L 173 119 L 170 129 Q 170 138 174 143 Q 179 149 187 151 L 197 151 L 208 145 Q 212 140 214 132 Q 214 121 209 116 L 201 109 L 187 108 Z " /><path fill="rgb(125,197,234)" stroke="rgb(125,197,234)" stroke-width="1" opacity="0.5058823529411764" d="M 58.5 108 L 63 108.5 Q 52.7 109.2 48 115.5 L 44.5 122 L 44 120.5 L 50.5 112 L 58.5 108 Z " /><path fill="rgb(125,197,234)" stroke="rgb(125,197,234)" stroke-width="1" opacity="0.5058823529411764" d="M 65.5 108 L 69 108.5 L 65.5 109 L 65.5 108 Z " /><path fill="rgb(125,197,234)" stroke="rgb(125,197,234)" stroke-width="1" opacity="0.5058823529411764" d="M 122.5 108 L 127 108.5 Q 116.7 109.2 112 115.5 L 108.5 122 L 108 120.5 L 114.5 112 L 122.5 108 Z " /><path fill="rgb(125,197,234)" stroke="rgb(125,197,234)" stroke-width="1" opacity="0.5058823529411764" d="M 129.5 108 L 133 108.5 L 129.5 109 L 129.5 108 Z " /><path fill="rgb(125,197,234)" stroke="rgb(125,197,234)" stroke-width="1" opacity="0.5058823529411764" d="M 186.5 108 L 191 108.5 Q 180.7 109.2 176 115.5 L 172.5 122 L 172 120.5 L 178.5 112 L 186.5 108 Z " /><path fill="rgb(125,197,234)" stroke="rgb(125,197,234)" stroke-width="1" opacity="0.5058823529411764" d="M 193.5 108 L 197 108.5 L 193.5 109 L 193.5 108 Z " /><path fill="rgb(125,197,234)" stroke="rgb(125,197,234)" stroke-width="1" opacity="0.5058823529411764" d="M 71.5 109 L 74 110.5 L 72.5 110 L 71.5 109 Z " /><path fill="rgb(125,197,234)" stroke="rgb(125,197,234)" stroke-width="1" opacity="0.5058823529411764" d="M 135.5 109 L 138 110.5 L 136.5 110 L 135.5 109 Z " /><path fill="rgb(125,197,234)" stroke="rgb(125,197,234)" stroke-width="1" opacity="0.5058823529411764" d="M 199.5 109 L 202 110.5 L 200.5 110 L 199.5 109 Z " /><path fill="rgb(125,197,234)" stroke="rgb(125,197,234)" stroke-width="1" opacity="0.5058823529411764" d="M 75.5 111 L 76.5 113 L 75.5 111 Z " /><path fill="rgb(125,197,234)" stroke="rgb(125,197,234)" stroke-width="1" opacity="0.5058823529411764" d="M 139.5 111 L 140.5 113 L 139.5 111 Z " /><path fill="rgb(125,197,234)" stroke="rgb(125,197,234)" stroke-width="1" opacity="0.5058823529411764" d="M 203.5 111 L 204.5 113 L 203.5 111 Z " /><path fill="rgb(125,197,234)" stroke="rgb(125,197,234)" stroke-width="1" opacity="0.5058823529411764" d="M 78.5 113 L 80.5 116 L 78.5 113 Z " /><path fill="rgb(125,197,234)" stroke="rgb(125,197,234)" stroke-width="1" opacity="0.5058823529411764" d="M 142.5 113 L 144.5 116 L 142.5 113 Z " /><path fill="rgb(125,197,234)" stroke="rgb(125,197,234)" stroke-width="1" opacity="0.5058823529411764" d="M 206.5 113 L 208.5 116 L 206.5 113 Z " /><path fill="rgb(125,197,234)" stroke="rgb(125,197,234)" stroke-width="1" opacity="0.5058823529411764" d="M 81.5 117 L 84 121.5 L 83 121.5 L 81.5 117 Z " /><path fill="rgb(125,197,234)" stroke="rgb(125,197,234)" stroke-width="1" opacity="0.5058823529411764" d="M 145.5 117 L 148 121.5 L 147 121.5 L 145.5 117 Z " /><path fill="rgb(125,197,234)" stroke="rgb(125,197,234)" stroke-width="1" opacity="0.5058823529411764" d="M 209.5 117 L 212 121.5 L 211 121.5 L 209.5 117 Z " /><path fill="rgb(125,197,234)" stroke="rgb(125,197,234)" stroke-width="1" opacity="0.5058823529411764" d="M 85.5 127 L 86 131.5 L 85 131.5 L 85.5 127 Z " /><path fill="rgb(125,197,234)" stroke="rgb(125,197,234)" stroke-width="1" opacity="0.5058823529411764" d="M 149.5 127 L 150 131.5 L 149 131.5 L 149.5 127 Z " /><path fill="rgb(125,197,234)" stroke="rgb(125,197,234)" stroke-width="1" opacity="0.5058823529411764" d="M 213.5 127 L 214 131.5 L 213 131.5 L 213.5 127 Z " /><path fill="rgb(125,197,234)" stroke="rgb(125,197,234)" stroke-width="1" opacity="0.5058823529411764" d="M 42.5 128 L 43 131.5 L 42 131.5 L 42.5 128 Z " /><path fill="rgb(125,197,234)" stroke="rgb(125,197,234)" stroke-width="1" opacity="0.5058823529411764" d="M 106.5 128 L 107 131.5 L 106 131.5 L 106.5 128 Z " /><path fill="rgb(125,197,234)" stroke="rgb(125,197,234)" stroke-width="1" opacity="0.5058823529411764" d="M 170.5 128 L 171 131.5 L 170 131.5 L 170.5 128 Z " /><path fill="rgb(125,197,234)" stroke="rgb(125,197,234)" stroke-width="1" opacity="0.5058823529411764" d="M 43.5 134 L 49 145 L 58.5 150 L 69 150.5 L 58.5 151 Q 50.5 148.5 46 142.5 L 43 136.5 L 43.5 134 Z " /><path fill="rgb(125,197,234)" stroke="rgb(125,197,234)" stroke-width="1" opacity="0.5058823529411764" d="M 107.5 134 L 113 145 L 122.5 150 L 133 150.5 L 122.5 151 Q 114.5 148.5 110 142.5 L 107 136.5 L 107.5 134 Z " /><path fill="rgb(125,197,234)" stroke="rgb(125,197,234)" stroke-width="1" opacity="0.5058823529411764" d="M 171.5 134 L 177 145 L 186.5 150 L 197 150.5 L 186.5 151 Q 178.5 148.5 174 142.5 L 171 136.5 L 171.5 134 Z " /><path fill="rgb(125,197,234)" stroke="rgb(125,197,234)" stroke-width="1" opacity="0.5058823529411764" d="M 83.5 137 L 84 138.5 L 80.5 143 L 82 140.5 L 83.5 137 Z " /><path fill="rgb(125,197,234)" stroke="rgb(125,197,234)" stroke-width="1" opacity="0.5058823529411764" d="M 147.5 137 L 148 138.5 L 144.5 143 L 146 140.5 L 147.5 137 Z " /><path fill="rgb(125,197,234)" stroke="rgb(125,197,234)" stroke-width="1" opacity="0.5058823529411764" d="M 211.5 137 L 212 138.5 L 208.5 143 L 210 140.5 L 211.5 137 Z " /><path fill="rgb(125,197,234)" stroke="rgb(125,197,234)" stroke-width="1" opacity="0.5058823529411764" d="M 77.5 145 L 75.5 148 L 77.5 145 Z " /><path fill="rgb(125,197,234)" stroke="rgb(125,197,234)" stroke-width="1" opacity="0.5058823529411764" d="M 141.5 145 L 139.5 148 L 141.5 145 Z " /><path fill="rgb(125,197,234)" stroke="rgb(125,197,234)" stroke-width="1" opacity="0.5058823529411764" d="M 205.5 145 L 203.5 148 L 205.5 145 Z " /><path fill="rgb(125,197,235)" stroke="rgb(125,197,235)" stroke-width="1" opacity="1" d="M 63.5 108 L 70.5 109 L 81 116.5 L 85 125.5 L 85 133.5 L 78.5 145 Q 73 152 58.5 150 L 49 145 L 43 133.5 L 43 125.5 L 49.5 114 L 55.5 110 L 63.5 108 Z " /><path fill="rgb(125,197,235)" stroke="rgb(125,197,235)" stroke-width="1" opacity="1" d="M 127.5 108 L 134.5 109 L 145 116.5 L 149 125.5 L 149 133.5 L 142.5 145 Q 137 152 122.5 150 L 113 145 L 107 133.5 L 107 125.5 L 113.5 114 L 119.5 110 L 127.5 108 Z " /><path fill="rgb(125,197,235)" stroke="rgb(125,197,235)" stroke-width="1" opacity="1" d="M 191.5 108 L 198.5 109 L 209 116.5 L 213 125.5 L 213 133.5 L 206.5 145 Q 201 152 186.5 150 L 177 145 L 171 133.5 L 171 125.5 L 177.5 114 L 183.5 110 L 191.5 108 Z " /></svg>