<svg width="200" height="200" version="1.1" xmlns="http://www.w3.org/2000/svg" desc="Created with imagetracer.js version 1.2.6" ><path fill="rgb(0,0,0)" stroke="rgb(0,0,0)" stroke-width="1" opacity="0" d="M 0 0 L 200 0 L 200 200 L 0 200 L 0 0 Z M 30 12 L 24 15 L 19 22 L 18 27 L 18 154 L 20 161 L 29 167 L 54 167 L 55 180 L 57 183 Q 60 187 66 188 L 171 188 L 177 185 L 179 183 L 182 175 L 182 83 L 143 41 L 136 33 L 120 33 L 101 14 L 100 12 L 30 12 Z " /><path fill="rgb(0,0,0)" stroke="rgb(0,0,0)" stroke-width="1" opacity="0" d="M 33 26 L 92.5 26 L 99 32.5 L 64.5 33 L 57 38.5 L 54 47.5 L 54 153 L 33.5 153 L 33 152.5 L 33 26 Z " /><path fill="rgb(0,0,0)" stroke="rgb(0,0,0)" stroke-width="1" opacity="0" d="M 69 47 L 124.5 47 L 125 50.5 L 124 51.5 L 124 71.5 Q 121.8 72.8 123 77.5 L 128.5 87 L 136.5 90 L 154.5 90 L 155.5 91 L 167 91 L 167 174 L 69 174 L 69 47 Z M 82 107 L 82 121 L 124 121 L 124 107 L 82 107 Z M 82 137 L 82 151 L 83 151 L 146 151 L 146 138 L 146 137 L 82 137 Z " /><path fill="rgb(0,0,0)" stroke="rgb(0,0,0)" stroke-width="1" opacity="0" d="M 138.5 57 L 156 75.5 L 139.5 76 L 138 74.5 L 138.5 57 Z " /><path fill="rgb(127,127,127)" stroke="rgb(127,127,127)" stroke-width="1" opacity="0.9921568627450981" d="M 28.5 13 L 99.5 13 L 103 16.5 L 118.5 33 L 134.5 33 L 145 43.5 L 181 81.5 L 181 176.5 Q 179.8 182.3 175.5 185 L 171.5 187 L 64.5 187 L 57 181.5 Q 53.6 176.3 55 167 L 32.5 167 L 25.5 165 L 21 160.5 L 19 156.5 L 19 23.5 Q 20.3 17.8 24.5 15 L 28.5 13 Z M 32 26 L 32 154 L 33 154 L 54 154 L 55 153 L 55 45 L 57 40 L 62 35 L 69 33 L 100 33 L 94 26 L 32 26 Z M 70 46 L 68 48 L 68 174 L 168 174 L 168 90 L 135 89 L 129 86 L 124 79 L 124 65 L 125 64 L 125 47 L 125 46 L 70 46 Z M 139 56 L 137 64 L 137 76 L 147 76 L 148 77 L 158 77 L 139 56 Z " /><path fill="rgb(127,127,127)" stroke="rgb(127,127,127)" stroke-width="1" opacity="0.9921568627450981" d="M 82 107 L 123.5 107 L 124 107.5 L 124 120 L 82.5 120 L 82 119.5 L 82 107 Z " /><path fill="rgb(127,127,127)" stroke="rgb(127,127,127)" stroke-width="1" opacity="0.9921568627450981" d="M 82 137 L 144.5 137 L 145 137.5 L 145 150 L 82.5 150 L 82 149.5 L 82 137 Z " /><path fill="rgb(127,127,127)" stroke="rgb(127,127,127)" stroke-width="1" opacity="0.30196078431372547" d="M 29.5 12 L 99.5 12 L 101 13.5 L 99.5 13 L 29.5 13 L 29.5 12 Z " /><path fill="rgb(127,127,127)" stroke="rgb(127,127,127)" stroke-width="1" opacity="0.30196078431372547" d="M 26.5 13 L 28 13.5 L 25.5 15 L 26.5 13 Z " /><path fill="rgb(127,127,127)" stroke="rgb(127,127,127)" stroke-width="1" opacity="0.30196078431372547" d="M 23.5 15 L 21.5 18 L 23.5 15 Z " /><path fill="rgb(127,127,127)" stroke="rgb(127,127,127)" stroke-width="1" opacity="0.30196078431372547" d="M 103.5 17 L 118.5 33 L 103.5 17 Z " /><path fill="rgb(127,127,127)" stroke="rgb(127,127,127)" stroke-width="1" opacity="0.30196078431372547" d="M 18.5 26 L 19 153.5 L 18 153.5 L 18.5 26 Z " /><path fill="rgb(127,127,127)" stroke="rgb(127,127,127)" stroke-width="1" opacity="0.30196078431372547" d="M 32.5 26 L 33 153 L 53.5 153 L 54 152.5 L 54 47.5 L 55 47.5 L 55 152.5 L 53.5 154 L 32.5 154 L 32 153.5 L 32.5 26 Z " /><path fill="rgb(127,127,127)" stroke="rgb(127,127,127)" stroke-width="1" opacity="0.30196078431372547" d="M 93.5 26 L 99.5 33 L 93.5 26 Z " /><path fill="rgb(127,127,127)" stroke="rgb(127,127,127)" stroke-width="1" opacity="0.30196078431372547" d="M 64.5 33 L 68 33.5 L 64.5 34 L 64.5 33 Z " /><path fill="rgb(127,127,127)" stroke="rgb(127,127,127)" stroke-width="1" opacity="0.30196078431372547" d="M 135.5 33 L 142.5 41 L 135.5 33 Z " /><path fill="rgb(127,127,127)" stroke="rgb(127,127,127)" stroke-width="1" opacity="0.30196078431372547" d="M 60.5 35 L 57.5 39 L 60.5 35 Z " /><path fill="rgb(127,127,127)" stroke="rgb(127,127,127)" stroke-width="1" opacity="0.30196078431372547" d="M 145.5 44 L 162.5 62 L 145.5 44 Z " /><path fill="rgb(127,127,127)" stroke="rgb(127,127,127)" stroke-width="1" opacity="0.30196078431372547" d="M 69.5 46 L 125 46.5 L 69 47 L 68.5 174 L 68 47.5 L 69.5 46 Z " /><path fill="rgb(127,127,127)" stroke="rgb(127,127,127)" stroke-width="1" opacity="0.30196078431372547" d="M 124.5 51 L 125 63.5 L 124 63.5 L 124.5 51 Z " /><path fill="rgb(127,127,127)" stroke="rgb(127,127,127)" stroke-width="1" opacity="0.30196078431372547" d="M 138.5 56 L 158 76.5 L 147.5 77 L 147.5 76 L 156 75.5 L 138.5 56 Z " /><path fill="rgb(127,127,127)" stroke="rgb(127,127,127)" stroke-width="1" opacity="0.30196078431372547" d="M 137.5 63 L 138 74.5 L 139 75.5 L 137 76 L 137.5 63 Z " /><path fill="rgb(127,127,127)" stroke="rgb(127,127,127)" stroke-width="1" opacity="0.30196078431372547" d="M 165.5 65 L 180.5 81 L 165.5 65 Z " /><path fill="rgb(127,127,127)" stroke="rgb(127,127,127)" stroke-width="1" opacity="0.30196078431372547" d="M 123.5 72 L 124 77.5 L 123 77.5 L 123.5 72 Z " /><path fill="rgb(127,127,127)" stroke="rgb(127,127,127)" stroke-width="1" opacity="0.30196078431372547" d="M 125.5 82 L 128.5 86 L 131 87.5 L 129.5 87 L 126 84.5 L 125.5 82 Z " /><path fill="rgb(127,127,127)" stroke="rgb(127,127,127)" stroke-width="1" opacity="0.30196078431372547" d="M 181.5 82 L 182 174.5 L 181 174.5 L 181.5 82 Z " /><path fill="rgb(127,127,127)" stroke="rgb(127,127,127)" stroke-width="1" opacity="0.30196078431372547" d="M 136.5 89 L 148 89.5 L 136.5 90 L 136.5 89 Z " /><path fill="rgb(127,127,127)" stroke="rgb(127,127,127)" stroke-width="1" opacity="0.30196078431372547" d="M 155.5 90 L 167.5 90 L 168 90.5 L 168 173.5 L 167 173.5 L 167 91.5 L 166.5 91 L 155.5 91 L 155.5 90 Z " /><path fill="rgb(127,127,127)" stroke="rgb(127,127,127)" stroke-width="1" opacity="0.30196078431372547" d="M 82.5 120 L 124 120.5 L 82.5 121 L 82.5 120 Z " /><path fill="rgb(127,127,127)" stroke="rgb(127,127,127)" stroke-width="1" opacity="0.30196078431372547" d="M 145.5 137 L 146 151 L 82 150.5 L 145 150 L 145.5 137 Z " /><path fill="rgb(127,127,127)" stroke="rgb(127,127,127)" stroke-width="1" opacity="0.30196078431372547" d="M 19.5 157 L 25 164.5 L 20 160.5 L 19.5 157 Z " /><path fill="rgb(127,127,127)" stroke="rgb(127,127,127)" stroke-width="1" opacity="0.30196078431372547" d="M 28.5 166 L 32 166.5 L 28.5 167 L 28.5 166 Z " /><path fill="rgb(127,127,127)" stroke="rgb(127,127,127)" stroke-width="1" opacity="0.30196078431372547" d="M 54.5 167 L 55 174.5 L 54 174.5 L 54.5 167 Z " /><path fill="rgb(127,127,127)" stroke="rgb(127,127,127)" stroke-width="1" opacity="0.30196078431372547" d="M 55.5 177 L 57 180.5 L 55 179.5 L 55.5 177 Z " /><path fill="rgb(127,127,127)" stroke="rgb(127,127,127)" stroke-width="1" opacity="0.30196078431372547" d="M 57.5 182 L 64 186.5 L 62.5 187 L 57.5 182 Z " /><path fill="rgb(127,127,127)" stroke="rgb(127,127,127)" stroke-width="1" opacity="0.30196078431372547" d="M 178.5 182 L 176.5 185 L 178.5 182 Z " /><path fill="rgb(127,127,127)" stroke="rgb(127,127,127)" stroke-width="1" opacity="0.30196078431372547" d="M 174.5 185 L 173.5 187 L 172 186.5 L 174.5 185 Z " /><path fill="rgb(127,127,127)" stroke="rgb(127,127,127)" stroke-width="1" opacity="0.30196078431372547" d="M 65.5 187 L 171 187.5 L 65.5 188 L 65.5 187 Z " /></svg>