<svg width="256" height="256" version="1.1" xmlns="http://www.w3.org/2000/svg" desc="Created with imagetracer.js version 1.2.6" ><path fill="rgb(0,0,0)" stroke="rgb(0,0,0)" stroke-width="1" opacity="0" d="M 0 0 L 256 0 L 256 256 L 0 256 L 0 0 Z M 215 16 L 208 18 L 24 116 L 17 125 L 18 136 L 24 141 L 31 145 L 204 237 L 214 241 L 223 241 L 233 237 Q 239 234 240 226 L 240 32 L 238 26 Q 232 15 215 16 Z " /><path fill="rgb(128,128,128)" stroke="rgb(128,128,128)" stroke-width="1" opacity="0.3843137254901961" d="M 214.5 16 L 223 16.5 L 214.5 17 L 214.5 16 Z " /><path fill="rgb(128,128,128)" stroke="rgb(128,128,128)" stroke-width="1" opacity="0.3843137254901961" d="M 207.5 18 L 209 18.5 L 206.5 20 L 207.5 18 Z " /><path fill="rgb(128,128,128)" stroke="rgb(128,128,128)" stroke-width="1" opacity="0.3843137254901961" d="M 232.5 20 L 237.5 26 L 232.5 20 Z " /><path fill="rgb(128,128,128)" stroke="rgb(128,128,128)" stroke-width="1" opacity="0.3843137254901961" d="M 198.5 23 L 197.5 25 L 191.5 28 L 192.5 26 L 198.5 23 Z " /><path fill="rgb(128,128,128)" stroke="rgb(128,128,128)" stroke-width="1" opacity="0.3843137254901961" d="M 183.5 31 L 182.5 33 L 176.5 36 L 177.5 34 L 183.5 31 Z " /><path fill="rgb(128,128,128)" stroke="rgb(128,128,128)" stroke-width="1" opacity="0.3843137254901961" d="M 239.5 31 L 240 225.5 L 239 225.5 L 239.5 31 Z " /><path fill="rgb(128,128,128)" stroke="rgb(128,128,128)" stroke-width="1" opacity="0.3843137254901961" d="M 168.5 39 L 167.5 41 L 161.5 44 L 162.5 42 L 168.5 39 Z " /><path fill="rgb(128,128,128)" stroke="rgb(128,128,128)" stroke-width="1" opacity="0.3843137254901961" d="M 153.5 47 L 152.5 49 L 144.5 53 L 145.5 51 L 153.5 47 Z " /><path fill="rgb(128,128,128)" stroke="rgb(128,128,128)" stroke-width="1" opacity="0.3843137254901961" d="M 136.5 56 L 135.5 58 L 129.5 61 L 130.5 59 L 136.5 56 Z " /><path fill="rgb(128,128,128)" stroke="rgb(128,128,128)" stroke-width="1" opacity="0.3843137254901961" d="M 121.5 64 L 120.5 66 L 114.5 69 L 115.5 67 L 121.5 64 Z " /><path fill="rgb(128,128,128)" stroke="rgb(128,128,128)" stroke-width="1" opacity="0.3843137254901961" d="M 106.5 72 L 105.5 74 L 97.5 78 L 98.5 76 L 106.5 72 Z " /><path fill="rgb(128,128,128)" stroke="rgb(128,128,128)" stroke-width="1" opacity="0.3843137254901961" d="M 89.5 81 L 88.5 83 L 82.5 86 L 83.5 84 L 89.5 81 Z " /><path fill="rgb(128,128,128)" stroke="rgb(128,128,128)" stroke-width="1" opacity="0.3843137254901961" d="M 74.5 89 L 73.5 91 L 67.5 94 L 68.5 92 L 74.5 89 Z " /><path fill="rgb(128,128,128)" stroke="rgb(128,128,128)" stroke-width="1" opacity="0.3843137254901961" d="M 59.5 97 L 58.5 99 L 52.5 102 L 53.5 100 L 59.5 97 Z " /><path fill="rgb(128,128,128)" stroke="rgb(128,128,128)" stroke-width="1" opacity="0.3843137254901961" d="M 44.5 105 L 43.5 107 L 35.5 111 L 36.5 109 L 44.5 105 Z " /><path fill="rgb(128,128,128)" stroke="rgb(128,128,128)" stroke-width="1" opacity="0.3843137254901961" d="M 27.5 114 L 26.5 116 L 19.5 121 L 23.5 116 L 27.5 114 Z " /><path fill="rgb(128,128,128)" stroke="rgb(128,128,128)" stroke-width="1" opacity="0.3843137254901961" d="M 17.5 124 L 18 126.5 L 17 126.5 L 17.5 124 Z " /><path fill="rgb(128,128,128)" stroke="rgb(128,128,128)" stroke-width="1" opacity="0.3843137254901961" d="M 18.5 134 L 23.5 140 L 26 141.5 L 24.5 141 L 18 135.5 L 18.5 134 Z " /><path fill="rgb(128,128,128)" stroke="rgb(128,128,128)" stroke-width="1" opacity="0.3843137254901961" d="M 29.5 143 L 41 149.5 L 39.5 149 L 30.5 145 L 29.5 143 Z " /><path fill="rgb(128,128,128)" stroke="rgb(128,128,128)" stroke-width="1" opacity="0.3843137254901961" d="M 44.5 151 L 58 158.5 L 56.5 158 L 45.5 153 L 44.5 151 Z " /><path fill="rgb(128,128,128)" stroke="rgb(128,128,128)" stroke-width="1" opacity="0.3843137254901961" d="M 61.5 160 L 73 166.5 L 71.5 166 L 62.5 162 L 61.5 160 Z " /><path fill="rgb(128,128,128)" stroke="rgb(128,128,128)" stroke-width="1" opacity="0.3843137254901961" d="M 76.5 168 L 90 175.5 L 88.5 175 L 77.5 170 L 76.5 168 Z " /><path fill="rgb(128,128,128)" stroke="rgb(128,128,128)" stroke-width="1" opacity="0.3843137254901961" d="M 91.5 176 L 105 183.5 L 103.5 183 L 92.5 178 L 91.5 176 Z " /><path fill="rgb(128,128,128)" stroke="rgb(128,128,128)" stroke-width="1" opacity="0.3843137254901961" d="M 108.5 185 L 122 192.5 L 120.5 192 L 109.5 187 L 108.5 185 Z " /><path fill="rgb(128,128,128)" stroke="rgb(128,128,128)" stroke-width="1" opacity="0.3843137254901961" d="M 123.5 193 L 137 200.5 L 135.5 200 L 124.5 195 L 123.5 193 Z " /><path fill="rgb(128,128,128)" stroke="rgb(128,128,128)" stroke-width="1" opacity="0.3843137254901961" d="M 140.5 202 L 152 208.5 L 150.5 208 L 141.5 204 L 140.5 202 Z " /><path fill="rgb(128,128,128)" stroke="rgb(128,128,128)" stroke-width="1" opacity="0.3843137254901961" d="M 155.5 210 L 169 217.5 L 167.5 217 L 156.5 212 L 155.5 210 Z " /><path fill="rgb(128,128,128)" stroke="rgb(128,128,128)" stroke-width="1" opacity="0.3843137254901961" d="M 172.5 219 L 184 225.5 L 182.5 225 L 173.5 221 L 172.5 219 Z " /><path fill="rgb(128,128,128)" stroke="rgb(128,128,128)" stroke-width="1" opacity="0.3843137254901961" d="M 187.5 227 L 201 234.5 L 199.5 234 L 188.5 229 L 187.5 227 Z " /><path fill="rgb(128,128,128)" stroke="rgb(128,128,128)" stroke-width="1" opacity="0.3843137254901961" d="M 237.5 231 L 236.5 233 L 237.5 231 Z " /><path fill="rgb(128,128,128)" stroke="rgb(128,128,128)" stroke-width="1" opacity="0.3843137254901961" d="M 234.5 234 L 232.5 237 L 234.5 234 Z " /><path fill="rgb(128,128,128)" stroke="rgb(128,128,128)" stroke-width="1" opacity="0.3843137254901961" d="M 202.5 235 L 212 239.5 L 209.5 240 L 203.5 237 L 202.5 235 Z " /><path fill="rgb(128,128,128)" stroke="rgb(128,128,128)" stroke-width="1" opacity="0.3843137254901961" d="M 213.5 240 L 223 240.5 L 213.5 241 L 213.5 240 Z " /><path fill="rgb(128,128,128)" stroke="rgb(128,128,128)" stroke-width="1" opacity="1" d="M 212.5 17 Q 232 15 238 26.5 L 239 29.5 L 239 227.5 L 236 234 L 224.5 240 L 212.5 240 L 26.5 142 L 19 135.5 L 17 127.5 Q 18.1 120.1 23.5 117 L 212.5 17 Z " /></svg>