<svg width="256" height="256" version="1.1" xmlns="http://www.w3.org/2000/svg" desc="Created with imagetracer.js version 1.2.6" ><path fill="rgb(128,128,128)" stroke="rgb(128,128,128)" stroke-width="1" opacity="0.6078431372549019" d="M 33.5 16 L 42 16.5 L 33.5 17 L 33.5 16 Z " /><path fill="rgb(128,128,128)" stroke="rgb(128,128,128)" stroke-width="1" opacity="0.6078431372549019" d="M 29.5 17 L 32 17.5 L 27.5 19 L 27.5 18 L 29.5 17 Z " /><path fill="rgb(128,128,128)" stroke="rgb(128,128,128)" stroke-width="1" opacity="0.6078431372549019" d="M 44.5 17 L 49 18.5 L 47.5 19 L 44.5 18 L 44.5 17 Z " /><path fill="rgb(128,128,128)" stroke="rgb(128,128,128)" stroke-width="1" opacity="0.6078431372549019" d="M 25.5 19 L 24.5 21 L 25.5 19 Z " /><path fill="rgb(128,128,128)" stroke="rgb(128,128,128)" stroke-width="1" opacity="0.6078431372549019" d="M 50.5 19 L 51.5 21 L 50.5 19 Z " /><path fill="rgb(128,128,128)" stroke="rgb(128,128,128)" stroke-width="1" opacity="0.6078431372549019" d="M 22.5 21 L 21 23.5 L 18.5 28 L 18 26.5 L 22.5 21 Z " /><path fill="rgb(128,128,128)" stroke="rgb(128,128,128)" stroke-width="1" opacity="0.6078431372549019" d="M 53.5 21 L 56 22.5 L 54.5 22 L 53.5 21 Z " /><path fill="rgb(128,128,128)" stroke="rgb(128,128,128)" stroke-width="1" opacity="0.6078431372549019" d="M 63.5 26 L 71 30.5 L 69.5 30 Q 63.9 29.2 63.5 26 Z " /><path fill="rgb(128,128,128)" stroke="rgb(128,128,128)" stroke-width="1" opacity="0.6078431372549019" d="M 17.5 29 L 18 33.5 L 17 33.5 L 17.5 29 Z " /><path fill="rgb(128,128,128)" stroke="rgb(128,128,128)" stroke-width="1" opacity="0.6078431372549019" d="M 80.5 35 L 86 38.5 L 84.5 38 Q 80.5 37.5 80.5 35 Z " /><path fill="rgb(128,128,128)" stroke="rgb(128,128,128)" stroke-width="1" opacity="0.6078431372549019" d="M 95.5 43 L 101 46.5 L 99.5 46 Q 95.5 45.5 95.5 43 Z " /><path fill="rgb(128,128,128)" stroke="rgb(128,128,128)" stroke-width="1" opacity="0.6078431372549019" d="M 17.5 46 L 18 228.5 L 23.5 236 Q 30.1 240.9 42 240.5 L 33.5 241 Q 23.8 239.2 19 232.5 L 17 228.5 L 17.5 46 Z " /><path fill="rgb(128,128,128)" stroke="rgb(128,128,128)" stroke-width="1" opacity="0.6078431372549019" d="M 110.5 51 L 118 55.5 L 116.5 55 Q 110.9 54.2 110.5 51 Z " /><path fill="rgb(128,128,128)" stroke="rgb(128,128,128)" stroke-width="1" opacity="0.6078431372549019" d="M 125.5 59 L 133 63.5 L 131.5 63 Q 125.9 62.2 125.5 59 Z " /><path fill="rgb(128,128,128)" stroke="rgb(128,128,128)" stroke-width="1" opacity="0.6078431372549019" d="M 140.5 67 L 148 71.5 L 146.5 71 Q 140.9 70.2 140.5 67 Z " /><path fill="rgb(128,128,128)" stroke="rgb(128,128,128)" stroke-width="1" opacity="0.6078431372549019" d="M 157.5 76 L 163 79.5 L 161.5 79 Q 157.5 78.5 157.5 76 Z " /><path fill="rgb(128,128,128)" stroke="rgb(128,128,128)" stroke-width="1" opacity="0.6078431372549019" d="M 172.5 84 L 178 87.5 L 176.5 87 Q 172.5 86.5 172.5 84 Z " /><path fill="rgb(128,128,128)" stroke="rgb(128,128,128)" stroke-width="1" opacity="0.6078431372549019" d="M 187.5 92 L 195 96.5 L 193.5 96 Q 187.9 95.2 187.5 92 Z " /><path fill="rgb(128,128,128)" stroke="rgb(128,128,128)" stroke-width="1" opacity="0.6078431372549019" d="M 202.5 100 L 210 104.5 L 208.5 104 Q 202.9 103.2 202.5 100 Z " /><path fill="rgb(128,128,128)" stroke="rgb(128,128,128)" stroke-width="1" opacity="0.6078431372549019" d="M 217.5 108 L 225 112.5 L 223.5 112 Q 217.9 111.2 217.5 108 Z " /><path fill="rgb(128,128,128)" stroke="rgb(128,128,128)" stroke-width="1" opacity="0.6078431372549019" d="M 232.5 116 L 237.5 122 L 232.5 116 Z " /><path fill="rgb(128,128,128)" stroke="rgb(128,128,128)" stroke-width="1" opacity="0.6078431372549019" d="M 239.5 126 L 240 130.5 L 239 130.5 L 239.5 126 Z " /><path fill="rgb(128,128,128)" stroke="rgb(128,128,128)" stroke-width="1" opacity="0.6078431372549019" d="M 237.5 135 L 232.5 141 L 237.5 135 Z " /><path fill="rgb(128,128,128)" stroke="rgb(128,128,128)" stroke-width="1" opacity="0.6078431372549019" d="M 226.5 143 L 225.5 145 L 221.5 147 L 222.5 145 L 226.5 143 Z " /><path fill="rgb(128,128,128)" stroke="rgb(128,128,128)" stroke-width="1" opacity="0.6078431372549019" d="M 209.5 152 L 208.5 154 L 204.5 156 L 205.5 154 L 209.5 152 Z " /><path fill="rgb(128,128,128)" stroke="rgb(128,128,128)" stroke-width="1" opacity="0.6078431372549019" d="M 194.5 160 L 193.5 162 L 189.5 164 L 190.5 162 L 194.5 160 Z " /><path fill="rgb(128,128,128)" stroke="rgb(128,128,128)" stroke-width="1" opacity="0.6078431372549019" d="M 177.5 169 L 176.5 171 L 174.5 172 L 175.5 170 L 177.5 169 Z " /><path fill="rgb(128,128,128)" stroke="rgb(128,128,128)" stroke-width="1" opacity="0.6078431372549019" d="M 162.5 177 L 161.5 179 L 157.5 181 L 158.5 179 L 162.5 177 Z " /><path fill="rgb(128,128,128)" stroke="rgb(128,128,128)" stroke-width="1" opacity="0.6078431372549019" d="M 147.5 185 L 146.5 187 L 142.5 189 L 143.5 187 L 147.5 185 Z " /><path fill="rgb(128,128,128)" stroke="rgb(128,128,128)" stroke-width="1" opacity="0.6078431372549019" d="M 130.5 194 L 129.5 196 L 127.5 197 L 128.5 195 L 130.5 194 Z " /><path fill="rgb(128,128,128)" stroke="rgb(128,128,128)" stroke-width="1" opacity="0.6078431372549019" d="M 115.5 202 L 114.5 204 L 110.5 206 L 111.5 204 L 115.5 202 Z " /><path fill="rgb(128,128,128)" stroke="rgb(128,128,128)" stroke-width="1" opacity="0.6078431372549019" d="M 100.5 210 L 99.5 212 L 95.5 214 L 96.5 212 L 100.5 210 Z " /><path fill="rgb(128,128,128)" stroke="rgb(128,128,128)" stroke-width="1" opacity="0.6078431372549019" d="M 83.5 219 L 82.5 221 L 80.5 222 L 81.5 220 L 83.5 219 Z " /><path fill="rgb(128,128,128)" stroke="rgb(128,128,128)" stroke-width="1" opacity="0.6078431372549019" d="M 68.5 227 L 67.5 229 L 63.5 231 L 64.5 229 L 68.5 227 Z " /><path fill="rgb(128,128,128)" stroke="rgb(128,128,128)" stroke-width="1" opacity="0.6078431372549019" d="M 51.5 236 L 50.5 238 L 51.5 236 Z " /><path fill="rgb(128,128,128)" stroke="rgb(128,128,128)" stroke-width="1" opacity="1" d="M 32.5 17 Q 43.4 15.6 49.5 19 L 231.5 116 L 238 122.5 L 239 131.5 Q 237.4 138.4 231.5 141 L 49.5 238 Q 43.8 241.3 33.5 240 Q 24.5 238.5 20 232.5 L 18 228.5 L 18 46.5 L 17 45.5 L 17 34.5 Q 19.3 33.2 18 28.5 L 23.5 21 L 32.5 17 Z " /><path fill="rgb(0,0,0)" stroke="rgb(0,0,0)" stroke-width="1" opacity="0" d="M 0 0 L 256 0 L 256 256 L 0 256 L 0 0 Z M 34 16 L 23 21 L 17 30 L 17 229 L 19 233 Q 24 239 34 241 L 42 241 L 51 238 L 233 141 Q 238 138 240 131 Q 241 124 238 122 L 233 116 L 224 111 L 55 21 L 47 17 L 34 16 Z " /></svg>