<svg width="400" height="400" version="1.1" xmlns="http://www.w3.org/2000/svg" desc="Created with imagetracer.js version 1.2.6" ><path fill="rgb(0,0,0)" stroke="rgb(0,0,0)" stroke-width="1" opacity="0" d="M 0 0 L 400 0 L 400 400 L 0 400 L 0 0 Z M 176 39 L 165 43 L 156 43 L 130 53 L 112 63 L 94 77 L 76 95 L 59 118 L 47 144 L 47 149 L 43 157 L 43 164 L 39 176 L 39 225 L 43 237 L 43 245 L 51 263 L 51 267 L 60 283 Q 59 287 63 285 L 64 290 L 77 307 L 95 324 L 118 341 L 144 353 L 176 361 L 225 361 L 256 353 L 263 349 L 267 349 L 283 340 Q 287 341 285 337 L 290 336 L 307 323 L 324 306 L 341 283 L 353 257 L 361 225 L 361 176 L 353 145 L 349 138 L 349 134 L 340 118 Q 341 113 337 115 L 336 111 L 323 94 Q 300 67 267 51 L 263 51 L 256 47 Q 248 47 244 43 L 236 43 L 225 39 L 176 39 Z " /><path fill="rgb(0,0,0)" stroke="rgb(0,0,0)" stroke-width="1" opacity="0" d="M 190.5 57 L 212.5 57 L 231.5 61 Q 233 58.5 234.5 62 L 246.5 64 L 255.5 69 L 258 68 Q 256.9 70.7 259.5 70 L 275 77.5 Q 274.3 79.8 276.5 79 L 296 93.5 L 297.5 96 Q 299.8 95.3 299 97.5 L 304 101 L 305.5 104 L 309 106.5 L 321.5 125 Q 323.8 124.3 323 126.5 L 324 129.5 L 330 142 Q 333.7 140.7 332 146.5 L 334 148.5 L 334 151.5 L 337 157.5 L 338 165.5 L 341 172.5 L 342 192.5 L 343 193.5 L 343 210.5 L 339 231.5 L 340 233.5 L 338 235.5 Q 338.7 242.7 335 245.5 L 336 247.5 L 332 254.5 L 332 258 Q 329.3 256.9 330 259.5 L 323 271.5 L 324 274 Q 321.3 272.9 322 275.5 L 316 283.5 L 316 286 Q 313.3 284.9 314 287.5 L 299 302.5 L 299 304 L 296 305.5 L 292.5 310 L 275 321.5 L 273.5 324 L 270.5 324 L 258 330 Q 259.1 332.7 256.5 332 L 254.5 332 L 248 334 Q 249.1 336.7 246.5 336 L 244.5 335 L 240.5 338 Q 234.5 337 232.5 340 L 230.5 340 L 220.5 342 L 191.5 343 L 190.5 342 L 179.5 342 L 168.5 339 L 166.5 340 Q 162 335.5 152.5 336 L 146.5 332 L 142 332 Q 143.1 329.3 140.5 330 L 129.5 324 L 126 324 Q 127.1 321.3 124.5 322 L 104 306.5 L 102.5 304 Q 100.3 304.8 101 302.5 L 91 293.5 L 86 286 Q 83 287.3 84 283.5 L 78 274 Q 74.7 275.3 76 270.5 L 70 258 Q 66.3 259.4 68 253.5 L 60 232.5 L 60 230.5 L 58 220.5 L 58 209.5 L 57 208.5 L 57 187.5 L 59 181.5 L 61 165.5 L 67 145.5 L 76 128.5 L 76 126 Q 78.7 127.1 78 124.5 L 94.5 103 L 97.5 101 L 101 96 L 104 94.5 L 106.5 91 L 126 78 Q 124.7 74.7 129.5 76 L 142 70 Q 140.7 66.3 146.5 68 L 160.5 62 L 179.5 58 L 189.5 58 L 190.5 57 Z M 137 125 L 135 127 L 124 129 L 110 138 Q 95 151 91 175 L 91 177 L 89 184 L 89 186 L 89 204 L 91 208 L 90 210 L 94 224 L 103 240 Q 114 256 138 260 L 158 259 L 159 258 Q 162 257 163 260 Q 162 263 165 262 L 165 265 L 167 265 L 170 272 L 174 275 L 182 275 L 183 276 L 191 276 L 192 275 Q 188 273 189 269 L 186 268 Q 187 264 184 265 L 183 262 L 176 253 L 176 251 L 180 248 Q 196 235 200 210 L 200 208 Q 199 203 202 203 L 201 201 L 202 197 Q 204 191 201 190 L 202 187 Q 200 183 201 177 L 199 173 L 198 166 L 190 151 Q 191 147 188 148 L 188 146 Q 177 129 154 125 L 152 126 Q 147 127 146 125 Q 140 124 139 126 L 137 125 Z M 216 127 L 214 129 L 214 256 L 217 258 L 231 257 L 232 256 L 232 202 L 251 202 L 252 204 Q 251 207 254 206 Q 257 208 257 213 L 260 215 Q 259 218 262 217 L 262 220 L 265 222 Q 264 225 267 224 L 267 227 L 270 229 Q 269 232 272 231 L 272 234 L 275 236 Q 274 239 277 238 L 280 243 Q 279 246 282 245 L 285 250 Q 284 253 287 252 L 289 257 L 292 258 L 309 257 L 306 252 Q 307 249 304 250 L 303 248 Q 304 245 301 246 L 300 244 Q 301 241 298 242 L 295 237 Q 296 234 293 235 L 292 233 Q 293 230 290 231 L 289 229 Q 290 226 287 227 L 286 225 Q 287 222 284 223 L 283 221 Q 284 218 281 219 L 281 216 L 278 215 Q 279 211 276 212 L 275 210 Q 276 207 273 208 L 272 206 Q 273 203 270 204 L 270 202 L 282 199 L 291 193 Q 290 190 293 191 L 299 181 L 302 167 L 300 154 L 295 142 L 291 137 Q 285 129 273 128 L 271 128 L 270 127 L 216 127 Z " /><path fill="rgb(0,0,0)" stroke="rgb(0,0,0)" stroke-width="1" opacity="0" d="M 142.5 137 L 145.5 138 L 148.5 137 L 151.5 139 L 153.5 138 L 167.5 146 L 172 150.5 L 172 153 Q 175 151.8 174 155.5 L 181 167.5 L 183 176.5 L 183 178.5 Q 185.3 183.3 184 191.5 Q 181.3 193.3 183 199.5 L 183 201.5 L 182 207.5 L 183 210.5 L 177 227.5 L 173.5 232 Q 171.3 231.3 172 233.5 L 168.5 238 Q 165.2 236.9 166 239.5 Q 160.6 246.1 149.5 247 L 147.5 247 Q 142.8 248.3 141.5 246 L 138.5 247 L 130 244 L 130 242 L 127 242 Q 128.3 239 124.5 240 L 122 239 Q 123.5 235.2 120.5 236 Q 117.3 234.8 118 231 Q 115.3 232.1 116 229.5 Q 108 219.5 107 202.5 L 108 199.5 L 107 198.5 L 107 188.5 L 108 186.5 Q 105.8 185.2 107 180.5 L 109 176.5 L 111 164.5 Q 115.5 153.5 123.5 146 L 134.5 139 L 142.5 137 Z " /><path fill="rgb(0,0,0)" stroke="rgb(0,0,0)" stroke-width="1" opacity="0" d="M 232 139 L 260.5 139 L 262.5 140 L 267.5 139 L 271 140 L 271 142 L 274 142 Q 272.8 145 276.5 144 Q 282.3 149.3 283 159.5 L 282 161.5 Q 284.6 162.9 284 167.5 L 281 180 Q 278.3 178.9 279 181.5 Q 276.7 185.5 272 186 Q 273.1 188.7 270.5 188 L 263.5 190 L 261.5 189 L 260.5 190 L 232 190 L 232 139 Z " /><path fill="rgb(232,142,51)" stroke="rgb(232,142,51)" stroke-width="1" opacity="0.9254901960784314" d="M 175.5 39 L 224.5 39 L 235.5 43 L 243.5 43 Q 247.5 47 255.5 47 L 262.5 51 L 266.5 51 Q 300.3 66.7 323 93.5 L 336 110.5 L 337 115 Q 341.1 113.3 340 117.5 L 342 120.5 L 340 121 L 339 116 Q 335.3 117.5 336 114.5 Q 323.3 92.7 304.5 77 L 275.5 57 L 264.5 52 L 260.5 52 L 254.5 48 L 249.5 48 L 242.5 44 L 233.5 44 L 222.5 40 L 177.5 40 L 166.5 44 L 157.5 44 L 124.5 57 L 95.5 77 L 76 96.5 L 62.5 117 Q 60.3 116.3 61 118.5 L 50 140.5 L 47 153.5 L 44 157.5 L 44 165.5 L 40 177.5 L 40 222.5 L 43 230.5 L 44 242.5 L 48 250.5 L 48 254.5 L 52 260.5 L 52 264.5 L 54 269.5 L 59 277.5 L 57.5 278 L 51 266.5 L 51 262.5 L 43 244.5 L 43 236.5 L 39 224.5 L 39 175.5 L 43 163.5 L 43 156.5 L 47 148.5 L 47 143.5 L 59 117.5 L 76 94.5 L 93.5 77 L 111.5 63 L 129.5 53 L 155.5 43 L 164.5 43 L 175.5 39 Z " /><path fill="rgb(232,142,51)" stroke="rgb(232,142,51)" stroke-width="1" opacity="0.9254901960784314" d="M 244.5 61 L 253.5 64 L 279 77.5 L 277.5 78 Q 263.7 68.3 245.5 63 L 244.5 61 Z " /><path fill="rgb(232,142,51)" stroke="rgb(232,142,51)" stroke-width="1" opacity="0.9254901960784314" d="M 341.5 122 L 344 123.5 L 353 145.5 L 351 144.5 L 348 139.5 L 348 135.5 L 346 130.5 L 341.5 122 Z " /><path fill="rgb(232,142,51)" stroke="rgb(232,142,51)" stroke-width="1" opacity="0.9254901960784314" d="M 156.5 126 L 162.5 128 L 170 130 L 169.5 132 L 157.5 128 L 156.5 126 Z " /><path fill="rgb(232,142,51)" stroke="rgb(232,142,51)" stroke-width="1" opacity="0.9254901960784314" d="M 131.5 127 L 136 127.5 L 126 130 Q 124.7 126.3 130.5 128 L 131.5 127 Z " /><path fill="rgb(232,142,51)" stroke="rgb(232,142,51)" stroke-width="1" opacity="0.9254901960784314" d="M 274.5 128 L 280 130.5 L 278.5 131 L 271 129.5 L 274.5 128 Z " /><path fill="rgb(232,142,51)" stroke="rgb(232,142,51)" stroke-width="1" opacity="0.9254901960784314" d="M 177.5 135 L 186 144.5 L 182 141.5 Q 182.8 139.3 180.5 140 L 177.5 135 Z " /><path fill="rgb(232,142,51)" stroke="rgb(232,142,51)" stroke-width="1" opacity="0.9254901960784314" d="M 106.5 143 L 103 147.5 L 102.5 149 L 102 146 L 106.5 143 Z " /><path fill="rgb(232,142,51)" stroke="rgb(232,142,51)" stroke-width="1" opacity="0.9254901960784314" d="M 168.5 145 L 172.5 150 L 168 146.5 L 168.5 145 Z " /><path fill="rgb(232,142,51)" stroke="rgb(232,142,51)" stroke-width="1" opacity="0.9254901960784314" d="M 279.5 146 L 280.5 149 Q 282.8 148.3 282 150.5 L 284 156.5 L 283 156.5 L 279 148.5 L 279.5 146 Z " /><path fill="rgb(232,142,51)" stroke="rgb(232,142,51)" stroke-width="1" opacity="0.9254901960784314" d="M 295.5 146 Q 299.1 147.9 299 153.5 L 298 153.5 L 295.5 146 Z " /><path fill="rgb(232,142,51)" stroke="rgb(232,142,51)" stroke-width="1" opacity="0.9254901960784314" d="M 189.5 148 Q 187.9 149.8 191 151.5 L 196 163.5 L 195 163.5 L 188 149.5 L 189.5 148 Z " /><path fill="rgb(232,142,51)" stroke="rgb(232,142,51)" stroke-width="1" opacity="0.9254901960784314" d="M 359.5 175 L 361 175.5 L 361 225 L 359 224.5 L 360 223.5 L 360 176.5 L 359.5 175 Z " /><path fill="rgb(232,142,51)" stroke="rgb(232,142,51)" stroke-width="1" opacity="0.9254901960784314" d="M 279.5 182 L 275.5 187 L 279.5 182 Z " /><path fill="rgb(232,142,51)" stroke="rgb(232,142,51)" stroke-width="1" opacity="0.9254901960784314" d="M 287.5 193 L 288 195 L 280.5 199 L 281.5 197 L 287.5 193 Z " /><path fill="rgb(232,142,51)" stroke="rgb(232,142,51)" stroke-width="1" opacity="0.9254901960784314" d="M 254.5 205 L 259 210.5 L 257.5 211 L 254 206.5 L 254.5 205 Z " /><path fill="rgb(232,142,51)" stroke="rgb(232,142,51)" stroke-width="1" opacity="0.9254901960784314" d="M 183.5 209 L 184 212.5 L 181.5 219 L 181 214.5 L 183.5 209 Z " /><path fill="rgb(232,142,51)" stroke="rgb(232,142,51)" stroke-width="1" opacity="0.9254901960784314" d="M 91 211 Q 94.7 209.7 93 215.5 L 99 229.5 L 97 230 L 92 217.5 L 91 211 Z " /><path fill="rgb(232,142,51)" stroke="rgb(232,142,51)" stroke-width="1" opacity="0.9254901960784314" d="M 198.5 211 Q 201.3 212.3 199 213.5 Q 198.8 219.3 195.5 222 L 196 220.5 L 198.5 211 Z " /><path fill="rgb(232,142,51)" stroke="rgb(232,142,51)" stroke-width="1" opacity="0.9254901960784314" d="M 108.5 216 L 116.5 232 L 118 231.5 Q 116.5 234.5 115 231.5 L 108.5 216 Z " /><path fill="rgb(232,142,51)" stroke="rgb(232,142,51)" stroke-width="1" opacity="0.9254901960784314" d="M 180.5 221 L 180 222.5 L 173.5 234 L 174 232.5 L 180.5 221 Z " /><path fill="rgb(232,142,51)" stroke="rgb(232,142,51)" stroke-width="1" opacity="0.9254901960784314" d="M 171.5 235 L 172 236.5 L 167.5 240 L 171.5 235 Z " /><path fill="rgb(232,142,51)" stroke="rgb(232,142,51)" stroke-width="1" opacity="0.9254901960784314" d="M 121.5 238 L 125.5 241 L 127 240.5 L 126.5 242 L 128.5 243 L 130 242.5 L 129.5 245 L 121 240 L 121.5 238 Z " /><path fill="rgb(232,142,51)" stroke="rgb(232,142,51)" stroke-width="1" opacity="0.9254901960784314" d="M 165.5 241 L 163.5 244 L 152.5 248 L 152.5 247 L 159.5 245 L 165.5 241 Z " /><path fill="rgb(232,142,51)" stroke="rgb(232,142,51)" stroke-width="1" opacity="0.9254901960784314" d="M 352.5 254 L 353 256.5 L 341 282.5 L 324 305.5 L 306.5 323 L 289.5 336 L 285 337 Q 286.7 341.1 282.5 340 L 279.5 342 L 279 340 L 284 339 Q 282.5 335.3 285.5 336 Q 307.9 322.9 324 303.5 L 337.5 283 Q 339.8 283.8 339 281.5 L 352.5 254 Z " /><path fill="rgb(232,142,51)" stroke="rgb(232,142,51)" stroke-width="1" opacity="0.9254901960784314" d="M 294.5 255 L 307 255.5 L 294.5 256 L 294.5 255 Z " /><path fill="rgb(232,142,51)" stroke="rgb(232,142,51)" stroke-width="1" opacity="0.9254901960784314" d="M 162.5 257 L 166 261.5 L 163 261.5 Q 165.5 260 162 258.5 L 162.5 257 Z " /><path fill="rgb(232,142,51)" stroke="rgb(232,142,51)" stroke-width="1" opacity="0.9254901960784314" d="M 330.5 263 L 330 264.5 L 322.5 278 L 322 276.5 L 330.5 263 Z " /><path fill="rgb(232,142,51)" stroke="rgb(232,142,51)" stroke-width="1" opacity="0.9254901960784314" d="M 191.5 274 L 190.5 276 L 182 275.5 L 190.5 275 L 191.5 274 Z " /><path fill="rgb(232,142,51)" stroke="rgb(232,142,51)" stroke-width="1" opacity="0.9254901960784314" d="M 58.5 279 Q 60.8 278.3 60 280.5 L 61 284 Q 64.8 282.5 64 285.5 L 66 290.5 L 88 317 L 104.5 330 L 117 337.5 L 118.5 340 L 146 352.5 L 143.5 353 L 117.5 341 L 94.5 324 L 77 306.5 L 64 289.5 L 63 285 Q 58.9 286.7 60 282.5 L 58.5 279 Z " /><path fill="rgb(232,142,51)" stroke="rgb(232,142,51)" stroke-width="1" opacity="0.9254901960784314" d="M 316.5 283 L 318 285.5 L 316 289 L 314 288.5 L 314.5 286 Q 317.4 286.7 316.5 283 Z " /><path fill="rgb(232,142,51)" stroke="rgb(232,142,51)" stroke-width="1" opacity="0.9254901960784314" d="M 312.5 289 L 312 290.5 L 311 294.5 L 299.5 306 L 297.5 305 L 296 305.5 Q 297.3 302.8 298.5 305 L 306 298.5 L 312.5 289 Z " /><path fill="rgb(232,142,51)" stroke="rgb(232,142,51)" stroke-width="1" opacity="0.9254901960784314" d="M 92.5 295 L 96 298.5 L 95 299.5 L 98.5 304 L 93 298.5 Q 95.3 297.3 92.5 296 L 91 296.5 L 92.5 295 Z " /><path fill="rgb(232,142,51)" stroke="rgb(232,142,51)" stroke-width="1" opacity="0.9254901960784314" d="M 260.5 331 L 262 331.5 L 244.5 339 L 245.5 337 L 260.5 331 Z " /><path fill="rgb(232,142,51)" stroke="rgb(232,142,51)" stroke-width="1" opacity="0.9254901960784314" d="M 277.5 341 L 278 342.5 L 266.5 349 L 262.5 349 L 254.5 353 L 255.5 351 L 260.5 348 L 264.5 348 L 269.5 346 L 277.5 341 Z " /><path fill="rgb(232,142,51)" stroke="rgb(232,142,51)" stroke-width="1" opacity="0.9254901960784314" d="M 175 359 L 177.5 360 L 222.5 360 L 225 359 L 224.5 361 L 175 361 L 175 359 Z " /><path fill="rgb(232,143,52)" stroke="rgb(232,143,52)" stroke-width="1" opacity="0.984313725490196" d="M 177.5 40 L 222.5 40 L 233.5 44 L 242.5 44 L 249.5 48 L 254.5 48 L 260.5 52 L 264.5 52 L 275.5 57 L 294.5 69 L 322 94.5 L 334 109.5 L 336 116 Q 340.1 114.3 339 118.5 L 340 121 L 342 121.5 Q 339.5 123 343 124.5 L 348 135.5 L 348 139.5 L 353 146.5 L 353 148.5 L 354 150.5 L 353 152.5 L 355 156.5 L 356 158.5 L 355 160.5 Q 358.5 162 356 163.5 L 358 166.5 L 357 168.5 Q 360.5 170 358 171.5 L 360 174.5 L 360 176.5 L 360 223.5 L 359 224.5 Q 361.5 226 358 227.5 L 359 229.5 L 357 232.5 Q 359.5 234 356 235.5 L 357 237.5 L 355 240.5 L 355 242.5 L 354 244.5 Q 356.5 246 353 247.5 L 354 249.5 L 352 252.5 Q 354.5 254 351 255.5 L 339 283 L 336 284.5 Q 324.6 307.1 305.5 322 L 288.5 335 L 284 336 Q 285.7 340.1 281.5 339 L 279 340 L 278.5 342 Q 277 339.5 275.5 343 L 264.5 348 L 260.5 348 L 253.5 353 L 251.5 352 Q 250 355.5 248.5 353 L 245.5 355 L 243.5 354 Q 242 357.5 240.5 355 L 237.5 357 L 235.5 356 Q 234 359.5 232.5 357 L 229.5 359 L 227.5 358 Q 226 361.5 224.5 359 L 222.5 360 L 177.5 360 L 175.5 359 Q 174 361.5 172.5 358 L 170.5 359 L 167.5 357 Q 166 359.5 164.5 356 L 162.5 357 L 159.5 355 Q 158 357.5 156.5 354 L 154.5 355 L 151.5 353 Q 150 355.5 148.5 352 L 146.5 353 L 117 338.5 L 115.5 336 L 104.5 330 L 88 317 L 66 290.5 L 64 284 Q 59.9 285.7 61 281.5 L 60 279 L 58 278.5 Q 60.5 277 57 275.5 L 44 242.5 L 44 234.5 L 40 222.5 L 40 177.5 L 44 165.5 L 44 157.5 L 48 150.5 L 48 145.5 L 61 117 L 64 115.5 Q 75.8 92.3 95.5 77 L 108.5 67 L 128.5 55 L 157.5 44 L 166.5 44 L 177.5 40 Z M 193 56 L 190 58 Q 185 59 184 57 L 164 62 L 159 62 L 149 67 L 143 68 L 129 76 L 126 75 L 126 77 L 108 90 L 101 98 L 98 100 L 90 108 L 76 127 L 68 143 L 60 168 L 58 186 L 56 190 L 57 193 L 57 210 L 58 211 Q 59 215 57 217 L 60 228 Q 61 232 59 234 L 61 234 Q 63 236 62 242 L 67 252 L 68 257 L 66 257 L 68 260 L 69 258 L 76 273 L 74 273 L 76 275 L 78 274 L 84 284 L 83 286 L 84 287 L 86 286 L 92 296 Q 93 300 98 299 Q 101 300 100 304 L 113 313 Q 115 312 114 315 L 125 322 Q 127 321 126 324 L 141 330 L 142 333 L 144 332 L 152 336 L 151 336 L 151 337 L 154 336 Q 161 336 166 340 L 165 340 L 165 341 L 168 340 Q 177 340 183 343 L 186 342 Q 190 341 192 343 L 208 343 L 209 342 Q 215 340 217 343 L 228 340 Q 232 339 234 341 L 234 340 L 244 336 L 247 337 L 246 337 L 246 338 L 250 337 L 248 336 L 254 332 L 257 333 L 251 335 L 251 336 L 254 336 L 260 333 L 258 332 L 261 329 L 273 324 L 272 326 L 274 326 Q 276 325 274 324 Q 281 315 293 310 L 299 303 L 303 300 L 304 298 L 311 292 L 306 298 L 307 299 L 311 295 L 315 287 L 315 289 Q 317 290 316 288 Q 319 286 317 285 L 322 274 L 325 275 L 326 273 L 324 273 Q 326 264 332 258 L 333 260 L 334 257 L 333 257 L 332 255 L 335 252 L 334 251 L 336 248 L 337 251 L 338 247 L 336 247 L 340 234 L 341 237 L 342 234 L 342 230 L 341 233 L 340 233 L 341 222 L 343 218 L 343 193 L 342 192 Q 340 185 343 184 L 340 168 L 337 161 L 337 157 L 332 146 L 333 142 L 332 142 L 324 130 L 325 127 L 324 126 L 306 103 Q 303 104 304 101 L 300 99 Q 301 95 299 96 L 294 91 L 279 81 L 275 76 L 278 78 L 279 78 L 273 74 L 273 76 L 258 69 L 260 68 L 251 63 L 248 64 L 257 67 L 257 68 L 254 68 L 247 64 L 236 62 L 234 60 L 233 60 L 226 60 L 210 57 L 208 57 L 205 56 L 203 57 L 194 57 L 193 56 Z " /><path fill="rgb(232,143,52)" stroke="rgb(232,143,52)" stroke-width="1" opacity="0.984313725490196" d="M 140.5 125 L 144 125.5 L 143.5 127 L 155.5 126 L 158 126.5 L 157.5 128 L 160.5 127 L 160.5 129 L 169.5 132 L 172 131 L 174.5 135 L 177 134 L 180.5 140 Q 182.8 139.3 182 141.5 L 187 144.5 L 188 146.5 L 187.5 148 L 190 149.5 L 188 149.5 L 195.5 164 L 197 163.5 L 198 167.5 L 197 169.5 L 199 169.5 L 198 173.5 L 200 173.5 L 201 179.5 L 201 181.5 L 200 193.5 L 202 193.5 L 201 203.5 L 199 206.5 L 200 211.5 L 198 211.5 L 196 220.5 L 196 222.5 L 194 229 L 192 229.5 L 192.5 231 L 191 231.5 L 191.5 233 L 190 233.5 Q 192.5 235 189 236.5 L 179.5 248 Q 174.7 246.3 176 250.5 Q 173.5 252 177 253.5 L 191 275 L 173.5 275 L 170 271.5 L 163 260.5 L 164 258.5 Q 162.8 255.8 161.5 258 L 154.5 259 L 152.5 259 L 133.5 259 L 129.5 258 Q 118.3 254.7 111 247.5 Q 111.8 245.3 109.5 246 L 105.5 240 Q 101.8 241.3 103 237.5 L 101 234 Q 98.3 235.1 99 232.5 L 99.5 231 L 98 230.5 L 98 228.5 L 93 215.5 L 93 211 Q 89.3 212.3 91 206.5 L 91.5 205 Q 88.5 205.9 90 201.5 L 89 200.5 L 89 185.5 L 90.5 180 L 91.5 184 L 92 179.5 L 91 176.5 Q 92.4 162.4 98.5 153 L 100 153.5 L 99 151.5 L 101.5 148 L 103 148.5 L 104 146.5 L 103 145.5 L 109 139.5 Q 108.3 137.3 110.5 138 Q 112.3 134.9 114 136.5 Q 112.9 133.2 115.5 134 L 118.5 132 L 120.5 133 L 123.5 129 L 127.5 130 L 136 127.5 L 135.5 126 L 140.5 125 Z M 142 136 L 142 138 L 138 139 L 134 138 L 133 140 L 121 149 Q 122 151 119 150 L 112 162 L 108 180 Q 104 181 107 183 L 107 203 L 106 204 L 107 206 L 106 208 L 108 208 L 107 214 L 109 213 Q 107 215 110 217 L 109 218 L 115 232 L 118 233 L 117 235 L 122 238 L 121 240 L 126 242 L 126 240 Q 128 241 126 243 L 129 244 L 129 242 L 134 245 L 135 247 L 138 246 L 138 248 L 140 247 L 152 247 L 154 248 L 153 247 L 155 247 L 160 246 L 160 244 L 162 245 L 162 243 L 164 244 L 166 240 Q 165 237 168 238 L 168 240 L 172 237 L 171 235 L 172 232 L 175 233 L 180 224 L 179 222 L 180 219 L 182 219 L 184 213 L 183 209 L 184 184 L 185 181 Q 186 178 183 179 L 182 175 L 183 170 L 182 170 Q 179 159 172 152 L 173 150 L 169 145 L 168 146 L 167 145 L 166 145 L 158 140 L 158 138 L 156 139 L 156 137 L 154 138 Q 149 139 150 136 L 147 137 L 142 136 Z " /><path fill="rgb(232,143,52)" stroke="rgb(232,143,52)" stroke-width="1" opacity="0.984313725490196" d="M 215.5 127 L 268.5 127 L 269 128.5 L 270.5 128 L 274 128.5 L 271 129.5 L 277.5 130 L 279 129.5 L 278.5 131 L 281.5 130 L 281.5 132 L 283.5 133 L 285.5 132 L 290 135 L 297 146.5 L 296 148.5 L 298.5 154 L 300 153.5 Q 302.4 158.6 301 167.5 L 300 169.5 L 301 173 L 299 173.5 L 300 177.5 L 297 181.5 L 297 183.5 L 296.5 185 L 295 184.5 L 289.5 194 L 287.5 193 L 286.5 196 L 284.5 195 L 283.5 198 L 281.5 197 Q 280 200.5 278.5 198 L 273 199 Q 274.1 201.7 271.5 201 L 270 203.5 Q 273.1 205.3 271.5 207 L 275 209.5 L 274.5 211 L 278 213.5 L 277.5 215 L 281 217.5 L 286 224.5 L 285.5 226 L 289 228.5 L 288.5 230 L 292 232.5 L 309 256.5 L 290.5 257 L 279 241.5 L 279.5 240 L 275 236.5 L 270 229.5 L 272 228.5 L 267 225.5 L 269 224.5 L 265 222.5 L 266 220.5 L 262 218.5 L 264 217.5 L 260 215.5 L 261 213.5 L 257 211.5 L 259 210.5 L 254.5 205 Q 253.3 207.3 252 204.5 L 254 203.5 Q 252.3 199.3 250.5 202 L 232 202 L 232 255.5 L 230.5 257 L 215.5 257 L 214 255.5 L 214 128.5 L 215.5 127 Z M 266 138 L 265 139 L 232 139 L 232 190 L 265 190 L 269 190 L 271 188 L 272 189 L 272 188 L 283 179 L 282 177 L 283 173 Q 281 168 285 169 L 285 167 L 283 164 Q 282 158 284 157 L 282 151 Q 283 148 281 149 L 280 146 Q 277 147 278 145 Q 277 142 276 144 L 275 141 L 273 142 L 271 139 L 269 140 L 269 139 L 266 138 Z M 295 255 L 295 256 L 307 256 L 295 255 Z " /></svg>