<svg width="200" height="200" version="1.1" xmlns="http://www.w3.org/2000/svg" desc="Created with imagetracer.js version 1.2.6" ><path fill="rgb(127,127,127)" stroke="rgb(127,127,127)" stroke-width="1" opacity="0.5019607843137255" d="M 146.5 14 L 151 14.5 L 146.5 15 L 146.5 14 Z " /><path fill="rgb(127,127,127)" stroke="rgb(127,127,127)" stroke-width="1" opacity="0.5019607843137255" d="M 144.5 15 L 141.5 19 L 144.5 15 Z " /><path fill="rgb(127,127,127)" stroke="rgb(127,127,127)" stroke-width="1" opacity="0.5019607843137255" d="M 152.5 15 L 155 16.5 L 153.5 16 L 152.5 15 Z " /><path fill="rgb(127,127,127)" stroke="rgb(127,127,127)" stroke-width="1" opacity="0.5019607843137255" d="M 156.5 18 L 157.5 20 L 156.5 18 Z " /><path fill="rgb(127,127,127)" stroke="rgb(127,127,127)" stroke-width="1" opacity="0.5019607843137255" d="M 158.5 21 L 159.5 23 L 158.5 21 Z " /><path fill="rgb(127,127,127)" stroke="rgb(127,127,127)" stroke-width="1" opacity="0.5019607843137255" d="M 160.5 24 L 163 27.5 L 161 26.5 L 160.5 24 Z " /><path fill="rgb(127,127,127)" stroke="rgb(127,127,127)" stroke-width="1" opacity="0.5019607843137255" d="M 81.5 26 L 103 26.5 L 81.5 27 L 81.5 26 Z " /><path fill="rgb(127,127,127)" stroke="rgb(127,127,127)" stroke-width="1" opacity="0.5019607843137255" d="M 137.5 26 L 138 27.5 L 135.5 32 L 135 30.5 L 137.5 26 Z " /><path fill="rgb(127,127,127)" stroke="rgb(127,127,127)" stroke-width="1" opacity="0.5019607843137255" d="M 74.5 27 L 80 27.5 L 74.5 28 L 74.5 27 Z " /><path fill="rgb(127,127,127)" stroke="rgb(127,127,127)" stroke-width="1" opacity="0.5019607843137255" d="M 106.5 27 L 112 27.5 L 106.5 28 L 106.5 27 Z " /><path fill="rgb(127,127,127)" stroke="rgb(127,127,127)" stroke-width="1" opacity="0.5019607843137255" d="M 69.5 28 L 73 28.5 L 69.5 29 L 69.5 28 Z " /><path fill="rgb(127,127,127)" stroke="rgb(127,127,127)" stroke-width="1" opacity="0.5019607843137255" d="M 114.5 28 L 117 28.5 L 114.5 29 L 114.5 28 Z " /><path fill="rgb(127,127,127)" stroke="rgb(127,127,127)" stroke-width="1" opacity="0.5019607843137255" d="M 65.5 29 L 68 29.5 L 62.5 31 L 62.5 30 L 65.5 29 Z " /><path fill="rgb(127,127,127)" stroke="rgb(127,127,127)" stroke-width="1" opacity="0.5019607843137255" d="M 119.5 29 L 122 29.5 L 119.5 30 L 119.5 29 Z " /><path fill="rgb(127,127,127)" stroke="rgb(127,127,127)" stroke-width="1" opacity="0.5019607843137255" d="M 163.5 29 L 166 32.5 L 164 31.5 L 163.5 29 Z " /><path fill="rgb(127,127,127)" stroke="rgb(127,127,127)" stroke-width="1" opacity="0.5019607843137255" d="M 123.5 30 L 126 30.5 L 123.5 31 L 123.5 30 Z " /><path fill="rgb(127,127,127)" stroke="rgb(127,127,127)" stroke-width="1" opacity="0.5019607843137255" d="M 54.5 33 L 56 33.5 Q 39.2 40.2 29 53.5 L 26.5 57 L 28 54.5 L 38.5 43 L 54.5 33 Z " /><path fill="rgb(127,127,127)" stroke="rgb(127,127,127)" stroke-width="1" opacity="0.5019607843137255" d="M 166.5 34 L 169 37.5 L 167 36.5 L 166.5 34 Z " /><path fill="rgb(127,127,127)" stroke="rgb(127,127,127)" stroke-width="1" opacity="0.5019607843137255" d="M 169.5 39 L 172 42.5 L 170 41.5 L 169.5 39 Z " /><path fill="rgb(127,127,127)" stroke="rgb(127,127,127)" stroke-width="1" opacity="0.5019607843137255" d="M 172.5 44 L 175 47.5 L 173 46.5 L 172.5 44 Z " /><path fill="rgb(127,127,127)" stroke="rgb(127,127,127)" stroke-width="1" opacity="0.5019607843137255" d="M 175.5 49 L 178 52.5 L 176 51.5 L 175.5 49 Z " /><path fill="rgb(127,127,127)" stroke="rgb(127,127,127)" stroke-width="1" opacity="0.5019607843137255" d="M 178.5 54 L 181 57.5 L 179 56.5 L 178.5 54 Z " /><path fill="rgb(127,127,127)" stroke="rgb(127,127,127)" stroke-width="1" opacity="0.5019607843137255" d="M 25.5 58 L 24 60.5 L 18.5 70 L 19 68.5 L 25.5 58 Z " /><path fill="rgb(127,127,127)" stroke="rgb(127,127,127)" stroke-width="1" opacity="0.5019607843137255" d="M 64.5 59 L 82 59.5 L 64.5 60 L 64.5 59 Z " /><path fill="rgb(127,127,127)" stroke="rgb(127,127,127)" stroke-width="1" opacity="0.5019607843137255" d="M 181.5 59 L 184 62.5 L 182 61.5 L 181.5 59 Z " /><path fill="rgb(127,127,127)" stroke="rgb(127,127,127)" stroke-width="1" opacity="0.5019607843137255" d="M 58.5 60 L 61 60.5 L 58.5 61 L 58.5 60 Z " /><path fill="rgb(127,127,127)" stroke="rgb(127,127,127)" stroke-width="1" opacity="0.5019607843137255" d="M 84.5 60 L 91 60.5 L 84.5 61 L 84.5 60 Z " /><path fill="rgb(127,127,127)" stroke="rgb(127,127,127)" stroke-width="1" opacity="0.5019607843137255" d="M 54.5 61 L 57 61.5 L 54.5 62 L 54.5 61 Z " /><path fill="rgb(127,127,127)" stroke="rgb(127,127,127)" stroke-width="1" opacity="0.5019607843137255" d="M 92.5 61 L 96 61.5 L 92.5 62 L 92.5 61 Z " /><path fill="rgb(127,127,127)" stroke="rgb(127,127,127)" stroke-width="1" opacity="0.5019607843137255" d="M 97.5 62 L 101 62.5 L 97.5 63 L 97.5 62 Z " /><path fill="rgb(127,127,127)" stroke="rgb(127,127,127)" stroke-width="1" opacity="0.5019607843137255" d="M 102.5 63 L 118 67 L 117.5 69 L 114.5 67 L 102.5 64 L 102.5 63 Z " /><path fill="rgb(127,127,127)" stroke="rgb(127,127,127)" stroke-width="1" opacity="0.5019607843137255" d="M 184.5 64 L 187 68.5 L 186 68.5 L 184.5 64 Z " /><path fill="rgb(127,127,127)" stroke="rgb(127,127,127)" stroke-width="1" opacity="0.5019607843137255" d="M 38.5 67 L 37.5 69 L 33.5 71 L 34.5 69 L 38.5 67 Z " /><path fill="rgb(127,127,127)" stroke="rgb(127,127,127)" stroke-width="1" opacity="0.5019607843137255" d="M 116.5 70 L 117 71.5 L 112.5 80 L 112 78.5 L 116.5 70 Z " /><path fill="rgb(127,127,127)" stroke="rgb(127,127,127)" stroke-width="1" opacity="0.5019607843137255" d="M 187.5 70 L 188 74.5 L 187 74.5 L 187.5 70 Z " /><path fill="rgb(127,127,127)" stroke="rgb(127,127,127)" stroke-width="1" opacity="0.5019607843137255" d="M 17.5 71 L 18 72.5 L 16.5 75 L 16 73.5 L 17.5 71 Z " /><path fill="rgb(127,127,127)" stroke="rgb(127,127,127)" stroke-width="1" opacity="0.5019607843137255" d="M 31.5 71 L 30.5 73 L 31.5 71 Z " /><path fill="rgb(127,127,127)" stroke="rgb(127,127,127)" stroke-width="1" opacity="0.5019607843137255" d="M 28.5 73 L 27.5 75 L 28.5 73 Z " /><path fill="rgb(127,127,127)" stroke="rgb(127,127,127)" stroke-width="1" opacity="0.5019607843137255" d="M 24.5 76 L 18.5 83 L 24.5 76 Z " /><path fill="rgb(127,127,127)" stroke="rgb(127,127,127)" stroke-width="1" opacity="0.5019607843137255" d="M 186.5 76 L 184.5 79 L 186.5 76 Z " /><path fill="rgb(127,127,127)" stroke="rgb(127,127,127)" stroke-width="1" opacity="0.5019607843137255" d="M 176.5 81 L 179 81.5 L 176.5 82 L 176.5 81 Z " /><path fill="rgb(127,127,127)" stroke="rgb(127,127,127)" stroke-width="1" opacity="0.5019607843137255" d="M 171.5 82 L 174 82.5 L 171.5 83 L 171.5 82 Z " /><path fill="rgb(127,127,127)" stroke="rgb(127,127,127)" stroke-width="1" opacity="0.5019607843137255" d="M 110.5 83 Q 110 89.5 113.5 92 L 115 92.5 L 113.5 93 Q 108 91 110.5 83 Z " /><path fill="rgb(127,127,127)" stroke="rgb(127,127,127)" stroke-width="1" opacity="0.5019607843137255" d="M 167.5 83 L 170 83.5 L 167.5 84 L 167.5 83 Z " /><path fill="rgb(127,127,127)" stroke="rgb(127,127,127)" stroke-width="1" opacity="0.5019607843137255" d="M 162.5 84 L 165 84.5 L 162.5 85 L 162.5 84 Z " /><path fill="rgb(127,127,127)" stroke="rgb(127,127,127)" stroke-width="1" opacity="0.5019607843137255" d="M 16.5 85 L 13.5 89 L 16.5 85 Z " /><path fill="rgb(127,127,127)" stroke="rgb(127,127,127)" stroke-width="1" opacity="0.5019607843137255" d="M 158.5 85 L 161 85.5 L 158.5 86 L 158.5 85 Z " /><path fill="rgb(127,127,127)" stroke="rgb(127,127,127)" stroke-width="1" opacity="0.5019607843137255" d="M 153.5 86 L 156 86.5 L 153.5 87 L 153.5 86 Z " /><path fill="rgb(127,127,127)" stroke="rgb(127,127,127)" stroke-width="1" opacity="0.5019607843137255" d="M 149.5 87 L 152 87.5 L 149.5 88 L 149.5 87 Z " /><path fill="rgb(127,127,127)" stroke="rgb(127,127,127)" stroke-width="1" opacity="0.5019607843137255" d="M 144.5 88 L 147 88.5 L 144.5 89 L 144.5 88 Z " /><path fill="rgb(127,127,127)" stroke="rgb(127,127,127)" stroke-width="1" opacity="0.5019607843137255" d="M 140.5 89 L 143 89.5 L 140.5 90 L 140.5 89 Z " /><path fill="rgb(127,127,127)" stroke="rgb(127,127,127)" stroke-width="1" opacity="0.5019607843137255" d="M 10.5 90 L 13 90.5 L 9.5 95 L 10 93.5 L 10.5 90 Z " /><path fill="rgb(127,127,127)" stroke="rgb(127,127,127)" stroke-width="1" opacity="0.5019607843137255" d="M 135.5 90 L 138 90.5 L 135.5 91 L 135.5 90 Z " /><path fill="rgb(127,127,127)" stroke="rgb(127,127,127)" stroke-width="1" opacity="0.5019607843137255" d="M 131.5 91 L 134 91.5 L 131.5 92 L 131.5 91 Z " /><path fill="rgb(127,127,127)" stroke="rgb(127,127,127)" stroke-width="1" opacity="0.5019607843137255" d="M 126.5 92 L 129 92.5 L 126.5 93 L 126.5 92 Z " /><path fill="rgb(127,127,127)" stroke="rgb(127,127,127)" stroke-width="1" opacity="0.5019607843137255" d="M 116.5 93 L 124 93.5 L 116.5 94 L 116.5 93 Z " /><path fill="rgb(127,127,127)" stroke="rgb(127,127,127)" stroke-width="1" opacity="0.5019607843137255" d="M 191.5 104 L 192 106 L 190 105.5 L 191.5 104 Z " /><path fill="rgb(127,127,127)" stroke="rgb(127,127,127)" stroke-width="1" opacity="0.5019607843137255" d="M 189.5 107 Q 192.1 106.2 191 109.5 L 190 109.5 L 189.5 108 L 186.5 112 L 188 109.5 L 189.5 107 Z " /><path fill="rgb(127,127,127)" stroke="rgb(127,127,127)" stroke-width="1" opacity="0.5019607843137255" d="M 75.5 108 L 79 108.5 L 75.5 109 L 75.5 108 Z " /><path fill="rgb(127,127,127)" stroke="rgb(127,127,127)" stroke-width="1" opacity="0.5019607843137255" d="M 84.5 108 L 87 108.5 L 84.5 109 L 84.5 108 Z " /><path fill="rgb(127,127,127)" stroke="rgb(127,127,127)" stroke-width="1" opacity="0.5019607843137255" d="M 71.5 109 L 74 109.5 L 71.5 110 L 71.5 109 Z " /><path fill="rgb(127,127,127)" stroke="rgb(127,127,127)" stroke-width="1" opacity="0.5019607843137255" d="M 88.5 109 L 89.5 111 L 88.5 109 Z " /><path fill="rgb(127,127,127)" stroke="rgb(127,127,127)" stroke-width="1" opacity="0.5019607843137255" d="M 67.5 110 L 70 110.5 L 67.5 111 L 67.5 110 Z " /><path fill="rgb(127,127,127)" stroke="rgb(127,127,127)" stroke-width="1" opacity="0.5019607843137255" d="M 63.5 111 L 66 111.5 L 63.5 112 L 63.5 111 Z " /><path fill="rgb(127,127,127)" stroke="rgb(127,127,127)" stroke-width="1" opacity="0.5019607843137255" d="M 189.5 111 L 190 113.5 L 188.5 117 L 188 114.5 L 189.5 111 Z " /><path fill="rgb(127,127,127)" stroke="rgb(127,127,127)" stroke-width="1" opacity="0.5019607843137255" d="M 59.5 112 L 62 112.5 L 59.5 113 L 59.5 112 Z " /><path fill="rgb(127,127,127)" stroke="rgb(127,127,127)" stroke-width="1" opacity="0.5019607843137255" d="M 55.5 113 L 58 113.5 L 55.5 114 L 55.5 113 Z " /><path fill="rgb(127,127,127)" stroke="rgb(127,127,127)" stroke-width="1" opacity="0.5019607843137255" d="M 185.5 113 L 182 117.5 L 176.5 124 L 169.5 129 L 171.5 126 L 181 118.5 L 185.5 113 Z " /><path fill="rgb(127,127,127)" stroke="rgb(127,127,127)" stroke-width="1" opacity="0.5019607843137255" d="M 51.5 114 L 54 114.5 L 51.5 115 L 51.5 114 Z " /><path fill="rgb(127,127,127)" stroke="rgb(127,127,127)" stroke-width="1" opacity="0.5019607843137255" d="M 46.5 115 L 50 115.5 L 30.5 120 L 30.5 119 L 46.5 115 Z " /><path fill="rgb(127,127,127)" stroke="rgb(127,127,127)" stroke-width="1" opacity="0.5019607843137255" d="M 90.5 117 L 91 119.5 L 89.5 122 L 89 120.5 L 90.5 117 Z " /><path fill="rgb(127,127,127)" stroke="rgb(127,127,127)" stroke-width="1" opacity="0.5019607843137255" d="M 26.5 120 L 29 120.5 L 26.5 121 L 26.5 120 Z " /><path fill="rgb(127,127,127)" stroke="rgb(127,127,127)" stroke-width="1" opacity="0.5019607843137255" d="M 22.5 121 L 25 121.5 L 22.5 122 L 22.5 121 Z " /><path fill="rgb(127,127,127)" stroke="rgb(127,127,127)" stroke-width="1" opacity="0.5019607843137255" d="M 186.5 121 L 187 122.5 L 185.5 125 L 185 123.5 L 186.5 121 Z " /><path fill="rgb(127,127,127)" stroke="rgb(127,127,127)" stroke-width="1" opacity="0.5019607843137255" d="M 18.5 123 L 15 127.5 L 14.5 129 L 14 127.5 L 18.5 123 Z " /><path fill="rgb(127,127,127)" stroke="rgb(127,127,127)" stroke-width="1" opacity="0.5019607843137255" d="M 87.5 125 L 88 126.5 L 85.5 131 L 85 129.5 L 87.5 125 Z " /><path fill="rgb(127,127,127)" stroke="rgb(127,127,127)" stroke-width="1" opacity="0.5019607843137255" d="M 184.5 126 L 185 127.5 L 180.5 135 L 181 133.5 L 184.5 126 Z " /><path fill="rgb(127,127,127)" stroke="rgb(127,127,127)" stroke-width="1" opacity="0.5019607843137255" d="M 167.5 129 L 166.5 131 L 162.5 133 L 163.5 131 L 167.5 129 Z " /><path fill="rgb(127,127,127)" stroke="rgb(127,127,127)" stroke-width="1" opacity="0.5019607843137255" d="M 14.5 132 Q 30.3 161.2 49.5 187 L 53 187.5 L 49.5 188 L 45 183.5 L 15 136.5 L 14.5 132 Z " /><path fill="rgb(127,127,127)" stroke="rgb(127,127,127)" stroke-width="1" opacity="0.5019607843137255" d="M 159.5 133 L 161 133.5 L 155.5 136 L 155.5 135 L 159.5 133 Z " /><path fill="rgb(127,127,127)" stroke="rgb(127,127,127)" stroke-width="1" opacity="0.5019607843137255" d="M 92.5 136 L 95 136.5 L 92.5 137 L 92.5 136 Z " /><path fill="rgb(127,127,127)" stroke="rgb(127,127,127)" stroke-width="1" opacity="0.5019607843137255" d="M 152.5 136 L 154 136.5 L 149.5 138 L 149.5 137 L 152.5 136 Z " /><path fill="rgb(127,127,127)" stroke="rgb(127,127,127)" stroke-width="1" opacity="0.5019607843137255" d="M 179.5 136 L 179 137.5 L 171.5 148 L 174 144.5 L 179.5 136 Z " /><path fill="rgb(127,127,127)" stroke="rgb(127,127,127)" stroke-width="1" opacity="0.5019607843137255" d="M 96.5 137 L 99 137.5 L 96.5 138 L 96.5 137 Z " /><path fill="rgb(127,127,127)" stroke="rgb(127,127,127)" stroke-width="1" opacity="0.5019607843137255" d="M 100.5 138 L 104 138.5 L 100.5 139 L 100.5 138 Z " /><path fill="rgb(127,127,127)" stroke="rgb(127,127,127)" stroke-width="1" opacity="0.5019607843137255" d="M 145.5 138 L 148 138.5 L 142.5 140 L 142.5 139 L 145.5 138 Z " /><path fill="rgb(127,127,127)" stroke="rgb(127,127,127)" stroke-width="1" opacity="0.5019607843137255" d="M 106.5 139 L 110 139.5 L 106.5 140 L 106.5 139 Z " /><path fill="rgb(127,127,127)" stroke="rgb(127,127,127)" stroke-width="1" opacity="0.5019607843137255" d="M 112.5 140 L 119 140.5 L 112.5 141 L 112.5 140 Z " /><path fill="rgb(127,127,127)" stroke="rgb(127,127,127)" stroke-width="1" opacity="0.5019607843137255" d="M 134.5 140 L 141 140.5 L 134.5 141 L 134.5 140 Z " /><path fill="rgb(127,127,127)" stroke="rgb(127,127,127)" stroke-width="1" opacity="0.5019607843137255" d="M 127.5 141 L 130 141.5 L 127.5 142 L 127.5 141 Z " /><path fill="rgb(127,127,127)" stroke="rgb(127,127,127)" stroke-width="1" opacity="0.5019607843137255" d="M 170.5 149 L 163.5 157 L 170.5 149 Z " /><path fill="rgb(127,127,127)" stroke="rgb(127,127,127)" stroke-width="1" opacity="0.5019607843137255" d="M 161.5 157 L 159.5 160 L 161.5 157 Z " /><path fill="rgb(127,127,127)" stroke="rgb(127,127,127)" stroke-width="1" opacity="0.5019607843137255" d="M 157.5 160 L 155.5 163 L 153.5 164 L 154.5 162 L 157.5 160 Z " /><path fill="rgb(127,127,127)" stroke="rgb(127,127,127)" stroke-width="1" opacity="0.5019607843137255" d="M 68.5 168 L 81 171.5 L 77.5 172 L 68 169 L 67.5 171 L 67 169.5 L 68.5 168 Z " /><path fill="rgb(127,127,127)" stroke="rgb(127,127,127)" stroke-width="1" opacity="0.5019607843137255" d="M 132.5 171 L 135 171.5 L 132.5 172 L 132.5 171 Z " /><path fill="rgb(127,127,127)" stroke="rgb(127,127,127)" stroke-width="1" opacity="0.5019607843137255" d="M 82.5 172 L 94 173.5 L 87.5 174 L 82.5 173 L 82.5 172 Z " /><path fill="rgb(127,127,127)" stroke="rgb(127,127,127)" stroke-width="1" opacity="0.5019607843137255" d="M 127.5 172 L 130 172.5 L 127.5 173 L 127.5 172 Z " /><path fill="rgb(127,127,127)" stroke="rgb(127,127,127)" stroke-width="1" opacity="0.5019607843137255" d="M 120.5 173 L 125 173.5 L 120.5 174 L 120.5 173 Z " /><path fill="rgb(127,127,127)" stroke="rgb(127,127,127)" stroke-width="1" opacity="0.5019607843137255" d="M 65.5 174 L 66 175.5 L 64.5 178 L 64 176.5 L 65.5 174 Z " /><path fill="rgb(127,127,127)" stroke="rgb(127,127,127)" stroke-width="1" opacity="0.5019607843137255" d="M 96.5 174 L 116 174.5 L 96.5 175 L 96.5 174 Z " /><path fill="rgb(127,127,127)" stroke="rgb(127,127,127)" stroke-width="1" opacity="0.5019607843137255" d="M 62.5 181 L 63 182.5 L 58 186.5 L 62.5 181 Z " /><path fill="rgb(127,127,127)" stroke="rgb(127,127,127)" stroke-width="1" opacity="1" d="M 145.5 15 Q 153.1 14.1 156 17 L 184 63.5 L 187 69.5 L 187 75.5 Q 183.3 80.8 175.5 82 L 171.5 82 L 125.5 93 L 115.5 93 L 112 90.5 L 111 82.5 L 118 67 L 90.5 60 L 64.5 59 L 50.5 62 L 34.5 69 L 18 82.5 L 11.5 91 L 11 89.5 Q 18.9 60.9 38.5 44 Q 50.7 33.7 68.5 29 L 79.5 28 L 80.5 27 L 105.5 27 L 106.5 28 L 118.5 29 L 135 34 L 141 19.5 L 145.5 15 Z " /><path fill="rgb(127,127,127)" stroke="rgb(127,127,127)" stroke-width="1" opacity="1" d="M 79.5 108 L 87.5 109 L 90 111.5 L 91 116.5 L 84 134 L 100.5 139 L 129.5 142 L 130.5 141 L 140.5 141 L 156.5 136 Q 171.7 129.7 182 118.5 L 189.5 108 L 190 110.5 Q 182.3 139.8 162.5 157 Q 140.1 177.1 94.5 174 L 93.5 173 L 81.5 172 L 68.5 168 L 62 182.5 L 57.5 187 L 53.5 188 L 49.5 187 L 46 183.5 L 15 134.5 L 14 129.5 L 19.5 123 L 79.5 108 Z " /><path fill="rgb(0,0,0)" stroke="rgb(0,0,0)" stroke-width="1" opacity="0" d="M 0 0 L 200 0 L 200 200 L 0 200 L 0 0 Z M 147 14 L 145 15 L 141 19 L 135 33 L 122 29 L 112 27 L 104 27 L 103 26 L 82 26 L 66 29 Q 50 34 39 43 Q 28 52 21 64 L 10 91 L 11 94 L 17 85 Q 26 73 40 67 L 62 60 L 84 60 Q 85 63 92 61 L 117 68 L 110 84 L 110 90 L 117 94 L 124 94 L 134 92 L 175 82 L 179 82 L 185 79 L 188 75 Q 189 68 186 66 L 158 20 Q 155 14 147 14 Z M 192 104 L 181 119 L 162 133 L 142 140 Q 135 138 134 141 L 111 140 L 85 134 L 91 120 L 90 111 L 87 108 L 76 108 L 23 121 L 14 128 L 15 137 L 45 184 L 50 188 L 59 187 L 63 183 L 68 169 L 78 172 L 88 174 L 96 174 L 97 175 L 116 175 L 117 174 L 125 174 L 135 172 Q 152 167 164 157 Q 185 138 192 106 L 192 104 Z " /></svg>