<svg width="256" height="256" version="1.1" xmlns="http://www.w3.org/2000/svg" desc="Created with imagetracer.js version 1.2.6" ><path fill="rgb(0,0,0)" stroke="rgb(0,0,0)" stroke-width="1" opacity="0" d="M 0 0 L 256 0 L 256 256 L 0 256 L 0 0 Z M 133 25 L 129 26 Q 130 31 126 33 Q 125 39 129 41 L 132 44 L 157 44 L 157 212 L 157 212 L 132 212 Q 132 215 129 214 L 126 221 Q 126 227 129 230 L 133 231 L 202 231 L 203 230 L 205 230 Q 204 227 207 228 L 208 226 L 208 218 L 207 216 Q 204 217 205 215 L 203 212 L 177 212 L 177 45 L 178 44 L 203 44 L 205 40 L 208 39 L 208 31 L 207 30 Q 208 27 205 28 L 205 26 L 202 25 L 133 25 Z M 37 72 Q 38 75 35 74 L 33 79 L 33 179 Q 36 180 35 183 L 38 184 L 141 184 L 143 183 L 146 177 Q 146 170 143 167 L 141 167 L 141 165 L 52 165 L 52 91 L 140 91 L 141 90 Q 140 86 144 88 L 146 84 Q 147 77 144 75 L 141 72 L 37 72 Z M 195 72 L 194 73 Q 190 72 192 76 L 189 76 Q 188 84 190 88 L 194 90 L 195 91 L 205 91 L 205 165 L 205 165 L 195 165 L 194 167 L 192 168 L 189 171 L 189 180 L 195 184 L 219 184 L 220 183 Q 222 184 221 180 L 224 180 L 224 78 L 223 76 Q 220 77 221 73 L 219 72 L 195 72 Z M 72 118 L 68 120 L 65 123 L 65 134 L 72 138 L 122 138 L 127 136 L 130 131 L 130 126 L 128 120 L 122 118 L 72 118 Z " /><path fill="rgb(188,140,186)" stroke="rgb(188,140,186)" stroke-width="1" opacity="0.8470588235294118" d="M 132.5 25 L 201.5 25 L 205 26 L 205 28 Q 207.7 26.9 207 29.5 L 208 30.5 L 208 38.5 L 205 40 L 202.5 44 L 177.5 44 L 177 44.5 L 177 212 L 202.5 212 L 205 214.5 Q 204.3 216.8 206.5 216 L 208 217.5 L 208 225.5 L 207 228 Q 204 227 205 230 L 202.5 230 L 201.5 231 L 132.5 231 L 129 230 Q 126.3 227 126 220.5 L 129 214 Q 132.1 214.8 131.5 212 L 156.5 212 L 157 211.5 L 157 44 L 131.5 44 L 129 40.5 Q 125.1 38.9 126 32.5 Q 129.6 30.6 129 26 L 132.5 25 Z " /><path fill="rgb(188,140,186)" stroke="rgb(188,140,186)" stroke-width="1" opacity="0.8470588235294118" d="M 37 72 L 140.5 72 L 144 74.5 Q 146.6 77.4 146 83.5 L 144 88 Q 140.2 86.5 141 89.5 L 139.5 91 L 52 91 L 52 165 L 140.5 165 L 141 167 L 142.5 167 Q 146 170 146 176.5 L 142.5 183 L 140.5 184 L 37.5 184 L 35 183 Q 35.8 179.6 33 178.5 L 33 78.5 L 35 74 Q 38 75 37 72 Z " /><path fill="rgb(188,140,186)" stroke="rgb(188,140,186)" stroke-width="1" opacity="0.8470588235294118" d="M 194.5 72 L 218.5 72 L 221 73 Q 219.5 76.7 222.5 76 L 224 77.5 L 224 180 L 221 180 Q 222.5 183.8 219.5 183 L 218.5 184 L 194.5 184 L 189 179.5 L 189 170.5 L 191.5 168 L 194 166.5 L 194.5 165 L 204.5 165 L 205 164.5 L 205 91 L 194.5 91 L 194 89.5 L 190 88 Q 187.8 84.3 189 76 L 192 76 Q 190.5 72.3 193.5 73 L 194.5 72 Z " /><path fill="rgb(188,140,186)" stroke="rgb(188,140,186)" stroke-width="1" opacity="0.8470588235294118" d="M 71.5 118 L 121.5 118 L 128 120 L 130 125.5 L 130 130.5 L 126.5 136 L 121.5 138 L 71.5 138 L 65 133.5 L 65 122.5 L 67.5 120 L 71.5 118 Z " /></svg>