<svg width="200" height="200" version="1.1" xmlns="http://www.w3.org/2000/svg" desc="Created with imagetracer.js version 1.2.6" ><path fill="rgb(0,0,0)" stroke="rgb(0,0,0)" stroke-width="1" opacity="0" d="M 0 0 L 200 0 L 200 200 L 0 200 L 0 0 Z M 82 39 L 82 48 L 80 46 Q 72 45 71 49 Q 68 48 69 51 L 68 51 L 59 60 Q 56 59 57 62 L 44 73 L 31 87 Q 29 97 34 101 L 61 125 Q 63 124 62 127 L 76 137 L 81 136 L 82 134 L 82 144 L 84 144 L 84 133 L 82 133 L 83 132 L 83 113 L 106 114 L 119 117 L 136 124 L 146 131 Q 159 142 167 159 Q 166 162 169 161 L 169 145 L 163 125 L 151 102 L 143 92 Q 132 79 116 72 L 102 68 L 94 68 L 93 67 L 85 67 L 84 68 L 83 51 L 82 50 L 84 50 L 84 40 L 82 39 Z " /><path fill="rgb(125,125,125)" stroke="rgb(125,125,125)" stroke-width="1" opacity="0.45098039215686275" d="M 82 39 L 84 39.5 L 84 49.5 L 83 50.5 L 83 67.5 L 84.5 67 L 101.5 68 L 115.5 72 Q 132 79 143 91.5 Q 153.3 102.7 160 117.5 L 167 136.5 L 169 144.5 L 169 151.5 L 168 151.5 Q 161.5 106 132.5 83 Q 116.5 69 87.5 68 L 84.5 69 L 82 67.5 L 82 51.5 L 78.5 47 L 72.5 48 L 35 82.5 L 32 89.5 L 32 93.5 L 34 98.5 L 43.5 108 L 67.5 130 L 77.5 136 L 81 133.5 L 82 131.5 L 82 112 L 105.5 113 L 124.5 118 Q 142.8 125.2 155 138.5 L 169 160.5 L 167 161 Q 160.5 142.3 145.5 131 L 135.5 124 L 118.5 117 L 105.5 114 L 83 113 L 83 131.5 L 82 132.5 L 84 133 L 84 143.5 L 82 144 L 81.5 134 L 81 136 L 75.5 137 L 62 127 Q 63.1 124.3 60.5 125 L 34 100.5 Q 29.3 96.7 31 86.5 L 43.5 73 L 57 62 Q 55.9 59.3 58.5 60 L 67.5 51 L 69 51 Q 67.9 48.3 70.5 49 Q 72 44.5 79.5 46 L 82 47.5 L 82 39 Z " /><path fill="rgb(127,127,127)" stroke="rgb(127,127,127)" stroke-width="1" opacity="0.996078431372549" d="M 74.5 47 Q 80 46 81 49.5 L 82 51.5 L 82 67.5 L 83.5 69 L 85.5 68 L 87.5 68 L 100.5 69 L 117.5 74 Q 134.9 82.1 146 96.5 Q 156.6 109.9 163 127.5 L 168 146.5 L 169 159.5 L 168 159.5 Q 161.3 143.7 149.5 133 Q 126.6 111.1 82 112 L 82 131.5 L 79.5 135 L 76.5 136 L 67.5 130 L 34 98.5 Q 31.4 95.6 32 89.5 Q 33.6 82.6 38.5 79 L 74.5 47 Z " /></svg>