<svg width="200" height="200" version="1.1" xmlns="http://www.w3.org/2000/svg" desc="Created with imagetracer.js version 1.2.6" ><path fill="rgb(0,0,0)" stroke="rgb(0,0,0)" stroke-width="1" opacity="0" d="M 0 0 L 200 0 L 200 200 L 0 200 L 0 0 Z M 126 66 L 123 69 L 122 73 L 122 86 L 35 86 L 33 87 L 30 90 L 30 111 L 35 114 L 122 114 Q 120 127 124 134 L 133 134 L 164 111 L 170 105 L 170 96 L 133 66 L 126 66 Z " /><path fill="rgb(127,127,127)" stroke="rgb(127,127,127)" stroke-width="1" opacity="0.4549019607843137" d="M 125.5 66 L 124 68.5 L 123.5 71 L 123 68.5 L 125.5 66 Z " /><path fill="rgb(127,127,127)" stroke="rgb(127,127,127)" stroke-width="1" opacity="0.4549019607843137" d="M 131.5 66 L 159.5 86 L 170 95.5 L 169.5 98 Q 169 92.5 164.5 91 L 131.5 67 L 131.5 66 Z " /><path fill="rgb(127,127,127)" stroke="rgb(127,127,127)" stroke-width="1" opacity="0.4549019607843137" d="M 122.5 72 L 123 87 L 34.5 87 L 31 89.5 L 30.5 91 L 30 89.5 L 34.5 86 L 122 86 L 122.5 72 Z " /><path fill="rgb(127,127,127)" stroke="rgb(127,127,127)" stroke-width="1" opacity="0.4549019607843137" d="M 169.5 102 L 170 104.5 L 163.5 111 L 131.5 134 L 131.5 133 L 169 104.5 L 169.5 102 Z " /><path fill="rgb(127,127,127)" stroke="rgb(127,127,127)" stroke-width="1" opacity="0.4549019607843137" d="M 30.5 109 L 32.5 112 L 34.5 113 L 123 113 L 122.5 128 L 122 114 L 34.5 114 L 30 110.5 L 30.5 109 Z " /><path fill="rgb(127,127,127)" stroke="rgb(127,127,127)" stroke-width="1" opacity="0.4549019607843137" d="M 123.5 129 L 126 133.5 L 124 134 L 123.5 129 Z " /><path fill="rgb(127,127,127)" stroke="rgb(127,127,127)" stroke-width="1" opacity="0.996078431372549" d="M 126.5 66 Q 132.3 65.2 134 68.5 L 132.5 68 L 126.5 67 L 124 68.5 L 126.5 66 Z " /><path fill="rgb(127,127,127)" stroke="rgb(127,127,127)" stroke-width="1" opacity="0.996078431372549" d="M 136.5 70 L 137.5 72 L 136.5 70 Z " /><path fill="rgb(127,127,127)" stroke="rgb(127,127,127)" stroke-width="1" opacity="0.996078431372549" d="M 123.5 71 L 124 86.5 L 122.5 88 L 34.5 88 L 34.5 87 L 122.5 87 L 123 86.5 L 123.5 71 Z " /><path fill="rgb(127,127,127)" stroke="rgb(127,127,127)" stroke-width="1" opacity="0.996078431372549" d="M 140.5 73 L 142.5 76 L 140.5 73 Z " /><path fill="rgb(127,127,127)" stroke="rgb(127,127,127)" stroke-width="1" opacity="0.996078431372549" d="M 144.5 76 L 146.5 79 L 144.5 76 Z " /><path fill="rgb(127,127,127)" stroke="rgb(127,127,127)" stroke-width="1" opacity="0.996078431372549" d="M 148.5 79 L 149.5 81 L 148.5 79 Z " /><path fill="rgb(127,127,127)" stroke="rgb(127,127,127)" stroke-width="1" opacity="0.996078431372549" d="M 152.5 82 L 153.5 84 L 152.5 82 Z " /><path fill="rgb(127,127,127)" stroke="rgb(127,127,127)" stroke-width="1" opacity="0.996078431372549" d="M 157.5 86 L 158.5 88 L 157.5 86 Z " /><path fill="rgb(127,127,127)" stroke="rgb(127,127,127)" stroke-width="1" opacity="0.996078431372549" d="M 32.5 88 L 31.5 90 L 32.5 88 Z " /><path fill="rgb(127,127,127)" stroke="rgb(127,127,127)" stroke-width="1" opacity="0.996078431372549" d="M 160.5 88 L 162.5 91 L 160.5 88 Z " /><path fill="rgb(127,127,127)" stroke="rgb(127,127,127)" stroke-width="1" opacity="0.996078431372549" d="M 164.5 91 L 169 96.5 L 168 96.5 L 164.5 91 Z " /><path fill="rgb(127,127,127)" stroke="rgb(127,127,127)" stroke-width="1" opacity="0.996078431372549" d="M 169.5 98 L 170 101.5 L 169 101.5 L 169.5 98 Z " /><path fill="rgb(127,127,127)" stroke="rgb(127,127,127)" stroke-width="1" opacity="0.996078431372549" d="M 168.5 103 L 169 104.5 L 164 108.5 L 168.5 103 Z " /><path fill="rgb(127,127,127)" stroke="rgb(127,127,127)" stroke-width="1" opacity="0.996078431372549" d="M 31.5 110 L 32.5 112 L 31.5 110 Z " /><path fill="rgb(127,127,127)" stroke="rgb(127,127,127)" stroke-width="1" opacity="0.996078431372549" d="M 161.5 110 L 160.5 112 L 161.5 110 Z " /><path fill="rgb(127,127,127)" stroke="rgb(127,127,127)" stroke-width="1" opacity="0.996078431372549" d="M 34.5 112 L 123.5 112 L 124 112.5 L 124 128.5 L 123 128.5 L 123 113.5 L 122.5 113 L 34.5 113 L 34.5 112 Z " /><path fill="rgb(127,127,127)" stroke="rgb(127,127,127)" stroke-width="1" opacity="0.996078431372549" d="M 158.5 112 L 156.5 115 L 158.5 112 Z " /><path fill="rgb(127,127,127)" stroke="rgb(127,127,127)" stroke-width="1" opacity="0.996078431372549" d="M 153.5 116 L 152.5 118 L 153.5 116 Z " /><path fill="rgb(127,127,127)" stroke="rgb(127,127,127)" stroke-width="1" opacity="0.996078431372549" d="M 149.5 119 L 148.5 121 L 149.5 119 Z " /><path fill="rgb(127,127,127)" stroke="rgb(127,127,127)" stroke-width="1" opacity="0.996078431372549" d="M 145.5 122 L 144.5 124 L 145.5 122 Z " /><path fill="rgb(127,127,127)" stroke="rgb(127,127,127)" stroke-width="1" opacity="0.996078431372549" d="M 142.5 124 L 140.5 127 L 142.5 124 Z " /><path fill="rgb(127,127,127)" stroke="rgb(127,127,127)" stroke-width="1" opacity="0.996078431372549" d="M 137.5 128 L 136.5 130 L 137.5 128 Z " /><path fill="rgb(127,127,127)" stroke="rgb(127,127,127)" stroke-width="1" opacity="0.996078431372549" d="M 124.5 131 Q 125.5 134 130.5 133 L 133.5 131 L 132.5 133 L 126.5 134 L 124.5 131 Z " /><path fill="rgb(127,127,127)" stroke="rgb(127,127,127)" stroke-width="1" opacity="1" d="M 126.5 67 Q 132.2 66.3 134.5 69 L 168 95.5 L 169 102.5 L 162.5 110 L 134.5 131 Q 132.2 133.7 126.5 133 L 124 130.5 L 124 112 L 33.5 112 L 31 109.5 Q 28.4 103.6 30 93.5 L 33.5 88 L 122.5 88 L 124 86.5 L 124 69.5 L 126.5 67 Z " /></svg>