<svg width="256" height="256" version="1.1" xmlns="http://www.w3.org/2000/svg" desc="Created with imagetracer.js version 1.2.6" ><path fill="rgb(0,0,0)" stroke="rgb(0,0,0)" stroke-width="1" opacity="0" d="M 0 0 L 256 0 L 256 256 L 0 256 L 0 0 Z M 175 48 L 164 54 L 142 76 L 142 80 L 150 89 L 154 91 L 159 90 Q 166 79 178 73 L 186 75 L 206 96 L 208 100 L 207 108 L 154 161 L 151 162 L 143 161 L 120 138 L 121 124 L 110 113 L 106 113 Q 98 119 94 129 Q 92 143 98 149 L 134 184 L 145 189 L 157 188 L 162 185 L 230 117 L 233 111 L 233 96 L 222 82 L 192 51 L 184 48 L 175 48 Z M 102 69 L 93 73 L 26 140 L 23 146 L 23 161 L 35 176 L 65 205 L 72 208 Q 82 209 88 206 L 113 181 L 113 176 L 107 169 L 103 165 L 99 166 Q 90 176 79 183 L 70 180 Q 56 171 48 157 L 49 149 L 101 97 L 104 96 L 112 97 L 131 117 L 134 123 L 133 135 L 144 144 L 150 144 Q 157 139 160 130 Q 162 117 157 111 L 119 72 Q 113 68 102 69 Z " /><path fill="rgb(125,196,234)" stroke="rgb(125,196,234)" stroke-width="1" opacity="0.9215686274509803" d="M 177.5 48 L 182 48.5 L 177.5 49 L 177.5 48 Z " /><path fill="rgb(125,196,234)" stroke="rgb(125,196,234)" stroke-width="1" opacity="0.9215686274509803" d="M 174.5 49 L 174.5 50 L 174.5 49 Z " /><path fill="rgb(125,196,234)" stroke="rgb(125,196,234)" stroke-width="1" opacity="0.9215686274509803" d="M 184.5 49 L 186 49.5 L 184.5 50 L 184.5 49 Z " /><path fill="rgb(125,196,234)" stroke="rgb(125,196,234)" stroke-width="1" opacity="0.9215686274509803" d="M 171.5 50 L 171.5 51 L 171.5 50 Z " /><path fill="rgb(125,196,234)" stroke="rgb(125,196,234)" stroke-width="1" opacity="0.9215686274509803" d="M 188.5 50 L 188.5 51 L 188.5 50 Z " /><path fill="rgb(125,196,234)" stroke="rgb(125,196,234)" stroke-width="1" opacity="0.9215686274509803" d="M 169.5 51 L 169.5 52 L 169.5 51 Z " /><path fill="rgb(125,196,234)" stroke="rgb(125,196,234)" stroke-width="1" opacity="0.9215686274509803" d="M 167.5 52 L 167.5 53 L 167.5 52 Z " /><path fill="rgb(125,196,234)" stroke="rgb(125,196,234)" stroke-width="1" opacity="0.9215686274509803" d="M 191.5 52 L 224.5 86 L 191.5 52 Z " /><path fill="rgb(125,196,234)" stroke="rgb(125,196,234)" stroke-width="1" opacity="0.9215686274509803" d="M 164.5 54 L 143.5 76 L 164.5 54 Z " /><path fill="rgb(125,196,234)" stroke="rgb(125,196,234)" stroke-width="1" opacity="0.9215686274509803" d="M 104.5 69 L 107 69.5 L 104.5 70 L 104.5 69 Z " /><path fill="rgb(125,196,234)" stroke="rgb(125,196,234)" stroke-width="1" opacity="0.9215686274509803" d="M 100.5 70 L 102 70.5 L 100.5 71 L 100.5 70 Z " /><path fill="rgb(125,196,234)" stroke="rgb(125,196,234)" stroke-width="1" opacity="0.9215686274509803" d="M 110.5 70 L 114 70.5 L 110.5 71 L 110.5 70 Z " /><path fill="rgb(125,196,234)" stroke="rgb(125,196,234)" stroke-width="1" opacity="0.9215686274509803" d="M 97.5 71 L 99 71.5 L 97.5 72 L 97.5 71 Z " /><path fill="rgb(125,196,234)" stroke="rgb(125,196,234)" stroke-width="1" opacity="0.9215686274509803" d="M 115.5 71 L 115.5 72 L 115.5 71 Z " /><path fill="rgb(125,196,234)" stroke="rgb(125,196,234)" stroke-width="1" opacity="0.9215686274509803" d="M 95.5 72 L 95.5 73 L 95.5 72 Z " /><path fill="rgb(125,196,234)" stroke="rgb(125,196,234)" stroke-width="1" opacity="0.9215686274509803" d="M 177.5 72 L 182 72.5 L 177.5 73 L 177.5 72 Z " /><path fill="rgb(125,196,234)" stroke="rgb(125,196,234)" stroke-width="1" opacity="0.9215686274509803" d="M 118.5 73 L 153.5 109 L 118.5 73 Z " /><path fill="rgb(125,196,234)" stroke="rgb(125,196,234)" stroke-width="1" opacity="0.9215686274509803" d="M 175.5 73 L 175.5 74 L 175.5 73 Z " /><path fill="rgb(125,196,234)" stroke="rgb(125,196,234)" stroke-width="1" opacity="0.9215686274509803" d="M 183.5 73 L 183.5 74 L 183.5 73 Z " /><path fill="rgb(125,196,234)" stroke="rgb(125,196,234)" stroke-width="1" opacity="0.9215686274509803" d="M 92.5 74 L 27.5 140 L 92.5 74 Z " /><path fill="rgb(125,196,234)" stroke="rgb(125,196,234)" stroke-width="1" opacity="0.9215686274509803" d="M 173.5 74 L 173.5 75 L 173.5 74 Z " /><path fill="rgb(125,196,234)" stroke="rgb(125,196,234)" stroke-width="1" opacity="0.9215686274509803" d="M 171.5 75 L 170.5 77 L 171.5 75 Z " /><path fill="rgb(125,196,234)" stroke="rgb(125,196,234)" stroke-width="1" opacity="0.9215686274509803" d="M 188.5 76 L 204.5 93 L 188.5 76 Z " /><path fill="rgb(125,196,234)" stroke="rgb(125,196,234)" stroke-width="1" opacity="0.9215686274509803" d="M 169.5 78 L 161.5 87 L 169.5 78 Z " /><path fill="rgb(125,196,234)" stroke="rgb(125,196,234)" stroke-width="1" opacity="0.9215686274509803" d="M 143.5 79 L 143.5 80 L 143.5 79 Z " /><path fill="rgb(125,196,234)" stroke="rgb(125,196,234)" stroke-width="1" opacity="0.9215686274509803" d="M 148.5 85 L 152.5 90 L 148.5 85 Z " /><path fill="rgb(125,196,234)" stroke="rgb(125,196,234)" stroke-width="1" opacity="0.9215686274509803" d="M 158.5 88 L 158.5 89 L 158.5 88 Z " /><path fill="rgb(125,196,234)" stroke="rgb(125,196,234)" stroke-width="1" opacity="0.9215686274509803" d="M 156.5 89 L 156.5 90 L 156.5 89 Z " /><path fill="rgb(125,196,234)" stroke="rgb(125,196,234)" stroke-width="1" opacity="0.9215686274509803" d="M 228.5 90 L 229.5 92 L 228.5 90 Z " /><path fill="rgb(125,196,234)" stroke="rgb(125,196,234)" stroke-width="1" opacity="0.9215686274509803" d="M 205.5 94 L 205.5 95 L 205.5 94 Z " /><path fill="rgb(125,196,234)" stroke="rgb(125,196,234)" stroke-width="1" opacity="0.9215686274509803" d="M 102.5 95 L 102.5 96 L 102.5 95 Z " /><path fill="rgb(125,196,234)" stroke="rgb(125,196,234)" stroke-width="1" opacity="0.9215686274509803" d="M 107.5 95 L 110 95.5 L 107.5 96 L 107.5 95 Z " /><path fill="rgb(125,196,234)" stroke="rgb(125,196,234)" stroke-width="1" opacity="0.9215686274509803" d="M 231.5 95 L 231.5 96 L 231.5 95 Z " /><path fill="rgb(125,196,234)" stroke="rgb(125,196,234)" stroke-width="1" opacity="0.9215686274509803" d="M 98.5 97 L 49.5 147 L 98.5 97 Z " /><path fill="rgb(125,196,234)" stroke="rgb(125,196,234)" stroke-width="1" opacity="0.9215686274509803" d="M 207.5 97 L 207.5 98 L 207.5 97 Z " /><path fill="rgb(125,196,234)" stroke="rgb(125,196,234)" stroke-width="1" opacity="0.9215686274509803" d="M 114.5 98 L 131.5 116 L 114.5 98 Z " /><path fill="rgb(125,196,234)" stroke="rgb(125,196,234)" stroke-width="1" opacity="0.9215686274509803" d="M 232.5 98 L 233 100.5 L 232 100.5 L 232.5 98 Z " /><path fill="rgb(125,196,234)" stroke="rgb(125,196,234)" stroke-width="1" opacity="0.9215686274509803" d="M 208.5 99 L 209 100.5 L 208 100.5 L 208.5 99 Z " /><path fill="rgb(125,196,234)" stroke="rgb(125,196,234)" stroke-width="1" opacity="0.9215686274509803" d="M 232.5 102 L 233 106.5 L 232 106.5 L 232.5 102 Z " /><path fill="rgb(125,196,234)" stroke="rgb(125,196,234)" stroke-width="1" opacity="0.9215686274509803" d="M 208.5 104 L 209 105.5 L 208 105.5 L 208.5 104 Z " /><path fill="rgb(125,196,234)" stroke="rgb(125,196,234)" stroke-width="1" opacity="0.9215686274509803" d="M 232.5 108 L 232.5 109 L 232.5 108 Z " /><path fill="rgb(125,196,234)" stroke="rgb(125,196,234)" stroke-width="1" opacity="0.9215686274509803" d="M 206.5 109 L 155.5 161 L 206.5 109 Z " /><path fill="rgb(125,196,234)" stroke="rgb(125,196,234)" stroke-width="1" opacity="0.9215686274509803" d="M 155.5 110 L 156.5 112 L 155.5 110 Z " /><path fill="rgb(125,196,234)" stroke="rgb(125,196,234)" stroke-width="1" opacity="0.9215686274509803" d="M 231.5 110 L 232 111.5 L 231 111.5 L 231.5 110 Z " /><path fill="rgb(125,196,234)" stroke="rgb(125,196,234)" stroke-width="1" opacity="0.9215686274509803" d="M 107.5 113 L 107.5 114 L 107.5 113 Z " /><path fill="rgb(125,196,234)" stroke="rgb(125,196,234)" stroke-width="1" opacity="0.9215686274509803" d="M 157.5 113 L 157.5 114 L 157.5 113 Z " /><path fill="rgb(125,196,234)" stroke="rgb(125,196,234)" stroke-width="1" opacity="0.9215686274509803" d="M 230.5 113 L 230.5 114 L 230.5 113 Z " /><path fill="rgb(125,196,234)" stroke="rgb(125,196,234)" stroke-width="1" opacity="0.9215686274509803" d="M 105.5 114 L 105.5 115 L 105.5 114 Z " /><path fill="rgb(125,196,234)" stroke="rgb(125,196,234)" stroke-width="1" opacity="0.9215686274509803" d="M 109.5 114 L 110.5 116 L 109.5 114 Z " /><path fill="rgb(125,196,234)" stroke="rgb(125,196,234)" stroke-width="1" opacity="0.9215686274509803" d="M 158.5 116 L 159 117.5 L 158 117.5 L 158.5 116 Z " /><path fill="rgb(125,196,234)" stroke="rgb(125,196,234)" stroke-width="1" opacity="0.9215686274509803" d="M 228.5 116 L 161.5 184 L 228.5 116 Z " /><path fill="rgb(125,196,234)" stroke="rgb(125,196,234)" stroke-width="1" opacity="0.9215686274509803" d="M 132.5 117 L 132.5 118 L 132.5 117 Z " /><path fill="rgb(125,196,234)" stroke="rgb(125,196,234)" stroke-width="1" opacity="0.9215686274509803" d="M 133.5 119 L 134 120.5 L 133 120.5 L 133.5 119 Z " /><path fill="rgb(125,196,234)" stroke="rgb(125,196,234)" stroke-width="1" opacity="0.9215686274509803" d="M 159.5 119 L 160 126.5 L 159 126.5 L 159.5 119 Z " /><path fill="rgb(125,196,234)" stroke="rgb(125,196,234)" stroke-width="1" opacity="0.9215686274509803" d="M 99.5 120 L 99.5 121 L 99.5 120 Z " /><path fill="rgb(125,196,234)" stroke="rgb(125,196,234)" stroke-width="1" opacity="0.9215686274509803" d="M 116.5 120 L 119.5 124 L 116.5 120 Z " /><path fill="rgb(125,196,234)" stroke="rgb(125,196,234)" stroke-width="1" opacity="0.9215686274509803" d="M 97.5 123 L 97.5 124 L 97.5 123 Z " /><path fill="rgb(125,196,234)" stroke="rgb(125,196,234)" stroke-width="1" opacity="0.9215686274509803" d="M 134.5 123 L 134.5 124 L 134.5 123 Z " /><path fill="rgb(125,196,234)" stroke="rgb(125,196,234)" stroke-width="1" opacity="0.9215686274509803" d="M 96.5 125 L 96.5 126 L 96.5 125 Z " /><path fill="rgb(125,196,234)" stroke="rgb(125,196,234)" stroke-width="1" opacity="0.9215686274509803" d="M 120.5 125 L 121 127.5 L 120 127.5 L 120.5 125 Z " /><path fill="rgb(125,196,234)" stroke="rgb(125,196,234)" stroke-width="1" opacity="0.9215686274509803" d="M 134.5 125 L 134.5 126 L 134.5 125 Z " /><path fill="rgb(125,196,234)" stroke="rgb(125,196,234)" stroke-width="1" opacity="0.9215686274509803" d="M 95.5 127 L 96 128.5 L 95 128.5 L 95.5 127 Z " /><path fill="rgb(125,196,234)" stroke="rgb(125,196,234)" stroke-width="1" opacity="0.9215686274509803" d="M 133.5 128 L 133.5 129 L 133.5 128 Z " /><path fill="rgb(125,196,234)" stroke="rgb(125,196,234)" stroke-width="1" opacity="0.9215686274509803" d="M 120.5 129 L 120.5 130 L 120.5 129 Z " /><path fill="rgb(125,196,234)" stroke="rgb(125,196,234)" stroke-width="1" opacity="0.9215686274509803" d="M 158.5 129 L 158.5 130 L 158.5 129 Z " /><path fill="rgb(125,196,234)" stroke="rgb(125,196,234)" stroke-width="1" opacity="0.9215686274509803" d="M 94.5 130 L 95 138.5 L 94 138.5 L 94.5 130 Z " /><path fill="rgb(125,196,234)" stroke="rgb(125,196,234)" stroke-width="1" opacity="0.9215686274509803" d="M 133.5 130 L 134 132.5 L 133 132.5 L 133.5 130 Z " /><path fill="rgb(125,196,234)" stroke="rgb(125,196,234)" stroke-width="1" opacity="0.9215686274509803" d="M 119.5 132 L 120 133.5 L 119 133.5 L 119.5 132 Z " /><path fill="rgb(125,196,234)" stroke="rgb(125,196,234)" stroke-width="1" opacity="0.9215686274509803" d="M 157.5 132 L 157.5 133 L 157.5 132 Z " /><path fill="rgb(125,196,234)" stroke="rgb(125,196,234)" stroke-width="1" opacity="0.9215686274509803" d="M 134.5 134 L 137.5 138 L 134.5 134 Z " /><path fill="rgb(125,196,234)" stroke="rgb(125,196,234)" stroke-width="1" opacity="0.9215686274509803" d="M 156.5 134 L 156.5 135 L 156.5 134 Z " /><path fill="rgb(125,196,234)" stroke="rgb(125,196,234)" stroke-width="1" opacity="0.9215686274509803" d="M 119.5 135 L 120 137.5 L 119 137.5 L 119.5 135 Z " /><path fill="rgb(125,196,234)" stroke="rgb(125,196,234)" stroke-width="1" opacity="0.9215686274509803" d="M 153.5 138 L 153.5 139 L 153.5 138 Z " /><path fill="rgb(125,196,234)" stroke="rgb(125,196,234)" stroke-width="1" opacity="0.9215686274509803" d="M 120.5 139 L 120.5 140 L 120.5 139 Z " /><path fill="rgb(125,196,234)" stroke="rgb(125,196,234)" stroke-width="1" opacity="0.9215686274509803" d="M 95.5 140 L 95.5 141 L 95.5 140 Z " /><path fill="rgb(125,196,234)" stroke="rgb(125,196,234)" stroke-width="1" opacity="0.9215686274509803" d="M 151.5 140 L 151.5 141 L 151.5 140 Z " /><path fill="rgb(125,196,234)" stroke="rgb(125,196,234)" stroke-width="1" opacity="0.9215686274509803" d="M 142.5 141 L 143.5 143 L 142.5 141 Z " /><path fill="rgb(125,196,234)" stroke="rgb(125,196,234)" stroke-width="1" opacity="0.9215686274509803" d="M 25.5 142 L 25.5 143 L 25.5 142 Z " /><path fill="rgb(125,196,234)" stroke="rgb(125,196,234)" stroke-width="1" opacity="0.9215686274509803" d="M 122.5 142 L 139.5 160 L 122.5 142 Z " /><path fill="rgb(125,196,234)" stroke="rgb(125,196,234)" stroke-width="1" opacity="0.9215686274509803" d="M 149.5 142 L 149.5 143 L 149.5 142 Z " /><path fill="rgb(125,196,234)" stroke="rgb(125,196,234)" stroke-width="1" opacity="0.9215686274509803" d="M 146.5 143 L 148 143.5 L 146.5 144 L 146.5 143 Z " /><path fill="rgb(125,196,234)" stroke="rgb(125,196,234)" stroke-width="1" opacity="0.9215686274509803" d="M 24.5 144 L 25 145.5 L 24 145.5 L 24.5 144 Z " /><path fill="rgb(125,196,234)" stroke="rgb(125,196,234)" stroke-width="1" opacity="0.9215686274509803" d="M 96.5 144 L 96.5 145 L 96.5 144 Z " /><path fill="rgb(125,196,234)" stroke="rgb(125,196,234)" stroke-width="1" opacity="0.9215686274509803" d="M 97.5 146 L 134.5 184 L 97.5 146 Z " /><path fill="rgb(125,196,234)" stroke="rgb(125,196,234)" stroke-width="1" opacity="0.9215686274509803" d="M 23.5 147 L 23.5 148 L 23.5 147 Z " /><path fill="rgb(125,196,234)" stroke="rgb(125,196,234)" stroke-width="1" opacity="0.9215686274509803" d="M 48.5 148 L 48.5 149 L 48.5 148 Z " /><path fill="rgb(125,196,234)" stroke="rgb(125,196,234)" stroke-width="1" opacity="0.9215686274509803" d="M 23.5 149 L 24 153.5 L 23 153.5 L 23.5 149 Z " /><path fill="rgb(125,196,234)" stroke="rgb(125,196,234)" stroke-width="1" opacity="0.9215686274509803" d="M 47.5 151 L 48 156.5 L 47 156.5 L 47.5 151 Z " /><path fill="rgb(125,196,234)" stroke="rgb(125,196,234)" stroke-width="1" opacity="0.9215686274509803" d="M 23.5 155 L 24 157.5 L 23 157.5 L 23.5 155 Z " /><path fill="rgb(125,196,234)" stroke="rgb(125,196,234)" stroke-width="1" opacity="0.9215686274509803" d="M 48.5 158 L 48.5 159 L 48.5 158 Z " /><path fill="rgb(125,196,234)" stroke="rgb(125,196,234)" stroke-width="1" opacity="0.9215686274509803" d="M 24.5 160 L 25 161.5 L 24 161.5 L 24.5 160 Z " /><path fill="rgb(125,196,234)" stroke="rgb(125,196,234)" stroke-width="1" opacity="0.9215686274509803" d="M 50.5 161 L 50.5 162 L 50.5 161 Z " /><path fill="rgb(125,196,234)" stroke="rgb(125,196,234)" stroke-width="1" opacity="0.9215686274509803" d="M 144.5 162 L 147 162.5 L 144.5 163 L 144.5 162 Z " /><path fill="rgb(125,196,234)" stroke="rgb(125,196,234)" stroke-width="1" opacity="0.9215686274509803" d="M 151.5 162 L 151.5 163 L 151.5 162 Z " /><path fill="rgb(125,196,234)" stroke="rgb(125,196,234)" stroke-width="1" opacity="0.9215686274509803" d="M 51.5 163 L 67.5 180 L 51.5 163 Z " /><path fill="rgb(125,196,234)" stroke="rgb(125,196,234)" stroke-width="1" opacity="0.9215686274509803" d="M 26.5 164 L 27.5 166 L 26.5 164 Z " /><path fill="rgb(125,196,234)" stroke="rgb(125,196,234)" stroke-width="1" opacity="0.9215686274509803" d="M 99.5 166 L 98.5 168 L 99.5 166 Z " /><path fill="rgb(125,196,234)" stroke="rgb(125,196,234)" stroke-width="1" opacity="0.9215686274509803" d="M 103.5 166 L 107.5 171 L 103.5 166 Z " /><path fill="rgb(125,196,234)" stroke="rgb(125,196,234)" stroke-width="1" opacity="0.9215686274509803" d="M 31.5 170 L 64.5 204 L 31.5 170 Z " /><path fill="rgb(125,196,234)" stroke="rgb(125,196,234)" stroke-width="1" opacity="0.9215686274509803" d="M 110.5 174 L 111.5 176 L 110.5 174 Z " /><path fill="rgb(125,196,234)" stroke="rgb(125,196,234)" stroke-width="1" opacity="0.9215686274509803" d="M 89.5 175 L 84.5 181 L 89.5 175 Z " /><path fill="rgb(125,196,234)" stroke="rgb(125,196,234)" stroke-width="1" opacity="0.9215686274509803" d="M 112.5 177 L 113 178.5 L 112 178.5 L 112.5 177 Z " /><path fill="rgb(125,196,234)" stroke="rgb(125,196,234)" stroke-width="1" opacity="0.9215686274509803" d="M 70.5 181 L 70.5 182 L 70.5 181 Z " /><path fill="rgb(125,196,234)" stroke="rgb(125,196,234)" stroke-width="1" opacity="0.9215686274509803" d="M 82.5 181 L 82.5 182 L 82.5 181 Z " /><path fill="rgb(125,196,234)" stroke="rgb(125,196,234)" stroke-width="1" opacity="0.9215686274509803" d="M 111.5 181 L 91.5 202 L 111.5 181 Z " /><path fill="rgb(125,196,234)" stroke="rgb(125,196,234)" stroke-width="1" opacity="0.9215686274509803" d="M 73.5 182 L 75 182.5 L 73.5 183 L 73.5 182 Z " /><path fill="rgb(125,196,234)" stroke="rgb(125,196,234)" stroke-width="1" opacity="0.9215686274509803" d="M 80.5 182 L 80.5 183 L 80.5 182 Z " /><path fill="rgb(125,196,234)" stroke="rgb(125,196,234)" stroke-width="1" opacity="0.9215686274509803" d="M 78.5 183 L 78.5 184 L 78.5 183 Z " /><path fill="rgb(125,196,234)" stroke="rgb(125,196,234)" stroke-width="1" opacity="0.9215686274509803" d="M 136.5 184 L 136.5 185 L 136.5 184 Z " /><path fill="rgb(125,196,234)" stroke="rgb(125,196,234)" stroke-width="1" opacity="0.9215686274509803" d="M 138.5 185 L 138.5 186 L 138.5 185 Z " /><path fill="rgb(125,196,234)" stroke="rgb(125,196,234)" stroke-width="1" opacity="0.9215686274509803" d="M 140.5 186 L 140.5 187 L 140.5 186 Z " /><path fill="rgb(125,196,234)" stroke="rgb(125,196,234)" stroke-width="1" opacity="0.9215686274509803" d="M 157.5 186 L 157.5 187 L 157.5 186 Z " /><path fill="rgb(125,196,234)" stroke="rgb(125,196,234)" stroke-width="1" opacity="0.9215686274509803" d="M 142.5 187 L 144 187.5 L 142.5 188 L 142.5 187 Z " /><path fill="rgb(125,196,234)" stroke="rgb(125,196,234)" stroke-width="1" opacity="0.9215686274509803" d="M 152.5 187 L 152.5 188 L 152.5 187 Z " /><path fill="rgb(125,196,234)" stroke="rgb(125,196,234)" stroke-width="1" opacity="0.9215686274509803" d="M 154.5 187 L 156 187.5 L 154.5 188 L 154.5 187 Z " /><path fill="rgb(125,196,234)" stroke="rgb(125,196,234)" stroke-width="1" opacity="0.9215686274509803" d="M 146.5 188 L 150 188.5 L 146.5 189 L 146.5 188 Z " /><path fill="rgb(125,196,234)" stroke="rgb(125,196,234)" stroke-width="1" opacity="0.9215686274509803" d="M 87.5 204 L 87.5 205 L 87.5 204 Z " /><path fill="rgb(125,196,234)" stroke="rgb(125,196,234)" stroke-width="1" opacity="0.9215686274509803" d="M 67.5 205 L 69 205.5 L 67.5 206 L 67.5 205 Z " /><path fill="rgb(125,196,234)" stroke="rgb(125,196,234)" stroke-width="1" opacity="0.9215686274509803" d="M 70.5 206 L 72 206.5 L 70.5 207 L 70.5 206 Z " /><path fill="rgb(125,196,234)" stroke="rgb(125,196,234)" stroke-width="1" opacity="0.9215686274509803" d="M 81.5 206 L 84 206.5 L 81.5 207 L 81.5 206 Z " /><path fill="rgb(125,196,234)" stroke="rgb(125,196,234)" stroke-width="1" opacity="0.9215686274509803" d="M 74.5 207 L 79 207.5 L 74.5 208 L 74.5 207 Z " /><path fill="rgb(124,197,234)" stroke="rgb(124,197,234)" stroke-width="1" opacity="0.3176470588235294" d="M 174.5 48 L 174.5 49 L 174.5 48 Z " /><path fill="rgb(124,197,234)" stroke="rgb(124,197,234)" stroke-width="1" opacity="0.3176470588235294" d="M 191.5 51 L 221.5 82 L 191.5 51 Z " /><path fill="rgb(124,197,234)" stroke="rgb(124,197,234)" stroke-width="1" opacity="0.3176470588235294" d="M 163.5 54 L 142.5 76 L 163.5 54 Z " /><path fill="rgb(124,197,234)" stroke="rgb(124,197,234)" stroke-width="1" opacity="0.3176470588235294" d="M 101.5 69 L 101.5 70 L 101.5 69 Z " /><path fill="rgb(124,197,234)" stroke="rgb(124,197,234)" stroke-width="1" opacity="0.3176470588235294" d="M 110.5 69 L 110.5 70 L 110.5 69 Z " /><path fill="rgb(124,197,234)" stroke="rgb(124,197,234)" stroke-width="1" opacity="0.3176470588235294" d="M 98.5 70 L 98.5 71 L 98.5 70 Z " /><path fill="rgb(124,197,234)" stroke="rgb(124,197,234)" stroke-width="1" opacity="0.3176470588235294" d="M 114.5 70 L 114.5 71 L 114.5 70 Z " /><path fill="rgb(124,197,234)" stroke="rgb(124,197,234)" stroke-width="1" opacity="0.3176470588235294" d="M 96.5 71 L 96.5 72 L 96.5 71 Z " /><path fill="rgb(124,197,234)" stroke="rgb(124,197,234)" stroke-width="1" opacity="0.3176470588235294" d="M 116.5 71 L 116.5 72 L 116.5 71 Z " /><path fill="rgb(124,197,234)" stroke="rgb(124,197,234)" stroke-width="1" opacity="0.3176470588235294" d="M 94.5 72 L 94.5 73 L 94.5 72 Z " /><path fill="rgb(124,197,234)" stroke="rgb(124,197,234)" stroke-width="1" opacity="0.3176470588235294" d="M 118.5 72 L 156.5 111 L 118.5 72 Z " /><path fill="rgb(124,197,234)" stroke="rgb(124,197,234)" stroke-width="1" opacity="0.3176470588235294" d="M 92.5 73 L 26.5 140 L 92.5 73 Z " /><path fill="rgb(124,197,234)" stroke="rgb(124,197,234)" stroke-width="1" opacity="0.3176470588235294" d="M 176.5 73 L 175.5 75 L 176.5 73 Z " /><path fill="rgb(124,197,234)" stroke="rgb(124,197,234)" stroke-width="1" opacity="0.3176470588235294" d="M 181.5 73 L 181.5 74 L 181.5 73 Z " /><path fill="rgb(124,197,234)" stroke="rgb(124,197,234)" stroke-width="1" opacity="0.3176470588235294" d="M 173.5 75 L 173.5 76 L 173.5 75 Z " /><path fill="rgb(124,197,234)" stroke="rgb(124,197,234)" stroke-width="1" opacity="0.3176470588235294" d="M 186.5 75 L 203.5 93 L 186.5 75 Z " /><path fill="rgb(124,197,234)" stroke="rgb(124,197,234)" stroke-width="1" opacity="0.3176470588235294" d="M 171.5 76 L 171.5 77 L 171.5 76 Z " /><path fill="rgb(124,197,234)" stroke="rgb(124,197,234)" stroke-width="1" opacity="0.3176470588235294" d="M 142.5 79 L 147.5 85 L 142.5 79 Z " /><path fill="rgb(124,197,234)" stroke="rgb(124,197,234)" stroke-width="1" opacity="0.3176470588235294" d="M 226.5 87 L 226.5 88 L 226.5 87 Z " /><path fill="rgb(124,197,234)" stroke="rgb(124,197,234)" stroke-width="1" opacity="0.3176470588235294" d="M 150.5 88 L 151.5 90 L 150.5 88 Z " /><path fill="rgb(124,197,234)" stroke="rgb(124,197,234)" stroke-width="1" opacity="0.3176470588235294" d="M 159.5 88 L 158.5 90 L 159.5 88 Z " /><path fill="rgb(124,197,234)" stroke="rgb(124,197,234)" stroke-width="1" opacity="0.3176470588235294" d="M 228.5 89 L 229.5 91 L 228.5 89 Z " /><path fill="rgb(124,197,234)" stroke="rgb(124,197,234)" stroke-width="1" opacity="0.3176470588235294" d="M 153.5 90 L 153.5 91 L 153.5 90 Z " /><path fill="rgb(124,197,234)" stroke="rgb(124,197,234)" stroke-width="1" opacity="0.3176470588235294" d="M 155.5 90 L 155.5 91 L 155.5 90 Z " /><path fill="rgb(124,197,234)" stroke="rgb(124,197,234)" stroke-width="1" opacity="0.3176470588235294" d="M 231.5 93 L 231.5 94 L 231.5 93 Z " /><path fill="rgb(124,197,234)" stroke="rgb(124,197,234)" stroke-width="1" opacity="0.3176470588235294" d="M 232.5 95 L 232.5 96 L 232.5 95 Z " /><path fill="rgb(124,197,234)" stroke="rgb(124,197,234)" stroke-width="1" opacity="0.3176470588235294" d="M 102.5 96 L 102.5 97 L 102.5 96 Z " /><path fill="rgb(124,197,234)" stroke="rgb(124,197,234)" stroke-width="1" opacity="0.3176470588235294" d="M 99.5 97 L 50.5 147 L 99.5 97 Z " /><path fill="rgb(124,197,234)" stroke="rgb(124,197,234)" stroke-width="1" opacity="0.3176470588235294" d="M 206.5 97 L 207.5 99 L 206.5 97 Z " /><path fill="rgb(124,197,234)" stroke="rgb(124,197,234)" stroke-width="1" opacity="0.3176470588235294" d="M 113.5 98 L 130.5 116 L 113.5 98 Z " /><path fill="rgb(124,197,234)" stroke="rgb(124,197,234)" stroke-width="1" opacity="0.3176470588235294" d="M 207.5 105 L 207.5 106 L 207.5 105 Z " /><path fill="rgb(124,197,234)" stroke="rgb(124,197,234)" stroke-width="1" opacity="0.3176470588235294" d="M 206.5 108 L 154.5 161 L 206.5 108 Z " /><path fill="rgb(124,197,234)" stroke="rgb(124,197,234)" stroke-width="1" opacity="0.3176470588235294" d="M 232.5 110 L 232.5 111 L 232.5 110 Z " /><path fill="rgb(124,197,234)" stroke="rgb(124,197,234)" stroke-width="1" opacity="0.3176470588235294" d="M 157.5 112 L 158.5 114 L 157.5 112 Z " /><path fill="rgb(124,197,234)" stroke="rgb(124,197,234)" stroke-width="1" opacity="0.3176470588235294" d="M 231.5 112 L 231.5 113 L 231.5 112 Z " /><path fill="rgb(124,197,234)" stroke="rgb(124,197,234)" stroke-width="1" opacity="0.3176470588235294" d="M 105.5 113 L 104.5 115 L 105.5 113 Z " /><path fill="rgb(124,197,234)" stroke="rgb(124,197,234)" stroke-width="1" opacity="0.3176470588235294" d="M 109.5 113 L 114.5 119 L 109.5 113 Z " /><path fill="rgb(124,197,234)" stroke="rgb(124,197,234)" stroke-width="1" opacity="0.3176470588235294" d="M 230.5 114 L 230.5 115 L 230.5 114 Z " /><path fill="rgb(124,197,234)" stroke="rgb(124,197,234)" stroke-width="1" opacity="0.3176470588235294" d="M 102.5 116 L 102.5 117 L 102.5 116 Z " /><path fill="rgb(124,197,234)" stroke="rgb(124,197,234)" stroke-width="1" opacity="0.3176470588235294" d="M 229.5 116 L 161.5 185 L 229.5 116 Z " /><path fill="rgb(124,197,234)" stroke="rgb(124,197,234)" stroke-width="1" opacity="0.3176470588235294" d="M 131.5 117 L 131.5 118 L 131.5 117 Z " /><path fill="rgb(124,197,234)" stroke="rgb(124,197,234)" stroke-width="1" opacity="0.3176470588235294" d="M 159.5 117 L 159.5 118 L 159.5 117 Z " /><path fill="rgb(124,197,234)" stroke="rgb(124,197,234)" stroke-width="1" opacity="0.3176470588235294" d="M 99.5 119 L 98.5 121 L 99.5 119 Z " /><path fill="rgb(124,197,234)" stroke="rgb(124,197,234)" stroke-width="1" opacity="0.3176470588235294" d="M 132.5 119 L 132.5 120 L 132.5 119 Z " /><path fill="rgb(124,197,234)" stroke="rgb(124,197,234)" stroke-width="1" opacity="0.3176470588235294" d="M 133.5 121 L 133.5 122 L 133.5 121 Z " /><path fill="rgb(124,197,234)" stroke="rgb(124,197,234)" stroke-width="1" opacity="0.3176470588235294" d="M 97.5 122 L 96.5 124 L 97.5 122 Z " /><path fill="rgb(124,197,234)" stroke="rgb(124,197,234)" stroke-width="1" opacity="0.3176470588235294" d="M 119.5 122 L 120.5 124 L 119.5 122 Z " /><path fill="rgb(124,197,234)" stroke="rgb(124,197,234)" stroke-width="1" opacity="0.3176470588235294" d="M 95.5 125 L 95.5 126 L 95.5 125 Z " /><path fill="rgb(124,197,234)" stroke="rgb(124,197,234)" stroke-width="1" opacity="0.3176470588235294" d="M 133.5 125 L 133.5 126 L 133.5 125 Z " /><path fill="rgb(124,197,234)" stroke="rgb(124,197,234)" stroke-width="1" opacity="0.3176470588235294" d="M 94.5 128 L 94.5 129 L 94.5 128 Z " /><path fill="rgb(124,197,234)" stroke="rgb(124,197,234)" stroke-width="1" opacity="0.3176470588235294" d="M 159.5 129 L 159.5 130 L 159.5 129 Z " /><path fill="rgb(124,197,234)" stroke="rgb(124,197,234)" stroke-width="1" opacity="0.3176470588235294" d="M 120.5 131 L 120.5 132 L 120.5 131 Z " /><path fill="rgb(124,197,234)" stroke="rgb(124,197,234)" stroke-width="1" opacity="0.3176470588235294" d="M 157.5 133 L 157.5 134 L 157.5 133 Z " /><path fill="rgb(124,197,234)" stroke="rgb(124,197,234)" stroke-width="1" opacity="0.3176470588235294" d="M 133.5 134 L 135.5 137 L 133.5 134 Z " /><path fill="rgb(124,197,234)" stroke="rgb(124,197,234)" stroke-width="1" opacity="0.3176470588235294" d="M 156.5 135 L 155.5 137 L 156.5 135 Z " /><path fill="rgb(124,197,234)" stroke="rgb(124,197,234)" stroke-width="1" opacity="0.3176470588235294" d="M 120.5 138 L 121.5 140 L 120.5 138 Z " /><path fill="rgb(124,197,234)" stroke="rgb(124,197,234)" stroke-width="1" opacity="0.3176470588235294" d="M 154.5 138 L 149.5 144 L 154.5 138 Z " /><path fill="rgb(124,197,234)" stroke="rgb(124,197,234)" stroke-width="1" opacity="0.3176470588235294" d="M 94.5 140 L 94.5 141 L 94.5 140 Z " /><path fill="rgb(124,197,234)" stroke="rgb(124,197,234)" stroke-width="1" opacity="0.3176470588235294" d="M 140.5 140 L 143.5 144 L 140.5 140 Z " /><path fill="rgb(124,197,234)" stroke="rgb(124,197,234)" stroke-width="1" opacity="0.3176470588235294" d="M 25.5 141 L 25.5 142 L 25.5 141 Z " /><path fill="rgb(124,197,234)" stroke="rgb(124,197,234)" stroke-width="1" opacity="0.3176470588235294" d="M 122.5 141 L 141.5 161 L 122.5 141 Z " /><path fill="rgb(124,197,234)" stroke="rgb(124,197,234)" stroke-width="1" opacity="0.3176470588235294" d="M 24.5 143 L 24.5 144 L 24.5 143 Z " /><path fill="rgb(124,197,234)" stroke="rgb(124,197,234)" stroke-width="1" opacity="0.3176470588235294" d="M 23.5 145 L 23.5 146 L 23.5 145 Z " /><path fill="rgb(124,197,234)" stroke="rgb(124,197,234)" stroke-width="1" opacity="0.3176470588235294" d="M 98.5 148 L 133.5 184 L 98.5 148 Z " /><path fill="rgb(124,197,234)" stroke="rgb(124,197,234)" stroke-width="1" opacity="0.3176470588235294" d="M 48.5 157 L 49.5 159 L 48.5 157 Z " /><path fill="rgb(124,197,234)" stroke="rgb(124,197,234)" stroke-width="1" opacity="0.3176470588235294" d="M 23.5 160 L 23.5 161 L 23.5 160 Z " /><path fill="rgb(124,197,234)" stroke="rgb(124,197,234)" stroke-width="1" opacity="0.3176470588235294" d="M 50.5 160 L 51.5 162 L 50.5 160 Z " /><path fill="rgb(124,197,234)" stroke="rgb(124,197,234)" stroke-width="1" opacity="0.3176470588235294" d="M 151.5 161 L 151.5 162 L 151.5 161 Z " /><path fill="rgb(124,197,234)" stroke="rgb(124,197,234)" stroke-width="1" opacity="0.3176470588235294" d="M 24.5 162 L 24.5 163 L 24.5 162 Z " /><path fill="rgb(124,197,234)" stroke="rgb(124,197,234)" stroke-width="1" opacity="0.3176470588235294" d="M 52.5 163 L 68.5 180 L 52.5 163 Z " /><path fill="rgb(124,197,234)" stroke="rgb(124,197,234)" stroke-width="1" opacity="0.3176470588235294" d="M 100.5 165 L 100.5 166 L 100.5 165 Z " /><path fill="rgb(124,197,234)" stroke="rgb(124,197,234)" stroke-width="1" opacity="0.3176470588235294" d="M 102.5 165 L 102.5 166 L 102.5 165 Z " /><path fill="rgb(124,197,234)" stroke="rgb(124,197,234)" stroke-width="1" opacity="0.3176470588235294" d="M 27.5 166 L 28.5 168 L 27.5 166 Z " /><path fill="rgb(124,197,234)" stroke="rgb(124,197,234)" stroke-width="1" opacity="0.3176470588235294" d="M 98.5 166 L 93.5 172 L 98.5 166 Z " /><path fill="rgb(124,197,234)" stroke="rgb(124,197,234)" stroke-width="1" opacity="0.3176470588235294" d="M 105.5 167 L 106.5 169 L 105.5 167 Z " /><path fill="rgb(124,197,234)" stroke="rgb(124,197,234)" stroke-width="1" opacity="0.3176470588235294" d="M 109.5 172 L 112.5 176 L 109.5 172 Z " /><path fill="rgb(124,197,234)" stroke="rgb(124,197,234)" stroke-width="1" opacity="0.3176470588235294" d="M 90.5 174 L 90.5 175 L 90.5 174 Z " /><path fill="rgb(124,197,234)" stroke="rgb(124,197,234)" stroke-width="1" opacity="0.3176470588235294" d="M 35.5 175 L 64.5 205 L 35.5 175 Z " /><path fill="rgb(124,197,234)" stroke="rgb(124,197,234)" stroke-width="1" opacity="0.3176470588235294" d="M 86.5 177 L 83.5 181 L 86.5 177 Z " /><path fill="rgb(124,197,234)" stroke="rgb(124,197,234)" stroke-width="1" opacity="0.3176470588235294" d="M 70.5 180 L 70.5 181 L 70.5 180 Z " /><path fill="rgb(124,197,234)" stroke="rgb(124,197,234)" stroke-width="1" opacity="0.3176470588235294" d="M 81.5 181 L 81.5 182 L 81.5 181 Z " /><path fill="rgb(124,197,234)" stroke="rgb(124,197,234)" stroke-width="1" opacity="0.3176470588235294" d="M 136.5 185 L 136.5 186 L 136.5 185 Z " /><path fill="rgb(124,197,234)" stroke="rgb(124,197,234)" stroke-width="1" opacity="0.3176470588235294" d="M 159.5 185 L 158.5 187 L 159.5 185 Z " /><path fill="rgb(124,197,234)" stroke="rgb(124,197,234)" stroke-width="1" opacity="0.3176470588235294" d="M 138.5 186 L 138.5 187 L 138.5 186 Z " /><path fill="rgb(124,197,234)" stroke="rgb(124,197,234)" stroke-width="1" opacity="0.3176470588235294" d="M 140.5 187 L 140.5 188 L 140.5 187 Z " /><path fill="rgb(124,197,234)" stroke="rgb(124,197,234)" stroke-width="1" opacity="0.3176470588235294" d="M 156.5 187 L 156.5 188 L 156.5 187 Z " /><path fill="rgb(124,197,234)" stroke="rgb(124,197,234)" stroke-width="1" opacity="0.3176470588235294" d="M 89.5 203 L 87.5 206 L 89.5 203 Z " /><path fill="rgb(124,197,234)" stroke="rgb(124,197,234)" stroke-width="1" opacity="0.3176470588235294" d="M 66.5 205 L 66.5 206 L 66.5 205 Z " /><path fill="rgb(124,197,234)" stroke="rgb(124,197,234)" stroke-width="1" opacity="0.3176470588235294" d="M 68.5 206 L 68.5 207 L 68.5 206 Z " /><path fill="rgb(124,197,234)" stroke="rgb(124,197,234)" stroke-width="1" opacity="0.3176470588235294" d="M 85.5 206 L 85.5 207 L 85.5 206 Z " /><path fill="rgb(124,197,234)" stroke="rgb(124,197,234)" stroke-width="1" opacity="0.3176470588235294" d="M 71.5 207 L 71.5 208 L 71.5 207 Z " /><path fill="rgb(124,197,234)" stroke="rgb(124,197,234)" stroke-width="1" opacity="0.3176470588235294" d="M 81.5 207 L 81.5 208 L 81.5 207 Z " /><path fill="rgb(125,195,235)" stroke="rgb(125,195,235)" stroke-width="1" opacity="0.403921568627451" d="M 175.5 48 L 177 48.5 L 175.5 49 L 175.5 48 Z " /><path fill="rgb(125,195,235)" stroke="rgb(125,195,235)" stroke-width="1" opacity="0.403921568627451" d="M 182.5 48 L 184 48.5 L 182.5 49 L 182.5 48 Z " /><path fill="rgb(125,195,235)" stroke="rgb(125,195,235)" stroke-width="1" opacity="0.403921568627451" d="M 172.5 49 L 174 49.5 L 172.5 50 L 172.5 49 Z " /><path fill="rgb(125,195,235)" stroke="rgb(125,195,235)" stroke-width="1" opacity="0.403921568627451" d="M 186.5 49 L 188 49.5 L 186.5 50 L 186.5 49 Z " /><path fill="rgb(125,195,235)" stroke="rgb(125,195,235)" stroke-width="1" opacity="0.403921568627451" d="M 170.5 50 L 170.5 51 L 170.5 50 Z " /><path fill="rgb(125,195,235)" stroke="rgb(125,195,235)" stroke-width="1" opacity="0.403921568627451" d="M 168.5 51 L 168.5 52 L 168.5 51 Z " /><path fill="rgb(125,195,235)" stroke="rgb(125,195,235)" stroke-width="1" opacity="0.403921568627451" d="M 190.5 51 L 190.5 52 L 190.5 51 Z " /><path fill="rgb(125,195,235)" stroke="rgb(125,195,235)" stroke-width="1" opacity="0.403921568627451" d="M 166.5 52 L 165.5 54 L 166.5 52 Z " /><path fill="rgb(125,195,235)" stroke="rgb(125,195,235)" stroke-width="1" opacity="0.403921568627451" d="M 102.5 69 L 104 69.5 L 102.5 70 L 102.5 69 Z " /><path fill="rgb(125,195,235)" stroke="rgb(125,195,235)" stroke-width="1" opacity="0.403921568627451" d="M 107.5 69 L 110 69.5 L 107.5 70 L 107.5 69 Z " /><path fill="rgb(125,195,235)" stroke="rgb(125,195,235)" stroke-width="1" opacity="0.403921568627451" d="M 99.5 70 L 99.5 71 L 99.5 70 Z " /><path fill="rgb(125,195,235)" stroke="rgb(125,195,235)" stroke-width="1" opacity="0.403921568627451" d="M 117.5 72 L 117.5 73 L 117.5 72 Z " /><path fill="rgb(125,195,235)" stroke="rgb(125,195,235)" stroke-width="1" opacity="0.403921568627451" d="M 93.5 73 L 93.5 74 L 93.5 73 Z " /><path fill="rgb(125,195,235)" stroke="rgb(125,195,235)" stroke-width="1" opacity="0.403921568627451" d="M 182.5 73 L 182.5 74 L 182.5 73 Z " /><path fill="rgb(125,195,235)" stroke="rgb(125,195,235)" stroke-width="1" opacity="0.403921568627451" d="M 174.5 74 L 174.5 75 L 174.5 74 Z " /><path fill="rgb(125,195,235)" stroke="rgb(125,195,235)" stroke-width="1" opacity="0.403921568627451" d="M 184.5 74 L 186 74.5 L 184.5 75 L 184.5 74 Z " /><path fill="rgb(125,195,235)" stroke="rgb(125,195,235)" stroke-width="1" opacity="0.403921568627451" d="M 172.5 75 L 172.5 76 L 172.5 75 Z " /><path fill="rgb(125,195,235)" stroke="rgb(125,195,235)" stroke-width="1" opacity="0.403921568627451" d="M 142.5 76 L 143 78.5 L 142 78.5 L 142.5 76 Z " /><path fill="rgb(125,195,235)" stroke="rgb(125,195,235)" stroke-width="1" opacity="0.403921568627451" d="M 170.5 77 L 170.5 78 L 170.5 77 Z " /><path fill="rgb(125,195,235)" stroke="rgb(125,195,235)" stroke-width="1" opacity="0.403921568627451" d="M 225.5 86 L 225.5 87 L 225.5 86 Z " /><path fill="rgb(125,195,235)" stroke="rgb(125,195,235)" stroke-width="1" opacity="0.403921568627451" d="M 160.5 87 L 160.5 88 L 160.5 87 Z " /><path fill="rgb(125,195,235)" stroke="rgb(125,195,235)" stroke-width="1" opacity="0.403921568627451" d="M 227.5 88 L 227.5 89 L 227.5 88 Z " /><path fill="rgb(125,195,235)" stroke="rgb(125,195,235)" stroke-width="1" opacity="0.403921568627451" d="M 157.5 89 L 157.5 90 L 157.5 89 Z " /><path fill="rgb(125,195,235)" stroke="rgb(125,195,235)" stroke-width="1" opacity="0.403921568627451" d="M 154.5 90 L 154.5 91 L 154.5 90 Z " /><path fill="rgb(125,195,235)" stroke="rgb(125,195,235)" stroke-width="1" opacity="0.403921568627451" d="M 230.5 92 L 230.5 93 L 230.5 92 Z " /><path fill="rgb(125,195,235)" stroke="rgb(125,195,235)" stroke-width="1" opacity="0.403921568627451" d="M 204.5 93 L 204.5 94 L 204.5 93 Z " /><path fill="rgb(125,195,235)" stroke="rgb(125,195,235)" stroke-width="1" opacity="0.403921568627451" d="M 231.5 94 L 231.5 95 L 231.5 94 Z " /><path fill="rgb(125,195,235)" stroke="rgb(125,195,235)" stroke-width="1" opacity="0.403921568627451" d="M 103.5 95 L 107 95.5 L 103.5 96 L 103.5 95 Z " /><path fill="rgb(125,195,235)" stroke="rgb(125,195,235)" stroke-width="1" opacity="0.403921568627451" d="M 100.5 96 L 102 96.5 L 100.5 97 L 100.5 96 Z " /><path fill="rgb(125,195,235)" stroke="rgb(125,195,235)" stroke-width="1" opacity="0.403921568627451" d="M 110.5 96 L 113 97.5 L 111.5 97 L 110.5 96 Z " /><path fill="rgb(125,195,235)" stroke="rgb(125,195,235)" stroke-width="1" opacity="0.403921568627451" d="M 206.5 96 L 206.5 97 L 206.5 96 Z " /><path fill="rgb(125,195,235)" stroke="rgb(125,195,235)" stroke-width="1" opacity="0.403921568627451" d="M 232.5 96 L 233 97.5 L 232 97.5 L 232.5 96 Z " /><path fill="rgb(125,195,235)" stroke="rgb(125,195,235)" stroke-width="1" opacity="0.403921568627451" d="M 207.5 106 L 208 107.5 L 207 107.5 L 207.5 106 Z " /><path fill="rgb(125,195,235)" stroke="rgb(125,195,235)" stroke-width="1" opacity="0.403921568627451" d="M 232.5 109 L 232.5 110 L 232.5 109 Z " /><path fill="rgb(125,195,235)" stroke="rgb(125,195,235)" stroke-width="1" opacity="0.403921568627451" d="M 106.5 113 L 106.5 114 L 106.5 113 Z " /><path fill="rgb(125,195,235)" stroke="rgb(125,195,235)" stroke-width="1" opacity="0.403921568627451" d="M 108.5 113 L 108.5 114 L 108.5 113 Z " /><path fill="rgb(125,195,235)" stroke="rgb(125,195,235)" stroke-width="1" opacity="0.403921568627451" d="M 158.5 114 L 159 115.5 L 158 115.5 L 158.5 114 Z " /><path fill="rgb(125,195,235)" stroke="rgb(125,195,235)" stroke-width="1" opacity="0.403921568627451" d="M 103.5 115 L 103.5 116 L 103.5 115 Z " /><path fill="rgb(125,195,235)" stroke="rgb(125,195,235)" stroke-width="1" opacity="0.403921568627451" d="M 229.5 115 L 229.5 116 L 229.5 115 Z " /><path fill="rgb(125,195,235)" stroke="rgb(125,195,235)" stroke-width="1" opacity="0.403921568627451" d="M 131.5 116 L 131.5 117 L 131.5 116 Z " /><path fill="rgb(125,195,235)" stroke="rgb(125,195,235)" stroke-width="1" opacity="0.403921568627451" d="M 101.5 117 L 100.5 119 L 101.5 117 Z " /><path fill="rgb(125,195,235)" stroke="rgb(125,195,235)" stroke-width="1" opacity="0.403921568627451" d="M 132.5 118 L 132.5 119 L 132.5 118 Z " /><path fill="rgb(125,195,235)" stroke="rgb(125,195,235)" stroke-width="1" opacity="0.403921568627451" d="M 159.5 118 L 159.5 119 L 159.5 118 Z " /><path fill="rgb(125,195,235)" stroke="rgb(125,195,235)" stroke-width="1" opacity="0.403921568627451" d="M 115.5 119 L 115.5 120 L 115.5 119 Z " /><path fill="rgb(125,195,235)" stroke="rgb(125,195,235)" stroke-width="1" opacity="0.403921568627451" d="M 98.5 121 L 98.5 122 L 98.5 121 Z " /><path fill="rgb(125,195,235)" stroke="rgb(125,195,235)" stroke-width="1" opacity="0.403921568627451" d="M 134.5 122 L 134.5 123 L 134.5 122 Z " /><path fill="rgb(125,195,235)" stroke="rgb(125,195,235)" stroke-width="1" opacity="0.403921568627451" d="M 96.5 124 L 96.5 125 L 96.5 124 Z " /><path fill="rgb(125,195,235)" stroke="rgb(125,195,235)" stroke-width="1" opacity="0.403921568627451" d="M 120.5 124 L 120.5 125 L 120.5 124 Z " /><path fill="rgb(125,195,235)" stroke="rgb(125,195,235)" stroke-width="1" opacity="0.403921568627451" d="M 95.5 126 L 95.5 127 L 95.5 126 Z " /><path fill="rgb(125,195,235)" stroke="rgb(125,195,235)" stroke-width="1" opacity="0.403921568627451" d="M 133.5 126 L 134 127.5 L 133 127.5 L 133.5 126 Z " /><path fill="rgb(125,195,235)" stroke="rgb(125,195,235)" stroke-width="1" opacity="0.403921568627451" d="M 159.5 127 L 160 128.5 L 159 128.5 L 159.5 127 Z " /><path fill="rgb(125,195,235)" stroke="rgb(125,195,235)" stroke-width="1" opacity="0.403921568627451" d="M 94.5 129 L 94.5 130 L 94.5 129 Z " /><path fill="rgb(125,195,235)" stroke="rgb(125,195,235)" stroke-width="1" opacity="0.403921568627451" d="M 120.5 130 L 120.5 131 L 120.5 130 Z " /><path fill="rgb(125,195,235)" stroke="rgb(125,195,235)" stroke-width="1" opacity="0.403921568627451" d="M 158.5 130 L 159 131.5 L 158 131.5 L 158.5 130 Z " /><path fill="rgb(125,195,235)" stroke="rgb(125,195,235)" stroke-width="1" opacity="0.403921568627451" d="M 133.5 133 L 133.5 134 L 133.5 133 Z " /><path fill="rgb(125,195,235)" stroke="rgb(125,195,235)" stroke-width="1" opacity="0.403921568627451" d="M 119.5 134 L 119.5 135 L 119.5 134 Z " /><path fill="rgb(125,195,235)" stroke="rgb(125,195,235)" stroke-width="1" opacity="0.403921568627451" d="M 154.5 137 L 154.5 138 L 154.5 137 Z " /><path fill="rgb(125,195,235)" stroke="rgb(125,195,235)" stroke-width="1" opacity="0.403921568627451" d="M 138.5 138 L 139.5 140 L 138.5 138 Z " /><path fill="rgb(125,195,235)" stroke="rgb(125,195,235)" stroke-width="1" opacity="0.403921568627451" d="M 94.5 139 L 94.5 140 L 94.5 139 Z " /><path fill="rgb(125,195,235)" stroke="rgb(125,195,235)" stroke-width="1" opacity="0.403921568627451" d="M 26.5 140 L 26.5 141 L 26.5 140 Z " /><path fill="rgb(125,195,235)" stroke="rgb(125,195,235)" stroke-width="1" opacity="0.403921568627451" d="M 121.5 140 L 121.5 141 L 121.5 140 Z " /><path fill="rgb(125,195,235)" stroke="rgb(125,195,235)" stroke-width="1" opacity="0.403921568627451" d="M 95.5 142 L 96 143.5 L 95 143.5 L 95.5 142 Z " /><path fill="rgb(125,195,235)" stroke="rgb(125,195,235)" stroke-width="1" opacity="0.403921568627451" d="M 144.5 143 L 146 143.5 L 144.5 144 L 144.5 143 Z " /><path fill="rgb(125,195,235)" stroke="rgb(125,195,235)" stroke-width="1" opacity="0.403921568627451" d="M 148.5 143 L 148.5 144 L 148.5 143 Z " /><path fill="rgb(125,195,235)" stroke="rgb(125,195,235)" stroke-width="1" opacity="0.403921568627451" d="M 96.5 145 L 96.5 146 L 96.5 145 Z " /><path fill="rgb(125,195,235)" stroke="rgb(125,195,235)" stroke-width="1" opacity="0.403921568627451" d="M 23.5 146 L 23.5 147 L 23.5 146 Z " /><path fill="rgb(125,195,235)" stroke="rgb(125,195,235)" stroke-width="1" opacity="0.403921568627451" d="M 49.5 147 L 49.5 148 L 49.5 147 Z " /><path fill="rgb(125,195,235)" stroke="rgb(125,195,235)" stroke-width="1" opacity="0.403921568627451" d="M 48.5 149 L 49 150.5 L 48 150.5 L 48.5 149 Z " /><path fill="rgb(125,195,235)" stroke="rgb(125,195,235)" stroke-width="1" opacity="0.403921568627451" d="M 23.5 158 L 24 159.5 L 23 159.5 L 23.5 158 Z " /><path fill="rgb(125,195,235)" stroke="rgb(125,195,235)" stroke-width="1" opacity="0.403921568627451" d="M 49.5 159 L 49.5 160 L 49.5 159 Z " /><path fill="rgb(125,195,235)" stroke="rgb(125,195,235)" stroke-width="1" opacity="0.403921568627451" d="M 142.5 161 L 144 161.5 L 142.5 162 L 142.5 161 Z " /><path fill="rgb(125,195,235)" stroke="rgb(125,195,235)" stroke-width="1" opacity="0.403921568627451" d="M 152.5 161 L 154 161.5 L 152.5 162 L 152.5 161 Z " /><path fill="rgb(125,195,235)" stroke="rgb(125,195,235)" stroke-width="1" opacity="0.403921568627451" d="M 51.5 162 L 51.5 163 L 51.5 162 Z " /><path fill="rgb(125,195,235)" stroke="rgb(125,195,235)" stroke-width="1" opacity="0.403921568627451" d="M 147.5 162 L 151 162.5 L 147.5 163 L 147.5 162 Z " /><path fill="rgb(125,195,235)" stroke="rgb(125,195,235)" stroke-width="1" opacity="0.403921568627451" d="M 25.5 163 L 25.5 164 L 25.5 163 Z " /><path fill="rgb(125,195,235)" stroke="rgb(125,195,235)" stroke-width="1" opacity="0.403921568627451" d="M 101.5 165 L 101.5 166 L 101.5 165 Z " /><path fill="rgb(125,195,235)" stroke="rgb(125,195,235)" stroke-width="1" opacity="0.403921568627451" d="M 29.5 168 L 30.5 170 L 29.5 168 Z " /><path fill="rgb(125,195,235)" stroke="rgb(125,195,235)" stroke-width="1" opacity="0.403921568627451" d="M 108.5 171 L 108.5 172 L 108.5 171 Z " /><path fill="rgb(125,195,235)" stroke="rgb(125,195,235)" stroke-width="1" opacity="0.403921568627451" d="M 92.5 172 L 91.5 174 L 92.5 172 Z " /><path fill="rgb(125,195,235)" stroke="rgb(125,195,235)" stroke-width="1" opacity="0.403921568627451" d="M 112.5 176 L 112.5 177 L 112.5 176 Z " /><path fill="rgb(125,195,235)" stroke="rgb(125,195,235)" stroke-width="1" opacity="0.403921568627451" d="M 112.5 179 L 113 180.5 L 112 180.5 L 112.5 179 Z " /><path fill="rgb(125,195,235)" stroke="rgb(125,195,235)" stroke-width="1" opacity="0.403921568627451" d="M 69.5 180 L 69.5 181 L 69.5 180 Z " /><path fill="rgb(125,195,235)" stroke="rgb(125,195,235)" stroke-width="1" opacity="0.403921568627451" d="M 71.5 181 L 73 181.5 L 71.5 182 L 71.5 181 Z " /><path fill="rgb(125,195,235)" stroke="rgb(125,195,235)" stroke-width="1" opacity="0.403921568627451" d="M 75.5 182 L 78 182.5 L 75.5 183 L 75.5 182 Z " /><path fill="rgb(125,195,235)" stroke="rgb(125,195,235)" stroke-width="1" opacity="0.403921568627451" d="M 79.5 182 L 79.5 183 L 79.5 182 Z " /><path fill="rgb(125,195,235)" stroke="rgb(125,195,235)" stroke-width="1" opacity="0.403921568627451" d="M 135.5 184 L 135.5 185 L 135.5 184 Z " /><path fill="rgb(125,195,235)" stroke="rgb(125,195,235)" stroke-width="1" opacity="0.403921568627451" d="M 160.5 184 L 160.5 185 L 160.5 184 Z " /><path fill="rgb(125,195,235)" stroke="rgb(125,195,235)" stroke-width="1" opacity="0.403921568627451" d="M 137.5 185 L 137.5 186 L 137.5 185 Z " /><path fill="rgb(125,195,235)" stroke="rgb(125,195,235)" stroke-width="1" opacity="0.403921568627451" d="M 139.5 186 L 139.5 187 L 139.5 186 Z " /><path fill="rgb(125,195,235)" stroke="rgb(125,195,235)" stroke-width="1" opacity="0.403921568627451" d="M 141.5 187 L 141.5 188 L 141.5 187 Z " /><path fill="rgb(125,195,235)" stroke="rgb(125,195,235)" stroke-width="1" opacity="0.403921568627451" d="M 144.5 188 L 146 188.5 L 144.5 189 L 144.5 188 Z " /><path fill="rgb(125,195,235)" stroke="rgb(125,195,235)" stroke-width="1" opacity="0.403921568627451" d="M 150.5 188 L 152 188.5 L 150.5 189 L 150.5 188 Z " /><path fill="rgb(125,195,235)" stroke="rgb(125,195,235)" stroke-width="1" opacity="0.403921568627451" d="M 90.5 202 L 90.5 203 L 90.5 202 Z " /><path fill="rgb(125,195,235)" stroke="rgb(125,195,235)" stroke-width="1" opacity="0.403921568627451" d="M 65.5 204 L 65.5 205 L 65.5 204 Z " /><path fill="rgb(125,195,235)" stroke="rgb(125,195,235)" stroke-width="1" opacity="0.403921568627451" d="M 86.5 205 L 86.5 206 L 86.5 205 Z " /><path fill="rgb(125,195,235)" stroke="rgb(125,195,235)" stroke-width="1" opacity="0.403921568627451" d="M 69.5 206 L 69.5 207 L 69.5 206 Z " /><path fill="rgb(125,195,235)" stroke="rgb(125,195,235)" stroke-width="1" opacity="0.403921568627451" d="M 84.5 206 L 84.5 207 L 84.5 206 Z " /><path fill="rgb(125,195,235)" stroke="rgb(125,195,235)" stroke-width="1" opacity="0.403921568627451" d="M 72.5 207 L 74 207.5 L 72.5 208 L 72.5 207 Z " /><path fill="rgb(125,195,235)" stroke="rgb(125,195,235)" stroke-width="1" opacity="0.403921568627451" d="M 79.5 207 L 81 207.5 L 79.5 208 L 79.5 207 Z " /><path fill="rgb(124,196,234)" stroke="rgb(124,196,234)" stroke-width="1" opacity="0.996078431372549" d="M 175.5 49 Q 184.5 48 189.5 51 L 228 89.5 L 231 93.5 L 233 101.5 L 232 106.5 L 232 108.5 L 230 114.5 L 158.5 186 L 153.5 188 L 151.5 188 L 144.5 188 L 135.5 184 L 97 145.5 L 95 141.5 L 95 139.5 Q 93.7 131.3 96 126.5 L 104.5 115 L 108.5 114 L 120 124.5 L 121 128.5 Q 118.2 131.2 119 137.5 L 122 142.5 L 139.5 160 Q 142.7 164.3 151.5 163 L 155.5 161 L 207 109.5 L 209 104.5 L 208 101.5 L 209 99.5 L 205 92.5 L 188.5 76 L 181.5 72 L 177.5 72 L 170 76.5 L 159.5 88 L 153.5 90 L 144 80.5 L 143 76.5 L 166.5 53 L 175.5 49 Z " /><path fill="rgb(124,196,234)" stroke="rgb(124,196,234)" stroke-width="1" opacity="0.996078431372549" d="M 102.5 70 L 109.5 70 L 116.5 72 L 153.5 109 L 155 109 Q 160.4 114.9 159 128.5 L 153 140 L 151 140 Q 152.1 142.7 149.5 142 L 144.5 143 L 134 133.5 L 133 129.5 L 135 125.5 L 135 123.5 L 132 115.5 L 114.5 98 Q 111.3 93.7 102.5 95 L 98.5 97 L 49 146.5 Q 46.3 149.8 47 156.5 L 51 163.5 L 67.5 180 L 78.5 184 L 84.5 181 L 97.5 168 L 102.5 166 L 112 176.5 L 112 180.5 L 88.5 204 L 80.5 207 L 72.5 207 L 66.5 205 L 28 166.5 L 25 162.5 L 23 154.5 L 24 149.5 L 24 147.5 L 26 141.5 L 94.5 73 L 102.5 70 Z " /></svg>