<svg width="256" height="256" version="1.1" xmlns="http://www.w3.org/2000/svg" desc="Created with imagetracer.js version 1.2.6" ><path fill="rgb(0,0,0)" stroke="rgb(0,0,0)" stroke-width="1" opacity="0" d="M 0 0 L 256 0 L 256 256 L 0 256 L 0 0 Z M 149 25 L 138 28 L 130 34 L 127 36 L 124 40 L 120 43 Q 121 45 119 44 L 116 48 L 112 51 Q 113 53 111 52 L 108 56 L 104 59 Q 105 61 103 60 L 100 64 L 96 67 Q 97 69 95 68 L 92 72 L 88 75 Q 89 77 87 76 L 84 80 L 82 81 L 80 80 L 73 80 L 66 84 Q 63 83 64 86 L 44 103 Q 45 105 43 104 L 40 108 Q 36 107 35 111 Q 36 113 34 112 L 30 117 L 28 124 L 29 132 L 32 137 Q 30 141 34 140 L 40 148 Q 46 147 49 151 L 60 151 L 67 148 L 72 142 Q 71 139 74 140 L 90 121 L 96 116 L 100 107 L 99 96 L 104 92 L 105 88 L 112 84 L 113 80 L 120 76 L 121 72 L 128 68 L 129 64 L 135 60 Q 137 61 136 58 L 144 52 L 145 50 L 155 46 L 164 48 L 171 53 L 176 65 L 175 75 L 170 82 L 167 84 L 162 90 L 159 92 L 156 96 L 152 99 Q 153 101 151 100 L 148 104 L 144 107 Q 145 109 143 108 L 140 112 L 138 113 L 136 116 L 132 119 Q 133 121 131 120 L 128 124 L 124 127 Q 125 129 123 128 L 120 132 L 116 135 Q 117 137 115 136 L 112 140 L 108 143 Q 109 145 107 144 L 104 148 L 100 151 Q 101 153 99 152 L 96 156 L 92 159 Q 93 161 91 160 L 82 173 L 79 185 L 80 205 L 88 219 L 91 220 Q 93 219 92 222 L 94 222 L 94 224 L 98 226 Q 101 225 100 228 Q 107 228 112 231 L 128 231 L 139 228 L 152 218 L 154 215 L 158 212 L 160 209 L 166 204 L 171 198 Q 173 199 172 196 Q 184 198 190 193 L 192 190 L 196 188 L 200 183 Q 200 180 205 180 L 208 176 L 214 172 L 216 169 L 223 164 L 228 154 L 227 147 L 222 136 Q 219 137 220 133 L 218 132 Q 215 133 216 131 L 207 125 L 202 124 Q 194 124 190 128 L 188 131 L 186 132 L 180 139 Q 181 141 179 140 L 163 159 Q 164 161 160 160 Q 154 167 156 183 L 152 184 L 150 188 Q 147 187 148 191 L 144 192 L 142 196 Q 139 195 140 199 L 136 200 L 134 204 Q 131 203 132 207 L 120 210 L 111 208 L 106 204 L 101 196 L 101 187 L 105 178 L 112 172 L 119 164 Q 121 165 120 163 L 128 156 L 135 148 Q 137 149 136 147 L 144 140 L 151 132 Q 153 133 152 131 L 160 124 L 167 116 Q 169 117 168 115 L 176 108 L 177 106 Q 176 103 180 104 L 180 103 L 184 100 L 185 98 Q 184 95 188 96 L 189 94 Q 188 91 191 92 L 193 86 L 196 83 L 198 72 Q 199 62 196 57 Q 198 51 194 52 Q 193 44 188 40 L 175 28 L 171 28 L 163 25 L 149 25 Z " /><path fill="rgb(154,122,238)" stroke="rgb(154,122,238)" stroke-width="1" opacity="0.13725490196078433" d="M 148.5 25 L 163 25.5 L 148.5 26 L 141.5 28 L 141.5 27 L 148.5 25 Z " /><path fill="rgb(154,122,238)" stroke="rgb(154,122,238)" stroke-width="1" opacity="0.13725490196078433" d="M 164.5 26 L 170 27.5 L 168.5 28 L 164.5 27 L 164.5 26 Z " /><path fill="rgb(154,122,238)" stroke="rgb(154,122,238)" stroke-width="1" opacity="0.13725490196078433" d="M 137.5 28 L 140 28.5 L 128 36 L 128 38 L 126 38 L 126 40 L 124 40 L 124 42 L 122 42 Q 123.1 44.7 120.5 44 L 118 48 L 116 48 L 116 50 L 114 50 Q 115.1 52.7 112.5 52 L 110 56 L 108 56 L 108 58 L 106 58 Q 107.1 60.7 104.5 60 L 102 64 L 100 64 L 100 66 L 98 66 Q 99.1 68.7 96.5 68 L 94 72 L 92 72 L 92 74 L 90 74 Q 91.1 76.7 88.5 76 L 86 80 Q 83 79 84 82 L 80.5 82 Q 79.3 79.8 74.5 81 L 64 86 Q 65.1 88.7 62.5 88 L 56 93 L 54.5 96 L 48 100 L 45.5 104 L 42.5 106 L 32 115.5 Q 28 120.5 30 131.5 Q 34 140.5 41.5 146 L 49.5 150 L 59.5 150 Q 67.7 146.7 72 139.5 L 76 134.5 L 90 119.5 L 90 118 Q 92.7 119.1 92 116.5 Q 98.8 112.3 99 101.5 Q 96.5 100 98 94.5 L 140.5 52 L 142 52 Q 140.9 49.3 143.5 50 L 146 48.5 L 143.5 52 L 136 57.5 Q 137.1 60.8 134.5 60 L 129 64 L 128 68 L 121 72 L 120 76 L 113 80 L 112 84 L 105 88 L 104 92 L 99 95.5 L 100 106.5 L 96 116 L 90 120.5 L 73.5 140 Q 71.3 139.3 72 141.5 L 66.5 148 L 59.5 151 L 48.5 151 Q 45.7 147.3 40 148 L 33.5 140 Q 30.5 140.9 32 136.5 L 29 131.5 L 28 123.5 L 30 116.5 L 33.5 112 Q 35.8 112.8 35 110.5 Q 36.2 107.3 40 108 L 42.5 104 Q 44.8 104.8 44 102.5 L 64 86 Q 62.9 83.3 65.5 84 L 72.5 80 L 79.5 80 L 81.5 81 L 84 80 L 86.5 76 Q 88.8 76.8 88 74.5 L 92 72 L 94.5 68 Q 96.8 68.8 96 66.5 L 100 64 L 102.5 60 Q 104.8 60.8 104 58.5 L 108 56 L 110.5 52 Q 112.8 52.8 112 50.5 L 116 48 L 118.5 44 Q 120.8 44.8 120 42.5 L 124 40 L 126.5 36 L 129.5 34 L 137.5 28 Z " /><path fill="rgb(154,122,238)" stroke="rgb(154,122,238)" stroke-width="1" opacity="0.13725490196078433" d="M 171.5 28 L 174.5 28 L 188 39.5 Q 192.7 43.3 194 50.5 L 193 50.5 L 184 36 L 171.5 29 L 171.5 28 Z " /><path fill="rgb(154,122,238)" stroke="rgb(154,122,238)" stroke-width="1" opacity="0.13725490196078433" d="M 153.5 45 L 162.5 46 L 172 52 L 176 59.5 L 177 71.5 L 176 75.5 L 169.5 84 Q 167.3 83.3 168 85.5 L 164 88 L 161.5 92 Q 159.3 91.3 160 93.5 L 156 96 L 156 98 L 154 98 L 154 100 L 152 100 L 152 102 L 150 102 L 150 104 L 148 104 L 148 106 L 146 106 L 146 108 L 144 108 L 144 110 L 142 110 L 142 112 L 140 112 L 140 114 L 138 114 L 138 116 L 136 116 L 136 118 L 134 118 L 134 120 L 132 120 L 132 122 L 130 122 L 130 124 L 128 124 L 128 126 L 126 126 L 126 128 L 124 128 L 124 130 L 122 130 L 122 132 L 120 132 L 120 134 L 118 134 L 118 136 L 116 136 L 116 138 L 114 138 L 114 140 L 112 140 L 112 142 L 110 142 L 110 144 L 108 144 L 108 146 L 106 146 L 106 148 L 104 148 L 104 150 L 102 150 L 102 152 L 100 152 L 100 154 L 98 154 L 98 156 L 96 156 L 96 158 L 94 158 L 94 160 Q 91.3 158.9 92 161.5 Q 83.1 168.6 80.5 182 L 80 177.5 L 86 165.5 L 90.5 160 Q 92.8 160.8 92 158.5 L 96 156 L 98.5 152 Q 100.8 152.8 100 150.5 L 104 148 L 106.5 144 Q 108.8 144.8 108 142.5 L 112 140 L 114.5 136 Q 116.8 136.8 116 134.5 L 120 132 L 122.5 128 Q 124.8 128.8 124 126.5 L 128 124 L 130.5 120 Q 132.8 120.8 132 118.5 L 136 116 L 137.5 113 L 140 111.5 L 142.5 108 Q 144.8 108.8 144 106.5 L 148 103.5 L 150.5 100 Q 152.8 100.8 152 98.5 L 156 95.5 L 158.5 92 L 161.5 90 L 166.5 84 L 169.5 82 L 175 74.5 L 176 64.5 L 171 53 L 163.5 48 L 154.5 46 L 147.5 48 L 147.5 47 L 153.5 45 Z " /><path fill="rgb(154,122,238)" stroke="rgb(154,122,238)" stroke-width="1" opacity="0.13725490196078433" d="M 194 52 Q 197.7 50.6 196 56.5 Q 199.4 61.6 198 71.5 L 196 82.5 L 192.5 87 L 192 85.5 L 196 77.5 L 197 65.5 Q 194.3 63.8 196 57.5 L 194 52 Z " /><path fill="rgb(154,122,238)" stroke="rgb(154,122,238)" stroke-width="1" opacity="0.13725490196078433" d="M 191.5 88 L 192 90.5 L 189 92 L 188 96 Q 185.3 97.1 186 94.5 L 191.5 88 Z " /><path fill="rgb(154,122,238)" stroke="rgb(154,122,238)" stroke-width="1" opacity="0.13725490196078433" d="M 184.5 96 L 185 97.5 L 184 100 L 180 102.5 Q 180.7 105.1 178 104 L 178 102 L 180 102 L 180 100 L 182 100 L 182 98 Q 184.8 99 184.5 96 Z " /><path fill="rgb(154,122,238)" stroke="rgb(154,122,238)" stroke-width="1" opacity="0.13725490196078433" d="M 176.5 104 L 177 105.5 L 176 108 L 168 114.5 Q 168.8 116.8 166.5 116 L 160 124 L 152 130.5 Q 152.8 132.8 150.5 132 L 144 140 L 136 146.5 Q 136.8 148.8 134.5 148 L 128 156 L 120 162.5 Q 120.8 164.8 118.5 164 L 112 172 L 105 177.5 L 101 186.5 L 101 195.5 L 105.5 204 L 110 207.5 L 108.5 208 L 102 201.5 L 100 197.5 Q 101.5 192 99 190.5 Q 101.3 189.3 100 184.5 L 104 176 L 106 176 L 106 174 L 108 174 L 108 172 L 110 172 L 110 170 L 112 170 L 112 168 L 114 168 L 114 166 L 116 166 L 116 164 L 118 164 L 118 162 L 120 162 L 120 160 L 122 160 L 122 158 L 124 158 L 124 156 L 126 156 L 126 154 L 128 154 L 128 152 L 130 152 L 130 150 L 132 150 L 132 148 L 134 148 L 134 146 L 136 146 L 136 144 L 138 144 L 138 142 L 140 142 L 140 140 L 142 140 L 142 138 L 144 138 L 144 136 L 146 136 L 146 134 L 148 134 L 148 132 L 150 132 L 150 130 L 152 130 L 152 128 L 154 128 L 154 126 L 156 126 L 156 124 L 158 124 L 158 122 L 160 122 L 160 120 L 162 120 L 162 118 L 164 118 L 164 116 L 166 116 L 166 114 L 168 114 L 168 112 L 170 112 L 170 110 L 172 110 L 172 108 L 174 108 L 174 106 Q 176.8 107 176.5 104 Z " /><path fill="rgb(154,122,238)" stroke="rgb(154,122,238)" stroke-width="1" opacity="0.13725490196078433" d="M 197.5 124 Q 210.1 123.9 216 130.5 Q 215.3 132.8 217.5 132 L 220 133 Q 218.5 136.7 221.5 136 L 225 143.5 L 224 143.5 Q 221.3 134.2 213.5 130 L 204.5 126 L 196.5 126 Q 189.8 128.3 186 133.5 L 178 144 Q 175.3 142.9 176 145.5 L 170.5 152 L 168 153.5 L 163.5 160 L 163 158.5 L 178.5 140 Q 180.8 140.8 180 138.5 L 185.5 132 L 188 130.5 L 189.5 128 L 197.5 124 Z " /><path fill="rgb(154,122,238)" stroke="rgb(154,122,238)" stroke-width="1" opacity="0.13725490196078433" d="M 225.5 145 Q 228.7 147.3 228 153.5 L 222.5 164 L 216 168.5 L 213.5 172 L 208 175.5 L 204.5 180 L 203 179.5 L 204 177 L 212 172 Q 210.9 169.3 213.5 170 L 224 159.5 Q 227 155.5 226 147.5 L 225.5 145 Z " /><path fill="rgb(154,122,238)" stroke="rgb(154,122,238)" stroke-width="1" opacity="0.13725490196078433" d="M 160 160 Q 163 159 162 162 Q 159.3 160.9 160 163.5 L 156.5 172 L 156 168.5 L 160 160 Z " /><path fill="rgb(154,122,238)" stroke="rgb(154,122,238)" stroke-width="1" opacity="0.13725490196078433" d="M 156.5 174 L 158 181.5 L 133.5 206 L 132 206 Q 130.9 203.3 133.5 204 L 136 200 L 140 198.5 Q 138.9 195.2 141.5 196 L 144 192 L 148 190.5 Q 146.9 187.2 149.5 188 L 152 184 L 156 182.5 L 156.5 174 Z " /><path fill="rgb(154,122,238)" stroke="rgb(154,122,238)" stroke-width="1" opacity="0.13725490196078433" d="M 201.5 180 L 200 182.5 L 195.5 188 Q 192.9 188.7 194 186 L 196 186 Q 194.9 183.3 197.5 184 L 201.5 180 Z " /><path fill="rgb(154,122,238)" stroke="rgb(154,122,238)" stroke-width="1" opacity="0.13725490196078433" d="M 79.5 184 L 80 198.5 L 79 198.5 L 79.5 184 Z " /><path fill="rgb(154,122,238)" stroke="rgb(154,122,238)" stroke-width="1" opacity="0.13725490196078433" d="M 192.5 188 L 192 189.5 L 189.5 193 Q 183.8 198 172 196 Q 173.1 198.7 170.5 198 L 165.5 204 L 160 208.5 L 157.5 212 L 154 214.5 L 152 217.5 Q 146.4 224.9 136.5 228 L 137.5 226 L 145.5 222 L 172.5 195 Q 187.8 196.8 192.5 188 Z " /><path fill="rgb(154,122,238)" stroke="rgb(154,122,238)" stroke-width="1" opacity="0.13725490196078433" d="M 80.5 200 Q 84 214.5 94.5 222 L 104.5 228 L 110 229.5 L 108.5 230 L 100 228 Q 101.3 225 97.5 226 L 94 224 L 94 222 L 92 222 Q 93.1 219.3 90.5 220 L 88 219 L 81 207.5 L 80.5 200 Z " /><path fill="rgb(154,122,238)" stroke="rgb(154,122,238)" stroke-width="1" opacity="0.13725490196078433" d="M 129.5 207 L 132 207.5 Q 126.4 211.4 116.5 211 L 111 208.5 L 112.5 208 L 119.5 210 L 129.5 207 Z " /><path fill="rgb(154,122,238)" stroke="rgb(154,122,238)" stroke-width="1" opacity="0.13725490196078433" d="M 132.5 228 L 135 228.5 L 129.5 230 L 129.5 229 L 132.5 228 Z " /><path fill="rgb(154,122,238)" stroke="rgb(154,122,238)" stroke-width="1" opacity="0.13725490196078433" d="M 111.5 230 L 128 230.5 L 111.5 231 L 111.5 230 Z " /><path fill="rgb(147,125,234)" stroke="rgb(147,125,234)" stroke-width="1" opacity="0.9568627450980393" d="M 153.5 26 L 159 26.5 L 153.5 27 L 153.5 26 Z " /><path fill="rgb(147,125,234)" stroke="rgb(147,125,234)" stroke-width="1" opacity="0.9568627450980393" d="M 148.5 27 L 152 27.5 L 148.5 28 L 148.5 27 Z " /><path fill="rgb(147,125,234)" stroke="rgb(147,125,234)" stroke-width="1" opacity="0.9568627450980393" d="M 160.5 27 L 164 27.5 L 160.5 28 L 160.5 27 Z " /><path fill="rgb(147,125,234)" stroke="rgb(147,125,234)" stroke-width="1" opacity="0.9568627450980393" d="M 138.5 30 L 140 30.5 L 137.5 32 L 138.5 30 Z " /><path fill="rgb(147,125,234)" stroke="rgb(147,125,234)" stroke-width="1" opacity="0.9568627450980393" d="M 172.5 30 L 175 31.5 L 173.5 32 L 172.5 30 Z " /><path fill="rgb(147,125,234)" stroke="rgb(147,125,234)" stroke-width="1" opacity="0.9568627450980393" d="M 176.5 32 L 177.5 34 L 176.5 32 Z " /><path fill="rgb(147,125,234)" stroke="rgb(147,125,234)" stroke-width="1" opacity="0.9568627450980393" d="M 133.5 33 L 131.5 36 L 133.5 33 Z " /><path fill="rgb(147,125,234)" stroke="rgb(147,125,234)" stroke-width="1" opacity="0.9568627450980393" d="M 129.5 36 L 128.5 38 L 129.5 36 Z " /><path fill="rgb(147,125,234)" stroke="rgb(147,125,234)" stroke-width="1" opacity="0.9568627450980393" d="M 181.5 36 L 187.5 43 L 181.5 36 Z " /><path fill="rgb(147,125,234)" stroke="rgb(147,125,234)" stroke-width="1" opacity="0.9568627450980393" d="M 126.5 39 L 82.5 84 L 81.5 83 L 72.5 83 L 70.5 84 L 70.5 83 Q 74 80.5 81.5 82 L 82.5 83 L 126.5 39 Z " /><path fill="rgb(147,125,234)" stroke="rgb(147,125,234)" stroke-width="1" opacity="0.9568627450980393" d="M 150.5 44 L 154 44.5 L 148.5 46 L 148.5 45 L 150.5 44 Z " /><path fill="rgb(147,125,234)" stroke="rgb(147,125,234)" stroke-width="1" opacity="0.9568627450980393" d="M 156.5 44 L 161 44.5 L 156.5 45 L 156.5 44 Z " /><path fill="rgb(147,125,234)" stroke="rgb(147,125,234)" stroke-width="1" opacity="0.9568627450980393" d="M 188.5 44 L 192 49.5 L 191 49.5 L 188.5 44 Z " /><path fill="rgb(147,125,234)" stroke="rgb(147,125,234)" stroke-width="1" opacity="0.9568627450980393" d="M 162.5 45 L 167 47.5 L 165.5 47 Q 161.7 46.8 162.5 45 Z " /><path fill="rgb(147,125,234)" stroke="rgb(147,125,234)" stroke-width="1" opacity="0.9568627450980393" d="M 146.5 46 L 145.5 48 L 142.5 50 L 144.5 47 L 146.5 46 Z " /><path fill="rgb(147,125,234)" stroke="rgb(147,125,234)" stroke-width="1" opacity="0.9568627450980393" d="M 168.5 48 L 176 56.5 L 174 55.5 L 168.5 48 Z " /><path fill="rgb(147,125,234)" stroke="rgb(147,125,234)" stroke-width="1" opacity="0.9568627450980393" d="M 192.5 51 L 194 54.5 L 193 54.5 L 192.5 51 Z " /><path fill="rgb(147,125,234)" stroke="rgb(147,125,234)" stroke-width="1" opacity="0.9568627450980393" d="M 138.5 52 L 136.5 55 L 138.5 52 Z " /><path fill="rgb(147,125,234)" stroke="rgb(147,125,234)" stroke-width="1" opacity="0.9568627450980393" d="M 130.5 60 L 128.5 63 L 130.5 60 Z " /><path fill="rgb(147,125,234)" stroke="rgb(147,125,234)" stroke-width="1" opacity="0.9568627450980393" d="M 122.5 68 L 120.5 71 L 122.5 68 Z " /><path fill="rgb(147,125,234)" stroke="rgb(147,125,234)" stroke-width="1" opacity="0.9568627450980393" d="M 114.5 76 L 112.5 79 L 114.5 76 Z " /><path fill="rgb(147,125,234)" stroke="rgb(147,125,234)" stroke-width="1" opacity="0.9568627450980393" d="M 175.5 78 L 172.5 82 L 175.5 78 Z " /><path fill="rgb(147,125,234)" stroke="rgb(147,125,234)" stroke-width="1" opacity="0.9568627450980393" d="M 68.5 84 L 65.5 88 L 68.5 84 Z " /><path fill="rgb(147,125,234)" stroke="rgb(147,125,234)" stroke-width="1" opacity="0.9568627450980393" d="M 106.5 84 L 104.5 87 L 106.5 84 Z " /><path fill="rgb(147,125,234)" stroke="rgb(147,125,234)" stroke-width="1" opacity="0.9568627450980393" d="M 169.5 84 L 168.5 86 L 169.5 84 Z " /><path fill="rgb(147,125,234)" stroke="rgb(147,125,234)" stroke-width="1" opacity="0.9568627450980393" d="M 191.5 85 L 191 86.5 L 188.5 90 L 190 87.5 L 191.5 85 Z " /><path fill="rgb(147,125,234)" stroke="rgb(147,125,234)" stroke-width="1" opacity="0.9568627450980393" d="M 63.5 88 L 58.5 94 L 63.5 88 Z " /><path fill="rgb(147,125,234)" stroke="rgb(147,125,234)" stroke-width="1" opacity="0.9568627450980393" d="M 165.5 88 L 164.5 90 L 165.5 88 Z " /><path fill="rgb(147,125,234)" stroke="rgb(147,125,234)" stroke-width="1" opacity="0.9568627450980393" d="M 187.5 91 L 185 94.5 L 158.5 122 L 160 119.5 Q 159.3 117.3 161.5 118 L 164 114 L 168 111.5 Q 167.3 109.3 169.5 110 L 172 106 L 176 103.5 Q 175.3 101.3 177.5 102 L 180 98 L 184 95.5 L 187.5 91 Z " /><path fill="rgb(147,125,234)" stroke="rgb(147,125,234)" stroke-width="1" opacity="0.9568627450980393" d="M 98.5 92 L 97 94.5 L 98 106.5 L 96.5 109 L 96 107.5 Q 98.7 105.8 97 99.5 L 96 94.5 L 98.5 92 Z " /><path fill="rgb(147,125,234)" stroke="rgb(147,125,234)" stroke-width="1" opacity="0.9568627450980393" d="M 161.5 92 L 160.5 94 L 161.5 92 Z " /><path fill="rgb(147,125,234)" stroke="rgb(147,125,234)" stroke-width="1" opacity="0.9568627450980393" d="M 54.5 96 L 49.5 102 L 54.5 96 Z " /><path fill="rgb(147,125,234)" stroke="rgb(147,125,234)" stroke-width="1" opacity="0.9568627450980393" d="M 157.5 96 L 156.5 98 L 157.5 96 Z " /><path fill="rgb(147,125,234)" stroke="rgb(147,125,234)" stroke-width="1" opacity="0.9568627450980393" d="M 153.5 100 L 152.5 102 L 153.5 100 Z " /><path fill="rgb(147,125,234)" stroke="rgb(147,125,234)" stroke-width="1" opacity="0.9568627450980393" d="M 45.5 104 L 38.5 112 L 45.5 104 Z " /><path fill="rgb(147,125,234)" stroke="rgb(147,125,234)" stroke-width="1" opacity="0.9568627450980393" d="M 149.5 104 L 148.5 106 L 149.5 104 Z " /><path fill="rgb(147,125,234)" stroke="rgb(147,125,234)" stroke-width="1" opacity="0.9568627450980393" d="M 145.5 108 L 144.5 110 L 145.5 108 Z " /><path fill="rgb(147,125,234)" stroke="rgb(147,125,234)" stroke-width="1" opacity="0.9568627450980393" d="M 95.5 111 L 92.5 115 L 95.5 111 Z " /><path fill="rgb(147,125,234)" stroke="rgb(147,125,234)" stroke-width="1" opacity="0.9568627450980393" d="M 141.5 112 L 140.5 114 L 141.5 112 Z " /><path fill="rgb(147,125,234)" stroke="rgb(147,125,234)" stroke-width="1" opacity="0.9568627450980393" d="M 35.5 113 L 34.5 115 L 35.5 113 Z " /><path fill="rgb(147,125,234)" stroke="rgb(147,125,234)" stroke-width="1" opacity="0.9568627450980393" d="M 137.5 116 L 136.5 118 L 137.5 116 Z " /><path fill="rgb(147,125,234)" stroke="rgb(147,125,234)" stroke-width="1" opacity="0.9568627450980393" d="M 88 118 L 90 118.5 L 84 126 L 82 125.5 L 88 118 Z " /><path fill="rgb(147,125,234)" stroke="rgb(147,125,234)" stroke-width="1" opacity="0.9568627450980393" d="M 31.5 119 L 32 121.5 Q 29.7 122.8 31 127.5 L 32 131.5 L 31 131.5 L 30 122.5 L 31.5 119 Z " /><path fill="rgb(147,125,234)" stroke="rgb(147,125,234)" stroke-width="1" opacity="0.9568627450980393" d="M 133.5 120 L 132.5 122 L 133.5 120 Z " /><path fill="rgb(147,125,234)" stroke="rgb(147,125,234)" stroke-width="1" opacity="0.9568627450980393" d="M 156.5 122 L 157 123.5 L 102 177.5 L 104 174 L 106 174 Q 104.9 171.3 107.5 172 L 112 166 L 114 166 Q 112.9 163.3 115.5 164 L 120 158 L 122 158 Q 120.9 155.3 123.5 156 L 128 150 L 136 143.5 Q 135.3 141.3 137.5 142 L 144 134 L 152 127.5 Q 151.3 125.3 153.5 126 L 156.5 122 Z " /><path fill="rgb(147,125,234)" stroke="rgb(147,125,234)" stroke-width="1" opacity="0.9568627450980393" d="M 129.5 124 L 128.5 126 L 129.5 124 Z " /><path fill="rgb(147,125,234)" stroke="rgb(147,125,234)" stroke-width="1" opacity="0.9568627450980393" d="M 125.5 128 L 124.5 130 L 125.5 128 Z " /><path fill="rgb(147,125,234)" stroke="rgb(147,125,234)" stroke-width="1" opacity="0.9568627450980393" d="M 192.5 128 L 188.5 133 L 192.5 128 Z " /><path fill="rgb(147,125,234)" stroke="rgb(147,125,234)" stroke-width="1" opacity="0.9568627450980393" d="M 208.5 128 L 216 133.5 L 213.5 132 Q 208.9 130.8 208.5 128 Z " /><path fill="rgb(147,125,234)" stroke="rgb(147,125,234)" stroke-width="1" opacity="0.9568627450980393" d="M 79.5 129 L 76.5 133 L 79.5 129 Z " /><path fill="rgb(147,125,234)" stroke="rgb(147,125,234)" stroke-width="1" opacity="0.9568627450980393" d="M 121.5 132 L 120.5 134 L 121.5 132 Z " /><path fill="rgb(147,125,234)" stroke="rgb(147,125,234)" stroke-width="1" opacity="0.9568627450980393" d="M 74 134 L 76 134.5 L 73 136.5 L 74 134 Z " /><path fill="rgb(147,125,234)" stroke="rgb(147,125,234)" stroke-width="1" opacity="0.9568627450980393" d="M 33.5 135 L 36 138.5 L 34 137.5 L 33.5 135 Z " /><path fill="rgb(147,125,234)" stroke="rgb(147,125,234)" stroke-width="1" opacity="0.9568627450980393" d="M 117.5 136 L 116.5 138 L 117.5 136 Z " /><path fill="rgb(147,125,234)" stroke="rgb(147,125,234)" stroke-width="1" opacity="0.9568627450980393" d="M 71.5 138 L 68.5 142 L 71.5 138 Z " /><path fill="rgb(147,125,234)" stroke="rgb(147,125,234)" stroke-width="1" opacity="0.9568627450980393" d="M 183.5 138 L 180 142.5 L 179.5 144 L 179 142.5 L 183.5 138 Z " /><path fill="rgb(147,125,234)" stroke="rgb(147,125,234)" stroke-width="1" opacity="0.9568627450980393" d="M 220.5 139 L 221.5 141 L 220.5 139 Z " /><path fill="rgb(147,125,234)" stroke="rgb(147,125,234)" stroke-width="1" opacity="0.9568627450980393" d="M 37.5 140 L 39.5 143 L 37.5 140 Z " /><path fill="rgb(147,125,234)" stroke="rgb(147,125,234)" stroke-width="1" opacity="0.9568627450980393" d="M 113.5 140 L 112.5 142 L 113.5 140 Z " /><path fill="rgb(147,125,234)" stroke="rgb(147,125,234)" stroke-width="1" opacity="0.9568627450980393" d="M 222.5 142 L 224 144.5 L 223 144.5 L 222.5 142 Z " /><path fill="rgb(147,125,234)" stroke="rgb(147,125,234)" stroke-width="1" opacity="0.9568627450980393" d="M 41.5 144 L 45 146.5 L 43.5 146 L 41.5 144 Z " /><path fill="rgb(147,125,234)" stroke="rgb(147,125,234)" stroke-width="1" opacity="0.9568627450980393" d="M 109.5 144 L 108.5 146 L 109.5 144 Z " /><path fill="rgb(147,125,234)" stroke="rgb(147,125,234)" stroke-width="1" opacity="0.9568627450980393" d="M 175.5 147 L 172.5 151 L 175.5 147 Z " /><path fill="rgb(147,125,234)" stroke="rgb(147,125,234)" stroke-width="1" opacity="0.9568627450980393" d="M 224.5 147 L 225 149.5 L 224 149.5 L 224.5 147 Z " /><path fill="rgb(147,125,234)" stroke="rgb(147,125,234)" stroke-width="1" opacity="0.9568627450980393" d="M 49.5 148 L 57.5 149 L 59.5 148 L 59.5 149 L 53.5 150 L 49.5 149 L 49.5 148 Z " /><path fill="rgb(147,125,234)" stroke="rgb(147,125,234)" stroke-width="1" opacity="0.9568627450980393" d="M 105.5 148 L 104.5 150 L 105.5 148 Z " /><path fill="rgb(147,125,234)" stroke="rgb(147,125,234)" stroke-width="1" opacity="0.9568627450980393" d="M 101.5 152 L 100.5 154 L 101.5 152 Z " /><path fill="rgb(147,125,234)" stroke="rgb(147,125,234)" stroke-width="1" opacity="0.9568627450980393" d="M 168.5 155 L 162.5 162 L 168.5 155 Z " /><path fill="rgb(147,125,234)" stroke="rgb(147,125,234)" stroke-width="1" opacity="0.9568627450980393" d="M 97.5 156 L 96.5 158 L 97.5 156 Z " /><path fill="rgb(147,125,234)" stroke="rgb(147,125,234)" stroke-width="1" opacity="0.9568627450980393" d="M 223.5 157 L 224 158.5 L 220 161.5 L 223.5 157 Z " /><path fill="rgb(147,125,234)" stroke="rgb(147,125,234)" stroke-width="1" opacity="0.9568627450980393" d="M 93.5 160 L 92.5 162 L 93.5 160 Z " /><path fill="rgb(147,125,234)" stroke="rgb(147,125,234)" stroke-width="1" opacity="0.9568627450980393" d="M 91.5 163 L 88.5 167 L 91.5 163 Z " /><path fill="rgb(147,125,234)" stroke="rgb(147,125,234)" stroke-width="1" opacity="0.9568627450980393" d="M 217.5 164 L 214.5 168 L 217.5 164 Z " /><path fill="rgb(147,125,234)" stroke="rgb(147,125,234)" stroke-width="1" opacity="0.9568627450980393" d="M 87.5 168 L 87 169.5 L 84.5 174 L 84 172.5 L 87.5 168 Z " /><path fill="rgb(147,125,234)" stroke="rgb(147,125,234)" stroke-width="1" opacity="0.9568627450980393" d="M 157.5 172 L 158 175.5 L 157 175.5 L 157.5 172 Z " /><path fill="rgb(147,125,234)" stroke="rgb(147,125,234)" stroke-width="1" opacity="0.9568627450980393" d="M 208.5 172 L 205.5 176 L 208.5 172 Z " /><path fill="rgb(147,125,234)" stroke="rgb(147,125,234)" stroke-width="1" opacity="0.9568627450980393" d="M 158.5 177 L 160 181.5 L 157 183.5 L 159 180.5 L 158.5 177 Z " /><path fill="rgb(147,125,234)" stroke="rgb(147,125,234)" stroke-width="1" opacity="0.9568627450980393" d="M 101.5 179 L 101 180.5 L 100.5 182 L 100 180.5 L 101.5 179 Z " /><path fill="rgb(147,125,234)" stroke="rgb(147,125,234)" stroke-width="1" opacity="0.9568627450980393" d="M 200.5 179 L 194.5 186 L 200.5 179 Z " /><path fill="rgb(147,125,234)" stroke="rgb(147,125,234)" stroke-width="1" opacity="0.9568627450980393" d="M 155.5 185 L 153.5 188 L 155.5 185 Z " /><path fill="rgb(147,125,234)" stroke="rgb(147,125,234)" stroke-width="1" opacity="0.9568627450980393" d="M 98.5 187 L 99 194.5 L 98 194.5 L 98.5 187 Z " /><path fill="rgb(147,125,234)" stroke="rgb(147,125,234)" stroke-width="1" opacity="0.9568627450980393" d="M 80.5 188 L 81 193.5 L 80 193.5 L 80.5 188 Z " /><path fill="rgb(147,125,234)" stroke="rgb(147,125,234)" stroke-width="1" opacity="0.9568627450980393" d="M 190.5 188 L 187.5 192 L 190.5 188 Z " /><path fill="rgb(147,125,234)" stroke="rgb(147,125,234)" stroke-width="1" opacity="0.9568627450980393" d="M 151.5 189 L 149.5 192 L 151.5 189 Z " /><path fill="rgb(147,125,234)" stroke="rgb(147,125,234)" stroke-width="1" opacity="0.9568627450980393" d="M 184.5 192 L 186 192.5 L 182.5 194 L 182.5 193 L 184.5 192 Z " /><path fill="rgb(147,125,234)" stroke="rgb(147,125,234)" stroke-width="1" opacity="0.9568627450980393" d="M 147.5 193 L 145.5 196 L 147.5 193 Z " /><path fill="rgb(147,125,234)" stroke="rgb(147,125,234)" stroke-width="1" opacity="0.9568627450980393" d="M 172.5 193 L 175 193.5 L 172.5 194 L 144.5 221 L 144.5 220 L 172.5 193 Z " /><path fill="rgb(147,125,234)" stroke="rgb(147,125,234)" stroke-width="1" opacity="0.9568627450980393" d="M 143.5 197 L 141.5 200 L 143.5 197 Z " /><path fill="rgb(147,125,234)" stroke="rgb(147,125,234)" stroke-width="1" opacity="0.9568627450980393" d="M 100.5 200 L 104 204.5 L 101 202.5 L 100.5 200 Z " /><path fill="rgb(147,125,234)" stroke="rgb(147,125,234)" stroke-width="1" opacity="0.9568627450980393" d="M 139.5 201 L 137.5 204 L 139.5 201 Z " /><path fill="rgb(147,125,234)" stroke="rgb(147,125,234)" stroke-width="1" opacity="0.9568627450980393" d="M 82.5 202 L 84 205.5 L 83 205.5 L 82.5 202 Z " /><path fill="rgb(147,125,234)" stroke="rgb(147,125,234)" stroke-width="1" opacity="0.9568627450980393" d="M 105.5 206 L 106.5 208 L 105.5 206 Z " /><path fill="rgb(147,125,234)" stroke="rgb(147,125,234)" stroke-width="1" opacity="0.9568627450980393" d="M 84.5 208 L 85.5 210 L 84.5 208 Z " /><path fill="rgb(147,125,234)" stroke="rgb(147,125,234)" stroke-width="1" opacity="0.9568627450980393" d="M 108.5 208 L 113 210.5 L 111.5 211 L 108.5 208 Z " /><path fill="rgb(147,125,234)" stroke="rgb(147,125,234)" stroke-width="1" opacity="0.9568627450980393" d="M 130.5 208 L 132 208.5 L 129.5 210 L 130.5 208 Z " /><path fill="rgb(147,125,234)" stroke="rgb(147,125,234)" stroke-width="1" opacity="0.9568627450980393" d="M 126.5 210 L 128 210.5 Q 126.3 212.8 121.5 212 L 121.5 211 L 126.5 210 Z " /><path fill="rgb(147,125,234)" stroke="rgb(147,125,234)" stroke-width="1" opacity="0.9568627450980393" d="M 86.5 211 L 87.5 213 L 86.5 211 Z " /><path fill="rgb(147,125,234)" stroke="rgb(147,125,234)" stroke-width="1" opacity="0.9568627450980393" d="M 114.5 211 L 118 211.5 L 114.5 212 L 114.5 211 Z " /><path fill="rgb(147,125,234)" stroke="rgb(147,125,234)" stroke-width="1" opacity="0.9568627450980393" d="M 88.5 214 L 93.5 220 L 88.5 214 Z " /><path fill="rgb(147,125,234)" stroke="rgb(147,125,234)" stroke-width="1" opacity="0.9568627450980393" d="M 142.5 222 L 141.5 224 L 142.5 222 Z " /><path fill="rgb(147,125,234)" stroke="rgb(147,125,234)" stroke-width="1" opacity="0.9568627450980393" d="M 100.5 224 L 103 225.5 L 101.5 225 L 100.5 224 Z " /><path fill="rgb(147,125,234)" stroke="rgb(147,125,234)" stroke-width="1" opacity="0.9568627450980393" d="M 138.5 224 L 140 224.5 L 134.5 227 L 134.5 226 L 138.5 224 Z " /><path fill="rgb(147,125,234)" stroke="rgb(147,125,234)" stroke-width="1" opacity="0.9568627450980393" d="M 104.5 226 L 108 227.5 L 106.5 228 L 104.5 226 Z " /><path fill="rgb(147,125,234)" stroke="rgb(147,125,234)" stroke-width="1" opacity="0.9568627450980393" d="M 110.5 228 L 124 229.5 L 116.5 230 Q 115.3 227.8 110.5 229 L 110.5 228 Z " /><path fill="rgb(147,125,234)" stroke="rgb(147,125,234)" stroke-width="1" opacity="0.9568627450980393" d="M 125.5 228 L 129 228.5 L 125.5 229 L 125.5 228 Z " /><path fill="rgb(148,125,235)" stroke="rgb(148,125,235)" stroke-width="1" opacity="1" d="M 152.5 27 L 159.5 27 L 169.5 29 L 178.5 34 L 188 43.5 L 195 58.5 L 196 73.5 Q 192.1 89.1 181.5 98 Q 179.3 97.3 180 99.5 L 176 102 L 173.5 106 Q 171.3 105.3 172 107.5 L 168 110 L 165.5 114 Q 163.3 113.3 164 115.5 L 160 118 L 157.5 122 Q 155.3 121.3 156 123.5 L 152 126 L 145.5 134 Q 143.3 133.3 144 135.5 L 136 142 L 129.5 150 Q 127.3 149.3 128 151.5 L 122 156 L 122 158 Q 119.3 156.9 120 159.5 L 114 164 L 114 166 Q 111.3 164.9 112 167.5 L 106 172 L 106 174 Q 103.3 172.9 104 175.5 L 100 180.5 Q 100.8 185.8 98 187.5 L 98 194.5 L 101 202.5 L 106.5 208 Q 112.2 213.8 125.5 212 L 134 208 L 134 206 L 136 206 Q 134.9 203.3 137.5 204 L 140 200 L 144 197.5 Q 143.3 195.3 145.5 196 L 148 192 L 152 189.5 Q 151.3 187.3 153.5 188 L 156 184 L 160 181.5 Q 157.1 177.9 158 170.5 L 160 164 Q 162.7 165.1 162 162.5 L 178.5 144 Q 180.8 144.8 180 142.5 L 185.5 136 Q 187.8 136.8 187 134.5 L 193.5 128 L 202.5 127 L 207.5 128 L 219 136.5 L 224 145.5 L 225 152.5 Q 223.5 160.1 218.5 164 L 212 168 L 212 170 L 210 170 Q 211.1 172.7 208.5 172 L 193.5 186 L 192 186 Q 193.1 188.7 190.5 188 Q 186.6 194.6 175.5 194 L 172.5 193 L 145.5 220 L 144 220 Q 145.1 222.7 142.5 222 L 131.5 228 L 116.5 229 Q 114.7 226.3 108.5 228 L 96 221.5 Q 96.8 219.3 94.5 220 L 84 207.5 L 81 197.5 L 81 184.5 Q 84.3 168.8 94.5 160 Q 96.8 160.8 96 158.5 L 100 156 L 102.5 152 Q 104.8 152.8 104 150.5 L 108 148 L 110.5 144 Q 112.8 144.8 112 142.5 L 116 140 L 118.5 136 Q 120.8 136.8 120 134.5 L 124 132 L 126.5 128 Q 128.8 128.8 128 126.5 L 132 124 L 134.5 120 Q 136.8 120.8 136 118.5 L 140 116 L 142.5 112 Q 144.8 112.8 144 110.5 L 148 108 L 150.5 104 Q 152.8 104.8 152 102.5 L 156 100 L 158.5 96 Q 160.8 96.8 160 94.5 L 164 92 L 166.5 88 Q 168.8 88.8 168 86.5 L 172 84 L 177 75.5 L 178 62.5 L 175 54.5 L 168.5 48 Q 163.2 42.3 150.5 44 L 140 50 Q 141.1 52.7 138.5 52 L 136 56 L 134 56 L 134 58 L 132 58 Q 133.1 60.7 130.5 60 L 128 64 L 126 64 L 126 66 L 124 66 Q 125.1 68.7 122.5 68 L 120 72 L 118 72 L 118 74 L 116 74 Q 117.1 76.7 114.5 76 L 112 80 L 110 80 L 110 82 L 108 82 Q 109.1 84.7 106.5 84 L 104 88 L 102 88 L 102 90 L 100 90 Q 101.1 92.7 98.5 92 Q 95 93 96 98.5 Q 98.7 100.2 97 106.5 L 96 110.5 L 92 116 L 90 116 L 90 118 Q 87.3 116.9 88 119.5 L 76 134 Q 73.3 132.9 74 135.5 L 65.5 145 L 62.5 147 Q 59.6 149.6 53.5 149 Q 52.3 146.8 47.5 148 L 40 144 L 37.5 140 Q 35.3 140.8 36 138.5 L 32 132.5 L 31 122.5 L 36 112 L 38.5 112 L 48 104 Q 46.9 101.3 49.5 102 L 69.5 84 L 81.5 83 L 82.5 84 L 130.5 36 L 142.5 29 L 152.5 27 Z " /><path fill="rgb(148,124,235)" stroke="rgb(148,124,235)" stroke-width="1" opacity="0.6823529411764706" d="M 148.5 26 L 153 26.5 L 144.5 28 L 144.5 27 L 148.5 26 Z " /><path fill="rgb(148,124,235)" stroke="rgb(148,124,235)" stroke-width="1" opacity="0.6823529411764706" d="M 159.5 26 L 168 27.5 L 164.5 28 L 159.5 27 L 159.5 26 Z " /><path fill="rgb(148,124,235)" stroke="rgb(148,124,235)" stroke-width="1" opacity="0.6823529411764706" d="M 140.5 28 L 143 28.5 L 139.5 30 L 140.5 28 Z " /><path fill="rgb(148,124,235)" stroke="rgb(148,124,235)" stroke-width="1" opacity="0.6823529411764706" d="M 169.5 28 L 176 31.5 L 174.5 31 L 169.5 29 L 169.5 28 Z " /><path fill="rgb(148,124,235)" stroke="rgb(148,124,235)" stroke-width="1" opacity="0.6823529411764706" d="M 136.5 30 L 138 30.5 L 130.5 36 L 133.5 32 L 136.5 30 Z " /><path fill="rgb(148,124,235)" stroke="rgb(148,124,235)" stroke-width="1" opacity="0.6823529411764706" d="M 177.5 32 L 184 36 L 188 41.5 L 181.5 36 L 178.5 34 L 177.5 32 Z " /><path fill="rgb(148,124,235)" stroke="rgb(148,124,235)" stroke-width="1" opacity="0.6823529411764706" d="M 188.5 43 L 189.5 45 L 188.5 43 Z " /><path fill="rgb(148,124,235)" stroke="rgb(148,124,235)" stroke-width="1" opacity="0.6823529411764706" d="M 120.5 44 L 118.5 47 L 120.5 44 Z " /><path fill="rgb(148,124,235)" stroke="rgb(148,124,235)" stroke-width="1" opacity="0.6823529411764706" d="M 150.5 45 L 153 45.5 L 150.5 46 L 150.5 45 Z " /><path fill="rgb(148,124,235)" stroke="rgb(148,124,235)" stroke-width="1" opacity="0.6823529411764706" d="M 158.5 45 L 162 45.5 L 158.5 46 L 158.5 45 Z " /><path fill="rgb(148,124,235)" stroke="rgb(148,124,235)" stroke-width="1" opacity="0.6823529411764706" d="M 147.5 46 L 149 46.5 L 146.5 48 L 147.5 46 Z " /><path fill="rgb(148,124,235)" stroke="rgb(148,124,235)" stroke-width="1" opacity="0.6823529411764706" d="M 163.5 46 L 166 47.5 L 164.5 48 L 163.5 46 Z " /><path fill="rgb(148,124,235)" stroke="rgb(148,124,235)" stroke-width="1" opacity="0.6823529411764706" d="M 190.5 46 L 191.5 48 L 190.5 46 Z " /><path fill="rgb(148,124,235)" stroke="rgb(148,124,235)" stroke-width="1" opacity="0.6823529411764706" d="M 144.5 48 L 143.5 50 L 144.5 48 Z " /><path fill="rgb(148,124,235)" stroke="rgb(148,124,235)" stroke-width="1" opacity="0.6823529411764706" d="M 167.5 48 L 170.5 52 L 167.5 48 Z " /><path fill="rgb(148,124,235)" stroke="rgb(148,124,235)" stroke-width="1" opacity="0.6823529411764706" d="M 192.5 49 L 194 52.5 L 193 52.5 L 192.5 49 Z " /><path fill="rgb(148,124,235)" stroke="rgb(148,124,235)" stroke-width="1" opacity="0.6823529411764706" d="M 141.5 50 L 142 52 L 140.5 52 L 98 94.5 L 97.5 99 L 97 94.5 L 141.5 50 Z " /><path fill="rgb(148,124,235)" stroke="rgb(148,124,235)" stroke-width="1" opacity="0.6823529411764706" d="M 112.5 52 L 110.5 55 L 112.5 52 Z " /><path fill="rgb(148,124,235)" stroke="rgb(148,124,235)" stroke-width="1" opacity="0.6823529411764706" d="M 172.5 53 L 176 58.5 L 175 58.5 L 172.5 53 Z " /><path fill="rgb(148,124,235)" stroke="rgb(148,124,235)" stroke-width="1" opacity="0.6823529411764706" d="M 195.5 57 L 196 59.5 L 195 59.5 L 195.5 57 Z " /><path fill="rgb(148,124,235)" stroke="rgb(148,124,235)" stroke-width="1" opacity="0.6823529411764706" d="M 104.5 60 L 102.5 63 L 104.5 60 Z " /><path fill="rgb(148,124,235)" stroke="rgb(148,124,235)" stroke-width="1" opacity="0.6823529411764706" d="M 176.5 61 Q 179.1 64.5 178 71.5 L 176.5 75 L 176 72.5 Q 178.8 70.8 177 64.5 L 176.5 61 Z " /><path fill="rgb(148,124,235)" stroke="rgb(148,124,235)" stroke-width="1" opacity="0.6823529411764706" d="M 196.5 65 L 197 68.5 L 196 68.5 L 196.5 65 Z " /><path fill="rgb(148,124,235)" stroke="rgb(148,124,235)" stroke-width="1" opacity="0.6823529411764706" d="M 96.5 68 L 94.5 71 L 96.5 68 Z " /><path fill="rgb(148,124,235)" stroke="rgb(148,124,235)" stroke-width="1" opacity="0.6823529411764706" d="M 195.5 75 L 196 77.5 L 194.5 80 L 194 78.5 L 195.5 75 Z " /><path fill="rgb(148,124,235)" stroke="rgb(148,124,235)" stroke-width="1" opacity="0.6823529411764706" d="M 88.5 76 L 86.5 79 L 88.5 76 Z " /><path fill="rgb(148,124,235)" stroke="rgb(148,124,235)" stroke-width="1" opacity="0.6823529411764706" d="M 175.5 76 L 176 77.5 L 172 80.5 L 175.5 76 Z " /><path fill="rgb(148,124,235)" stroke="rgb(148,124,235)" stroke-width="1" opacity="0.6823529411764706" d="M 74.5 81 L 80 81.5 L 74.5 82 L 74.5 81 Z " /><path fill="rgb(148,124,235)" stroke="rgb(148,124,235)" stroke-width="1" opacity="0.6823529411764706" d="M 193.5 81 L 194 83.5 L 192 84.5 L 193.5 81 Z " /><path fill="rgb(148,124,235)" stroke="rgb(148,124,235)" stroke-width="1" opacity="0.6823529411764706" d="M 70.5 82 L 72 82.5 L 64.5 88 L 64 86 L 70.5 82 Z " /><path fill="rgb(148,124,235)" stroke="rgb(148,124,235)" stroke-width="1" opacity="0.6823529411764706" d="M 171.5 82 L 170.5 84 L 171.5 82 Z " /><path fill="rgb(148,124,235)" stroke="rgb(148,124,235)" stroke-width="1" opacity="0.6823529411764706" d="M 167.5 86 L 166.5 88 L 167.5 86 Z " /><path fill="rgb(148,124,235)" stroke="rgb(148,124,235)" stroke-width="1" opacity="0.6823529411764706" d="M 191.5 86 L 192 87.5 L 185.5 96 L 185 94.5 L 191.5 86 Z " /><path fill="rgb(148,124,235)" stroke="rgb(148,124,235)" stroke-width="1" opacity="0.6823529411764706" d="M 62.5 88 L 57.5 94 L 56 93.5 L 62.5 88 Z " /><path fill="rgb(148,124,235)" stroke="rgb(148,124,235)" stroke-width="1" opacity="0.6823529411764706" d="M 163.5 90 L 162.5 92 L 163.5 90 Z " /><path fill="rgb(148,124,235)" stroke="rgb(148,124,235)" stroke-width="1" opacity="0.6823529411764706" d="M 159.5 94 L 158.5 96 L 159.5 94 Z " /><path fill="rgb(148,124,235)" stroke="rgb(148,124,235)" stroke-width="1" opacity="0.6823529411764706" d="M 53.5 96 L 46.5 104 L 48 101.5 Q 47.3 99.3 49.5 100 L 53.5 96 Z " /><path fill="rgb(148,124,235)" stroke="rgb(148,124,235)" stroke-width="1" opacity="0.6823529411764706" d="M 154 98 L 156 98.5 L 154 99.5 L 154 98 Z " /><path fill="rgb(148,124,235)" stroke="rgb(148,124,235)" stroke-width="1" opacity="0.6823529411764706" d="M 98.5 101 L 99 104.5 L 98 104.5 L 98.5 101 Z " /><path fill="rgb(148,124,235)" stroke="rgb(148,124,235)" stroke-width="1" opacity="0.6823529411764706" d="M 150 102 L 152 102.5 L 150 103.5 L 150 102 Z " /><path fill="rgb(148,124,235)" stroke="rgb(148,124,235)" stroke-width="1" opacity="0.6823529411764706" d="M 42.5 106 L 37.5 112 L 34 114.5 Q 34.8 116.8 32.5 116 L 36.5 111 L 42.5 106 Z " /><path fill="rgb(148,124,235)" stroke="rgb(148,124,235)" stroke-width="1" opacity="0.6823529411764706" d="M 146 106 L 148 106.5 L 146 107.5 L 146 106 Z " /><path fill="rgb(148,124,235)" stroke="rgb(148,124,235)" stroke-width="1" opacity="0.6823529411764706" d="M 97.5 107 L 98 108.5 L 96.5 111 L 96 109.5 L 97.5 107 Z " /><path fill="rgb(148,124,235)" stroke="rgb(148,124,235)" stroke-width="1" opacity="0.6823529411764706" d="M 142 110 L 144 110.5 L 142 111.5 L 142 110 Z " /><path fill="rgb(148,124,235)" stroke="rgb(148,124,235)" stroke-width="1" opacity="0.6823529411764706" d="M 95.5 112 L 92 116.5 Q 92.8 118.8 90.5 118 L 95.5 112 Z " /><path fill="rgb(148,124,235)" stroke="rgb(148,124,235)" stroke-width="1" opacity="0.6823529411764706" d="M 138 114 L 140 114.5 L 138 115.5 L 138 114 Z " /><path fill="rgb(148,124,235)" stroke="rgb(148,124,235)" stroke-width="1" opacity="0.6823529411764706" d="M 31.5 117 L 32 118.5 L 30.5 122 L 30 119.5 L 31.5 117 Z " /><path fill="rgb(148,124,235)" stroke="rgb(148,124,235)" stroke-width="1" opacity="0.6823529411764706" d="M 134 118 L 136 118.5 L 134 119.5 L 134 118 Z " /><path fill="rgb(148,124,235)" stroke="rgb(148,124,235)" stroke-width="1" opacity="0.6823529411764706" d="M 89.5 119 L 84.5 125 L 89.5 119 Z " /><path fill="rgb(148,124,235)" stroke="rgb(148,124,235)" stroke-width="1" opacity="0.6823529411764706" d="M 130 122 L 132 122.5 L 130 123.5 L 130 122 Z " /><path fill="rgb(148,124,235)" stroke="rgb(148,124,235)" stroke-width="1" opacity="0.6823529411764706" d="M 126 126 L 128 126.5 L 126 127.5 L 126 126 Z " /><path fill="rgb(148,124,235)" stroke="rgb(148,124,235)" stroke-width="1" opacity="0.6823529411764706" d="M 196.5 126 Q 204.2 124.8 208 127.5 L 205.5 128 L 204.5 127 L 196.5 127 L 194.5 128 L 194.5 127 L 196.5 126 Z " /><path fill="rgb(148,124,235)" stroke="rgb(148,124,235)" stroke-width="1" opacity="0.6823529411764706" d="M 30.5 128 L 34 136.5 L 32 135.5 Q 29 132.8 30.5 128 Z " /><path fill="rgb(148,124,235)" stroke="rgb(148,124,235)" stroke-width="1" opacity="0.6823529411764706" d="M 80 128 L 82 128.5 L 76 133.5 L 80 128 Z " /><path fill="rgb(148,124,235)" stroke="rgb(148,124,235)" stroke-width="1" opacity="0.6823529411764706" d="M 209.5 128 L 217 133.5 L 213.5 131 Q 208.8 130.2 209.5 128 Z " /><path fill="rgb(148,124,235)" stroke="rgb(148,124,235)" stroke-width="1" opacity="0.6823529411764706" d="M 190.5 129 L 188 132.5 Q 188.8 134.8 186.5 134 L 190.5 129 Z " /><path fill="rgb(148,124,235)" stroke="rgb(148,124,235)" stroke-width="1" opacity="0.6823529411764706" d="M 122 130 L 124 130.5 L 122 131.5 L 122 130 Z " /><path fill="rgb(148,124,235)" stroke="rgb(148,124,235)" stroke-width="1" opacity="0.6823529411764706" d="M 118 134 L 120 134.5 L 118 135.5 L 118 134 Z " /><path fill="rgb(148,124,235)" stroke="rgb(148,124,235)" stroke-width="1" opacity="0.6823529411764706" d="M 218.5 135 L 224 142.5 L 222 141.5 L 218.5 135 Z " /><path fill="rgb(148,124,235)" stroke="rgb(148,124,235)" stroke-width="1" opacity="0.6823529411764706" d="M 183.5 137 L 179 142.5 L 178.5 144 L 178 142.5 L 183.5 137 Z " /><path fill="rgb(148,124,235)" stroke="rgb(148,124,235)" stroke-width="1" opacity="0.6823529411764706" d="M 34.5 138 L 41.5 146 L 34.5 138 Z " /><path fill="rgb(148,124,235)" stroke="rgb(148,124,235)" stroke-width="1" opacity="0.6823529411764706" d="M 114 138 L 116 138.5 L 114 139.5 L 114 138 Z " /><path fill="rgb(148,124,235)" stroke="rgb(148,124,235)" stroke-width="1" opacity="0.6823529411764706" d="M 71.5 139 L 68.5 143 L 71.5 139 Z " /><path fill="rgb(148,124,235)" stroke="rgb(148,124,235)" stroke-width="1" opacity="0.6823529411764706" d="M 110 142 L 112 142.5 L 110 143.5 L 110 142 Z " /><path fill="rgb(148,124,235)" stroke="rgb(148,124,235)" stroke-width="1" opacity="0.6823529411764706" d="M 176.5 144 L 177 145.5 L 172 149.5 L 176.5 144 Z " /><path fill="rgb(148,124,235)" stroke="rgb(148,124,235)" stroke-width="1" opacity="0.6823529411764706" d="M 224.5 144 Q 227.1 147.5 226 154.5 L 224.5 158 L 224 155.5 Q 226.8 153.8 225 147.5 L 224.5 144 Z " /><path fill="rgb(148,124,235)" stroke="rgb(148,124,235)" stroke-width="1" opacity="0.6823529411764706" d="M 43.5 146 L 46 147.5 L 44.5 148 L 43.5 146 Z " /><path fill="rgb(148,124,235)" stroke="rgb(148,124,235)" stroke-width="1" opacity="0.6823529411764706" d="M 64.5 146 L 63.5 148 L 64.5 146 Z " /><path fill="rgb(148,124,235)" stroke="rgb(148,124,235)" stroke-width="1" opacity="0.6823529411764706" d="M 106 146 L 108 146.5 L 106 147.5 L 106 146 Z " /><path fill="rgb(148,124,235)" stroke="rgb(148,124,235)" stroke-width="1" opacity="0.6823529411764706" d="M 47.5 148 L 53 149.5 L 49.5 150 L 47.5 148 Z " /><path fill="rgb(148,124,235)" stroke="rgb(148,124,235)" stroke-width="1" opacity="0.6823529411764706" d="M 60.5 148 L 62 148.5 L 58.5 150 L 58.5 149 L 60.5 148 Z " /><path fill="rgb(148,124,235)" stroke="rgb(148,124,235)" stroke-width="1" opacity="0.6823529411764706" d="M 102 150 L 104 150.5 L 102 151.5 L 102 150 Z " /><path fill="rgb(148,124,235)" stroke="rgb(148,124,235)" stroke-width="1" opacity="0.6823529411764706" d="M 169.5 152 L 170 153.5 L 164 158.5 L 169.5 152 Z " /><path fill="rgb(148,124,235)" stroke="rgb(148,124,235)" stroke-width="1" opacity="0.6823529411764706" d="M 98 154 L 100 154.5 L 98 155.5 L 98 154 Z " /><path fill="rgb(148,124,235)" stroke="rgb(148,124,235)" stroke-width="1" opacity="0.6823529411764706" d="M 94 158 L 96 158.5 L 94 159.5 L 94 158 Z " /><path fill="rgb(148,124,235)" stroke="rgb(148,124,235)" stroke-width="1" opacity="0.6823529411764706" d="M 223.5 159 L 220.5 163 L 223.5 159 Z " /><path fill="rgb(148,124,235)" stroke="rgb(148,124,235)" stroke-width="1" opacity="0.6823529411764706" d="M 91.5 162 L 88.5 166 L 91.5 162 Z " /><path fill="rgb(148,124,235)" stroke="rgb(148,124,235)" stroke-width="1" opacity="0.6823529411764706" d="M 160 162 L 162 162.5 L 158 168.5 L 156.5 174 L 156 172.5 L 160 162 Z " /><path fill="rgb(148,124,235)" stroke="rgb(148,124,235)" stroke-width="1" opacity="0.6823529411764706" d="M 218.5 164 L 213.5 170 L 212 169.5 L 218.5 164 Z " /><path fill="rgb(148,124,235)" stroke="rgb(148,124,235)" stroke-width="1" opacity="0.6823529411764706" d="M 87.5 167 L 86.5 169 L 87.5 167 Z " /><path fill="rgb(148,124,235)" stroke="rgb(148,124,235)" stroke-width="1" opacity="0.6823529411764706" d="M 85.5 170 L 84.5 172 L 85.5 170 Z " /><path fill="rgb(148,124,235)" stroke="rgb(148,124,235)" stroke-width="1" opacity="0.6823529411764706" d="M 210.5 171 L 212 171.5 L 204.5 177 L 204.5 176 L 210.5 171 Z " /><path fill="rgb(148,124,235)" stroke="rgb(148,124,235)" stroke-width="1" opacity="0.6823529411764706" d="M 83.5 174 L 84 175.5 L 82.5 178 L 82 176.5 L 83.5 174 Z " /><path fill="rgb(148,124,235)" stroke="rgb(148,124,235)" stroke-width="1" opacity="0.6823529411764706" d="M 157.5 176 L 158 178.5 L 157 178.5 L 157.5 176 Z " /><path fill="rgb(148,124,235)" stroke="rgb(148,124,235)" stroke-width="1" opacity="0.6823529411764706" d="M 103.5 177 L 103 178.5 L 100.5 184 L 100 182.5 L 103.5 177 Z " /><path fill="rgb(148,124,235)" stroke="rgb(148,124,235)" stroke-width="1" opacity="0.6823529411764706" d="M 202.5 178 L 204 178.5 L 197.5 184 L 202.5 178 Z " /><path fill="rgb(148,124,235)" stroke="rgb(148,124,235)" stroke-width="1" opacity="0.6823529411764706" d="M 81.5 179 L 82 181.5 L 80.5 188 L 80 182.5 L 81.5 179 Z " /><path fill="rgb(148,124,235)" stroke="rgb(148,124,235)" stroke-width="1" opacity="0.6823529411764706" d="M 158.5 180 L 159 181.5 L 132 207.5 Q 131.3 205.3 133.5 206 L 158.5 180 Z " /><path fill="rgb(148,124,235)" stroke="rgb(148,124,235)" stroke-width="1" opacity="0.6823529411764706" d="M 99.5 186 L 100 189.5 L 99 189.5 L 99.5 186 Z " /><path fill="rgb(148,124,235)" stroke="rgb(148,124,235)" stroke-width="1" opacity="0.6823529411764706" d="M 193.5 186 L 194 188 L 188.5 192 L 193.5 186 Z " /><path fill="rgb(148,124,235)" stroke="rgb(148,124,235)" stroke-width="1" opacity="0.6823529411764706" d="M 99.5 191 L 100 195.5 L 99 195.5 L 99.5 191 Z " /><path fill="rgb(148,124,235)" stroke="rgb(148,124,235)" stroke-width="1" opacity="0.6823529411764706" d="M 186.5 192 L 185.5 194 L 184 193.5 L 186.5 192 Z " /><path fill="rgb(148,124,235)" stroke="rgb(148,124,235)" stroke-width="1" opacity="0.6823529411764706" d="M 80.5 194 L 82 202.5 L 81 202.5 L 80.5 194 Z " /><path fill="rgb(148,124,235)" stroke="rgb(148,124,235)" stroke-width="1" opacity="0.6823529411764706" d="M 172.5 194 L 183 194.5 L 172.5 195 L 142.5 224 L 144.5 221 L 172.5 194 Z " /><path fill="rgb(148,124,235)" stroke="rgb(148,124,235)" stroke-width="1" opacity="0.6823529411764706" d="M 100.5 198 L 102 200.5 L 100 199.5 L 100.5 198 Z " /><path fill="rgb(148,124,235)" stroke="rgb(148,124,235)" stroke-width="1" opacity="0.6823529411764706" d="M 102.5 202 L 107.5 208 L 104 206 L 102.5 202 Z " /><path fill="rgb(148,124,235)" stroke="rgb(148,124,235)" stroke-width="1" opacity="0.6823529411764706" d="M 82.5 204 L 84 207.5 L 83 207.5 L 82.5 204 Z " /><path fill="rgb(148,124,235)" stroke="rgb(148,124,235)" stroke-width="1" opacity="0.6823529411764706" d="M 109.5 208 L 112 209.5 L 110.5 209 L 109.5 208 Z " /><path fill="rgb(148,124,235)" stroke="rgb(148,124,235)" stroke-width="1" opacity="0.6823529411764706" d="M 129.5 208 L 128.5 210 L 127 209.5 L 129.5 208 Z " /><path fill="rgb(148,124,235)" stroke="rgb(148,124,235)" stroke-width="1" opacity="0.6823529411764706" d="M 84.5 209 L 88 213.5 L 85 211.5 L 84.5 209 Z " /><path fill="rgb(148,124,235)" stroke="rgb(148,124,235)" stroke-width="1" opacity="0.6823529411764706" d="M 113.5 210 L 116 210.5 L 113.5 211 L 113.5 210 Z " /><path fill="rgb(148,124,235)" stroke="rgb(148,124,235)" stroke-width="1" opacity="0.6823529411764706" d="M 122.5 210 L 126 210.5 L 122.5 211 L 122.5 210 Z " /><path fill="rgb(148,124,235)" stroke="rgb(148,124,235)" stroke-width="1" opacity="0.6823529411764706" d="M 118.5 211 L 121 211.5 L 118.5 212 L 118.5 211 Z " /><path fill="rgb(148,124,235)" stroke="rgb(148,124,235)" stroke-width="1" opacity="0.6823529411764706" d="M 88.5 215 L 98 223.5 L 95.5 222 L 88.5 215 Z " /><path fill="rgb(148,124,235)" stroke="rgb(148,124,235)" stroke-width="1" opacity="0.6823529411764706" d="M 99.5 224 L 106 227.5 L 104.5 228 Q 99.9 226.8 99.5 224 Z " /><path fill="rgb(148,124,235)" stroke="rgb(148,124,235)" stroke-width="1" opacity="0.6823529411764706" d="M 136.5 226 L 135.5 228 L 133 227.5 L 136.5 226 Z " /><path fill="rgb(148,124,235)" stroke="rgb(148,124,235)" stroke-width="1" opacity="0.6823529411764706" d="M 108.5 228 L 116 229.5 L 110.5 230 L 108.5 228 Z " /><path fill="rgb(148,124,235)" stroke="rgb(148,124,235)" stroke-width="1" opacity="0.6823529411764706" d="M 129.5 228 L 132 228.5 L 124.5 230 L 124.5 229 L 129.5 228 Z " /></svg>