<svg width="256" height="256" version="1.1" xmlns="http://www.w3.org/2000/svg" desc="Created with imagetracer.js version 1.2.6" ><path fill="rgb(6,0,0)" stroke="rgb(6,0,0)" stroke-width="1" opacity="0.00392156862745098" d="M 0 0 L 256 0 L 256 256 L 0 256 L 0 0 Z M 44 16 L 30 21 Q 19 28 16 44 L 16 213 Q 18 223 24 230 L 36 237 L 53 240 L 202 240 L 203 239 L 212 239 L 220 237 L 231 230 L 237 220 L 240 203 L 240 54 L 239 53 L 238 39 L 231 25 L 220 18 L 212 16 L 44 16 Z " /><path fill="rgb(216,30,6)" stroke="rgb(216,30,6)" stroke-width="1" opacity="0.996078431372549" d="M 43.5 16 L 52 16.5 L 43.5 17 L 43.5 16 Z " /><path fill="rgb(216,30,6)" stroke="rgb(216,30,6)" stroke-width="1" opacity="0.996078431372549" d="M 202.5 16 Q 211.1 14.9 216 17.5 L 212.5 18 L 211.5 17 L 202.5 17 L 202.5 16 Z " /><path fill="rgb(216,30,6)" stroke="rgb(216,30,6)" stroke-width="1" opacity="0.996078431372549" d="M 38.5 17 L 42 17.5 Q 29 19.5 23 28.5 L 19.5 35 L 19 33.5 L 29.5 21 L 38.5 17 Z " /><path fill="rgb(216,30,6)" stroke="rgb(216,30,6)" stroke-width="1" opacity="0.996078431372549" d="M 217.5 18 L 225.5 21 L 231 25 L 237 35.5 L 238 41.5 L 237 41.5 Q 235.4 29.6 227.5 24 L 217.5 19 L 217.5 18 Z " /><path fill="rgb(216,30,6)" stroke="rgb(216,30,6)" stroke-width="1" opacity="0.996078431372549" d="M 17.5 39 L 18 41.5 L 17 41.5 L 17.5 39 Z " /><path fill="rgb(216,30,6)" stroke="rgb(216,30,6)" stroke-width="1" opacity="0.996078431372549" d="M 16.5 43 L 17 51.5 L 16 51.5 L 16.5 43 Z " /><path fill="rgb(216,30,6)" stroke="rgb(216,30,6)" stroke-width="1" opacity="0.996078431372549" d="M 238.5 43 L 239 50.5 L 238 50.5 L 238.5 43 Z " /><path fill="rgb(216,30,6)" stroke="rgb(216,30,6)" stroke-width="1" opacity="0.996078431372549" d="M 239.5 53 L 240 202.5 L 239 202.5 L 239.5 53 Z " /><path fill="rgb(216,30,6)" stroke="rgb(216,30,6)" stroke-width="1" opacity="0.996078431372549" d="M 16.5 203 Q 16.4 224.6 29.5 233 L 37 236.5 L 35.5 237 L 24 229.5 Q 14.7 220.6 16.5 203 Z " /><path fill="rgb(216,30,6)" stroke="rgb(216,30,6)" stroke-width="1" opacity="0.996078431372549" d="M 238.5 205 L 239 212.5 L 238 212.5 L 238.5 205 Z " /><path fill="rgb(216,30,6)" stroke="rgb(216,30,6)" stroke-width="1" opacity="0.996078431372549" d="M 237.5 214 L 238 216.5 L 237 216.5 L 237.5 214 Z " /><path fill="rgb(216,30,6)" stroke="rgb(216,30,6)" stroke-width="1" opacity="0.996078431372549" d="M 236.5 218 L 237 219.5 L 231 230 L 219.5 237 L 213.5 238 L 213.5 237 Q 227.1 235.1 233 225.5 L 236.5 218 Z " /><path fill="rgb(216,30,6)" stroke="rgb(216,30,6)" stroke-width="1" opacity="0.996078431372549" d="M 38.5 237 L 51 238.5 L 42.5 239 L 38.5 238 L 38.5 237 Z " /><path fill="rgb(216,30,6)" stroke="rgb(216,30,6)" stroke-width="1" opacity="0.996078431372549" d="M 204.5 238 L 212 238.5 L 204.5 239 L 204.5 238 Z " /><path fill="rgb(216,30,6)" stroke="rgb(216,30,6)" stroke-width="1" opacity="0.996078431372549" d="M 52.5 239 L 202 239.5 L 52.5 240 L 52.5 239 Z " /><path fill="rgb(216,30,6)" stroke="rgb(216,30,6)" stroke-width="1" opacity="1" d="M 52.5 16 L 201.5 16 L 202.5 17 L 211.5 17 L 221.5 20 L 232 28.5 L 237 38.5 L 238 50.5 L 239 51.5 L 239 204.5 L 238 205.5 L 237 217.5 Q 233.5 227.5 225.5 233 L 216.5 237 L 204.5 238 L 203.5 239 L 51.5 239 L 50.5 238 L 37.5 237 Q 28.2 233.8 23 226.5 L 18 216.5 L 17 203.5 L 16 202.5 L 16 52.5 L 19 35.5 Q 22.6 27.1 29.5 22 L 38.5 18 L 51.5 17 L 52.5 16 Z " /></svg>