<svg width="261" height="256" version="1.1" xmlns="http://www.w3.org/2000/svg" desc="Created with imagetracer.js version 1.2.6" ><path fill="rgb(0,0,0)" stroke="rgb(0,0,0)" stroke-width="1" opacity="0" d="M 0 0 L 261 0 L 261 256 L 0 256 L 0 0 Z M 180 22 L 179 23 Q 176 22 177 25 Q 167 36 152 43 L 142 46 L 129 47 L 110 56 Q 101 63 98 76 Q 96 94 103 103 L 113 111 L 123 114 L 123 115 L 112 114 L 105 108 L 95 104 L 82 104 L 69 110 L 54 130 L 44 157 L 39 164 L 27 174 L 23 179 Q 22 185 24 189 L 29 192 L 37 192 L 44 188 Q 55 179 62 166 L 70 145 L 70 142 L 79 128 L 85 123 L 90 123 L 103 132 L 120 135 L 125 141 L 127 156 L 135 168 L 133 175 L 120 186 L 113 188 L 86 202 Q 74 209 65 220 Q 64 227 66 231 L 72 234 L 82 232 L 102 216 L 140 197 L 140 219 L 145 229 Q 150 235 160 237 L 215 237 L 227 231 Q 232 226 234 218 L 234 149 Q 240 149 243 144 L 242 137 L 237 132 L 213 132 L 215 124 L 215 113 L 218 103 L 222 96 L 238 79 Q 239 72 237 69 L 233 65 Q 221 65 217 71 L 211 77 L 199 96 L 196 107 L 196 114 L 177 114 L 172 116 L 166 123 L 165 115 L 161 106 L 148 96 Q 139 93 127 95 L 123 93 L 119 90 L 117 83 L 119 76 L 129 68 L 151 64 L 162 60 L 164 58 L 167 58 L 183 47 L 192 37 L 193 33 L 192 27 Q 190 20 180 22 Z " /><path fill="rgb(0,0,0)" stroke="rgb(0,0,0)" stroke-width="1" opacity="0" d="M 124.5 115 L 139.5 115 L 144 117 L 147 124.5 L 146 125.5 L 146 132 L 142 130.5 Q 139.8 123.8 134.5 120 L 129.5 117 L 124.5 116 L 124.5 115 Z " /><path fill="rgb(0,0,0)" stroke="rgb(0,0,0)" stroke-width="1" opacity="0" d="M 181.5 130 L 192 130.5 L 190.5 132 L 179.5 132 L 179.5 131 L 181.5 130 Z " /><path fill="rgb(243,180,180)" stroke="rgb(243,180,180)" stroke-width="1" opacity="0.9882352941176471" d="M 203.5 117 L 207.5 122 L 203.5 117 Z " /><path fill="rgb(243,180,180)" stroke="rgb(243,180,180)" stroke-width="1" opacity="0.9882352941176471" d="M 204.5 126 L 211.5 137 L 235 137.5 L 211.5 138 Q 205.7 133.5 204.5 126 Z " /><path fill="rgb(243,180,180)" stroke="rgb(243,180,180)" stroke-width="1" opacity="0.9882352941176471" d="M 161.5 131 L 160.5 133 L 146 132.5 L 160.5 132 L 161.5 131 Z " /><path fill="rgb(243,180,180)" stroke="rgb(243,180,180)" stroke-width="1" opacity="0.9882352941176471" d="M 172.5 133 L 174.5 137 L 200 137.5 L 174.5 138 Q 170.8 136.8 172.5 133 Z " /><path fill="rgb(243,180,180)" stroke="rgb(243,180,180)" stroke-width="1" opacity="0.9882352941176471" d="M 138.5 137 L 163 137.5 L 138.5 138 L 136.5 140 L 138.5 137 Z " /><path fill="rgb(243,180,180)" stroke="rgb(243,180,180)" stroke-width="1" opacity="0.9882352941176471" d="M 236.5 138 L 238 141.5 L 235.5 144 Q 230.3 142.8 229 145.5 L 228.5 217 L 228 145.5 L 230.5 143 Q 235.8 144.3 237 141.5 L 236.5 138 Z " /><path fill="rgb(243,180,180)" stroke="rgb(243,180,180)" stroke-width="1" opacity="0.9882352941176471" d="M 138.5 143 Q 144.8 141.8 146 145.5 L 145.5 218 L 145 145.5 L 143.5 144 Q 137.5 145.3 138.5 143 Z " /><path fill="rgb(243,180,180)" stroke="rgb(243,180,180)" stroke-width="1" opacity="0.9882352941176471" d="M 138.5 148 L 141 148.5 L 141 195.5 L 140 195.5 L 140 149.5 L 138.5 149 L 138.5 148 Z " /><path fill="rgb(243,180,180)" stroke="rgb(243,180,180)" stroke-width="1" opacity="0.9882352941176471" d="M 163.5 159 L 177.5 159 L 179 160.5 L 179 209.5 L 177.5 211 L 163.5 211 L 162 209.5 L 162 160.5 L 163.5 159 Z M 163 160 L 163 210 L 164 210 L 178 210 L 178 161 L 178 160 L 163 160 Z " /><path fill="rgb(243,180,180)" stroke="rgb(243,180,180)" stroke-width="1" opacity="0.9882352941176471" d="M 197.5 159 L 211.5 159 L 213 160.5 L 213 209.5 L 211.5 211 L 197.5 211 L 196 209.5 L 196 160.5 L 197.5 159 Z M 197 160 L 197 210 L 198 210 L 212 210 L 212 161 L 212 160 L 197 160 Z " /><path fill="rgb(243,180,180)" stroke="rgb(243,180,180)" stroke-width="1" opacity="0.9882352941176471" d="M 160.5 231 L 214 231.5 L 160.5 232 L 160.5 231 Z " /><path fill="rgb(235,125,125)" stroke="rgb(235,125,125)" stroke-width="1" opacity="1" d="M 181.5 22 L 185.5 22 L 191 26.5 L 192 33.5 L 191 36.5 L 182.5 46 L 166.5 57 L 144.5 65 L 140.5 65 L 131.5 67 Q 130 64.5 128.5 68 L 117 76.5 L 117 78.5 L 118 89.5 L 120.5 92 L 128.5 96 L 129.5 95 L 140.5 95 Q 141.8 97.3 146.5 96 L 160 105.5 L 165 116.5 L 165 124.5 L 160.5 132 L 146.5 132 L 146 129.5 L 147 126.5 Q 147.7 119.6 145 117 L 139.5 114 L 138.5 115 L 125.5 115 L 115.5 112 L 104 102.5 Q 97 94.5 98 78.5 L 100 75.5 L 100 73.5 Q 102.8 62.3 110.5 56 L 124.5 49 L 135.5 47 L 137.5 47 L 147.5 44 L 149.5 44 Q 165 38.5 175 27.5 L 177.5 24 L 181.5 22 Z " /><path fill="rgb(235,125,125)" stroke="rgb(235,125,125)" stroke-width="1" opacity="1" d="M 230.5 65 L 236 68.5 Q 238.6 69.9 238 74.5 L 238 76.5 L 221 95.5 L 215 107.5 L 216 109.5 L 215 110.5 L 215 121.5 L 212.5 130 L 208 121.5 L 203.5 117 L 196 113.5 L 196 108.5 L 199 96.5 L 212 76.5 L 216.5 72 L 225.5 66 L 227.5 66 L 230.5 65 Z " /><path fill="rgb(235,125,125)" stroke="rgb(235,125,125)" stroke-width="1" opacity="1" d="M 84.5 104 L 87.5 105 L 89.5 104 L 91.5 104 Q 104 106 110.5 114 Q 121.8 114.2 129.5 118 L 138 124.5 L 142 131.5 Q 135.3 132.3 132 136.5 L 131 143.5 L 133 147 L 140 149 L 140 195.5 L 137.5 198 L 98.5 217 L 81.5 231 Q 78.2 234.2 70.5 233 L 66 229.5 L 65 221.5 L 75.5 210 L 93.5 198 L 122.5 185 L 133 177 L 135 171.5 L 135 164.5 Q 128.2 159.3 126 149.5 L 126 147.5 L 125 139.5 L 120.5 135 Q 114.5 135 111.5 132 L 108.5 133 Q 97.6 129.9 90.5 123 L 83.5 123 L 79 126.5 L 69 142.5 L 68 149.5 L 59 169.5 L 43.5 187 L 34.5 192 L 30.5 192 L 24 187.5 L 23 180.5 L 26.5 175 L 40 163.5 L 48 149.5 L 48 147.5 L 51 137.5 L 56 127.5 L 67.5 112 Q 72.3 106.8 80.5 105 L 82.5 105 L 84.5 104 Z " /><path fill="rgb(235,125,125)" stroke="rgb(235,125,125)" stroke-width="1" opacity="1" d="M 182.5 119 L 197.5 120 L 204 125.5 Q 205.8 133.7 211.5 138 L 235.5 138 L 237 139.5 L 235.5 143 Q 229.3 141.8 228 145.5 L 228 218.5 L 221.5 228 L 215.5 231 L 158.5 231 L 149 224.5 L 146 218.5 L 146 145.5 L 143.5 143 Q 137.5 144.5 136 141.5 L 138.5 138 L 162.5 138 L 165 137 Q 167.1 126.7 174.5 121 L 182.5 119 Z M 185 124 L 177 126 L 172 134 Q 172 138 175 138 L 200 138 L 202 137 L 203 135 L 200 129 L 196 125 L 185 124 Z M 164 159 L 162 161 L 162 210 L 164 211 L 178 211 L 179 210 L 179 161 L 178 159 L 164 159 Z M 198 159 L 196 161 L 196 210 L 198 211 L 212 211 L 213 210 L 213 161 L 212 159 L 198 159 Z " /><path fill="rgb(254,254,254)" stroke="rgb(254,254,254)" stroke-width="1" opacity="0.9529411764705882" d="M 176.5 114 L 195.5 114 Q 203.8 116.2 208 122.5 L 213.5 132 L 236.5 132 L 242 136.5 L 243 143.5 Q 240.4 148.8 234 149 L 234 217.5 Q 232.1 226.1 226.5 231 L 214.5 237 L 159.5 237 Q 150.1 234.9 145 228.5 L 140 218.5 L 140 196.5 L 141 195.5 L 141 148 Q 135.3 149 133 145.5 L 132 137.5 L 136.5 133 L 145.5 132 L 146.5 133 L 160.5 133 L 166 121.5 L 171.5 116 L 176.5 114 Z M 178 119 L 174 121 Q 167 126 165 136 L 164 137 L 139 137 Q 136 138 136 142 Q 137 145 144 144 L 145 146 L 145 218 L 149 226 Q 153 231 161 232 L 214 232 L 224 227 L 229 217 L 229 146 Q 230 143 236 144 Q 239 144 238 140 L 235 137 L 212 137 L 204 125 L 197 119 L 178 119 Z " /><path fill="rgb(254,254,254)" stroke="rgb(254,254,254)" stroke-width="1" opacity="0.9529411764705882" d="M 179.5 125 L 194.5 125 L 200 129.5 L 202 135.5 L 200.5 137 L 174.5 137 Q 172 136 173 131.5 L 177.5 126 L 179.5 125 Z M 193 129 L 192 130 L 182 130 L 179 132 L 191 132 L 192 133 Q 197 135 196 132 L 193 129 Z " /><path fill="rgb(254,254,254)" stroke="rgb(254,254,254)" stroke-width="1" opacity="0.9529411764705882" d="M 163 160 L 177.5 160 L 178 160.5 L 178 210 L 163.5 210 L 163 209.5 L 163 160 Z " /><path fill="rgb(254,254,254)" stroke="rgb(254,254,254)" stroke-width="1" opacity="0.9529411764705882" d="M 197 160 L 211.5 160 L 212 160.5 L 212 210 L 197.5 210 L 197 209.5 L 197 160 Z " /><path fill="rgb(235,124,124)" stroke="rgb(235,124,124)" stroke-width="1" opacity="0.32941176470588235" d="M 188.5 23 Q 192.5 23.5 192 28.5 L 191 28.5 L 188.5 23 Z " /><path fill="rgb(235,124,124)" stroke="rgb(235,124,124)" stroke-width="1" opacity="0.32941176470588235" d="M 191.5 34 L 192 36.5 L 186 41.5 Q 190.9 39.9 191.5 34 Z " /><path fill="rgb(235,124,124)" stroke="rgb(235,124,124)" stroke-width="1" opacity="0.32941176470588235" d="M 184.5 44 L 182.5 47 L 178.5 50 L 181.5 46 L 184.5 44 Z " /><path fill="rgb(235,124,124)" stroke="rgb(235,124,124)" stroke-width="1" opacity="0.32941176470588235" d="M 171.5 53 L 169.5 56 L 164.5 58 L 164.5 57 L 166.5 57 L 171.5 53 Z " /><path fill="rgb(235,124,124)" stroke="rgb(235,124,124)" stroke-width="1" opacity="0.32941176470588235" d="M 103.5 64 L 103 65.5 L 100.5 71 L 100 69.5 L 103.5 64 Z " /><path fill="rgb(235,124,124)" stroke="rgb(235,124,124)" stroke-width="1" opacity="0.32941176470588235" d="M 223.5 66 L 225 66.5 L 212 76.5 L 210.5 79 L 211 77.5 L 216.5 71 L 223.5 66 Z " /><path fill="rgb(235,124,124)" stroke="rgb(235,124,124)" stroke-width="1" opacity="0.32941176470588235" d="M 237.5 78 L 229.5 87 L 237.5 78 Z " /><path fill="rgb(235,124,124)" stroke="rgb(235,124,124)" stroke-width="1" opacity="0.32941176470588235" d="M 228.5 88 L 222 95.5 L 219.5 100 L 219 98.5 L 228.5 88 Z " /><path fill="rgb(235,124,124)" stroke="rgb(235,124,124)" stroke-width="1" opacity="0.32941176470588235" d="M 101.5 99 L 108.5 107 L 113 110.5 L 109.5 108 L 103 102.5 L 101.5 99 Z " /><path fill="rgb(235,124,124)" stroke="rgb(235,124,124)" stroke-width="1" opacity="0.32941176470588235" d="M 159.5 104 L 163 110.5 L 162 110.5 L 159.5 104 Z " /><path fill="rgb(235,124,124)" stroke="rgb(235,124,124)" stroke-width="1" opacity="0.32941176470588235" d="M 71.5 108 L 69.5 111 L 65 114.5 L 56.5 127 L 58 124.5 Q 61.7 115.7 68.5 110 L 71.5 108 Z " /><path fill="rgb(235,124,124)" stroke="rgb(235,124,124)" stroke-width="1" opacity="0.32941176470588235" d="M 125.5 116 Q 134.4 118.1 139 124.5 L 143 131.5 L 141 130.5 L 134.5 121 L 125.5 117 L 125.5 116 Z " /><path fill="rgb(235,124,124)" stroke="rgb(235,124,124)" stroke-width="1" opacity="0.32941176470588235" d="M 144.5 117 L 147 123.5 L 146 123.5 L 144.5 117 Z " /><path fill="rgb(235,124,124)" stroke="rgb(235,124,124)" stroke-width="1" opacity="0.32941176470588235" d="M 93.5 125 L 101 130.5 L 99.5 130 Q 94.5 128.5 93.5 125 Z " /><path fill="rgb(235,124,124)" stroke="rgb(235,124,124)" stroke-width="1" opacity="0.32941176470588235" d="M 55.5 128 L 55 129.5 L 51.5 137 L 51 135.5 L 55.5 128 Z " /><path fill="rgb(235,124,124)" stroke="rgb(235,124,124)" stroke-width="1" opacity="0.32941176470588235" d="M 74.5 134 L 74 135.5 L 70.5 141 L 71 139.5 L 74.5 134 Z " /><path fill="rgb(235,124,124)" stroke="rgb(235,124,124)" stroke-width="1" opacity="0.32941176470588235" d="M 120.5 135 L 124.5 140 L 120.5 135 Z " /><path fill="rgb(235,124,124)" stroke="rgb(235,124,124)" stroke-width="1" opacity="0.32941176470588235" d="M 50.5 138 L 51 139.5 L 48.5 145 L 48 143.5 L 50.5 138 Z " /><path fill="rgb(235,124,124)" stroke="rgb(235,124,124)" stroke-width="1" opacity="0.32941176470588235" d="M 40.5 161 L 40 162.5 L 33.5 170 L 39 163.5 L 40.5 161 Z " /><path fill="rgb(235,124,124)" stroke="rgb(235,124,124)" stroke-width="1" opacity="0.32941176470588235" d="M 131.5 161 L 135 166.5 L 134 166.5 L 131.5 161 Z " /><path fill="rgb(235,124,124)" stroke="rgb(235,124,124)" stroke-width="1" opacity="0.32941176470588235" d="M 31.5 170 L 27.5 175 L 25 176.5 L 23.5 180 L 23 178.5 L 26.5 174 L 31.5 170 Z " /><path fill="rgb(235,124,124)" stroke="rgb(235,124,124)" stroke-width="1" opacity="0.32941176470588235" d="M 58.5 170 L 57 172.5 L 53.5 177 L 56 173.5 L 58.5 170 Z " /><path fill="rgb(235,124,124)" stroke="rgb(235,124,124)" stroke-width="1" opacity="0.32941176470588235" d="M 132.5 175 L 126.5 182 L 120.5 186 L 121.5 184 L 132.5 175 Z " /><path fill="rgb(235,124,124)" stroke="rgb(235,124,124)" stroke-width="1" opacity="0.32941176470588235" d="M 52.5 178 L 43.5 188 L 38.5 191 L 39.5 189 Q 48 185.5 52.5 178 Z " /><path fill="rgb(235,124,124)" stroke="rgb(235,124,124)" stroke-width="1" opacity="0.32941176470588235" d="M 24.5 188 L 30 191.5 L 28.5 192 L 24.5 188 Z " /><path fill="rgb(235,124,124)" stroke="rgb(235,124,124)" stroke-width="1" opacity="0.32941176470588235" d="M 139.5 196 L 137.5 199 L 134.5 200 L 134.5 199 L 139.5 196 Z " /><path fill="rgb(235,124,124)" stroke="rgb(235,124,124)" stroke-width="1" opacity="0.32941176470588235" d="M 85.5 202 L 83.5 205 L 80.5 207 L 82.5 204 L 85.5 202 Z " /><path fill="rgb(235,124,124)" stroke="rgb(235,124,124)" stroke-width="1" opacity="0.32941176470588235" d="M 124.5 204 L 123.5 206 L 104.5 215 L 104.5 214 L 124.5 204 Z " /><path fill="rgb(235,124,124)" stroke="rgb(235,124,124)" stroke-width="1" opacity="0.32941176470588235" d="M 78.5 207 L 76.5 210 L 66 219.5 L 65.5 221 L 65 219.5 L 78.5 207 Z " /><path fill="rgb(235,124,124)" stroke="rgb(235,124,124)" stroke-width="1" opacity="0.32941176470588235" d="M 100.5 216 L 99.5 218 L 93.5 222 L 95.5 219 L 100.5 216 Z " /><path fill="rgb(235,124,124)" stroke="rgb(235,124,124)" stroke-width="1" opacity="0.32941176470588235" d="M 90.5 223 L 86.5 228 L 79.5 233 L 80.5 231 L 90.5 223 Z " /></svg>