<svg width="256" height="256" version="1.1" xmlns="http://www.w3.org/2000/svg" desc="Created with imagetracer.js version 1.2.6" ><path fill="rgb(19,172,229)" stroke="rgb(19,172,229)" stroke-width="1" opacity="0.2627450980392157" d="M 125.5 26 L 131.5 26 L 149.5 37 L 151.5 37 L 154.5 40 L 158.5 41 L 161.5 44 L 169 47 Q 170.1 49.7 167.5 49 L 138.5 31 L 130.5 27 L 125.5 27 L 109.5 37 L 109 35 L 125.5 26 Z " /><path fill="rgb(19,172,229)" stroke="rgb(19,172,229)" stroke-width="1" opacity="0.2627450980392157" d="M 105.5 37 L 108 37.5 L 88.5 49 L 90.5 46 L 102.5 40 L 105.5 37 Z " /><path fill="rgb(19,172,229)" stroke="rgb(19,172,229)" stroke-width="1" opacity="0.2627450980392157" d="M 85.5 49 L 87 49.5 L 41 76 L 40 78.5 L 40 178.5 L 41 181 L 120.5 227 L 126.5 230 L 130.5 230 L 183 199.5 L 157.5 185 L 132.5 200 L 126.5 201 L 65 164.5 L 65 92.5 L 66.5 91 L 128.5 55 L 192 92.5 L 192.5 117 L 217.5 102 L 218 103.5 L 196.5 117 L 190 118 L 190 93.5 L 188.5 92 L 128.5 57 L 116.5 65 L 72.5 89 L 67 93.5 L 67 164.5 L 68.5 165 L 128.5 200 L 146.5 189 L 148.5 189 L 151.5 186 L 159.5 184 L 173 191 Q 171.7 194.3 176.5 193 L 185 199.5 Q 185.8 202.1 182.5 201 L 135.5 229 L 131.5 231 L 125.5 231 L 116.5 225 L 113 225 Q 114.1 222.3 111.5 223 L 81.5 205 L 77 204 Q 78.1 201.3 75.5 202 L 41 183 L 39 179.5 L 39 77.5 L 41 74 L 45.5 73 L 62.5 62 L 77 55 Q 75.7 51.7 80.5 53 L 85.5 49 Z " /><path fill="rgb(19,172,229)" stroke="rgb(19,172,229)" stroke-width="1" opacity="0.2627450980392157" d="M 170.5 49 L 172.5 49 L 190 60.5 L 188.5 61 L 171.5 51 L 170.5 49 Z " /><path fill="rgb(19,172,229)" stroke="rgb(19,172,229)" stroke-width="1" opacity="0.2627450980392157" d="M 191.5 61 L 211 72.5 L 209.5 73 L 192.5 63 L 191.5 61 Z " /><path fill="rgb(19,172,229)" stroke="rgb(19,172,229)" stroke-width="1" opacity="0.2627450980392157" d="M 212.5 73 L 217 75 L 218 79.5 L 217 79.5 L 217 77 L 215 77 Q 216.1 74.3 213.5 75 L 212.5 73 Z " /><path fill="rgb(19,172,229)" stroke="rgb(19,172,229)" stroke-width="1" opacity="0.2627450980392157" d="M 126.5 85 L 130.5 85 L 133.5 88 L 144.5 93 L 166 106.5 L 166 150.5 L 163.5 153 L 133.5 169 L 130.5 172 L 127.5 172 L 91 150.5 L 91 106.5 L 92.5 105 L 102.5 100 L 105.5 97 L 109 97 Q 107.9 94.3 110.5 95 L 126.5 85 Z M 127 87 L 94 106 L 92 108 L 92 150 L 129 171 L 164 151 L 165 150 L 165 108 L 135 89 L 131 87 L 127 87 Z " /><path fill="rgb(0,0,0)" stroke="rgb(0,0,0)" stroke-width="1" opacity="0" d="M 0 0 L 256 0 L 256 256 L 0 256 L 0 0 Z M 126 26 L 111 35 Q 108 34 109 37 L 106 37 L 81 53 Q 76 52 77 55 L 63 62 L 46 73 L 41 74 L 39 78 L 39 180 L 41 183 L 76 202 Q 78 201 77 204 L 82 205 L 112 223 Q 114 222 113 225 L 117 225 L 126 231 L 132 231 L 136 229 L 183 201 Q 186 202 185 200 L 177 193 Q 172 194 173 191 L 160 184 L 152 186 L 149 189 L 147 189 L 129 200 L 69 165 L 67 165 L 67 94 L 73 89 L 117 65 L 129 57 L 189 92 L 190 94 L 190 118 L 197 117 L 218 104 L 218 78 L 217 75 L 198 65 L 195 62 L 191 61 L 173 49 Q 168 50 169 47 L 162 44 L 159 41 L 155 40 L 152 37 L 150 37 L 132 26 L 126 26 Z M 127 85 L 111 95 Q 108 94 109 97 L 106 97 L 103 100 L 93 105 L 91 107 L 91 151 L 128 172 L 131 172 L 134 169 L 164 153 L 166 151 L 166 107 L 145 93 L 134 88 L 131 85 L 127 85 Z " /><path fill="rgb(22,171,227)" stroke="rgb(22,171,227)" stroke-width="1" opacity="0.9137254901960784" d="M 125.5 27 Q 130.9 26.1 133 28.5 L 131.5 29 L 126.5 28 L 124.5 29 L 125.5 27 Z " /><path fill="rgb(22,171,227)" stroke="rgb(22,171,227)" stroke-width="1" opacity="0.9137254901960784" d="M 122.5 29 L 121.5 31 L 122.5 29 Z " /><path fill="rgb(22,171,227)" stroke="rgb(22,171,227)" stroke-width="1" opacity="0.9137254901960784" d="M 134.5 29 L 140 32.5 L 138.5 33 L 134.5 29 Z " /><path fill="rgb(22,171,227)" stroke="rgb(22,171,227)" stroke-width="1" opacity="0.9137254901960784" d="M 119.5 31 L 118.5 33 L 110.5 37 L 110.5 36 L 119.5 31 Z " /><path fill="rgb(22,171,227)" stroke="rgb(22,171,227)" stroke-width="1" opacity="0.9137254901960784" d="M 141.5 33 L 142.5 35 L 141.5 33 Z " /><path fill="rgb(22,171,227)" stroke="rgb(22,171,227)" stroke-width="1" opacity="0.9137254901960784" d="M 144.5 35 L 154 40.5 L 152.5 41 L 145.5 37 L 144.5 35 Z " /><path fill="rgb(22,171,227)" stroke="rgb(22,171,227)" stroke-width="1" opacity="0.9137254901960784" d="M 108.5 37 L 106.5 40 L 100.5 43 L 101.5 41 L 108.5 37 Z " /><path fill="rgb(22,171,227)" stroke="rgb(22,171,227)" stroke-width="1" opacity="0.9137254901960784" d="M 155.5 41 L 164 46.5 L 162.5 46 Q 156.5 44.9 155.5 41 Z " /><path fill="rgb(22,171,227)" stroke="rgb(22,171,227)" stroke-width="1" opacity="0.9137254901960784" d="M 98.5 43 L 97.5 45 L 98.5 43 Z " /><path fill="rgb(22,171,227)" stroke="rgb(22,171,227)" stroke-width="1" opacity="0.9137254901960784" d="M 94.5 45 L 96 45.5 L 83.5 53 L 84.5 51 L 94.5 45 Z " /><path fill="rgb(22,171,227)" stroke="rgb(22,171,227)" stroke-width="1" opacity="0.9137254901960784" d="M 165.5 47 L 166.5 49 L 165.5 47 Z " /><path fill="rgb(22,171,227)" stroke="rgb(22,171,227)" stroke-width="1" opacity="0.9137254901960784" d="M 168.5 49 L 181 56.5 L 179.5 56 L 168.5 50 L 168.5 49 Z " /><path fill="rgb(22,171,227)" stroke="rgb(22,171,227)" stroke-width="1" opacity="0.9137254901960784" d="M 81.5 53 L 80.5 55 L 76.5 57 L 77.5 55 L 81.5 53 Z " /><path fill="rgb(22,171,227)" stroke="rgb(22,171,227)" stroke-width="1" opacity="0.9137254901960784" d="M 127.5 55 L 126.5 57 L 118.5 61 L 118.5 60 L 127.5 55 Z " /><path fill="rgb(22,171,227)" stroke="rgb(22,171,227)" stroke-width="1" opacity="0.9137254901960784" d="M 129.5 55 L 132 56.5 L 130.5 57 L 129.5 55 Z " /><path fill="rgb(22,171,227)" stroke="rgb(22,171,227)" stroke-width="1" opacity="0.9137254901960784" d="M 73.5 57 L 75 57.5 L 69.5 61 L 70.5 59 L 73.5 57 Z " /><path fill="rgb(22,171,227)" stroke="rgb(22,171,227)" stroke-width="1" opacity="0.9137254901960784" d="M 133.5 57 L 139 60.5 L 137.5 61 L 133.5 57 Z " /><path fill="rgb(22,171,227)" stroke="rgb(22,171,227)" stroke-width="1" opacity="0.9137254901960784" d="M 182.5 57 L 188 60.5 L 186.5 60 Q 182.5 59.5 182.5 57 Z " /><path fill="rgb(22,171,227)" stroke="rgb(22,171,227)" stroke-width="1" opacity="0.9137254901960784" d="M 67.5 61 L 66.5 63 L 62.5 65 L 63.5 63 L 67.5 61 Z " /><path fill="rgb(22,171,227)" stroke="rgb(22,171,227)" stroke-width="1" opacity="0.9137254901960784" d="M 116.5 61 L 115.5 63 L 105.5 69 L 107.5 66 L 116.5 61 Z " /><path fill="rgb(22,171,227)" stroke="rgb(22,171,227)" stroke-width="1" opacity="0.9137254901960784" d="M 140.5 61 L 146 64.5 L 144.5 64 Q 140.5 63.5 140.5 61 Z " /><path fill="rgb(22,171,227)" stroke="rgb(22,171,227)" stroke-width="1" opacity="0.9137254901960784" d="M 189.5 61 L 195 64.5 L 193.5 65 L 189.5 61 Z " /><path fill="rgb(22,171,227)" stroke="rgb(22,171,227)" stroke-width="1" opacity="0.9137254901960784" d="M 60.5 65 L 59.5 67 L 55.5 69 L 56.5 67 L 60.5 65 Z " /><path fill="rgb(22,171,227)" stroke="rgb(22,171,227)" stroke-width="1" opacity="0.9137254901960784" d="M 147.5 65 L 160 72.5 L 158.5 73 L 148.5 67 L 147.5 65 Z " /><path fill="rgb(22,171,227)" stroke="rgb(22,171,227)" stroke-width="1" opacity="0.9137254901960784" d="M 196.5 65 L 202 68.5 L 200.5 68 Q 196.5 67.5 196.5 65 Z " /><path fill="rgb(22,171,227)" stroke="rgb(22,171,227)" stroke-width="1" opacity="0.9137254901960784" d="M 53.5 69 L 52.5 71 L 48.5 73 L 49.5 71 L 53.5 69 Z " /><path fill="rgb(22,171,227)" stroke="rgb(22,171,227)" stroke-width="1" opacity="0.9137254901960784" d="M 102.5 69 L 104 69.5 L 91.5 77 L 93.5 74 L 102.5 69 Z " /><path fill="rgb(22,171,227)" stroke="rgb(22,171,227)" stroke-width="1" opacity="0.9137254901960784" d="M 203.5 69 L 215 75 L 214.5 77 L 204.5 71 L 203.5 69 Z " /><path fill="rgb(22,171,227)" stroke="rgb(22,171,227)" stroke-width="1" opacity="0.9137254901960784" d="M 46.5 73 L 45.5 75 L 46.5 73 Z " /><path fill="rgb(22,171,227)" stroke="rgb(22,171,227)" stroke-width="1" opacity="0.9137254901960784" d="M 161.5 73 L 162.5 75 L 161.5 73 Z " /><path fill="rgb(22,171,227)" stroke="rgb(22,171,227)" stroke-width="1" opacity="0.9137254901960784" d="M 43.5 75 L 42.5 77 L 41 76.5 L 43.5 75 Z " /><path fill="rgb(22,171,227)" stroke="rgb(22,171,227)" stroke-width="1" opacity="0.9137254901960784" d="M 164.5 75 L 173 80.5 L 170.5 79 Q 164.9 78.2 164.5 75 Z " /><path fill="rgb(22,171,227)" stroke="rgb(22,171,227)" stroke-width="1" opacity="0.9137254901960784" d="M 88.5 77 L 90 77.5 L 87.5 79 L 88.5 77 Z " /><path fill="rgb(22,171,227)" stroke="rgb(22,171,227)" stroke-width="1" opacity="0.9137254901960784" d="M 40.5 78 L 41 80.5 L 40 80.5 L 40.5 78 Z " /><path fill="rgb(22,171,227)" stroke="rgb(22,171,227)" stroke-width="1" opacity="0.9137254901960784" d="M 85.5 79 L 84.5 81 L 85.5 79 Z " /><path fill="rgb(22,171,227)" stroke="rgb(22,171,227)" stroke-width="1" opacity="0.9137254901960784" d="M 217.5 80 L 218 101.5 L 213.5 105 L 214.5 103 L 217 101.5 L 217.5 80 Z " /><path fill="rgb(22,171,227)" stroke="rgb(22,171,227)" stroke-width="1" opacity="0.9137254901960784" d="M 81.5 81 L 83 81.5 L 77.5 85 L 78.5 83 L 81.5 81 Z " /><path fill="rgb(22,171,227)" stroke="rgb(22,171,227)" stroke-width="1" opacity="0.9137254901960784" d="M 174.5 81 L 184 86.5 L 182.5 86 L 174.5 82 L 174.5 81 Z " /><path fill="rgb(22,171,227)" stroke="rgb(22,171,227)" stroke-width="1" opacity="0.9137254901960784" d="M 74.5 85 L 76 85.5 L 70.5 89 L 71.5 87 L 74.5 85 Z " /><path fill="rgb(22,171,227)" stroke="rgb(22,171,227)" stroke-width="1" opacity="0.9137254901960784" d="M 126.5 87 L 128 87.5 L 125.5 89 L 126.5 87 Z " /><path fill="rgb(22,171,227)" stroke="rgb(22,171,227)" stroke-width="1" opacity="0.9137254901960784" d="M 129.5 87 L 132 88.5 L 130.5 89 L 129.5 87 Z " /><path fill="rgb(22,171,227)" stroke="rgb(22,171,227)" stroke-width="1" opacity="0.9137254901960784" d="M 185.5 87 L 186.5 89 L 185.5 87 Z " /><path fill="rgb(22,171,227)" stroke="rgb(22,171,227)" stroke-width="1" opacity="0.9137254901960784" d="M 67.5 89 L 69 89.5 L 65.5 92 L 67.5 89 Z " /><path fill="rgb(22,171,227)" stroke="rgb(22,171,227)" stroke-width="1" opacity="0.9137254901960784" d="M 123.5 89 L 122.5 91 L 118.5 93 L 119.5 91 L 123.5 89 Z " /><path fill="rgb(22,171,227)" stroke="rgb(22,171,227)" stroke-width="1" opacity="0.9137254901960784" d="M 133.5 89 L 139 92.5 L 137.5 93 L 133.5 89 Z " /><path fill="rgb(22,171,227)" stroke="rgb(22,171,227)" stroke-width="1" opacity="0.9137254901960784" d="M 188.5 89 L 193 91 L 193 114.5 L 194.5 115 L 197.5 113 L 196.5 115 L 192.5 117 L 192 92.5 L 190.5 91 L 188.5 89 Z " /><path fill="rgb(22,171,227)" stroke="rgb(22,171,227)" stroke-width="1" opacity="0.9137254901960784" d="M 116.5 93 L 115.5 95 L 111.5 97 L 112.5 95 L 116.5 93 Z " /><path fill="rgb(22,171,227)" stroke="rgb(22,171,227)" stroke-width="1" opacity="0.9137254901960784" d="M 140.5 93 L 146 96.5 L 144.5 97 L 140.5 93 Z " /><path fill="rgb(22,171,227)" stroke="rgb(22,171,227)" stroke-width="1" opacity="0.9137254901960784" d="M 109.5 97 L 108.5 99 L 104.5 101 L 105.5 99 L 109.5 97 Z " /><path fill="rgb(22,171,227)" stroke="rgb(22,171,227)" stroke-width="1" opacity="0.9137254901960784" d="M 147.5 97 L 160 104.5 L 158.5 105 L 148.5 99 L 147.5 97 Z " /><path fill="rgb(22,171,227)" stroke="rgb(22,171,227)" stroke-width="1" opacity="0.9137254901960784" d="M 102.5 101 L 100.5 104 L 93 107 L 93 149.5 L 94.5 150 L 98 152.5 L 96.5 152 L 92 149.5 L 92 107.5 L 93.5 106 L 102.5 101 Z " /><path fill="rgb(22,171,227)" stroke="rgb(22,171,227)" stroke-width="1" opacity="0.9137254901960784" d="M 161.5 105 L 165 107.5 L 165 149.5 L 163.5 151 L 159.5 153 L 160.5 151 L 164 148.5 L 164 107.5 L 162.5 107 L 161.5 105 Z " /><path fill="rgb(22,171,227)" stroke="rgb(22,171,227)" stroke-width="1" opacity="0.9137254901960784" d="M 210.5 105 L 212 105.5 L 206.5 109 L 207.5 107 L 210.5 105 Z " /><path fill="rgb(22,171,227)" stroke="rgb(22,171,227)" stroke-width="1" opacity="0.9137254901960784" d="M 203.5 109 L 205 109.5 L 199.5 113 L 200.5 111 L 203.5 109 Z " /><path fill="rgb(22,171,227)" stroke="rgb(22,171,227)" stroke-width="1" opacity="0.9137254901960784" d="M 99.5 153 L 112 160.5 L 110.5 161 L 100.5 155 L 99.5 153 Z " /><path fill="rgb(22,171,227)" stroke="rgb(22,171,227)" stroke-width="1" opacity="0.9137254901960784" d="M 157.5 153 L 156.5 155 L 152.5 157 L 153.5 155 L 157.5 153 Z " /><path fill="rgb(22,171,227)" stroke="rgb(22,171,227)" stroke-width="1" opacity="0.9137254901960784" d="M 149.5 157 L 151 157.5 L 138.5 165 L 138.5 164 L 149.5 157 Z " /><path fill="rgb(22,171,227)" stroke="rgb(22,171,227)" stroke-width="1" opacity="0.9137254901960784" d="M 113.5 161 L 126.5 169 L 130.5 169 L 136.5 165 L 135.5 167 L 128.5 171 L 114.5 163 L 113.5 161 Z " /><path fill="rgb(22,171,227)" stroke="rgb(22,171,227)" stroke-width="1" opacity="0.9137254901960784" d="M 65.5 165 L 71 168.5 L 69.5 169 L 65.5 165 Z " /><path fill="rgb(22,171,227)" stroke="rgb(22,171,227)" stroke-width="1" opacity="0.9137254901960784" d="M 72.5 169 L 77 172.5 L 75.5 172 L 72.5 169 Z " /><path fill="rgb(22,171,227)" stroke="rgb(22,171,227)" stroke-width="1" opacity="0.9137254901960784" d="M 78.5 173 L 91 180.5 L 89.5 181 L 78.5 174 L 78.5 173 Z " /><path fill="rgb(22,171,227)" stroke="rgb(22,171,227)" stroke-width="1" opacity="0.9137254901960784" d="M 40.5 176 L 41 178.5 L 40 178.5 L 40.5 176 Z " /><path fill="rgb(22,171,227)" stroke="rgb(22,171,227)" stroke-width="1" opacity="0.9137254901960784" d="M 43.5 181 L 56 188.5 L 54.5 189 L 44.5 183 L 43.5 181 Z " /><path fill="rgb(22,171,227)" stroke="rgb(22,171,227)" stroke-width="1" opacity="0.9137254901960784" d="M 92.5 181 L 98 184.5 L 96.5 184 Q 92.5 183.5 92.5 181 Z " /><path fill="rgb(22,171,227)" stroke="rgb(22,171,227)" stroke-width="1" opacity="0.9137254901960784" d="M 99.5 185 L 105 188.5 L 103.5 189 L 99.5 185 Z " /><path fill="rgb(22,171,227)" stroke="rgb(22,171,227)" stroke-width="1" opacity="0.9137254901960784" d="M 157.5 185 L 177 196.5 L 175.5 197 L 172.5 194 L 157.5 186 L 152.5 189 L 153.5 187 L 157.5 185 Z " /><path fill="rgb(22,171,227)" stroke="rgb(22,171,227)" stroke-width="1" opacity="0.9137254901960784" d="M 57.5 189 L 73 198.5 L 71.5 198 L 58.5 191 L 57.5 189 Z " /><path fill="rgb(22,171,227)" stroke="rgb(22,171,227)" stroke-width="1" opacity="0.9137254901960784" d="M 106.5 189 L 112 192.5 L 110.5 193 L 106.5 189 Z " /><path fill="rgb(22,171,227)" stroke="rgb(22,171,227)" stroke-width="1" opacity="0.9137254901960784" d="M 150.5 189 L 149.5 191 L 145.5 193 L 146.5 191 L 150.5 189 Z " /><path fill="rgb(22,171,227)" stroke="rgb(22,171,227)" stroke-width="1" opacity="0.9137254901960784" d="M 113.5 193 L 119 196.5 L 117.5 197 L 113.5 193 Z " /><path fill="rgb(22,171,227)" stroke="rgb(22,171,227)" stroke-width="1" opacity="0.9137254901960784" d="M 143.5 193 L 142.5 195 L 138.5 197 L 139.5 195 L 143.5 193 Z " /><path fill="rgb(22,171,227)" stroke="rgb(22,171,227)" stroke-width="1" opacity="0.9137254901960784" d="M 120.5 197 L 126 200.5 L 124.5 200 Q 120.5 199.5 120.5 197 Z " /><path fill="rgb(22,171,227)" stroke="rgb(22,171,227)" stroke-width="1" opacity="0.9137254901960784" d="M 136.5 197 L 135.5 199 L 131.5 201 L 131.5 200 L 136.5 197 Z " /><path fill="rgb(22,171,227)" stroke="rgb(22,171,227)" stroke-width="1" opacity="0.9137254901960784" d="M 178.5 197 L 183 199.5 L 181 200.5 L 179.5 198 L 178.5 197 Z " /><path fill="rgb(22,171,227)" stroke="rgb(22,171,227)" stroke-width="1" opacity="0.9137254901960784" d="M 74.5 199 L 80 202.5 L 78.5 202 Q 74.5 201.5 74.5 199 Z " /><path fill="rgb(22,171,227)" stroke="rgb(22,171,227)" stroke-width="1" opacity="0.9137254901960784" d="M 127.5 201 L 130 201.5 L 127.5 202 L 127.5 201 Z " /><path fill="rgb(22,171,227)" stroke="rgb(22,171,227)" stroke-width="1" opacity="0.9137254901960784" d="M 178.5 201 L 180 201.5 L 170.5 207 L 171.5 205 L 178.5 201 Z " /><path fill="rgb(22,171,227)" stroke="rgb(22,171,227)" stroke-width="1" opacity="0.9137254901960784" d="M 81.5 203 L 87 206.5 L 85.5 207 L 81.5 203 Z " /><path fill="rgb(22,171,227)" stroke="rgb(22,171,227)" stroke-width="1" opacity="0.9137254901960784" d="M 88.5 207 L 89.5 209 L 88.5 207 Z " /><path fill="rgb(22,171,227)" stroke="rgb(22,171,227)" stroke-width="1" opacity="0.9137254901960784" d="M 168.5 207 L 167.5 209 L 168.5 207 Z " /><path fill="rgb(22,171,227)" stroke="rgb(22,171,227)" stroke-width="1" opacity="0.9137254901960784" d="M 91.5 209 L 97 212.5 L 95.5 212 Q 90.8 211.2 91.5 209 Z " /><path fill="rgb(22,171,227)" stroke="rgb(22,171,227)" stroke-width="1" opacity="0.9137254901960784" d="M 164.5 209 L 166 209.5 L 160.5 213 L 161.5 211 L 164.5 209 Z " /><path fill="rgb(22,171,227)" stroke="rgb(22,171,227)" stroke-width="1" opacity="0.9137254901960784" d="M 98.5 213 L 104 216.5 L 102.5 216 Q 98.5 215.5 98.5 213 Z " /><path fill="rgb(22,171,227)" stroke="rgb(22,171,227)" stroke-width="1" opacity="0.9137254901960784" d="M 157.5 213 L 159 213.5 L 153.5 217 L 154.5 215 L 157.5 213 Z " /><path fill="rgb(22,171,227)" stroke="rgb(22,171,227)" stroke-width="1" opacity="0.9137254901960784" d="M 105.5 217 L 108 218.5 L 106.5 219 L 105.5 217 Z " /><path fill="rgb(22,171,227)" stroke="rgb(22,171,227)" stroke-width="1" opacity="0.9137254901960784" d="M 150.5 217 L 152 217.5 L 146.5 221 L 147.5 219 L 150.5 217 Z " /><path fill="rgb(22,171,227)" stroke="rgb(22,171,227)" stroke-width="1" opacity="0.9137254901960784" d="M 109.5 219 L 110.5 221 L 109.5 219 Z " /><path fill="rgb(22,171,227)" stroke="rgb(22,171,227)" stroke-width="1" opacity="0.9137254901960784" d="M 112.5 221 L 118 224.5 L 116.5 224 Q 112.5 223.5 112.5 221 Z " /><path fill="rgb(22,171,227)" stroke="rgb(22,171,227)" stroke-width="1" opacity="0.9137254901960784" d="M 144.5 221 L 143.5 223 L 139.5 225 L 139.5 224 L 144.5 221 Z " /><path fill="rgb(22,171,227)" stroke="rgb(22,171,227)" stroke-width="1" opacity="0.9137254901960784" d="M 119.5 225 L 125 228.5 L 123.5 228 Q 119.5 227.5 119.5 225 Z " /><path fill="rgb(22,171,227)" stroke="rgb(22,171,227)" stroke-width="1" opacity="0.9137254901960784" d="M 137.5 225 L 136.5 227 L 133.5 228 L 133.5 227 L 137.5 225 Z " /><path fill="rgb(22,171,227)" stroke="rgb(22,171,227)" stroke-width="1" opacity="0.9137254901960784" d="M 126.5 229 L 131 229.5 L 126.5 230 L 126.5 229 Z " /><path fill="rgb(23,171,227)" stroke="rgb(23,171,227)" stroke-width="1" opacity="1" d="M 126.5 28 L 133.5 29 L 216 77 L 217 79.5 L 217 101.5 L 193 115 L 193 91.5 L 191.5 91 L 144.5 63 L 127.5 55 L 65 91.5 L 65 165.5 L 67.5 168 L 71.5 169 L 74.5 172 L 100.5 186 L 103.5 189 L 107.5 190 L 117.5 197 L 129.5 202 L 158.5 186 L 181 199.5 Q 181.8 202.1 178.5 201 L 140.5 224 L 133 227 L 132.5 229 L 125.5 229 L 41 179.5 L 40 175.5 L 40 81.5 L 41 77 L 126.5 28 Z " /><path fill="rgb(23,171,227)" stroke="rgb(23,171,227)" stroke-width="1" opacity="1" d="M 128.5 87 L 164 107 L 164 148.5 L 161.5 151 L 132.5 168 L 126.5 169 L 100.5 153 L 93 150 L 93 107.5 L 94.5 107 L 128.5 87 Z " /></svg>