<?xml version="1.0" encoding="UTF-8"?>
<svg xmlns="http://www.w3.org/2000/svg" xmlns:xlink="http://www.w3.org/1999/xlink" width="20px" height="px" viewBox="0 0 20 20" version="1.1">
<defs>
<filter id="alpha" filterUnits="objectBoundingBox" x="0%" y="0%" width="100%" height="100%">
  <feColorMatrix type="matrix" in="SourceGraphic" values="0 0 0 0 1 0 0 0 0 1 0 0 0 0 1 0 0 0 1 0"/>
</filter>
<mask id="mask0">
  <g filter="url(#alpha)">
<rect x="0" y="0" width="20" height="20" style="fill:rgb(0%,0%,0%);fill-opacity:0.494118;stroke:none;"/>
  </g>
</mask>
<clipPath id="clip1">
  <rect x="0" y="0" width="20" height="20"/>
</clipPath>
<g id="surface7" clip-path="url(#clip1)">
<path style="fill-rule:nonzero;fill:rgb(49.411765%,49.411765%,49.411765%);fill-opacity:1;stroke-width:1;stroke-linecap:butt;stroke-linejoin:miter;stroke:rgb(49.411765%,49.411765%,49.411765%);stroke-opacity:1;stroke-miterlimit:4;" d="M 153.515625 40 L 157.96875 40.46875 L 131.484375 50 L 116.015625 59.53125 L 116.015625 65.46875 L 118.984375 74.53125 L 118.984375 81.484375 L 116.015625 93.515625 L 112.03125 101.484375 L 101.484375 112.03125 L 90.46875 117.03125 L 74.53125 118.984375 C 73.671875 117.5 71.71875 117.109375 68.515625 117.96875 L 65.46875 116.015625 L 59.53125 116.015625 L 50 131.484375 L 40.46875 157.96875 L 40 154.53125 L 49.53125 128.984375 C 51.484375 129.609375 52.03125 128.4375 51.015625 125.46875 L 52.96875 120 C 54.765625 120.703125 55.46875 120.234375 55 118.515625 L 57.5 115 L 63.515625 113.984375 L 67.5 116.015625 L 79.53125 117.03125 L 80.46875 116.015625 L 91.484375 115 L 103.984375 107.96875 L 106.484375 103.984375 L 108.984375 102.5 L 116.015625 88.515625 L 117.03125 76.484375 L 113.984375 59.53125 L 116.015625 56.015625 L 120 55 C 119.21875 52.96875 120 52.34375 122.5 52.96875 L 130.46875 47.96875 L 139.53125 46.015625 L 141.484375 43.984375 L 144.53125 43.984375 Z M 153.515625 40 " transform="matrix(0.05,0,0,0.05,0,0)"/>
</g>
<mask id="mask1">
  <g filter="url(#alpha)">
<rect x="0" y="0" width="20" height="20" style="fill:rgb(0%,0%,0%);fill-opacity:0.494118;stroke:none;"/>
  </g>
</mask>
<clipPath id="clip2">
  <rect x="0" y="0" width="20" height="20"/>
</clipPath>
<g id="surface10" clip-path="url(#clip2)">
<path style="fill-rule:nonzero;fill:rgb(49.411765%,49.411765%,49.411765%);fill-opacity:1;stroke-width:1;stroke-linecap:butt;stroke-linejoin:miter;stroke:rgb(49.411765%,49.411765%,49.411765%);stroke-opacity:1;stroke-miterlimit:4;" d="M 160.46875 40 L 163.984375 41.484375 L 165 45.46875 L 172.03125 56.015625 L 185.46875 63.984375 C 190.3125 63.515625 193.671875 64.53125 195.46875 67.03125 L 204.53125 67.03125 L 218.515625 62.03125 L 228.984375 53.515625 C 228.515625 52.03125 229.0625 51.5625 230.46875 52.03125 L 236.015625 44.53125 C 235.546875 42.03125 236.015625 40.546875 237.5 40 L 241.015625 40.46875 L 237.96875 42.5 L 232.03125 53.984375 L 230 53.984375 L 230 56.015625 L 227.96875 56.015625 C 228.75 57.8125 228.203125 58.4375 226.484375 57.96875 L 222.5 62.03125 L 214.53125 66.015625 L 207.5 67.96875 L 192.5 67.96875 C 184.21875 65.78125 177.421875 62.5 172.03125 57.96875 L 172.03125 56.015625 L 170 56.015625 L 170 53.984375 C 168.203125 54.765625 167.5 54.21875 167.96875 52.5 Z M 160.46875 40 " transform="matrix(0.05,0,0,0.05,0,0)"/>
</g>
<mask id="mask2">
  <g filter="url(#alpha)">
<rect x="0" y="0" width="20" height="20" style="fill:rgb(0%,0%,0%);fill-opacity:0.494118;stroke:none;"/>
  </g>
</mask>
<clipPath id="clip3">
  <rect x="0" y="0" width="20" height="20"/>
</clipPath>
<g id="surface13" clip-path="url(#clip3)">
<path style="fill-rule:nonzero;fill:rgb(49.411765%,49.411765%,49.411765%);fill-opacity:1;stroke-width:1;stroke-linecap:butt;stroke-linejoin:miter;stroke:rgb(49.411765%,49.411765%,49.411765%);stroke-opacity:1;stroke-miterlimit:4;" d="M 242.5 40 L 246.484375 40 L 255.46875 43.984375 L 258.515625 43.984375 L 260.46875 46.015625 L 263.515625 46.015625 L 265.46875 47.96875 L 269.53125 47.96875 L 272.5 51.015625 C 277.734375 52.109375 281.875 54.296875 285 57.5 L 286.015625 63.515625 L 283.984375 66.484375 L 282.96875 79.53125 L 283.984375 80.46875 L 285 91.484375 L 292.03125 103.984375 L 296.015625 106.484375 C 295.546875 108.046875 296.015625 108.515625 297.5 107.96875 L 308.515625 115 L 321.484375 117.03125 L 322.5 116.015625 L 331.484375 116.015625 C 333.4375 114.296875 336.40625 113.59375 340.46875 113.984375 L 343.984375 116.015625 L 345 120 C 346.796875 119.296875 347.5 119.765625 347.03125 121.484375 L 348.984375 127.5 L 352.03125 130.46875 L 352.03125 134.53125 C 353.828125 135 354.53125 136.71875 353.984375 139.53125 L 356.015625 141.484375 L 360 153.515625 L 360 157.5 L 358.984375 157.5 L 350 131.484375 L 340.46875 116.015625 L 334.53125 116.015625 L 330.46875 117.96875 L 319.53125 118.984375 C 318.515625 117.34375 316.171875 117.03125 312.5 117.96875 L 302.5 113.984375 L 296.015625 109.53125 C 296.5625 108.046875 296.015625 107.5 294.53125 107.96875 C 290 104.21875 286.484375 99.375 283.984375 93.515625 C 284.375 90.46875 283.75 88.4375 282.03125 87.5 L 281.015625 74.53125 L 283.984375 64.53125 L 283.984375 59.53125 L 268.515625 50 L 253.515625 43.984375 L 244.53125 42.03125 Z M 242.5 40 " transform="matrix(0.05,0,0,0.05,0,0)"/>
</g>
<mask id="mask3">
  <g filter="url(#alpha)">
<rect x="0" y="0" width="20" height="20" style="fill:rgb(0%,0%,0%);fill-opacity:0.494118;stroke:none;"/>
  </g>
</mask>
<clipPath id="clip4">
  <rect x="0" y="0" width="20" height="20"/>
</clipPath>
<g id="surface16" clip-path="url(#clip4)">
<path style="fill-rule:nonzero;fill:rgb(49.411765%,49.411765%,49.411765%);fill-opacity:1;stroke-width:1;stroke-linecap:butt;stroke-linejoin:miter;stroke:rgb(49.411765%,49.411765%,49.411765%);stroke-opacity:1;stroke-miterlimit:4;" d="M 40.46875 158.984375 L 42.5 162.03125 L 56.015625 170.46875 L 57.96875 173.515625 L 61.015625 176.484375 L 67.03125 188.515625 C 68.671875 193.515625 68.984375 199.84375 67.96875 207.5 C 65.78125 215.78125 62.5 222.578125 57.96875 227.96875 L 56.015625 227.96875 L 56.015625 230 L 53.984375 230 C 54.765625 231.796875 54.21875 232.5 52.5 232.03125 L 41.015625 239.53125 L 40.46875 241.015625 L 40 237.5 L 51.484375 231.015625 L 56.015625 226.484375 L 57.96875 223.515625 L 63.984375 214.53125 C 63.828125 210 64.765625 206.640625 67.03125 204.53125 L 67.03125 195.46875 C 64.53125 193.671875 63.515625 190.3125 63.984375 185.46875 L 56.015625 172.03125 L 50.46875 167.96875 L 47.96875 167.96875 C 48.75 166.171875 48.203125 165.546875 46.484375 166.015625 L 40 162.5 Z M 40.46875 158.984375 " transform="matrix(0.05,0,0,0.05,0,0)"/>
</g>
<mask id="mask4">
  <g filter="url(#alpha)">
<rect x="0" y="0" width="20" height="20" style="fill:rgb(0%,0%,0%);fill-opacity:0.494118;stroke:none;"/>
  </g>
</mask>
<clipPath id="clip5">
  <rect x="0" y="0" width="20" height="20"/>
</clipPath>
<g id="surface19" clip-path="url(#clip5)">
<path style="fill-rule:nonzero;fill:rgb(49.411765%,49.411765%,49.411765%);fill-opacity:1;stroke-width:1;stroke-linecap:butt;stroke-linejoin:miter;stroke:rgb(49.411765%,49.411765%,49.411765%);stroke-opacity:1;stroke-miterlimit:4;" d="M 195.46875 158.984375 L 196.015625 160.46875 L 180 166.484375 L 180 167.96875 L 176.015625 167.96875 L 176.015625 169.53125 L 172.03125 172.03125 L 165 181.484375 L 162.03125 194.53125 L 160 196.484375 L 160 203.515625 L 162.03125 205.46875 L 165 218.515625 C 167.5 219.375 168.515625 221.171875 167.96875 223.984375 L 172.03125 226.484375 C 171.5625 228.046875 172.03125 228.515625 173.515625 227.96875 L 176.015625 232.03125 L 180 232.03125 L 180 233.515625 L 196.015625 239.53125 L 195.46875 241.015625 C 183.359375 238.828125 174.21875 233.671875 167.96875 225.46875 C 161.5625 218.984375 158.515625 208.984375 158.984375 195.46875 L 161.015625 186.484375 L 167.96875 173.984375 C 169.765625 174.765625 170.46875 174.21875 170 172.5 C 175.9375 165.46875 184.453125 160.9375 195.46875 158.984375 Z M 195.46875 158.984375 " transform="matrix(0.05,0,0,0.05,0,0)"/>
</g>
<mask id="mask5">
  <g filter="url(#alpha)">
<rect x="0" y="0" width="20" height="20" style="fill:rgb(0%,0%,0%);fill-opacity:0.494118;stroke:none;"/>
  </g>
</mask>
<clipPath id="clip6">
  <rect x="0" y="0" width="20" height="20"/>
</clipPath>
<g id="surface22" clip-path="url(#clip6)">
<path style="fill-rule:nonzero;fill:rgb(49.411765%,49.411765%,49.411765%);fill-opacity:1;stroke-width:1;stroke-linecap:butt;stroke-linejoin:miter;stroke:rgb(49.411765%,49.411765%,49.411765%);stroke-opacity:1;stroke-miterlimit:4;" d="M 197.5 158.984375 L 204.53125 158.984375 L 213.515625 161.015625 C 221.171875 163.984375 227.34375 168.515625 232.03125 174.53125 C 238.203125 180.625 241.171875 190 241.015625 202.5 L 240 202.5 L 240 196.484375 L 237.96875 194.53125 L 235 181.484375 C 232.5 180.703125 231.484375 178.828125 232.03125 176.015625 L 228.984375 174.53125 L 227.5 172.03125 L 218.515625 165 L 205.46875 162.03125 L 203.515625 160 L 197.5 160 Z M 197.5 158.984375 " transform="matrix(0.05,0,0,0.05,0,0)"/>
</g>
<mask id="mask6">
  <g filter="url(#alpha)">
<rect x="0" y="0" width="20" height="20" style="fill:rgb(0%,0%,0%);fill-opacity:0.494118;stroke:none;"/>
  </g>
</mask>
<clipPath id="clip7">
  <rect x="0" y="0" width="20" height="20"/>
</clipPath>
<g id="surface25" clip-path="url(#clip7)">
<path style="fill-rule:nonzero;fill:rgb(49.411765%,49.411765%,49.411765%);fill-opacity:1;stroke-width:1;stroke-linecap:butt;stroke-linejoin:miter;stroke:rgb(49.411765%,49.411765%,49.411765%);stroke-opacity:1;stroke-miterlimit:4;" d="M 359.53125 158.984375 L 360 161.484375 L 352.03125 166.484375 C 352.5 168.203125 351.71875 168.75 349.53125 167.96875 L 347.96875 171.015625 L 342.96875 174.53125 L 341.015625 177.5 L 336.015625 185.46875 C 336.171875 190 335.234375 193.359375 332.96875 195.46875 L 332.96875 203.515625 C 335.3125 205.859375 336.328125 209.53125 336.015625 214.53125 L 341.015625 223.984375 C 342.8125 223.28125 343.4375 223.75 342.96875 225.46875 L 343.984375 227.96875 L 347.96875 228.984375 L 349.53125 232.03125 L 360 237.5 L 360 246.484375 L 356.015625 255.46875 L 356.015625 258.515625 L 353.984375 260.46875 L 352.03125 269.53125 C 348.75 271.796875 347.03125 275.234375 347.03125 280 C 345.234375 279.296875 344.53125 279.765625 345 281.484375 L 343.984375 283.984375 L 340.46875 286.015625 L 336.484375 286.015625 L 332.5 283.984375 L 320.46875 282.96875 L 319.53125 283.984375 L 308.515625 285 L 296.015625 292.5 L 293.515625 296.015625 C 292.03125 295.546875 291.5625 296.015625 292.03125 297.5 L 285 308.515625 L 282.96875 323.515625 L 286.015625 340.46875 L 283.515625 343.984375 L 280 345 C 280.859375 347.1875 279.6875 347.890625 276.484375 347.03125 L 258.515625 356.015625 L 243.515625 360 L 244.53125 357.96875 C 260 354.453125 273.125 348.671875 283.984375 340.46875 L 283.984375 334.53125 L 282.03125 331.484375 C 282.890625 328.359375 282.5 326.328125 281.015625 325.46875 L 281.015625 318.515625 L 283.984375 306.484375 L 287.96875 298.515625 L 298.515625 287.96875 L 312.5 282.03125 L 325.46875 281.015625 L 334.53125 283.984375 L 340.46875 283.984375 L 345 278.515625 L 352.03125 263.515625 L 352.03125 260.46875 L 355 256.484375 L 358.984375 243.515625 L 358.984375 239.53125 L 346.015625 232.03125 L 346.015625 230 L 343.984375 230 L 343.984375 227.96875 C 342.1875 228.75 341.5625 228.203125 342.03125 226.484375 C 337.734375 222.421875 334.765625 217.109375 332.96875 210.46875 C 331.40625 205.78125 331.09375 199.765625 332.03125 192.5 C 334.21875 184.21875 337.5 177.421875 342.03125 172.03125 L 343.984375 172.03125 L 343.984375 170 L 346.015625 170 C 345.234375 168.203125 345.78125 167.5 347.5 167.96875 Z M 359.53125 158.984375 " transform="matrix(0.05,0,0,0.05,0,0)"/>
</g>
<mask id="mask7">
  <g filter="url(#alpha)">
<rect x="0" y="0" width="20" height="20" style="fill:rgb(0%,0%,0%);fill-opacity:0.494118;stroke:none;"/>
  </g>
</mask>
<clipPath id="clip8">
  <rect x="0" y="0" width="20" height="20"/>
</clipPath>
<g id="surface28" clip-path="url(#clip8)">
<path style="fill-rule:nonzero;fill:rgb(49.411765%,49.411765%,49.411765%);fill-opacity:1;stroke-width:1;stroke-linecap:butt;stroke-linejoin:miter;stroke:rgb(49.411765%,49.411765%,49.411765%);stroke-opacity:1;stroke-miterlimit:4;" d="M 239.53125 203.984375 L 241.015625 204.53125 C 238.90625 216.796875 233.75 225.9375 225.46875 232.03125 C 219.375 238.203125 210 241.171875 197.5 241.015625 L 197.5 240 L 203.515625 240 L 205.46875 237.96875 L 218.515625 235 L 227.96875 227.96875 L 230.46875 223.984375 C 232.265625 224.53125 232.734375 223.671875 232.03125 221.484375 L 235 218.515625 L 237.96875 205.46875 Z M 239.53125 203.984375 " transform="matrix(0.05,0,0,0.05,0,0)"/>
</g>
<mask id="mask8">
  <g filter="url(#alpha)">
<rect x="0" y="0" width="20" height="20" style="fill:rgb(0%,0%,0%);fill-opacity:0.494118;stroke:none;"/>
  </g>
</mask>
<clipPath id="clip9">
  <rect x="0" y="0" width="20" height="20"/>
</clipPath>
<g id="surface31" clip-path="url(#clip9)">
<path style="fill-rule:nonzero;fill:rgb(49.411765%,49.411765%,49.411765%);fill-opacity:1;stroke-width:1;stroke-linecap:butt;stroke-linejoin:miter;stroke:rgb(49.411765%,49.411765%,49.411765%);stroke-opacity:1;stroke-miterlimit:4;" d="M 40.46875 242.03125 L 50 268.515625 L 59.53125 283.984375 L 65.46875 283.984375 L 68.515625 282.03125 L 80.46875 281.015625 L 97.5 286.015625 L 110 296.484375 C 116.015625 303.203125 118.984375 312.8125 118.984375 325.46875 L 116.015625 335.46875 L 116.015625 342.03125 L 131.484375 350 L 157.96875 359.53125 L 153.515625 360 L 150.46875 357.96875 L 146.484375 357.96875 C 146.015625 356.171875 144.375 355.546875 141.484375 356.015625 L 139.53125 353.984375 L 136.484375 353.984375 L 134.53125 352.03125 L 130.46875 352.03125 C 128.203125 348.75 124.765625 347.03125 120 347.03125 C 120.703125 345.234375 120.234375 344.53125 118.515625 345 L 113.984375 341.484375 L 117.03125 320.46875 L 116.015625 319.53125 L 116.015625 311.484375 L 111.015625 300 C 109.21875 300.703125 108.515625 300.234375 108.984375 298.515625 L 107.96875 296.015625 L 103.984375 293.515625 C 104.53125 292.03125 104.0625 291.5625 102.5 292.03125 L 91.484375 285 L 76.484375 282.96875 L 66.484375 285 L 57.5 285 L 55 280 C 52.8125 280.859375 52.109375 279.6875 52.96875 276.484375 C 51.015625 275.703125 50.3125 273.828125 51.015625 271.015625 L 47.96875 269.53125 L 47.96875 265.46875 L 46.015625 263.515625 L 46.015625 260.46875 L 40 246.484375 Z M 40.46875 242.03125 " transform="matrix(0.05,0,0,0.05,0,0)"/>
</g>
<mask id="mask9">
  <g filter="url(#alpha)">
<rect x="0" y="0" width="20" height="20" style="fill:rgb(0%,0%,0%);fill-opacity:0.494118;stroke:none;"/>
  </g>
</mask>
<clipPath id="clip10">
  <rect x="0" y="0" width="20" height="20"/>
</clipPath>
<g id="surface34" clip-path="url(#clip10)">
<path style="fill-rule:nonzero;fill:rgb(49.411765%,49.411765%,49.411765%);fill-opacity:1;stroke-width:1;stroke-linecap:butt;stroke-linejoin:miter;stroke:rgb(49.411765%,49.411765%,49.411765%);stroke-opacity:1;stroke-miterlimit:4;" d="M 192.5 332.03125 C 200.15625 331.015625 206.484375 331.328125 211.484375 332.96875 L 222.5 337.96875 L 227.96875 342.03125 L 227.96875 343.984375 L 230 343.984375 L 230 346.015625 C 231.796875 345.234375 232.5 345.78125 232.03125 347.5 L 240 359.53125 L 237.5 360 C 236.015625 359.53125 235.546875 358.046875 236.015625 355.46875 L 232.03125 351.484375 L 232.03125 349.53125 L 227.96875 343.984375 L 223.984375 342.5 C 224.53125 341.015625 224.0625 340.546875 222.5 341.015625 L 214.53125 336.015625 C 210 336.171875 206.640625 335.234375 204.53125 332.96875 L 195.46875 332.96875 L 179.53125 338.984375 L 167.96875 349.53125 L 162.5 360 L 160 359.53125 L 167.96875 346.015625 L 170 346.015625 L 170 343.984375 L 172.03125 343.984375 C 171.25 342.1875 171.796875 341.5625 173.515625 342.03125 L 177.5 337.96875 Z M 192.5 332.03125 " transform="matrix(0.05,0,0,0.05,0,0)"/>
</g>
<mask id="mask10">
  <g filter="url(#alpha)">
<rect x="0" y="0" width="20" height="20" style="fill:rgb(0%,0%,0%);fill-opacity:0.996078;stroke:none;"/>
  </g>
</mask>
<clipPath id="clip11">
  <rect x="0" y="0" width="20" height="20"/>
</clipPath>
<g id="surface37" clip-path="url(#clip11)">
<path style="fill-rule:nonzero;fill:rgb(49.803922%,49.803922%,49.803922%);fill-opacity:1;stroke-width:1;stroke-linecap:butt;stroke-linejoin:miter;stroke:rgb(49.803922%,49.803922%,49.803922%);stroke-opacity:1;stroke-miterlimit:4;" d="M 158.515625 40 L 162.03125 42.5 L 167.96875 52.5 L 165.46875 51.015625 C 163.75 51.5625 163.28125 50.703125 163.984375 48.515625 L 159.53125 42.03125 L 151.484375 43.984375 L 151.484375 42.96875 Z M 158.515625 40 " transform="matrix(0.05,0,0,0.05,0,0)"/>
</g>
<mask id="mask11">
  <g filter="url(#alpha)">
<rect x="0" y="0" width="20" height="20" style="fill:rgb(0%,0%,0%);fill-opacity:0.996078;stroke:none;"/>
  </g>
</mask>
<clipPath id="clip12">
  <rect x="0" y="0" width="20" height="20"/>
</clipPath>
<g id="surface40" clip-path="url(#clip12)">
<path style="fill-rule:nonzero;fill:rgb(49.803922%,49.803922%,49.803922%);fill-opacity:1;stroke-width:1;stroke-linecap:butt;stroke-linejoin:miter;stroke:rgb(49.803922%,49.803922%,49.803922%);stroke-opacity:1;stroke-miterlimit:4;" d="M 241.484375 40 L 250 43.515625 L 245.46875 43.984375 L 240.46875 42.03125 C 237.734375 43.90625 236.171875 46.953125 236.015625 51.015625 L 232.96875 52.5 L 232.03125 56.015625 L 227.96875 58.515625 C 228.515625 60.234375 227.734375 60.703125 225.46875 60 L 223.984375 62.96875 L 216.484375 65 L 213.515625 67.96875 L 208.515625 67.96875 L 208.515625 67.03125 L 214.53125 66.015625 L 227.96875 57.96875 L 227.96875 56.015625 L 230 56.015625 L 230 53.984375 C 231.796875 54.765625 232.5 54.21875 232.03125 52.5 L 239.53125 41.015625 Z M 241.484375 40 " transform="matrix(0.05,0,0,0.05,0,0)"/>
</g>
<mask id="mask12">
  <g filter="url(#alpha)">
<rect x="0" y="0" width="20" height="20" style="fill:rgb(0%,0%,0%);fill-opacity:0.996078;stroke:none;"/>
  </g>
</mask>
<clipPath id="clip13">
  <rect x="0" y="0" width="20" height="20"/>
</clipPath>
<g id="surface43" clip-path="url(#clip13)">
<path style="fill-rule:nonzero;fill:rgb(49.803922%,49.803922%,49.803922%);fill-opacity:1;stroke-width:1;stroke-linecap:butt;stroke-linejoin:miter;stroke:rgb(49.803922%,49.803922%,49.803922%);stroke-opacity:1;stroke-miterlimit:4;" d="M 147.5 43.984375 L 145.46875 47.03125 L 140.46875 47.96875 L 141.484375 46.015625 Z M 147.5 43.984375 " transform="matrix(0.05,0,0,0.05,0,0)"/>
</g>
<mask id="mask13">
  <g filter="url(#alpha)">
<rect x="0" y="0" width="20" height="20" style="fill:rgb(0%,0%,0%);fill-opacity:0.996078;stroke:none;"/>
  </g>
</mask>
<clipPath id="clip14">
  <rect x="0" y="0" width="20" height="20"/>
</clipPath>
<g id="surface46" clip-path="url(#clip14)">
<path style="fill-rule:nonzero;fill:rgb(49.803922%,49.803922%,49.803922%);fill-opacity:1;stroke-width:1;stroke-linecap:butt;stroke-linejoin:miter;stroke:rgb(49.803922%,49.803922%,49.803922%);stroke-opacity:1;stroke-miterlimit:4;" d="M 252.5 43.984375 L 261.015625 47.5 L 257.5 47.96875 C 254.453125 47.5 252.734375 46.171875 252.5 43.984375 Z M 252.5 43.984375 " transform="matrix(0.05,0,0,0.05,0,0)"/>
</g>
<mask id="mask14">
  <g filter="url(#alpha)">
<rect x="0" y="0" width="20" height="20" style="fill:rgb(0%,0%,0%);fill-opacity:0.996078;stroke:none;"/>
  </g>
</mask>
<clipPath id="clip15">
  <rect x="0" y="0" width="20" height="20"/>
</clipPath>
<g id="surface49" clip-path="url(#clip15)">
<path style="fill-rule:nonzero;fill:rgb(49.803922%,49.803922%,49.803922%);fill-opacity:1;stroke-width:1;stroke-linecap:butt;stroke-linejoin:miter;stroke:rgb(49.803922%,49.803922%,49.803922%);stroke-opacity:1;stroke-miterlimit:4;" d="M 136.484375 47.96875 L 137.96875 48.515625 L 116.484375 60 L 118.515625 57.03125 Z M 136.484375 47.96875 " transform="matrix(0.05,0,0,0.05,0,0)"/>
</g>
<mask id="mask15">
  <g filter="url(#alpha)">
<rect x="0" y="0" width="20" height="20" style="fill:rgb(0%,0%,0%);fill-opacity:0.996078;stroke:none;"/>
  </g>
</mask>
<clipPath id="clip16">
  <rect x="0" y="0" width="20" height="20"/>
</clipPath>
<g id="surface52" clip-path="url(#clip16)">
<path style="fill-rule:nonzero;fill:rgb(49.803922%,49.803922%,49.803922%);fill-opacity:1;stroke-width:1;stroke-linecap:butt;stroke-linejoin:miter;stroke:rgb(49.803922%,49.803922%,49.803922%);stroke-opacity:1;stroke-miterlimit:4;" d="M 262.5 47.96875 C 270.9375 50.625 278.046875 54.453125 283.984375 59.53125 L 282.5 60 L 270.46875 52.03125 L 267.5 52.03125 L 262.5 48.984375 Z M 262.5 47.96875 " transform="matrix(0.05,0,0,0.05,0,0)"/>
</g>
<mask id="mask16">
  <g filter="url(#alpha)">
<rect x="0" y="0" width="20" height="20" style="fill:rgb(0%,0%,0%);fill-opacity:0.996078;stroke:none;"/>
  </g>
</mask>
<clipPath id="clip17">
  <rect x="0" y="0" width="20" height="20"/>
</clipPath>
<g id="surface55" clip-path="url(#clip17)">
<path style="fill-rule:nonzero;fill:rgb(49.803922%,49.803922%,49.803922%);fill-opacity:1;stroke-width:1;stroke-linecap:butt;stroke-linejoin:miter;stroke:rgb(49.803922%,49.803922%,49.803922%);stroke-opacity:1;stroke-miterlimit:4;" d="M 167.96875 53.984375 L 170 53.984375 L 170 56.015625 L 172.03125 56.015625 C 171.25 57.8125 171.796875 58.4375 173.515625 57.96875 C 178.046875 62.890625 184.21875 66.015625 192.03125 67.5 L 186.484375 67.96875 L 183.515625 65 L 176.015625 62.96875 L 174.53125 60 C 172.265625 60.703125 171.484375 60.234375 172.03125 58.515625 L 167.96875 56.015625 Z M 167.96875 53.984375 " transform="matrix(0.05,0,0,0.05,0,0)"/>
</g>
<mask id="mask17">
  <g filter="url(#alpha)">
<rect x="0" y="0" width="20" height="20" style="fill:rgb(0%,0%,0%);fill-opacity:0.996078;stroke:none;"/>
  </g>
</mask>
<clipPath id="clip18">
  <rect x="0" y="0" width="20" height="20"/>
</clipPath>
<g id="surface58" clip-path="url(#clip18)">
<path style="fill-rule:nonzero;fill:rgb(49.803922%,49.803922%,49.803922%);fill-opacity:1;stroke-width:1;stroke-linecap:butt;stroke-linejoin:miter;stroke:rgb(49.803922%,49.803922%,49.803922%);stroke-opacity:1;stroke-miterlimit:4;" d="M 116.484375 62.03125 L 120 71.484375 L 120 84.53125 L 116.015625 96.484375 L 112.5 101.015625 L 112.03125 99.53125 L 117.96875 87.5 L 118.984375 74.53125 L 116.015625 65.46875 Z M 116.484375 62.03125 " transform="matrix(0.05,0,0,0.05,0,0)"/>
</g>
<mask id="mask18">
  <g filter="url(#alpha)">
<rect x="0" y="0" width="20" height="20" style="fill:rgb(0%,0%,0%);fill-opacity:0.996078;stroke:none;"/>
  </g>
</mask>
<clipPath id="clip19">
  <rect x="0" y="0" width="20" height="20"/>
</clipPath>
<g id="surface61" clip-path="url(#clip19)">
<path style="fill-rule:nonzero;fill:rgb(49.803922%,49.803922%,49.803922%);fill-opacity:1;stroke-width:1;stroke-linecap:butt;stroke-linejoin:miter;stroke:rgb(49.803922%,49.803922%,49.803922%);stroke-opacity:1;stroke-miterlimit:4;" d="M 283.515625 62.03125 L 283.984375 64.53125 L 282.03125 68.515625 L 281.015625 80.46875 L 283.984375 93.515625 C 286.484375 99.375 290 104.21875 294.53125 107.96875 C 296.015625 107.5 296.5625 108.046875 296.015625 109.53125 L 297.5 112.03125 L 293.984375 109.53125 C 294.453125 107.734375 293.828125 107.265625 292.03125 107.96875 L 292.03125 106.015625 L 290.46875 106.015625 L 285 98.515625 L 282.03125 88.515625 L 280 86.484375 L 280 70.46875 Z M 283.515625 62.03125 " transform="matrix(0.05,0,0,0.05,0,0)"/>
</g>
<mask id="mask19">
  <g filter="url(#alpha)">
<rect x="0" y="0" width="20" height="20" style="fill:rgb(0%,0%,0%);fill-opacity:0.996078;stroke:none;"/>
  </g>
</mask>
<clipPath id="clip20">
  <rect x="0" y="0" width="20" height="20"/>
</clipPath>
<g id="surface64" clip-path="url(#clip20)">
<path style="fill-rule:nonzero;fill:rgb(49.803922%,49.803922%,49.803922%);fill-opacity:1;stroke-width:1;stroke-linecap:butt;stroke-linejoin:miter;stroke:rgb(49.803922%,49.803922%,49.803922%);stroke-opacity:1;stroke-miterlimit:4;" d="M 193.515625 67.96875 L 207.03125 68.515625 L 193.515625 68.984375 Z M 193.515625 67.96875 " transform="matrix(0.05,0,0,0.05,0,0)"/>
</g>
<mask id="mask20">
  <g filter="url(#alpha)">
<rect x="0" y="0" width="20" height="20" style="fill:rgb(0%,0%,0%);fill-opacity:0.996078;stroke:none;"/>
  </g>
</mask>
<clipPath id="clip21">
  <rect x="0" y="0" width="20" height="20"/>
</clipPath>
<g id="surface67" clip-path="url(#clip21)">
<path style="fill-rule:nonzero;fill:rgb(49.803922%,49.803922%,49.803922%);fill-opacity:1;stroke-width:1;stroke-linecap:butt;stroke-linejoin:miter;stroke:rgb(49.803922%,49.803922%,49.803922%);stroke-opacity:1;stroke-miterlimit:4;" d="M 111.484375 102.03125 L 112.03125 103.515625 L 107.96875 106.015625 L 107.96875 107.96875 C 106.171875 107.265625 105.546875 107.734375 106.015625 109.53125 L 102.5 112.03125 Z M 111.484375 102.03125 " transform="matrix(0.05,0,0,0.05,0,0)"/>
</g>
<mask id="mask21">
  <g filter="url(#alpha)">
<rect x="0" y="0" width="20" height="20" style="fill:rgb(0%,0%,0%);fill-opacity:0.996078;stroke:none;"/>
  </g>
</mask>
<clipPath id="clip22">
  <rect x="0" y="0" width="20" height="20"/>
</clipPath>
<g id="surface70" clip-path="url(#clip22)">
<path style="fill-rule:nonzero;fill:rgb(49.803922%,49.803922%,49.803922%);fill-opacity:1;stroke-width:1;stroke-linecap:butt;stroke-linejoin:miter;stroke:rgb(49.803922%,49.803922%,49.803922%);stroke-opacity:1;stroke-miterlimit:4;" d="M 99.53125 112.03125 L 101.015625 112.5 L 97.5 116.015625 L 87.5 117.96875 L 85.46875 120 L 71.484375 120 L 62.03125 116.484375 L 65.46875 116.015625 L 68.515625 117.96875 L 80.46875 118.984375 L 93.515625 116.015625 Z M 99.53125 112.03125 " transform="matrix(0.05,0,0,0.05,0,0)"/>
</g>
<mask id="mask22">
  <g filter="url(#alpha)">
<rect x="0" y="0" width="20" height="20" style="fill:rgb(0%,0%,0%);fill-opacity:0.996078;stroke:none;"/>
  </g>
</mask>
<clipPath id="clip23">
  <rect x="0" y="0" width="20" height="20"/>
</clipPath>
<g id="surface73" clip-path="url(#clip23)">
<path style="fill-rule:nonzero;fill:rgb(49.803922%,49.803922%,49.803922%);fill-opacity:1;stroke-width:1;stroke-linecap:butt;stroke-linejoin:miter;stroke:rgb(49.803922%,49.803922%,49.803922%);stroke-opacity:1;stroke-miterlimit:4;" d="M 300.46875 112.03125 L 312.5 117.96875 L 322.5 118.984375 L 337.5 116.015625 L 337.5 117.03125 L 334.53125 117.03125 L 328.515625 120 L 316.484375 120 L 303.515625 116.015625 L 300 113.515625 Z M 300.46875 112.03125 " transform="matrix(0.05,0,0,0.05,0,0)"/>
</g>
<mask id="mask23">
  <g filter="url(#alpha)">
<rect x="0" y="0" width="20" height="20" style="fill:rgb(0%,0%,0%);fill-opacity:0.996078;stroke:none;"/>
  </g>
</mask>
<clipPath id="clip24">
  <rect x="0" y="0" width="20" height="20"/>
</clipPath>
<g id="surface76" clip-path="url(#clip24)">
<path style="fill-rule:nonzero;fill:rgb(49.803922%,49.803922%,49.803922%);fill-opacity:1;stroke-width:1;stroke-linecap:butt;stroke-linejoin:miter;stroke:rgb(49.803922%,49.803922%,49.803922%);stroke-opacity:1;stroke-miterlimit:4;" d="M 59.53125 116.015625 L 60 117.5 L 56.015625 122.5 L 48.515625 137.96875 L 47.96875 136.484375 L 55 121.484375 Z M 59.53125 116.015625 " transform="matrix(0.05,0,0,0.05,0,0)"/>
</g>
<mask id="mask24">
  <g filter="url(#alpha)">
<rect x="0" y="0" width="20" height="20" style="fill:rgb(0%,0%,0%);fill-opacity:0.996078;stroke:none;"/>
  </g>
</mask>
<clipPath id="clip25">
  <rect x="0" y="0" width="20" height="20"/>
</clipPath>
<g id="surface79" clip-path="url(#clip25)">
<path style="fill-rule:nonzero;fill:rgb(49.803922%,49.803922%,49.803922%);fill-opacity:1;stroke-width:1;stroke-linecap:butt;stroke-linejoin:miter;stroke:rgb(49.803922%,49.803922%,49.803922%);stroke-opacity:1;stroke-miterlimit:4;" d="M 340.46875 116.015625 C 344.0625 119.21875 346.5625 123.359375 347.96875 128.515625 L 346.015625 127.5 L 340 117.5 Z M 340.46875 116.015625 " transform="matrix(0.05,0,0,0.05,0,0)"/>
</g>
<mask id="mask25">
  <g filter="url(#alpha)">
<rect x="0" y="0" width="20" height="20" style="fill:rgb(0%,0%,0%);fill-opacity:0.996078;stroke:none;"/>
  </g>
</mask>
<clipPath id="clip26">
  <rect x="0" y="0" width="20" height="20"/>
</clipPath>
<g id="surface82" clip-path="url(#clip26)">
<path style="fill-rule:nonzero;fill:rgb(49.803922%,49.803922%,49.803922%);fill-opacity:1;stroke-width:1;stroke-linecap:butt;stroke-linejoin:miter;stroke:rgb(49.803922%,49.803922%,49.803922%);stroke-opacity:1;stroke-miterlimit:4;" d="M 348.515625 130 L 352.03125 137.5 L 351.015625 137.5 L 347.96875 132.5 Z M 348.515625 130 " transform="matrix(0.05,0,0,0.05,0,0)"/>
</g>
<mask id="mask26">
  <g filter="url(#alpha)">
<rect x="0" y="0" width="20" height="20" style="fill:rgb(0%,0%,0%);fill-opacity:0.996078;stroke:none;"/>
  </g>
</mask>
<clipPath id="clip27">
  <rect x="0" y="0" width="20" height="20"/>
</clipPath>
<g id="surface85" clip-path="url(#clip27)">
<path style="fill-rule:nonzero;fill:rgb(49.803922%,49.803922%,49.803922%);fill-opacity:1;stroke-width:1;stroke-linecap:butt;stroke-linejoin:miter;stroke:rgb(49.803922%,49.803922%,49.803922%);stroke-opacity:1;stroke-miterlimit:4;" d="M 47.5 138.984375 L 47.96875 142.5 L 44.53125 147.96875 L 43.984375 146.484375 Z M 47.5 138.984375 " transform="matrix(0.05,0,0,0.05,0,0)"/>
</g>
<mask id="mask27">
  <g filter="url(#alpha)">
<rect x="0" y="0" width="20" height="20" style="fill:rgb(0%,0%,0%);fill-opacity:0.996078;stroke:none;"/>
  </g>
</mask>
<clipPath id="clip28">
  <rect x="0" y="0" width="20" height="20"/>
</clipPath>
<g id="surface88" clip-path="url(#clip28)">
<path style="fill-rule:nonzero;fill:rgb(49.803922%,49.803922%,49.803922%);fill-opacity:1;stroke-width:1;stroke-linecap:butt;stroke-linejoin:miter;stroke:rgb(49.803922%,49.803922%,49.803922%);stroke-opacity:1;stroke-miterlimit:4;" d="M 352.5 138.984375 L 356.015625 147.5 L 355 147.5 C 352.109375 145.703125 351.328125 142.890625 352.5 138.984375 Z M 352.5 138.984375 " transform="matrix(0.05,0,0,0.05,0,0)"/>
</g>
<mask id="mask28">
  <g filter="url(#alpha)">
<rect x="0" y="0" width="20" height="20" style="fill:rgb(0%,0%,0%);fill-opacity:0.996078;stroke:none;"/>
  </g>
</mask>
<clipPath id="clip29">
  <rect x="0" y="0" width="20" height="20"/>
</clipPath>
<g id="surface91" clip-path="url(#clip29)">
<path style="fill-rule:nonzero;fill:rgb(49.803922%,49.803922%,49.803922%);fill-opacity:1;stroke-width:1;stroke-linecap:butt;stroke-linejoin:miter;stroke:rgb(49.803922%,49.803922%,49.803922%);stroke-opacity:1;stroke-miterlimit:4;" d="M 43.515625 150 L 43.984375 155.46875 L 42.03125 159.53125 L 44.53125 162.03125 L 51.015625 163.984375 L 52.5 167.03125 L 56.015625 167.96875 L 58.515625 172.03125 C 60.234375 171.484375 60.703125 172.265625 60 174.53125 L 62.96875 176.015625 L 65 183.515625 L 67.96875 186.484375 L 67.96875 191.484375 L 67.03125 191.484375 L 63.984375 181.484375 L 57.96875 172.03125 C 56.171875 172.734375 55.546875 172.265625 56.015625 170.46875 L 41.015625 160.46875 L 40 158.515625 Z M 43.515625 150 " transform="matrix(0.05,0,0,0.05,0,0)"/>
</g>
<mask id="mask29">
  <g filter="url(#alpha)">
<rect x="0" y="0" width="20" height="20" style="fill:rgb(0%,0%,0%);fill-opacity:0.996078;stroke:none;"/>
  </g>
</mask>
<clipPath id="clip30">
  <rect x="0" y="0" width="20" height="20"/>
</clipPath>
<g id="surface94" clip-path="url(#clip30)">
<path style="fill-rule:nonzero;fill:rgb(49.803922%,49.803922%,49.803922%);fill-opacity:1;stroke-width:1;stroke-linecap:butt;stroke-linejoin:miter;stroke:rgb(49.803922%,49.803922%,49.803922%);stroke-opacity:1;stroke-miterlimit:4;" d="M 356.484375 150 L 360 158.515625 C 356.40625 163.046875 351.71875 166.171875 346.015625 167.96875 L 346.015625 170 L 343.984375 170 L 343.984375 172.03125 C 342.1875 171.25 341.5625 171.796875 342.03125 173.515625 C 337.1875 178.046875 334.0625 184.21875 332.5 192.03125 L 332.03125 186.484375 L 335 183.515625 L 337.03125 176.015625 L 340 174.53125 C 339.296875 172.265625 339.765625 171.484375 341.484375 172.03125 L 343.984375 167.96875 L 348.984375 165.46875 C 348.4375 163.75 349.296875 163.28125 351.484375 163.984375 C 352.265625 162.1875 353.75 161.5625 356.015625 162.03125 C 355.3125 160 356.015625 159.296875 357.96875 160 L 357.96875 157.5 C 355.859375 156.015625 355.390625 153.515625 356.484375 150 Z M 356.484375 150 " transform="matrix(0.05,0,0,0.05,0,0)"/>
</g>
<mask id="mask30">
  <g filter="url(#alpha)">
<rect x="0" y="0" width="20" height="20" style="fill:rgb(0%,0%,0%);fill-opacity:0.996078;stroke:none;"/>
  </g>
</mask>
<clipPath id="clip31">
  <rect x="0" y="0" width="20" height="20"/>
</clipPath>
<g id="surface97" clip-path="url(#clip31)">
<path style="fill-rule:nonzero;fill:rgb(49.803922%,49.803922%,49.803922%);fill-opacity:1;stroke-width:1;stroke-linecap:butt;stroke-linejoin:miter;stroke:rgb(49.803922%,49.803922%,49.803922%);stroke-opacity:1;stroke-miterlimit:4;" d="M 194.53125 157.96875 L 205.46875 157.96875 L 214.53125 160 L 222.5 163.984375 L 232.03125 172.5 L 240 185.46875 L 242.03125 194.53125 L 242.03125 205.46875 L 240 214.53125 L 236.015625 222.5 L 227.5 232.03125 L 214.53125 240 L 205.46875 242.03125 L 194.53125 242.03125 L 185.46875 240 L 177.5 236.015625 L 167.96875 227.5 L 160 214.53125 L 157.96875 205.46875 L 157.96875 194.53125 L 160 185.46875 L 163.984375 179.53125 L 163.984375 176.015625 L 167.96875 173.515625 L 172.5 167.96875 L 185.46875 160 C 189.53125 160.390625 192.578125 159.765625 194.53125 157.96875 Z M 196.015625 158.984375 C 184.6875 161.015625 176.015625 165.703125 170 172.96875 C 170.703125 174.296875 170 174.6875 167.96875 173.984375 L 161.015625 187.03125 L 158.984375 196.015625 C 158.359375 209.296875 161.328125 219.296875 167.96875 226.015625 C 173.359375 233.984375 182.34375 238.671875 195 240 L 197.96875 241.015625 C 210 241.015625 219.296875 237.96875 226.015625 232.03125 C 233.984375 226.640625 238.671875 217.96875 240 206.015625 L 241.015625 202.96875 C 241.015625 190.3125 237.96875 181.015625 232.03125 175 C 227.34375 168.359375 221.328125 163.671875 213.984375 161.015625 L 205 158.984375 Z M 196.015625 158.984375 " transform="matrix(0.05,0,0,0.05,0,0)"/>
</g>
<mask id="mask31">
  <g filter="url(#alpha)">
<rect x="0" y="0" width="20" height="20" style="fill:rgb(0%,0%,0%);fill-opacity:0.996078;stroke:none;"/>
  </g>
</mask>
<clipPath id="clip32">
  <rect x="0" y="0" width="20" height="20"/>
</clipPath>
<g id="surface100" clip-path="url(#clip32)">
<path style="fill-rule:nonzero;fill:rgb(49.803922%,49.803922%,49.803922%);fill-opacity:1;stroke-width:1;stroke-linecap:butt;stroke-linejoin:miter;stroke:rgb(49.803922%,49.803922%,49.803922%);stroke-opacity:1;stroke-miterlimit:4;" d="M 68.515625 192.96875 L 68.984375 206.484375 L 67.96875 206.484375 Z M 68.515625 192.96875 " transform="matrix(0.05,0,0,0.05,0,0)"/>
</g>
<mask id="mask32">
  <g filter="url(#alpha)">
<rect x="0" y="0" width="20" height="20" style="fill:rgb(0%,0%,0%);fill-opacity:0.996078;stroke:none;"/>
  </g>
</mask>
<clipPath id="clip33">
  <rect x="0" y="0" width="20" height="20"/>
</clipPath>
<g id="surface103" clip-path="url(#clip33)">
<path style="fill-rule:nonzero;fill:rgb(49.803922%,49.803922%,49.803922%);fill-opacity:1;stroke-width:1;stroke-linecap:butt;stroke-linejoin:miter;stroke:rgb(49.803922%,49.803922%,49.803922%);stroke-opacity:1;stroke-miterlimit:4;" d="M 331.484375 192.96875 L 332.03125 205.46875 L 331.015625 205.46875 Z M 331.484375 192.96875 " transform="matrix(0.05,0,0,0.05,0,0)"/>
</g>
<mask id="mask33">
  <g filter="url(#alpha)">
<rect x="0" y="0" width="20" height="20" style="fill:rgb(0%,0%,0%);fill-opacity:0.996078;stroke:none;"/>
  </g>
</mask>
<clipPath id="clip34">
  <rect x="0" y="0" width="20" height="20"/>
</clipPath>
<g id="surface106" clip-path="url(#clip34)">
<path style="fill-rule:nonzero;fill:rgb(49.803922%,49.803922%,49.803922%);fill-opacity:1;stroke-width:1;stroke-linecap:butt;stroke-linejoin:miter;stroke:rgb(49.803922%,49.803922%,49.803922%);stroke-opacity:1;stroke-miterlimit:4;" d="M 332.5 207.03125 C 334.21875 215.78125 337.421875 222.8125 342.03125 227.96875 L 343.984375 227.96875 L 346.015625 232.03125 C 344.21875 232.734375 343.515625 232.265625 343.984375 230.46875 L 340 227.96875 L 338.515625 223.984375 C 337.03125 224.53125 336.5625 224.0625 337.03125 222.5 C 335.234375 221.5625 334.609375 219.53125 335 216.484375 L 332.03125 213.515625 Z M 332.5 207.03125 " transform="matrix(0.05,0,0,0.05,0,0)"/>
</g>
<mask id="mask34">
  <g filter="url(#alpha)">
<rect x="0" y="0" width="20" height="20" style="fill:rgb(0%,0%,0%);fill-opacity:0.996078;stroke:none;"/>
  </g>
</mask>
<clipPath id="clip35">
  <rect x="0" y="0" width="20" height="20"/>
</clipPath>
<g id="surface109" clip-path="url(#clip35)">
<path style="fill-rule:nonzero;fill:rgb(49.803922%,49.803922%,49.803922%);fill-opacity:1;stroke-width:1;stroke-linecap:butt;stroke-linejoin:miter;stroke:rgb(49.803922%,49.803922%,49.803922%);stroke-opacity:1;stroke-miterlimit:4;" d="M 67.5 207.96875 L 67.96875 213.515625 L 65 216.484375 L 62.96875 223.984375 L 60 225.46875 C 60.703125 227.734375 60.234375 228.515625 58.515625 227.96875 L 56.015625 232.03125 L 51.015625 234.53125 C 51.5625 236.25 50.703125 236.71875 48.515625 236.015625 L 42.03125 240.46875 L 43.984375 248.515625 L 42.96875 248.515625 L 40 241.484375 L 42.5 237.96875 L 53.984375 232.03125 L 53.984375 230 L 56.015625 230 L 56.015625 227.96875 C 57.8125 228.75 58.4375 228.203125 57.96875 226.484375 C 62.890625 222.03125 66.015625 215.859375 67.5 207.96875 Z M 67.5 207.96875 " transform="matrix(0.05,0,0,0.05,0,0)"/>
</g>
<mask id="mask35">
  <g filter="url(#alpha)">
<rect x="0" y="0" width="20" height="20" style="fill:rgb(0%,0%,0%);fill-opacity:0.996078;stroke:none;"/>
  </g>
</mask>
<clipPath id="clip36">
  <rect x="0" y="0" width="20" height="20"/>
</clipPath>
<g id="surface112" clip-path="url(#clip36)">
<path style="fill-rule:nonzero;fill:rgb(49.803922%,49.803922%,49.803922%);fill-opacity:1;stroke-width:1;stroke-linecap:butt;stroke-linejoin:miter;stroke:rgb(49.803922%,49.803922%,49.803922%);stroke-opacity:1;stroke-miterlimit:4;" d="M 347.5 232.03125 L 358.984375 239.53125 L 358.984375 243.515625 L 356.484375 250 L 356.015625 245.46875 L 357.96875 240.46875 L 350.46875 236.015625 Z M 347.5 232.03125 " transform="matrix(0.05,0,0,0.05,0,0)"/>
</g>
<mask id="mask36">
  <g filter="url(#alpha)">
<rect x="0" y="0" width="20" height="20" style="fill:rgb(0%,0%,0%);fill-opacity:0.996078;stroke:none;"/>
  </g>
</mask>
<clipPath id="clip37">
  <rect x="0" y="0" width="20" height="20"/>
</clipPath>
<g id="surface115" clip-path="url(#clip37)">
<path style="fill-rule:nonzero;fill:rgb(49.803922%,49.803922%,49.803922%);fill-opacity:1;stroke-width:1;stroke-linecap:butt;stroke-linejoin:miter;stroke:rgb(49.803922%,49.803922%,49.803922%);stroke-opacity:1;stroke-miterlimit:4;" d="M 44.53125 252.03125 C 47.265625 252.890625 48.4375 255.390625 47.96875 259.53125 L 47.03125 259.53125 Z M 44.53125 252.03125 " transform="matrix(0.05,0,0,0.05,0,0)"/>
</g>
<mask id="mask37">
  <g filter="url(#alpha)">
<rect x="0" y="0" width="20" height="20" style="fill:rgb(0%,0%,0%);fill-opacity:0.996078;stroke:none;"/>
  </g>
</mask>
<clipPath id="clip38">
  <rect x="0" y="0" width="20" height="20"/>
</clipPath>
<g id="surface118" clip-path="url(#clip38)">
<path style="fill-rule:nonzero;fill:rgb(49.803922%,49.803922%,49.803922%);fill-opacity:1;stroke-width:1;stroke-linecap:butt;stroke-linejoin:miter;stroke:rgb(49.803922%,49.803922%,49.803922%);stroke-opacity:1;stroke-miterlimit:4;" d="M 355.46875 252.03125 L 356.015625 253.515625 L 352.5 260 L 352.03125 257.5 Z M 355.46875 252.03125 " transform="matrix(0.05,0,0,0.05,0,0)"/>
</g>
<mask id="mask38">
  <g filter="url(#alpha)">
<rect x="0" y="0" width="20" height="20" style="fill:rgb(0%,0%,0%);fill-opacity:0.996078;stroke:none;"/>
  </g>
</mask>
<clipPath id="clip39">
  <rect x="0" y="0" width="20" height="20"/>
</clipPath>
<g id="surface121" clip-path="url(#clip39)">
<path style="fill-rule:nonzero;fill:rgb(49.803922%,49.803922%,49.803922%);fill-opacity:1;stroke-width:1;stroke-linecap:butt;stroke-linejoin:miter;stroke:rgb(49.803922%,49.803922%,49.803922%);stroke-opacity:1;stroke-miterlimit:4;" d="M 48.515625 262.03125 L 50 266.015625 C 52.1875 265.15625 52.890625 266.328125 52.03125 269.53125 L 60.46875 282.96875 L 65.46875 282.96875 L 71.484375 280 L 85.46875 280 L 87.5 282.03125 L 97.5 283.984375 C 98.4375 287.1875 100.625 288.515625 103.984375 287.96875 L 103.984375 290 L 106.015625 290 L 106.015625 292.03125 L 107.96875 292.03125 C 107.265625 293.828125 107.734375 294.453125 109.53125 293.984375 L 116.015625 302.5 L 117.96875 312.5 L 120 314.53125 L 120 328.515625 L 116.484375 337.96875 L 116.015625 335.46875 L 117.96875 331.484375 L 118.984375 319.53125 L 117.03125 309.53125 L 113.984375 302.5 L 103.515625 290 L 93.515625 283.984375 L 76.484375 281.015625 C 75.390625 282.8125 72.734375 283.125 68.515625 282.03125 L 65.46875 283.984375 L 59.53125 283.984375 C 54.0625 277.8125 50.390625 270.46875 48.515625 262.03125 Z M 48.515625 262.03125 " transform="matrix(0.05,0,0,0.05,0,0)"/>
</g>
<mask id="mask39">
  <g filter="url(#alpha)">
<rect x="0" y="0" width="20" height="20" style="fill:rgb(0%,0%,0%);fill-opacity:0.996078;stroke:none;"/>
  </g>
</mask>
<clipPath id="clip40">
  <rect x="0" y="0" width="20" height="20"/>
</clipPath>
<g id="surface124" clip-path="url(#clip40)">
<path style="fill-rule:nonzero;fill:rgb(49.803922%,49.803922%,49.803922%);fill-opacity:1;stroke-width:1;stroke-linecap:butt;stroke-linejoin:miter;stroke:rgb(49.803922%,49.803922%,49.803922%);stroke-opacity:1;stroke-miterlimit:4;" d="M 351.484375 262.03125 L 352.03125 263.515625 L 345 278.515625 L 340.46875 283.984375 L 340 282.5 L 343.984375 277.5 Z M 351.484375 262.03125 " transform="matrix(0.05,0,0,0.05,0,0)"/>
</g>
<mask id="mask40">
  <g filter="url(#alpha)">
<rect x="0" y="0" width="20" height="20" style="fill:rgb(0%,0%,0%);fill-opacity:0.996078;stroke:none;"/>
  </g>
</mask>
<clipPath id="clip41">
  <rect x="0" y="0" width="20" height="20"/>
</clipPath>
<g id="surface127" clip-path="url(#clip41)">
<path style="fill-rule:nonzero;fill:rgb(49.803922%,49.803922%,49.803922%);fill-opacity:1;stroke-width:1;stroke-linecap:butt;stroke-linejoin:miter;stroke:rgb(49.803922%,49.803922%,49.803922%);stroke-opacity:1;stroke-miterlimit:4;" d="M 315.46875 280 L 328.515625 280 L 337.96875 283.515625 L 334.53125 283.984375 L 330.46875 282.03125 L 319.53125 281.015625 L 309.53125 282.96875 L 299.53125 287.96875 L 302.5 283.984375 Z M 315.46875 280 " transform="matrix(0.05,0,0,0.05,0,0)"/>
</g>
<mask id="mask41">
  <g filter="url(#alpha)">
<rect x="0" y="0" width="20" height="20" style="fill:rgb(0%,0%,0%);fill-opacity:0.996078;stroke:none;"/>
  </g>
</mask>
<clipPath id="clip42">
  <rect x="0" y="0" width="20" height="20"/>
</clipPath>
<g id="surface130" clip-path="url(#clip42)">
<path style="fill-rule:nonzero;fill:rgb(49.803922%,49.803922%,49.803922%);fill-opacity:1;stroke-width:1;stroke-linecap:butt;stroke-linejoin:miter;stroke:rgb(49.803922%,49.803922%,49.803922%);stroke-opacity:1;stroke-miterlimit:4;" d="M 296.484375 287.96875 L 297.96875 288.515625 L 287.96875 297.5 L 290.46875 293.984375 L 292.03125 293.984375 L 292.03125 292.03125 C 293.828125 292.734375 294.453125 292.265625 293.984375 290.46875 Z M 296.484375 287.96875 " transform="matrix(0.05,0,0,0.05,0,0)"/>
</g>
<mask id="mask42">
  <g filter="url(#alpha)">
<rect x="0" y="0" width="20" height="20" style="fill:rgb(0%,0%,0%);fill-opacity:0.996078;stroke:none;"/>
  </g>
</mask>
<clipPath id="clip43">
  <rect x="0" y="0" width="20" height="20"/>
</clipPath>
<g id="surface133" clip-path="url(#clip43)">
<path style="fill-rule:nonzero;fill:rgb(49.803922%,49.803922%,49.803922%);fill-opacity:1;stroke-width:1;stroke-linecap:butt;stroke-linejoin:miter;stroke:rgb(49.803922%,49.803922%,49.803922%);stroke-opacity:1;stroke-miterlimit:4;" d="M 287.5 298.984375 L 287.96875 300.46875 L 282.03125 312.5 L 281.015625 325.46875 L 283.984375 337.5 L 282.96875 337.5 C 283.4375 333.4375 282.421875 330.78125 280 329.53125 L 280 314.53125 C 282.5 311.640625 283.828125 307.65625 283.984375 302.5 Z M 287.5 298.984375 " transform="matrix(0.05,0,0,0.05,0,0)"/>
</g>
<mask id="mask43">
  <g filter="url(#alpha)">
<rect x="0" y="0" width="20" height="20" style="fill:rgb(0%,0%,0%);fill-opacity:0.996078;stroke:none;"/>
  </g>
</mask>
<clipPath id="clip44">
  <rect x="0" y="0" width="20" height="20"/>
</clipPath>
<g id="surface136" clip-path="url(#clip44)">
<path style="fill-rule:nonzero;fill:rgb(49.803922%,49.803922%,49.803922%);fill-opacity:1;stroke-width:1;stroke-linecap:butt;stroke-linejoin:miter;stroke:rgb(49.803922%,49.803922%,49.803922%);stroke-opacity:1;stroke-miterlimit:4;" d="M 193.515625 331.015625 L 207.03125 331.484375 L 193.515625 332.03125 Z M 193.515625 331.015625 " transform="matrix(0.05,0,0,0.05,0,0)"/>
</g>
<mask id="mask44">
  <g filter="url(#alpha)">
<rect x="0" y="0" width="20" height="20" style="fill:rgb(0%,0%,0%);fill-opacity:0.996078;stroke:none;"/>
  </g>
</mask>
<clipPath id="clip45">
  <rect x="0" y="0" width="20" height="20"/>
</clipPath>
<g id="surface139" clip-path="url(#clip45)">
<path style="fill-rule:nonzero;fill:rgb(49.803922%,49.803922%,49.803922%);fill-opacity:1;stroke-width:1;stroke-linecap:butt;stroke-linejoin:miter;stroke:rgb(49.803922%,49.803922%,49.803922%);stroke-opacity:1;stroke-miterlimit:4;" d="M 186.484375 332.03125 L 192.03125 332.5 L 185.46875 333.984375 L 172.03125 342.03125 L 172.03125 343.984375 L 170 343.984375 L 170 346.015625 C 168.203125 345.234375 167.5 345.78125 167.96875 347.5 L 159.53125 360 L 151.015625 356.484375 L 154.53125 356.015625 L 159.53125 357.96875 C 162.265625 356.09375 163.828125 353.046875 163.984375 348.984375 L 167.03125 347.5 L 167.96875 343.984375 L 172.03125 341.484375 C 171.484375 339.765625 172.265625 339.296875 174.53125 340 L 176.015625 337.03125 C 180.234375 336.5625 183.75 334.921875 186.484375 332.03125 Z M 186.484375 332.03125 " transform="matrix(0.05,0,0,0.05,0,0)"/>
</g>
<mask id="mask45">
  <g filter="url(#alpha)">
<rect x="0" y="0" width="20" height="20" style="fill:rgb(0%,0%,0%);fill-opacity:0.996078;stroke:none;"/>
  </g>
</mask>
<clipPath id="clip46">
  <rect x="0" y="0" width="20" height="20"/>
</clipPath>
<g id="surface142" clip-path="url(#clip46)">
<path style="fill-rule:nonzero;fill:rgb(49.803922%,49.803922%,49.803922%);fill-opacity:1;stroke-width:1;stroke-linecap:butt;stroke-linejoin:miter;stroke:rgb(49.803922%,49.803922%,49.803922%);stroke-opacity:1;stroke-miterlimit:4;" d="M 208.515625 332.03125 L 213.515625 332.03125 L 216.484375 335 L 223.984375 337.03125 L 225.46875 340 L 232.03125 343.984375 L 234.53125 348.984375 C 236.25 348.4375 236.71875 349.296875 236.015625 351.484375 L 240.46875 357.96875 L 248.515625 356.015625 L 248.515625 357.03125 L 240.46875 360 L 232.03125 346.015625 L 230 346.015625 L 230 343.984375 L 227.96875 343.984375 C 228.75 342.1875 228.203125 341.5625 226.484375 342.03125 L 222.5 337.96875 L 214.53125 333.984375 L 208.515625 332.96875 Z M 208.515625 332.03125 " transform="matrix(0.05,0,0,0.05,0,0)"/>
</g>
<mask id="mask46">
  <g filter="url(#alpha)">
<rect x="0" y="0" width="20" height="20" style="fill:rgb(0%,0%,0%);fill-opacity:0.996078;stroke:none;"/>
  </g>
</mask>
<clipPath id="clip47">
  <rect x="0" y="0" width="20" height="20"/>
</clipPath>
<g id="surface145" clip-path="url(#clip47)">
<path style="fill-rule:nonzero;fill:rgb(49.803922%,49.803922%,49.803922%);fill-opacity:1;stroke-width:1;stroke-linecap:butt;stroke-linejoin:miter;stroke:rgb(49.803922%,49.803922%,49.803922%);stroke-opacity:1;stroke-miterlimit:4;" d="M 116.484375 340 L 137.96875 351.484375 L 136.484375 352.03125 L 116.015625 342.03125 Z M 116.484375 340 " transform="matrix(0.05,0,0,0.05,0,0)"/>
</g>
<mask id="mask47">
  <g filter="url(#alpha)">
<rect x="0" y="0" width="20" height="20" style="fill:rgb(0%,0%,0%);fill-opacity:0.996078;stroke:none;"/>
  </g>
</mask>
<clipPath id="clip48">
  <rect x="0" y="0" width="20" height="20"/>
</clipPath>
<g id="surface148" clip-path="url(#clip48)">
<path style="fill-rule:nonzero;fill:rgb(49.803922%,49.803922%,49.803922%);fill-opacity:1;stroke-width:1;stroke-linecap:butt;stroke-linejoin:miter;stroke:rgb(49.803922%,49.803922%,49.803922%);stroke-opacity:1;stroke-miterlimit:4;" d="M 282.5 340 L 283.984375 340.46875 C 278.046875 345.546875 270.9375 349.375 262.5 352.03125 L 262.5 351.015625 L 277.5 343.984375 Z M 282.5 340 " transform="matrix(0.05,0,0,0.05,0,0)"/>
</g>
<mask id="mask48">
  <g filter="url(#alpha)">
<rect x="0" y="0" width="20" height="20" style="fill:rgb(0%,0%,0%);fill-opacity:0.996078;stroke:none;"/>
  </g>
</mask>
<clipPath id="clip49">
  <rect x="0" y="0" width="20" height="20"/>
</clipPath>
<g id="surface151" clip-path="url(#clip49)">
<path style="fill-rule:nonzero;fill:rgb(49.803922%,49.803922%,49.803922%);fill-opacity:1;stroke-width:1;stroke-linecap:butt;stroke-linejoin:miter;stroke:rgb(49.803922%,49.803922%,49.803922%);stroke-opacity:1;stroke-miterlimit:4;" d="M 140.46875 352.03125 C 144.21875 351.953125 146.71875 353.125 147.96875 355.46875 L 146.484375 356.015625 L 141.484375 353.984375 Z M 140.46875 352.03125 " transform="matrix(0.05,0,0,0.05,0,0)"/>
</g>
<mask id="mask49">
  <g filter="url(#alpha)">
<rect x="0" y="0" width="20" height="20" style="fill:rgb(0%,0%,0%);fill-opacity:0.996078;stroke:none;"/>
  </g>
</mask>
<clipPath id="clip50">
  <rect x="0" y="0" width="20" height="20"/>
</clipPath>
<g id="surface154" clip-path="url(#clip50)">
<path style="fill-rule:nonzero;fill:rgb(49.803922%,49.803922%,49.803922%);fill-opacity:1;stroke-width:1;stroke-linecap:butt;stroke-linejoin:miter;stroke:rgb(49.803922%,49.803922%,49.803922%);stroke-opacity:1;stroke-miterlimit:4;" d="M 257.5 352.03125 L 261.015625 352.5 L 252.5 356.015625 L 254.53125 352.96875 Z M 257.5 352.03125 " transform="matrix(0.05,0,0,0.05,0,0)"/>
</g>
</defs>
<g id="surface1">
<use xlink:href="#surface7" mask="url(#mask0)"/>
<use xlink:href="#surface10" mask="url(#mask1)"/>
<use xlink:href="#surface13" mask="url(#mask2)"/>
<use xlink:href="#surface16" mask="url(#mask3)"/>
<use xlink:href="#surface19" mask="url(#mask4)"/>
<use xlink:href="#surface22" mask="url(#mask5)"/>
<use xlink:href="#surface25" mask="url(#mask6)"/>
<use xlink:href="#surface28" mask="url(#mask7)"/>
<use xlink:href="#surface31" mask="url(#mask8)"/>
<use xlink:href="#surface34" mask="url(#mask9)"/>
<use xlink:href="#surface37" mask="url(#mask10)"/>
<use xlink:href="#surface40" mask="url(#mask11)"/>
<use xlink:href="#surface43" mask="url(#mask12)"/>
<use xlink:href="#surface46" mask="url(#mask13)"/>
<use xlink:href="#surface49" mask="url(#mask14)"/>
<use xlink:href="#surface52" mask="url(#mask15)"/>
<use xlink:href="#surface55" mask="url(#mask16)"/>
<use xlink:href="#surface58" mask="url(#mask17)"/>
<use xlink:href="#surface61" mask="url(#mask18)"/>
<use xlink:href="#surface64" mask="url(#mask19)"/>
<use xlink:href="#surface67" mask="url(#mask20)"/>
<use xlink:href="#surface70" mask="url(#mask21)"/>
<use xlink:href="#surface73" mask="url(#mask22)"/>
<use xlink:href="#surface76" mask="url(#mask23)"/>
<use xlink:href="#surface79" mask="url(#mask24)"/>
<use xlink:href="#surface82" mask="url(#mask25)"/>
<use xlink:href="#surface85" mask="url(#mask26)"/>
<use xlink:href="#surface88" mask="url(#mask27)"/>
<use xlink:href="#surface91" mask="url(#mask28)"/>
<use xlink:href="#surface94" mask="url(#mask29)"/>
<use xlink:href="#surface97" mask="url(#mask30)"/>
<use xlink:href="#surface100" mask="url(#mask31)"/>
<use xlink:href="#surface103" mask="url(#mask32)"/>
<use xlink:href="#surface106" mask="url(#mask33)"/>
<use xlink:href="#surface109" mask="url(#mask34)"/>
<use xlink:href="#surface112" mask="url(#mask35)"/>
<use xlink:href="#surface115" mask="url(#mask36)"/>
<use xlink:href="#surface118" mask="url(#mask37)"/>
<use xlink:href="#surface121" mask="url(#mask38)"/>
<use xlink:href="#surface124" mask="url(#mask39)"/>
<use xlink:href="#surface127" mask="url(#mask40)"/>
<use xlink:href="#surface130" mask="url(#mask41)"/>
<use xlink:href="#surface133" mask="url(#mask42)"/>
<use xlink:href="#surface136" mask="url(#mask43)"/>
<use xlink:href="#surface139" mask="url(#mask44)"/>
<use xlink:href="#surface142" mask="url(#mask45)"/>
<use xlink:href="#surface145" mask="url(#mask46)"/>
<use xlink:href="#surface148" mask="url(#mask47)"/>
<use xlink:href="#surface151" mask="url(#mask48)"/>
<use xlink:href="#surface154" mask="url(#mask49)"/>
<path style="fill-rule:nonzero;fill:rgb(49.803922%,49.803922%,49.803922%);fill-opacity:1;stroke-width:1;stroke-linecap:butt;stroke-linejoin:miter;stroke:rgb(49.803922%,49.803922%,49.803922%);stroke-opacity:1;stroke-miterlimit:4;" d="M 157.5 42.03125 C 160.859375 41.640625 162.65625 42.8125 162.96875 45.46875 L 163.984375 51.015625 L 167.96875 53.515625 C 167.265625 55.703125 167.734375 56.5625 169.53125 56.015625 L 172.03125 60 L 176.015625 61.484375 C 175.546875 63.046875 176.015625 63.515625 177.5 62.96875 C 178.4375 64.765625 180.46875 65.390625 183.515625 65 L 186.484375 67.96875 L 206.484375 68.984375 C 207.5 67.34375 209.84375 67.03125 213.515625 67.96875 L 216.484375 65 L 223.984375 62.96875 L 225.46875 60 C 227.734375 60.703125 228.515625 60.234375 227.96875 58.515625 L 232.03125 56.015625 L 234.53125 51.015625 C 236.25 51.5625 236.71875 50.703125 236.015625 48.515625 L 240.46875 42.03125 L 245.46875 43.984375 L 251.484375 43.984375 L 257.5 47.96875 L 261.484375 47.96875 L 283.984375 60 L 280 70.46875 L 280 84.53125 L 282.03125 88.515625 L 283.984375 96.484375 L 290.46875 106.015625 L 292.03125 106.015625 L 292.03125 107.96875 C 293.828125 107.265625 294.453125 107.734375 293.984375 109.53125 C 294.84375 111.796875 296.875 112.65625 300 112.03125 L 301.484375 115 L 316.484375 120 L 328.515625 120 L 340 116.015625 L 352.03125 138.515625 L 352.03125 142.5 L 356.015625 148.515625 L 356.015625 154.53125 L 357.96875 160 C 356.015625 159.296875 355.3125 160 356.015625 162.03125 L 353.515625 162.03125 C 352.734375 163.828125 351.25 164.53125 348.984375 163.984375 L 347.5 167.03125 L 343.984375 167.96875 L 341.484375 172.03125 C 339.765625 171.484375 339.296875 172.265625 340 174.53125 L 337.03125 176.015625 L 335 183.515625 L 332.03125 186.484375 L 331.015625 205.46875 C 332.8125 206.71875 333.125 209.375 332.03125 213.515625 L 335 216.484375 L 337.03125 223.984375 L 340 225.46875 C 339.296875 227.734375 339.765625 228.515625 341.484375 227.96875 L 343.984375 232.03125 L 346.484375 232.03125 L 357.96875 240.46875 C 356.09375 242.890625 355.390625 246.5625 356.015625 251.484375 L 352.03125 257.5 L 352.03125 261.484375 L 340 283.984375 L 328.515625 280 L 315.46875 280 L 302.5 283.984375 L 293.984375 290.46875 L 293.984375 292.03125 L 292.03125 292.03125 C 292.734375 293.828125 292.265625 294.453125 290.46875 293.984375 L 283.984375 302.5 C 283.671875 307.5 282.34375 311.484375 280 314.53125 L 280 329.53125 C 282.5 332.1875 283.828125 335.703125 283.984375 340 L 261.484375 352.03125 L 257.5 352.03125 L 251.484375 356.015625 L 245.46875 356.015625 L 240.46875 357.96875 C 237.734375 356.09375 236.171875 353.046875 236.015625 348.984375 L 232.96875 347.5 L 232.03125 343.984375 L 223.984375 338.515625 C 224.53125 337.03125 224.0625 336.5625 222.5 337.03125 L 216.484375 335 L 213.515625 332.03125 L 193.515625 331.015625 C 192.5 332.65625 190.15625 332.96875 186.484375 332.03125 C 183.75 334.921875 180.234375 336.5625 176.015625 337.03125 L 174.53125 340 C 172.265625 339.296875 171.484375 339.765625 172.03125 341.484375 L 167.96875 343.984375 L 165.46875 348.984375 C 163.75 348.4375 163.28125 349.296875 163.984375 351.484375 L 159.53125 357.96875 L 154.53125 356.015625 L 148.515625 356.015625 C 146.875 352.96875 143.59375 351.5625 138.515625 352.03125 L 116.015625 339.53125 L 120 328.515625 L 120 314.53125 L 117.96875 312.5 L 116.015625 302.5 L 109.53125 293.984375 C 107.734375 294.453125 107.265625 293.828125 107.96875 292.03125 L 106.015625 292.03125 L 106.015625 290 L 103.984375 290 L 103.984375 287.96875 L 101.484375 287.96875 L 97.5 283.984375 L 87.5 282.03125 L 85.46875 280 L 71.484375 280 L 65.46875 282.96875 L 60.46875 282.96875 C 55.9375 278.828125 53.046875 273.125 52.03125 266.015625 C 50.234375 266.71875 49.53125 266.25 50 264.53125 C 47.96875 263.203125 47.34375 260.46875 47.96875 256.484375 L 43.984375 251.484375 L 43.984375 245.46875 L 42.03125 240.46875 L 44.53125 237.96875 L 51.015625 236.015625 L 52.5 232.96875 L 56.015625 232.03125 L 58.515625 227.96875 C 60.234375 228.515625 60.703125 227.734375 60 225.46875 L 62.96875 223.984375 L 65 216.484375 L 67.96875 213.515625 L 68.984375 193.515625 C 67.34375 192.5 67.03125 190.15625 67.96875 186.484375 L 65 183.515625 L 62.96875 176.015625 L 60 174.53125 C 60.703125 172.265625 60.234375 171.484375 58.515625 172.03125 L 56.015625 167.96875 L 51.015625 165.46875 C 51.5625 163.75 50.703125 163.28125 48.515625 163.984375 L 42.03125 159.53125 L 43.984375 155.46875 L 43.984375 148.515625 L 47.96875 142.5 L 47.96875 138.515625 L 60 116.015625 L 71.484375 120 L 85.46875 120 L 87.5 117.96875 L 97.5 116.015625 L 106.015625 109.53125 L 106.015625 107.96875 L 107.96875 107.96875 C 107.265625 106.171875 107.734375 105.546875 109.53125 106.015625 L 116.015625 96.484375 L 120 84.53125 L 120 71.484375 L 116.015625 60 L 138.515625 47.96875 L 142.5 47.96875 L 148.515625 43.984375 C 152.96875 44.765625 155.9375 44.140625 157.5 42.03125 Z M 195 157.96875 C 192.96875 160 190 160.703125 186.015625 160 L 172.96875 167.96875 L 167.96875 173.984375 L 163.984375 176.015625 L 163.984375 180 L 160 186.015625 L 157.96875 195 L 157.96875 206.015625 L 160 215 L 167.96875 227.96875 L 177.96875 236.015625 L 186.015625 240 L 195 242.03125 L 206.015625 242.03125 L 215 240 L 227.96875 232.03125 L 236.015625 222.96875 L 240 215 L 242.03125 206.015625 L 242.03125 195 L 240 186.015625 L 232.03125 172.96875 L 222.96875 163.984375 L 215 160 L 206.015625 157.96875 Z M 195 157.96875 " transform="matrix(0.05,0,0,0.05,0,0)"/>
</g>
</svg>
