<svg width="256" height="256" version="1.1" xmlns="http://www.w3.org/2000/svg" desc="Created with imagetracer.js version 1.2.6" ><path fill="rgb(0,0,0)" stroke="rgb(0,0,0)" stroke-width="1" opacity="0" d="M 0 0 L 256 0 L 256 256 L 0 256 L 0 0 Z M 101 25 Q 86 29 74 36 L 76 45 L 76 55 L 69 68 L 64 72 L 54 76 L 44 76 L 36 74 Q 29 86 25 102 L 33 106 Q 40 112 43 123 Q 45 138 38 145 Q 33 151 25 155 Q 29 170 36 182 L 44 180 L 54 180 L 65 185 Q 73 191 76 203 L 76 213 L 74 220 Q 86 227 102 231 L 105 225 Q 111 216 123 213 L 134 213 L 146 219 L 155 231 Q 170 227 182 220 L 180 213 Q 179 196 187 189 Q 193 183 202 180 L 212 180 L 220 182 Q 227 170 231 155 L 224 150 Q 216 144 213 134 L 213 123 L 218 112 Q 223 105 231 102 Q 227 86 220 74 L 213 76 L 203 76 L 193 72 Q 183 66 180 54 L 180 44 L 182 36 Q 170 29 155 25 L 151 32 Q 145 40 134 43 L 123 43 L 112 38 Q 105 34 103 27 L 101 25 Z " /><path fill="rgb(0,0,0)" stroke="rgb(0,0,0)" stroke-width="1" opacity="0" d="M 125.5 100 Q 143.8 100.7 151 112.5 L 155 120.5 L 156 129.5 L 154 138.5 L 147.5 148 L 138.5 154 L 126.5 156 L 117.5 154 L 107 146.5 Q 100.2 139.8 100 126.5 L 102 117.5 L 109.5 107 L 117.5 102 L 125.5 100 Z " /><path fill="rgb(125,197,234)" stroke="rgb(125,197,234)" stroke-width="1" opacity="0.5019607843137255" d="M 100.5 25 L 103 26.5 L 105 30.5 L 103 29.5 L 102 26 L 97.5 27 L 97.5 26 L 100.5 25 Z " /><path fill="rgb(125,197,234)" stroke="rgb(125,197,234)" stroke-width="1" opacity="0.5019607843137255" d="M 154.5 25 L 154 26.5 L 151.5 31 L 152 29.5 L 154.5 25 Z " /><path fill="rgb(125,197,234)" stroke="rgb(125,197,234)" stroke-width="1" opacity="0.5019607843137255" d="M 156.5 26 L 159 26.5 L 156.5 27 L 156.5 26 Z " /><path fill="rgb(125,197,234)" stroke="rgb(125,197,234)" stroke-width="1" opacity="0.5019607843137255" d="M 88.5 29 L 90 29.5 L 84.5 32 L 84.5 31 L 88.5 29 Z " /><path fill="rgb(125,197,234)" stroke="rgb(125,197,234)" stroke-width="1" opacity="0.5019607843137255" d="M 105.5 32 L 110.5 38 L 105.5 32 Z " /><path fill="rgb(125,197,234)" stroke="rgb(125,197,234)" stroke-width="1" opacity="0.5019607843137255" d="M 150.5 32 L 144.5 39 L 142.5 40 L 143.5 38 L 150.5 32 Z " /><path fill="rgb(125,197,234)" stroke="rgb(125,197,234)" stroke-width="1" opacity="0.5019607843137255" d="M 78.5 34 L 77.5 36 L 75 37.5 L 77 44.5 L 77 51.5 L 76 51.5 L 76 44.5 L 74 36 L 78.5 34 Z " /><path fill="rgb(125,197,234)" stroke="rgb(125,197,234)" stroke-width="1" opacity="0.5019607843137255" d="M 179.5 35 L 182 36 L 181.5 39 L 179.5 35 Z " /><path fill="rgb(125,197,234)" stroke="rgb(125,197,234)" stroke-width="1" opacity="0.5019607843137255" d="M 112.5 38 L 113.5 40 L 112.5 38 Z " /><path fill="rgb(125,197,234)" stroke="rgb(125,197,234)" stroke-width="1" opacity="0.5019607843137255" d="M 180.5 40 L 181 42.5 L 180 42.5 L 180.5 40 Z " /><path fill="rgb(125,197,234)" stroke="rgb(125,197,234)" stroke-width="1" opacity="0.5019607843137255" d="M 117.5 41 L 122 42.5 L 119.5 43 L 117.5 41 Z " /><path fill="rgb(125,197,234)" stroke="rgb(125,197,234)" stroke-width="1" opacity="0.5019607843137255" d="M 137.5 41 L 139 41.5 L 134.5 43 L 134.5 42 L 137.5 41 Z " /><path fill="rgb(125,197,234)" stroke="rgb(125,197,234)" stroke-width="1" opacity="0.5019607843137255" d="M 123.5 43 L 133 43.5 L 123.5 44 L 123.5 43 Z " /><path fill="rgb(125,197,234)" stroke="rgb(125,197,234)" stroke-width="1" opacity="0.5019607843137255" d="M 179.5 44 L 180 52.5 L 179 52.5 L 179.5 44 Z " /><path fill="rgb(125,197,234)" stroke="rgb(125,197,234)" stroke-width="1" opacity="0.5019607843137255" d="M 180.5 54 L 181 56.5 L 180 56.5 L 180.5 54 Z " /><path fill="rgb(125,197,234)" stroke="rgb(125,197,234)" stroke-width="1" opacity="0.5019607843137255" d="M 74.5 58 L 75 59.5 L 67.5 70 L 64.5 72 L 67.5 68 Q 69.8 68.8 69 66.5 L 74.5 58 Z " /><path fill="rgb(125,197,234)" stroke="rgb(125,197,234)" stroke-width="1" opacity="0.5019607843137255" d="M 181.5 58 L 184 62.5 L 182 61.5 L 181.5 58 Z " /><path fill="rgb(125,197,234)" stroke="rgb(125,197,234)" stroke-width="1" opacity="0.5019607843137255" d="M 184.5 64 L 191.5 72 L 184.5 64 Z " /><path fill="rgb(125,197,234)" stroke="rgb(125,197,234)" stroke-width="1" opacity="0.5019607843137255" d="M 62.5 72 L 61.5 74 L 58.5 75 L 58.5 74 L 62.5 72 Z " /><path fill="rgb(125,197,234)" stroke="rgb(125,197,234)" stroke-width="1" opacity="0.5019607843137255" d="M 193.5 72 L 196 73.5 L 194.5 74 L 193.5 72 Z " /><path fill="rgb(125,197,234)" stroke="rgb(125,197,234)" stroke-width="1" opacity="0.5019607843137255" d="M 36.5 74 L 37 75.5 L 33.5 81 L 34 79.5 L 36.5 74 Z " /><path fill="rgb(125,197,234)" stroke="rgb(125,197,234)" stroke-width="1" opacity="0.5019607843137255" d="M 216.5 74 Q 220.9 72.5 220 75.5 L 222 78.5 L 220 77.5 L 218.5 75 L 213.5 76 L 213.5 75 L 216.5 74 Z " /><path fill="rgb(125,197,234)" stroke="rgb(125,197,234)" stroke-width="1" opacity="0.5019607843137255" d="M 40.5 75 L 43 75.5 L 40.5 76 L 40.5 75 Z " /><path fill="rgb(125,197,234)" stroke="rgb(125,197,234)" stroke-width="1" opacity="0.5019607843137255" d="M 54.5 75 L 57 75.5 L 54.5 76 L 54.5 75 Z " /><path fill="rgb(125,197,234)" stroke="rgb(125,197,234)" stroke-width="1" opacity="0.5019607843137255" d="M 199.5 75 L 202 75.5 L 199.5 76 L 199.5 75 Z " /><path fill="rgb(125,197,234)" stroke="rgb(125,197,234)" stroke-width="1" opacity="0.5019607843137255" d="M 45.5 76 L 53 76.5 L 45.5 77 L 45.5 76 Z " /><path fill="rgb(125,197,234)" stroke="rgb(125,197,234)" stroke-width="1" opacity="0.5019607843137255" d="M 203.5 76 L 212 76.5 L 203.5 77 L 203.5 76 Z " /><path fill="rgb(125,197,234)" stroke="rgb(125,197,234)" stroke-width="1" opacity="0.5019607843137255" d="M 32.5 82 L 33 83.5 L 30.5 88 L 30 86.5 L 32.5 82 Z " /><path fill="rgb(125,197,234)" stroke="rgb(125,197,234)" stroke-width="1" opacity="0.5019607843137255" d="M 224.5 84 L 226 87.5 L 225 87.5 L 224.5 84 Z " /><path fill="rgb(125,197,234)" stroke="rgb(125,197,234)" stroke-width="1" opacity="0.5019607843137255" d="M 229.5 97 L 230 99.5 L 229 99.5 L 229.5 97 Z " /><path fill="rgb(125,197,234)" stroke="rgb(125,197,234)" stroke-width="1" opacity="0.5019607843137255" d="M 121.5 100 L 125 100.5 L 121.5 101 L 121.5 100 Z " /><path fill="rgb(125,197,234)" stroke="rgb(125,197,234)" stroke-width="1" opacity="0.5019607843137255" d="M 131.5 100 Q 143.7 101.8 150 109.5 L 155 119.5 L 154 119.5 Q 151.3 109.8 143.5 105 Q 139 101.5 131.5 101 L 131.5 100 Z " /><path fill="rgb(125,197,234)" stroke="rgb(125,197,234)" stroke-width="1" opacity="0.5019607843137255" d="M 25.5 101 Q 33.9 104.6 39 111.5 L 42 116.5 L 43 121.5 L 42 121.5 L 41 116.5 L 32.5 106 L 26.5 103 L 25.5 101 Z " /><path fill="rgb(125,197,234)" stroke="rgb(125,197,234)" stroke-width="1" opacity="0.5019607843137255" d="M 230.5 101 L 229.5 103 L 225.5 105 L 226.5 103 L 230.5 101 Z " /><path fill="rgb(125,197,234)" stroke="rgb(125,197,234)" stroke-width="1" opacity="0.5019607843137255" d="M 112.5 104 L 110.5 107 L 112.5 104 Z " /><path fill="rgb(125,197,234)" stroke="rgb(125,197,234)" stroke-width="1" opacity="0.5019607843137255" d="M 223.5 105 L 218 111.5 L 216.5 114 L 217 112.5 L 223.5 105 Z " /><path fill="rgb(125,197,234)" stroke="rgb(125,197,234)" stroke-width="1" opacity="0.5019607843137255" d="M 108.5 107 L 107.5 109 L 108.5 107 Z " /><path fill="rgb(125,197,234)" stroke="rgb(125,197,234)" stroke-width="1" opacity="0.5019607843137255" d="M 106.5 110 L 104.5 113 L 106.5 110 Z " /><path fill="rgb(125,197,234)" stroke="rgb(125,197,234)" stroke-width="1" opacity="0.5019607843137255" d="M 214.5 117 L 215 118.5 L 213.5 122 L 213 119.5 L 214.5 117 Z " /><path fill="rgb(125,197,234)" stroke="rgb(125,197,234)" stroke-width="1" opacity="0.5019607843137255" d="M 100.5 121 L 101 125.5 L 100 125.5 L 100.5 121 Z " /><path fill="rgb(125,197,234)" stroke="rgb(125,197,234)" stroke-width="1" opacity="0.5019607843137255" d="M 155.5 121 L 156 125.5 L 155 125.5 L 155.5 121 Z " /><path fill="rgb(125,197,234)" stroke="rgb(125,197,234)" stroke-width="1" opacity="0.5019607843137255" d="M 43.5 123 L 44 132.5 L 43 132.5 L 43.5 123 Z " /><path fill="rgb(125,197,234)" stroke="rgb(125,197,234)" stroke-width="1" opacity="0.5019607843137255" d="M 212.5 123 L 213 132.5 L 212 132.5 L 212.5 123 Z " /><path fill="rgb(125,197,234)" stroke="rgb(125,197,234)" stroke-width="1" opacity="0.5019607843137255" d="M 155.5 130 L 156 134.5 L 155 134.5 L 155.5 130 Z " /><path fill="rgb(125,197,234)" stroke="rgb(125,197,234)" stroke-width="1" opacity="0.5019607843137255" d="M 100.5 131 L 101 134.5 L 100 134.5 L 100.5 131 Z " /><path fill="rgb(125,197,234)" stroke="rgb(125,197,234)" stroke-width="1" opacity="0.5019607843137255" d="M 42.5 134 L 43 136.5 L 42 136.5 L 42.5 134 Z " /><path fill="rgb(125,197,234)" stroke="rgb(125,197,234)" stroke-width="1" opacity="0.5019607843137255" d="M 213.5 134 L 215 138.5 L 214 138.5 L 213.5 134 Z " /><path fill="rgb(125,197,234)" stroke="rgb(125,197,234)" stroke-width="1" opacity="0.5019607843137255" d="M 39.5 142 L 39 143.5 L 32.5 151 L 26 154 Q 29.3 169.4 37 181.5 L 36 181.5 Q 28.6 169.9 25 154.5 Q 32.9 150.9 38 144.5 L 39.5 142 Z " /><path fill="rgb(125,197,234)" stroke="rgb(125,197,234)" stroke-width="1" opacity="0.5019607843137255" d="M 216.5 142 L 217.5 144 L 216.5 142 Z " /><path fill="rgb(125,197,234)" stroke="rgb(125,197,234)" stroke-width="1" opacity="0.5019607843137255" d="M 104.5 143 L 106.5 146 L 104.5 143 Z " /><path fill="rgb(125,197,234)" stroke="rgb(125,197,234)" stroke-width="1" opacity="0.5019607843137255" d="M 151.5 143 L 149.5 146 L 151.5 143 Z " /><path fill="rgb(125,197,234)" stroke="rgb(125,197,234)" stroke-width="1" opacity="0.5019607843137255" d="M 218.5 145 L 231 154.5 L 229.5 154 Q 221.4 151.3 218.5 145 Z " /><path fill="rgb(125,197,234)" stroke="rgb(125,197,234)" stroke-width="1" opacity="0.5019607843137255" d="M 148.5 147 L 147.5 149 L 141.5 153 L 142.5 151 L 148.5 147 Z " /><path fill="rgb(125,197,234)" stroke="rgb(125,197,234)" stroke-width="1" opacity="0.5019607843137255" d="M 110.5 149 L 112.5 152 L 110.5 149 Z " /><path fill="rgb(125,197,234)" stroke="rgb(125,197,234)" stroke-width="1" opacity="0.5019607843137255" d="M 135.5 154 L 138 154.5 L 130.5 156 L 130.5 155 L 135.5 154 Z " /><path fill="rgb(125,197,234)" stroke="rgb(125,197,234)" stroke-width="1" opacity="0.5019607843137255" d="M 121.5 155 L 126 155.5 L 121.5 156 L 121.5 155 Z " /><path fill="rgb(125,197,234)" stroke="rgb(125,197,234)" stroke-width="1" opacity="0.5019607843137255" d="M 229.5 156 L 230 158.5 L 229 158.5 L 229.5 156 Z " /><path fill="rgb(125,197,234)" stroke="rgb(125,197,234)" stroke-width="1" opacity="0.5019607843137255" d="M 227.5 163 L 228 164.5 L 226.5 167 L 226 165.5 L 227.5 163 Z " /><path fill="rgb(125,197,234)" stroke="rgb(125,197,234)" stroke-width="1" opacity="0.5019607843137255" d="M 225.5 168 L 226 169.5 L 223.5 174 L 223 172.5 L 225.5 168 Z " /><path fill="rgb(125,197,234)" stroke="rgb(125,197,234)" stroke-width="1" opacity="0.5019607843137255" d="M 222.5 175 L 222 176.5 L 220 182 L 204 179.5 L 211.5 179 L 218.5 181 L 222.5 175 Z " /><path fill="rgb(125,197,234)" stroke="rgb(125,197,234)" stroke-width="1" opacity="0.5019607843137255" d="M 45.5 179 L 53 179.5 L 45.5 180 L 45.5 179 Z " /><path fill="rgb(125,197,234)" stroke="rgb(125,197,234)" stroke-width="1" opacity="0.5019607843137255" d="M 40.5 180 L 43 180.5 L 40.5 181 L 40.5 180 Z " /><path fill="rgb(125,197,234)" stroke="rgb(125,197,234)" stroke-width="1" opacity="0.5019607843137255" d="M 54.5 180 Q 67.1 182.9 73 192.5 L 76 201.5 L 75 201.5 Q 73.1 189.9 64.5 185 Q 61 181.5 54.5 181 L 54.5 180 Z " /><path fill="rgb(125,197,234)" stroke="rgb(125,197,234)" stroke-width="1" opacity="0.5019607843137255" d="M 194.5 182 L 196 182.5 L 193.5 184 L 194.5 182 Z " /><path fill="rgb(125,197,234)" stroke="rgb(125,197,234)" stroke-width="1" opacity="0.5019607843137255" d="M 191.5 184 L 189.5 187 L 191.5 184 Z " /><path fill="rgb(125,197,234)" stroke="rgb(125,197,234)" stroke-width="1" opacity="0.5019607843137255" d="M 186.5 189 L 184 192.5 L 181.5 198 L 181 196.5 L 186.5 189 Z " /><path fill="rgb(125,197,234)" stroke="rgb(125,197,234)" stroke-width="1" opacity="0.5019607843137255" d="M 180.5 199 L 181 201.5 L 180 201.5 L 180.5 199 Z " /><path fill="rgb(125,197,234)" stroke="rgb(125,197,234)" stroke-width="1" opacity="0.5019607843137255" d="M 76.5 203 L 77 210.5 L 76 210.5 L 76.5 203 Z " /><path fill="rgb(125,197,234)" stroke="rgb(125,197,234)" stroke-width="1" opacity="0.5019607843137255" d="M 179.5 203 L 180 210.5 L 179 210.5 L 179.5 203 Z " /><path fill="rgb(125,197,234)" stroke="rgb(125,197,234)" stroke-width="1" opacity="0.5019607843137255" d="M 123.5 212 L 133 212.5 L 123.5 213 L 123.5 212 Z " /><path fill="rgb(125,197,234)" stroke="rgb(125,197,234)" stroke-width="1" opacity="0.5019607843137255" d="M 75.5 213 L 76 215.5 L 75 215.5 L 75.5 213 Z " /><path fill="rgb(125,197,234)" stroke="rgb(125,197,234)" stroke-width="1" opacity="0.5019607843137255" d="M 119.5 213 L 122 213.5 L 119.5 214 L 119.5 213 Z " /><path fill="rgb(125,197,234)" stroke="rgb(125,197,234)" stroke-width="1" opacity="0.5019607843137255" d="M 134.5 213 L 139 214.5 L 137.5 215 L 134.5 214 L 134.5 213 Z " /><path fill="rgb(125,197,234)" stroke="rgb(125,197,234)" stroke-width="1" opacity="0.5019607843137255" d="M 180.5 213 L 181 215.5 L 180 215.5 L 180.5 213 Z " /><path fill="rgb(125,197,234)" stroke="rgb(125,197,234)" stroke-width="1" opacity="0.5019607843137255" d="M 140.5 215 L 151 223.5 L 155 230.5 L 153 229.5 Q 150.8 222.8 145.5 219 Q 140.9 217.8 140.5 215 Z " /><path fill="rgb(125,197,234)" stroke="rgb(125,197,234)" stroke-width="1" opacity="0.5019607843137255" d="M 74.5 217 L 76.5 220 L 93 227.5 L 91.5 228 L 74 220 L 74.5 217 Z " /><path fill="rgb(125,197,234)" stroke="rgb(125,197,234)" stroke-width="1" opacity="0.5019607843137255" d="M 111.5 217 L 105.5 224 L 111.5 217 Z " /><path fill="rgb(125,197,234)" stroke="rgb(125,197,234)" stroke-width="1" opacity="0.5019607843137255" d="M 181.5 217 L 182 220 L 179.5 221 L 181 218.5 L 181.5 217 Z " /><path fill="rgb(125,197,234)" stroke="rgb(125,197,234)" stroke-width="1" opacity="0.5019607843137255" d="M 104.5 225 L 104 226.5 L 101.5 231 L 94 228.5 L 96.5 228 L 102 230 L 104.5 225 Z " /><path fill="rgb(125,197,235)" stroke="rgb(125,197,235)" stroke-width="1" opacity="1" d="M 100.5 26 Q 102.8 25.3 102 27.5 L 110.5 38 Q 117.5 45 132.5 44 Q 144.8 41.3 151 32.5 L 154 26 Q 170.1 28.7 181 37.5 L 179 44.5 L 179 52.5 Q 181.7 65.8 191.5 72 Q 198.3 77.7 211.5 77 L 218.5 75 Q 227.2 85.9 230 102 Q 221.8 104.4 217 111.5 L 212 123.5 L 212 132.5 Q 215 144.5 223.5 151 L 230 154 L 223 174.5 L 218.5 181 L 211.5 179 L 204.5 179 L 194.5 182 L 187 187 L 181 196.5 L 179 203.5 L 179 210.5 L 181 218.5 Q 170.1 227.3 154 230 Q 151.5 221.8 144.5 217 L 132.5 212 L 123.5 212 Q 111.2 214.7 105 223.5 L 102 230 L 81.5 223 L 75 218.5 L 77 210.5 L 77 203.5 Q 74.5 190 64.5 184 Q 58 178.5 45.5 179 L 37.5 182 Q 29.4 169.8 26 154 Q 34.2 151.5 39 144.5 L 44 132.5 L 44 123.5 Q 41.3 111.2 32.5 105 L 26 102 Q 29.4 86.2 37.5 74 L 45.5 77 L 52.5 77 Q 63.7 74.7 70 67.5 Q 77.6 60.1 77 44.5 L 75 37.5 Q 85.3 29.3 100.5 26 Z M 122 100 L 109 107 Q 103 113 100 122 Q 98 137 104 144 Q 110 153 122 156 L 135 156 L 148 149 Q 153 143 156 135 L 156 122 L 150 110 Q 144 103 135 100 L 122 100 Z " /></svg>