<svg width="400" height="400" version="1.1" xmlns="http://www.w3.org/2000/svg" desc="Created with imagetracer.js version 1.2.6" ><path fill="rgb(0,0,0)" stroke="rgb(0,0,0)" stroke-width="1" opacity="0" d="M 0 0 L 400 0 L 400 400 L 0 400 L 0 0 Z M 154 40 L 145 44 L 142 44 L 140 46 L 131 48 L 123 53 Q 119 52 120 55 L 116 56 L 114 60 L 117 77 L 116 89 L 109 103 L 107 104 L 104 108 L 92 115 L 81 116 L 80 117 L 68 116 L 64 114 L 58 115 L 55 119 Q 56 121 53 120 L 51 126 Q 52 130 50 129 L 41 151 L 40 163 L 47 166 Q 49 165 48 168 L 51 168 L 56 172 L 64 186 Q 63 193 67 196 L 67 205 Q 64 208 64 215 L 58 224 L 56 227 L 52 231 L 40 238 L 40 247 L 46 261 L 46 264 L 48 266 L 48 270 L 51 271 Q 50 275 53 277 Q 52 281 55 280 L 58 285 L 67 285 L 77 283 L 92 285 L 103 292 Q 105 291 104 294 L 108 296 L 109 299 Q 108 301 111 300 L 116 312 L 116 320 L 117 321 L 114 342 L 119 345 Q 121 344 120 347 L 126 348 L 131 352 L 135 352 L 147 358 Q 152 357 154 360 L 163 360 L 168 350 L 180 339 L 196 333 L 205 333 Q 208 336 215 336 L 223 341 Q 225 340 224 343 L 228 344 L 232 350 L 232 352 L 236 356 Q 235 359 238 360 L 247 360 L 256 356 L 259 356 L 277 347 Q 281 348 280 345 L 284 344 L 286 341 L 283 324 L 285 309 L 292 298 Q 291 295 294 296 L 296 293 L 309 285 L 320 284 L 321 283 L 333 284 L 337 286 L 341 286 L 344 284 L 345 282 Q 344 279 347 280 Q 347 273 352 270 L 354 261 L 356 259 L 356 256 L 360 247 L 360 238 L 350 232 L 348 229 L 344 228 L 343 226 Q 344 223 341 224 L 336 215 Q 337 207 333 204 L 333 196 Q 336 192 336 186 L 341 178 L 343 175 L 348 171 L 350 168 Q 353 169 352 167 L 360 162 L 360 154 L 356 142 L 354 140 L 354 137 L 352 135 L 352 131 L 349 128 L 347 122 Q 348 119 345 120 L 344 116 L 341 114 Q 334 113 332 116 L 323 116 L 322 117 L 309 115 L 298 108 Q 295 109 296 107 L 292 104 L 285 92 L 284 81 L 283 80 L 284 67 L 286 64 L 285 58 Q 280 53 273 51 L 270 48 L 266 48 L 264 46 L 261 46 L 259 44 L 256 44 L 247 40 L 238 40 Q 235 41 236 45 L 231 52 Q 228 51 229 54 L 219 62 L 205 67 L 196 67 Q 193 63 186 64 L 172 56 L 165 46 L 164 42 L 163 40 L 154 40 Z " /><path fill="rgb(0,0,0)" stroke="rgb(0,0,0)" stroke-width="1" opacity="0" d="M 196.5 160 L 203.5 160 L 205.5 162 L 218.5 165 L 229 173.5 L 230.5 176 Q 233.1 175.2 232 178.5 L 235 181.5 L 238 194.5 L 240 196.5 L 240 203.5 L 238 205.5 L 235 218.5 Q 231.2 219.8 232 224 L 228 226.5 Q 228.8 228.8 226.5 228 L 218.5 235 L 205.5 238 L 203.5 240 L 196.5 240 L 194.5 238 Q 185.4 237.6 180 233.5 L 180 232 L 176 232 L 176 230.5 L 172 228 L 169.5 224 Q 166.9 224.8 168 221.5 L 165 218.5 L 162 205.5 L 160 203.5 L 160 196.5 L 162 194.5 L 165 181.5 L 172 172 L 176 169.5 L 176 168 L 180 168 L 180 166.5 Q 185.4 162.4 194.5 162 L 196.5 160 Z " /><path fill="rgb(126,126,126)" stroke="rgb(126,126,126)" stroke-width="1" opacity="0.49411764705882355" d="M 153.5 40 L 158 40.5 L 131.5 50 L 116 59.5 L 116 65.5 L 119 74.5 L 119 81.5 L 116 93.5 L 112 101.5 L 101.5 112 L 90.5 117 L 74.5 119 Q 73.3 116.7 68.5 118 L 65.5 116 L 59.5 116 L 50 131.5 L 40.5 158 L 40 154.5 L 49.5 129 Q 52.5 129.9 51 125.5 L 53 120 Q 55.7 121.1 55 118.5 L 57.5 115 L 63.5 114 L 67.5 116 L 79.5 117 L 80.5 116 L 91.5 115 L 104 108 L 106.5 104 L 109 102.5 L 116 88.5 L 117 76.5 L 114 59.5 L 116 56 L 120 55 Q 118.8 52 122.5 53 L 130.5 48 L 139.5 46 L 141.5 44 L 144.5 44 L 153.5 40 Z " /><path fill="rgb(126,126,126)" stroke="rgb(126,126,126)" stroke-width="1" opacity="0.49411764705882355" d="M 160.5 40 L 164 41.5 L 165 45.5 L 172 56 L 185.5 64 Q 192.7 63.3 195.5 67 L 204.5 67 L 218.5 62 L 229 53.5 Q 228.3 51.3 230.5 52 L 236 44.5 Q 235.3 40.8 237.5 40 L 241 40.5 L 238 42.5 L 232 54 L 230 54 L 230 56 L 228 56 Q 229.1 58.7 226.5 58 L 222.5 62 L 214.5 66 L 207.5 68 L 192.5 68 Q 180.1 64.7 172 58 L 172 56 L 170 56 L 170 54 Q 167.3 55.1 168 52.5 L 160.5 40 Z " /><path fill="rgb(126,126,126)" stroke="rgb(126,126,126)" stroke-width="1" opacity="0.49411764705882355" d="M 242.5 40 L 246.5 40 L 255.5 44 L 258.5 44 L 260.5 46 L 263.5 46 L 265.5 48 L 269.5 48 L 272.5 51 Q 280.3 52.7 285 57.5 L 286 63.5 L 284 66.5 L 283 79.5 L 284 80.5 L 285 91.5 L 292 104 L 296 106.5 Q 295.3 108.8 297.5 108 L 308.5 115 L 321.5 117 L 322.5 116 L 331.5 116 Q 334.4 113.4 340.5 114 L 344 116 L 345 120 Q 347.7 118.9 347 121.5 L 349 127.5 L 352 130.5 L 352 134.5 Q 354.8 135.3 354 139.5 L 356 141.5 L 360 153.5 L 360 157.5 L 359 157.5 L 350 131.5 L 340.5 116 L 334.5 116 L 330.5 118 L 319.5 119 Q 318 116.5 312.5 118 L 302.5 114 L 296 109.5 Q 296.8 107.3 294.5 108 Q 287.7 102.3 284 93.5 Q 284.6 88.9 282 87.5 L 281 74.5 L 284 64.5 L 284 59.5 L 268.5 50 L 253.5 44 L 244.5 42 L 242.5 40 Z " /><path fill="rgb(126,126,126)" stroke="rgb(126,126,126)" stroke-width="1" opacity="0.49411764705882355" d="M 40.5 159 L 42.5 162 L 56 170.5 L 58 173.5 L 61 176.5 L 67 188.5 Q 69.5 196 68 207.5 Q 64.7 219.9 58 228 L 56 228 L 56 230 L 54 230 Q 55.1 232.7 52.5 232 L 41 239.5 L 40.5 241 L 40 237.5 L 51.5 231 L 56 226.5 L 58 223.5 L 64 214.5 Q 63.7 207.7 67 204.5 L 67 195.5 Q 63.3 192.7 64 185.5 L 56 172 L 50.5 168 L 48 168 Q 49.1 165.3 46.5 166 L 40 162.5 L 40.5 159 Z " /><path fill="rgb(126,126,126)" stroke="rgb(126,126,126)" stroke-width="1" opacity="0.49411764705882355" d="M 195.5 159 L 196 160.5 L 180 166.5 L 180 168 L 176 168 L 176 169.5 L 172 172 L 165 181.5 L 162 194.5 L 160 196.5 L 160 203.5 L 162 205.5 L 165 218.5 Q 168.8 219.8 168 224 L 172 226.5 Q 171.3 228.8 173.5 228 L 176 232 L 180 232 L 180 233.5 L 196 239.5 L 195.5 241 Q 177.3 237.7 168 225.5 Q 158.3 215.7 159 195.5 L 161 186.5 L 168 174 Q 170.7 175.1 170 172.5 Q 178.9 161.9 195.5 159 Z " /><path fill="rgb(126,126,126)" stroke="rgb(126,126,126)" stroke-width="1" opacity="0.49411764705882355" d="M 197.5 159 L 204.5 159 L 213.5 161 Q 225 165.5 232 174.5 Q 241.3 183.7 241 202.5 L 240 202.5 L 240 196.5 L 238 194.5 L 235 181.5 Q 231.2 180.3 232 176 L 229 174.5 L 227.5 172 L 218.5 165 L 205.5 162 L 203.5 160 L 197.5 160 L 197.5 159 Z " /><path fill="rgb(126,126,126)" stroke="rgb(126,126,126)" stroke-width="1" opacity="0.49411764705882355" d="M 359.5 159 L 360 161.5 L 352 166.5 Q 352.8 169.1 349.5 168 L 348 171 L 343 174.5 L 341 177.5 L 336 185.5 Q 336.3 192.3 333 195.5 L 333 203.5 Q 336.5 207 336 214.5 L 341 224 Q 343.7 222.9 343 225.5 L 344 228 L 348 229 L 349.5 232 L 360 237.5 L 360 246.5 L 356 255.5 L 356 258.5 L 354 260.5 L 352 269.5 Q 347.1 272.9 347 280 Q 344.3 278.9 345 281.5 L 344 284 L 340.5 286 L 336.5 286 L 332.5 284 L 320.5 283 L 319.5 284 L 308.5 285 L 296 292.5 L 293.5 296 Q 291.3 295.3 292 297.5 L 285 308.5 L 283 323.5 L 286 340.5 L 283.5 344 L 280 345 Q 281.3 348.3 276.5 347 L 258.5 356 L 243.5 360 L 244.5 358 Q 267.7 352.7 284 340.5 L 284 334.5 L 282 331.5 Q 283.3 326.8 281 325.5 L 281 318.5 L 284 306.5 L 288 298.5 L 298.5 288 L 312.5 282 L 325.5 281 L 334.5 284 L 340.5 284 L 345 278.5 L 352 263.5 L 352 260.5 L 355 256.5 L 359 243.5 L 359 239.5 L 346 232 L 346 230 L 344 230 L 344 228 Q 341.3 229.1 342 226.5 Q 335.6 220.4 333 210.5 Q 330.6 203.4 332 192.5 Q 335.3 180.1 342 172 L 344 172 L 344 170 L 346 170 Q 344.9 167.3 347.5 168 L 359.5 159 Z " /><path fill="rgb(126,126,126)" stroke="rgb(126,126,126)" stroke-width="1" opacity="0.49411764705882355" d="M 239.5 204 L 241 204.5 Q 237.9 222.9 225.5 232 Q 216.3 241.3 197.5 241 L 197.5 240 L 203.5 240 L 205.5 238 L 218.5 235 L 228 228 L 230.5 224 Q 233.1 224.8 232 221.5 L 235 218.5 L 238 205.5 L 239.5 204 Z " /><path fill="rgb(126,126,126)" stroke="rgb(126,126,126)" stroke-width="1" opacity="0.49411764705882355" d="M 40.5 242 L 50 268.5 L 59.5 284 L 65.5 284 L 68.5 282 L 80.5 281 L 97.5 286 L 110 296.5 Q 119 306.5 119 325.5 L 116 335.5 L 116 342 L 131.5 350 L 158 359.5 L 153.5 360 L 150.5 358 L 146.5 358 Q 145.8 355.3 141.5 356 L 139.5 354 L 136.5 354 L 134.5 352 L 130.5 352 Q 127.1 347.1 120 347 Q 121.1 344.3 118.5 345 L 114 341.5 L 117 320.5 L 116 319.5 L 116 311.5 L 111 300 Q 108.3 301.1 109 298.5 L 108 296 L 104 293.5 Q 104.8 291.3 102.5 292 L 91.5 285 L 76.5 283 L 66.5 285 L 57.5 285 L 55 280 Q 51.7 281.3 53 276.5 Q 50 275.3 51 271 L 48 269.5 L 48 265.5 L 46 263.5 L 46 260.5 L 40 246.5 L 40.5 242 Z " /><path fill="rgb(126,126,126)" stroke="rgb(126,126,126)" stroke-width="1" opacity="0.49411764705882355" d="M 192.5 332 Q 204 330.5 211.5 333 L 222.5 338 L 228 342 L 228 344 L 230 344 L 230 346 Q 232.7 344.9 232 347.5 L 240 359.5 L 237.5 360 Q 235.3 359.3 236 355.5 L 232 351.5 L 232 349.5 L 228 344 L 224 342.5 Q 224.8 340.3 222.5 341 L 214.5 336 Q 207.7 336.3 204.5 333 L 195.5 333 L 179.5 339 L 168 349.5 L 162.5 360 L 160 359.5 L 168 346 L 170 346 L 170 344 L 172 344 Q 170.9 341.3 173.5 342 L 177.5 338 L 192.5 332 Z " /><path fill="rgb(127,127,127)" stroke="rgb(127,127,127)" stroke-width="1" opacity="0.996078431372549" d="M 158.5 40 L 162 42.5 L 168 52.5 L 165.5 51 Q 162.9 51.8 164 48.5 L 159.5 42 L 151.5 44 L 151.5 43 L 158.5 40 Z " /><path fill="rgb(127,127,127)" stroke="rgb(127,127,127)" stroke-width="1" opacity="0.996078431372549" d="M 241.5 40 L 250 43.5 L 245.5 44 L 240.5 42 Q 236.3 44.9 236 51 L 233 52.5 L 232 56 L 228 58.5 Q 228.8 61.1 225.5 60 L 224 63 L 216.5 65 L 213.5 68 L 208.5 68 L 208.5 67 L 214.5 66 L 228 58 L 228 56 L 230 56 L 230 54 Q 232.7 55.1 232 52.5 L 239.5 41 L 241.5 40 Z " /><path fill="rgb(127,127,127)" stroke="rgb(127,127,127)" stroke-width="1" opacity="0.996078431372549" d="M 147.5 44 L 145.5 47 L 140.5 48 L 141.5 46 L 147.5 44 Z " /><path fill="rgb(127,127,127)" stroke="rgb(127,127,127)" stroke-width="1" opacity="0.996078431372549" d="M 252.5 44 L 261 47.5 L 257.5 48 Q 252.9 47.3 252.5 44 Z " /><path fill="rgb(127,127,127)" stroke="rgb(127,127,127)" stroke-width="1" opacity="0.996078431372549" d="M 136.5 48 L 138 48.5 L 116.5 60 L 118.5 57 L 136.5 48 Z " /><path fill="rgb(127,127,127)" stroke="rgb(127,127,127)" stroke-width="1" opacity="0.996078431372549" d="M 262.5 48 Q 275.1 51.9 284 59.5 L 282.5 60 L 270.5 52 L 267.5 52 L 262.5 49 L 262.5 48 Z " /><path fill="rgb(127,127,127)" stroke="rgb(127,127,127)" stroke-width="1" opacity="0.996078431372549" d="M 168 54 L 170 54 L 170 56 L 172 56 Q 170.9 58.7 173.5 58 Q 180.3 65.3 192 67.5 L 186.5 68 L 183.5 65 L 176 63 L 174.5 60 Q 171.2 61.1 172 58.5 L 168 56 L 168 54 Z " /><path fill="rgb(127,127,127)" stroke="rgb(127,127,127)" stroke-width="1" opacity="0.996078431372549" d="M 116.5 62 L 120 71.5 L 120 84.5 L 116 96.5 L 112.5 101 L 112 99.5 L 118 87.5 L 119 74.5 L 116 65.5 L 116.5 62 Z " /><path fill="rgb(127,127,127)" stroke="rgb(127,127,127)" stroke-width="1" opacity="0.996078431372549" d="M 283.5 62 L 284 64.5 L 282 68.5 L 281 80.5 L 284 93.5 Q 287.7 102.3 294.5 108 Q 296.8 107.3 296 109.5 L 297.5 112 L 294 109.5 Q 294.7 106.9 292 108 L 292 106 L 290.5 106 L 285 98.5 L 282 88.5 L 280 86.5 L 280 84.5 L 280 70.5 L 283.5 62 Z " /><path fill="rgb(127,127,127)" stroke="rgb(127,127,127)" stroke-width="1" opacity="0.996078431372549" d="M 193.5 68 L 207 68.5 L 193.5 69 L 193.5 68 Z " /><path fill="rgb(127,127,127)" stroke="rgb(127,127,127)" stroke-width="1" opacity="0.996078431372549" d="M 111.5 102 L 112 103.5 L 108 106 L 108 108 Q 105.3 106.9 106 109.5 L 102.5 112 L 111.5 102 Z " /><path fill="rgb(127,127,127)" stroke="rgb(127,127,127)" stroke-width="1" opacity="0.996078431372549" d="M 99.5 112 L 101 112.5 L 97.5 116 L 87.5 118 L 85.5 120 L 71.5 120 L 62 116.5 L 65.5 116 L 68.5 118 L 80.5 119 L 93.5 116 L 99.5 112 Z " /><path fill="rgb(127,127,127)" stroke="rgb(127,127,127)" stroke-width="1" opacity="0.996078431372549" d="M 300.5 112 L 312.5 118 L 322.5 119 L 337.5 116 L 337.5 117 L 334.5 117 L 328.5 120 L 316.5 120 L 303.5 116 L 300 113.5 L 300.5 112 Z " /><path fill="rgb(127,127,127)" stroke="rgb(127,127,127)" stroke-width="1" opacity="0.996078431372549" d="M 59.5 116 L 60 117.5 L 56 122.5 L 48.5 138 L 48 136.5 L 55 121.5 L 59.5 116 Z " /><path fill="rgb(127,127,127)" stroke="rgb(127,127,127)" stroke-width="1" opacity="0.996078431372549" d="M 340.5 116 Q 345.8 120.8 348 128.5 L 346 127.5 L 340 117.5 L 340.5 116 Z " /><path fill="rgb(127,127,127)" stroke="rgb(127,127,127)" stroke-width="1" opacity="0.996078431372549" d="M 348.5 130 L 352 137.5 L 351 137.5 L 348 132.5 L 348.5 130 Z " /><path fill="rgb(127,127,127)" stroke="rgb(127,127,127)" stroke-width="1" opacity="0.996078431372549" d="M 47.5 139 L 48 142.5 L 44.5 148 L 44 146.5 L 47.5 139 Z " /><path fill="rgb(127,127,127)" stroke="rgb(127,127,127)" stroke-width="1" opacity="0.996078431372549" d="M 352.5 139 L 356 147.5 L 355 147.5 Q 350.7 144.8 352.5 139 Z " /><path fill="rgb(127,127,127)" stroke="rgb(127,127,127)" stroke-width="1" opacity="0.996078431372549" d="M 43.5 150 L 44 155.5 L 42 159.5 L 44.5 162 L 51 164 L 52.5 167 L 56 168 L 58.5 172 Q 61.1 171.2 60 174.5 L 63 176 L 65 183.5 L 68 186.5 L 68 191.5 L 67 191.5 L 64 181.5 L 58 172 Q 55.3 173.1 56 170.5 L 41 160.5 L 40 158.5 L 43.5 150 Z " /><path fill="rgb(127,127,127)" stroke="rgb(127,127,127)" stroke-width="1" opacity="0.996078431372549" d="M 356.5 150 L 360 158.5 Q 354.6 165.3 346 168 L 346 170 L 344 170 L 344 172 Q 341.3 170.9 342 173.5 Q 334.8 180.3 332.5 192 L 332 186.5 L 335 183.5 L 337 176 L 340 174.5 Q 338.9 171.2 341.5 172 L 344 168 L 349 165.5 Q 348.2 162.9 351.5 164 Q 352.6 161.3 356 162 Q 355 159 358 160 L 358 157.5 Q 354.8 155.3 356.5 150 Z " /><path fill="rgb(127,127,127)" stroke="rgb(127,127,127)" stroke-width="1" opacity="0.996078431372549" d="M 194.5 158 L 205.5 158 L 214.5 160 L 222.5 164 L 232 172.5 L 240 185.5 L 242 194.5 L 242 205.5 L 240 214.5 L 236 222.5 L 227.5 232 L 214.5 240 L 205.5 242 L 194.5 242 L 185.5 240 L 177.5 236 L 168 227.5 L 160 214.5 L 158 205.5 L 158 194.5 L 160 185.5 L 164 179.5 L 164 176 L 168 173.5 L 172.5 168 L 185.5 160 Q 191.6 160.6 194.5 158 Z M 196 159 Q 179 162 170 173 Q 171 175 168 174 L 161 187 L 159 196 Q 158 216 168 226 Q 176 238 195 240 L 198 241 Q 216 241 226 232 Q 238 224 240 206 L 241 203 Q 241 184 232 175 Q 225 165 214 161 L 205 159 L 198 159 L 196 159 Z " /><path fill="rgb(127,127,127)" stroke="rgb(127,127,127)" stroke-width="1" opacity="0.996078431372549" d="M 68.5 193 L 69 206.5 L 68 206.5 L 68.5 193 Z " /><path fill="rgb(127,127,127)" stroke="rgb(127,127,127)" stroke-width="1" opacity="0.996078431372549" d="M 331.5 193 L 332 205.5 L 331 205.5 L 331.5 193 Z " /><path fill="rgb(127,127,127)" stroke="rgb(127,127,127)" stroke-width="1" opacity="0.996078431372549" d="M 332.5 207 Q 335.1 220.2 342 228 L 344 228 L 346 232 Q 343.3 233.1 344 230.5 L 340 228 L 338.5 224 Q 336.3 224.8 337 222.5 Q 334.4 221.1 335 216.5 L 332 213.5 L 332.5 207 Z " /><path fill="rgb(127,127,127)" stroke="rgb(127,127,127)" stroke-width="1" opacity="0.996078431372549" d="M 67.5 208 L 68 213.5 L 65 216.5 L 63 224 L 60 225.5 Q 61.1 228.8 58.5 228 L 56 232 L 51 234.5 Q 51.8 237.1 48.5 236 L 42 240.5 L 44 248.5 L 43 248.5 L 40 241.5 L 42.5 238 L 54 232 L 54 230 L 56 230 L 56 228 Q 58.7 229.1 58 226.5 Q 65.3 219.8 67.5 208 Z " /><path fill="rgb(127,127,127)" stroke="rgb(127,127,127)" stroke-width="1" opacity="0.996078431372549" d="M 347.5 232 L 359 239.5 L 359 243.5 L 356.5 250 L 356 245.5 L 358 240.5 L 350.5 236 L 347.5 232 Z " /><path fill="rgb(127,127,127)" stroke="rgb(127,127,127)" stroke-width="1" opacity="0.996078431372549" d="M 44.5 252 Q 48.7 253.3 48 259.5 L 47 259.5 L 44.5 252 Z " /><path fill="rgb(127,127,127)" stroke="rgb(127,127,127)" stroke-width="1" opacity="0.996078431372549" d="M 355.5 252 L 356 253.5 L 352.5 260 L 352 257.5 L 355.5 252 Z " /><path fill="rgb(127,127,127)" stroke="rgb(127,127,127)" stroke-width="1" opacity="0.996078431372549" d="M 48.5 262 L 50 266 Q 53.3 264.7 52 269.5 L 60.5 283 L 65.5 283 L 71.5 280 L 85.5 280 L 87.5 282 L 97.5 284 Q 98.9 288.8 104 288 L 104 290 L 106 290 L 106 292 L 108 292 Q 106.9 294.7 109.5 294 L 116 302.5 L 118 312.5 L 120 314.5 L 120 328.5 L 116.5 338 L 116 335.5 L 118 331.5 L 119 319.5 L 117 309.5 L 114 302.5 L 103.5 290 L 93.5 284 L 76.5 281 Q 74.8 283.7 68.5 282 L 65.5 284 L 59.5 284 Q 51.3 274.7 48.5 262 Z " /><path fill="rgb(127,127,127)" stroke="rgb(127,127,127)" stroke-width="1" opacity="0.996078431372549" d="M 351.5 262 L 352 263.5 L 345 278.5 L 340.5 284 L 340 282.5 L 344 277.5 L 351.5 262 Z " /><path fill="rgb(127,127,127)" stroke="rgb(127,127,127)" stroke-width="1" opacity="0.996078431372549" d="M 315.5 280 L 328.5 280 L 338 283.5 L 334.5 284 L 330.5 282 L 319.5 281 L 309.5 283 L 299.5 288 L 302.5 284 L 315.5 280 Z " /><path fill="rgb(127,127,127)" stroke="rgb(127,127,127)" stroke-width="1" opacity="0.996078431372549" d="M 296.5 288 L 298 288.5 L 288 297.5 L 290.5 294 L 292 294 L 292 292 Q 294.7 293.1 294 290.5 L 296.5 288 Z " /><path fill="rgb(127,127,127)" stroke="rgb(127,127,127)" stroke-width="1" opacity="0.996078431372549" d="M 287.5 299 L 288 300.5 L 282 312.5 L 281 325.5 L 284 337.5 L 283 337.5 Q 283.6 331.4 280 329.5 L 280 314.5 Q 283.7 310.2 284 302.5 L 287.5 299 Z " /><path fill="rgb(127,127,127)" stroke="rgb(127,127,127)" stroke-width="1" opacity="0.996078431372549" d="M 193.5 331 L 207 331.5 L 193.5 332 L 193.5 331 Z " /><path fill="rgb(127,127,127)" stroke="rgb(127,127,127)" stroke-width="1" opacity="0.996078431372549" d="M 186.5 332 L 192 332.5 L 185.5 334 L 172 342 L 172 344 L 170 344 L 170 346 Q 167.3 344.9 168 347.5 L 159.5 360 L 151 356.5 L 154.5 356 L 159.5 358 Q 163.7 355.1 164 349 L 167 347.5 L 168 344 L 172 341.5 Q 171.2 338.9 174.5 340 L 176 337 Q 182.4 336.4 186.5 332 Z " /><path fill="rgb(127,127,127)" stroke="rgb(127,127,127)" stroke-width="1" opacity="0.996078431372549" d="M 208.5 332 L 213.5 332 L 216.5 335 L 224 337 L 225.5 340 L 232 344 L 234.5 349 Q 237.1 348.2 236 351.5 L 240.5 358 L 248.5 356 L 248.5 357 L 240.5 360 L 232 346 L 230 346 L 230 344 L 228 344 Q 229.1 341.3 226.5 342 L 222.5 338 L 214.5 334 L 208.5 333 L 208.5 332 Z " /><path fill="rgb(127,127,127)" stroke="rgb(127,127,127)" stroke-width="1" opacity="0.996078431372549" d="M 116.5 340 L 138 351.5 L 136.5 352 L 116 342 L 116.5 340 Z " /><path fill="rgb(127,127,127)" stroke="rgb(127,127,127)" stroke-width="1" opacity="0.996078431372549" d="M 282.5 340 L 284 340.5 Q 275.1 348.1 262.5 352 L 262.5 351 L 277.5 344 L 282.5 340 Z " /><path fill="rgb(127,127,127)" stroke="rgb(127,127,127)" stroke-width="1" opacity="0.996078431372549" d="M 140.5 352 Q 146.1 351.9 148 355.5 L 146.5 356 L 141.5 354 L 140.5 352 Z " /><path fill="rgb(127,127,127)" stroke="rgb(127,127,127)" stroke-width="1" opacity="0.996078431372549" d="M 257.5 352 L 261 352.5 L 252.5 356 L 254.5 353 L 257.5 352 Z " /><path fill="rgb(127,127,127)" stroke="rgb(127,127,127)" stroke-width="1" opacity="1" d="M 157.5 42 Q 162.5 41.5 163 45.5 L 164 51 L 168 53.5 Q 166.9 56.8 169.5 56 L 172 60 L 176 61.5 Q 175.3 63.8 177.5 63 Q 178.9 65.6 183.5 65 L 186.5 68 L 206.5 69 Q 208 66.5 213.5 68 L 216.5 65 L 224 63 L 225.5 60 Q 228.8 61.1 228 58.5 L 232 56 L 234.5 51 Q 237.1 51.8 236 48.5 L 240.5 42 L 245.5 44 L 251.5 44 L 257.5 48 L 261.5 48 L 284 60 L 280 70.5 L 280 84.5 L 282 88.5 L 284 96.5 L 290.5 106 L 292 106 L 292 108 Q 294.7 106.9 294 109.5 Q 295.3 113 300 112 L 301.5 115 L 316.5 120 L 328.5 120 L 340 116 L 352 138.5 L 352 142.5 L 356 148.5 L 356 154.5 L 358 160 Q 355 159 356 162 L 353.5 162 Q 352.4 164.8 349 164 L 347.5 167 L 344 168 L 341.5 172 Q 338.9 171.2 340 174.5 L 337 176 L 335 183.5 L 332 186.5 L 331 205.5 Q 333.7 207.3 332 213.5 L 335 216.5 L 337 224 L 340 225.5 Q 338.9 228.8 341.5 228 L 344 232 L 346.5 232 L 358 240.5 Q 355.1 244.1 356 251.5 L 352 257.5 L 352 261.5 L 340 284 L 328.5 280 L 315.5 280 L 302.5 284 L 294 290.5 L 294 292 L 292 292 Q 293.1 294.7 290.5 294 L 284 302.5 Q 283.5 310 280 314.5 L 280 329.5 Q 283.7 333.5 284 340 L 261.5 352 L 257.5 352 L 251.5 356 L 245.5 356 L 240.5 358 Q 236.3 355.1 236 349 L 233 347.5 L 232 344 L 224 338.5 Q 224.8 336.3 222.5 337 L 216.5 335 L 213.5 332 L 193.5 331 Q 192 333.5 186.5 332 Q 182.4 336.4 176 337 L 174.5 340 Q 171.2 338.9 172 341.5 L 168 344 L 165.5 349 Q 162.9 348.2 164 351.5 L 159.5 358 L 154.5 356 L 148.5 356 Q 146.1 351.4 138.5 352 L 116 339.5 L 120 328.5 L 120 314.5 L 118 312.5 L 116 302.5 L 109.5 294 Q 106.9 294.7 108 292 L 106 292 L 106 290 L 104 290 L 104 288 L 101.5 288 L 97.5 284 L 87.5 282 L 85.5 280 L 71.5 280 L 65.5 283 L 60.5 283 Q 53.6 276.7 52 266 Q 49.3 267.1 50 264.5 Q 47 262.5 48 256.5 L 44 251.5 L 44 245.5 L 42 240.5 L 44.5 238 L 51 236 L 52.5 233 L 56 232 L 58.5 228 Q 61.1 228.8 60 225.5 L 63 224 L 65 216.5 L 68 213.5 L 69 193.5 Q 66.5 192 68 186.5 L 65 183.5 L 63 176 L 60 174.5 Q 61.1 171.2 58.5 172 L 56 168 L 51 165.5 Q 51.8 162.9 48.5 164 L 42 159.5 L 44 155.5 L 44 148.5 L 48 142.5 L 48 138.5 L 60 116 L 71.5 120 L 85.5 120 L 87.5 118 L 97.5 116 L 106 109.5 L 106 108 L 108 108 Q 106.9 105.3 109.5 106 L 116 96.5 L 120 84.5 L 120 71.5 L 116 60 L 138.5 48 L 142.5 48 L 148.5 44 Q 155.2 45.2 157.5 42 Z M 195 158 Q 192 161 186 160 L 173 168 L 168 174 L 164 176 L 164 180 L 160 186 L 158 195 L 158 206 L 160 215 L 168 228 L 178 236 L 186 240 L 195 242 L 206 242 L 215 240 L 228 232 L 236 223 L 240 215 L 242 206 L 242 195 L 240 186 L 232 173 L 223 164 L 215 160 L 206 158 L 195 158 Z " /></svg>