<svg width="256" height="256" version="1.1" xmlns="http://www.w3.org/2000/svg" desc="Created with imagetracer.js version 1.2.6" ><path fill="rgb(0,0,0)" stroke="rgb(0,0,0)" stroke-width="1" opacity="0" d="M 0 0 L 256 0 L 256 256 L 0 256 L 0 0 Z M 46 25 L 43 26 L 37 34 L 37 223 L 38 226 L 46 231 L 212 231 L 216 229 L 219 225 Q 218 220 220 219 L 220 85 L 219 80 L 215 74 L 190 48 L 170 27 L 166 25 L 46 25 Z " /><path fill="rgb(0,0,0)" stroke="rgb(0,0,0)" stroke-width="1" opacity="0" d="M 49 37 L 162.5 37 L 185 59.5 L 208 83.5 L 208 219 L 49 219 L 49 37 Z M 90 66 L 81 70 Q 73 75 70 85 Q 68 101 75 108 Q 81 115 93 117 Q 105 117 112 111 Q 118 107 119 98 L 154 98 L 161 102 L 165 110 L 165 117 L 161 124 L 153 128 L 97 128 L 85 133 L 77 142 L 74 153 Q 74 163 79 170 Q 85 177 97 180 L 132 180 L 136 190 Q 141 196 150 199 Q 165 201 172 195 Q 180 190 182 179 Q 183 165 177 159 Q 172 152 164 149 Q 148 147 142 153 Q 134 158 132 168 L 97 168 L 93 166 Q 88 163 86 157 Q 85 150 88 147 L 94 141 L 101 139 L 157 139 L 166 135 L 174 126 L 177 115 L 176 106 L 172 98 Q 167 90 158 87 L 120 87 Q 119 79 114 74 Q 107 64 90 66 Z " /><path fill="rgb(15,142,222)" stroke="rgb(15,142,222)" stroke-width="1" opacity="1" d="M 91.5 77 Q 102.3 75.7 106 81.5 L 109 86.5 L 110 91.5 L 108 98.5 L 102.5 104 L 95.5 106 L 86.5 103 L 83 99.5 Q 79.7 95.8 81 87.5 L 85.5 80 L 91.5 77 Z " /><path fill="rgb(15,142,222)" stroke="rgb(15,142,222)" stroke-width="1" opacity="1" d="M 152.5 160 Q 165.5 158.5 169 166.5 Q 171.9 170.1 171 177.5 L 163.5 187 L 156.5 189 Q 148 187.5 144 181.5 Q 141.3 178.2 142 171.5 Q 143.8 164.3 149.5 161 L 152.5 160 Z " /><path fill="rgb(254,254,254)" stroke="rgb(254,254,254)" stroke-width="1" opacity="0.9058823529411765" d="M 45.5 25 L 165.5 25 L 169.5 27 L 190 47.5 L 215 73.5 L 219 79.5 L 220 84.5 L 220 218.5 Q 217.8 219.8 219 224.5 L 215.5 229 L 211.5 231 L 45.5 231 L 38 225.5 L 37 222.5 L 37 33.5 L 42.5 26 L 45.5 25 Z M 49 37 L 49 219 L 208 219 L 208 84 L 185 60 L 163 37 L 49 37 Z " /><path fill="rgb(254,254,254)" stroke="rgb(254,254,254)" stroke-width="1" opacity="0.9058823529411765" d="M 89.5 66 Q 107.3 64.3 114 73.5 Q 119.4 78.5 120 87 L 157.5 87 Q 167.3 89.8 172 97.5 L 176 105.5 L 177 114.5 L 174 125.5 L 165.5 135 L 156.5 139 L 100.5 139 L 93.5 141 L 88 146.5 Q 85.3 149.8 86 156.5 Q 87.5 163 92.5 166 L 96.5 168 L 132 168 Q 133.7 158.1 141.5 153 Q 148.2 146.7 163.5 149 Q 172.2 151.8 177 158.5 Q 183.2 164.8 182 178.5 Q 179.6 189.6 171.5 195 Q 164.5 201 149.5 199 Q 140.8 196.2 136 189.5 L 132 180 L 96.5 180 Q 85.3 177.3 79 169.5 Q 74.3 163.2 74 152.5 L 77 141.5 L 84.5 133 L 96.5 128 L 152.5 128 L 161 124 L 165 116.5 L 165 109.5 L 161 102 L 153.5 98 L 119 98 Q 117.9 106.7 111.5 111 Q 104.9 116.9 92.5 117 Q 81.2 114.8 75 107.5 Q 67.8 100.7 70 84.5 Q 73.2 75.2 80.5 70 L 89.5 66 Z M 92 77 L 86 80 L 81 88 Q 80 96 83 100 L 87 103 L 96 106 L 103 104 L 108 99 L 110 92 L 109 87 L 106 82 Q 102 76 92 77 Z M 153 160 L 150 161 Q 144 164 142 172 Q 141 178 144 182 Q 148 188 157 189 L 164 187 L 171 178 Q 172 170 169 167 Q 166 158 153 160 Z " /></svg>