<svg width="261" height="256" version="1.1" xmlns="http://www.w3.org/2000/svg" desc="Created with imagetracer.js version 1.2.6" ><path fill="rgb(0,0,0)" stroke="rgb(0,0,0)" stroke-width="1" opacity="0" d="M 0 0 L 261 0 L 261 256 L 0 256 L 0 0 Z M 180 22 L 179 23 Q 176 22 177 25 Q 167 36 152 43 L 142 46 L 129 47 L 110 56 Q 101 63 98 76 Q 96 94 103 103 L 113 111 L 123 114 L 123 115 L 112 114 L 105 108 L 95 104 L 82 104 L 69 110 L 54 130 L 44 157 L 39 164 L 27 174 L 23 179 Q 22 185 24 189 L 29 192 L 37 192 L 44 188 Q 55 179 62 166 L 70 145 L 70 142 L 79 128 L 85 123 L 90 123 L 103 132 L 120 135 L 125 141 L 127 156 L 135 168 L 133 175 L 120 186 L 113 188 L 86 202 Q 74 209 65 220 Q 64 227 66 231 L 72 234 L 82 232 L 102 216 L 138 199 L 143 195 Q 142 192 145 193 L 152 182 L 155 171 L 154 158 L 146 147 L 144 134 L 139 125 L 130 117 L 125 116 L 125 115 L 140 115 L 144 117 L 146 124 L 146 126 L 146 138 L 151 149 L 159 156 L 169 160 Q 189 162 199 154 Q 208 147 212 136 L 215 124 L 216 108 L 220 99 L 238 79 Q 239 72 237 69 L 233 65 Q 221 65 217 71 L 211 77 L 199 96 L 196 107 L 196 118 L 190 135 L 181 141 L 171 140 L 165 132 L 165 115 L 161 106 L 148 96 Q 140 93 128 95 L 123 93 L 119 90 L 117 83 L 119 76 L 129 68 L 151 64 L 162 60 L 164 58 L 167 58 L 183 47 L 192 37 L 193 33 L 192 27 Q 190 20 180 22 Z " /><path fill="rgb(148,124,235)" stroke="rgb(148,124,235)" stroke-width="1" opacity="0.5411764705882353" d="M 188.5 23 L 192 26.5 L 193 32.5 L 192 36.5 L 182.5 47 L 174.5 52 L 174.5 51 L 184 44.5 L 191 36.5 L 192 30.5 L 188.5 23 Z " /><path fill="rgb(148,124,235)" stroke="rgb(148,124,235)" stroke-width="1" opacity="0.5411764705882353" d="M 176.5 25 L 169.5 33 L 154.5 42 L 154.5 41 Q 167.8 35.3 176.5 25 Z " /><path fill="rgb(148,124,235)" stroke="rgb(148,124,235)" stroke-width="1" opacity="0.5411764705882353" d="M 120.5 50 L 119.5 52 L 113.5 55 L 114.5 53 L 120.5 50 Z " /><path fill="rgb(148,124,235)" stroke="rgb(148,124,235)" stroke-width="1" opacity="0.5411764705882353" d="M 172.5 52 L 169.5 56 L 164.5 58 L 164.5 57 L 166.5 57 L 172.5 52 Z " /><path fill="rgb(148,124,235)" stroke="rgb(148,124,235)" stroke-width="1" opacity="0.5411764705882353" d="M 106.5 60 L 105 62.5 L 99.5 74 L 99 72.5 Q 101.3 64.8 106.5 60 Z " /><path fill="rgb(148,124,235)" stroke="rgb(148,124,235)" stroke-width="1" opacity="0.5411764705882353" d="M 227.5 65 Q 235.1 63.9 237 68.5 L 238 70.5 L 236 69.5 L 234.5 67 L 227.5 66 L 221.5 68 L 212 76.5 L 210.5 79 L 211 77.5 L 216.5 71 Q 220.3 66.3 227.5 65 Z " /><path fill="rgb(148,124,235)" stroke="rgb(148,124,235)" stroke-width="1" opacity="0.5411764705882353" d="M 128.5 67 L 131 67.5 L 124.5 71 L 125.5 69 L 128.5 67 Z " /><path fill="rgb(148,124,235)" stroke="rgb(148,124,235)" stroke-width="1" opacity="0.5411764705882353" d="M 122.5 71 L 119 75.5 L 118.5 77 L 118 75.5 L 122.5 71 Z " /><path fill="rgb(148,124,235)" stroke="rgb(148,124,235)" stroke-width="1" opacity="0.5411764705882353" d="M 237.5 77 L 238 78.5 L 222 95.5 L 216 107.5 L 215.5 112 L 215 107.5 L 221 95.5 L 237.5 77 Z " /><path fill="rgb(148,124,235)" stroke="rgb(148,124,235)" stroke-width="1" opacity="0.5411764705882353" d="M 209.5 80 L 209 81.5 L 203.5 90 L 204 88.5 L 209.5 80 Z " /><path fill="rgb(148,124,235)" stroke="rgb(148,124,235)" stroke-width="1" opacity="0.5411764705882353" d="M 202.5 91 L 201 93.5 L 199.5 97 L 199 95.5 L 202.5 91 Z " /><path fill="rgb(148,124,235)" stroke="rgb(148,124,235)" stroke-width="1" opacity="0.5411764705882353" d="M 99.5 93 Q 101.9 102.1 108.5 107 L 118 112.5 L 116.5 113 L 103 102.5 Q 99.2 98.6 99.5 93 Z " /><path fill="rgb(148,124,235)" stroke="rgb(148,124,235)" stroke-width="1" opacity="0.5411764705882353" d="M 146.5 96 Q 152.3 97.3 155 101.5 L 151.5 99 L 146.5 97 L 146.5 96 Z " /><path fill="rgb(148,124,235)" stroke="rgb(148,124,235)" stroke-width="1" opacity="0.5411764705882353" d="M 159.5 104 L 163 110.5 L 162 110.5 L 159.5 104 Z " /><path fill="rgb(148,124,235)" stroke="rgb(148,124,235)" stroke-width="1" opacity="0.5411764705882353" d="M 78.5 105 L 80 105.5 Q 70.5 108 65 114.5 L 55 129.5 L 47.5 149 L 47 146.5 Q 53.8 124.3 68.5 110 L 78.5 105 Z " /><path fill="rgb(148,124,235)" stroke="rgb(148,124,235)" stroke-width="1" opacity="0.5411764705882353" d="M 101.5 107 L 111 113.5 L 107.5 111 L 101.5 108 L 101.5 107 Z " /><path fill="rgb(148,124,235)" stroke="rgb(148,124,235)" stroke-width="1" opacity="0.5411764705882353" d="M 123.5 114 L 139.5 114 L 145 117.5 L 148 124.5 L 146.5 128 L 146 125.5 L 146 123.5 L 144 117 L 139.5 115 L 124.5 115 L 124.5 116 L 129.5 117 L 139 124.5 L 144 134.5 L 143 134.5 Q 140.5 126 134.5 121 Q 128.9 116.6 120 115.5 L 123.5 114 Z " /><path fill="rgb(148,124,235)" stroke="rgb(148,124,235)" stroke-width="1" opacity="0.5411764705882353" d="M 83.5 123 L 82.5 125 L 79 127.5 L 70.5 141 L 71 139.5 L 81.5 124 L 83.5 123 Z " /><path fill="rgb(148,124,235)" stroke="rgb(148,124,235)" stroke-width="1" opacity="0.5411764705882353" d="M 90.5 123 L 104 131.5 L 102.5 132 L 91.5 125 L 90.5 123 Z " /><path fill="rgb(148,124,235)" stroke="rgb(148,124,235)" stroke-width="1" opacity="0.5411764705882353" d="M 193.5 126 L 194 127.5 L 190.5 134 L 191 132.5 L 193.5 126 Z " /><path fill="rgb(148,124,235)" stroke="rgb(148,124,235)" stroke-width="1" opacity="0.5411764705882353" d="M 164.5 128 Q 165.1 136.4 170.5 140 L 173 140.5 L 170.5 141 L 164 131.5 L 164.5 128 Z " /><path fill="rgb(148,124,235)" stroke="rgb(148,124,235)" stroke-width="1" opacity="0.5411764705882353" d="M 146.5 129 L 147 137.5 L 146 137.5 L 146.5 129 Z " /><path fill="rgb(148,124,235)" stroke="rgb(148,124,235)" stroke-width="1" opacity="0.5411764705882353" d="M 212.5 131 L 213 132.5 Q 208.8 146.3 198.5 154 L 187.5 159 L 187.5 158 Q 199.1 155.1 205 146.5 L 212.5 131 Z " /><path fill="rgb(148,124,235)" stroke="rgb(148,124,235)" stroke-width="1" opacity="0.5411764705882353" d="M 116.5 134 L 119.5 134 L 125 139.5 L 119.5 135 Q 115.5 135.8 116.5 134 Z " /><path fill="rgb(148,124,235)" stroke="rgb(148,124,235)" stroke-width="1" opacity="0.5411764705882353" d="M 189.5 135 L 186.5 139 L 181.5 141 L 181.5 140 L 189.5 135 Z " /><path fill="rgb(148,124,235)" stroke="rgb(148,124,235)" stroke-width="1" opacity="0.5411764705882353" d="M 147.5 139 Q 150.6 149.4 158.5 155 L 165 157.5 L 162.5 158 Q 155 155 151 148.5 L 147 140.5 L 147.5 139 Z " /><path fill="rgb(148,124,235)" stroke="rgb(148,124,235)" stroke-width="1" opacity="0.5411764705882353" d="M 144.5 143 L 154 157.5 L 154 159.5 L 153 159.5 Q 150.6 151.4 145 146.5 L 144.5 143 Z " /><path fill="rgb(148,124,235)" stroke="rgb(148,124,235)" stroke-width="1" opacity="0.5411764705882353" d="M 66.5 152 L 67 153.5 Q 59.6 175.1 43.5 188 L 36.5 192 L 28.5 192 L 24 188.5 L 23 184.5 L 24 184.5 L 26.5 190 Q 29.7 192.3 36.5 191 Q 46.2 186.7 52 178.5 Q 61.7 167.7 66.5 152 Z " /><path fill="rgb(148,124,235)" stroke="rgb(148,124,235)" stroke-width="1" opacity="0.5411764705882353" d="M 127.5 153 L 131 159.5 L 128 157.5 L 127.5 153 Z " /><path fill="rgb(148,124,235)" stroke="rgb(148,124,235)" stroke-width="1" opacity="0.5411764705882353" d="M 43.5 157 L 42 159.5 Q 39 167 32.5 171 L 25 176.5 L 23.5 180 L 23 178.5 L 26.5 174 L 39 163.5 L 43.5 157 Z " /><path fill="rgb(148,124,235)" stroke="rgb(148,124,235)" stroke-width="1" opacity="0.5411764705882353" d="M 131.5 161 L 135 166.5 L 134 166.5 L 131.5 161 Z " /><path fill="rgb(148,124,235)" stroke="rgb(148,124,235)" stroke-width="1" opacity="0.5411764705882353" d="M 135.5 169 L 135 170.5 L 133 177 L 119.5 187 L 112.5 189 L 112.5 188 L 119.5 186 L 133 174.5 L 135.5 169 Z " /><path fill="rgb(148,124,235)" stroke="rgb(148,124,235)" stroke-width="1" opacity="0.5411764705882353" d="M 152.5 177 L 153 178.5 L 144.5 193 L 144 191.5 Q 150.1 186.1 152.5 177 Z " /><path fill="rgb(148,124,235)" stroke="rgb(148,124,235)" stroke-width="1" opacity="0.5411764705882353" d="M 106.5 191 L 105.5 193 Q 81.6 202.1 66 219.5 L 65.5 222 L 65 219.5 Q 81.6 201.1 106.5 191 Z " /><path fill="rgb(148,124,235)" stroke="rgb(148,124,235)" stroke-width="1" opacity="0.5411764705882353" d="M 142.5 194 L 140.5 197 L 101.5 216 L 93.5 222 L 95.5 219 L 137.5 198 L 142.5 194 Z " /><path fill="rgb(148,124,235)" stroke="rgb(148,124,235)" stroke-width="1" opacity="0.5411764705882353" d="M 91.5 222 L 86.5 228 L 78.5 233 L 78.5 232 L 81.5 231 L 91.5 222 Z " /><path fill="rgb(148,124,235)" stroke="rgb(148,124,235)" stroke-width="1" opacity="0.5411764705882353" d="M 65.5 226 L 68.5 232 L 75.5 233 L 77 232.5 Q 76 235 71.5 234 L 66 230.5 L 65.5 226 Z " /><path fill="rgb(148,125,235)" stroke="rgb(148,125,235)" stroke-width="1" opacity="0.996078431372549" d="M 98.5 78 L 99 87.5 L 98 87.5 L 98.5 78 Z " /><path fill="rgb(148,125,235)" stroke="rgb(148,125,235)" stroke-width="1" opacity="0.996078431372549" d="M 84.5 104 L 93 104.5 L 84.5 105 L 84.5 104 Z " /><path fill="rgb(148,125,235)" stroke="rgb(148,125,235)" stroke-width="1" opacity="0.996078431372549" d="M 152.5 148 L 158.5 155 L 152.5 148 Z " /><path fill="rgb(148,125,235)" stroke="rgb(148,125,235)" stroke-width="1" opacity="0.996078431372549" d="M 171.5 159 L 183 159.5 L 171.5 160 L 171.5 159 Z " /><path fill="rgb(148,125,235)" stroke="rgb(148,125,235)" stroke-width="1" opacity="1" d="M 180.5 23 Q 187.4 22.1 190 25.5 L 192 32.5 Q 187.3 42.8 178.5 49 L 167.5 56 L 150.5 63 L 130.5 66 L 117 76.5 L 116 83.5 L 119.5 92 L 126.5 96 L 132.5 96 L 137.5 95 L 143.5 97 L 145.5 97 L 149.5 98 L 160 106.5 Q 165.5 113 165 125.5 Q 162.5 127 164 132.5 L 170.5 141 Q 174 143.5 181.5 142 L 192 133.5 L 196 122.5 L 197 115.5 L 197 113.5 L 197 106.5 L 200 95.5 L 214.5 74 L 224.5 67 L 231.5 66 L 236 68.5 L 237 77.5 L 219 97.5 L 214 111.5 Q 216.3 112.7 215 117.5 L 210 137.5 Q 206.4 146.4 199.5 152 L 195.5 155 L 184.5 159 L 169.5 159 L 166.5 157 L 160.5 156 L 151 146.5 L 147 138.5 L 147 136.5 L 147 125.5 L 148 124.5 L 146 118.5 L 143.5 116 L 139.5 114 L 124.5 114 L 119.5 113 Q 110.4 110.1 105 103.5 L 100 94.5 L 99 76.5 Q 102 64.5 109.5 57 L 125.5 49 L 142.5 47 L 151.5 44 Q 169 36.5 180.5 23 Z " /><path fill="rgb(148,125,235)" stroke="rgb(148,125,235)" stroke-width="1" opacity="1" d="M 82.5 105 L 98.5 106 L 111.5 115 Q 128.6 114.9 137 123.5 L 143 133.5 L 145 146.5 L 153 158.5 L 154 170.5 L 150 183.5 L 138.5 197 L 97.5 217 L 79.5 232 L 72.5 233 L 67 231 Q 65.3 227.6 66 220.5 L 74.5 211 L 94.5 198 L 121.5 186 L 133 177 L 136 166.5 L 129 157.5 L 126 145.5 L 126 140.5 L 119.5 134 L 100.5 130 L 90.5 123 L 83.5 123 L 79 125 L 69 141.5 Q 65.9 158.4 58 170.5 L 44.5 186 L 38.5 190 L 29.5 191 L 25 189 L 24 179.5 L 30.5 172 L 41 162.5 L 48 149.5 Q 50.6 136.1 57 126.5 L 67.5 112 L 73.5 108 L 82.5 105 Z " /></svg>