<svg width="256" height="256" version="1.1" xmlns="http://www.w3.org/2000/svg" desc="Created with imagetracer.js version 1.2.6" ><path fill="rgb(235,124,124)" stroke="rgb(235,124,124)" stroke-width="1" opacity="0.48627450980392156" d="M 120.5 24 Q 128 22.5 131 25.5 L 112.5 26 L 96.5 30 L 96.5 29 L 106.5 26 L 119.5 25 L 120.5 24 Z " /><path fill="rgb(235,124,124)" stroke="rgb(235,124,124)" stroke-width="1" opacity="0.48627450980392156" d="M 132.5 26 L 136 27 L 139 32.5 Q 137.8 37.3 140 38.5 L 140 116 L 218.5 116 L 226 118 L 225.5 120 L 223.5 118 L 139.5 118 L 138 116.5 L 138 32.5 L 134.5 28 L 132.5 26 Z " /><path fill="rgb(235,124,124)" stroke="rgb(235,124,124)" stroke-width="1" opacity="0.48627450980392156" d="M 92.5 30 L 95 30.5 Q 80.6 34.6 70.5 43 L 72.5 40 L 92.5 30 Z " /><path fill="rgb(235,124,124)" stroke="rgb(235,124,124)" stroke-width="1" opacity="0.48627450980392156" d="M 166.5 34 L 170 34.5 L 166.5 35 L 166.5 34 Z " /><path fill="rgb(235,124,124)" stroke="rgb(235,124,124)" stroke-width="1" opacity="0.48627450980392156" d="M 164.5 35 L 164.5 36 L 164.5 35 Z " /><path fill="rgb(235,124,124)" stroke="rgb(235,124,124)" stroke-width="1" opacity="0.48627450980392156" d="M 172.5 35 L 174 35.5 L 172.5 36 L 172.5 35 Z " /><path fill="rgb(235,124,124)" stroke="rgb(235,124,124)" stroke-width="1" opacity="0.48627450980392156" d="M 162.5 36 L 161.5 38 L 162.5 36 Z " /><path fill="rgb(235,124,124)" stroke="rgb(235,124,124)" stroke-width="1" opacity="0.48627450980392156" d="M 175.5 36 L 186 42.5 L 183.5 41 L 175.5 37 L 175.5 36 Z " /><path fill="rgb(235,124,124)" stroke="rgb(235,124,124)" stroke-width="1" opacity="0.48627450980392156" d="M 159.5 39 L 160 40.5 L 159 41.5 L 159 48 Q 155.3 49.4 157 43.5 L 159.5 39 Z " /><path fill="rgb(235,124,124)" stroke="rgb(235,124,124)" stroke-width="1" opacity="0.48627450980392156" d="M 68.5 43 L 66.5 46 L 68.5 43 Z " /><path fill="rgb(235,124,124)" stroke="rgb(235,124,124)" stroke-width="1" opacity="0.48627450980392156" d="M 187.5 43 L 187.5 44 L 187.5 43 Z " /><path fill="rgb(235,124,124)" stroke="rgb(235,124,124)" stroke-width="1" opacity="0.48627450980392156" d="M 64.5 46 L 61.5 50 L 64.5 46 Z " /><path fill="rgb(235,124,124)" stroke="rgb(235,124,124)" stroke-width="1" opacity="0.48627450980392156" d="M 190.5 46 Q 192.8 45.3 192 47.5 L 201 54.5 L 209 63.5 L 198.5 54 L 190.5 46 Z " /><path fill="rgb(235,124,124)" stroke="rgb(235,124,124)" stroke-width="1" opacity="0.48627450980392156" d="M 113.5 47 Q 117.3 46.3 118 48.5 L 118 138 L 208.5 138 L 208.5 139 L 205.5 140 L 117.5 140 L 116 138.5 L 116 50.5 L 117 48 L 112.5 49 L 113.5 47 Z " /><path fill="rgb(235,124,124)" stroke="rgb(235,124,124)" stroke-width="1" opacity="0.48627450980392156" d="M 108.5 48 L 111 48.5 L 108.5 49 L 108.5 48 Z " /><path fill="rgb(235,124,124)" stroke="rgb(235,124,124)" stroke-width="1" opacity="0.48627450980392156" d="M 105.5 49 L 107 49.5 L 105.5 50 L 105.5 49 Z " /><path fill="rgb(235,124,124)" stroke="rgb(235,124,124)" stroke-width="1" opacity="0.48627450980392156" d="M 158.5 49 L 181.5 66 L 193 77.5 L 197 83.5 L 195.5 84 L 183.5 69 L 167 57.5 Q 167.8 54.9 164.5 56 L 158 50.5 L 158.5 49 Z " /><path fill="rgb(235,124,124)" stroke="rgb(235,124,124)" stroke-width="1" opacity="0.48627450980392156" d="M 59.5 50 L 52.5 58 L 59.5 50 Z " /><path fill="rgb(235,124,124)" stroke="rgb(235,124,124)" stroke-width="1" opacity="0.48627450980392156" d="M 102.5 50 L 104 50.5 L 102.5 51 L 102.5 50 Z " /><path fill="rgb(235,124,124)" stroke="rgb(235,124,124)" stroke-width="1" opacity="0.48627450980392156" d="M 99.5 51 L 101 51.5 L 99.5 52 L 99.5 51 Z " /><path fill="rgb(235,124,124)" stroke="rgb(235,124,124)" stroke-width="1" opacity="0.48627450980392156" d="M 96.5 52 L 98 52.5 L 96.5 53 L 96.5 52 Z " /><path fill="rgb(235,124,124)" stroke="rgb(235,124,124)" stroke-width="1" opacity="0.48627450980392156" d="M 94.5 53 L 94.5 54 L 94.5 53 Z " /><path fill="rgb(235,124,124)" stroke="rgb(235,124,124)" stroke-width="1" opacity="0.48627450980392156" d="M 92.5 54 L 92.5 55 L 92.5 54 Z " /><path fill="rgb(235,124,124)" stroke="rgb(235,124,124)" stroke-width="1" opacity="0.48627450980392156" d="M 90.5 55 L 90.5 56 L 90.5 55 Z " /><path fill="rgb(235,124,124)" stroke="rgb(235,124,124)" stroke-width="1" opacity="0.48627450980392156" d="M 88.5 56 L 88.5 57 L 88.5 56 Z " /><path fill="rgb(235,124,124)" stroke="rgb(235,124,124)" stroke-width="1" opacity="0.48627450980392156" d="M 86.5 57 L 84.5 60 L 83 59.5 L 86.5 57 Z " /><path fill="rgb(235,124,124)" stroke="rgb(235,124,124)" stroke-width="1" opacity="0.48627450980392156" d="M 49.5 61 L 46.5 65 L 49.5 61 Z " /><path fill="rgb(235,124,124)" stroke="rgb(235,124,124)" stroke-width="1" opacity="0.48627450980392156" d="M 80.5 61 L 82 61.5 L 80.5 62 L 80.5 61 Z " /><path fill="rgb(235,124,124)" stroke="rgb(235,124,124)" stroke-width="1" opacity="0.48627450980392156" d="M 76.5 64 L 77 66 L 70.5 71 L 76.5 64 Z " /><path fill="rgb(235,124,124)" stroke="rgb(235,124,124)" stroke-width="1" opacity="0.48627450980392156" d="M 209.5 65 L 220 80.5 L 219 80.5 L 209.5 65 Z " /><path fill="rgb(235,124,124)" stroke="rgb(235,124,124)" stroke-width="1" opacity="0.48627450980392156" d="M 45.5 66 L 43.5 69 L 45.5 66 Z " /><path fill="rgb(235,124,124)" stroke="rgb(235,124,124)" stroke-width="1" opacity="0.48627450980392156" d="M 42.5 70 L 41.5 72 L 42.5 70 Z " /><path fill="rgb(235,124,124)" stroke="rgb(235,124,124)" stroke-width="1" opacity="0.48627450980392156" d="M 40.5 73 L 40 74.5 L 38.5 77 L 39 75.5 L 40.5 73 Z " /><path fill="rgb(235,124,124)" stroke="rgb(235,124,124)" stroke-width="1" opacity="0.48627450980392156" d="M 66.5 74 L 65 76.5 L 64.5 78 L 64 76.5 L 66.5 74 Z " /><path fill="rgb(235,124,124)" stroke="rgb(235,124,124)" stroke-width="1" opacity="0.48627450980392156" d="M 37.5 78 L 37.5 79 L 37.5 78 Z " /><path fill="rgb(235,124,124)" stroke="rgb(235,124,124)" stroke-width="1" opacity="0.48627450980392156" d="M 62.5 78 L 63 79.5 L 61.5 82 L 61 80.5 L 62.5 78 Z " /><path fill="rgb(235,124,124)" stroke="rgb(235,124,124)" stroke-width="1" opacity="0.48627450980392156" d="M 36.5 80 L 36.5 81 L 36.5 80 Z " /><path fill="rgb(235,124,124)" stroke="rgb(235,124,124)" stroke-width="1" opacity="0.48627450980392156" d="M 35.5 82 L 35.5 83 L 35.5 82 Z " /><path fill="rgb(235,124,124)" stroke="rgb(235,124,124)" stroke-width="1" opacity="0.48627450980392156" d="M 220.5 82 L 221 83.5 L 220 83.5 L 220.5 82 Z " /><path fill="rgb(235,124,124)" stroke="rgb(235,124,124)" stroke-width="1" opacity="0.48627450980392156" d="M 59.5 83 L 60 84.5 L 58 86.5 L 49.5 107 L 49 105.5 Q 52.5 92.5 59.5 83 Z " /><path fill="rgb(235,124,124)" stroke="rgb(235,124,124)" stroke-width="1" opacity="0.48627450980392156" d="M 34.5 84 L 34.5 85 L 34.5 84 Z " /><path fill="rgb(235,124,124)" stroke="rgb(235,124,124)" stroke-width="1" opacity="0.48627450980392156" d="M 197.5 85 Q 200.3 92.3 206 96.5 L 203.5 95 L 200 92.5 Q 200.5 88 197 87.5 L 197.5 85 Z " /><path fill="rgb(235,124,124)" stroke="rgb(235,124,124)" stroke-width="1" opacity="0.48627450980392156" d="M 221.5 85 L 222 90.5 L 217.5 96 L 219 93.5 L 221.5 85 Z " /><path fill="rgb(235,124,124)" stroke="rgb(235,124,124)" stroke-width="1" opacity="0.48627450980392156" d="M 33.5 86 L 34 87.5 L 33 87.5 L 33.5 86 Z " /><path fill="rgb(235,124,124)" stroke="rgb(235,124,124)" stroke-width="1" opacity="0.48627450980392156" d="M 32.5 89 L 32.5 90 L 32.5 89 Z " /><path fill="rgb(235,124,124)" stroke="rgb(235,124,124)" stroke-width="1" opacity="0.48627450980392156" d="M 31.5 91 L 32 92.5 L 31 92.5 L 31.5 91 Z " /><path fill="rgb(235,124,124)" stroke="rgb(235,124,124)" stroke-width="1" opacity="0.48627450980392156" d="M 30.5 94 L 30.5 95 L 30.5 94 Z " /><path fill="rgb(235,124,124)" stroke="rgb(235,124,124)" stroke-width="1" opacity="0.48627450980392156" d="M 29.5 96 L 30 97.5 L 29 97.5 L 29.5 96 Z " /><path fill="rgb(235,124,124)" stroke="rgb(235,124,124)" stroke-width="1" opacity="0.48627450980392156" d="M 214.5 96 L 216 96.5 L 214.5 97 L 214.5 96 Z " /><path fill="rgb(235,124,124)" stroke="rgb(235,124,124)" stroke-width="1" opacity="0.48627450980392156" d="M 207.5 97 Q 213.3 95.3 212 99 Q 206.8 99.3 207.5 97 Z " /><path fill="rgb(235,124,124)" stroke="rgb(235,124,124)" stroke-width="1" opacity="0.48627450980392156" d="M 28.5 100 L 29 102.5 L 28 102.5 L 28.5 100 Z " /><path fill="rgb(235,124,124)" stroke="rgb(235,124,124)" stroke-width="1" opacity="0.48627450980392156" d="M 27.5 105 L 28 107.5 L 26 113.5 L 26 144.5 L 28 152.5 L 27 152.5 L 24 136.5 L 24 121.5 L 25 120.5 L 26 107.5 L 27.5 105 Z " /><path fill="rgb(235,124,124)" stroke="rgb(235,124,124)" stroke-width="1" opacity="0.48627450980392156" d="M 48.5 108 L 49 109.5 L 48 109.5 L 48.5 108 Z " /><path fill="rgb(235,124,124)" stroke="rgb(235,124,124)" stroke-width="1" opacity="0.48627450980392156" d="M 48.5 111 L 49 115 Q 46 116.3 47 112.5 L 48.5 111 Z " /><path fill="rgb(235,124,124)" stroke="rgb(235,124,124)" stroke-width="1" opacity="0.48627450980392156" d="M 47.5 116 L 48 122.5 L 47 123.5 L 47 133.5 L 48 138.5 L 46 139.5 L 46 117.5 L 47.5 116 Z " /><path fill="rgb(235,124,124)" stroke="rgb(235,124,124)" stroke-width="1" opacity="0.48627450980392156" d="M 227.5 120 Q 229.8 119.3 229 121.5 L 229.5 123 L 227.5 120 Z " /><path fill="rgb(235,124,124)" stroke="rgb(235,124,124)" stroke-width="1" opacity="0.48627450980392156" d="M 230.5 124 Q 233.7 127.3 232 135.5 L 228 158.5 L 224.5 165 L 224 163.5 L 227 157.5 L 230 143.5 L 230.5 124 Z " /><path fill="rgb(235,124,124)" stroke="rgb(235,124,124)" stroke-width="1" opacity="0.48627450980392156" d="M 208.5 140 L 209 144.5 L 206.5 150 L 206 146.5 Q 209.5 145 207 143.5 L 208.5 140 Z " /><path fill="rgb(235,124,124)" stroke="rgb(235,124,124)" stroke-width="1" opacity="0.48627450980392156" d="M 47.5 142 L 48 144.5 L 47 144.5 L 47.5 142 Z " /><path fill="rgb(235,124,124)" stroke="rgb(235,124,124)" stroke-width="1" opacity="0.48627450980392156" d="M 48.5 147 L 49 149.5 L 48 149.5 L 48.5 147 Z " /><path fill="rgb(235,124,124)" stroke="rgb(235,124,124)" stroke-width="1" opacity="0.48627450980392156" d="M 49.5 151 L 50 152.5 L 49 152.5 L 49.5 151 Z " /><path fill="rgb(235,124,124)" stroke="rgb(235,124,124)" stroke-width="1" opacity="0.48627450980392156" d="M 205.5 151 L 206 152.5 L 205 152.5 L 205.5 151 Z " /><path fill="rgb(235,124,124)" stroke="rgb(235,124,124)" stroke-width="1" opacity="0.48627450980392156" d="M 50.5 154 L 50.5 155 L 50.5 154 Z " /><path fill="rgb(235,124,124)" stroke="rgb(235,124,124)" stroke-width="1" opacity="0.48627450980392156" d="M 204.5 154 L 205 155.5 L 204 155.5 L 204.5 154 Z " /><path fill="rgb(235,124,124)" stroke="rgb(235,124,124)" stroke-width="1" opacity="0.48627450980392156" d="M 28.5 155 L 29 156.5 L 28 156.5 L 28.5 155 Z " /><path fill="rgb(235,124,124)" stroke="rgb(235,124,124)" stroke-width="1" opacity="0.48627450980392156" d="M 51.5 156 L 52 157.5 L 51 157.5 L 51.5 156 Z " /><path fill="rgb(235,124,124)" stroke="rgb(235,124,124)" stroke-width="1" opacity="0.48627450980392156" d="M 203.5 157 L 204 158.5 L 203 158.5 L 203.5 157 Z " /><path fill="rgb(235,124,124)" stroke="rgb(235,124,124)" stroke-width="1" opacity="0.48627450980392156" d="M 29.5 158 L 30 159.5 L 29 159.5 L 29.5 158 Z " /><path fill="rgb(235,124,124)" stroke="rgb(235,124,124)" stroke-width="1" opacity="0.48627450980392156" d="M 52.5 159 L 52.5 160 L 52.5 159 Z " /><path fill="rgb(235,124,124)" stroke="rgb(235,124,124)" stroke-width="1" opacity="0.48627450980392156" d="M 202.5 160 L 203 161.5 L 202 161.5 L 202.5 160 Z " /><path fill="rgb(235,124,124)" stroke="rgb(235,124,124)" stroke-width="1" opacity="0.48627450980392156" d="M 30.5 161 L 31 162.5 L 30 162.5 L 30.5 161 Z " /><path fill="rgb(235,124,124)" stroke="rgb(235,124,124)" stroke-width="1" opacity="0.48627450980392156" d="M 53.5 161 L 59 169.5 L 58.5 171 L 60 171 L 60 174 L 62 174 Q 60.5 177.8 63.5 177 L 66 182 L 70 184.5 L 74.5 190 L 78 191.5 L 79 193.5 L 75.5 191 L 63 179.5 Q 56.1 171.4 53.5 161 Z " /><path fill="rgb(235,124,124)" stroke="rgb(235,124,124)" stroke-width="1" opacity="0.48627450980392156" d="M 201.5 163 L 202 164.5 L 201 164.5 L 201.5 163 Z " /><path fill="rgb(235,124,124)" stroke="rgb(235,124,124)" stroke-width="1" opacity="0.48627450980392156" d="M 31.5 164 L 33 167.5 L 32 167.5 L 31.5 164 Z " /><path fill="rgb(235,124,124)" stroke="rgb(235,124,124)" stroke-width="1" opacity="0.48627450980392156" d="M 199 166 L 201 166.5 L 194.5 175 L 196 172.5 L 199 168.5 L 199 166 Z " /><path fill="rgb(235,124,124)" stroke="rgb(235,124,124)" stroke-width="1" opacity="0.48627450980392156" d="M 223.5 166 L 224 167.5 L 218.5 178 L 219 176.5 L 223.5 166 Z " /><path fill="rgb(235,124,124)" stroke="rgb(235,124,124)" stroke-width="1" opacity="0.48627450980392156" d="M 33.5 169 L 35 171.5 L 33 170.5 L 33.5 169 Z " /><path fill="rgb(235,124,124)" stroke="rgb(235,124,124)" stroke-width="1" opacity="0.48627450980392156" d="M 35.5 173 L 35.5 174 L 35.5 173 Z " /><path fill="rgb(235,124,124)" stroke="rgb(235,124,124)" stroke-width="1" opacity="0.48627450980392156" d="M 36.5 175 L 36.5 176 L 36.5 175 Z " /><path fill="rgb(235,124,124)" stroke="rgb(235,124,124)" stroke-width="1" opacity="0.48627450980392156" d="M 193.5 176 L 191 179.5 L 189.5 182 L 190 180.5 L 193.5 176 Z " /><path fill="rgb(235,124,124)" stroke="rgb(235,124,124)" stroke-width="1" opacity="0.48627450980392156" d="M 37.5 177 Q 46.5 195 61.5 207 L 77.5 218 L 94 225.5 L 92.5 226 L 90.5 224 L 86.5 224 L 73.5 217 L 52 199.5 L 39 182.5 L 37.5 177 Z " /><path fill="rgb(235,124,124)" stroke="rgb(235,124,124)" stroke-width="1" opacity="0.48627450980392156" d="M 217.5 179 L 216.5 181 L 217.5 179 Z " /><path fill="rgb(235,124,124)" stroke="rgb(235,124,124)" stroke-width="1" opacity="0.48627450980392156" d="M 215.5 182 L 215.5 183 L 215.5 182 Z " /><path fill="rgb(235,124,124)" stroke="rgb(235,124,124)" stroke-width="1" opacity="0.48627450980392156" d="M 188.5 183 L 184.5 188 L 188.5 183 Z " /><path fill="rgb(235,124,124)" stroke="rgb(235,124,124)" stroke-width="1" opacity="0.48627450980392156" d="M 214.5 184 L 213 186.5 L 210.5 190 L 212 187.5 L 214.5 184 Z " /><path fill="rgb(235,124,124)" stroke="rgb(235,124,124)" stroke-width="1" opacity="0.48627450980392156" d="M 182.5 188 L 180.5 191 L 179 190.5 L 182.5 188 Z " /><path fill="rgb(235,124,124)" stroke="rgb(235,124,124)" stroke-width="1" opacity="0.48627450980392156" d="M 208.5 192 L 206.5 195 L 208.5 192 Z " /><path fill="rgb(235,124,124)" stroke="rgb(235,124,124)" stroke-width="1" opacity="0.48627450980392156" d="M 175 193 L 177 193.5 L 174 195.5 L 175 193 Z " /><path fill="rgb(235,124,124)" stroke="rgb(235,124,124)" stroke-width="1" opacity="0.48627450980392156" d="M 80.5 194 Q 82.8 193.3 82 195.5 L 80.5 194 Z " /><path fill="rgb(235,124,124)" stroke="rgb(235,124,124)" stroke-width="1" opacity="0.48627450980392156" d="M 83.5 196 L 85 196.5 L 83.5 197 L 83.5 196 Z " /><path fill="rgb(235,124,124)" stroke="rgb(235,124,124)" stroke-width="1" opacity="0.48627450980392156" d="M 171 196 L 173 196.5 L 171 197.5 L 171 196 Z " /><path fill="rgb(235,124,124)" stroke="rgb(235,124,124)" stroke-width="1" opacity="0.48627450980392156" d="M 86.5 198 L 86.5 199 L 86.5 198 Z " /><path fill="rgb(235,124,124)" stroke="rgb(235,124,124)" stroke-width="1" opacity="0.48627450980392156" d="M 88.5 198 L 96 202.5 L 94.5 202 L 88 200 L 88.5 198 Z " /><path fill="rgb(235,124,124)" stroke="rgb(235,124,124)" stroke-width="1" opacity="0.48627450980392156" d="M 167.5 198 L 168 200 L 161.5 203 L 161 201 L 167.5 198 Z " /><path fill="rgb(235,124,124)" stroke="rgb(235,124,124)" stroke-width="1" opacity="0.48627450980392156" d="M 169.5 198 L 169.5 199 L 169.5 198 Z " /><path fill="rgb(235,124,124)" stroke="rgb(235,124,124)" stroke-width="1" opacity="0.48627450980392156" d="M 202.5 199 L 197.5 205 L 202.5 199 Z " /><path fill="rgb(235,124,124)" stroke="rgb(235,124,124)" stroke-width="1" opacity="0.48627450980392156" d="M 97.5 203 L 99 203.5 L 97.5 204 L 97.5 203 Z " /><path fill="rgb(235,124,124)" stroke="rgb(235,124,124)" stroke-width="1" opacity="0.48627450980392156" d="M 159.5 203 L 159.5 204 L 159.5 203 Z " /><path fill="rgb(235,124,124)" stroke="rgb(235,124,124)" stroke-width="1" opacity="0.48627450980392156" d="M 100.5 204 L 104 205.5 L 102.5 206 L 100.5 204 Z " /><path fill="rgb(235,124,124)" stroke="rgb(235,124,124)" stroke-width="1" opacity="0.48627450980392156" d="M 156.5 204 L 158 204.5 L 156.5 205 L 156.5 204 Z " /><path fill="rgb(235,124,124)" stroke="rgb(235,124,124)" stroke-width="1" opacity="0.48627450980392156" d="M 152.5 205 L 155 205.5 L 152.5 206 L 152.5 205 Z " /><path fill="rgb(235,124,124)" stroke="rgb(235,124,124)" stroke-width="1" opacity="0.48627450980392156" d="M 105.5 206 Q 110 205 111 207.5 L 108.5 208 L 105.5 207 L 105.5 206 Z " /><path fill="rgb(235,124,124)" stroke="rgb(235,124,124)" stroke-width="1" opacity="0.48627450980392156" d="M 146.5 206 L 151 206.5 L 140.5 209 L 141.5 207 L 146.5 206 Z " /><path fill="rgb(235,124,124)" stroke="rgb(235,124,124)" stroke-width="1" opacity="0.48627450980392156" d="M 194.5 206 L 192.5 209 L 194.5 206 Z " /><path fill="rgb(235,124,124)" stroke="rgb(235,124,124)" stroke-width="1" opacity="0.48627450980392156" d="M 112.5 207 L 116 208.5 L 113.5 209 L 112.5 207 Z " /><path fill="rgb(235,124,124)" stroke="rgb(235,124,124)" stroke-width="1" opacity="0.48627450980392156" d="M 118.5 208 L 128.5 209 L 129.5 208 L 137.5 208 L 138.5 210 L 119.5 210 L 118.5 208 Z " /><path fill="rgb(235,124,124)" stroke="rgb(235,124,124)" stroke-width="1" opacity="0.48627450980392156" d="M 189.5 210 L 188.5 212 L 189.5 210 Z " /><path fill="rgb(235,124,124)" stroke="rgb(235,124,124)" stroke-width="1" opacity="0.48627450980392156" d="M 186.5 212 L 185.5 214 L 186.5 212 Z " /><path fill="rgb(235,124,124)" stroke="rgb(235,124,124)" stroke-width="1" opacity="0.48627450980392156" d="M 183.5 214 L 182.5 216 L 183.5 214 Z " /><path fill="rgb(235,124,124)" stroke="rgb(235,124,124)" stroke-width="1" opacity="0.48627450980392156" d="M 180.5 216 L 179.5 218 L 168.5 223 L 168.5 222 L 180.5 216 Z " /><path fill="rgb(235,124,124)" stroke="rgb(235,124,124)" stroke-width="1" opacity="0.48627450980392156" d="M 166.5 223 L 166.5 224 L 166.5 223 Z " /><path fill="rgb(235,124,124)" stroke="rgb(235,124,124)" stroke-width="1" opacity="0.48627450980392156" d="M 163.5 224 L 165 224.5 L 161.5 226 L 161.5 225 L 163.5 224 Z " /><path fill="rgb(235,124,124)" stroke="rgb(235,124,124)" stroke-width="1" opacity="0.48627450980392156" d="M 95.5 225 L 112.5 230 L 143.5 230 L 149.5 228 L 148.5 230 L 135.5 231 L 134.5 232 L 120.5 232 L 119.5 231 L 106.5 230 L 95 227 L 95.5 225 Z " /><path fill="rgb(235,124,124)" stroke="rgb(235,124,124)" stroke-width="1" opacity="0.48627450980392156" d="M 156.5 226 L 159 226.5 L 156.5 227 L 156.5 226 Z " /><path fill="rgb(235,124,124)" stroke="rgb(235,124,124)" stroke-width="1" opacity="0.48627450980392156" d="M 152.5 227 L 155 227.5 L 152.5 228 L 152.5 227 Z " /><path fill="rgb(235,125,125)" stroke="rgb(235,125,125)" stroke-width="1" opacity="0.996078431372549" d="M 112.5 26 L 117 26.5 L 102.5 29 L 94.5 32 L 95.5 30 L 112.5 26 Z " /><path fill="rgb(235,125,125)" stroke="rgb(235,125,125)" stroke-width="1" opacity="0.996078431372549" d="M 130.5 26 L 136 29.5 L 134.5 29 Q 129.8 28.2 130.5 26 Z " /><path fill="rgb(235,125,125)" stroke="rgb(235,125,125)" stroke-width="1" opacity="0.996078431372549" d="M 92.5 31 L 93 33 L 83.5 36 L 65.5 47 L 65.5 46 Q 77.3 36.8 92.5 31 Z " /><path fill="rgb(235,125,125)" stroke="rgb(235,125,125)" stroke-width="1" opacity="0.996078431372549" d="M 136.5 31 L 136.5 32 L 136.5 31 Z " /><path fill="rgb(235,125,125)" stroke="rgb(235,125,125)" stroke-width="1" opacity="0.996078431372549" d="M 137.5 33 L 137.5 34 L 137.5 33 Z " /><path fill="rgb(235,125,125)" stroke="rgb(235,125,125)" stroke-width="1" opacity="0.996078431372549" d="M 165.5 35 L 170 35.5 Q 164.3 35.3 162 38.5 Q 159.3 40.8 159.5 46 L 159 41.5 L 163.5 36 L 165.5 35 Z " /><path fill="rgb(235,125,125)" stroke="rgb(235,125,125)" stroke-width="1" opacity="0.996078431372549" d="M 171.5 35 L 171.5 36 L 171.5 35 Z " /><path fill="rgb(235,125,125)" stroke="rgb(235,125,125)" stroke-width="1" opacity="0.996078431372549" d="M 173.5 36 L 179 38 L 178.5 40 L 173.5 37 L 173.5 36 Z " /><path fill="rgb(235,125,125)" stroke="rgb(235,125,125)" stroke-width="1" opacity="0.996078431372549" d="M 180.5 40 L 186.5 43 L 209 64.5 L 220 81.5 L 221 89.5 L 216.5 96 L 215 95.5 Q 221.1 93.6 220 84.5 L 208 64.5 L 200.5 57 L 183.5 42 L 180.5 41 L 180.5 40 Z " /><path fill="rgb(235,125,125)" stroke="rgb(235,125,125)" stroke-width="1" opacity="0.996078431372549" d="M 113.5 46 Q 117.3 45.3 118 47.5 L 116.5 47 L 109.5 48 L 109.5 47 L 113.5 46 Z " /><path fill="rgb(235,125,125)" stroke="rgb(235,125,125)" stroke-width="1" opacity="0.996078431372549" d="M 159.5 47 L 162.5 52 L 184.5 67 L 192 74.5 L 202 91.5 L 205.5 95 L 211 96.5 L 206.5 97 L 201 91.5 L 193 77.5 L 181.5 66 L 159 49.5 L 159.5 47 Z " /><path fill="rgb(235,125,125)" stroke="rgb(235,125,125)" stroke-width="1" opacity="0.996078431372549" d="M 63.5 48 L 60.5 52 L 51 60.5 Q 36 77 29.5 102 L 29 98.5 Q 38.8 68.3 60.5 50 L 63.5 48 Z " /><path fill="rgb(235,125,125)" stroke="rgb(235,125,125)" stroke-width="1" opacity="0.996078431372549" d="M 106.5 48 L 108 48.5 L 106.5 49 L 106.5 48 Z " /><path fill="rgb(235,125,125)" stroke="rgb(235,125,125)" stroke-width="1" opacity="0.996078431372549" d="M 102.5 49 L 105 49.5 Q 78.5 57 64 76.5 Q 64.8 78.8 62.5 78 L 78.5 61 L 102.5 49 Z " /><path fill="rgb(235,125,125)" stroke="rgb(235,125,125)" stroke-width="1" opacity="0.996078431372549" d="M 61.5 79 L 61 80.5 Q 50 95 46.5 117 L 46 112.5 Q 50.4 92.4 61.5 79 Z " /><path fill="rgb(235,125,125)" stroke="rgb(235,125,125)" stroke-width="1" opacity="0.996078431372549" d="M 212.5 96 L 214 96.5 L 212.5 97 L 212.5 96 Z " /><path fill="rgb(235,125,125)" stroke="rgb(235,125,125)" stroke-width="1" opacity="0.996078431372549" d="M 28.5 103 L 29 107.5 L 26.5 117 L 26 113.5 L 28.5 103 Z " /><path fill="rgb(235,125,125)" stroke="rgb(235,125,125)" stroke-width="1" opacity="0.996078431372549" d="M 138.5 117 L 138.5 118 L 138.5 117 Z " /><path fill="rgb(235,125,125)" stroke="rgb(235,125,125)" stroke-width="1" opacity="0.996078431372549" d="M 222.5 118 L 229 122.5 L 227.5 122 L 222.5 119 L 222.5 118 Z " /><path fill="rgb(235,125,125)" stroke="rgb(235,125,125)" stroke-width="1" opacity="0.996078431372549" d="M 229.5 124 L 229.5 125 L 229.5 124 Z " /><path fill="rgb(235,125,125)" stroke="rgb(235,125,125)" stroke-width="1" opacity="0.996078431372549" d="M 209.5 138 L 210 143.5 L 209 143.5 L 209.5 138 Z " /><path fill="rgb(235,125,125)" stroke="rgb(235,125,125)" stroke-width="1" opacity="0.996078431372549" d="M 229.5 139 L 230 143.5 L 228.5 146 L 228 144.5 L 229.5 139 Z " /><path fill="rgb(235,125,125)" stroke="rgb(235,125,125)" stroke-width="1" opacity="0.996078431372549" d="M 26.5 140 L 28 146.5 L 27 146.5 L 26.5 140 Z " /><path fill="rgb(235,125,125)" stroke="rgb(235,125,125)" stroke-width="1" opacity="0.996078431372549" d="M 46.5 140 L 46.5 141 L 46.5 140 Z " /><path fill="rgb(235,125,125)" stroke="rgb(235,125,125)" stroke-width="1" opacity="0.996078431372549" d="M 46.5 142 L 47 143.5 L 46 143.5 L 46.5 142 Z " /><path fill="rgb(235,125,125)" stroke="rgb(235,125,125)" stroke-width="1" opacity="0.996078431372549" d="M 47.5 145 L 47.5 146 L 47.5 145 Z " /><path fill="rgb(235,125,125)" stroke="rgb(235,125,125)" stroke-width="1" opacity="0.996078431372549" d="M 208.5 145 L 209 146.5 L 204.5 158 L 204 156.5 L 208.5 145 Z " /><path fill="rgb(235,125,125)" stroke="rgb(235,125,125)" stroke-width="1" opacity="0.996078431372549" d="M 47.5 147 L 48 148.5 L 47 148.5 L 47.5 147 Z " /><path fill="rgb(235,125,125)" stroke="rgb(235,125,125)" stroke-width="1" opacity="0.996078431372549" d="M 228.5 147 L 229 148.5 L 224.5 163 L 224 161.5 L 228.5 147 Z " /><path fill="rgb(235,125,125)" stroke="rgb(235,125,125)" stroke-width="1" opacity="0.996078431372549" d="M 27.5 148 L 30 157.5 L 29 157.5 L 27.5 148 Z " /><path fill="rgb(235,125,125)" stroke="rgb(235,125,125)" stroke-width="1" opacity="0.996078431372549" d="M 48.5 150 L 49 151.5 L 48 151.5 L 48.5 150 Z " /><path fill="rgb(235,125,125)" stroke="rgb(235,125,125)" stroke-width="1" opacity="0.996078431372549" d="M 49.5 153 L 57 170.5 L 63 178.5 L 60 176.5 Q 51.8 166.4 49.5 153 Z " /><path fill="rgb(235,125,125)" stroke="rgb(235,125,125)" stroke-width="1" opacity="0.996078431372549" d="M 30.5 159 L 31 160.5 L 30 160.5 L 30.5 159 Z " /><path fill="rgb(235,125,125)" stroke="rgb(235,125,125)" stroke-width="1" opacity="0.996078431372549" d="M 203.5 159 L 204 160.5 L 203 160.5 L 203.5 159 Z " /><path fill="rgb(235,125,125)" stroke="rgb(235,125,125)" stroke-width="1" opacity="0.996078431372549" d="M 31.5 162 L 33 165.5 L 32 165.5 L 31.5 162 Z " /><path fill="rgb(235,125,125)" stroke="rgb(235,125,125)" stroke-width="1" opacity="0.996078431372549" d="M 202.5 162 L 203 163.5 L 202 163.5 L 202.5 162 Z " /><path fill="rgb(235,125,125)" stroke="rgb(235,125,125)" stroke-width="1" opacity="0.996078431372549" d="M 223.5 164 L 224 165.5 L 222.5 168 L 222 166.5 L 223.5 164 Z " /><path fill="rgb(235,125,125)" stroke="rgb(235,125,125)" stroke-width="1" opacity="0.996078431372549" d="M 201.5 165 L 202 166.5 L 191 182.5 L 184.5 189 Q 173 200.5 155.5 206 L 155.5 205 L 171.5 198 L 189 183.5 L 201.5 165 Z " /><path fill="rgb(235,125,125)" stroke="rgb(235,125,125)" stroke-width="1" opacity="0.996078431372549" d="M 33.5 167 Q 42.4 188.6 58.5 203 Q 80 224 117 229.5 L 112.5 230 Q 71.8 222.2 50 195.5 Q 38.3 183.5 33.5 167 Z " /><path fill="rgb(235,125,125)" stroke="rgb(235,125,125)" stroke-width="1" opacity="0.996078431372549" d="M 221.5 169 L 222 170.5 Q 214.9 186.4 203.5 198 L 203 196.5 L 209 190.5 L 221.5 169 Z " /><path fill="rgb(235,125,125)" stroke="rgb(235,125,125)" stroke-width="1" opacity="0.996078431372549" d="M 63.5 180 L 65.5 183 L 63.5 180 Z " /><path fill="rgb(235,125,125)" stroke="rgb(235,125,125)" stroke-width="1" opacity="0.996078431372549" d="M 71.5 188 L 81.5 196 L 85 197 L 84.5 199 L 75.5 193 L 71.5 188 Z " /><path fill="rgb(235,125,125)" stroke="rgb(235,125,125)" stroke-width="1" opacity="0.996078431372549" d="M 86.5 199 L 108.5 208 L 119 209.5 L 113.5 210 L 92.5 203 L 86.5 200 L 86.5 199 Z " /><path fill="rgb(235,125,125)" stroke="rgb(235,125,125)" stroke-width="1" opacity="0.996078431372549" d="M 201.5 199 L 195.5 206 Q 180.5 220 157.5 226 L 157.5 225 L 160.5 225 L 176.5 218 Q 190.6 210.1 201.5 199 Z " /><path fill="rgb(235,125,125)" stroke="rgb(235,125,125)" stroke-width="1" opacity="0.996078431372549" d="M 151.5 206 L 154 206.5 L 151.5 207 L 151.5 206 Z " /><path fill="rgb(235,125,125)" stroke="rgb(235,125,125)" stroke-width="1" opacity="0.996078431372549" d="M 146.5 207 L 150 207.5 L 139.5 210 L 139.5 209 L 146.5 207 Z " /><path fill="rgb(235,125,125)" stroke="rgb(235,125,125)" stroke-width="1" opacity="0.996078431372549" d="M 152.5 226 L 156 226.5 L 151.5 228 L 152.5 226 Z " /><path fill="rgb(235,125,125)" stroke="rgb(235,125,125)" stroke-width="1" opacity="0.996078431372549" d="M 148.5 227 L 150 227.5 L 143.5 230 L 139.5 230 L 139.5 229 Q 145.6 229.6 148.5 227 Z " /><path fill="rgb(235,125,125)" stroke="rgb(235,125,125)" stroke-width="1" opacity="1" d="M 117.5 26 L 129.5 26 L 137 30.5 L 136.5 32 L 138 32.5 L 138 34.5 L 138 118 L 221.5 118 L 230 123.5 L 230 125.5 Q 231.4 137.9 228 145.5 L 228 147.5 L 222 168.5 L 209 190.5 L 203 196.5 L 203 199 L 176.5 218 L 160.5 225 L 152.5 226 L 150.5 228 L 148.5 227 L 138.5 230 L 117.5 230 L 96.5 225 L 79.5 218 Q 64.2 209.8 53 197.5 L 40 180.5 L 31 161.5 L 29 150.5 L 27 147.5 L 28 145.5 L 26 139.5 L 26 117.5 L 28 112.5 L 30 98.5 L 39 77.5 Q 47.3 62.8 59.5 52 L 64 48.5 Q 63.2 45.9 66.5 47 L 83.5 36 L 93 33 L 93.5 31 L 95.5 31 L 117.5 26 Z M 114 46 L 97 51 L 79 61 Q 61 75 51 97 L 46 113 L 46 141 L 46 143 L 47 146 L 47 148 Q 52 167 63 181 L 67 183 L 71 189 L 83 197 Q 84 200 86 198 L 86 200 L 103 207 L 114 210 L 142 210 L 158 206 Q 173 200 185 189 L 201 169 L 210 144 Q 211 138 210 138 L 118 138 L 118 48 Q 117 45 114 46 Z " /><path fill="rgb(235,125,125)" stroke="rgb(235,125,125)" stroke-width="1" opacity="1" d="M 170.5 35 L 178.5 40 L 180 39.5 Q 179.3 41.8 181.5 41 L 208 64.5 L 219 81.5 L 220 89.5 L 214.5 96 L 211.5 97 Q 204.9 96.1 202 91.5 Q 195.9 76.6 184.5 67 L 160 49.5 L 159 46.5 L 160 41.5 L 163.5 37 L 170.5 35 Z " /><path fill="rgb(0,0,0)" stroke="rgb(0,0,0)" stroke-width="1" opacity="0" d="M 0 0 L 256 0 L 256 256 L 0 256 L 0 0 Z M 121 24 L 120 25 L 107 26 L 88 32 Q 72 39 60 50 Q 43 65 33 87 L 29 97 L 28 105 L 26 108 L 25 121 L 24 122 L 25 145 L 31 166 L 39 183 L 52 200 L 74 217 L 87 224 L 91 224 L 93 226 L 95 225 L 95 227 L 107 230 L 120 231 L 121 232 L 144 231 L 149 230 L 151 228 L 163 226 L 177 220 L 198 205 Q 213 191 223 171 Q 224 163 228 159 L 232 136 Q 234 125 229 122 Q 230 118 226 120 L 226 118 L 219 116 L 140 116 L 140 39 Q 138 37 139 33 L 136 27 L 129 24 L 121 24 Z M 167 34 L 161 38 Q 162 40 160 39 Q 156 42 157 48 L 159 49 L 158 51 L 165 56 Q 168 55 167 58 L 184 69 L 193 82 L 197 84 L 197 88 Q 201 88 200 93 L 210 99 Q 213 100 212 97 L 218 96 L 222 91 L 222 86 L 219 78 L 201 55 L 192 48 Q 193 45 190 46 L 188 43 L 177 36 L 167 34 Z " /><path fill="rgb(0,0,0)" stroke="rgb(0,0,0)" stroke-width="1" opacity="0" d="M 111.5 48 L 114.5 49 L 117 48 L 116 50.5 L 116 138.5 L 117.5 140 L 205.5 140 L 208.5 139 L 207 141.5 L 208 144.5 L 206 146.5 L 206 150.5 L 201 166 Q 198 164.8 199 168.5 L 183.5 188 L 179 190.5 L 177.5 193 Q 174.2 191.9 175 194.5 L 171 196 Q 172.1 198.7 169.5 198 L 166.5 199 L 161 201 Q 162.1 203.7 159.5 203 Q 152.5 207 141.5 207 L 138.5 209 L 137.5 208 L 129.5 208 L 126.5 209 Q 124.8 206.3 118.5 208 L 116.5 209 L 112.5 207 Q 111 209.5 109.5 206 Q 96.1 204.9 88.5 198 L 86.5 198 Q 83.9 198.7 85 196 L 82 196 L 82 194 L 79.5 194 L 76.5 190 L 74.5 190 L 70 185.5 L 67.5 182 Q 65.3 182.8 66 180.5 L 63.5 177 L 62 177 L 62 174 L 60 174 Q 61.5 170.2 58.5 171 L 58 168.5 Q 49.1 157.4 47 139.5 L 48 134.5 L 47 133.5 L 47 123.5 Q 49.5 122 48 116.5 L 47.5 115 Q 50.5 115.9 49 111.5 L 49 109.5 L 60 82 Q 62.7 83.1 62 80.5 L 63 78 Q 65.7 79.1 65 76.5 L 69.5 71 L 77 66 L 79.5 62 L 82 62 Q 80.8 59 84.5 60 L 95.5 53 L 111.5 48 Z " /></svg>