<svg width="200" height="200" version="1.1" xmlns="http://www.w3.org/2000/svg" desc="Created with imagetracer.js version 1.2.6" ><path fill="rgb(127,127,127)" stroke="rgb(127,127,127)" stroke-width="1" opacity="0.9176470588235294" d="M 58.5 21 L 108 21 L 108 41 L 86 41 L 86 88 L 44 88 L 44 36.5 Q 45.5 28.9 50.5 25 L 58.5 21 Z " /><path fill="rgb(127,127,127)" stroke="rgb(127,127,127)" stroke-width="1" opacity="0.9176470588235294" d="M 114 111 L 156 111 L 156 162.5 Q 154.6 170.1 149.5 174 L 141.5 178 L 92 178 L 92 158 L 113.5 158 L 114 157.5 L 114 111 Z " /><path fill="rgb(0,0,0)" stroke="rgb(0,0,0)" stroke-width="1" opacity="0" d="M 0 0 L 200 0 L 200 200 L 0 200 L 0 0 Z M 59 21 L 51 25 Q 45 29 44 37 L 44 88 L 86 88 L 86 41 L 108 41 L 108 21 L 59 21 Z M 114 111 L 114 158 L 114 158 L 92 158 L 92 178 L 142 178 L 150 174 Q 155 170 156 163 L 156 111 L 114 111 Z " /></svg>