<svg width="256" height="256" version="1.1" xmlns="http://www.w3.org/2000/svg" desc="Created with imagetracer.js version 1.2.6" ><path fill="rgb(53,170,95)" stroke="rgb(53,170,95)" stroke-width="1" opacity="0.8588235294117647" d="M 116.5 29 L 139.5 29 L 152 35 Q 150.9 37.7 153.5 37 L 162 46.5 L 167 59.5 L 167 62.5 L 169.5 65 L 171.5 65 L 186 75 Q 184.9 77.7 187.5 77 L 190 81 L 194 83.5 L 204 97.5 L 210 110.5 L 214 125.5 L 215 147.5 L 216.5 149 L 223 154.5 L 228 161.5 L 231 171.5 L 231 185.5 L 228 196.5 L 223 205 L 220 206.5 L 218.5 209 L 205.5 217 Q 196.5 216 191.5 219 L 187.5 217 Q 179.2 218.3 175.5 215 L 158.5 224 L 150.5 225 L 144.5 228 Q 139.7 226.7 138.5 229 L 118.5 229 L 108.5 227 L 105.5 225 L 100.5 225 L 93.5 221 L 90.5 221 L 85.5 217 L 78.5 217 Q 72.2 223.2 57.5 221 L 48.5 217 L 45.5 217 L 38 211.5 L 36.5 209 L 34 207.5 Q 23.3 197.2 25 174.5 L 28 164.5 L 36 153 L 40 150.5 L 41 148.5 L 41 131.5 L 45 113.5 L 52 97.5 L 64 81 Q 66.7 82.1 66 79.5 L 70 77 Q 68.9 74.3 71.5 75 L 78.5 69 L 81 69 Q 79.9 66.3 82.5 67 Q 83.8 64 88 65 L 94 46.5 L 102.5 37 L 105.5 35 L 116.5 29 Z M 128 46 L 118 49 L 112 53 L 110 58 Q 111 60 108 59 L 108 74 L 112 79 L 112 81 L 125 87 L 133 87 L 139 85 L 144 81 L 144 79 L 148 74 L 148 60 L 146 59 L 144 53 L 139 49 L 128 46 Z M 93 85 L 80 94 L 72 105 L 64 121 L 64 127 L 62 132 Q 63 139 61 142 L 72 143 L 76 145 Q 81 143 80 147 L 87 149 L 88 152 L 91 153 Q 94 152 92 156 L 96 159 Q 95 162 98 161 L 103 176 L 103 188 L 98 201 L 107 205 L 119 208 L 138 208 Q 139 206 144 207 L 159 201 L 156 196 Q 158 189 154 190 L 153 186 L 153 174 L 158 161 Q 157 158 160 159 L 160 157 L 164 151 L 170 147 Q 173 148 172 145 L 176 145 L 182 141 L 195 141 L 194 140 L 194 132 L 192 127 L 192 121 L 184 105 L 176 94 L 162 85 L 159 92 L 150 100 L 139 105 Q 133 104 132 106 L 118 105 L 112 103 L 98 93 Q 99 90 96 91 L 94 87 Q 95 84 93 85 Z M 193 158 L 183 161 L 179 164 Q 180 166 178 165 L 172 175 L 172 185 L 178 195 L 190 200 L 200 199 L 202 197 L 204 197 Q 203 194 206 195 L 212 187 L 212 172 L 211 171 Q 212 168 209 169 L 208 165 L 203 161 L 199 161 L 193 158 Z M 60 161 L 50 166 L 48 170 L 45 171 L 44 174 L 44 189 L 51 197 Q 53 196 52 199 L 61 202 Q 73 203 78 197 L 84 187 L 84 177 L 79 168 L 69 161 L 60 161 Z " /><path fill="rgb(0,0,0)" stroke="rgb(0,0,0)" stroke-width="1" opacity="0" d="M 0 0 L 256 0 L 256 256 L 0 256 L 0 0 Z M 117 29 L 106 35 L 103 37 L 94 47 L 88 65 Q 84 64 83 67 Q 80 66 81 69 L 79 69 L 72 75 Q 69 74 70 77 L 66 80 Q 67 82 64 81 L 52 98 L 45 114 L 41 132 L 41 149 L 40 151 L 36 153 L 28 165 L 25 175 Q 23 197 34 208 L 37 209 L 38 212 L 46 217 L 49 217 L 58 221 Q 72 223 79 217 L 86 217 L 91 221 L 94 221 L 101 225 L 106 225 L 109 227 L 119 229 L 139 229 Q 140 227 145 228 L 151 225 L 159 224 L 176 215 Q 179 218 188 217 L 192 219 Q 197 216 206 217 L 219 209 L 220 207 L 223 205 L 228 197 L 231 186 L 231 172 L 228 162 L 223 155 L 217 149 L 215 148 L 214 126 L 210 111 L 204 98 L 194 84 L 190 81 L 188 77 Q 185 78 186 75 L 172 65 L 170 65 L 167 63 L 167 60 L 162 47 L 154 37 Q 151 38 152 35 L 140 29 L 117 29 Z " /><path fill="rgb(0,0,0)" stroke="rgb(0,0,0)" stroke-width="1" opacity="0" d="M 127.5 46 L 138.5 49 L 144 53 L 146 59 L 148 59.5 L 148 73.5 L 144 78.5 L 144 81 L 138.5 85 L 132.5 87 L 124.5 87 L 112 81 L 112 78.5 L 108 73.5 L 108 59 Q 110.7 60.1 110 57.5 L 112 53 L 117.5 49 L 127.5 46 Z " /><path fill="rgb(0,0,0)" stroke="rgb(0,0,0)" stroke-width="1" opacity="0" d="M 92.5 85 Q 94.8 84.3 94 86.5 L 96 91 Q 98.7 89.9 98 92.5 L 111.5 103 L 117.5 105 L 131.5 106 Q 133 103.5 138.5 105 L 149.5 100 L 159 91.5 L 162 85 L 176 94 L 184 104.5 L 192 120.5 L 192 126.5 L 194 131.5 L 194 139.5 L 195 140.5 L 181.5 141 L 175.5 145 L 172 145 Q 173.3 148 169.5 147 L 164 151 L 160 156.5 L 160 159 Q 157.3 157.9 158 160.5 L 153 173.5 L 153 185.5 L 154 190 Q 158 188.6 156 195.5 L 159 200.5 L 143.5 207 Q 138.8 205.8 137.5 208 L 118.5 208 L 106.5 205 L 98 200.5 L 103 187.5 L 103 175.5 L 98 161 Q 95 162.3 96 158.5 L 92 156 Q 93.5 152.2 90.5 153 L 88 152 L 86.5 149 L 80 147 Q 81.3 143.3 75.5 145 L 71.5 143 L 61 142 Q 63 139 62 131.5 L 64 126.5 L 64 120.5 L 72 104.5 L 80 94 L 92.5 85 Z " /><path fill="rgb(0,0,0)" stroke="rgb(0,0,0)" stroke-width="1" opacity="0" d="M 192.5 158 L 198.5 161 L 202.5 161 L 208 165 L 209 169 Q 211.7 167.9 211 170.5 L 212 171.5 L 212 186.5 L 205.5 195 Q 202.9 194.3 204 197 L 201.5 197 L 199.5 199 L 189.5 200 L 178 195 L 172 184.5 L 172 174.5 L 177.5 165 Q 179.8 165.8 179 163.5 L 182.5 161 L 192.5 158 Z " /><path fill="rgb(0,0,0)" stroke="rgb(0,0,0)" stroke-width="1" opacity="0" d="M 59.5 161 L 68.5 161 L 79 167.5 L 84 176.5 L 84 186.5 L 77.5 197 Q 72.9 203.4 60.5 202 L 52 199 Q 53.1 196.3 50.5 197 L 44 188.5 L 44 173.5 L 45 171 L 48 169.5 L 49.5 166 L 59.5 161 Z " /></svg>