<svg width="256" height="256" version="1.1" xmlns="http://www.w3.org/2000/svg" desc="Created with imagetracer.js version 1.2.6" ><path fill="rgb(55,171,96)" stroke="rgb(55,171,96)" stroke-width="1" opacity="0.47843137254901963" d="M 86 35 L 108 53.5 Q 107.3 55.8 109.5 55 L 112 59 L 116 60 Q 117.5 63.7 114.5 63 L 112 64 L 110.5 67 L 108 68.5 L 106.5 71 Q 103.2 69.9 104 72.5 L 100 75 L 98.5 78 L 86 87 L 86 77 L 79.5 77 L 69.5 79 L 69.5 78 L 78.5 76 L 87 76 L 87.5 86 L 96 79 Q 94.9 76.3 97.5 77 L 112.5 63 L 114 63 L 107.5 55 L 102.5 51 L 92 41.5 Q 92.8 39.3 90.5 40 L 87 37.5 L 87 47 L 80.5 47 L 80.5 46 L 86 46 L 86 35 Z " /><path fill="rgb(55,171,96)" stroke="rgb(55,171,96)" stroke-width="1" opacity="0.47843137254901963" d="M 169.5 35 L 181.5 35 L 192 41.5 Q 191.3 43.8 193.5 43 L 196 45.5 L 199 53.5 L 199 63.5 L 196.5 68 L 196 65.5 Q 199.6 62.6 198 54.5 Q 195.3 44.3 187.5 39 L 179.5 36 L 172.5 36 Q 162.8 37.8 158 44.5 Q 152 50.5 154 64.5 L 160 75 L 170.5 80 L 181.5 80 Q 188.9 77.9 193 72.5 L 195.5 69 L 196 70.5 L 193 75 L 187.5 79 L 173.5 82 L 163.5 79 L 158 75 L 152 62.5 L 152 54.5 L 157.5 43 L 160 41.5 L 161.5 39 L 169.5 35 Z " /><path fill="rgb(55,171,96)" stroke="rgb(55,171,96)" stroke-width="1" opacity="0.47843137254901963" d="M 70.5 47 L 78 47.5 L 63.5 51 L 63.5 50 L 70.5 47 Z " /><path fill="rgb(55,171,96)" stroke="rgb(55,171,96)" stroke-width="1" opacity="0.47843137254901963" d="M 60.5 51 L 62 51.5 Q 48.6 57.6 40 68.5 Q 32.2 76.2 28.5 88 L 28 85.5 L 33 75 Q 35.7 76.1 35 73.5 L 46.5 60 L 52 57 Q 50.8 54 54.5 55 L 60.5 51 Z " /><path fill="rgb(55,171,96)" stroke="rgb(55,171,96)" stroke-width="1" opacity="0.47843137254901963" d="M 65.5 79 L 68 79.5 L 57.5 84 L 54.5 87 L 52 87 Q 53.1 89.7 50.5 89 L 40 98.5 L 38 103 Q 35 101.8 36 105.5 Q 30 112.7 28 123 Q 24.7 124.3 26 119.5 L 25 118.5 L 25 97.5 L 27.5 90 L 28 92.5 L 26 98.5 L 26 116.5 L 27.5 120 Q 32.9 102.9 44.5 92 L 56.5 83 L 65.5 79 Z " /><path fill="rgb(55,171,96)" stroke="rgb(55,171,96)" stroke-width="1" opacity="0.47843137254901963" d="M 161.5 85 L 189.5 85 L 192 86.5 L 188.5 87 L 187.5 86 L 164.5 86 L 159.5 87 L 159.5 86 L 161.5 85 Z " /><path fill="rgb(55,171,96)" stroke="rgb(55,171,96)" stroke-width="1" opacity="0.47843137254901963" d="M 155.5 87 L 158 87.5 L 148 93 L 141 107.5 L 141 133.5 L 142.5 135 L 155 138.5 L 149.5 139 L 140 135 L 140 105.5 L 148 91 L 150.5 91 L 155.5 87 Z " /><path fill="rgb(55,171,96)" stroke="rgb(55,171,96)" stroke-width="1" opacity="0.47843137254901963" d="M 194.5 87 L 196.5 87 L 204 92.5 L 208 98.5 L 204 95.5 L 201.5 92 L 194.5 88 L 194.5 87 Z " /><path fill="rgb(55,171,96)" stroke="rgb(55,171,96)" stroke-width="1" opacity="0.47843137254901963" d="M 208.5 100 L 212 107.5 L 212 135 L 210 134.5 L 211 133.5 L 211 112.5 L 208.5 100 Z " /><path fill="rgb(55,171,96)" stroke="rgb(55,171,96)" stroke-width="1" opacity="0.47843137254901963" d="M 82.5 112 L 95.5 115 L 104 123.5 L 107 132.5 L 107 138.5 L 104.5 145 L 104 142.5 L 106 135.5 L 104 126.5 L 98.5 119 L 88.5 114 L 78.5 114 L 75.5 115 L 75.5 114 L 82.5 112 Z " /><path fill="rgb(55,171,96)" stroke="rgb(55,171,96)" stroke-width="1" opacity="0.47843137254901963" d="M 72.5 115 L 74 115.5 L 66 121.5 L 62 128.5 L 61 138.5 L 64 146.5 L 62 145.5 Q 58.2 140.8 60 130.5 L 66 119 L 72.5 115 Z " /><path fill="rgb(55,171,96)" stroke="rgb(55,171,96)" stroke-width="1" opacity="0.47843137254901963" d="M 228 131 Q 231.7 129.7 230 135.5 L 231 136.5 L 231 157.5 L 228.5 165 L 228 161.5 L 230 155.5 L 230 137.5 L 228 131 Z " /><path fill="rgb(55,171,96)" stroke="rgb(55,171,96)" stroke-width="1" opacity="0.47843137254901963" d="M 206.5 135 L 208 135.5 L 200.5 139 L 196.5 139 L 196.5 138 Q 203.3 138.3 206.5 135 Z " /><path fill="rgb(55,171,96)" stroke="rgb(55,171,96)" stroke-width="1" opacity="0.47843137254901963" d="M 227.5 135 L 228 136.5 L 220 152.5 L 210.5 163 Q 202.2 171.2 189.5 175 L 189.5 174 Q 206.7 167.7 217 154.5 L 227.5 135 Z " /><path fill="rgb(55,171,96)" stroke="rgb(55,171,96)" stroke-width="1" opacity="0.47843137254901963" d="M 156.5 139 L 168.5 140 L 169.5 141 L 181.5 141 L 182.5 140 L 194.5 139 L 194.5 140 L 183.5 142 L 166.5 142 L 156.5 140 L 156.5 139 Z " /><path fill="rgb(55,171,96)" stroke="rgb(55,171,96)" stroke-width="1" opacity="0.47843137254901963" d="M 103.5 146 L 104 147.5 L 101.5 151 Q 99.3 150.3 100 152.5 L 89.5 159 L 77.5 159 L 72 157 Q 70.9 154.3 73.5 155 Q 77.7 159.3 87.5 158 L 95.5 155 L 102 148.5 L 103.5 146 Z " /><path fill="rgb(55,171,96)" stroke="rgb(55,171,96)" stroke-width="1" opacity="0.47843137254901963" d="M 64.5 148 L 70.5 155 L 64 149.5 L 64.5 148 Z " /><path fill="rgb(55,171,96)" stroke="rgb(55,171,96)" stroke-width="1" opacity="0.47843137254901963" d="M 67.5 163 L 73 163.5 L 64.5 165 Q 63.4 167.8 60 167 Q 61.1 169.7 58.5 169 Q 49.1 174.6 48.5 189 L 48 181.5 L 54.5 171 Q 56.8 171.8 56 169.5 L 67.5 163 Z " /><path fill="rgb(55,171,96)" stroke="rgb(55,171,96)" stroke-width="1" opacity="0.47843137254901963" d="M 94.5 163 L 103.5 164 L 114 172.5 L 118 179.5 L 120 187.5 L 120 211.5 L 113.5 215 L 110.5 215 L 110.5 214 L 118 212 L 118 183.5 Q 114.9 173.6 107.5 168 L 98.5 164 L 94.5 164 L 94.5 163 Z " /><path fill="rgb(55,171,96)" stroke="rgb(55,171,96)" stroke-width="1" opacity="0.47843137254901963" d="M 227.5 166 L 228 169.5 L 224 177.5 L 208.5 195 L 202.5 199 L 205.5 195 L 212 191 L 223 176.5 L 227.5 166 Z " /><path fill="rgb(55,171,96)" stroke="rgb(55,171,96)" stroke-width="1" opacity="0.47843137254901963" d="M 168.5 167 L 170 167.5 L 170 177.5 L 171.5 178 L 187.5 175 L 187.5 176 L 170.5 179 L 169 177.5 L 168.5 169 L 158 177 Q 159.1 179.7 156.5 179 L 142 192.5 L 143.5 195 L 154 203 L 154 205 L 156 205 Q 154.9 207.7 157.5 207 L 168.5 217 L 169 208.5 L 170.5 207 L 179 207.5 L 170 208 L 170 218.5 L 168.5 219 L 152 204.5 Q 152.8 202.3 150.5 203 L 148 199 L 144 197.5 L 142.5 195 L 140 193.5 L 141.5 191 L 144 189.5 L 145.5 187 L 152 183 L 154.5 179 L 168.5 167 Z " /><path fill="rgb(55,171,96)" stroke="rgb(55,171,96)" stroke-width="1" opacity="0.47843137254901963" d="M 200.5 199 L 198.5 202 L 186.5 207 L 180.5 207 L 180.5 206 Q 192.9 204.9 200.5 199 Z " /><path fill="rgb(55,171,96)" stroke="rgb(55,171,96)" stroke-width="1" opacity="0.47843137254901963" d="M 48.5 211 L 56 214.5 L 52.5 215 Q 51.4 212.3 48 213 L 48.5 211 Z " /><path fill="rgb(55,171,96)" stroke="rgb(55,171,96)" stroke-width="1" opacity="0.47843137254901963" d="M 58.5 215 L 72.5 218 L 94.5 218 L 108.5 215 L 108.5 216 L 97.5 219 L 69.5 219 L 58.5 216 L 58.5 215 Z " /><path fill="rgb(0,0,0)" stroke="rgb(0,0,0)" stroke-width="1" opacity="0" d="M 0 0 L 256 0 L 256 256 L 0 256 L 0 0 Z M 86 35 L 86 46 L 71 47 L 55 55 Q 51 54 52 57 L 47 60 L 35 74 Q 36 76 33 75 L 28 86 L 28 90 L 25 98 L 25 119 L 26 120 Q 25 124 28 123 Q 30 113 36 106 Q 35 102 38 103 L 40 99 L 51 89 Q 53 90 52 87 L 55 87 L 58 84 L 69 79 L 74 79 L 80 77 L 86 77 L 86 87 L 99 78 L 100 75 L 104 73 Q 103 70 107 71 L 108 69 L 111 67 L 112 64 L 115 63 Q 117 64 116 60 L 112 59 L 110 55 Q 107 56 108 54 L 86 35 Z M 170 35 L 162 39 L 160 42 L 158 43 L 152 55 L 152 63 L 158 75 L 164 79 L 174 82 L 188 79 L 193 75 L 199 64 L 199 54 L 196 46 L 194 43 Q 191 44 192 42 L 182 35 L 170 35 Z M 162 85 L 154 88 L 151 91 L 148 91 L 140 106 L 140 135 L 150 139 L 156 139 L 167 142 L 184 142 L 196 139 L 201 139 L 209 135 L 212 135 L 212 108 L 208 98 L 204 93 L 197 87 Q 191 88 190 85 L 162 85 Z M 83 112 Q 72 114 66 119 L 60 131 L 60 142 L 64 150 L 70 155 Q 73 154 72 157 L 78 159 L 90 159 L 100 153 Q 99 150 102 151 L 107 139 L 107 133 L 104 124 L 96 115 L 83 112 Z M 228 131 L 228 135 L 217 155 Q 209 164 198 171 L 189 175 L 184 175 L 172 178 L 170 178 L 170 167 L 155 179 L 152 183 L 146 187 L 144 190 L 142 191 L 140 194 L 143 195 L 144 198 L 148 199 L 151 203 Q 153 202 152 205 L 169 219 L 170 219 L 170 208 L 187 207 L 199 202 L 209 195 L 224 178 L 228 170 L 228 166 L 231 158 L 231 137 L 230 136 Q 232 130 228 131 Z M 68 163 L 56 170 Q 57 172 55 171 L 48 182 L 48 213 Q 51 212 53 215 L 58 215 L 70 219 L 98 219 L 110 215 L 114 215 L 120 212 L 120 188 L 118 180 L 114 173 Q 109 166 101 163 L 68 163 Z " /><path fill="rgb(54,171,95)" stroke="rgb(54,171,95)" stroke-width="1" opacity="0.996078431372549" d="M 87.5 37 L 92 40.5 L 90.5 41 L 88 39.5 L 87.5 47 L 87.5 37 Z " /><path fill="rgb(54,171,95)" stroke="rgb(54,171,95)" stroke-width="1" opacity="0.996078431372549" d="M 162.5 40 L 158.5 45 L 162.5 40 Z " /><path fill="rgb(54,171,95)" stroke="rgb(54,171,95)" stroke-width="1" opacity="0.996078431372549" d="M 94.5 43 L 101.5 51 L 96 47 L 94.5 43 Z " /><path fill="rgb(54,171,95)" stroke="rgb(54,171,95)" stroke-width="1" opacity="0.996078431372549" d="M 62.5 51 L 64 51.5 L 57.5 55 L 58.5 53 L 62.5 51 Z " /><path fill="rgb(54,171,95)" stroke="rgb(54,171,95)" stroke-width="1" opacity="0.996078431372549" d="M 196.5 51 Q 199.2 54.8 198 62.5 L 196.5 65 L 196 63.5 L 197 62.5 L 197 54.5 L 196.5 51 Z " /><path fill="rgb(54,171,95)" stroke="rgb(54,171,95)" stroke-width="1" opacity="0.996078431372549" d="M 112.5 60 L 114 63 L 104.5 70 L 105.5 68 L 113 61.5 L 112.5 60 Z " /><path fill="rgb(54,171,95)" stroke="rgb(54,171,95)" stroke-width="1" opacity="0.996078431372549" d="M 192.5 71 L 193 72.5 L 186.5 78 L 188.5 75 L 192 72.5 L 192.5 71 Z " /><path fill="rgb(54,171,95)" stroke="rgb(54,171,95)" stroke-width="1" opacity="0.996078431372549" d="M 79.5 75 L 88 75 L 88 82.5 L 89.5 83 L 87.5 86 L 87 76 L 79.5 76 L 79.5 75 Z " /><path fill="rgb(54,171,95)" stroke="rgb(54,171,95)" stroke-width="1" opacity="0.996078431372549" d="M 164.5 86 L 188 86.5 L 164.5 87 L 164.5 86 Z " /><path fill="rgb(54,171,95)" stroke="rgb(54,171,95)" stroke-width="1" opacity="0.996078431372549" d="M 192.5 87 L 199 90.5 L 197.5 91 L 192.5 88 L 192.5 87 Z " /><path fill="rgb(54,171,95)" stroke="rgb(54,171,95)" stroke-width="1" opacity="0.996078431372549" d="M 154.5 89 L 156 89.5 L 150.5 93 L 152.5 90 L 154.5 89 Z " /><path fill="rgb(54,171,95)" stroke="rgb(54,171,95)" stroke-width="1" opacity="0.996078431372549" d="M 210.5 112 L 211 133.5 L 208.5 135 L 208.5 134 L 210 133.5 L 210.5 112 Z " /><path fill="rgb(54,171,95)" stroke="rgb(54,171,95)" stroke-width="1" opacity="0.996078431372549" d="M 169.5 140 L 182 140.5 L 169.5 141 L 169.5 140 Z " /><path fill="rgb(54,171,95)" stroke="rgb(54,171,95)" stroke-width="1" opacity="0.996078431372549" d="M 103.5 144 L 104 145.5 L 100.5 150 L 100 148.5 L 103.5 144 Z " /><path fill="rgb(54,171,95)" stroke="rgb(54,171,95)" stroke-width="1" opacity="0.996078431372549" d="M 64.5 147 L 71.5 155 L 64.5 147 Z " /><path fill="rgb(54,171,95)" stroke="rgb(54,171,95)" stroke-width="1" opacity="0.996078431372549" d="M 215.5 158 L 211.5 163 L 215.5 158 Z " /><path fill="rgb(54,171,95)" stroke="rgb(54,171,95)" stroke-width="1" opacity="0.996078431372549" d="M 73.5 163 L 94 163.5 L 73.5 164 L 73.5 163 Z " /><path fill="rgb(54,171,95)" stroke="rgb(54,171,95)" stroke-width="1" opacity="0.996078431372549" d="M 168.5 169 L 169 177.5 L 170 178.5 L 168 179 L 168 171.5 L 167 170.5 L 168.5 169 Z " /><path fill="rgb(54,171,95)" stroke="rgb(54,171,95)" stroke-width="1" opacity="0.996078431372549" d="M 147.5 187 L 143 192.5 L 144 194.5 L 142 193.5 L 147.5 187 Z " /><path fill="rgb(54,171,95)" stroke="rgb(54,171,95)" stroke-width="1" opacity="0.996078431372549" d="M 48.5 189 L 49 211 L 53 212.5 L 51.5 212 L 48 210.5 L 48.5 189 Z " /><path fill="rgb(54,171,95)" stroke="rgb(54,171,95)" stroke-width="1" opacity="0.996078431372549" d="M 204.5 195 L 201.5 199 L 195.5 202 L 196.5 200 L 204.5 195 Z " /><path fill="rgb(54,171,95)" stroke="rgb(54,171,95)" stroke-width="1" opacity="0.996078431372549" d="M 168 207 L 170 207.5 L 169 208.5 L 168.5 217 Q 165.8 215.8 168 214.5 L 168 207 Z " /><path fill="rgb(54,171,96)" stroke="rgb(54,171,96)" stroke-width="1" opacity="1" d="M 175.5 36 L 186.5 39 L 192 43 L 193 47 Q 195.7 45.9 195 48.5 Q 198 53.5 197 62.5 L 194 71 Q 191.3 69.9 192 72.5 L 183.5 79 L 173.5 80 Q 172.3 77.8 167.5 79 L 160 73.5 L 156 68.5 Q 156.6 63.9 154 62.5 L 154 54.5 Q 156.8 44.3 164.5 39 L 175.5 36 Z " /><path fill="rgb(54,171,96)" stroke="rgb(54,171,96)" stroke-width="1" opacity="1" d="M 88.5 39 L 92 41 Q 90.9 43.7 93.5 43 L 96 47 L 104 52.5 L 105.5 55 L 108 56.5 Q 107.3 58.8 109.5 58 L 112 59 L 113 61.5 L 104 69.5 Q 104.8 71.8 102.5 71 L 100 75 L 96 76.5 L 94.5 79 L 92 80.5 L 90.5 83 L 88 83 L 88 75 L 79.5 75 L 67.5 79 L 63.5 79 L 52 85 Q 53.3 88 49.5 87 L 48 90 L 44 91 L 41.5 95 Q 39.3 94.3 40 96.5 Q 31.3 105.3 27.5 119 L 26 106.5 L 27 105.5 L 27 97.5 L 29 87.5 Q 33.4 74.9 42.5 67 Q 45.1 67.8 44 64.5 L 48 63 L 50.5 59 L 64.5 51 L 79.5 47 L 88 47 L 88.5 39 Z " /><path fill="rgb(54,171,96)" stroke="rgb(54,171,96)" stroke-width="1" opacity="1" d="M 159.5 87 L 191.5 87 L 197.5 91 L 200 91 L 201.5 94 L 204 95.5 L 210 107.5 L 210 134 L 194.5 139 L 166.5 140 L 165.5 139 L 156.5 139 L 147.5 135 L 141 134 L 141 109.5 L 144 99.5 L 149.5 93 L 156 90 Q 154.8 87 158.5 88 L 159.5 87 Z " /><path fill="rgb(54,171,96)" stroke="rgb(54,171,96)" stroke-width="1" opacity="1" d="M 82.5 114 L 91.5 115 L 100 121.5 L 104 127.5 L 105 138.5 L 104 143.5 L 100 148.5 L 100 151 L 94.5 155 L 82.5 158 L 72.5 155 L 64 146.5 Q 64.6 141.9 62 140.5 L 62 131.5 L 65 123 L 68 121.5 L 69.5 119 L 75.5 115 Q 81 116.5 82.5 114 Z " /><path fill="rgb(54,171,96)" stroke="rgb(54,171,96)" stroke-width="1" opacity="1" d="M 228.5 136 L 230 148.5 L 229 149.5 L 228 164.5 L 224 171.5 L 224 175 Q 221.3 173.9 222 176.5 L 218 183 Q 215 181.8 216 185.5 L 212 188.5 L 210.5 191 L 192.5 203 L 188.5 203 L 178.5 207 L 168 207 L 168 214.5 L 166.5 215 L 164 211 L 160 209.5 L 158.5 207 L 156 205.5 L 154.5 203 Q 151.2 204.1 152 201.5 L 148 199 L 145.5 195 L 143 193.5 L 148.5 187 L 152 184.5 Q 151.3 182.3 153.5 183 L 160 177.5 L 161.5 175 L 168 171 L 168 179 L 178.5 179 L 195.5 174 Q 207.3 167.8 216 158.5 L 220 153.5 L 220 151 Q 222.7 152.1 222 149.5 L 228.5 136 Z " /><path fill="rgb(54,171,96)" stroke="rgb(54,171,96)" stroke-width="1" opacity="1" d="M 69.5 164 L 97.5 164 L 108 169.5 L 108 171 Q 111.8 169.5 111 172.5 L 112 175 Q 114.7 173.9 114 176.5 L 118 187.5 L 118 211 L 108.5 215 L 103.5 215 L 97.5 217 L 75.5 218 L 64.5 215 L 58.5 215 L 49 211 L 49 184.5 L 52 176.5 L 56 171 L 61.5 167 L 69.5 164 Z " /></svg>