<svg width="200" height="200" version="1.1" xmlns="http://www.w3.org/2000/svg" desc="Created with imagetracer.js version 1.2.6" ><path fill="rgb(128,128,128)" stroke="rgb(128,128,128)" stroke-width="1" opacity="0.44313725490196076" d="M 77.5 12 L 124 12.5 L 77.5 13 L 77.5 12 Z " /><path fill="rgb(128,128,128)" stroke="rgb(128,128,128)" stroke-width="1" opacity="0.44313725490196076" d="M 72.5 13 L 75 13.5 L 72.5 14 L 72.5 13 Z " /><path fill="rgb(128,128,128)" stroke="rgb(128,128,128)" stroke-width="1" opacity="0.44313725490196076" d="M 69.5 14 L 71 14.5 L 67.5 16 L 67.5 15 L 69.5 14 Z " /><path fill="rgb(128,128,128)" stroke="rgb(128,128,128)" stroke-width="1" opacity="0.44313725490196076" d="M 63.5 17 L 62.5 19 L 63.5 17 Z " /><path fill="rgb(128,128,128)" stroke="rgb(128,128,128)" stroke-width="1" opacity="0.44313725490196076" d="M 139.5 18 L 142.5 22 L 139.5 18 Z " /><path fill="rgb(128,128,128)" stroke="rgb(128,128,128)" stroke-width="1" opacity="0.44313725490196076" d="M 60.5 19 L 58.5 22 L 60.5 19 Z " /><path fill="rgb(128,128,128)" stroke="rgb(128,128,128)" stroke-width="1" opacity="0.44313725490196076" d="M 56.5 23 L 54.5 26 L 56.5 23 Z " /><path fill="rgb(128,128,128)" stroke="rgb(128,128,128)" stroke-width="1" opacity="0.44313725490196076" d="M 144.5 23 L 147.5 27 L 144.5 23 Z " /><path fill="rgb(128,128,128)" stroke="rgb(128,128,128)" stroke-width="1" opacity="0.44313725490196076" d="M 53.5 27 L 52.5 29 L 53.5 27 Z " /><path fill="rgb(128,128,128)" stroke="rgb(128,128,128)" stroke-width="1" opacity="0.44313725490196076" d="M 148.5 28 L 150 30.5 L 149 30.5 L 148.5 28 Z " /><path fill="rgb(128,128,128)" stroke="rgb(128,128,128)" stroke-width="1" opacity="0.44313725490196076" d="M 85.5 31 L 114 31.5 L 85.5 32 L 85.5 31 Z " /><path fill="rgb(128,128,128)" stroke="rgb(128,128,128)" stroke-width="1" opacity="0.44313725490196076" d="M 116.5 32 L 120 32.5 L 116.5 33 L 116.5 32 Z " /><path fill="rgb(128,128,128)" stroke="rgb(128,128,128)" stroke-width="1" opacity="0.44313725490196076" d="M 121.5 33 L 127 36.5 L 129 40.5 L 128 40.5 L 126 36 Q 120.9 35.5 121.5 33 Z " /><path fill="rgb(128,128,128)" stroke="rgb(128,128,128)" stroke-width="1" opacity="0.44313725490196076" d="M 73.5 37 L 72 39.5 L 71.5 41 L 71 39.5 L 73.5 37 Z " /><path fill="rgb(128,128,128)" stroke="rgb(128,128,128)" stroke-width="1" opacity="0.44313725490196076" d="M 152.5 38 L 153 84.5 L 154 85.5 L 152 86 L 152.5 38 Z " /><path fill="rgb(128,128,128)" stroke="rgb(128,128,128)" stroke-width="1" opacity="0.44313725490196076" d="M 48.5 41 L 49 61.5 L 48 61.5 L 48.5 41 Z " /><path fill="rgb(128,128,128)" stroke="rgb(128,128,128)" stroke-width="1" opacity="0.44313725490196076" d="M 69.5 45 L 70 49.5 L 69 49.5 L 69.5 45 Z " /><path fill="rgb(128,128,128)" stroke="rgb(128,128,128)" stroke-width="1" opacity="0.44313725490196076" d="M 130.5 45 L 131 48.5 L 130 48.5 L 130.5 45 Z " /><path fill="rgb(128,128,128)" stroke="rgb(128,128,128)" stroke-width="1" opacity="0.44313725490196076" d="M 68.5 53 L 69 61.5 L 68 61.5 L 68.5 53 Z " /><path fill="rgb(128,128,128)" stroke="rgb(128,128,128)" stroke-width="1" opacity="0.44313725490196076" d="M 131.5 54 L 132 84.5 L 130.5 86 L 45.5 86 L 45.5 85 L 131 85 L 131.5 54 Z " /><path fill="rgb(128,128,128)" stroke="rgb(128,128,128)" stroke-width="1" opacity="0.44313725490196076" d="M 36.5 89 L 32.5 94 L 36.5 89 Z " /><path fill="rgb(128,128,128)" stroke="rgb(128,128,128)" stroke-width="1" opacity="0.44313725490196076" d="M 163.5 89 L 167.5 94 L 163.5 89 Z " /><path fill="rgb(128,128,128)" stroke="rgb(128,128,128)" stroke-width="1" opacity="0.44313725490196076" d="M 171.5 103 L 172 168.5 L 171 168.5 L 171.5 103 Z " /><path fill="rgb(128,128,128)" stroke="rgb(128,128,128)" stroke-width="1" opacity="0.44313725490196076" d="M 28.5 104 L 29 169.5 L 28 169.5 L 28.5 104 Z " /><path fill="rgb(128,128,128)" stroke="rgb(128,128,128)" stroke-width="1" opacity="0.44313725490196076" d="M 94.5 119 L 92.5 122 L 94.5 119 Z " /><path fill="rgb(128,128,128)" stroke="rgb(128,128,128)" stroke-width="1" opacity="0.44313725490196076" d="M 105.5 119 Q 109.9 121.1 110 127.5 L 109 127.5 L 109 124.5 L 105.5 119 Z " /><path fill="rgb(128,128,128)" stroke="rgb(128,128,128)" stroke-width="1" opacity="0.44313725490196076" d="M 90.5 125 L 91 160.5 L 90 160.5 L 90.5 125 Z " /><path fill="rgb(128,128,128)" stroke="rgb(128,128,128)" stroke-width="1" opacity="0.44313725490196076" d="M 109.5 159 L 110 161.5 L 109 161.5 L 109.5 159 Z " /><path fill="rgb(128,128,128)" stroke="rgb(128,128,128)" stroke-width="1" opacity="0.44313725490196076" d="M 108.5 163 L 105.5 167 L 108.5 163 Z " /><path fill="rgb(128,128,128)" stroke="rgb(128,128,128)" stroke-width="1" opacity="0.44313725490196076" d="M 92.5 164 L 94.5 167 L 92.5 164 Z " /><path fill="rgb(128,128,128)" stroke="rgb(128,128,128)" stroke-width="1" opacity="0.44313725490196076" d="M 170.5 171 L 171 173.5 L 170 173.5 L 170.5 171 Z " /><path fill="rgb(128,128,128)" stroke="rgb(128,128,128)" stroke-width="1" opacity="0.44313725490196076" d="M 30.5 175 L 37.5 184 L 44 186.5 L 41.5 187 L 31 178.5 L 30.5 175 Z " /><path fill="rgb(128,128,128)" stroke="rgb(128,128,128)" stroke-width="1" opacity="0.44313725490196076" d="M 167.5 179 L 163.5 184 L 167.5 179 Z " /><path fill="rgb(128,128,128)" stroke="rgb(128,128,128)" stroke-width="1" opacity="0.44313725490196076" d="M 161.5 184 L 160.5 186 L 159 185.5 L 161.5 184 Z " /><path fill="rgb(128,128,128)" stroke="rgb(128,128,128)" stroke-width="1" opacity="0.44313725490196076" d="M 45.5 187 L 154 187.5 L 45.5 188 L 45.5 187 Z " /><path fill="rgb(0,0,0)" stroke="rgb(0,0,0)" stroke-width="1" opacity="0" d="M 0 0 L 200 0 L 200 200 L 0 200 L 0 0 Z M 78 12 Q 67 14 61 19 L 52 29 L 48 42 L 48 62 L 69 62 L 70 45 L 74 37 L 83 32 L 116 32 L 126 36 L 129 42 L 131 50 L 131 85 L 46 85 L 37 89 L 32 94 L 28 105 L 28 170 L 31 179 Q 36 186 46 188 L 154 188 L 164 184 L 168 180 L 172 169 L 172 104 L 168 94 Q 164 87 155 86 L 153 85 L 153 39 L 148 27 Q 140 15 124 12 L 78 12 Z " /><path fill="rgb(0,0,0)" stroke="rgb(0,0,0)" stroke-width="1" opacity="0" d="M 98.5 118 Q 105.8 117.8 108 122.5 L 110 128.5 L 110 158.5 L 109 162.5 L 104.5 167 L 97.5 168 L 92 163.5 L 91 161.5 L 91 124.5 L 95.5 119 L 98.5 118 Z " /><path fill="rgb(127,127,127)" stroke="rgb(127,127,127)" stroke-width="1" opacity="1" d="M 75.5 13 L 125.5 13 L 132.5 15 L 144 22 L 152 36.5 L 152 86 Q 163.1 86.7 168 94.5 L 171 101.5 L 171 170.5 Q 169.3 179.8 162.5 184 L 155.5 187 L 44.5 187 Q 36.1 184.9 32 178.5 L 29 171.5 L 29 101.5 Q 31.2 93.2 37.5 89 L 44.5 86 L 130.5 86 L 132 84.5 L 132 54.5 L 131 53.5 L 131 45.5 Q 129.8 38.8 125.5 35 L 122.5 33 L 113.5 31 L 85.5 31 L 74 35 L 69 45.5 L 68 62 L 49 62 L 49 38.5 L 51 31.5 L 57 22 Q 64.1 15.8 75.5 13 Z M 97 118 L 95 119 L 90 126 L 90 161 L 92 165 L 97 168 L 106 167 L 110 162 L 110 125 L 109 123 Q 107 116 97 118 Z " /></svg>