<svg width="200" height="200" version="1.1" xmlns="http://www.w3.org/2000/svg" desc="Created with imagetracer.js version 1.2.6" ><path fill="rgb(0,0,0)" stroke="rgb(0,0,0)" stroke-width="1" opacity="0" d="M 0 0 L 200 0 L 200 200 L 0 200 L 0 0 Z M 96 30 L 89 37 L 66 68 L 66 76 Q 73 80 86 78 L 86 166 L 87 168 L 90 170 L 111 170 L 114 166 L 114 78 L 128 78 L 132 77 L 134 75 L 134 68 L 110 36 L 105 30 L 96 30 Z " /><path fill="rgb(127,127,127)" stroke="rgb(127,127,127)" stroke-width="1" opacity="0.4549019607843137" d="M 95.5 30 L 98 30.5 Q 92.5 31 91 35.5 L 66.5 69 L 66 67.5 L 89 36.5 L 95.5 30 Z " /><path fill="rgb(127,127,127)" stroke="rgb(127,127,127)" stroke-width="1" opacity="0.4549019607843137" d="M 102.5 30 L 104.5 30 L 110 35.5 L 134 68.5 L 133 68.5 L 104.5 31 Q 101.5 31.5 102.5 30 Z " /><path fill="rgb(127,127,127)" stroke="rgb(127,127,127)" stroke-width="1" opacity="0.4549019607843137" d="M 66.5 74 L 71 76.5 L 68.5 77 L 66 76 L 66.5 74 Z " /><path fill="rgb(127,127,127)" stroke="rgb(127,127,127)" stroke-width="1" opacity="0.4549019607843137" d="M 133.5 74 L 131.5 77 L 129 76.5 L 133.5 74 Z " /><path fill="rgb(127,127,127)" stroke="rgb(127,127,127)" stroke-width="1" opacity="0.4549019607843137" d="M 72.5 77 L 86.5 77 L 87 77.5 L 87 165.5 L 89.5 169 L 91 169.5 L 89.5 170 L 86 165.5 L 86 78 L 72.5 78 L 72.5 77 Z " /><path fill="rgb(127,127,127)" stroke="rgb(127,127,127)" stroke-width="1" opacity="0.4549019607843137" d="M 113 77 L 128 77.5 L 114 78 L 114 165.5 L 110.5 170 L 109 169.5 L 112 167.5 L 113 165.5 L 113 77 Z " /><path fill="rgb(127,127,127)" stroke="rgb(127,127,127)" stroke-width="1" opacity="0.996078431372549" d="M 98.5 30 L 102 30.5 L 98.5 31 L 98.5 30 Z " /><path fill="rgb(127,127,127)" stroke="rgb(127,127,127)" stroke-width="1" opacity="0.996078431372549" d="M 95.5 31 L 97 31.5 L 91.5 36 L 95.5 31 Z " /><path fill="rgb(127,127,127)" stroke="rgb(127,127,127)" stroke-width="1" opacity="0.996078431372549" d="M 103.5 31 L 109 35.5 L 104.5 32 L 103.5 31 Z " /><path fill="rgb(127,127,127)" stroke="rgb(127,127,127)" stroke-width="1" opacity="0.996078431372549" d="M 109.5 37 L 111.5 40 L 109.5 37 Z " /><path fill="rgb(127,127,127)" stroke="rgb(127,127,127)" stroke-width="1" opacity="0.996078431372549" d="M 89.5 38 L 88.5 40 L 89.5 38 Z " /><path fill="rgb(127,127,127)" stroke="rgb(127,127,127)" stroke-width="1" opacity="0.996078431372549" d="M 87.5 41 L 85.5 44 L 87.5 41 Z " /><path fill="rgb(127,127,127)" stroke="rgb(127,127,127)" stroke-width="1" opacity="0.996078431372549" d="M 112.5 41 L 113.5 43 L 112.5 41 Z " /><path fill="rgb(127,127,127)" stroke="rgb(127,127,127)" stroke-width="1" opacity="0.996078431372549" d="M 83.5 46 L 82.5 48 L 83.5 46 Z " /><path fill="rgb(127,127,127)" stroke="rgb(127,127,127)" stroke-width="1" opacity="0.996078431372549" d="M 116.5 46 L 117.5 48 L 116.5 46 Z " /><path fill="rgb(127,127,127)" stroke="rgb(127,127,127)" stroke-width="1" opacity="0.996078431372549" d="M 80.5 50 L 79.5 52 L 80.5 50 Z " /><path fill="rgb(127,127,127)" stroke="rgb(127,127,127)" stroke-width="1" opacity="0.996078431372549" d="M 119.5 50 L 120.5 52 L 119.5 50 Z " /><path fill="rgb(127,127,127)" stroke="rgb(127,127,127)" stroke-width="1" opacity="0.996078431372549" d="M 121.5 53 L 123.5 56 L 121.5 53 Z " /><path fill="rgb(127,127,127)" stroke="rgb(127,127,127)" stroke-width="1" opacity="0.996078431372549" d="M 77.5 54 L 76.5 56 L 77.5 54 Z " /><path fill="rgb(127,127,127)" stroke="rgb(127,127,127)" stroke-width="1" opacity="0.996078431372549" d="M 75.5 57 L 73.5 60 L 75.5 57 Z " /><path fill="rgb(127,127,127)" stroke="rgb(127,127,127)" stroke-width="1" opacity="0.996078431372549" d="M 124.5 57 L 126.5 60 L 124.5 57 Z " /><path fill="rgb(127,127,127)" stroke="rgb(127,127,127)" stroke-width="1" opacity="0.996078431372549" d="M 71.5 62 L 70.5 64 L 71.5 62 Z " /><path fill="rgb(127,127,127)" stroke="rgb(127,127,127)" stroke-width="1" opacity="0.996078431372549" d="M 128.5 62 L 129.5 64 L 128.5 62 Z " /><path fill="rgb(127,127,127)" stroke="rgb(127,127,127)" stroke-width="1" opacity="0.996078431372549" d="M 68.5 66 L 68 67.5 L 67 73.5 L 68.5 76 Q 65 75 66 69.5 L 68.5 66 Z " /><path fill="rgb(127,127,127)" stroke="rgb(127,127,127)" stroke-width="1" opacity="0.996078431372549" d="M 131.5 66 Q 134.8 67.7 134 73.5 L 131 75.5 Q 134 74.5 133 69.5 L 131.5 66 Z " /><path fill="rgb(127,127,127)" stroke="rgb(127,127,127)" stroke-width="1" opacity="0.996078431372549" d="M 71.5 76 L 87.5 76 L 88 76.5 L 88 165.5 L 87 165.5 L 87 77.5 L 86.5 77 L 71.5 77 L 71.5 76 Z " /><path fill="rgb(127,127,127)" stroke="rgb(127,127,127)" stroke-width="1" opacity="0.996078431372549" d="M 113.5 76 L 129 76.5 L 113 77 L 112.5 166 L 112 77.5 L 113.5 76 Z " /><path fill="rgb(127,127,127)" stroke="rgb(127,127,127)" stroke-width="1" opacity="0.996078431372549" d="M 88.5 167 L 89.5 169 L 88.5 167 Z " /><path fill="rgb(127,127,127)" stroke="rgb(127,127,127)" stroke-width="1" opacity="0.996078431372549" d="M 111.5 167 L 110.5 169 L 111.5 167 Z " /><path fill="rgb(127,127,127)" stroke="rgb(127,127,127)" stroke-width="1" opacity="1" d="M 97.5 31 L 102.5 31 L 109 36.5 L 131 65.5 Q 133.7 67.8 133 73.5 L 130.5 76 L 113.5 76 L 112 77.5 L 112 166.5 L 109.5 169 Q 103.6 171.6 93.5 170 L 88 166.5 L 88 76.5 L 87.5 76 L 69.5 76 Q 66 75 67 69.5 L 90 37.5 L 95.5 32 L 97.5 31 Z " /></svg>