<svg width="261" height="256" version="1.1" xmlns="http://www.w3.org/2000/svg" desc="Created with imagetracer.js version 1.2.6" ><path fill="rgb(0,0,0)" stroke="rgb(0,0,0)" stroke-width="1" opacity="0" d="M 0 0 L 261 0 L 261 256 L 0 256 L 0 0 Z M 180 22 L 179 23 Q 176 22 177 25 Q 167 36 152 43 L 142 46 L 129 47 L 110 56 Q 101 63 98 76 Q 96 94 103 103 L 113 111 L 123 114 L 123 115 L 112 114 L 105 108 L 95 104 L 82 104 L 69 110 L 54 130 L 44 157 L 39 164 L 27 174 L 23 179 Q 22 185 24 189 L 29 192 L 37 192 L 44 188 Q 55 179 62 166 L 70 145 L 70 142 L 79 128 L 85 123 L 90 123 L 103 132 L 120 135 L 125 141 L 127 156 L 135 168 L 126 181 L 120 186 L 113 188 L 86 202 Q 74 209 65 220 Q 64 227 66 231 L 72 234 L 82 232 L 102 216 L 134 200 L 150 215 L 160 221 L 168 221 L 175 217 L 201 193 L 224 170 L 226 166 L 225 155 L 210 139 L 214 129 L 215 113 L 218 103 L 222 96 L 238 79 Q 239 72 237 69 L 233 65 Q 221 65 217 71 L 211 77 L 199 96 L 196 107 L 196 118 L 194 126 L 193 125 Q 184 124 180 127 L 169 137 L 165 132 L 165 115 L 161 106 L 148 96 Q 139 93 127 95 L 123 93 L 119 90 L 117 83 L 119 76 L 129 68 L 151 64 L 162 60 L 164 58 L 167 58 L 183 47 L 192 37 L 193 33 L 192 27 Q 190 20 180 22 Z M 210 188 L 207 190 L 192 205 L 192 208 L 224 237 Q 230 238 234 236 L 243 226 Q 244 219 241 216 L 214 189 L 210 188 Z " /><path fill="rgb(0,0,0)" stroke="rgb(0,0,0)" stroke-width="1" opacity="0" d="M 124.5 115 L 139.5 115 L 144 117 L 147 124.5 L 146 125.5 L 145.5 139 Q 142.7 126.8 134.5 120 L 129.5 117 L 124.5 116 L 124.5 115 Z " /><path fill="rgb(253,242,242)" stroke="rgb(253,242,242)" stroke-width="1" opacity="0.996078431372549" d="M 185.5 125 L 190.5 125 L 197.5 128 L 220 148.5 Q 225.9 153.1 226 163.5 L 223 170.5 L 201.5 192 L 175.5 216 Q 170.8 220.8 161.5 221 L 152.5 217 L 130 195.5 Q 125 191.5 126 181.5 Q 128.4 173.4 134.5 169 L 174.5 131 L 185.5 125 Z M 186 130 L 175 138 L 154 158 L 133 179 L 130 186 L 139 197 Q 141 196 140 199 L 155 212 L 162 216 L 166 216 L 173 212 L 208 179 L 221 164 Q 222 158 219 156 L 195 132 Q 192 129 186 130 Z " /><path fill="rgb(253,242,242)" stroke="rgb(253,242,242)" stroke-width="1" opacity="0.996078431372549" d="M 149.5 137 Q 156.8 135.8 159 139.5 L 159 141.5 L 143.5 157 Q 138.1 158.9 139 155.5 Q 136.5 154 138 148.5 Q 139.6 141.6 145.5 139 L 149.5 137 Z M 149 143 L 143 150 L 150 144 L 149 143 Z " /><path fill="rgb(253,242,242)" stroke="rgb(253,242,242)" stroke-width="1" opacity="0.996078431372549" d="M 210.5 188 L 216.5 192 L 240 214.5 L 243 222.5 Q 241.4 231.4 234.5 235 Q 231.6 237.6 225.5 237 L 220.5 235 L 193 208.5 L 192 205.5 L 201.5 195 L 210.5 188 Z M 211 194 L 200 204 L 198 207 L 222 229 L 226 232 L 230 232 L 238 224 L 238 221 L 211 194 Z " /><path fill="rgb(234,125,125)" stroke="rgb(234,125,125)" stroke-width="1" opacity="0.9882352941176471" d="M 180.5 22 L 186 22.5 Q 178 22 175.5 27 L 178.5 23 L 180.5 22 Z " /><path fill="rgb(234,125,125)" stroke="rgb(234,125,125)" stroke-width="1" opacity="0.9882352941176471" d="M 171.5 30 L 167.5 35 L 171.5 30 Z " /><path fill="rgb(234,125,125)" stroke="rgb(234,125,125)" stroke-width="1" opacity="0.9882352941176471" d="M 191.5 33 L 192 35.5 L 188 38.5 L 191.5 33 Z " /><path fill="rgb(234,125,125)" stroke="rgb(234,125,125)" stroke-width="1" opacity="0.9882352941176471" d="M 185.5 42 L 181.5 47 L 185.5 42 Z " /><path fill="rgb(234,125,125)" stroke="rgb(234,125,125)" stroke-width="1" opacity="0.9882352941176471" d="M 146.5 44 L 149 44.5 L 142.5 47 L 126.5 49 L 126.5 48 L 142.5 46 L 146.5 44 Z " /><path fill="rgb(234,125,125)" stroke="rgb(234,125,125)" stroke-width="1" opacity="0.9882352941176471" d="M 156.5 60 L 158 60.5 L 151.5 63 L 151.5 62 L 156.5 60 Z " /><path fill="rgb(234,125,125)" stroke="rgb(234,125,125)" stroke-width="1" opacity="0.9882352941176471" d="M 146.5 63 L 150 63.5 L 128.5 68 L 128.5 67 L 146.5 63 Z " /><path fill="rgb(234,125,125)" stroke="rgb(234,125,125)" stroke-width="1" opacity="0.9882352941176471" d="M 103.5 65 L 103 66.5 L 99.5 76 L 99 73.5 L 103.5 65 Z " /><path fill="rgb(234,125,125)" stroke="rgb(234,125,125)" stroke-width="1" opacity="0.9882352941176471" d="M 98.5 77 L 100 93.5 L 99 93.5 Q 96.6 86.7 98.5 77 Z " /><path fill="rgb(234,125,125)" stroke="rgb(234,125,125)" stroke-width="1" opacity="0.9882352941176471" d="M 116.5 80 L 118 87.5 L 117 87.5 L 116.5 80 Z " /><path fill="rgb(234,125,125)" stroke="rgb(234,125,125)" stroke-width="1" opacity="0.9882352941176471" d="M 221.5 95 L 220 97.5 L 218.5 101 L 218 99.5 L 221.5 95 Z " /><path fill="rgb(234,125,125)" stroke="rgb(234,125,125)" stroke-width="1" opacity="0.9882352941176471" d="M 199.5 96 L 200 98.5 L 197.5 106 L 197 102.5 L 199.5 96 Z " /><path fill="rgb(234,125,125)" stroke="rgb(234,125,125)" stroke-width="1" opacity="0.9882352941176471" d="M 82.5 104 L 94 104.5 Q 81.6 103.6 74.5 108 L 74.5 107 L 82.5 104 Z " /><path fill="rgb(234,125,125)" stroke="rgb(234,125,125)" stroke-width="1" opacity="0.9882352941176471" d="M 216.5 104 L 217 105.5 L 214.5 112 L 215 110.5 Q 214.3 105.8 216.5 104 Z " /><path fill="rgb(234,125,125)" stroke="rgb(234,125,125)" stroke-width="1" opacity="0.9882352941176471" d="M 120.5 113 L 140 114.5 L 124.5 115 L 120.5 114 L 120.5 113 Z " /><path fill="rgb(234,125,125)" stroke="rgb(234,125,125)" stroke-width="1" opacity="0.9882352941176471" d="M 196.5 115 L 197 118.5 L 195.5 123 L 195 119.5 L 196.5 115 Z " /><path fill="rgb(234,125,125)" stroke="rgb(234,125,125)" stroke-width="1" opacity="0.9882352941176471" d="M 213.5 125 L 214 127.5 L 210.5 137 L 210 135.5 L 213.5 125 Z " /><path fill="rgb(234,125,125)" stroke="rgb(234,125,125)" stroke-width="1" opacity="0.9882352941176471" d="M 146.5 126 L 147 136.5 L 148 137.5 L 146 136.5 L 146.5 126 Z " /><path fill="rgb(234,125,125)" stroke="rgb(234,125,125)" stroke-width="1" opacity="0.9882352941176471" d="M 164.5 126 L 166 133.5 L 164 132.5 L 164.5 126 Z " /><path fill="rgb(234,125,125)" stroke="rgb(234,125,125)" stroke-width="1" opacity="0.9882352941176471" d="M 55.5 129 L 55 130.5 L 51.5 138 L 51 136.5 L 55.5 129 Z " /><path fill="rgb(234,125,125)" stroke="rgb(234,125,125)" stroke-width="1" opacity="0.9882352941176471" d="M 101.5 130 L 120 134.5 L 117.5 135 L 103.5 132 L 101.5 130 Z " /><path fill="rgb(234,125,125)" stroke="rgb(234,125,125)" stroke-width="1" opacity="0.9882352941176471" d="M 50.5 139 L 51 140.5 L 48.5 146 L 48 144.5 L 50.5 139 Z " /><path fill="rgb(234,125,125)" stroke="rgb(234,125,125)" stroke-width="1" opacity="0.9882352941176471" d="M 125.5 140 L 129 156.5 L 128 156.5 L 125 145.5 L 125.5 140 Z " /><path fill="rgb(234,125,125)" stroke="rgb(234,125,125)" stroke-width="1" opacity="0.9882352941176471" d="M 26.5 175 L 25 177.5 L 24 185.5 L 25 187.5 L 24 187.5 L 23 179.5 L 26.5 175 Z " /><path fill="rgb(234,125,125)" stroke="rgb(234,125,125)" stroke-width="1" opacity="0.9882352941176471" d="M 26.5 189 Q 28.8 192.2 35.5 191 L 37.5 190 L 37.5 191 L 29.5 192 L 26.5 189 Z " /><path fill="rgb(234,125,125)" stroke="rgb(234,125,125)" stroke-width="1" opacity="0.9882352941176471" d="M 123.5 204 L 122.5 206 L 103.5 215 L 103.5 214 L 123.5 204 Z " /><path fill="rgb(234,125,125)" stroke="rgb(234,125,125)" stroke-width="1" opacity="0.9882352941176471" d="M 66.5 219 L 66 220.5 L 67 229.5 L 66 229.5 L 65 220.5 L 66.5 219 Z " /><path fill="rgb(234,125,125)" stroke="rgb(234,125,125)" stroke-width="1" opacity="0.9882352941176471" d="M 68.5 231 L 75 233.5 L 72.5 234 Q 68.5 233.5 68.5 231 Z " /><path fill="rgb(235,125,125)" stroke="rgb(235,125,125)" stroke-width="1" opacity="1" d="M 180.5 23 Q 187.8 21.8 190 25.5 L 192 32.5 Q 187.3 42.8 178.5 49 L 167.5 56 L 150.5 63 L 130.5 66 L 117 76.5 L 116 83.5 L 119.5 92 L 126.5 96 L 132.5 96 L 137.5 95 L 143.5 97 L 145.5 97 L 149.5 98 L 160 106.5 Q 165.5 113 165 125.5 Q 162.5 127 164 132.5 L 167 138.5 L 154.5 150 L 153 147.5 L 159 141.5 L 159 139.5 Q 156.8 135.8 149.5 137 Q 148.3 139.3 147 136.5 L 147 125.5 L 148 124.5 L 146 118.5 L 143.5 116 L 139.5 114 L 124.5 114 L 119.5 113 Q 110.4 110.1 105 103.5 L 100 94.5 L 99 76.5 Q 102 64.5 109.5 57 L 125.5 49 L 142.5 47 L 151.5 44 Q 169 36.5 180.5 23 Z " /><path fill="rgb(235,125,125)" stroke="rgb(235,125,125)" stroke-width="1" opacity="1" d="M 227.5 66 Q 233.7 65.3 236 68.5 Q 238.3 71.7 237 78.5 L 219 97.5 L 214 111.5 Q 216.3 112.7 215 117.5 L 210 138 L 194 126.5 Q 197 122.5 197 115.5 L 197 113.5 L 197 106.5 L 200 95.5 L 214.5 74 Q 219.4 68.4 227.5 66 Z " /><path fill="rgb(235,125,125)" stroke="rgb(235,125,125)" stroke-width="1" opacity="1" d="M 82.5 105 L 98.5 106 L 111.5 115 Q 128.6 114.9 137 123.5 L 143 133.5 L 144 140.5 Q 137 143.5 138 154.5 L 139 157 L 143.5 157 L 148.5 152 L 150 154.5 L 136 167.5 L 129 157.5 L 126 145.5 L 126 140.5 L 119.5 134 L 100.5 130 L 90.5 123 L 83.5 123 L 79 125 L 69 141.5 Q 65.9 158.4 58 170.5 L 44.5 186 L 38.5 190 L 29.5 191 L 25 189 L 24 179.5 L 30.5 172 L 41 162.5 L 48 149.5 Q 50.6 136.1 57 126.5 L 67.5 112 L 73.5 108 L 82.5 105 Z " /><path fill="rgb(235,125,125)" stroke="rgb(235,125,125)" stroke-width="1" opacity="1" d="M 185.5 130 Q 191.8 129.2 194.5 132 L 219 155.5 Q 222 157.5 221 163.5 L 207.5 179 L 172.5 212 L 165.5 216 L 161.5 216 L 154.5 212 L 140 198.5 Q 140.8 196.3 138.5 197 L 130 185.5 L 133 178.5 L 153.5 158 L 174.5 138 L 185.5 130 Z " /><path fill="rgb(235,125,125)" stroke="rgb(235,125,125)" stroke-width="1" opacity="1" d="M 150.5 142 L 142.5 151 L 143 149.5 L 148.5 143 L 150.5 142 Z " /><path fill="rgb(235,125,125)" stroke="rgb(235,125,125)" stroke-width="1" opacity="1" d="M 124.5 183 Q 127.9 182.1 126 187.5 L 133 200 L 97.5 217 L 79.5 232 L 72.5 233 L 67 231 Q 65.3 227.6 66 220.5 L 74.5 211 L 92.5 199 L 112.5 189 L 117.5 188 L 124.5 183 Z " /><path fill="rgb(235,125,125)" stroke="rgb(235,125,125)" stroke-width="1" opacity="1" d="M 210.5 194 L 238 220.5 L 238 223.5 L 229.5 232 L 225.5 232 L 221.5 229 L 198 206.5 L 199.5 204 L 210.5 194 Z " /><path fill="rgb(242,170,170)" stroke="rgb(242,170,170)" stroke-width="1" opacity="0.3254901960784314" d="M 191.5 36 L 186.5 42 L 191.5 36 Z " /><path fill="rgb(242,170,170)" stroke="rgb(242,170,170)" stroke-width="1" opacity="0.3254901960784314" d="M 221.5 67 L 217.5 72 L 211.5 77 L 216.5 71 L 221.5 67 Z " /><path fill="rgb(242,170,170)" stroke="rgb(242,170,170)" stroke-width="1" opacity="0.3254901960784314" d="M 237.5 78 L 229.5 87 L 237.5 78 Z " /><path fill="rgb(242,170,170)" stroke="rgb(242,170,170)" stroke-width="1" opacity="0.3254901960784314" d="M 228.5 88 L 222.5 95 L 228.5 88 Z " /><path fill="rgb(242,170,170)" stroke="rgb(242,170,170)" stroke-width="1" opacity="0.3254901960784314" d="M 103.5 102 L 108.5 108 L 103.5 102 Z " /><path fill="rgb(242,170,170)" stroke="rgb(242,170,170)" stroke-width="1" opacity="0.3254901960784314" d="M 68.5 110 L 64.5 115 L 68.5 110 Z " /><path fill="rgb(242,170,170)" stroke="rgb(242,170,170)" stroke-width="1" opacity="0.3254901960784314" d="M 132.5 119 L 139 124.5 L 134.5 121 L 132.5 119 Z " /><path fill="rgb(242,170,170)" stroke="rgb(242,170,170)" stroke-width="1" opacity="0.3254901960784314" d="M 120.5 135 L 124.5 140 L 120.5 135 Z " /><path fill="rgb(242,170,170)" stroke="rgb(242,170,170)" stroke-width="1" opacity="0.3254901960784314" d="M 38.5 164 L 33.5 170 L 38.5 164 Z " /><path fill="rgb(242,170,170)" stroke="rgb(242,170,170)" stroke-width="1" opacity="0.3254901960784314" d="M 31.5 170 L 27.5 175 L 24.5 177 L 26.5 174 L 31.5 170 Z " /><path fill="rgb(242,170,170)" stroke="rgb(242,170,170)" stroke-width="1" opacity="0.3254901960784314" d="M 52.5 178 L 43.5 188 L 52.5 178 Z " /><path fill="rgb(242,170,170)" stroke="rgb(242,170,170)" stroke-width="1" opacity="0.3254901960784314" d="M 126.5 179 L 127 180.5 L 120.5 186 L 121.5 184 L 126 180.5 L 126.5 179 Z " /><path fill="rgb(242,170,170)" stroke="rgb(242,170,170)" stroke-width="1" opacity="0.3254901960784314" d="M 206.5 190 L 202.5 195 L 206.5 190 Z " /><path fill="rgb(242,170,170)" stroke="rgb(242,170,170)" stroke-width="1" opacity="0.3254901960784314" d="M 232.5 207 L 236.5 212 L 232.5 207 Z " /><path fill="rgb(242,170,170)" stroke="rgb(242,170,170)" stroke-width="1" opacity="0.3254901960784314" d="M 75.5 209 L 65.5 220 L 75.5 209 Z " /><path fill="rgb(242,170,170)" stroke="rgb(242,170,170)" stroke-width="1" opacity="0.3254901960784314" d="M 90.5 223 L 86.5 228 L 90.5 223 Z " /></svg>