<svg width="256" height="256" version="1.1" xmlns="http://www.w3.org/2000/svg" desc="Created with imagetracer.js version 1.2.6" ><path fill="rgb(255,255,255)" stroke="rgb(255,255,255)" stroke-width="1" opacity="0.5019607843137255" d="M 65.5 25 L 65 26.5 L 63.5 29 L 64 27.5 L 65.5 25 Z " /><path fill="rgb(255,255,255)" stroke="rgb(255,255,255)" stroke-width="1" opacity="0.5019607843137255" d="M 67.5 29 L 70 32.5 L 68 31.5 L 67.5 29 Z " /><path fill="rgb(255,255,255)" stroke="rgb(255,255,255)" stroke-width="1" opacity="0.5019607843137255" d="M 62.5 30 L 62 31.5 L 59.5 36 L 60 34.5 L 62.5 30 Z " /><path fill="rgb(255,255,255)" stroke="rgb(255,255,255)" stroke-width="1" opacity="0.5019607843137255" d="M 191.5 31 L 201 37.5 L 132.5 139 L 123 132.5 L 191.5 31 Z M 192 32 L 126 130 L 125 133 L 133 137 L 199 38 L 192 32 Z " /><path fill="rgb(255,255,255)" stroke="rgb(255,255,255)" stroke-width="1" opacity="0.5019607843137255" d="M 71.5 36 L 74 39.5 L 72 38.5 L 71.5 36 Z " /><path fill="rgb(255,255,255)" stroke="rgb(255,255,255)" stroke-width="1" opacity="0.5019607843137255" d="M 58.5 37 L 58 38.5 L 55.5 43 L 56 41.5 L 58.5 37 Z " /><path fill="rgb(255,255,255)" stroke="rgb(255,255,255)" stroke-width="1" opacity="0.5019607843137255" d="M 75.5 43 L 78 46.5 L 76 45.5 L 75.5 43 Z " /><path fill="rgb(255,255,255)" stroke="rgb(255,255,255)" stroke-width="1" opacity="0.5019607843137255" d="M 54.5 44 L 54 45.5 L 51.5 50 L 52 48.5 L 54.5 44 Z " /><path fill="rgb(255,255,255)" stroke="rgb(255,255,255)" stroke-width="1" opacity="0.5019607843137255" d="M 79.5 50 L 82 53.5 L 80 52.5 L 79.5 50 Z " /><path fill="rgb(255,255,255)" stroke="rgb(255,255,255)" stroke-width="1" opacity="0.5019607843137255" d="M 50.5 51 L 50 52.5 L 47.5 57 L 48 55.5 L 50.5 51 Z " /><path fill="rgb(255,255,255)" stroke="rgb(255,255,255)" stroke-width="1" opacity="0.5019607843137255" d="M 83.5 57 L 86 60.5 L 84 59.5 L 83.5 57 Z " /><path fill="rgb(255,255,255)" stroke="rgb(255,255,255)" stroke-width="1" opacity="0.5019607843137255" d="M 46.5 58 L 46 59.5 L 44.5 62 L 45 60.5 L 46.5 58 Z " /><path fill="rgb(255,255,255)" stroke="rgb(255,255,255)" stroke-width="1" opacity="0.5019607843137255" d="M 87.5 64 L 90 67.5 L 88 66.5 L 87.5 64 Z " /><path fill="rgb(255,255,255)" stroke="rgb(255,255,255)" stroke-width="1" opacity="0.5019607843137255" d="M 42.5 65 L 42 66.5 L 40.5 69 L 41 67.5 L 42.5 65 Z " /><path fill="rgb(255,255,255)" stroke="rgb(255,255,255)" stroke-width="1" opacity="0.5019607843137255" d="M 91.5 71 L 94 74.5 L 92 73.5 L 91.5 71 Z " /><path fill="rgb(255,255,255)" stroke="rgb(255,255,255)" stroke-width="1" opacity="0.5019607843137255" d="M 38.5 72 L 38 73.5 L 36.5 76 L 37 74.5 L 38.5 72 Z " /><path fill="rgb(255,255,255)" stroke="rgb(255,255,255)" stroke-width="1" opacity="0.5019607843137255" d="M 35.5 77 L 35 78.5 L 32.5 83 L 33 81.5 L 35.5 77 Z " /><path fill="rgb(255,255,255)" stroke="rgb(255,255,255)" stroke-width="1" opacity="0.5019607843137255" d="M 95.5 78 L 98 81.5 L 96 80.5 L 95.5 78 Z " /><path fill="rgb(255,255,255)" stroke="rgb(255,255,255)" stroke-width="1" opacity="0.5019607843137255" d="M 98.5 83 L 99 85 L 74 85 L 74 101 L 57 101 L 57 85 L 31.5 85 L 31.5 84 L 58 84 L 58 100 L 73 100 L 73 84 L 97.5 84 L 98.5 83 Z " /><path fill="rgb(255,255,255)" stroke="rgb(255,255,255)" stroke-width="1" opacity="0.5019607843137255" d="M 57 116 L 74 116 L 74 132.5 L 73 132.5 L 73 117 L 58 117 L 57.5 133 L 57 116 Z " /><path fill="rgb(255,255,255)" stroke="rgb(255,255,255)" stroke-width="1" opacity="0.5019607843137255" d="M 57 149 L 74 149 L 74 164.5 L 72.5 166 L 57 166 L 57 149 Z M 58 150 L 58 165 L 73 165 L 73 150 L 58 150 Z " /><path fill="rgb(255,255,255)" stroke="rgb(255,255,255)" stroke-width="1" opacity="0.5019607843137255" d="M 168 155 L 171 156.5 L 169 156.5 L 169 181.5 L 168.5 182 L 26.5 182 L 26 182.5 L 26 197 L 167.5 197 L 169 198.5 L 169 222.5 L 170 223.5 L 168 224 L 168 198.5 L 167.5 198 L 25.5 198 L 25 197.5 L 25 181 L 167.5 181 L 168 180.5 L 168 155 Z " /><path fill="rgb(255,255,255)" stroke="rgb(255,255,255)" stroke-width="1" opacity="0.5019607843137255" d="M 176.5 159 L 180 161.5 L 178.5 161 L 176.5 159 Z " /><path fill="rgb(255,255,255)" stroke="rgb(255,255,255)" stroke-width="1" opacity="0.5019607843137255" d="M 183.5 163 L 187 165.5 L 185.5 165 L 183.5 163 Z " /><path fill="rgb(255,255,255)" stroke="rgb(255,255,255)" stroke-width="1" opacity="0.5019607843137255" d="M 192.5 168 L 196 170.5 L 194.5 170 L 192.5 168 Z " /><path fill="rgb(255,255,255)" stroke="rgb(255,255,255)" stroke-width="1" opacity="0.5019607843137255" d="M 199.5 172 L 203 174.5 L 201.5 174 L 199.5 172 Z " /><path fill="rgb(255,255,255)" stroke="rgb(255,255,255)" stroke-width="1" opacity="0.5019607843137255" d="M 206.5 176 L 212 179.5 L 210.5 179 Q 206.5 178.5 206.5 176 Z " /><path fill="rgb(255,255,255)" stroke="rgb(255,255,255)" stroke-width="1" opacity="0.5019607843137255" d="M 215.5 181 L 219 183.5 L 217.5 183 L 215.5 181 Z " /><path fill="rgb(255,255,255)" stroke="rgb(255,255,255)" stroke-width="1" opacity="0.5019607843137255" d="M 222.5 185 L 226 187.5 L 224.5 187 L 222.5 185 Z " /><path fill="rgb(255,255,255)" stroke="rgb(255,255,255)" stroke-width="1" opacity="0.5019607843137255" d="M 229.5 189 L 230.5 191 L 228.5 192 L 229 190.5 L 229.5 189 Z " /><path fill="rgb(255,255,255)" stroke="rgb(255,255,255)" stroke-width="1" opacity="0.5019607843137255" d="M 220.5 195 L 219.5 197 L 217.5 198 L 218.5 196 L 220.5 195 Z " /><path fill="rgb(255,255,255)" stroke="rgb(255,255,255)" stroke-width="1" opacity="0.5019607843137255" d="M 211.5 200 L 210.5 202 L 208.5 203 L 209.5 201 L 211.5 200 Z " /><path fill="rgb(255,255,255)" stroke="rgb(255,255,255)" stroke-width="1" opacity="0.5019607843137255" d="M 200.5 206 L 199.5 208 L 197.5 209 L 198.5 207 L 200.5 206 Z " /><path fill="rgb(255,255,255)" stroke="rgb(255,255,255)" stroke-width="1" opacity="0.5019607843137255" d="M 189.5 212 L 188.5 214 L 186.5 215 L 187.5 213 L 189.5 212 Z " /><path fill="rgb(255,255,255)" stroke="rgb(255,255,255)" stroke-width="1" opacity="0.5019607843137255" d="M 57.5 214 L 58 230 L 73 230 L 73 214.5 L 74 214.5 L 74 229.5 L 72.5 231 L 57 231 L 57.5 214 Z " /><path fill="rgb(255,255,255)" stroke="rgb(255,255,255)" stroke-width="1" opacity="0.5019607843137255" d="M 178.5 218 L 177.5 220 L 175.5 221 L 176.5 219 L 178.5 218 Z " /><path fill="rgb(0,255,0)" stroke="rgb(0,255,0)" stroke-width="1" opacity="0.9098039215686274" d="M 102 34 L 115.5 34 L 117 35.5 L 133.5 63 L 152.5 34 L 166 34.5 L 140 73.5 L 140 99.5 L 138.5 101 L 128 101 L 128 74.5 L 102 34 Z " /><path fill="rgb(0,0,0)" stroke="rgb(0,0,0)" stroke-width="1" opacity="0" d="M 0 0 L 256 0 L 256 256 L 0 256 L 0 0 Z M 66 25 L 32 84 L 32 85 L 57 85 L 57 101 L 74 101 L 74 85 L 99 85 L 66 25 Z M 192 31 L 123 133 L 133 139 L 201 38 L 192 31 Z M 102 34 L 128 75 L 128 101 L 139 101 L 140 100 L 140 74 L 166 35 L 153 34 L 134 63 L 117 36 L 116 34 L 102 34 Z M 172 81 L 172 92 L 201 93 L 171 129 L 171 137 L 221 137 L 221 137 L 221 126 L 189 126 L 220 89 L 220 82 L 220 81 L 172 81 Z M 57 116 L 57 133 L 74 133 L 74 116 L 57 116 Z M 57 149 L 57 166 L 73 166 L 74 165 L 74 149 L 57 149 Z M 168 155 L 168 181 L 168 181 L 25 181 L 25 198 L 26 198 L 168 198 L 168 199 L 168 224 L 231 191 L 168 155 Z M 57 214 L 57 231 L 73 231 L 74 230 L 74 214 L 57 214 Z " /><path fill="rgb(255,255,255)" stroke="rgb(255,255,255)" stroke-width="1" opacity="0.996078431372549" d="M 198.5 38 L 197.5 40 L 198.5 38 Z " /><path fill="rgb(255,255,255)" stroke="rgb(255,255,255)" stroke-width="1" opacity="0.996078431372549" d="M 196.5 41 L 195.5 43 L 196.5 41 Z " /><path fill="rgb(255,255,255)" stroke="rgb(255,255,255)" stroke-width="1" opacity="0.996078431372549" d="M 194.5 44 L 193.5 46 L 194.5 44 Z " /><path fill="rgb(255,255,255)" stroke="rgb(255,255,255)" stroke-width="1" opacity="0.996078431372549" d="M 192.5 47 L 191.5 49 L 192.5 47 Z " /><path fill="rgb(255,255,255)" stroke="rgb(255,255,255)" stroke-width="1" opacity="0.996078431372549" d="M 190.5 50 L 189.5 52 L 190.5 50 Z " /><path fill="rgb(255,255,255)" stroke="rgb(255,255,255)" stroke-width="1" opacity="0.996078431372549" d="M 188.5 53 L 187.5 55 L 188.5 53 Z " /><path fill="rgb(255,255,255)" stroke="rgb(255,255,255)" stroke-width="1" opacity="0.996078431372549" d="M 161.5 77 L 160.5 79 L 161.5 77 Z " /><path fill="rgb(255,255,255)" stroke="rgb(255,255,255)" stroke-width="1" opacity="0.996078431372549" d="M 159.5 80 L 158.5 82 L 159.5 80 Z " /><path fill="rgb(255,255,255)" stroke="rgb(255,255,255)" stroke-width="1" opacity="0.996078431372549" d="M 157.5 83 L 156.5 85 L 157.5 83 Z " /><path fill="rgb(255,255,255)" stroke="rgb(255,255,255)" stroke-width="1" opacity="0.996078431372549" d="M 155.5 86 L 154.5 88 L 155.5 86 Z " /><path fill="rgb(255,255,255)" stroke="rgb(255,255,255)" stroke-width="1" opacity="0.996078431372549" d="M 153.5 89 L 152.5 91 L 153.5 89 Z " /><path fill="rgb(255,255,255)" stroke="rgb(255,255,255)" stroke-width="1" opacity="0.996078431372549" d="M 155.5 102 L 154.5 104 L 155.5 102 Z " /><path fill="rgb(255,255,255)" stroke="rgb(255,255,255)" stroke-width="1" opacity="0.996078431372549" d="M 153.5 105 L 152.5 107 L 153.5 105 Z " /><path fill="rgb(255,255,255)" stroke="rgb(255,255,255)" stroke-width="1" opacity="0.996078431372549" d="M 151.5 108 L 150.5 110 L 151.5 108 Z " /><path fill="rgb(255,255,255)" stroke="rgb(255,255,255)" stroke-width="1" opacity="0.996078431372549" d="M 149.5 111 L 148.5 113 L 149.5 111 Z " /><path fill="rgb(255,255,255)" stroke="rgb(255,255,255)" stroke-width="1" opacity="0.996078431372549" d="M 147.5 114 L 146.5 116 L 147.5 114 Z " /><path fill="rgb(255,255,255)" stroke="rgb(255,255,255)" stroke-width="1" opacity="0.996078431372549" d="M 191.5 168 L 192.5 170 L 191.5 168 Z " /><path fill="rgb(255,255,255)" stroke="rgb(255,255,255)" stroke-width="1" opacity="1" d="M 65.5 27 L 98 83.5 L 73 84 L 73 100 L 58 100 L 58 84 L 33.5 84 L 33 82.5 L 65.5 27 Z " /><path fill="rgb(255,255,255)" stroke="rgb(255,255,255)" stroke-width="1" opacity="1" d="M 191.5 33 L 199 37.5 L 132.5 136 L 130.5 136 L 125 131.5 L 191.5 33 Z " /><path fill="rgb(255,255,255)" stroke="rgb(255,255,255)" stroke-width="1" opacity="1" d="M 58 117 L 73 117 L 73 133 L 58 133 L 58 117 Z " /><path fill="rgb(255,255,255)" stroke="rgb(255,255,255)" stroke-width="1" opacity="1" d="M 58 150 L 73 150 L 73 165 L 58 165 L 58 150 Z " /><path fill="rgb(255,255,255)" stroke="rgb(255,255,255)" stroke-width="1" opacity="1" d="M 169 157 L 176.5 160 L 229 190.5 L 169.5 223 L 169 197 L 26.5 197 L 26 196.5 L 26 182 L 168.5 182 L 169 181.5 L 169 157 Z " /><path fill="rgb(255,255,255)" stroke="rgb(255,255,255)" stroke-width="1" opacity="1" d="M 58 214 L 73 214 L 73 230 L 58 230 L 58 214 Z " /><path fill="rgb(0,0,255)" stroke="rgb(0,0,255)" stroke-width="1" opacity="0.9294117647058824" d="M 172 81 L 219.5 81 L 220 81.5 L 220 88.5 L 189 125.5 L 221 126 L 221 136.5 L 220.5 137 L 171 137 L 171 128.5 L 201 92.5 L 172 92 L 172 81 Z " /></svg>